<svg xmlns="http://www.w3.org/2000/svg" width="512" height="512" viewBox="0 0 512 512">
  <rect width="512" height="512" rx="80" fill="#ef4444"/>
  <g shape-rendering="crispEdges">
    <rect x="144" y="144" width="40" height="40" fill="#ffffff"/>
    <rect x="184" y="144" width="40" height="40" fill="#fef3c7"/>
    <rect x="224" y="144" width="64" height="40" fill="#fef3c7"/>
    <rect x="288" y="144" width="40" height="40" fill="#fef3c7"/>
    <rect x="328" y="144" width="40" height="40" fill="#ffffff"/>
    <rect x="144" y="184" width="40" height="40" fill="#fef3c7"/>
    <rect x="184" y="184" width="40" height="40" fill="#000000"/>
    <rect x="224" y="184" width="64" height="40" fill="#fef3c7"/>
    <rect x="288" y="184" width="40" height="40" fill="#000000"/>
    <rect x="328" y="184" width="40" height="40" fill="#fef3c7"/>
    <rect x="144" y="224" width="40" height="40" fill="#ffffff"/>
    <rect x="184" y="224" width="40" height="40" fill="#fde68a"/>
    <rect x="224" y="224" width="64" height="40" fill="#fde68a"/>
    <rect x="288" y="224" width="40" height="40" fill="#fde68a"/>
    <rect x="328" y="224" width="40" height="40" fill="#ffffff"/>
    <rect x="184" y="264" width="40" height="40" fill="#fde68a"/>
    <rect x="224" y="264" width="64" height="40" fill="#ef4444"/>
    <rect x="288" y="264" width="40" height="40" fill="#fde68a"/>
    <rect x="184" y="304" width="40" height="40" fill="#fde68a"/>
    <rect x="224" y="304" width="64" height="40" fill="#dc2626"/>
    <rect x="288" y="304" width="40" height="40" fill="#fde68a"/>
    <rect x="200" y="344" width="112" height="24" fill="#dc2626"/>
  </g>
</svg>
