<svg xmlns="http://www.w3.org/2000/svg" width="512" height="512" viewBox="0 0 512 512">
  <rect width="512" height="512" fill="#ef4444"/>
  <g shape-rendering="crispEdges" transform="translate(96,96)">
    <rect x="64" y="64" width="32" height="32" fill="#ffffff"/>
    <rect x="96" y="64" width="32" height="32" fill="#fef3c7"/>
    <rect x="160" y="64" width="32" height="32" fill="#fef3c7"/>
    <rect x="192" y="64" width="32" height="32" fill="#ffffff"/>
    <rect x="64" y="96" width="32" height="32" fill="#fef3c7"/>
    <rect x="96" y="96" width="32" height="32" fill="#000000"/>
    <rect x="160" y="96" width="32" height="32" fill="#000000"/>
    <rect x="192" y="96" width="32" height="32" fill="#fef3c7"/>
    <rect x="64" y="128" width="32" height="32" fill="#ffffff"/>
    <rect x="96" y="128" width="32" height="32" fill="#fde68a"/>
    <rect x="128" y="128" width="32" height="32" fill="#fde68a"/>
    <rect x="160" y="128" width="32" height="32" fill="#fde68a"/>
    <rect x="192" y="128" width="32" height="32" fill="#ffffff"/>
    <rect x="96" y="160" width="32" height="32" fill="#fde68a"/>
    <rect x="128" y="160" width="32" height="32" fill="#ef4444"/>
    <rect x="160" y="160" width="32" height="32" fill="#fde68a"/>
    <rect x="96" y="192" width="32" height="32" fill="#fde68a"/>
    <rect x="128" y="192" width="32" height="32" fill="#dc2626"/>
    <rect x="160" y="192" width="32" height="32" fill="#fde68a"/>
    <rect x="112" y="224" width="64" height="16" fill="#dc2626"/>
  </g>
</svg>
