<svg xmlns="http://www.w3.org/2000/svg" viewBox="0 0 480 360" width="480" height="360">
  <defs>
    <linearGradient id="bgabstractpicasso011" x1="0%" y1="0%" x2="100%" y2="100%">
      <stop offset="0%" stop-color="#A855F7" stop-opacity="0.25"/>
      <stop offset="100%" stop-color="#EF4444" stop-opacity="0.25"/>
    </linearGradient>
    <linearGradient id="cardabstractpicasso011" x1="0%" y1="0%" x2="0%" y2="100%">
      <stop offset="0%" stop-color="#ffffff" stop-opacity="0.98"/>
      <stop offset="100%" stop-color="#f5f5f7" stop-opacity="0.95"/>
    </linearGradient>
    <linearGradient id="boardabstractpicasso011" x1="0%" y1="0%" x2="0%" y2="100%">
      <stop offset="0%" stop-color="#1d1d1f" stop-opacity="0.04"/>
      <stop offset="100%" stop-color="#1d1d1f" stop-opacity="0.08"/>
    </linearGradient>
    <filter id="shadowabstractpicasso011" x="-10%" y="-10%" width="120%" height="120%">
      <feGaussianBlur in="SourceAlpha" stdDeviation="4"/>
      <feOffset dx="0" dy="2"/>
      <feComponentTransfer><feFuncA type="linear" slope="0.15"/></feComponentTransfer>
      <feMerge><feMergeNode/><feMergeNode in="SourceGraphic"/></feMerge>
    </filter>
  </defs>
  <rect width="480" height="360" fill="#fafafa"/>
  <rect width="480" height="360" fill="url(#bgabstractpicasso011)"/>
  <path d="M 0 340 Q 240 320 480 340" stroke="#22C55E" stroke-width="1" fill="none" opacity="0.15"/>
  <path d="M 0 20 Q 240 0 480 20" stroke="#A855F7" stroke-width="1" fill="none" opacity="0.2"/>
  <circle cx="30" cy="25" r="2" fill="#A855F7" opacity="0.15"/>
  <circle cx="86" cy="72" r="3" fill="#EF4444" opacity="0.22999999999999998"/>
  <circle cx="142" cy="119" r="4" fill="#22C55E" opacity="0.31"/>
  <circle cx="198" cy="166" r="5" fill="#A855F7" opacity="0.15"/>
  <circle cx="254" cy="213" r="2" fill="#EF4444" opacity="0.22999999999999998"/>
  <circle cx="310" cy="260" r="3" fill="#22C55E" opacity="0.31"/>
  <circle cx="366" cy="307" r="4" fill="#A855F7" opacity="0.15"/>
  <circle cx="422" cy="34" r="5" fill="#EF4444" opacity="0.22999999999999998"/>
  <rect x="138" y="70" width="204" height="232" rx="18" fill="url(#cardabstractpicasso011)" stroke="rgba(0,0,0,0.06)" stroke-width="1" filter="url(#shadowabstractpicasso011)"/>
  <!-- 像素预览底板（深色，让浅色像素可见） -->
  <rect x="152" y="84" width="176" height="176" rx="6" fill="#f5f5f7" stroke="rgba(0,0,0,0.08)" stroke-width="1"/>
  <!-- 像素网格 -->
  <rect x="172.00" y="88.00" width="8.00" height="8.00" fill="#E74C3C"/><rect x="180.00" y="88.00" width="8.00" height="8.00" fill="#E74C3C"/><rect x="188.00" y="88.00" width="8.00" height="8.00" fill="#E74C3C"/><rect x="196.00" y="88.00" width="8.00" height="8.00" fill="#E74C3C"/><rect x="204.00" y="88.00" width="8.00" height="8.00" fill="#E74C3C"/><rect x="212.00" y="88.00" width="8.00" height="8.00" fill="#E74C3C"/><rect x="220.00" y="88.00" width="8.00" height="8.00" fill="#E74C3C"/><rect x="228.00" y="88.00" width="8.00" height="8.00" fill="#FFFFFF"/><rect x="236.00" y="88.00" width="8.00" height="8.00" fill="#000000"/><rect x="244.00" y="88.00" width="8.00" height="8.00" fill="#FFFFFF"/><rect x="252.00" y="88.00" width="8.00" height="8.00" fill="#F4D03F"/><rect x="260.00" y="88.00" width="8.00" height="8.00" fill="#F4D03F"/><rect x="268.00" y="88.00" width="8.00" height="8.00" fill="#F4D03F"/><rect x="276.00" y="88.00" width="8.00" height="8.00" fill="#F4D03F"/><rect x="284.00" y="88.00" width="8.00" height="8.00" fill="#F4D03F"/><rect x="292.00" y="88.00" width="8.00" height="8.00" fill="#F4D03F"/><rect x="300.00" y="88.00" width="8.00" height="8.00" fill="#F4D03F"/><rect x="172.00" y="96.00" width="8.00" height="8.00" fill="#E74C3C"/><rect x="180.00" y="96.00" width="8.00" height="8.00" fill="#E74C3C"/><rect x="188.00" y="96.00" width="8.00" height="8.00" fill="#E74C3C"/><rect x="196.00" y="96.00" width="8.00" height="8.00" fill="#E74C3C"/><rect x="204.00" y="96.00" width="8.00" height="8.00" fill="#E74C3C"/><rect x="212.00" y="96.00" width="8.00" height="8.00" fill="#E74C3C"/><rect x="220.00" y="96.00" width="8.00" height="8.00" fill="#E74C3C"/><rect x="228.00" y="96.00" width="8.00" height="8.00" fill="#FFFFFF"/><rect x="236.00" y="96.00" width="8.00" height="8.00" fill="#000000"/><rect x="244.00" y="96.00" width="8.00" height="8.00" fill="#FFFFFF"/><rect x="252.00" y="96.00" width="8.00" height="8.00" fill="#F4D03F"/><rect x="260.00" y="96.00" width="8.00" height="8.00" fill="#F4D03F"/><rect x="268.00" y="96.00" width="8.00" height="8.00" fill="#F4D03F"/><rect x="276.00" y="96.00" width="8.00" height="8.00" fill="#F4D03F"/><rect x="284.00" y="96.00" width="8.00" height="8.00" fill="#F4D03F"/><rect x="292.00" y="96.00" width="8.00" height="8.00" fill="#F4D03F"/><rect x="300.00" y="96.00" width="8.00" height="8.00" fill="#F4D03F"/><rect x="172.00" y="104.00" width="8.00" height="8.00" fill="#E74C3C"/><rect x="180.00" y="104.00" width="8.00" height="8.00" fill="#E74C3C"/><rect x="188.00" y="104.00" width="8.00" height="8.00" fill="#E74C3C"/><rect x="196.00" y="104.00" width="8.00" height="8.00" fill="#E74C3C"/><rect x="204.00" y="104.00" width="8.00" height="8.00" fill="#E74C3C"/><rect x="212.00" y="104.00" width="8.00" height="8.00" fill="#E74C3C"/><rect x="220.00" y="104.00" width="8.00" height="8.00" fill="#E74C3C"/><rect x="228.00" y="104.00" width="8.00" height="8.00" fill="#FFFFFF"/><rect x="236.00" y="104.00" width="8.00" height="8.00" fill="#000000"/><rect x="244.00" y="104.00" width="8.00" height="8.00" fill="#FFFFFF"/><rect x="252.00" y="104.00" width="8.00" height="8.00" fill="#F4D03F"/><rect x="260.00" y="104.00" width="8.00" height="8.00" fill="#F4D03F"/><rect x="268.00" y="104.00" width="8.00" height="8.00" fill="#F4D03F"/><rect x="276.00" y="104.00" width="8.00" height="8.00" fill="#F4D03F"/><rect x="284.00" y="104.00" width="8.00" height="8.00" fill="#F4D03F"/><rect x="292.00" y="104.00" width="8.00" height="8.00" fill="#F4D03F"/><rect x="300.00" y="104.00" width="8.00" height="8.00" fill="#F4D03F"/><rect x="172.00" y="112.00" width="8.00" height="8.00" fill="#FFFFFF"/><rect x="180.00" y="112.00" width="8.00" height="8.00" fill="#FFFFFF"/><rect x="188.00" y="112.00" width="8.00" height="8.00" fill="#FFFFFF"/><rect x="196.00" y="112.00" width="8.00" height="8.00" fill="#FFFFFF"/><rect x="204.00" y="112.00" width="8.00" height="8.00" fill="#FFFFFF"/><rect x="212.00" y="112.00" width="8.00" height="8.00" fill="#FFFFFF"/><rect x="220.00" y="112.00" width="8.00" height="8.00" fill="#FFFFFF"/><rect x="228.00" y="112.00" width="8.00" height="8.00" fill="#FFFFFF"/><rect x="236.00" y="112.00" width="8.00" height="8.00" fill="#000000"/><rect x="244.00" y="112.00" width="8.00" height="8.00" fill="#FFFFFF"/><rect x="252.00" y="112.00" width="8.00" height="8.00" fill="#FFFFFF"/><rect x="260.00" y="112.00" width="8.00" height="8.00" fill="#FFFFFF"/><rect x="268.00" y="112.00" width="8.00" height="8.00" fill="#FFFFFF"/><rect x="276.00" y="112.00" width="8.00" height="8.00" fill="#FFFFFF"/><rect x="284.00" y="112.00" width="8.00" height="8.00" fill="#FFFFFF"/><rect x="292.00" y="112.00" width="8.00" height="8.00" fill="#FFFFFF"/><rect x="300.00" y="112.00" width="8.00" height="8.00" fill="#FFFFFF"/><rect x="172.00" y="120.00" width="8.00" height="8.00" fill="#FFFFFF"/><rect x="180.00" y="120.00" width="8.00" height="8.00" fill="#FFFFFF"/><rect x="188.00" y="120.00" width="8.00" height="8.00" fill="#FFFFFF"/><rect x="196.00" y="120.00" width="8.00" height="8.00" fill="#FFFFFF"/><rect x="204.00" y="120.00" width="8.00" height="8.00" fill="#42A5F5"/><rect x="212.00" y="120.00" width="8.00" height="8.00" fill="#FFFFFF"/><rect x="220.00" y="120.00" width="8.00" height="8.00" fill="#FFFFFF"/><rect x="228.00" y="120.00" width="8.00" height="8.00" fill="#FFFFFF"/><rect x="236.00" y="120.00" width="8.00" height="8.00" fill="#000000"/><rect x="244.00" y="120.00" width="8.00" height="8.00" fill="#FFFFFF"/><rect x="252.00" y="120.00" width="8.00" height="8.00" fill="#8E44AD"/><rect x="260.00" y="120.00" width="8.00" height="8.00" fill="#8E44AD"/><rect x="268.00" y="120.00" width="8.00" height="8.00" fill="#8E44AD"/><rect x="276.00" y="120.00" width="8.00" height="8.00" fill="#8E44AD"/><rect x="284.00" y="120.00" width="8.00" height="8.00" fill="#8E44AD"/><rect x="292.00" y="120.00" width="8.00" height="8.00" fill="#FFFFFF"/><rect x="300.00" y="120.00" width="8.00" height="8.00" fill="#FFFFFF"/><rect x="172.00" y="128.00" width="8.00" height="8.00" fill="#FFFFFF"/><rect x="180.00" y="128.00" width="8.00" height="8.00" fill="#FFFFFF"/><rect x="188.00" y="128.00" width="8.00" height="8.00" fill="#FFFFFF"/><rect x="196.00" y="128.00" width="8.00" height="8.00" fill="#42A5F5"/><rect x="204.00" y="128.00" width="8.00" height="8.00" fill="#42A5F5"/><rect x="212.00" y="128.00" width="8.00" height="8.00" fill="#42A5F5"/><rect x="220.00" y="128.00" width="8.00" height="8.00" fill="#FFFFFF"/><rect x="228.00" y="128.00" width="8.00" height="8.00" fill="#FFFFFF"/><rect x="236.00" y="128.00" width="8.00" height="8.00" fill="#000000"/><rect x="244.00" y="128.00" width="8.00" height="8.00" fill="#FFFFFF"/><rect x="252.00" y="128.00" width="8.00" height="8.00" fill="#8E44AD"/><rect x="260.00" y="128.00" width="8.00" height="8.00" fill="#8E44AD"/><rect x="268.00" y="128.00" width="8.00" height="8.00" fill="#8E44AD"/><rect x="276.00" y="128.00" width="8.00" height="8.00" fill="#8E44AD"/><rect x="284.00" y="128.00" width="8.00" height="8.00" fill="#8E44AD"/><rect x="292.00" y="128.00" width="8.00" height="8.00" fill="#FFFFFF"/><rect x="300.00" y="128.00" width="8.00" height="8.00" fill="#FFFFFF"/><rect x="172.00" y="136.00" width="8.00" height="8.00" fill="#FFFFFF"/><rect x="180.00" y="136.00" width="8.00" height="8.00" fill="#FFFFFF"/><rect x="188.00" y="136.00" width="8.00" height="8.00" fill="#42A5F5"/><rect x="196.00" y="136.00" width="8.00" height="8.00" fill="#42A5F5"/><rect x="204.00" y="136.00" width="8.00" height="8.00" fill="#000000"/><rect x="212.00" y="136.00" width="8.00" height="8.00" fill="#42A5F5"/><rect x="220.00" y="136.00" width="8.00" height="8.00" fill="#42A5F5"/><rect x="228.00" y="136.00" width="8.00" height="8.00" fill="#FFFFFF"/><rect x="236.00" y="136.00" width="8.00" height="8.00" fill="#000000"/><rect x="244.00" y="136.00" width="8.00" height="8.00" fill="#FFFFFF"/><rect x="252.00" y="136.00" width="8.00" height="8.00" fill="#8E44AD"/><rect x="260.00" y="136.00" width="8.00" height="8.00" fill="#8E44AD"/><rect x="268.00" y="136.00" width="8.00" height="8.00" fill="#000000"/><rect x="276.00" y="136.00" width="8.00" height="8.00" fill="#8E44AD"/><rect x="284.00" y="136.00" width="8.00" height="8.00" fill="#8E44AD"/><rect x="292.00" y="136.00" width="8.00" height="8.00" fill="#FFFFFF"/><rect x="300.00" y="136.00" width="8.00" height="8.00" fill="#FFFFFF"/><rect x="172.00" y="144.00" width="8.00" height="8.00" fill="#FFFFFF"/><rect x="180.00" y="144.00" width="8.00" height="8.00" fill="#FFFFFF"/><rect x="188.00" y="144.00" width="8.00" height="8.00" fill="#FFFFFF"/><rect x="196.00" y="144.00" width="8.00" height="8.00" fill="#42A5F5"/><rect x="204.00" y="144.00" width="8.00" height="8.00" fill="#42A5F5"/><rect x="212.00" y="144.00" width="8.00" height="8.00" fill="#42A5F5"/><rect x="220.00" y="144.00" width="8.00" height="8.00" fill="#FFFFFF"/><rect x="228.00" y="144.00" width="8.00" height="8.00" fill="#FFFFFF"/><rect x="236.00" y="144.00" width="8.00" height="8.00" fill="#000000"/><rect x="244.00" y="144.00" width="8.00" height="8.00" fill="#FFFFFF"/><rect x="252.00" y="144.00" width="8.00" height="8.00" fill="#8E44AD"/><rect x="260.00" y="144.00" width="8.00" height="8.00" fill="#8E44AD"/><rect x="268.00" y="144.00" width="8.00" height="8.00" fill="#8E44AD"/><rect x="276.00" y="144.00" width="8.00" height="8.00" fill="#8E44AD"/><rect x="284.00" y="144.00" width="8.00" height="8.00" fill="#8E44AD"/><rect x="292.00" y="144.00" width="8.00" height="8.00" fill="#FFFFFF"/><rect x="300.00" y="144.00" width="8.00" height="8.00" fill="#FFFFFF"/><rect x="172.00" y="152.00" width="8.00" height="8.00" fill="#FFFFFF"/><rect x="180.00" y="152.00" width="8.00" height="8.00" fill="#FFFFFF"/><rect x="188.00" y="152.00" width="8.00" height="8.00" fill="#FFFFFF"/><rect x="196.00" y="152.00" width="8.00" height="8.00" fill="#FFFFFF"/><rect x="204.00" y="152.00" width="8.00" height="8.00" fill="#42A5F5"/><rect x="212.00" y="152.00" width="8.00" height="8.00" fill="#FFFFFF"/><rect x="220.00" y="152.00" width="8.00" height="8.00" fill="#FFFFFF"/><rect x="228.00" y="152.00" width="8.00" height="8.00" fill="#FF8C42"/><rect x="236.00" y="152.00" width="8.00" height="8.00" fill="#000000"/><rect x="244.00" y="152.00" width="8.00" height="8.00" fill="#FFFFFF"/><rect x="252.00" y="152.00" width="8.00" height="8.00" fill="#8E44AD"/><rect x="260.00" y="152.00" width="8.00" height="8.00" fill="#8E44AD"/><rect x="268.00" y="152.00" width="8.00" height="8.00" fill="#8E44AD"/><rect x="276.00" y="152.00" width="8.00" height="8.00" fill="#8E44AD"/><rect x="284.00" y="152.00" width="8.00" height="8.00" fill="#8E44AD"/><rect x="292.00" y="152.00" width="8.00" height="8.00" fill="#FFFFFF"/><rect x="300.00" y="152.00" width="8.00" height="8.00" fill="#FFFFFF"/><rect x="172.00" y="160.00" width="8.00" height="8.00" fill="#FFFFFF"/><rect x="180.00" y="160.00" width="8.00" height="8.00" fill="#FFFFFF"/><rect x="188.00" y="160.00" width="8.00" height="8.00" fill="#FFFFFF"/><rect x="196.00" y="160.00" width="8.00" height="8.00" fill="#FFFFFF"/><rect x="204.00" y="160.00" width="8.00" height="8.00" fill="#FFFFFF"/><rect x="212.00" y="160.00" width="8.00" height="8.00" fill="#FFFFFF"/><rect x="220.00" y="160.00" width="8.00" height="8.00" fill="#FFFFFF"/><rect x="228.00" y="160.00" width="8.00" height="8.00" fill="#FF8C42"/><rect x="236.00" y="160.00" width="8.00" height="8.00" fill="#000000"/><rect x="244.00" y="160.00" width="8.00" height="8.00" fill="#FFFFFF"/><rect x="252.00" y="160.00" width="8.00" height="8.00" fill="#FFFFFF"/><rect x="260.00" y="160.00" width="8.00" height="8.00" fill="#FFFFFF"/><rect x="268.00" y="160.00" width="8.00" height="8.00" fill="#FFFFFF"/><rect x="276.00" y="160.00" width="8.00" height="8.00" fill="#FFFFFF"/><rect x="284.00" y="160.00" width="8.00" height="8.00" fill="#FFFFFF"/><rect x="292.00" y="160.00" width="8.00" height="8.00" fill="#FFFFFF"/><rect x="300.00" y="160.00" width="8.00" height="8.00" fill="#FFFFFF"/><rect x="172.00" y="168.00" width="8.00" height="8.00" fill="#000000"/><rect x="180.00" y="168.00" width="8.00" height="8.00" fill="#000000"/><rect x="188.00" y="168.00" width="8.00" height="8.00" fill="#000000"/><rect x="196.00" y="168.00" width="8.00" height="8.00" fill="#000000"/><rect x="204.00" y="168.00" width="8.00" height="8.00" fill="#000000"/><rect x="212.00" y="168.00" width="8.00" height="8.00" fill="#000000"/><rect x="220.00" y="168.00" width="8.00" height="8.00" fill="#000000"/><rect x="228.00" y="168.00" width="8.00" height="8.00" fill="#000000"/><rect x="236.00" y="168.00" width="8.00" height="8.00" fill="#000000"/><rect x="244.00" y="168.00" width="8.00" height="8.00" fill="#000000"/><rect x="252.00" y="168.00" width="8.00" height="8.00" fill="#000000"/><rect x="260.00" y="168.00" width="8.00" height="8.00" fill="#000000"/><rect x="268.00" y="168.00" width="8.00" height="8.00" fill="#000000"/><rect x="276.00" y="168.00" width="8.00" height="8.00" fill="#000000"/><rect x="284.00" y="168.00" width="8.00" height="8.00" fill="#000000"/><rect x="292.00" y="168.00" width="8.00" height="8.00" fill="#000000"/><rect x="300.00" y="168.00" width="8.00" height="8.00" fill="#000000"/><rect x="172.00" y="176.00" width="8.00" height="8.00" fill="#FFFFFF"/><rect x="180.00" y="176.00" width="8.00" height="8.00" fill="#FFFFFF"/><rect x="188.00" y="176.00" width="8.00" height="8.00" fill="#FFFFFF"/><rect x="196.00" y="176.00" width="8.00" height="8.00" fill="#FFFFFF"/><rect x="204.00" y="176.00" width="8.00" height="8.00" fill="#FFFFFF"/><rect x="212.00" y="176.00" width="8.00" height="8.00" fill="#FFFFFF"/><rect x="220.00" y="176.00" width="8.00" height="8.00" fill="#FF8C42"/><rect x="228.00" y="176.00" width="8.00" height="8.00" fill="#FFFFFF"/><rect x="236.00" y="176.00" width="8.00" height="8.00" fill="#000000"/><rect x="244.00" y="176.00" width="8.00" height="8.00" fill="#FFFFFF"/><rect x="252.00" y="176.00" width="8.00" height="8.00" fill="#FFFFFF"/><rect x="260.00" y="176.00" width="8.00" height="8.00" fill="#FFFFFF"/><rect x="268.00" y="176.00" width="8.00" height="8.00" fill="#FFFFFF"/><rect x="276.00" y="176.00" width="8.00" height="8.00" fill="#FFFFFF"/><rect x="284.00" y="176.00" width="8.00" height="8.00" fill="#FFFFFF"/><rect x="292.00" y="176.00" width="8.00" height="8.00" fill="#FFFFFF"/><rect x="300.00" y="176.00" width="8.00" height="8.00" fill="#FFFFFF"/><rect x="172.00" y="184.00" width="8.00" height="8.00" fill="#FFFFFF"/><rect x="180.00" y="184.00" width="8.00" height="8.00" fill="#FFFFFF"/><rect x="188.00" y="184.00" width="8.00" height="8.00" fill="#FFFFFF"/><rect x="196.00" y="184.00" width="8.00" height="8.00" fill="#FFFFFF"/><rect x="204.00" y="184.00" width="8.00" height="8.00" fill="#FFFFFF"/><rect x="212.00" y="184.00" width="8.00" height="8.00" fill="#FFFFFF"/><rect x="220.00" y="184.00" width="8.00" height="8.00" fill="#FF8C42"/><rect x="228.00" y="184.00" width="8.00" height="8.00" fill="#FF8C42"/><rect x="236.00" y="184.00" width="8.00" height="8.00" fill="#000000"/><rect x="244.00" y="184.00" width="8.00" height="8.00" fill="#FF8C42"/><rect x="252.00" y="184.00" width="8.00" height="8.00" fill="#FF8C42"/><rect x="260.00" y="184.00" width="8.00" height="8.00" fill="#FFFFFF"/><rect x="268.00" y="184.00" width="8.00" height="8.00" fill="#FFFFFF"/><rect x="276.00" y="184.00" width="8.00" height="8.00" fill="#FFFFFF"/><rect x="284.00" y="184.00" width="8.00" height="8.00" fill="#FFFFFF"/><rect x="292.00" y="184.00" width="8.00" height="8.00" fill="#FFFFFF"/><rect x="300.00" y="184.00" width="8.00" height="8.00" fill="#FFFFFF"/><rect x="172.00" y="192.00" width="8.00" height="8.00" fill="#FFFFFF"/><rect x="180.00" y="192.00" width="8.00" height="8.00" fill="#FFFFFF"/><rect x="188.00" y="192.00" width="8.00" height="8.00" fill="#FFFFFF"/><rect x="196.00" y="192.00" width="8.00" height="8.00" fill="#FFFFFF"/><rect x="204.00" y="192.00" width="8.00" height="8.00" fill="#FFFFFF"/><rect x="212.00" y="192.00" width="8.00" height="8.00" fill="#FFFFFF"/><rect x="220.00" y="192.00" width="8.00" height="8.00" fill="#FFFFFF"/><rect x="228.00" y="192.00" width="8.00" height="8.00" fill="#FFFFFF"/><rect x="236.00" y="192.00" width="8.00" height="8.00" fill="#000000"/><rect x="244.00" y="192.00" width="8.00" height="8.00" fill="#FFFFFF"/><rect x="252.00" y="192.00" width="8.00" height="8.00" fill="#FFFFFF"/><rect x="260.00" y="192.00" width="8.00" height="8.00" fill="#FFFFFF"/><rect x="268.00" y="192.00" width="8.00" height="8.00" fill="#FFFFFF"/><rect x="276.00" y="192.00" width="8.00" height="8.00" fill="#FFFFFF"/><rect x="284.00" y="192.00" width="8.00" height="8.00" fill="#FFFFFF"/><rect x="292.00" y="192.00" width="8.00" height="8.00" fill="#FFFFFF"/><rect x="300.00" y="192.00" width="8.00" height="8.00" fill="#FFFFFF"/><rect x="172.00" y="200.00" width="8.00" height="8.00" fill="#FFFFFF"/><rect x="180.00" y="200.00" width="8.00" height="8.00" fill="#FFFFFF"/><rect x="188.00" y="200.00" width="8.00" height="8.00" fill="#FFFFFF"/><rect x="196.00" y="200.00" width="8.00" height="8.00" fill="#FFFFFF"/><rect x="204.00" y="200.00" width="8.00" height="8.00" fill="#FFFFFF"/><rect x="212.00" y="200.00" width="8.00" height="8.00" fill="#FFFFFF"/><rect x="220.00" y="200.00" width="8.00" height="8.00" fill="#FFFFFF"/><rect x="228.00" y="200.00" width="8.00" height="8.00" fill="#FFFFFF"/><rect x="236.00" y="200.00" width="8.00" height="8.00" fill="#000000"/><rect x="244.00" y="200.00" width="8.00" height="8.00" fill="#FFFFFF"/><rect x="252.00" y="200.00" width="8.00" height="8.00" fill="#FFFFFF"/><rect x="260.00" y="200.00" width="8.00" height="8.00" fill="#FFFFFF"/><rect x="268.00" y="200.00" width="8.00" height="8.00" fill="#FFFFFF"/><rect x="276.00" y="200.00" width="8.00" height="8.00" fill="#FFFFFF"/><rect x="284.00" y="200.00" width="8.00" height="8.00" fill="#FFFFFF"/><rect x="292.00" y="200.00" width="8.00" height="8.00" fill="#FFFFFF"/><rect x="300.00" y="200.00" width="8.00" height="8.00" fill="#FFFFFF"/><rect x="172.00" y="208.00" width="8.00" height="8.00" fill="#FFFFFF"/><rect x="180.00" y="208.00" width="8.00" height="8.00" fill="#FFFFFF"/><rect x="188.00" y="208.00" width="8.00" height="8.00" fill="#FFFFFF"/><rect x="196.00" y="208.00" width="8.00" height="8.00" fill="#FFFFFF"/><rect x="204.00" y="208.00" width="8.00" height="8.00" fill="#FFFFFF"/><rect x="212.00" y="208.00" width="8.00" height="8.00" fill="#FFFFFF"/><rect x="220.00" y="208.00" width="8.00" height="8.00" fill="#FFFFFF"/><rect x="228.00" y="208.00" width="8.00" height="8.00" fill="#FFFFFF"/><rect x="236.00" y="208.00" width="8.00" height="8.00" fill="#000000"/><rect x="244.00" y="208.00" width="8.00" height="8.00" fill="#FFFFFF"/><rect x="252.00" y="208.00" width="8.00" height="8.00" fill="#FFFFFF"/><rect x="260.00" y="208.00" width="8.00" height="8.00" fill="#FFFFFF"/><rect x="268.00" y="208.00" width="8.00" height="8.00" fill="#FFFFFF"/><rect x="276.00" y="208.00" width="8.00" height="8.00" fill="#FFFFFF"/><rect x="284.00" y="208.00" width="8.00" height="8.00" fill="#FFFFFF"/><rect x="292.00" y="208.00" width="8.00" height="8.00" fill="#FFFFFF"/><rect x="300.00" y="208.00" width="8.00" height="8.00" fill="#FFFFFF"/><rect x="172.00" y="216.00" width="8.00" height="8.00" fill="#FFFFFF"/><rect x="180.00" y="216.00" width="8.00" height="8.00" fill="#FFFFFF"/><rect x="188.00" y="216.00" width="8.00" height="8.00" fill="#FFFFFF"/><rect x="196.00" y="216.00" width="8.00" height="8.00" fill="#FFFFFF"/><rect x="204.00" y="216.00" width="8.00" height="8.00" fill="#E74C3C"/><rect x="212.00" y="216.00" width="8.00" height="8.00" fill="#E74C3C"/><rect x="220.00" y="216.00" width="8.00" height="8.00" fill="#E74C3C"/><rect x="228.00" y="216.00" width="8.00" height="8.00" fill="#E74C3C"/><rect x="236.00" y="216.00" width="8.00" height="8.00" fill="#000000"/><rect x="244.00" y="216.00" width="8.00" height="8.00" fill="#E74C3C"/><rect x="252.00" y="216.00" width="8.00" height="8.00" fill="#E74C3C"/><rect x="260.00" y="216.00" width="8.00" height="8.00" fill="#E74C3C"/><rect x="268.00" y="216.00" width="8.00" height="8.00" fill="#E74C3C"/><rect x="276.00" y="216.00" width="8.00" height="8.00" fill="#FFFFFF"/><rect x="284.00" y="216.00" width="8.00" height="8.00" fill="#FFFFFF"/><rect x="292.00" y="216.00" width="8.00" height="8.00" fill="#FFFFFF"/><rect x="300.00" y="216.00" width="8.00" height="8.00" fill="#FFFFFF"/><rect x="172.00" y="224.00" width="8.00" height="8.00" fill="#FFFFFF"/><rect x="180.00" y="224.00" width="8.00" height="8.00" fill="#FFFFFF"/><rect x="188.00" y="224.00" width="8.00" height="8.00" fill="#FFFFFF"/><rect x="196.00" y="224.00" width="8.00" height="8.00" fill="#FFFFFF"/><rect x="204.00" y="224.00" width="8.00" height="8.00" fill="#FFFFFF"/><rect x="212.00" y="224.00" width="8.00" height="8.00" fill="#FFFFFF"/><rect x="220.00" y="224.00" width="8.00" height="8.00" fill="#FFFFFF"/><rect x="228.00" y="224.00" width="8.00" height="8.00" fill="#FFFFFF"/><rect x="236.00" y="224.00" width="8.00" height="8.00" fill="#000000"/><rect x="244.00" y="224.00" width="8.00" height="8.00" fill="#FFFFFF"/><rect x="252.00" y="224.00" width="8.00" height="8.00" fill="#FFFFFF"/><rect x="260.00" y="224.00" width="8.00" height="8.00" fill="#FFFFFF"/><rect x="268.00" y="224.00" width="8.00" height="8.00" fill="#FFFFFF"/><rect x="276.00" y="224.00" width="8.00" height="8.00" fill="#FFFFFF"/><rect x="284.00" y="224.00" width="8.00" height="8.00" fill="#FFFFFF"/><rect x="292.00" y="224.00" width="8.00" height="8.00" fill="#FFFFFF"/><rect x="300.00" y="224.00" width="8.00" height="8.00" fill="#FFFFFF"/><rect x="172.00" y="232.00" width="8.00" height="8.00" fill="#FFFFFF"/><rect x="180.00" y="232.00" width="8.00" height="8.00" fill="#FFFFFF"/><rect x="188.00" y="232.00" width="8.00" height="8.00" fill="#FFFFFF"/><rect x="196.00" y="232.00" width="8.00" height="8.00" fill="#FFFFFF"/><rect x="204.00" y="232.00" width="8.00" height="8.00" fill="#FFFFFF"/><rect x="212.00" y="232.00" width="8.00" height="8.00" fill="#FFFFFF"/><rect x="220.00" y="232.00" width="8.00" height="8.00" fill="#FFFFFF"/><rect x="228.00" y="232.00" width="8.00" height="8.00" fill="#FFFFFF"/><rect x="236.00" y="232.00" width="8.00" height="8.00" fill="#000000"/><rect x="244.00" y="232.00" width="8.00" height="8.00" fill="#FFFFFF"/><rect x="252.00" y="232.00" width="8.00" height="8.00" fill="#FFFFFF"/><rect x="260.00" y="232.00" width="8.00" height="8.00" fill="#FFFFFF"/><rect x="268.00" y="232.00" width="8.00" height="8.00" fill="#FFFFFF"/><rect x="276.00" y="232.00" width="8.00" height="8.00" fill="#FFFFFF"/><rect x="284.00" y="232.00" width="8.00" height="8.00" fill="#FFFFFF"/><rect x="292.00" y="232.00" width="8.00" height="8.00" fill="#FFFFFF"/><rect x="300.00" y="232.00" width="8.00" height="8.00" fill="#FFFFFF"/><rect x="172.00" y="240.00" width="8.00" height="8.00" fill="#FFFFFF"/><rect x="180.00" y="240.00" width="8.00" height="8.00" fill="#FFFFFF"/><rect x="188.00" y="240.00" width="8.00" height="8.00" fill="#FFFFFF"/><rect x="196.00" y="240.00" width="8.00" height="8.00" fill="#FFFFFF"/><rect x="204.00" y="240.00" width="8.00" height="8.00" fill="#FFFFFF"/><rect x="212.00" y="240.00" width="8.00" height="8.00" fill="#FFFFFF"/><rect x="220.00" y="240.00" width="8.00" height="8.00" fill="#FFFFFF"/><rect x="228.00" y="240.00" width="8.00" height="8.00" fill="#FFFFFF"/><rect x="236.00" y="240.00" width="8.00" height="8.00" fill="#000000"/><rect x="244.00" y="240.00" width="8.00" height="8.00" fill="#FFFFFF"/><rect x="252.00" y="240.00" width="8.00" height="8.00" fill="#FFFFFF"/><rect x="260.00" y="240.00" width="8.00" height="8.00" fill="#FFFFFF"/><rect x="268.00" y="240.00" width="8.00" height="8.00" fill="#FFFFFF"/><rect x="276.00" y="240.00" width="8.00" height="8.00" fill="#FFFFFF"/><rect x="284.00" y="240.00" width="8.00" height="8.00" fill="#FFFFFF"/><rect x="292.00" y="240.00" width="8.00" height="8.00" fill="#FFFFFF"/><rect x="300.00" y="240.00" width="8.00" height="8.00" fill="#FFFFFF"/><rect x="172.00" y="248.00" width="8.00" height="8.00" fill="#FFFFFF"/><rect x="180.00" y="248.00" width="8.00" height="8.00" fill="#FFFFFF"/><rect x="188.00" y="248.00" width="8.00" height="8.00" fill="#FFFFFF"/><rect x="196.00" y="248.00" width="8.00" height="8.00" fill="#FFFFFF"/><rect x="204.00" y="248.00" width="8.00" height="8.00" fill="#FFFFFF"/><rect x="212.00" y="248.00" width="8.00" height="8.00" fill="#FFFFFF"/><rect x="220.00" y="248.00" width="8.00" height="8.00" fill="#FFFFFF"/><rect x="228.00" y="248.00" width="8.00" height="8.00" fill="#FFFFFF"/><rect x="236.00" y="248.00" width="8.00" height="8.00" fill="#000000"/><rect x="244.00" y="248.00" width="8.00" height="8.00" fill="#FFFFFF"/><rect x="252.00" y="248.00" width="8.00" height="8.00" fill="#FFFFFF"/><rect x="260.00" y="248.00" width="8.00" height="8.00" fill="#FFFFFF"/><rect x="268.00" y="248.00" width="8.00" height="8.00" fill="#FFFFFF"/><rect x="276.00" y="248.00" width="8.00" height="8.00" fill="#FFFFFF"/><rect x="284.00" y="248.00" width="8.00" height="8.00" fill="#FFFFFF"/><rect x="292.00" y="248.00" width="8.00" height="8.00" fill="#FFFFFF"/><rect x="300.00" y="248.00" width="8.00" height="8.00" fill="#FFFFFF"/>
  <!-- 难度标签 -->
  <rect x="390" y="20" width="70" height="22" rx="11" fill="#ff3b30"/>
  <text x="425" y="35" font-family="-apple-system, sans-serif" font-size="11" font-weight="600" fill="#ffffff" text-anchor="middle">HARD</text>
  <!-- 分类标签 -->
  <rect x="20" y="20" width="80" height="22" rx="11" fill="#22C55E" opacity="0.9"/>
  <text x="60" y="35" font-family="-apple-system, sans-serif" font-size="10" font-weight="600" fill="#ffffff" text-anchor="middle">ABSTRACT</text>
  <!-- 模板名 -->
  <text x="240" y="286" font-family="-apple-system, 'PingFang SC', sans-serif" font-size="16" font-weight="600" fill="#1d1d1f" text-anchor="middle">毕加索立体派</text>
  <text x="240" y="304" font-family="-apple-system, sans-serif" font-size="11" font-weight="400" fill="#86868b" text-anchor="middle">357 beads · 32×32</text>
</svg>
