<?xml version="1.0" encoding="UTF-8"?>
<svg xmlns="http://www.w3.org/2000/svg" viewBox="0 0 480 360" width="480" height="360">
  
    <defs>
      <linearGradient id="bg" x1="0" y1="0" x2="1" y2="1">
        <stop offset="0%" stop-color="#FFFFFF" stop-opacity="0.15"/>
        <stop offset="100%" stop-color="#FFB6C1" stop-opacity="0.25"/>
      </linearGradient>
      <linearGradient id="card" x1="0" y1="0" x2="0" y2="1">
        <stop offset="0%" stop-color="#ffffff"/>
        <stop offset="100%" stop-color="#f8f9fa"/>
      </linearGradient>
      <filter id="shadow" x="-20%" y="-20%" width="140%" height="140%">
        <feDropShadow dx="0" dy="4" stdDeviation="6" flood-opacity="0.15"/>
      </filter>
    </defs>
  
  <rect width="480" height="360" fill="url(#bg)" />
  <rect x="174" y="198" width="8" height="8" rx="1" fill="#FF0000" opacity="0.10" /><rect x="337" y="102" width="4" height="4" rx="1" fill="#FFB6C1" opacity="0.20" /><rect x="60" y="230" width="4" height="4" rx="1" fill="#FF0000" opacity="0.30" /><rect x="222" y="135" width="6" height="6" rx="1" fill="#FFB6C1" opacity="0.15" /><rect x="385" y="39" width="8" height="8" rx="1" fill="#FF0000" opacity="0.25" /><rect x="108" y="167" width="8" height="8" rx="1" fill="#FFB6C1" opacity="0.10" /><rect x="271" y="72" width="4" height="4" rx="1" fill="#FF0000" opacity="0.20" /><rect x="434" y="296" width="6" height="6" rx="1" fill="#FFB6C1" opacity="0.30" /><rect x="156" y="104" width="6" height="6" rx="1" fill="#FF0000" opacity="0.15" /><rect x="319" y="328" width="8" height="8" rx="1" fill="#FFB6C1" opacity="0.25" /><rect x="42" y="137" width="8" height="8" rx="1" fill="#FF0000" opacity="0.10" /><rect x="205" y="41" width="4" height="4" rx="1" fill="#FFB6C1" opacity="0.20" />
  <rect x="141" y="82" width="198" height="156" rx="12" fill="url(#card)" filter="url(#shadow)" />
  <rect x="177" y="90" width="14" height="14" rx="2" fill="#FFFFFF" /><rect x="191" y="90" width="14" height="14" rx="2" fill="#FFFFFF" /><rect x="261" y="90" width="14" height="14" rx="2" fill="#FFFFFF" /><rect x="275" y="90" width="14" height="14" rx="2" fill="#FFFFFF" /><rect x="163" y="104" width="14" height="14" rx="2" fill="#FFFFFF" /><rect x="177" y="104" width="14" height="14" rx="2" fill="#FFFFFF" /><rect x="191" y="104" width="14" height="14" rx="2" fill="#FFFFFF" /><rect x="205" y="104" width="14" height="14" rx="2" fill="#FFFFFF" /><rect x="247" y="104" width="14" height="14" rx="2" fill="#FFFFFF" /><rect x="261" y="104" width="14" height="14" rx="2" fill="#FFFFFF" /><rect x="275" y="104" width="14" height="14" rx="2" fill="#FFFFFF" /><rect x="289" y="104" width="14" height="14" rx="2" fill="#FFFFFF" /><rect x="177" y="118" width="14" height="14" rx="2" fill="#FFFFFF" /><rect x="191" y="118" width="14" height="14" rx="2" fill="#FFFFFF" /><rect x="205" y="118" width="14" height="14" rx="2" fill="#FFFFFF" /><rect x="247" y="118" width="14" height="14" rx="2" fill="#FFFFFF" /><rect x="261" y="118" width="14" height="14" rx="2" fill="#FFFFFF" /><rect x="275" y="118" width="14" height="14" rx="2" fill="#FFFFFF" /><rect x="191" y="132" width="14" height="14" rx="2" fill="#FFFFFF" /><rect x="205" y="132" width="14" height="14" rx="2" fill="#FFFFFF" /><rect x="219" y="132" width="14" height="14" rx="2" fill="#FFFFFF" /><rect x="233" y="132" width="14" height="14" rx="2" fill="#FFFFFF" /><rect x="247" y="132" width="14" height="14" rx="2" fill="#FFFFFF" /><rect x="261" y="132" width="14" height="14" rx="2" fill="#FFFFFF" /><rect x="177" y="146" width="14" height="14" rx="2" fill="#FFFFFF" /><rect x="191" y="146" width="14" height="14" rx="2" fill="#FFFFFF" /><rect x="205" y="146" width="14" height="14" rx="2" fill="#FFFFFF" /><rect x="219" y="146" width="14" height="14" rx="2" fill="#FFFFFF" /><rect x="233" y="146" width="14" height="14" rx="2" fill="#FFFFFF" /><rect x="247" y="146" width="14" height="14" rx="2" fill="#FFFFFF" /><rect x="261" y="146" width="14" height="14" rx="2" fill="#FFFFFF" /><rect x="275" y="146" width="14" height="14" rx="2" fill="#FFFFFF" /><rect x="163" y="160" width="14" height="14" rx="2" fill="#FFFFFF" /><rect x="177" y="160" width="14" height="14" rx="2" fill="#FFFFFF" /><rect x="191" y="160" width="14" height="14" rx="2" fill="#FFB6C1" /><rect x="205" y="160" width="14" height="14" rx="2" fill="#FFB6C1" /><rect x="219" y="160" width="14" height="14" rx="2" fill="#FFB6C1" /><rect x="233" y="160" width="14" height="14" rx="2" fill="#FFB6C1" /><rect x="247" y="160" width="14" height="14" rx="2" fill="#FFB6C1" /><rect x="261" y="160" width="14" height="14" rx="2" fill="#FFB6C1" /><rect x="275" y="160" width="14" height="14" rx="2" fill="#FFFFFF" /><rect x="289" y="160" width="14" height="14" rx="2" fill="#FFFFFF" /><rect x="163" y="174" width="14" height="14" rx="2" fill="#FFFFFF" /><rect x="177" y="174" width="14" height="14" rx="2" fill="#FFB6C1" /><rect x="191" y="174" width="14" height="14" rx="2" fill="#FFB6C1" /><rect x="205" y="174" width="14" height="14" rx="2" fill="#000000" /><rect x="219" y="174" width="14" height="14" rx="2" fill="#000000" /><rect x="233" y="174" width="14" height="14" rx="2" fill="#FF0000" /><rect x="247" y="174" width="14" height="14" rx="2" fill="#000000" /><rect x="261" y="174" width="14" height="14" rx="2" fill="#000000" /><rect x="275" y="174" width="14" height="14" rx="2" fill="#FFB6C1" /><rect x="289" y="174" width="14" height="14" rx="2" fill="#FFB6C1" /><rect x="303" y="174" width="14" height="14" rx="2" fill="#FFFFFF" /><rect x="163" y="188" width="14" height="14" rx="2" fill="#FFFFFF" /><rect x="177" y="188" width="14" height="14" rx="2" fill="#FFB6C1" /><rect x="191" y="188" width="14" height="14" rx="2" fill="#000000" /><rect x="205" y="188" width="14" height="14" rx="2" fill="#FF0000" /><rect x="219" y="188" width="14" height="14" rx="2" fill="#FF0000" /><rect x="233" y="188" width="14" height="14" rx="2" fill="#FF0000" /><rect x="247" y="188" width="14" height="14" rx="2" fill="#FF0000" /><rect x="261" y="188" width="14" height="14" rx="2" fill="#FF0000" /><rect x="275" y="188" width="14" height="14" rx="2" fill="#000000" /><rect x="289" y="188" width="14" height="14" rx="2" fill="#FFB6C1" /><rect x="303" y="188" width="14" height="14" rx="2" fill="#FFFFFF" /><rect x="177" y="202" width="14" height="14" rx="2" fill="#FFFFFF" /><rect x="191" y="202" width="14" height="14" rx="2" fill="#FFB6C1" /><rect x="205" y="202" width="14" height="14" rx="2" fill="#000000" /><rect x="219" y="202" width="14" height="14" rx="2" fill="#000000" /><rect x="233" y="202" width="14" height="14" rx="2" fill="#000000" /><rect x="247" y="202" width="14" height="14" rx="2" fill="#000000" /><rect x="261" y="202" width="14" height="14" rx="2" fill="#000000" /><rect x="275" y="202" width="14" height="14" rx="2" fill="#000000" /><rect x="289" y="202" width="14" height="14" rx="2" fill="#FFB6C1" /><rect x="303" y="202" width="14" height="14" rx="2" fill="#FFFFFF" /><rect x="191" y="216" width="14" height="14" rx="2" fill="#FFFFFF" /><rect x="205" y="216" width="14" height="14" rx="2" fill="#FFB6C1" /><rect x="219" y="216" width="14" height="14" rx="2" fill="#FFB6C1" /><rect x="233" y="216" width="14" height="14" rx="2" fill="#FFB6C1" /><rect x="247" y="216" width="14" height="14" rx="2" fill="#FFB6C1" /><rect x="261" y="216" width="14" height="14" rx="2" fill="#FFB6C1" /><rect x="275" y="216" width="14" height="14" rx="2" fill="#FFFFFF" />
  <rect x="390" y="16" width="74" height="26" rx="13" fill="#22c55e" />
  <text x="427" y="33" text-anchor="middle" fill="#fff" font-size="13" font-family="system-ui, sans-serif" font-weight="600">简单</text>
  <text x="240" y="340" text-anchor="middle" fill="#1f2937" font-size="20" font-family="system-ui, sans-serif" font-weight="700">小兔子</text>
</svg>