<svg xmlns="http://www.w3.org/2000/svg" viewBox="0 0 480 360" width="480" height="360">
  <defs>
    <linearGradient id="bganimalsphoenix014" x1="0%" y1="0%" x2="100%" y2="100%">
      <stop offset="0%" stop-color="#FF8C42" stop-opacity="0.25"/>
      <stop offset="100%" stop-color="#A1887F" stop-opacity="0.25"/>
    </linearGradient>
    <linearGradient id="cardanimalsphoenix014" x1="0%" y1="0%" x2="0%" y2="100%">
      <stop offset="0%" stop-color="#ffffff" stop-opacity="0.98"/>
      <stop offset="100%" stop-color="#f5f5f7" stop-opacity="0.95"/>
    </linearGradient>
    <linearGradient id="boardanimalsphoenix014" x1="0%" y1="0%" x2="0%" y2="100%">
      <stop offset="0%" stop-color="#1d1d1f" stop-opacity="0.04"/>
      <stop offset="100%" stop-color="#1d1d1f" stop-opacity="0.08"/>
    </linearGradient>
    <filter id="shadowanimalsphoenix014" x="-10%" y="-10%" width="120%" height="120%">
      <feGaussianBlur in="SourceAlpha" stdDeviation="4"/>
      <feOffset dx="0" dy="2"/>
      <feComponentTransfer><feFuncA type="linear" slope="0.15"/></feComponentTransfer>
      <feMerge><feMergeNode/><feMergeNode in="SourceGraphic"/></feMerge>
    </filter>
  </defs>
  <rect width="480" height="360" fill="#fafafa"/>
  <rect width="480" height="360" fill="url(#bganimalsphoenix014)"/>
  <path d="M 0 340 Q 240 320 480 340" stroke="#5D4037" stroke-width="1" fill="none" opacity="0.15"/>
  <path d="M 0 20 Q 240 0 480 20" stroke="#FF8C42" stroke-width="1" fill="none" opacity="0.2"/>
  <circle cx="30" cy="25" r="2" fill="#FF8C42" opacity="0.15"/>
  <circle cx="86" cy="72" r="3" fill="#A1887F" opacity="0.22999999999999998"/>
  <circle cx="142" cy="119" r="4" fill="#5D4037" opacity="0.31"/>
  <circle cx="198" cy="166" r="5" fill="#FF8C42" opacity="0.15"/>
  <circle cx="254" cy="213" r="2" fill="#A1887F" opacity="0.22999999999999998"/>
  <circle cx="310" cy="260" r="3" fill="#5D4037" opacity="0.31"/>
  <circle cx="366" cy="307" r="4" fill="#FF8C42" opacity="0.15"/>
  <circle cx="422" cy="34" r="5" fill="#A1887F" opacity="0.22999999999999998"/>
  <rect x="138" y="70" width="204" height="232" rx="18" fill="url(#cardanimalsphoenix014)" stroke="rgba(0,0,0,0.06)" stroke-width="1" filter="url(#shadowanimalsphoenix014)"/>
  <!-- 像素预览底板（深色，让浅色像素可见） -->
  <rect x="152" y="84" width="176" height="176" rx="6" fill="#f5f5f7" stroke="rgba(0,0,0,0.08)" stroke-width="1"/>
  <!-- 像素网格 -->
  <rect x="236.89" y="103.56" width="6.22" height="6.22" fill="#F4D03F"/><rect x="230.67" y="109.78" width="6.22" height="6.22" fill="#FF8C42"/><rect x="236.89" y="109.78" width="6.22" height="6.22" fill="#FF8C42"/><rect x="243.11" y="109.78" width="6.22" height="6.22" fill="#FF8C42"/><rect x="156.00" y="116.00" width="6.22" height="6.22" fill="#E74C3C"/><rect x="162.22" y="116.00" width="6.22" height="6.22" fill="#FF8C42"/><rect x="168.44" y="116.00" width="6.22" height="6.22" fill="#E74C3C"/><rect x="174.67" y="116.00" width="6.22" height="6.22" fill="#E74C3C"/><rect x="180.89" y="116.00" width="6.22" height="6.22" fill="#E74C3C"/><rect x="187.11" y="116.00" width="6.22" height="6.22" fill="#E74C3C"/><rect x="193.33" y="116.00" width="6.22" height="6.22" fill="#E74C3C"/><rect x="199.56" y="116.00" width="6.22" height="6.22" fill="#E74C3C"/><rect x="205.78" y="116.00" width="6.22" height="6.22" fill="#E74C3C"/><rect x="212.00" y="116.00" width="6.22" height="6.22" fill="#E74C3C"/><rect x="218.22" y="116.00" width="6.22" height="6.22" fill="#E74C3C"/><rect x="224.44" y="116.00" width="6.22" height="6.22" fill="#FF8C42"/><rect x="230.67" y="116.00" width="6.22" height="6.22" fill="#FF8C42"/><rect x="236.89" y="116.00" width="6.22" height="6.22" fill="#1A1A1A"/><rect x="243.11" y="116.00" width="6.22" height="6.22" fill="#FF8C42"/><rect x="249.33" y="116.00" width="6.22" height="6.22" fill="#FF8C42"/><rect x="255.56" y="116.00" width="6.22" height="6.22" fill="#E74C3C"/><rect x="261.78" y="116.00" width="6.22" height="6.22" fill="#E74C3C"/><rect x="268.00" y="116.00" width="6.22" height="6.22" fill="#E74C3C"/><rect x="274.22" y="116.00" width="6.22" height="6.22" fill="#E74C3C"/><rect x="280.44" y="116.00" width="6.22" height="6.22" fill="#E74C3C"/><rect x="286.67" y="116.00" width="6.22" height="6.22" fill="#E74C3C"/><rect x="292.89" y="116.00" width="6.22" height="6.22" fill="#E74C3C"/><rect x="299.11" y="116.00" width="6.22" height="6.22" fill="#E74C3C"/><rect x="305.33" y="116.00" width="6.22" height="6.22" fill="#E74C3C"/><rect x="311.56" y="116.00" width="6.22" height="6.22" fill="#FF8C42"/><rect x="317.78" y="116.00" width="6.22" height="6.22" fill="#E74C3C"/><rect x="156.00" y="122.22" width="6.22" height="6.22" fill="#FFB6C1"/><rect x="162.22" y="122.22" width="6.22" height="6.22" fill="#E74C3C"/><rect x="168.44" y="122.22" width="6.22" height="6.22" fill="#E74C3C"/><rect x="174.67" y="122.22" width="6.22" height="6.22" fill="#E74C3C"/><rect x="180.89" y="122.22" width="6.22" height="6.22" fill="#E74C3C"/><rect x="187.11" y="122.22" width="6.22" height="6.22" fill="#E74C3C"/><rect x="193.33" y="122.22" width="6.22" height="6.22" fill="#E74C3C"/><rect x="199.56" y="122.22" width="6.22" height="6.22" fill="#E74C3C"/><rect x="205.78" y="122.22" width="6.22" height="6.22" fill="#E74C3C"/><rect x="212.00" y="122.22" width="6.22" height="6.22" fill="#E74C3C"/><rect x="218.22" y="122.22" width="6.22" height="6.22" fill="#E74C3C"/><rect x="224.44" y="122.22" width="6.22" height="6.22" fill="#E74C3C"/><rect x="230.67" y="122.22" width="6.22" height="6.22" fill="#FF8C42"/><rect x="236.89" y="122.22" width="6.22" height="6.22" fill="#FF8C42"/><rect x="243.11" y="122.22" width="6.22" height="6.22" fill="#FF8C42"/><rect x="249.33" y="122.22" width="6.22" height="6.22" fill="#E74C3C"/><rect x="255.56" y="122.22" width="6.22" height="6.22" fill="#E74C3C"/><rect x="261.78" y="122.22" width="6.22" height="6.22" fill="#E74C3C"/><rect x="268.00" y="122.22" width="6.22" height="6.22" fill="#E74C3C"/><rect x="274.22" y="122.22" width="6.22" height="6.22" fill="#E74C3C"/><rect x="280.44" y="122.22" width="6.22" height="6.22" fill="#E74C3C"/><rect x="286.67" y="122.22" width="6.22" height="6.22" fill="#E74C3C"/><rect x="292.89" y="122.22" width="6.22" height="6.22" fill="#E74C3C"/><rect x="299.11" y="122.22" width="6.22" height="6.22" fill="#E74C3C"/><rect x="305.33" y="122.22" width="6.22" height="6.22" fill="#E74C3C"/><rect x="311.56" y="122.22" width="6.22" height="6.22" fill="#E74C3C"/><rect x="317.78" y="122.22" width="6.22" height="6.22" fill="#FFB6C1"/><rect x="162.22" y="128.44" width="6.22" height="6.22" fill="#FF8C42"/><rect x="168.44" y="128.44" width="6.22" height="6.22" fill="#E74C3C"/><rect x="174.67" y="128.44" width="6.22" height="6.22" fill="#E74C3C"/><rect x="180.89" y="128.44" width="6.22" height="6.22" fill="#E74C3C"/><rect x="187.11" y="128.44" width="6.22" height="6.22" fill="#E74C3C"/><rect x="193.33" y="128.44" width="6.22" height="6.22" fill="#E74C3C"/><rect x="199.56" y="128.44" width="6.22" height="6.22" fill="#E74C3C"/><rect x="205.78" y="128.44" width="6.22" height="6.22" fill="#E74C3C"/><rect x="212.00" y="128.44" width="6.22" height="6.22" fill="#E74C3C"/><rect x="218.22" y="128.44" width="6.22" height="6.22" fill="#E74C3C"/><rect x="224.44" y="128.44" width="6.22" height="6.22" fill="#E74C3C"/><rect x="236.89" y="128.44" width="6.22" height="6.22" fill="#FF8C42"/><rect x="249.33" y="128.44" width="6.22" height="6.22" fill="#E74C3C"/><rect x="255.56" y="128.44" width="6.22" height="6.22" fill="#E74C3C"/><rect x="261.78" y="128.44" width="6.22" height="6.22" fill="#E74C3C"/><rect x="268.00" y="128.44" width="6.22" height="6.22" fill="#E74C3C"/><rect x="274.22" y="128.44" width="6.22" height="6.22" fill="#E74C3C"/><rect x="280.44" y="128.44" width="6.22" height="6.22" fill="#E74C3C"/><rect x="286.67" y="128.44" width="6.22" height="6.22" fill="#E74C3C"/><rect x="292.89" y="128.44" width="6.22" height="6.22" fill="#E74C3C"/><rect x="299.11" y="128.44" width="6.22" height="6.22" fill="#E74C3C"/><rect x="305.33" y="128.44" width="6.22" height="6.22" fill="#E74C3C"/><rect x="311.56" y="128.44" width="6.22" height="6.22" fill="#FF8C42"/><rect x="156.00" y="134.67" width="6.22" height="6.22" fill="#FFB6C1"/><rect x="174.67" y="134.67" width="6.22" height="6.22" fill="#E74C3C"/><rect x="180.89" y="134.67" width="6.22" height="6.22" fill="#E74C3C"/><rect x="187.11" y="134.67" width="6.22" height="6.22" fill="#E74C3C"/><rect x="193.33" y="134.67" width="6.22" height="6.22" fill="#E74C3C"/><rect x="199.56" y="134.67" width="6.22" height="6.22" fill="#E74C3C"/><rect x="205.78" y="134.67" width="6.22" height="6.22" fill="#E74C3C"/><rect x="212.00" y="134.67" width="6.22" height="6.22" fill="#E74C3C"/><rect x="218.22" y="134.67" width="6.22" height="6.22" fill="#E74C3C"/><rect x="224.44" y="134.67" width="6.22" height="6.22" fill="#E74C3C"/><rect x="230.67" y="134.67" width="6.22" height="6.22" fill="#E74C3C"/><rect x="236.89" y="134.67" width="6.22" height="6.22" fill="#E74C3C"/><rect x="243.11" y="134.67" width="6.22" height="6.22" fill="#E74C3C"/><rect x="249.33" y="134.67" width="6.22" height="6.22" fill="#E74C3C"/><rect x="255.56" y="134.67" width="6.22" height="6.22" fill="#E74C3C"/><rect x="261.78" y="134.67" width="6.22" height="6.22" fill="#E74C3C"/><rect x="268.00" y="134.67" width="6.22" height="6.22" fill="#E74C3C"/><rect x="274.22" y="134.67" width="6.22" height="6.22" fill="#E74C3C"/><rect x="280.44" y="134.67" width="6.22" height="6.22" fill="#E74C3C"/><rect x="286.67" y="134.67" width="6.22" height="6.22" fill="#E74C3C"/><rect x="292.89" y="134.67" width="6.22" height="6.22" fill="#E74C3C"/><rect x="299.11" y="134.67" width="6.22" height="6.22" fill="#E74C3C"/><rect x="317.78" y="134.67" width="6.22" height="6.22" fill="#FFB6C1"/><rect x="162.22" y="140.89" width="6.22" height="6.22" fill="#FF8C42"/><rect x="180.89" y="140.89" width="6.22" height="6.22" fill="#E74C3C"/><rect x="187.11" y="140.89" width="6.22" height="6.22" fill="#E74C3C"/><rect x="193.33" y="140.89" width="6.22" height="6.22" fill="#E74C3C"/><rect x="199.56" y="140.89" width="6.22" height="6.22" fill="#E74C3C"/><rect x="205.78" y="140.89" width="6.22" height="6.22" fill="#E74C3C"/><rect x="212.00" y="140.89" width="6.22" height="6.22" fill="#E74C3C"/><rect x="218.22" y="140.89" width="6.22" height="6.22" fill="#E74C3C"/><rect x="224.44" y="140.89" width="6.22" height="6.22" fill="#E74C3C"/><rect x="230.67" y="140.89" width="6.22" height="6.22" fill="#E74C3C"/><rect x="236.89" y="140.89" width="6.22" height="6.22" fill="#E74C3C"/><rect x="243.11" y="140.89" width="6.22" height="6.22" fill="#E74C3C"/><rect x="249.33" y="140.89" width="6.22" height="6.22" fill="#E74C3C"/><rect x="255.56" y="140.89" width="6.22" height="6.22" fill="#E74C3C"/><rect x="261.78" y="140.89" width="6.22" height="6.22" fill="#E74C3C"/><rect x="268.00" y="140.89" width="6.22" height="6.22" fill="#E74C3C"/><rect x="274.22" y="140.89" width="6.22" height="6.22" fill="#E74C3C"/><rect x="280.44" y="140.89" width="6.22" height="6.22" fill="#E74C3C"/><rect x="286.67" y="140.89" width="6.22" height="6.22" fill="#E74C3C"/><rect x="292.89" y="140.89" width="6.22" height="6.22" fill="#E74C3C"/><rect x="311.56" y="140.89" width="6.22" height="6.22" fill="#FF8C42"/><rect x="156.00" y="147.11" width="6.22" height="6.22" fill="#FFB6C1"/><rect x="187.11" y="147.11" width="6.22" height="6.22" fill="#E74C3C"/><rect x="193.33" y="147.11" width="6.22" height="6.22" fill="#E74C3C"/><rect x="199.56" y="147.11" width="6.22" height="6.22" fill="#E74C3C"/><rect x="205.78" y="147.11" width="6.22" height="6.22" fill="#E74C3C"/><rect x="212.00" y="147.11" width="6.22" height="6.22" fill="#E74C3C"/><rect x="218.22" y="147.11" width="6.22" height="6.22" fill="#E74C3C"/><rect x="224.44" y="147.11" width="6.22" height="6.22" fill="#E74C3C"/><rect x="230.67" y="147.11" width="6.22" height="6.22" fill="#E74C3C"/><rect x="236.89" y="147.11" width="6.22" height="6.22" fill="#E74C3C"/><rect x="243.11" y="147.11" width="6.22" height="6.22" fill="#E74C3C"/><rect x="249.33" y="147.11" width="6.22" height="6.22" fill="#E74C3C"/><rect x="255.56" y="147.11" width="6.22" height="6.22" fill="#E74C3C"/><rect x="261.78" y="147.11" width="6.22" height="6.22" fill="#E74C3C"/><rect x="268.00" y="147.11" width="6.22" height="6.22" fill="#E74C3C"/><rect x="274.22" y="147.11" width="6.22" height="6.22" fill="#E74C3C"/><rect x="280.44" y="147.11" width="6.22" height="6.22" fill="#E74C3C"/><rect x="286.67" y="147.11" width="6.22" height="6.22" fill="#E74C3C"/><rect x="317.78" y="147.11" width="6.22" height="6.22" fill="#FFB6C1"/><rect x="162.22" y="153.33" width="6.22" height="6.22" fill="#FF8C42"/><rect x="180.89" y="153.33" width="6.22" height="6.22" fill="#E74C3C"/><rect x="187.11" y="153.33" width="6.22" height="6.22" fill="#E74C3C"/><rect x="193.33" y="153.33" width="6.22" height="6.22" fill="#E74C3C"/><rect x="199.56" y="153.33" width="6.22" height="6.22" fill="#E74C3C"/><rect x="205.78" y="153.33" width="6.22" height="6.22" fill="#E74C3C"/><rect x="212.00" y="153.33" width="6.22" height="6.22" fill="#E74C3C"/><rect x="218.22" y="153.33" width="6.22" height="6.22" fill="#E74C3C"/><rect x="224.44" y="153.33" width="6.22" height="6.22" fill="#E74C3C"/><rect x="230.67" y="153.33" width="6.22" height="6.22" fill="#E74C3C"/><rect x="236.89" y="153.33" width="6.22" height="6.22" fill="#E74C3C"/><rect x="243.11" y="153.33" width="6.22" height="6.22" fill="#E74C3C"/><rect x="249.33" y="153.33" width="6.22" height="6.22" fill="#E74C3C"/><rect x="255.56" y="153.33" width="6.22" height="6.22" fill="#E74C3C"/><rect x="261.78" y="153.33" width="6.22" height="6.22" fill="#E74C3C"/><rect x="268.00" y="153.33" width="6.22" height="6.22" fill="#E74C3C"/><rect x="274.22" y="153.33" width="6.22" height="6.22" fill="#E74C3C"/><rect x="280.44" y="153.33" width="6.22" height="6.22" fill="#E74C3C"/><rect x="286.67" y="153.33" width="6.22" height="6.22" fill="#E74C3C"/><rect x="292.89" y="153.33" width="6.22" height="6.22" fill="#E74C3C"/><rect x="311.56" y="153.33" width="6.22" height="6.22" fill="#FF8C42"/><rect x="156.00" y="159.56" width="6.22" height="6.22" fill="#FFB6C1"/><rect x="174.67" y="159.56" width="6.22" height="6.22" fill="#E74C3C"/><rect x="180.89" y="159.56" width="6.22" height="6.22" fill="#E74C3C"/><rect x="187.11" y="159.56" width="6.22" height="6.22" fill="#E74C3C"/><rect x="193.33" y="159.56" width="6.22" height="6.22" fill="#E74C3C"/><rect x="199.56" y="159.56" width="6.22" height="6.22" fill="#E74C3C"/><rect x="205.78" y="159.56" width="6.22" height="6.22" fill="#E74C3C"/><rect x="212.00" y="159.56" width="6.22" height="6.22" fill="#E74C3C"/><rect x="218.22" y="159.56" width="6.22" height="6.22" fill="#E74C3C"/><rect x="224.44" y="159.56" width="6.22" height="6.22" fill="#E74C3C"/><rect x="230.67" y="159.56" width="6.22" height="6.22" fill="#E74C3C"/><rect x="236.89" y="159.56" width="6.22" height="6.22" fill="#E74C3C"/><rect x="243.11" y="159.56" width="6.22" height="6.22" fill="#E74C3C"/><rect x="249.33" y="159.56" width="6.22" height="6.22" fill="#E74C3C"/><rect x="255.56" y="159.56" width="6.22" height="6.22" fill="#E74C3C"/><rect x="261.78" y="159.56" width="6.22" height="6.22" fill="#E74C3C"/><rect x="268.00" y="159.56" width="6.22" height="6.22" fill="#E74C3C"/><rect x="274.22" y="159.56" width="6.22" height="6.22" fill="#E74C3C"/><rect x="280.44" y="159.56" width="6.22" height="6.22" fill="#E74C3C"/><rect x="286.67" y="159.56" width="6.22" height="6.22" fill="#E74C3C"/><rect x="292.89" y="159.56" width="6.22" height="6.22" fill="#E74C3C"/><rect x="299.11" y="159.56" width="6.22" height="6.22" fill="#E74C3C"/><rect x="317.78" y="159.56" width="6.22" height="6.22" fill="#FFB6C1"/><rect x="162.22" y="165.78" width="6.22" height="6.22" fill="#FF8C42"/><rect x="168.44" y="165.78" width="6.22" height="6.22" fill="#E74C3C"/><rect x="174.67" y="165.78" width="6.22" height="6.22" fill="#E74C3C"/><rect x="180.89" y="165.78" width="6.22" height="6.22" fill="#E74C3C"/><rect x="187.11" y="165.78" width="6.22" height="6.22" fill="#E74C3C"/><rect x="193.33" y="165.78" width="6.22" height="6.22" fill="#E74C3C"/><rect x="199.56" y="165.78" width="6.22" height="6.22" fill="#E74C3C"/><rect x="205.78" y="165.78" width="6.22" height="6.22" fill="#E74C3C"/><rect x="212.00" y="165.78" width="6.22" height="6.22" fill="#E74C3C"/><rect x="218.22" y="165.78" width="6.22" height="6.22" fill="#E74C3C"/><rect x="224.44" y="165.78" width="6.22" height="6.22" fill="#E74C3C"/><rect x="236.89" y="165.78" width="6.22" height="6.22" fill="#E74C3C"/><rect x="249.33" y="165.78" width="6.22" height="6.22" fill="#E74C3C"/><rect x="255.56" y="165.78" width="6.22" height="6.22" fill="#E74C3C"/><rect x="261.78" y="165.78" width="6.22" height="6.22" fill="#E74C3C"/><rect x="268.00" y="165.78" width="6.22" height="6.22" fill="#E74C3C"/><rect x="274.22" y="165.78" width="6.22" height="6.22" fill="#E74C3C"/><rect x="280.44" y="165.78" width="6.22" height="6.22" fill="#E74C3C"/><rect x="286.67" y="165.78" width="6.22" height="6.22" fill="#E74C3C"/><rect x="292.89" y="165.78" width="6.22" height="6.22" fill="#E74C3C"/><rect x="299.11" y="165.78" width="6.22" height="6.22" fill="#E74C3C"/><rect x="305.33" y="165.78" width="6.22" height="6.22" fill="#E74C3C"/><rect x="311.56" y="165.78" width="6.22" height="6.22" fill="#FF8C42"/><rect x="156.00" y="172.00" width="6.22" height="6.22" fill="#FFB6C1"/><rect x="162.22" y="172.00" width="6.22" height="6.22" fill="#E74C3C"/><rect x="168.44" y="172.00" width="6.22" height="6.22" fill="#E74C3C"/><rect x="174.67" y="172.00" width="6.22" height="6.22" fill="#E74C3C"/><rect x="180.89" y="172.00" width="6.22" height="6.22" fill="#E74C3C"/><rect x="187.11" y="172.00" width="6.22" height="6.22" fill="#E74C3C"/><rect x="193.33" y="172.00" width="6.22" height="6.22" fill="#E74C3C"/><rect x="199.56" y="172.00" width="6.22" height="6.22" fill="#E74C3C"/><rect x="205.78" y="172.00" width="6.22" height="6.22" fill="#E74C3C"/><rect x="212.00" y="172.00" width="6.22" height="6.22" fill="#E74C3C"/><rect x="218.22" y="172.00" width="6.22" height="6.22" fill="#FF8C42"/><rect x="224.44" y="172.00" width="6.22" height="6.22" fill="#E74C3C"/><rect x="230.67" y="172.00" width="6.22" height="6.22" fill="#E74C3C"/><rect x="243.11" y="172.00" width="6.22" height="6.22" fill="#FF8C42"/><rect x="249.33" y="172.00" width="6.22" height="6.22" fill="#E74C3C"/><rect x="255.56" y="172.00" width="6.22" height="6.22" fill="#E74C3C"/><rect x="261.78" y="172.00" width="6.22" height="6.22" fill="#E74C3C"/><rect x="268.00" y="172.00" width="6.22" height="6.22" fill="#FF8C42"/><rect x="274.22" y="172.00" width="6.22" height="6.22" fill="#E74C3C"/><rect x="280.44" y="172.00" width="6.22" height="6.22" fill="#E74C3C"/><rect x="286.67" y="172.00" width="6.22" height="6.22" fill="#E74C3C"/><rect x="292.89" y="172.00" width="6.22" height="6.22" fill="#E74C3C"/><rect x="299.11" y="172.00" width="6.22" height="6.22" fill="#E74C3C"/><rect x="305.33" y="172.00" width="6.22" height="6.22" fill="#E74C3C"/><rect x="311.56" y="172.00" width="6.22" height="6.22" fill="#E74C3C"/><rect x="317.78" y="172.00" width="6.22" height="6.22" fill="#FFB6C1"/><rect x="205.78" y="178.22" width="6.22" height="6.22" fill="#E74C3C"/><rect x="218.22" y="178.22" width="6.22" height="6.22" fill="#FF8C42"/><rect x="230.67" y="178.22" width="6.22" height="6.22" fill="#E74C3C"/><rect x="243.11" y="178.22" width="6.22" height="6.22" fill="#FF8C42"/><rect x="255.56" y="178.22" width="6.22" height="6.22" fill="#E74C3C"/><rect x="268.00" y="178.22" width="6.22" height="6.22" fill="#FF8C42"/><rect x="205.78" y="184.44" width="6.22" height="6.22" fill="#E74C3C"/><rect x="218.22" y="184.44" width="6.22" height="6.22" fill="#FF8C42"/><rect x="230.67" y="184.44" width="6.22" height="6.22" fill="#E74C3C"/><rect x="243.11" y="184.44" width="6.22" height="6.22" fill="#FF8C42"/><rect x="255.56" y="184.44" width="6.22" height="6.22" fill="#E74C3C"/><rect x="268.00" y="184.44" width="6.22" height="6.22" fill="#FF8C42"/><rect x="205.78" y="190.67" width="6.22" height="6.22" fill="#E74C3C"/><rect x="218.22" y="190.67" width="6.22" height="6.22" fill="#FF8C42"/><rect x="230.67" y="190.67" width="6.22" height="6.22" fill="#E74C3C"/><rect x="243.11" y="190.67" width="6.22" height="6.22" fill="#FF8C42"/><rect x="255.56" y="190.67" width="6.22" height="6.22" fill="#E74C3C"/><rect x="268.00" y="190.67" width="6.22" height="6.22" fill="#FF8C42"/><rect x="205.78" y="196.89" width="6.22" height="6.22" fill="#E74C3C"/><rect x="218.22" y="196.89" width="6.22" height="6.22" fill="#FF8C42"/><rect x="230.67" y="196.89" width="6.22" height="6.22" fill="#E74C3C"/><rect x="243.11" y="196.89" width="6.22" height="6.22" fill="#FF8C42"/><rect x="255.56" y="196.89" width="6.22" height="6.22" fill="#E74C3C"/><rect x="268.00" y="196.89" width="6.22" height="6.22" fill="#FF8C42"/><rect x="205.78" y="203.11" width="6.22" height="6.22" fill="#E74C3C"/><rect x="218.22" y="203.11" width="6.22" height="6.22" fill="#FF8C42"/><rect x="230.67" y="203.11" width="6.22" height="6.22" fill="#E74C3C"/><rect x="243.11" y="203.11" width="6.22" height="6.22" fill="#FF8C42"/><rect x="255.56" y="203.11" width="6.22" height="6.22" fill="#E74C3C"/><rect x="268.00" y="203.11" width="6.22" height="6.22" fill="#FF8C42"/><rect x="205.78" y="209.33" width="6.22" height="6.22" fill="#E74C3C"/><rect x="218.22" y="209.33" width="6.22" height="6.22" fill="#FF8C42"/><rect x="230.67" y="209.33" width="6.22" height="6.22" fill="#E74C3C"/><rect x="243.11" y="209.33" width="6.22" height="6.22" fill="#FF8C42"/><rect x="255.56" y="209.33" width="6.22" height="6.22" fill="#E74C3C"/><rect x="268.00" y="209.33" width="6.22" height="6.22" fill="#FF8C42"/><rect x="205.78" y="215.56" width="6.22" height="6.22" fill="#E74C3C"/><rect x="218.22" y="215.56" width="6.22" height="6.22" fill="#FF8C42"/><rect x="230.67" y="215.56" width="6.22" height="6.22" fill="#E74C3C"/><rect x="243.11" y="215.56" width="6.22" height="6.22" fill="#FF8C42"/><rect x="255.56" y="215.56" width="6.22" height="6.22" fill="#E74C3C"/><rect x="268.00" y="215.56" width="6.22" height="6.22" fill="#FF8C42"/><rect x="205.78" y="221.78" width="6.22" height="6.22" fill="#FFB6C1"/><rect x="218.22" y="221.78" width="6.22" height="6.22" fill="#FF8C42"/><rect x="230.67" y="221.78" width="6.22" height="6.22" fill="#E74C3C"/><rect x="243.11" y="221.78" width="6.22" height="6.22" fill="#FFB6C1"/><rect x="255.56" y="221.78" width="6.22" height="6.22" fill="#E74C3C"/><rect x="268.00" y="221.78" width="6.22" height="6.22" fill="#FF8C42"/><rect x="218.22" y="228.00" width="6.22" height="6.22" fill="#FFB6C1"/><rect x="230.67" y="228.00" width="6.22" height="6.22" fill="#E74C3C"/><rect x="255.56" y="228.00" width="6.22" height="6.22" fill="#FFB6C1"/><rect x="268.00" y="228.00" width="6.22" height="6.22" fill="#FF8C42"/><rect x="230.67" y="234.22" width="6.22" height="6.22" fill="#FFB6C1"/><rect x="268.00" y="234.22" width="6.22" height="6.22" fill="#FFB6C1"/>
  <!-- 难度标签 -->
  <rect x="390" y="20" width="70" height="22" rx="11" fill="#ff3b30"/>
  <text x="425" y="35" font-family="-apple-system, sans-serif" font-size="11" font-weight="600" fill="#ffffff" text-anchor="middle">HARD</text>
  <!-- 分类标签 -->
  <rect x="20" y="20" width="64" height="22" rx="11" fill="#5D4037" opacity="0.9"/>
  <text x="52" y="35" font-family="-apple-system, sans-serif" font-size="10" font-weight="600" fill="#ffffff" text-anchor="middle">ANIMAL</text>
  <!-- 模板名 -->
  <text x="240" y="286" font-family="-apple-system, 'PingFang SC', sans-serif" font-size="16" font-weight="600" fill="#1d1d1f" text-anchor="middle">凤凰涅槃</text>
  <text x="240" y="304" font-family="-apple-system, sans-serif" font-size="11" font-weight="400" fill="#86868b" text-anchor="middle">291 beads · 32×32</text>
</svg>
