<svg xmlns="http://www.w3.org/2000/svg" viewBox="0 0 480 360" width="480" height="360">
  <defs>
    <linearGradient id="bganimalsdragon013" x1="0%" y1="0%" x2="100%" y2="100%">
      <stop offset="0%" stop-color="#FF8C42" stop-opacity="0.25"/>
      <stop offset="100%" stop-color="#A1887F" stop-opacity="0.25"/>
    </linearGradient>
    <linearGradient id="cardanimalsdragon013" x1="0%" y1="0%" x2="0%" y2="100%">
      <stop offset="0%" stop-color="#ffffff" stop-opacity="0.98"/>
      <stop offset="100%" stop-color="#f5f5f7" stop-opacity="0.95"/>
    </linearGradient>
    <linearGradient id="boardanimalsdragon013" x1="0%" y1="0%" x2="0%" y2="100%">
      <stop offset="0%" stop-color="#1d1d1f" stop-opacity="0.04"/>
      <stop offset="100%" stop-color="#1d1d1f" stop-opacity="0.08"/>
    </linearGradient>
    <filter id="shadowanimalsdragon013" x="-10%" y="-10%" width="120%" height="120%">
      <feGaussianBlur in="SourceAlpha" stdDeviation="4"/>
      <feOffset dx="0" dy="2"/>
      <feComponentTransfer><feFuncA type="linear" slope="0.15"/></feComponentTransfer>
      <feMerge><feMergeNode/><feMergeNode in="SourceGraphic"/></feMerge>
    </filter>
  </defs>
  <rect width="480" height="360" fill="#fafafa"/>
  <rect width="480" height="360" fill="url(#bganimalsdragon013)"/>
  <path d="M 0 340 Q 240 320 480 340" stroke="#5D4037" stroke-width="1" fill="none" opacity="0.15"/>
  <path d="M 0 20 Q 240 0 480 20" stroke="#FF8C42" stroke-width="1" fill="none" opacity="0.2"/>
  <circle cx="30" cy="25" r="2" fill="#FF8C42" opacity="0.15"/>
  <circle cx="86" cy="72" r="3" fill="#A1887F" opacity="0.22999999999999998"/>
  <circle cx="142" cy="119" r="4" fill="#5D4037" opacity="0.31"/>
  <circle cx="198" cy="166" r="5" fill="#FF8C42" opacity="0.15"/>
  <circle cx="254" cy="213" r="2" fill="#A1887F" opacity="0.22999999999999998"/>
  <circle cx="310" cy="260" r="3" fill="#5D4037" opacity="0.31"/>
  <circle cx="366" cy="307" r="4" fill="#FF8C42" opacity="0.15"/>
  <circle cx="422" cy="34" r="5" fill="#A1887F" opacity="0.22999999999999998"/>
  <rect x="138" y="70" width="204" height="232" rx="18" fill="url(#cardanimalsdragon013)" stroke="rgba(0,0,0,0.06)" stroke-width="1" filter="url(#shadowanimalsdragon013)"/>
  <!-- 像素预览底板（深色，让浅色像素可见） -->
  <rect x="152" y="84" width="176" height="176" rx="6" fill="#f5f5f7" stroke="rgba(0,0,0,0.08)" stroke-width="1"/>
  <!-- 像素网格 -->
  <rect x="156.00" y="108.16" width="6.72" height="6.72" fill="#A1887F"/><rect x="317.28" y="108.16" width="6.72" height="6.72" fill="#A1887F"/><rect x="162.72" y="114.88" width="6.72" height="6.72" fill="#A1887F"/><rect x="310.56" y="114.88" width="6.72" height="6.72" fill="#A1887F"/><rect x="162.72" y="121.60" width="6.72" height="6.72" fill="#A1887F"/><rect x="196.32" y="121.60" width="6.72" height="6.72" fill="#F4D03F"/><rect x="209.76" y="121.60" width="6.72" height="6.72" fill="#F4D03F"/><rect x="223.20" y="121.60" width="6.72" height="6.72" fill="#F4D03F"/><rect x="236.64" y="121.60" width="6.72" height="6.72" fill="#F4D03F"/><rect x="250.08" y="121.60" width="6.72" height="6.72" fill="#F4D03F"/><rect x="263.52" y="121.60" width="6.72" height="6.72" fill="#F4D03F"/><rect x="276.96" y="121.60" width="6.72" height="6.72" fill="#F4D03F"/><rect x="310.56" y="121.60" width="6.72" height="6.72" fill="#A1887F"/><rect x="169.44" y="128.32" width="6.72" height="6.72" fill="#A1887F"/><rect x="196.32" y="128.32" width="6.72" height="6.72" fill="#F4D03F"/><rect x="209.76" y="128.32" width="6.72" height="6.72" fill="#F4D03F"/><rect x="223.20" y="128.32" width="6.72" height="6.72" fill="#F4D03F"/><rect x="236.64" y="128.32" width="6.72" height="6.72" fill="#F4D03F"/><rect x="250.08" y="128.32" width="6.72" height="6.72" fill="#F4D03F"/><rect x="263.52" y="128.32" width="6.72" height="6.72" fill="#F4D03F"/><rect x="276.96" y="128.32" width="6.72" height="6.72" fill="#F4D03F"/><rect x="303.84" y="128.32" width="6.72" height="6.72" fill="#A1887F"/><rect x="176.16" y="135.04" width="6.72" height="6.72" fill="#A1887F"/><rect x="196.32" y="135.04" width="6.72" height="6.72" fill="#F4D03F"/><rect x="209.76" y="135.04" width="6.72" height="6.72" fill="#F4D03F"/><rect x="223.20" y="135.04" width="6.72" height="6.72" fill="#F4D03F"/><rect x="236.64" y="135.04" width="6.72" height="6.72" fill="#F4D03F"/><rect x="250.08" y="135.04" width="6.72" height="6.72" fill="#F4D03F"/><rect x="263.52" y="135.04" width="6.72" height="6.72" fill="#F4D03F"/><rect x="276.96" y="135.04" width="6.72" height="6.72" fill="#F4D03F"/><rect x="297.12" y="135.04" width="6.72" height="6.72" fill="#A1887F"/><rect x="176.16" y="141.76" width="6.72" height="6.72" fill="#A1887F"/><rect x="196.32" y="141.76" width="6.72" height="6.72" fill="#F4D03F"/><rect x="209.76" y="141.76" width="6.72" height="6.72" fill="#F4D03F"/><rect x="223.20" y="141.76" width="6.72" height="6.72" fill="#F4D03F"/><rect x="236.64" y="141.76" width="6.72" height="6.72" fill="#F4D03F"/><rect x="250.08" y="141.76" width="6.72" height="6.72" fill="#F4D03F"/><rect x="263.52" y="141.76" width="6.72" height="6.72" fill="#F4D03F"/><rect x="276.96" y="141.76" width="6.72" height="6.72" fill="#F4D03F"/><rect x="297.12" y="141.76" width="6.72" height="6.72" fill="#A1887F"/><rect x="169.44" y="148.48" width="6.72" height="6.72" fill="#FFFFFF"/><rect x="176.16" y="148.48" width="6.72" height="6.72" fill="#FFFFFF"/><rect x="182.88" y="148.48" width="6.72" height="6.72" fill="#A1887F"/><rect x="189.60" y="148.48" width="6.72" height="6.72" fill="#FFFFFF"/><rect x="196.32" y="148.48" width="6.72" height="6.72" fill="#F4D03F"/><rect x="203.04" y="148.48" width="6.72" height="6.72" fill="#FFFFFF"/><rect x="209.76" y="148.48" width="6.72" height="6.72" fill="#F4D03F"/><rect x="216.48" y="148.48" width="6.72" height="6.72" fill="#FFFFFF"/><rect x="223.20" y="148.48" width="6.72" height="6.72" fill="#F4D03F"/><rect x="229.92" y="148.48" width="6.72" height="6.72" fill="#FFFFFF"/><rect x="236.64" y="148.48" width="6.72" height="6.72" fill="#F4D03F"/><rect x="243.36" y="148.48" width="6.72" height="6.72" fill="#FFFFFF"/><rect x="250.08" y="148.48" width="6.72" height="6.72" fill="#F4D03F"/><rect x="256.80" y="148.48" width="6.72" height="6.72" fill="#FFFFFF"/><rect x="263.52" y="148.48" width="6.72" height="6.72" fill="#F4D03F"/><rect x="270.24" y="148.48" width="6.72" height="6.72" fill="#FFFFFF"/><rect x="276.96" y="148.48" width="6.72" height="6.72" fill="#F4D03F"/><rect x="283.68" y="148.48" width="6.72" height="6.72" fill="#FFFFFF"/><rect x="290.40" y="148.48" width="6.72" height="6.72" fill="#A1887F"/><rect x="169.44" y="155.20" width="6.72" height="6.72" fill="#FFFFFF"/><rect x="176.16" y="155.20" width="6.72" height="6.72" fill="#FFFFFF"/><rect x="182.88" y="155.20" width="6.72" height="6.72" fill="#FFFFFF"/><rect x="189.60" y="155.20" width="6.72" height="6.72" fill="#FFFFFF"/><rect x="196.32" y="155.20" width="6.72" height="6.72" fill="#FFFFFF"/><rect x="203.04" y="155.20" width="6.72" height="6.72" fill="#FFFFFF"/><rect x="209.76" y="155.20" width="6.72" height="6.72" fill="#FFFFFF"/><rect x="216.48" y="155.20" width="6.72" height="6.72" fill="#FFFFFF"/><rect x="223.20" y="155.20" width="6.72" height="6.72" fill="#FFFFFF"/><rect x="229.92" y="155.20" width="6.72" height="6.72" fill="#FFFFFF"/><rect x="236.64" y="155.20" width="6.72" height="6.72" fill="#FFFFFF"/><rect x="243.36" y="155.20" width="6.72" height="6.72" fill="#FFFFFF"/><rect x="250.08" y="155.20" width="6.72" height="6.72" fill="#FFFFFF"/><rect x="256.80" y="155.20" width="6.72" height="6.72" fill="#FFFFFF"/><rect x="263.52" y="155.20" width="6.72" height="6.72" fill="#FFFFFF"/><rect x="270.24" y="155.20" width="6.72" height="6.72" fill="#FFFFFF"/><rect x="276.96" y="155.20" width="6.72" height="6.72" fill="#FFFFFF"/><rect x="283.68" y="155.20" width="6.72" height="6.72" fill="#FFFFFF"/><rect x="290.40" y="155.20" width="6.72" height="6.72" fill="#FFFFFF"/><rect x="169.44" y="161.92" width="6.72" height="6.72" fill="#FFFFFF"/><rect x="176.16" y="161.92" width="6.72" height="6.72" fill="#FFFFFF"/><rect x="182.88" y="161.92" width="6.72" height="6.72" fill="#FFFFFF"/><rect x="189.60" y="161.92" width="6.72" height="6.72" fill="#8E44AD"/><rect x="196.32" y="161.92" width="6.72" height="6.72" fill="#FFFFFF"/><rect x="203.04" y="161.92" width="6.72" height="6.72" fill="#FFFFFF"/><rect x="209.76" y="161.92" width="6.72" height="6.72" fill="#FFFFFF"/><rect x="216.48" y="161.92" width="6.72" height="6.72" fill="#8E44AD"/><rect x="223.20" y="161.92" width="6.72" height="6.72" fill="#FFFFFF"/><rect x="229.92" y="161.92" width="6.72" height="6.72" fill="#FFFFFF"/><rect x="236.64" y="161.92" width="6.72" height="6.72" fill="#FFFFFF"/><rect x="243.36" y="161.92" width="6.72" height="6.72" fill="#8E44AD"/><rect x="250.08" y="161.92" width="6.72" height="6.72" fill="#FFFFFF"/><rect x="256.80" y="161.92" width="6.72" height="6.72" fill="#FFFFFF"/><rect x="263.52" y="161.92" width="6.72" height="6.72" fill="#FFFFFF"/><rect x="270.24" y="161.92" width="6.72" height="6.72" fill="#8E44AD"/><rect x="276.96" y="161.92" width="6.72" height="6.72" fill="#FFFFFF"/><rect x="283.68" y="161.92" width="6.72" height="6.72" fill="#FFFFFF"/><rect x="290.40" y="161.92" width="6.72" height="6.72" fill="#FFFFFF"/><rect x="169.44" y="168.64" width="6.72" height="6.72" fill="#FFFFFF"/><rect x="176.16" y="168.64" width="6.72" height="6.72" fill="#FFFFFF"/><rect x="182.88" y="168.64" width="6.72" height="6.72" fill="#FFFFFF"/><rect x="189.60" y="168.64" width="6.72" height="6.72" fill="#FFFFFF"/><rect x="196.32" y="168.64" width="6.72" height="6.72" fill="#FFFFFF"/><rect x="203.04" y="168.64" width="6.72" height="6.72" fill="#FFFFFF"/><rect x="209.76" y="168.64" width="6.72" height="6.72" fill="#FFFFFF"/><rect x="216.48" y="168.64" width="6.72" height="6.72" fill="#FFFFFF"/><rect x="223.20" y="168.64" width="6.72" height="6.72" fill="#FFFFFF"/><rect x="229.92" y="168.64" width="6.72" height="6.72" fill="#FFFFFF"/><rect x="236.64" y="168.64" width="6.72" height="6.72" fill="#FFFFFF"/><rect x="243.36" y="168.64" width="6.72" height="6.72" fill="#FFFFFF"/><rect x="250.08" y="168.64" width="6.72" height="6.72" fill="#FFFFFF"/><rect x="256.80" y="168.64" width="6.72" height="6.72" fill="#FFFFFF"/><rect x="263.52" y="168.64" width="6.72" height="6.72" fill="#FFFFFF"/><rect x="270.24" y="168.64" width="6.72" height="6.72" fill="#FFFFFF"/><rect x="276.96" y="168.64" width="6.72" height="6.72" fill="#FFFFFF"/><rect x="283.68" y="168.64" width="6.72" height="6.72" fill="#FFFFFF"/><rect x="290.40" y="168.64" width="6.72" height="6.72" fill="#FFFFFF"/><rect x="169.44" y="175.36" width="6.72" height="6.72" fill="#FFFFFF"/><rect x="176.16" y="175.36" width="6.72" height="6.72" fill="#8E44AD"/><rect x="182.88" y="175.36" width="6.72" height="6.72" fill="#FFFFFF"/><rect x="189.60" y="175.36" width="6.72" height="6.72" fill="#1A1A1A"/><rect x="196.32" y="175.36" width="6.72" height="6.72" fill="#1A1A1A"/><rect x="203.04" y="175.36" width="6.72" height="6.72" fill="#8E44AD"/><rect x="209.76" y="175.36" width="6.72" height="6.72" fill="#1A1A1A"/><rect x="216.48" y="175.36" width="6.72" height="6.72" fill="#FFFFFF"/><rect x="223.20" y="175.36" width="6.72" height="6.72" fill="#FFFFFF"/><rect x="229.92" y="175.36" width="6.72" height="6.72" fill="#8E44AD"/><rect x="236.64" y="175.36" width="6.72" height="6.72" fill="#FFFFFF"/><rect x="243.36" y="175.36" width="6.72" height="6.72" fill="#FFFFFF"/><rect x="250.08" y="175.36" width="6.72" height="6.72" fill="#FFFFFF"/><rect x="256.80" y="175.36" width="6.72" height="6.72" fill="#8E44AD"/><rect x="263.52" y="175.36" width="6.72" height="6.72" fill="#1A1A1A"/><rect x="270.24" y="175.36" width="6.72" height="6.72" fill="#1A1A1A"/><rect x="276.96" y="175.36" width="6.72" height="6.72" fill="#1A1A1A"/><rect x="283.68" y="175.36" width="6.72" height="6.72" fill="#8E44AD"/><rect x="290.40" y="175.36" width="6.72" height="6.72" fill="#FFFFFF"/><rect x="169.44" y="182.08" width="6.72" height="6.72" fill="#FFFFFF"/><rect x="176.16" y="182.08" width="6.72" height="6.72" fill="#FFFFFF"/><rect x="182.88" y="182.08" width="6.72" height="6.72" fill="#FFFFFF"/><rect x="189.60" y="182.08" width="6.72" height="6.72" fill="#1A1A1A"/><rect x="196.32" y="182.08" width="6.72" height="6.72" fill="#E74C3C"/><rect x="203.04" y="182.08" width="6.72" height="6.72" fill="#1A1A1A"/><rect x="209.76" y="182.08" width="6.72" height="6.72" fill="#1A1A1A"/><rect x="216.48" y="182.08" width="6.72" height="6.72" fill="#FFFFFF"/><rect x="223.20" y="182.08" width="6.72" height="6.72" fill="#FFFFFF"/><rect x="229.92" y="182.08" width="6.72" height="6.72" fill="#FFFFFF"/><rect x="236.64" y="182.08" width="6.72" height="6.72" fill="#FFFFFF"/><rect x="243.36" y="182.08" width="6.72" height="6.72" fill="#FFFFFF"/><rect x="250.08" y="182.08" width="6.72" height="6.72" fill="#FFFFFF"/><rect x="256.80" y="182.08" width="6.72" height="6.72" fill="#1A1A1A"/><rect x="263.52" y="182.08" width="6.72" height="6.72" fill="#E74C3C"/><rect x="270.24" y="182.08" width="6.72" height="6.72" fill="#1A1A1A"/><rect x="276.96" y="182.08" width="6.72" height="6.72" fill="#1A1A1A"/><rect x="283.68" y="182.08" width="6.72" height="6.72" fill="#FFFFFF"/><rect x="290.40" y="182.08" width="6.72" height="6.72" fill="#FFFFFF"/><rect x="169.44" y="188.80" width="6.72" height="6.72" fill="#FFFFFF"/><rect x="176.16" y="188.80" width="6.72" height="6.72" fill="#FFFFFF"/><rect x="182.88" y="188.80" width="6.72" height="6.72" fill="#FFFFFF"/><rect x="189.60" y="188.80" width="6.72" height="6.72" fill="#8E44AD"/><rect x="196.32" y="188.80" width="6.72" height="6.72" fill="#1A1A1A"/><rect x="203.04" y="188.80" width="6.72" height="6.72" fill="#1A1A1A"/><rect x="209.76" y="188.80" width="6.72" height="6.72" fill="#1A1A1A"/><rect x="216.48" y="188.80" width="6.72" height="6.72" fill="#8E44AD"/><rect x="223.20" y="188.80" width="6.72" height="6.72" fill="#FFFFFF"/><rect x="229.92" y="188.80" width="6.72" height="6.72" fill="#FFFFFF"/><rect x="236.64" y="188.80" width="6.72" height="6.72" fill="#FFFFFF"/><rect x="243.36" y="188.80" width="6.72" height="6.72" fill="#8E44AD"/><rect x="250.08" y="188.80" width="6.72" height="6.72" fill="#FFFFFF"/><rect x="256.80" y="188.80" width="6.72" height="6.72" fill="#1A1A1A"/><rect x="263.52" y="188.80" width="6.72" height="6.72" fill="#1A1A1A"/><rect x="270.24" y="188.80" width="6.72" height="6.72" fill="#8E44AD"/><rect x="276.96" y="188.80" width="6.72" height="6.72" fill="#1A1A1A"/><rect x="283.68" y="188.80" width="6.72" height="6.72" fill="#FFFFFF"/><rect x="290.40" y="188.80" width="6.72" height="6.72" fill="#FFFFFF"/><rect x="169.44" y="195.52" width="6.72" height="6.72" fill="#FFFFFF"/><rect x="176.16" y="195.52" width="6.72" height="6.72" fill="#FFFFFF"/><rect x="182.88" y="195.52" width="6.72" height="6.72" fill="#FFFFFF"/><rect x="189.60" y="195.52" width="6.72" height="6.72" fill="#FFFFFF"/><rect x="196.32" y="195.52" width="6.72" height="6.72" fill="#FFFFFF"/><rect x="203.04" y="195.52" width="6.72" height="6.72" fill="#FFFFFF"/><rect x="209.76" y="195.52" width="6.72" height="6.72" fill="#FFFFFF"/><rect x="216.48" y="195.52" width="6.72" height="6.72" fill="#FFFFFF"/><rect x="223.20" y="195.52" width="6.72" height="6.72" fill="#FFFFFF"/><rect x="229.92" y="195.52" width="6.72" height="6.72" fill="#FFFFFF"/><rect x="236.64" y="195.52" width="6.72" height="6.72" fill="#FFFFFF"/><rect x="243.36" y="195.52" width="6.72" height="6.72" fill="#FFFFFF"/><rect x="250.08" y="195.52" width="6.72" height="6.72" fill="#FFFFFF"/><rect x="256.80" y="195.52" width="6.72" height="6.72" fill="#FFFFFF"/><rect x="263.52" y="195.52" width="6.72" height="6.72" fill="#FFFFFF"/><rect x="270.24" y="195.52" width="6.72" height="6.72" fill="#FFFFFF"/><rect x="276.96" y="195.52" width="6.72" height="6.72" fill="#FFFFFF"/><rect x="283.68" y="195.52" width="6.72" height="6.72" fill="#FFFFFF"/><rect x="290.40" y="195.52" width="6.72" height="6.72" fill="#FFFFFF"/><rect x="169.44" y="202.24" width="6.72" height="6.72" fill="#FFFFFF"/><rect x="176.16" y="202.24" width="6.72" height="6.72" fill="#8E44AD"/><rect x="182.88" y="202.24" width="6.72" height="6.72" fill="#FFFFFF"/><rect x="189.60" y="202.24" width="6.72" height="6.72" fill="#FFFFFF"/><rect x="196.32" y="202.24" width="6.72" height="6.72" fill="#FFFFFF"/><rect x="203.04" y="202.24" width="6.72" height="6.72" fill="#8E44AD"/><rect x="209.76" y="202.24" width="6.72" height="6.72" fill="#FFFFFF"/><rect x="216.48" y="202.24" width="6.72" height="6.72" fill="#FFFFFF"/><rect x="223.20" y="202.24" width="6.72" height="6.72" fill="#A1887F"/><rect x="229.92" y="202.24" width="6.72" height="6.72" fill="#8E44AD"/><rect x="236.64" y="202.24" width="6.72" height="6.72" fill="#A1887F"/><rect x="243.36" y="202.24" width="6.72" height="6.72" fill="#FFFFFF"/><rect x="250.08" y="202.24" width="6.72" height="6.72" fill="#FFFFFF"/><rect x="256.80" y="202.24" width="6.72" height="6.72" fill="#8E44AD"/><rect x="263.52" y="202.24" width="6.72" height="6.72" fill="#FFFFFF"/><rect x="270.24" y="202.24" width="6.72" height="6.72" fill="#FFFFFF"/><rect x="276.96" y="202.24" width="6.72" height="6.72" fill="#FFFFFF"/><rect x="283.68" y="202.24" width="6.72" height="6.72" fill="#8E44AD"/><rect x="290.40" y="202.24" width="6.72" height="6.72" fill="#FFFFFF"/><rect x="169.44" y="208.96" width="6.72" height="6.72" fill="#FFFFFF"/><rect x="176.16" y="208.96" width="6.72" height="6.72" fill="#FFFFFF"/><rect x="182.88" y="208.96" width="6.72" height="6.72" fill="#FFFFFF"/><rect x="189.60" y="208.96" width="6.72" height="6.72" fill="#FFFFFF"/><rect x="196.32" y="208.96" width="6.72" height="6.72" fill="#FFFFFF"/><rect x="203.04" y="208.96" width="6.72" height="6.72" fill="#FFFFFF"/><rect x="209.76" y="208.96" width="6.72" height="6.72" fill="#FFFFFF"/><rect x="216.48" y="208.96" width="6.72" height="6.72" fill="#FFFFFF"/><rect x="223.20" y="208.96" width="6.72" height="6.72" fill="#A1887F"/><rect x="229.92" y="208.96" width="6.72" height="6.72" fill="#A1887F"/><rect x="236.64" y="208.96" width="6.72" height="6.72" fill="#A1887F"/><rect x="243.36" y="208.96" width="6.72" height="6.72" fill="#FFFFFF"/><rect x="250.08" y="208.96" width="6.72" height="6.72" fill="#FFFFFF"/><rect x="256.80" y="208.96" width="6.72" height="6.72" fill="#FFFFFF"/><rect x="263.52" y="208.96" width="6.72" height="6.72" fill="#FFFFFF"/><rect x="270.24" y="208.96" width="6.72" height="6.72" fill="#FFFFFF"/><rect x="276.96" y="208.96" width="6.72" height="6.72" fill="#FFFFFF"/><rect x="283.68" y="208.96" width="6.72" height="6.72" fill="#FFFFFF"/><rect x="290.40" y="208.96" width="6.72" height="6.72" fill="#FFFFFF"/><rect x="169.44" y="215.68" width="6.72" height="6.72" fill="#FFFFFF"/><rect x="176.16" y="215.68" width="6.72" height="6.72" fill="#FFFFFF"/><rect x="182.88" y="215.68" width="6.72" height="6.72" fill="#FFFFFF"/><rect x="189.60" y="215.68" width="6.72" height="6.72" fill="#FFFFFF"/><rect x="196.32" y="215.68" width="6.72" height="6.72" fill="#FFFFFF"/><rect x="203.04" y="215.68" width="6.72" height="6.72" fill="#FFFFFF"/><rect x="209.76" y="215.68" width="6.72" height="6.72" fill="#FFFFFF"/><rect x="216.48" y="215.68" width="6.72" height="6.72" fill="#FFFFFF"/><rect x="223.20" y="215.68" width="6.72" height="6.72" fill="#FFFFFF"/><rect x="229.92" y="215.68" width="6.72" height="6.72" fill="#FFFFFF"/><rect x="236.64" y="215.68" width="6.72" height="6.72" fill="#FFFFFF"/><rect x="243.36" y="215.68" width="6.72" height="6.72" fill="#FFFFFF"/><rect x="250.08" y="215.68" width="6.72" height="6.72" fill="#FFFFFF"/><rect x="256.80" y="215.68" width="6.72" height="6.72" fill="#FFFFFF"/><rect x="263.52" y="215.68" width="6.72" height="6.72" fill="#FFFFFF"/><rect x="270.24" y="215.68" width="6.72" height="6.72" fill="#FFFFFF"/><rect x="276.96" y="215.68" width="6.72" height="6.72" fill="#FFFFFF"/><rect x="283.68" y="215.68" width="6.72" height="6.72" fill="#FFFFFF"/><rect x="290.40" y="215.68" width="6.72" height="6.72" fill="#FFFFFF"/><rect x="169.44" y="222.40" width="6.72" height="6.72" fill="#FFFFFF"/><rect x="176.16" y="222.40" width="6.72" height="6.72" fill="#FFFFFF"/><rect x="182.88" y="222.40" width="6.72" height="6.72" fill="#1A1A1A"/><rect x="189.60" y="222.40" width="6.72" height="6.72" fill="#FFFFFF"/><rect x="196.32" y="222.40" width="6.72" height="6.72" fill="#1A1A1A"/><rect x="203.04" y="222.40" width="6.72" height="6.72" fill="#1A1A1A"/><rect x="209.76" y="222.40" width="6.72" height="6.72" fill="#1A1A1A"/><rect x="216.48" y="222.40" width="6.72" height="6.72" fill="#1A1A1A"/><rect x="223.20" y="222.40" width="6.72" height="6.72" fill="#1A1A1A"/><rect x="229.92" y="222.40" width="6.72" height="6.72" fill="#1A1A1A"/><rect x="236.64" y="222.40" width="6.72" height="6.72" fill="#1A1A1A"/><rect x="243.36" y="222.40" width="6.72" height="6.72" fill="#1A1A1A"/><rect x="250.08" y="222.40" width="6.72" height="6.72" fill="#1A1A1A"/><rect x="256.80" y="222.40" width="6.72" height="6.72" fill="#1A1A1A"/><rect x="263.52" y="222.40" width="6.72" height="6.72" fill="#1A1A1A"/><rect x="270.24" y="222.40" width="6.72" height="6.72" fill="#FFFFFF"/><rect x="276.96" y="222.40" width="6.72" height="6.72" fill="#1A1A1A"/><rect x="283.68" y="222.40" width="6.72" height="6.72" fill="#FFFFFF"/><rect x="290.40" y="222.40" width="6.72" height="6.72" fill="#FFFFFF"/><rect x="169.44" y="229.12" width="6.72" height="6.72" fill="#FFFFFF"/><rect x="176.16" y="229.12" width="6.72" height="6.72" fill="#FFFFFF"/><rect x="182.88" y="229.12" width="6.72" height="6.72" fill="#FFFFFF"/><rect x="189.60" y="229.12" width="6.72" height="6.72" fill="#FFFFFF"/><rect x="196.32" y="229.12" width="6.72" height="6.72" fill="#FFFFFF"/><rect x="203.04" y="229.12" width="6.72" height="6.72" fill="#FFFFFF"/><rect x="209.76" y="229.12" width="6.72" height="6.72" fill="#FFFFFF"/><rect x="216.48" y="229.12" width="6.72" height="6.72" fill="#FFFFFF"/><rect x="223.20" y="229.12" width="6.72" height="6.72" fill="#FFFFFF"/><rect x="229.92" y="229.12" width="6.72" height="6.72" fill="#FFFFFF"/><rect x="236.64" y="229.12" width="6.72" height="6.72" fill="#FFFFFF"/><rect x="243.36" y="229.12" width="6.72" height="6.72" fill="#FFFFFF"/><rect x="250.08" y="229.12" width="6.72" height="6.72" fill="#FFFFFF"/><rect x="256.80" y="229.12" width="6.72" height="6.72" fill="#FFFFFF"/><rect x="263.52" y="229.12" width="6.72" height="6.72" fill="#FFFFFF"/><rect x="270.24" y="229.12" width="6.72" height="6.72" fill="#FFFFFF"/><rect x="276.96" y="229.12" width="6.72" height="6.72" fill="#FFFFFF"/><rect x="283.68" y="229.12" width="6.72" height="6.72" fill="#FFFFFF"/><rect x="290.40" y="229.12" width="6.72" height="6.72" fill="#FFFFFF"/>
  <!-- 难度标签 -->
  <rect x="390" y="20" width="70" height="22" rx="11" fill="#ff3b30"/>
  <text x="425" y="35" font-family="-apple-system, sans-serif" font-size="11" font-weight="600" fill="#ffffff" text-anchor="middle">HARD</text>
  <!-- 分类标签 -->
  <rect x="20" y="20" width="64" height="22" rx="11" fill="#5D4037" opacity="0.9"/>
  <text x="52" y="35" font-family="-apple-system, sans-serif" font-size="10" font-weight="600" fill="#ffffff" text-anchor="middle">ANIMAL</text>
  <!-- 模板名 -->
  <text x="240" y="286" font-family="-apple-system, 'PingFang SC', sans-serif" font-size="16" font-weight="600" fill="#1d1d1f" text-anchor="middle">巨龙首</text>
  <text x="240" y="304" font-family="-apple-system, sans-serif" font-size="11" font-weight="400" fill="#86868b" text-anchor="middle">287 beads · 32×32</text>
</svg>
