<?xml version="1.0" encoding="UTF-8"?>
<svg xmlns="http://www.w3.org/2000/svg" viewBox="0 0 480 360" width="480" height="360">
  
    <defs>
      <linearGradient id="bg" x1="0" y1="0" x2="1" y2="1">
        <stop offset="0%" stop-color="#000000" stop-opacity="0.15"/>
        <stop offset="100%" stop-color="#FFFFFF" stop-opacity="0.25"/>
      </linearGradient>
      <linearGradient id="card" x1="0" y1="0" x2="0" y2="1">
        <stop offset="0%" stop-color="#ffffff"/>
        <stop offset="100%" stop-color="#f8f9fa"/>
      </linearGradient>
      <filter id="shadow" x="-20%" y="-20%" width="140%" height="140%">
        <feDropShadow dx="0" dy="4" stdDeviation="6" flood-opacity="0.15"/>
      </filter>
    </defs>
  
  <rect width="480" height="360" fill="url(#bg)" />
  <rect x="192" y="291" width="4" height="4" rx="1" fill="#FFB6C1" opacity="0.30" /><rect x="354" y="195" width="6" height="6" rx="1" fill="#FFA500" opacity="0.15" /><rect x="77" y="324" width="6" height="6" rx="1" fill="#000000" opacity="0.25" /><rect x="240" y="228" width="8" height="8" rx="1" fill="#FFD700" opacity="0.10" /><rect x="403" y="132" width="4" height="4" rx="1" fill="#FFFFFF" opacity="0.20" /><rect x="126" y="261" width="4" height="4" rx="1" fill="#FFB6C1" opacity="0.30" /><rect x="288" y="165" width="6" height="6" rx="1" fill="#FFA500" opacity="0.15" /><rect x="451" y="69" width="8" height="8" rx="1" fill="#000000" opacity="0.25" /><rect x="174" y="198" width="8" height="8" rx="1" fill="#FFD700" opacity="0.10" /><rect x="337" y="102" width="4" height="4" rx="1" fill="#FFFFFF" opacity="0.20" /><rect x="60" y="230" width="4" height="4" rx="1" fill="#FFB6C1" opacity="0.30" /><rect x="222" y="135" width="6" height="6" rx="1" fill="#FFA500" opacity="0.15" />
  <rect x="120" y="40" width="240" height="240" rx="12" fill="url(#card)" filter="url(#shadow)" />
  <rect x="184" y="48" width="14" height="14" rx="2" fill="#000000" /><rect x="198" y="48" width="14" height="14" rx="2" fill="#000000" /><rect x="212" y="48" width="14" height="14" rx="2" fill="#000000" /><rect x="226" y="48" width="14" height="14" rx="2" fill="#000000" /><rect x="240" y="48" width="14" height="14" rx="2" fill="#000000" /><rect x="254" y="48" width="14" height="14" rx="2" fill="#000000" /><rect x="170" y="62" width="14" height="14" rx="2" fill="#000000" /><rect x="184" y="62" width="14" height="14" rx="2" fill="#000000" /><rect x="198" y="62" width="14" height="14" rx="2" fill="#000000" /><rect x="212" y="62" width="14" height="14" rx="2" fill="#000000" /><rect x="226" y="62" width="14" height="14" rx="2" fill="#000000" /><rect x="240" y="62" width="14" height="14" rx="2" fill="#000000" /><rect x="254" y="62" width="14" height="14" rx="2" fill="#000000" /><rect x="268" y="62" width="14" height="14" rx="2" fill="#000000" /><rect x="156" y="76" width="14" height="14" rx="2" fill="#000000" /><rect x="170" y="76" width="14" height="14" rx="2" fill="#000000" /><rect x="184" y="76" width="14" height="14" rx="2" fill="#FFFFFF" /><rect x="198" y="76" width="14" height="14" rx="2" fill="#FFFFFF" /><rect x="212" y="76" width="14" height="14" rx="2" fill="#FFFFFF" /><rect x="226" y="76" width="14" height="14" rx="2" fill="#FFFFFF" /><rect x="240" y="76" width="14" height="14" rx="2" fill="#FFFFFF" /><rect x="254" y="76" width="14" height="14" rx="2" fill="#FFFFFF" /><rect x="268" y="76" width="14" height="14" rx="2" fill="#000000" /><rect x="282" y="76" width="14" height="14" rx="2" fill="#000000" /><rect x="156" y="90" width="14" height="14" rx="2" fill="#000000" /><rect x="170" y="90" width="14" height="14" rx="2" fill="#FFFFFF" /><rect x="184" y="90" width="14" height="14" rx="2" fill="#FFFFFF" /><rect x="198" y="90" width="14" height="14" rx="2" fill="#FFFFFF" /><rect x="212" y="90" width="14" height="14" rx="2" fill="#FFFFFF" /><rect x="226" y="90" width="14" height="14" rx="2" fill="#FFFFFF" /><rect x="240" y="90" width="14" height="14" rx="2" fill="#FFFFFF" /><rect x="254" y="90" width="14" height="14" rx="2" fill="#FFFFFF" /><rect x="268" y="90" width="14" height="14" rx="2" fill="#FFFFFF" /><rect x="282" y="90" width="14" height="14" rx="2" fill="#000000" /><rect x="156" y="104" width="14" height="14" rx="2" fill="#000000" /><rect x="170" y="104" width="14" height="14" rx="2" fill="#FFFFFF" /><rect x="184" y="104" width="14" height="14" rx="2" fill="#FFFFFF" /><rect x="198" y="104" width="14" height="14" rx="2" fill="#FFA500" /><rect x="212" y="104" width="14" height="14" rx="2" fill="#FFA500" /><rect x="226" y="104" width="14" height="14" rx="2" fill="#FFA500" /><rect x="240" y="104" width="14" height="14" rx="2" fill="#FFA500" /><rect x="254" y="104" width="14" height="14" rx="2" fill="#FFFFFF" /><rect x="268" y="104" width="14" height="14" rx="2" fill="#FFFFFF" /><rect x="282" y="104" width="14" height="14" rx="2" fill="#000000" /><rect x="156" y="118" width="14" height="14" rx="2" fill="#000000" /><rect x="170" y="118" width="14" height="14" rx="2" fill="#FFFFFF" /><rect x="184" y="118" width="14" height="14" rx="2" fill="#FFFFFF" /><rect x="198" y="118" width="14" height="14" rx="2" fill="#FFA500" /><rect x="212" y="118" width="14" height="14" rx="2" fill="#FFD700" /><rect x="226" y="118" width="14" height="14" rx="2" fill="#FFD700" /><rect x="240" y="118" width="14" height="14" rx="2" fill="#FFA500" /><rect x="254" y="118" width="14" height="14" rx="2" fill="#FFFFFF" /><rect x="268" y="118" width="14" height="14" rx="2" fill="#FFFFFF" /><rect x="282" y="118" width="14" height="14" rx="2" fill="#000000" /><rect x="142" y="132" width="14" height="14" rx="2" fill="#000000" /><rect x="156" y="132" width="14" height="14" rx="2" fill="#000000" /><rect x="170" y="132" width="14" height="14" rx="2" fill="#FFFFFF" /><rect x="184" y="132" width="14" height="14" rx="2" fill="#FFFFFF" /><rect x="198" y="132" width="14" height="14" rx="2" fill="#FFA500" /><rect x="212" y="132" width="14" height="14" rx="2" fill="#FFA500" /><rect x="226" y="132" width="14" height="14" rx="2" fill="#FFA500" /><rect x="240" y="132" width="14" height="14" rx="2" fill="#FFA500" /><rect x="254" y="132" width="14" height="14" rx="2" fill="#FFFFFF" /><rect x="268" y="132" width="14" height="14" rx="2" fill="#FFFFFF" /><rect x="282" y="132" width="14" height="14" rx="2" fill="#000000" /><rect x="296" y="132" width="14" height="14" rx="2" fill="#000000" /><rect x="128" y="146" width="14" height="14" rx="2" fill="#000000" /><rect x="142" y="146" width="14" height="14" rx="2" fill="#000000" /><rect x="156" y="146" width="14" height="14" rx="2" fill="#FFFFFF" /><rect x="170" y="146" width="14" height="14" rx="2" fill="#FFFFFF" /><rect x="184" y="146" width="14" height="14" rx="2" fill="#FFFFFF" /><rect x="198" y="146" width="14" height="14" rx="2" fill="#FFFFFF" /><rect x="212" y="146" width="14" height="14" rx="2" fill="#FFFFFF" /><rect x="226" y="146" width="14" height="14" rx="2" fill="#FFFFFF" /><rect x="240" y="146" width="14" height="14" rx="2" fill="#FFFFFF" /><rect x="254" y="146" width="14" height="14" rx="2" fill="#FFFFFF" /><rect x="268" y="146" width="14" height="14" rx="2" fill="#FFFFFF" /><rect x="282" y="146" width="14" height="14" rx="2" fill="#FFFFFF" /><rect x="296" y="146" width="14" height="14" rx="2" fill="#000000" /><rect x="310" y="146" width="14" height="14" rx="2" fill="#000000" /><rect x="128" y="160" width="14" height="14" rx="2" fill="#000000" /><rect x="142" y="160" width="14" height="14" rx="2" fill="#FFFFFF" /><rect x="156" y="160" width="14" height="14" rx="2" fill="#FFFFFF" /><rect x="170" y="160" width="14" height="14" rx="2" fill="#FFFFFF" /><rect x="184" y="160" width="14" height="14" rx="2" fill="#FFFFFF" /><rect x="198" y="160" width="14" height="14" rx="2" fill="#FFFFFF" /><rect x="212" y="160" width="14" height="14" rx="2" fill="#FFFFFF" /><rect x="226" y="160" width="14" height="14" rx="2" fill="#FFFFFF" /><rect x="240" y="160" width="14" height="14" rx="2" fill="#FFFFFF" /><rect x="254" y="160" width="14" height="14" rx="2" fill="#FFFFFF" /><rect x="268" y="160" width="14" height="14" rx="2" fill="#FFFFFF" /><rect x="282" y="160" width="14" height="14" rx="2" fill="#FFFFFF" /><rect x="296" y="160" width="14" height="14" rx="2" fill="#FFFFFF" /><rect x="310" y="160" width="14" height="14" rx="2" fill="#000000" /><rect x="128" y="174" width="14" height="14" rx="2" fill="#000000" /><rect x="142" y="174" width="14" height="14" rx="2" fill="#FFFFFF" /><rect x="156" y="174" width="14" height="14" rx="2" fill="#FFFFFF" /><rect x="170" y="174" width="14" height="14" rx="2" fill="#FFFFFF" /><rect x="184" y="174" width="14" height="14" rx="2" fill="#FFFFFF" /><rect x="198" y="174" width="14" height="14" rx="2" fill="#FFFFFF" /><rect x="212" y="174" width="14" height="14" rx="2" fill="#FFFFFF" /><rect x="226" y="174" width="14" height="14" rx="2" fill="#FFFFFF" /><rect x="240" y="174" width="14" height="14" rx="2" fill="#FFFFFF" /><rect x="254" y="174" width="14" height="14" rx="2" fill="#FFFFFF" /><rect x="268" y="174" width="14" height="14" rx="2" fill="#FFFFFF" /><rect x="282" y="174" width="14" height="14" rx="2" fill="#FFFFFF" /><rect x="296" y="174" width="14" height="14" rx="2" fill="#FFFFFF" /><rect x="310" y="174" width="14" height="14" rx="2" fill="#000000" /><rect x="128" y="188" width="14" height="14" rx="2" fill="#000000" /><rect x="142" y="188" width="14" height="14" rx="2" fill="#000000" /><rect x="156" y="188" width="14" height="14" rx="2" fill="#FFFFFF" /><rect x="170" y="188" width="14" height="14" rx="2" fill="#FFFFFF" /><rect x="184" y="188" width="14" height="14" rx="2" fill="#FFFFFF" /><rect x="198" y="188" width="14" height="14" rx="2" fill="#FFFFFF" /><rect x="212" y="188" width="14" height="14" rx="2" fill="#FFFFFF" /><rect x="226" y="188" width="14" height="14" rx="2" fill="#FFFFFF" /><rect x="240" y="188" width="14" height="14" rx="2" fill="#FFFFFF" /><rect x="254" y="188" width="14" height="14" rx="2" fill="#FFFFFF" /><rect x="268" y="188" width="14" height="14" rx="2" fill="#FFFFFF" /><rect x="282" y="188" width="14" height="14" rx="2" fill="#FFFFFF" /><rect x="296" y="188" width="14" height="14" rx="2" fill="#000000" /><rect x="310" y="188" width="14" height="14" rx="2" fill="#000000" /><rect x="142" y="202" width="14" height="14" rx="2" fill="#000000" /><rect x="156" y="202" width="14" height="14" rx="2" fill="#000000" /><rect x="170" y="202" width="14" height="14" rx="2" fill="#FFFFFF" /><rect x="184" y="202" width="14" height="14" rx="2" fill="#FFFFFF" /><rect x="198" y="202" width="14" height="14" rx="2" fill="#FFFFFF" /><rect x="212" y="202" width="14" height="14" rx="2" fill="#FFFFFF" /><rect x="226" y="202" width="14" height="14" rx="2" fill="#FFFFFF" /><rect x="240" y="202" width="14" height="14" rx="2" fill="#FFFFFF" /><rect x="254" y="202" width="14" height="14" rx="2" fill="#FFFFFF" /><rect x="268" y="202" width="14" height="14" rx="2" fill="#FFFFFF" /><rect x="282" y="202" width="14" height="14" rx="2" fill="#000000" /><rect x="296" y="202" width="14" height="14" rx="2" fill="#000000" /><rect x="156" y="216" width="14" height="14" rx="2" fill="#000000" /><rect x="170" y="216" width="14" height="14" rx="2" fill="#000000" /><rect x="184" y="216" width="14" height="14" rx="2" fill="#FFFFFF" /><rect x="198" y="216" width="14" height="14" rx="2" fill="#FFFFFF" /><rect x="212" y="216" width="14" height="14" rx="2" fill="#FFFFFF" /><rect x="226" y="216" width="14" height="14" rx="2" fill="#FFFFFF" /><rect x="240" y="216" width="14" height="14" rx="2" fill="#FFFFFF" /><rect x="254" y="216" width="14" height="14" rx="2" fill="#FFFFFF" /><rect x="268" y="216" width="14" height="14" rx="2" fill="#000000" /><rect x="282" y="216" width="14" height="14" rx="2" fill="#000000" /><rect x="170" y="230" width="14" height="14" rx="2" fill="#000000" /><rect x="184" y="230" width="14" height="14" rx="2" fill="#000000" /><rect x="198" y="230" width="14" height="14" rx="2" fill="#000000" /><rect x="212" y="230" width="14" height="14" rx="2" fill="#FFA500" /><rect x="226" y="230" width="14" height="14" rx="2" fill="#FFA500" /><rect x="240" y="230" width="14" height="14" rx="2" fill="#FFA500" /><rect x="254" y="230" width="14" height="14" rx="2" fill="#000000" /><rect x="268" y="230" width="14" height="14" rx="2" fill="#000000" /><rect x="184" y="244" width="14" height="14" rx="2" fill="#000000" /><rect x="198" y="244" width="14" height="14" rx="2" fill="#000000" /><rect x="212" y="244" width="14" height="14" rx="2" fill="#000000" /><rect x="226" y="244" width="14" height="14" rx="2" fill="#000000" /><rect x="240" y="244" width="14" height="14" rx="2" fill="#000000" /><rect x="254" y="244" width="14" height="14" rx="2" fill="#000000" />
  <rect x="390" y="16" width="74" height="26" rx="13" fill="#22c55e" />
  <text x="427" y="33" text-anchor="middle" fill="#fff" font-size="13" font-family="system-ui, sans-serif" font-weight="600">简单</text>
  <text x="240" y="340" text-anchor="middle" fill="#1f2937" font-size="20" font-family="system-ui, sans-serif" font-weight="700">小企鹅</text>
</svg>