<svg xmlns="http://www.w3.org/2000/svg" viewBox="0 0 480 360" width="480" height="360">
  <defs>
    <linearGradient id="bganimalsphoenix014" x1="0%" y1="0%" x2="100%" y2="100%">
      <stop offset="0%" stop-color="#FF8C42" stop-opacity="0.25"/>
      <stop offset="100%" stop-color="#A1887F" stop-opacity="0.25"/>
    </linearGradient>
    <linearGradient id="cardanimalsphoenix014" x1="0%" y1="0%" x2="0%" y2="100%">
      <stop offset="0%" stop-color="#ffffff" stop-opacity="0.98"/>
      <stop offset="100%" stop-color="#f5f5f7" stop-opacity="0.95"/>
    </linearGradient>
    <linearGradient id="boardanimalsphoenix014" x1="0%" y1="0%" x2="0%" y2="100%">
      <stop offset="0%" stop-color="#1d1d1f" stop-opacity="0.04"/>
      <stop offset="100%" stop-color="#1d1d1f" stop-opacity="0.08"/>
    </linearGradient>
    <filter id="shadowanimalsphoenix014" x="-10%" y="-10%" width="120%" height="120%">
      <feGaussianBlur in="SourceAlpha" stdDeviation="4"/>
      <feOffset dx="0" dy="2"/>
      <feComponentTransfer><feFuncA type="linear" slope="0.15"/></feComponentTransfer>
      <feMerge><feMergeNode/><feMergeNode in="SourceGraphic"/></feMerge>
    </filter>
  </defs>
  <rect width="480" height="360" fill="#fafafa"/>
  <rect width="480" height="360" fill="url(#bganimalsphoenix014)"/>
  <path d="M 0 340 Q 240 320 480 340" stroke="#5D4037" stroke-width="1" fill="none" opacity="0.15"/>
  <path d="M 0 20 Q 240 0 480 20" stroke="#FF8C42" stroke-width="1" fill="none" opacity="0.2"/>
  <circle cx="30" cy="25" r="2" fill="#FF8C42" opacity="0.15"/>
  <circle cx="86" cy="72" r="3" fill="#A1887F" opacity="0.22999999999999998"/>
  <circle cx="142" cy="119" r="4" fill="#5D4037" opacity="0.31"/>
  <circle cx="198" cy="166" r="5" fill="#FF8C42" opacity="0.15"/>
  <circle cx="254" cy="213" r="2" fill="#A1887F" opacity="0.22999999999999998"/>
  <circle cx="310" cy="260" r="3" fill="#5D4037" opacity="0.31"/>
  <circle cx="366" cy="307" r="4" fill="#FF8C42" opacity="0.15"/>
  <circle cx="422" cy="34" r="5" fill="#A1887F" opacity="0.22999999999999998"/>
  <rect x="138" y="70" width="204" height="232" rx="18" fill="url(#cardanimalsphoenix014)" stroke="rgba(0,0,0,0.06)" stroke-width="1" filter="url(#shadowanimalsphoenix014)"/>
  <!-- 像素预览底板（深色，让浅色像素可见） -->
  <rect x="152" y="84" width="176" height="176" rx="6" fill="#f5f5f7" stroke="rgba(0,0,0,0.08)" stroke-width="1"/>
  <!-- 像素网格 -->
  <rect x="240.00" y="124.75" width="5.25" height="5.25" fill="#F4D03F"/><rect x="234.75" y="130.00" width="5.25" height="5.25" fill="#FF8C42"/><rect x="240.00" y="130.00" width="5.25" height="5.25" fill="#FF8C42"/><rect x="245.25" y="130.00" width="5.25" height="5.25" fill="#FF8C42"/><rect x="171.75" y="135.25" width="5.25" height="5.25" fill="#E74C3C"/><rect x="177.00" y="135.25" width="5.25" height="5.25" fill="#FF8C42"/><rect x="182.25" y="135.25" width="5.25" height="5.25" fill="#E74C3C"/><rect x="187.50" y="135.25" width="5.25" height="5.25" fill="#E74C3C"/><rect x="192.75" y="135.25" width="5.25" height="5.25" fill="#E74C3C"/><rect x="198.00" y="135.25" width="5.25" height="5.25" fill="#E74C3C"/><rect x="203.25" y="135.25" width="5.25" height="5.25" fill="#E74C3C"/><rect x="208.50" y="135.25" width="5.25" height="5.25" fill="#E74C3C"/><rect x="213.75" y="135.25" width="5.25" height="5.25" fill="#E74C3C"/><rect x="219.00" y="135.25" width="5.25" height="5.25" fill="#E74C3C"/><rect x="224.25" y="135.25" width="5.25" height="5.25" fill="#E74C3C"/><rect x="229.50" y="135.25" width="5.25" height="5.25" fill="#FF8C42"/><rect x="234.75" y="135.25" width="5.25" height="5.25" fill="#FF8C42"/><rect x="240.00" y="135.25" width="5.25" height="5.25" fill="#1A1A1A"/><rect x="245.25" y="135.25" width="5.25" height="5.25" fill="#FF8C42"/><rect x="250.50" y="135.25" width="5.25" height="5.25" fill="#FF8C42"/><rect x="255.75" y="135.25" width="5.25" height="5.25" fill="#E74C3C"/><rect x="261.00" y="135.25" width="5.25" height="5.25" fill="#E74C3C"/><rect x="266.25" y="135.25" width="5.25" height="5.25" fill="#E74C3C"/><rect x="271.50" y="135.25" width="5.25" height="5.25" fill="#E74C3C"/><rect x="276.75" y="135.25" width="5.25" height="5.25" fill="#E74C3C"/><rect x="282.00" y="135.25" width="5.25" height="5.25" fill="#E74C3C"/><rect x="287.25" y="135.25" width="5.25" height="5.25" fill="#E74C3C"/><rect x="292.50" y="135.25" width="5.25" height="5.25" fill="#E74C3C"/><rect x="297.75" y="135.25" width="5.25" height="5.25" fill="#E74C3C"/><rect x="303.00" y="135.25" width="5.25" height="5.25" fill="#FF8C42"/><rect x="308.25" y="135.25" width="5.25" height="5.25" fill="#E74C3C"/><rect x="171.75" y="140.50" width="5.25" height="5.25" fill="#FFB6C1"/><rect x="177.00" y="140.50" width="5.25" height="5.25" fill="#E74C3C"/><rect x="182.25" y="140.50" width="5.25" height="5.25" fill="#E74C3C"/><rect x="187.50" y="140.50" width="5.25" height="5.25" fill="#E74C3C"/><rect x="192.75" y="140.50" width="5.25" height="5.25" fill="#E74C3C"/><rect x="198.00" y="140.50" width="5.25" height="5.25" fill="#E74C3C"/><rect x="203.25" y="140.50" width="5.25" height="5.25" fill="#E74C3C"/><rect x="208.50" y="140.50" width="5.25" height="5.25" fill="#E74C3C"/><rect x="213.75" y="140.50" width="5.25" height="5.25" fill="#E74C3C"/><rect x="219.00" y="140.50" width="5.25" height="5.25" fill="#E74C3C"/><rect x="224.25" y="140.50" width="5.25" height="5.25" fill="#E74C3C"/><rect x="229.50" y="140.50" width="5.25" height="5.25" fill="#E74C3C"/><rect x="234.75" y="140.50" width="5.25" height="5.25" fill="#FF8C42"/><rect x="240.00" y="140.50" width="5.25" height="5.25" fill="#FF8C42"/><rect x="245.25" y="140.50" width="5.25" height="5.25" fill="#FF8C42"/><rect x="250.50" y="140.50" width="5.25" height="5.25" fill="#E74C3C"/><rect x="255.75" y="140.50" width="5.25" height="5.25" fill="#E74C3C"/><rect x="261.00" y="140.50" width="5.25" height="5.25" fill="#E74C3C"/><rect x="266.25" y="140.50" width="5.25" height="5.25" fill="#E74C3C"/><rect x="271.50" y="140.50" width="5.25" height="5.25" fill="#E74C3C"/><rect x="276.75" y="140.50" width="5.25" height="5.25" fill="#E74C3C"/><rect x="282.00" y="140.50" width="5.25" height="5.25" fill="#E74C3C"/><rect x="287.25" y="140.50" width="5.25" height="5.25" fill="#E74C3C"/><rect x="292.50" y="140.50" width="5.25" height="5.25" fill="#E74C3C"/><rect x="297.75" y="140.50" width="5.25" height="5.25" fill="#E74C3C"/><rect x="303.00" y="140.50" width="5.25" height="5.25" fill="#E74C3C"/><rect x="308.25" y="140.50" width="5.25" height="5.25" fill="#FFB6C1"/><rect x="177.00" y="145.75" width="5.25" height="5.25" fill="#FF8C42"/><rect x="182.25" y="145.75" width="5.25" height="5.25" fill="#E74C3C"/><rect x="187.50" y="145.75" width="5.25" height="5.25" fill="#E74C3C"/><rect x="192.75" y="145.75" width="5.25" height="5.25" fill="#E74C3C"/><rect x="198.00" y="145.75" width="5.25" height="5.25" fill="#E74C3C"/><rect x="203.25" y="145.75" width="5.25" height="5.25" fill="#E74C3C"/><rect x="208.50" y="145.75" width="5.25" height="5.25" fill="#E74C3C"/><rect x="213.75" y="145.75" width="5.25" height="5.25" fill="#E74C3C"/><rect x="219.00" y="145.75" width="5.25" height="5.25" fill="#E74C3C"/><rect x="224.25" y="145.75" width="5.25" height="5.25" fill="#E74C3C"/><rect x="229.50" y="145.75" width="5.25" height="5.25" fill="#E74C3C"/><rect x="240.00" y="145.75" width="5.25" height="5.25" fill="#FF8C42"/><rect x="250.50" y="145.75" width="5.25" height="5.25" fill="#E74C3C"/><rect x="255.75" y="145.75" width="5.25" height="5.25" fill="#E74C3C"/><rect x="261.00" y="145.75" width="5.25" height="5.25" fill="#E74C3C"/><rect x="266.25" y="145.75" width="5.25" height="5.25" fill="#E74C3C"/><rect x="271.50" y="145.75" width="5.25" height="5.25" fill="#E74C3C"/><rect x="276.75" y="145.75" width="5.25" height="5.25" fill="#E74C3C"/><rect x="282.00" y="145.75" width="5.25" height="5.25" fill="#E74C3C"/><rect x="287.25" y="145.75" width="5.25" height="5.25" fill="#E74C3C"/><rect x="292.50" y="145.75" width="5.25" height="5.25" fill="#E74C3C"/><rect x="297.75" y="145.75" width="5.25" height="5.25" fill="#E74C3C"/><rect x="303.00" y="145.75" width="5.25" height="5.25" fill="#FF8C42"/><rect x="171.75" y="151.00" width="5.25" height="5.25" fill="#FFB6C1"/><rect x="187.50" y="151.00" width="5.25" height="5.25" fill="#E74C3C"/><rect x="192.75" y="151.00" width="5.25" height="5.25" fill="#E74C3C"/><rect x="198.00" y="151.00" width="5.25" height="5.25" fill="#E74C3C"/><rect x="203.25" y="151.00" width="5.25" height="5.25" fill="#E74C3C"/><rect x="208.50" y="151.00" width="5.25" height="5.25" fill="#E74C3C"/><rect x="213.75" y="151.00" width="5.25" height="5.25" fill="#E74C3C"/><rect x="219.00" y="151.00" width="5.25" height="5.25" fill="#E74C3C"/><rect x="224.25" y="151.00" width="5.25" height="5.25" fill="#E74C3C"/><rect x="229.50" y="151.00" width="5.25" height="5.25" fill="#E74C3C"/><rect x="234.75" y="151.00" width="5.25" height="5.25" fill="#E74C3C"/><rect x="240.00" y="151.00" width="5.25" height="5.25" fill="#E74C3C"/><rect x="245.25" y="151.00" width="5.25" height="5.25" fill="#E74C3C"/><rect x="250.50" y="151.00" width="5.25" height="5.25" fill="#E74C3C"/><rect x="255.75" y="151.00" width="5.25" height="5.25" fill="#E74C3C"/><rect x="261.00" y="151.00" width="5.25" height="5.25" fill="#E74C3C"/><rect x="266.25" y="151.00" width="5.25" height="5.25" fill="#E74C3C"/><rect x="271.50" y="151.00" width="5.25" height="5.25" fill="#E74C3C"/><rect x="276.75" y="151.00" width="5.25" height="5.25" fill="#E74C3C"/><rect x="282.00" y="151.00" width="5.25" height="5.25" fill="#E74C3C"/><rect x="287.25" y="151.00" width="5.25" height="5.25" fill="#E74C3C"/><rect x="292.50" y="151.00" width="5.25" height="5.25" fill="#E74C3C"/><rect x="308.25" y="151.00" width="5.25" height="5.25" fill="#FFB6C1"/><rect x="177.00" y="156.25" width="5.25" height="5.25" fill="#FF8C42"/><rect x="192.75" y="156.25" width="5.25" height="5.25" fill="#E74C3C"/><rect x="198.00" y="156.25" width="5.25" height="5.25" fill="#E74C3C"/><rect x="203.25" y="156.25" width="5.25" height="5.25" fill="#E74C3C"/><rect x="208.50" y="156.25" width="5.25" height="5.25" fill="#E74C3C"/><rect x="213.75" y="156.25" width="5.25" height="5.25" fill="#E74C3C"/><rect x="219.00" y="156.25" width="5.25" height="5.25" fill="#E74C3C"/><rect x="224.25" y="156.25" width="5.25" height="5.25" fill="#E74C3C"/><rect x="229.50" y="156.25" width="5.25" height="5.25" fill="#E74C3C"/><rect x="234.75" y="156.25" width="5.25" height="5.25" fill="#E74C3C"/><rect x="240.00" y="156.25" width="5.25" height="5.25" fill="#E74C3C"/><rect x="245.25" y="156.25" width="5.25" height="5.25" fill="#E74C3C"/><rect x="250.50" y="156.25" width="5.25" height="5.25" fill="#E74C3C"/><rect x="255.75" y="156.25" width="5.25" height="5.25" fill="#E74C3C"/><rect x="261.00" y="156.25" width="5.25" height="5.25" fill="#E74C3C"/><rect x="266.25" y="156.25" width="5.25" height="5.25" fill="#E74C3C"/><rect x="271.50" y="156.25" width="5.25" height="5.25" fill="#E74C3C"/><rect x="276.75" y="156.25" width="5.25" height="5.25" fill="#E74C3C"/><rect x="282.00" y="156.25" width="5.25" height="5.25" fill="#E74C3C"/><rect x="287.25" y="156.25" width="5.25" height="5.25" fill="#E74C3C"/><rect x="303.00" y="156.25" width="5.25" height="5.25" fill="#FF8C42"/><rect x="171.75" y="161.50" width="5.25" height="5.25" fill="#FFB6C1"/><rect x="198.00" y="161.50" width="5.25" height="5.25" fill="#E74C3C"/><rect x="203.25" y="161.50" width="5.25" height="5.25" fill="#E74C3C"/><rect x="208.50" y="161.50" width="5.25" height="5.25" fill="#E74C3C"/><rect x="213.75" y="161.50" width="5.25" height="5.25" fill="#E74C3C"/><rect x="219.00" y="161.50" width="5.25" height="5.25" fill="#E74C3C"/><rect x="224.25" y="161.50" width="5.25" height="5.25" fill="#E74C3C"/><rect x="229.50" y="161.50" width="5.25" height="5.25" fill="#E74C3C"/><rect x="234.75" y="161.50" width="5.25" height="5.25" fill="#E74C3C"/><rect x="240.00" y="161.50" width="5.25" height="5.25" fill="#E74C3C"/><rect x="245.25" y="161.50" width="5.25" height="5.25" fill="#E74C3C"/><rect x="250.50" y="161.50" width="5.25" height="5.25" fill="#E74C3C"/><rect x="255.75" y="161.50" width="5.25" height="5.25" fill="#E74C3C"/><rect x="261.00" y="161.50" width="5.25" height="5.25" fill="#E74C3C"/><rect x="266.25" y="161.50" width="5.25" height="5.25" fill="#E74C3C"/><rect x="271.50" y="161.50" width="5.25" height="5.25" fill="#E74C3C"/><rect x="276.75" y="161.50" width="5.25" height="5.25" fill="#E74C3C"/><rect x="282.00" y="161.50" width="5.25" height="5.25" fill="#E74C3C"/><rect x="308.25" y="161.50" width="5.25" height="5.25" fill="#FFB6C1"/><rect x="177.00" y="166.75" width="5.25" height="5.25" fill="#FF8C42"/><rect x="192.75" y="166.75" width="5.25" height="5.25" fill="#E74C3C"/><rect x="198.00" y="166.75" width="5.25" height="5.25" fill="#E74C3C"/><rect x="203.25" y="166.75" width="5.25" height="5.25" fill="#E74C3C"/><rect x="208.50" y="166.75" width="5.25" height="5.25" fill="#E74C3C"/><rect x="213.75" y="166.75" width="5.25" height="5.25" fill="#E74C3C"/><rect x="219.00" y="166.75" width="5.25" height="5.25" fill="#E74C3C"/><rect x="224.25" y="166.75" width="5.25" height="5.25" fill="#E74C3C"/><rect x="229.50" y="166.75" width="5.25" height="5.25" fill="#E74C3C"/><rect x="234.75" y="166.75" width="5.25" height="5.25" fill="#E74C3C"/><rect x="240.00" y="166.75" width="5.25" height="5.25" fill="#E74C3C"/><rect x="245.25" y="166.75" width="5.25" height="5.25" fill="#E74C3C"/><rect x="250.50" y="166.75" width="5.25" height="5.25" fill="#E74C3C"/><rect x="255.75" y="166.75" width="5.25" height="5.25" fill="#E74C3C"/><rect x="261.00" y="166.75" width="5.25" height="5.25" fill="#E74C3C"/><rect x="266.25" y="166.75" width="5.25" height="5.25" fill="#E74C3C"/><rect x="271.50" y="166.75" width="5.25" height="5.25" fill="#E74C3C"/><rect x="276.75" y="166.75" width="5.25" height="5.25" fill="#E74C3C"/><rect x="282.00" y="166.75" width="5.25" height="5.25" fill="#E74C3C"/><rect x="287.25" y="166.75" width="5.25" height="5.25" fill="#E74C3C"/><rect x="303.00" y="166.75" width="5.25" height="5.25" fill="#FF8C42"/><rect x="171.75" y="172.00" width="5.25" height="5.25" fill="#FFB6C1"/><rect x="187.50" y="172.00" width="5.25" height="5.25" fill="#E74C3C"/><rect x="192.75" y="172.00" width="5.25" height="5.25" fill="#E74C3C"/><rect x="198.00" y="172.00" width="5.25" height="5.25" fill="#E74C3C"/><rect x="203.25" y="172.00" width="5.25" height="5.25" fill="#E74C3C"/><rect x="208.50" y="172.00" width="5.25" height="5.25" fill="#E74C3C"/><rect x="213.75" y="172.00" width="5.25" height="5.25" fill="#E74C3C"/><rect x="219.00" y="172.00" width="5.25" height="5.25" fill="#E74C3C"/><rect x="224.25" y="172.00" width="5.25" height="5.25" fill="#E74C3C"/><rect x="229.50" y="172.00" width="5.25" height="5.25" fill="#E74C3C"/><rect x="234.75" y="172.00" width="5.25" height="5.25" fill="#E74C3C"/><rect x="240.00" y="172.00" width="5.25" height="5.25" fill="#E74C3C"/><rect x="245.25" y="172.00" width="5.25" height="5.25" fill="#E74C3C"/><rect x="250.50" y="172.00" width="5.25" height="5.25" fill="#E74C3C"/><rect x="255.75" y="172.00" width="5.25" height="5.25" fill="#E74C3C"/><rect x="261.00" y="172.00" width="5.25" height="5.25" fill="#E74C3C"/><rect x="266.25" y="172.00" width="5.25" height="5.25" fill="#E74C3C"/><rect x="271.50" y="172.00" width="5.25" height="5.25" fill="#E74C3C"/><rect x="276.75" y="172.00" width="5.25" height="5.25" fill="#E74C3C"/><rect x="282.00" y="172.00" width="5.25" height="5.25" fill="#E74C3C"/><rect x="287.25" y="172.00" width="5.25" height="5.25" fill="#E74C3C"/><rect x="292.50" y="172.00" width="5.25" height="5.25" fill="#E74C3C"/><rect x="308.25" y="172.00" width="5.25" height="5.25" fill="#FFB6C1"/><rect x="177.00" y="177.25" width="5.25" height="5.25" fill="#FF8C42"/><rect x="182.25" y="177.25" width="5.25" height="5.25" fill="#E74C3C"/><rect x="187.50" y="177.25" width="5.25" height="5.25" fill="#E74C3C"/><rect x="192.75" y="177.25" width="5.25" height="5.25" fill="#E74C3C"/><rect x="198.00" y="177.25" width="5.25" height="5.25" fill="#E74C3C"/><rect x="203.25" y="177.25" width="5.25" height="5.25" fill="#E74C3C"/><rect x="208.50" y="177.25" width="5.25" height="5.25" fill="#E74C3C"/><rect x="213.75" y="177.25" width="5.25" height="5.25" fill="#E74C3C"/><rect x="219.00" y="177.25" width="5.25" height="5.25" fill="#E74C3C"/><rect x="224.25" y="177.25" width="5.25" height="5.25" fill="#E74C3C"/><rect x="229.50" y="177.25" width="5.25" height="5.25" fill="#E74C3C"/><rect x="240.00" y="177.25" width="5.25" height="5.25" fill="#E74C3C"/><rect x="250.50" y="177.25" width="5.25" height="5.25" fill="#E74C3C"/><rect x="255.75" y="177.25" width="5.25" height="5.25" fill="#E74C3C"/><rect x="261.00" y="177.25" width="5.25" height="5.25" fill="#E74C3C"/><rect x="266.25" y="177.25" width="5.25" height="5.25" fill="#E74C3C"/><rect x="271.50" y="177.25" width="5.25" height="5.25" fill="#E74C3C"/><rect x="276.75" y="177.25" width="5.25" height="5.25" fill="#E74C3C"/><rect x="282.00" y="177.25" width="5.25" height="5.25" fill="#E74C3C"/><rect x="287.25" y="177.25" width="5.25" height="5.25" fill="#E74C3C"/><rect x="292.50" y="177.25" width="5.25" height="5.25" fill="#E74C3C"/><rect x="297.75" y="177.25" width="5.25" height="5.25" fill="#E74C3C"/><rect x="303.00" y="177.25" width="5.25" height="5.25" fill="#FF8C42"/><rect x="171.75" y="182.50" width="5.25" height="5.25" fill="#FFB6C1"/><rect x="177.00" y="182.50" width="5.25" height="5.25" fill="#E74C3C"/><rect x="182.25" y="182.50" width="5.25" height="5.25" fill="#E74C3C"/><rect x="187.50" y="182.50" width="5.25" height="5.25" fill="#E74C3C"/><rect x="192.75" y="182.50" width="5.25" height="5.25" fill="#E74C3C"/><rect x="198.00" y="182.50" width="5.25" height="5.25" fill="#E74C3C"/><rect x="203.25" y="182.50" width="5.25" height="5.25" fill="#E74C3C"/><rect x="208.50" y="182.50" width="5.25" height="5.25" fill="#E74C3C"/><rect x="213.75" y="182.50" width="5.25" height="5.25" fill="#E74C3C"/><rect x="219.00" y="182.50" width="5.25" height="5.25" fill="#E74C3C"/><rect x="224.25" y="182.50" width="5.25" height="5.25" fill="#FF8C42"/><rect x="229.50" y="182.50" width="5.25" height="5.25" fill="#E74C3C"/><rect x="234.75" y="182.50" width="5.25" height="5.25" fill="#E74C3C"/><rect x="245.25" y="182.50" width="5.25" height="5.25" fill="#FF8C42"/><rect x="250.50" y="182.50" width="5.25" height="5.25" fill="#E74C3C"/><rect x="255.75" y="182.50" width="5.25" height="5.25" fill="#E74C3C"/><rect x="261.00" y="182.50" width="5.25" height="5.25" fill="#E74C3C"/><rect x="266.25" y="182.50" width="5.25" height="5.25" fill="#FF8C42"/><rect x="271.50" y="182.50" width="5.25" height="5.25" fill="#E74C3C"/><rect x="276.75" y="182.50" width="5.25" height="5.25" fill="#E74C3C"/><rect x="282.00" y="182.50" width="5.25" height="5.25" fill="#E74C3C"/><rect x="287.25" y="182.50" width="5.25" height="5.25" fill="#E74C3C"/><rect x="292.50" y="182.50" width="5.25" height="5.25" fill="#E74C3C"/><rect x="297.75" y="182.50" width="5.25" height="5.25" fill="#E74C3C"/><rect x="303.00" y="182.50" width="5.25" height="5.25" fill="#E74C3C"/><rect x="308.25" y="182.50" width="5.25" height="5.25" fill="#FFB6C1"/><rect x="213.75" y="187.75" width="5.25" height="5.25" fill="#E74C3C"/><rect x="224.25" y="187.75" width="5.25" height="5.25" fill="#FF8C42"/><rect x="234.75" y="187.75" width="5.25" height="5.25" fill="#E74C3C"/><rect x="245.25" y="187.75" width="5.25" height="5.25" fill="#FF8C42"/><rect x="255.75" y="187.75" width="5.25" height="5.25" fill="#E74C3C"/><rect x="266.25" y="187.75" width="5.25" height="5.25" fill="#FF8C42"/><rect x="213.75" y="193.00" width="5.25" height="5.25" fill="#E74C3C"/><rect x="224.25" y="193.00" width="5.25" height="5.25" fill="#FF8C42"/><rect x="234.75" y="193.00" width="5.25" height="5.25" fill="#E74C3C"/><rect x="245.25" y="193.00" width="5.25" height="5.25" fill="#FF8C42"/><rect x="255.75" y="193.00" width="5.25" height="5.25" fill="#E74C3C"/><rect x="266.25" y="193.00" width="5.25" height="5.25" fill="#FF8C42"/><rect x="213.75" y="198.25" width="5.25" height="5.25" fill="#E74C3C"/><rect x="224.25" y="198.25" width="5.25" height="5.25" fill="#FF8C42"/><rect x="234.75" y="198.25" width="5.25" height="5.25" fill="#E74C3C"/><rect x="245.25" y="198.25" width="5.25" height="5.25" fill="#FF8C42"/><rect x="255.75" y="198.25" width="5.25" height="5.25" fill="#E74C3C"/><rect x="266.25" y="198.25" width="5.25" height="5.25" fill="#FF8C42"/><rect x="213.75" y="203.50" width="5.25" height="5.25" fill="#E74C3C"/><rect x="224.25" y="203.50" width="5.25" height="5.25" fill="#FF8C42"/><rect x="234.75" y="203.50" width="5.25" height="5.25" fill="#E74C3C"/><rect x="245.25" y="203.50" width="5.25" height="5.25" fill="#FF8C42"/><rect x="255.75" y="203.50" width="5.25" height="5.25" fill="#E74C3C"/><rect x="266.25" y="203.50" width="5.25" height="5.25" fill="#FF8C42"/><rect x="213.75" y="208.75" width="5.25" height="5.25" fill="#E74C3C"/><rect x="224.25" y="208.75" width="5.25" height="5.25" fill="#FF8C42"/><rect x="234.75" y="208.75" width="5.25" height="5.25" fill="#E74C3C"/><rect x="245.25" y="208.75" width="5.25" height="5.25" fill="#FF8C42"/><rect x="255.75" y="208.75" width="5.25" height="5.25" fill="#E74C3C"/><rect x="266.25" y="208.75" width="5.25" height="5.25" fill="#FF8C42"/><rect x="213.75" y="214.00" width="5.25" height="5.25" fill="#E74C3C"/><rect x="224.25" y="214.00" width="5.25" height="5.25" fill="#FF8C42"/><rect x="234.75" y="214.00" width="5.25" height="5.25" fill="#E74C3C"/><rect x="245.25" y="214.00" width="5.25" height="5.25" fill="#FF8C42"/><rect x="255.75" y="214.00" width="5.25" height="5.25" fill="#E74C3C"/><rect x="266.25" y="214.00" width="5.25" height="5.25" fill="#FF8C42"/><rect x="213.75" y="219.25" width="5.25" height="5.25" fill="#E74C3C"/><rect x="224.25" y="219.25" width="5.25" height="5.25" fill="#FF8C42"/><rect x="234.75" y="219.25" width="5.25" height="5.25" fill="#E74C3C"/><rect x="245.25" y="219.25" width="5.25" height="5.25" fill="#FF8C42"/><rect x="255.75" y="219.25" width="5.25" height="5.25" fill="#E74C3C"/><rect x="266.25" y="219.25" width="5.25" height="5.25" fill="#FF8C42"/><rect x="213.75" y="224.50" width="5.25" height="5.25" fill="#FFB6C1"/><rect x="224.25" y="224.50" width="5.25" height="5.25" fill="#FF8C42"/><rect x="234.75" y="224.50" width="5.25" height="5.25" fill="#E74C3C"/><rect x="245.25" y="224.50" width="5.25" height="5.25" fill="#FFB6C1"/><rect x="255.75" y="224.50" width="5.25" height="5.25" fill="#E74C3C"/><rect x="266.25" y="224.50" width="5.25" height="5.25" fill="#FF8C42"/><rect x="224.25" y="229.75" width="5.25" height="5.25" fill="#FFB6C1"/><rect x="234.75" y="229.75" width="5.25" height="5.25" fill="#E74C3C"/><rect x="255.75" y="229.75" width="5.25" height="5.25" fill="#FFB6C1"/><rect x="266.25" y="229.75" width="5.25" height="5.25" fill="#FF8C42"/><rect x="234.75" y="235.00" width="5.25" height="5.25" fill="#FFB6C1"/><rect x="266.25" y="235.00" width="5.25" height="5.25" fill="#FFB6C1"/>
  <!-- 难度标签 -->
  <rect x="390" y="20" width="70" height="22" rx="11" fill="#ff3b30"/>
  <text x="425" y="35" font-family="-apple-system, sans-serif" font-size="11" font-weight="600" fill="#ffffff" text-anchor="middle">HARD</text>
  <!-- 分类标签 -->
  <rect x="20" y="20" width="64" height="22" rx="11" fill="#5D4037" opacity="0.9"/>
  <text x="52" y="35" font-family="-apple-system, sans-serif" font-size="10" font-weight="600" fill="#ffffff" text-anchor="middle">ANIMAL</text>
  <!-- 模板名 -->
  <text x="240" y="286" font-family="-apple-system, 'PingFang SC', sans-serif" font-size="16" font-weight="600" fill="#1d1d1f" text-anchor="middle">凤凰涅槃</text>
  <text x="240" y="304" font-family="-apple-system, sans-serif" font-size="11" font-weight="400" fill="#86868b" text-anchor="middle">291 beads · 32×32</text>
</svg>
