<svg xmlns="http://www.w3.org/2000/svg" viewBox="0 0 480 360" width="480" height="360">
  <defs>
    <linearGradient id="bganimenaruto013" x1="0%" y1="0%" x2="100%" y2="100%">
      <stop offset="0%" stop-color="#EC4899" stop-opacity="0.25"/>
      <stop offset="100%" stop-color="#3B82F6" stop-opacity="0.25"/>
    </linearGradient>
    <linearGradient id="cardanimenaruto013" x1="0%" y1="0%" x2="0%" y2="100%">
      <stop offset="0%" stop-color="#ffffff" stop-opacity="0.98"/>
      <stop offset="100%" stop-color="#f5f5f7" stop-opacity="0.95"/>
    </linearGradient>
    <linearGradient id="boardanimenaruto013" x1="0%" y1="0%" x2="0%" y2="100%">
      <stop offset="0%" stop-color="#1d1d1f" stop-opacity="0.04"/>
      <stop offset="100%" stop-color="#1d1d1f" stop-opacity="0.08"/>
    </linearGradient>
    <filter id="shadowanimenaruto013" x="-10%" y="-10%" width="120%" height="120%">
      <feGaussianBlur in="SourceAlpha" stdDeviation="4"/>
      <feOffset dx="0" dy="2"/>
      <feComponentTransfer><feFuncA type="linear" slope="0.15"/></feComponentTransfer>
      <feMerge><feMergeNode/><feMergeNode in="SourceGraphic"/></feMerge>
    </filter>
  </defs>
  <rect width="480" height="360" fill="#fafafa"/>
  <rect width="480" height="360" fill="url(#bganimenaruto013)"/>
  <path d="M 0 340 Q 240 320 480 340" stroke="#A855F7" stroke-width="1" fill="none" opacity="0.15"/>
  <path d="M 0 20 Q 240 0 480 20" stroke="#EC4899" stroke-width="1" fill="none" opacity="0.2"/>
  <circle cx="30" cy="25" r="2" fill="#EC4899" opacity="0.15"/>
  <circle cx="86" cy="72" r="3" fill="#3B82F6" opacity="0.22999999999999998"/>
  <circle cx="142" cy="119" r="4" fill="#A855F7" opacity="0.31"/>
  <circle cx="198" cy="166" r="5" fill="#EC4899" opacity="0.15"/>
  <circle cx="254" cy="213" r="2" fill="#3B82F6" opacity="0.22999999999999998"/>
  <circle cx="310" cy="260" r="3" fill="#A855F7" opacity="0.31"/>
  <circle cx="366" cy="307" r="4" fill="#EC4899" opacity="0.15"/>
  <circle cx="422" cy="34" r="5" fill="#3B82F6" opacity="0.22999999999999998"/>
  <rect x="138" y="70" width="204" height="232" rx="18" fill="url(#cardanimenaruto013)" stroke="rgba(0,0,0,0.06)" stroke-width="1" filter="url(#shadowanimenaruto013)"/>
  <!-- 像素预览底板（深色，让浅色像素可见） -->
  <rect x="152" y="84" width="176" height="176" rx="6" fill="#f5f5f7" stroke="rgba(0,0,0,0.08)" stroke-width="1"/>
  <!-- 像素网格 -->
  <rect x="221.74" y="88.00" width="7.30" height="7.30" fill="#FB923C"/><rect x="229.04" y="88.00" width="7.30" height="7.30" fill="#FB923C"/><rect x="243.65" y="88.00" width="7.30" height="7.30" fill="#FB923C"/><rect x="250.96" y="88.00" width="7.30" height="7.30" fill="#FB923C"/><rect x="192.52" y="95.30" width="7.30" height="7.30" fill="#FB923C"/><rect x="207.13" y="95.30" width="7.30" height="7.30" fill="#FB923C"/><rect x="221.74" y="95.30" width="7.30" height="7.30" fill="#FB923C"/><rect x="229.04" y="95.30" width="7.30" height="7.30" fill="#FB923C"/><rect x="243.65" y="95.30" width="7.30" height="7.30" fill="#FB923C"/><rect x="250.96" y="95.30" width="7.30" height="7.30" fill="#FB923C"/><rect x="265.57" y="95.30" width="7.30" height="7.30" fill="#FB923C"/><rect x="280.17" y="95.30" width="7.30" height="7.30" fill="#FB923C"/><rect x="185.22" y="102.61" width="7.30" height="7.30" fill="#FB923C"/><rect x="199.83" y="102.61" width="7.30" height="7.30" fill="#FB923C"/><rect x="207.13" y="102.61" width="7.30" height="7.30" fill="#FB923C"/><rect x="221.74" y="102.61" width="7.30" height="7.30" fill="#FB923C"/><rect x="229.04" y="102.61" width="7.30" height="7.30" fill="#FB923C"/><rect x="236.35" y="102.61" width="7.30" height="7.30" fill="#92400E"/><rect x="243.65" y="102.61" width="7.30" height="7.30" fill="#FB923C"/><rect x="250.96" y="102.61" width="7.30" height="7.30" fill="#FB923C"/><rect x="265.57" y="102.61" width="7.30" height="7.30" fill="#FB923C"/><rect x="272.87" y="102.61" width="7.30" height="7.30" fill="#FB923C"/><rect x="287.48" y="102.61" width="7.30" height="7.30" fill="#FB923C"/><rect x="177.91" y="109.91" width="7.30" height="7.30" fill="#FB923C"/><rect x="192.52" y="109.91" width="7.30" height="7.30" fill="#FB923C"/><rect x="199.83" y="109.91" width="7.30" height="7.30" fill="#FB923C"/><rect x="207.13" y="109.91" width="7.30" height="7.30" fill="#92400E"/><rect x="214.43" y="109.91" width="7.30" height="7.30" fill="#FB923C"/><rect x="221.74" y="109.91" width="7.30" height="7.30" fill="#FB923C"/><rect x="229.04" y="109.91" width="7.30" height="7.30" fill="#FB923C"/><rect x="236.35" y="109.91" width="7.30" height="7.30" fill="#92400E"/><rect x="243.65" y="109.91" width="7.30" height="7.30" fill="#FB923C"/><rect x="250.96" y="109.91" width="7.30" height="7.30" fill="#FB923C"/><rect x="258.26" y="109.91" width="7.30" height="7.30" fill="#FB923C"/><rect x="265.57" y="109.91" width="7.30" height="7.30" fill="#92400E"/><rect x="272.87" y="109.91" width="7.30" height="7.30" fill="#FB923C"/><rect x="280.17" y="109.91" width="7.30" height="7.30" fill="#FB923C"/><rect x="294.78" y="109.91" width="7.30" height="7.30" fill="#FB923C"/><rect x="185.22" y="117.22" width="7.30" height="7.30" fill="#FB923C"/><rect x="192.52" y="117.22" width="7.30" height="7.30" fill="#FB923C"/><rect x="199.83" y="117.22" width="7.30" height="7.30" fill="#92400E"/><rect x="207.13" y="117.22" width="7.30" height="7.30" fill="#FB923C"/><rect x="214.43" y="117.22" width="7.30" height="7.30" fill="#FB923C"/><rect x="221.74" y="117.22" width="7.30" height="7.30" fill="#FB923C"/><rect x="229.04" y="117.22" width="7.30" height="7.30" fill="#FB923C"/><rect x="236.35" y="117.22" width="7.30" height="7.30" fill="#92400E"/><rect x="243.65" y="117.22" width="7.30" height="7.30" fill="#FB923C"/><rect x="250.96" y="117.22" width="7.30" height="7.30" fill="#FB923C"/><rect x="258.26" y="117.22" width="7.30" height="7.30" fill="#FB923C"/><rect x="265.57" y="117.22" width="7.30" height="7.30" fill="#FB923C"/><rect x="272.87" y="117.22" width="7.30" height="7.30" fill="#92400E"/><rect x="280.17" y="117.22" width="7.30" height="7.30" fill="#FB923C"/><rect x="287.48" y="117.22" width="7.30" height="7.30" fill="#FB923C"/><rect x="170.61" y="124.52" width="7.30" height="7.30" fill="#FB923C"/><rect x="185.22" y="124.52" width="7.30" height="7.30" fill="#FB923C"/><rect x="192.52" y="124.52" width="7.30" height="7.30" fill="#92400E"/><rect x="199.83" y="124.52" width="7.30" height="7.30" fill="#FB923C"/><rect x="207.13" y="124.52" width="7.30" height="7.30" fill="#FB923C"/><rect x="214.43" y="124.52" width="7.30" height="7.30" fill="#92400E"/><rect x="221.74" y="124.52" width="7.30" height="7.30" fill="#92400E"/><rect x="229.04" y="124.52" width="7.30" height="7.30" fill="#92400E"/><rect x="236.35" y="124.52" width="7.30" height="7.30" fill="#92400E"/><rect x="243.65" y="124.52" width="7.30" height="7.30" fill="#92400E"/><rect x="250.96" y="124.52" width="7.30" height="7.30" fill="#92400E"/><rect x="258.26" y="124.52" width="7.30" height="7.30" fill="#92400E"/><rect x="265.57" y="124.52" width="7.30" height="7.30" fill="#FB923C"/><rect x="272.87" y="124.52" width="7.30" height="7.30" fill="#FB923C"/><rect x="280.17" y="124.52" width="7.30" height="7.30" fill="#92400E"/><rect x="287.48" y="124.52" width="7.30" height="7.30" fill="#FB923C"/><rect x="302.09" y="124.52" width="7.30" height="7.30" fill="#FB923C"/><rect x="163.30" y="131.83" width="7.30" height="7.30" fill="#FB923C"/><rect x="177.91" y="131.83" width="7.30" height="7.30" fill="#FB923C"/><rect x="185.22" y="131.83" width="7.30" height="7.30" fill="#FB923C"/><rect x="192.52" y="131.83" width="7.30" height="7.30" fill="#FB923C"/><rect x="199.83" y="131.83" width="7.30" height="7.30" fill="#FB923C"/><rect x="207.13" y="131.83" width="7.30" height="7.30" fill="#92400E"/><rect x="214.43" y="131.83" width="7.30" height="7.30" fill="#92400E"/><rect x="221.74" y="131.83" width="7.30" height="7.30" fill="#92400E"/><rect x="229.04" y="131.83" width="7.30" height="7.30" fill="#92400E"/><rect x="236.35" y="131.83" width="7.30" height="7.30" fill="#92400E"/><rect x="243.65" y="131.83" width="7.30" height="7.30" fill="#92400E"/><rect x="250.96" y="131.83" width="7.30" height="7.30" fill="#92400E"/><rect x="258.26" y="131.83" width="7.30" height="7.30" fill="#92400E"/><rect x="265.57" y="131.83" width="7.30" height="7.30" fill="#92400E"/><rect x="272.87" y="131.83" width="7.30" height="7.30" fill="#FB923C"/><rect x="280.17" y="131.83" width="7.30" height="7.30" fill="#FB923C"/><rect x="287.48" y="131.83" width="7.30" height="7.30" fill="#FB923C"/><rect x="294.78" y="131.83" width="7.30" height="7.30" fill="#FB923C"/><rect x="309.39" y="131.83" width="7.30" height="7.30" fill="#FB923C"/><rect x="163.30" y="139.13" width="7.30" height="7.30" fill="#EF4444"/><rect x="170.61" y="139.13" width="7.30" height="7.30" fill="#EF4444"/><rect x="177.91" y="139.13" width="7.30" height="7.30" fill="#EF4444"/><rect x="185.22" y="139.13" width="7.30" height="7.30" fill="#EF4444"/><rect x="192.52" y="139.13" width="7.30" height="7.30" fill="#EF4444"/><rect x="199.83" y="139.13" width="7.30" height="7.30" fill="#EF4444"/><rect x="207.13" y="139.13" width="7.30" height="7.30" fill="#EF4444"/><rect x="214.43" y="139.13" width="7.30" height="7.30" fill="#EF4444"/><rect x="221.74" y="139.13" width="7.30" height="7.30" fill="#EF4444"/><rect x="229.04" y="139.13" width="7.30" height="7.30" fill="#EF4444"/><rect x="236.35" y="139.13" width="7.30" height="7.30" fill="#EF4444"/><rect x="243.65" y="139.13" width="7.30" height="7.30" fill="#EF4444"/><rect x="250.96" y="139.13" width="7.30" height="7.30" fill="#EF4444"/><rect x="258.26" y="139.13" width="7.30" height="7.30" fill="#EF4444"/><rect x="265.57" y="139.13" width="7.30" height="7.30" fill="#EF4444"/><rect x="272.87" y="139.13" width="7.30" height="7.30" fill="#EF4444"/><rect x="280.17" y="139.13" width="7.30" height="7.30" fill="#EF4444"/><rect x="287.48" y="139.13" width="7.30" height="7.30" fill="#EF4444"/><rect x="294.78" y="139.13" width="7.30" height="7.30" fill="#EF4444"/><rect x="302.09" y="139.13" width="7.30" height="7.30" fill="#EF4444"/><rect x="309.39" y="139.13" width="7.30" height="7.30" fill="#EF4444"/><rect x="163.30" y="146.43" width="7.30" height="7.30" fill="#EF4444"/><rect x="170.61" y="146.43" width="7.30" height="7.30" fill="#EF4444"/><rect x="177.91" y="146.43" width="7.30" height="7.30" fill="#EF4444"/><rect x="185.22" y="146.43" width="7.30" height="7.30" fill="#EF4444"/><rect x="192.52" y="146.43" width="7.30" height="7.30" fill="#EF4444"/><rect x="199.83" y="146.43" width="7.30" height="7.30" fill="#EF4444"/><rect x="207.13" y="146.43" width="7.30" height="7.30" fill="#EF4444"/><rect x="214.43" y="146.43" width="7.30" height="7.30" fill="#EF4444"/><rect x="221.74" y="146.43" width="7.30" height="7.30" fill="#EF4444"/><rect x="229.04" y="146.43" width="7.30" height="7.30" fill="#FFFFFF"/><rect x="236.35" y="146.43" width="7.30" height="7.30" fill="#FFFFFF"/><rect x="243.65" y="146.43" width="7.30" height="7.30" fill="#FFFFFF"/><rect x="250.96" y="146.43" width="7.30" height="7.30" fill="#EF4444"/><rect x="258.26" y="146.43" width="7.30" height="7.30" fill="#EF4444"/><rect x="265.57" y="146.43" width="7.30" height="7.30" fill="#EF4444"/><rect x="272.87" y="146.43" width="7.30" height="7.30" fill="#EF4444"/><rect x="280.17" y="146.43" width="7.30" height="7.30" fill="#EF4444"/><rect x="287.48" y="146.43" width="7.30" height="7.30" fill="#EF4444"/><rect x="294.78" y="146.43" width="7.30" height="7.30" fill="#EF4444"/><rect x="302.09" y="146.43" width="7.30" height="7.30" fill="#EF4444"/><rect x="309.39" y="146.43" width="7.30" height="7.30" fill="#EF4444"/><rect x="163.30" y="153.74" width="7.30" height="7.30" fill="#EF4444"/><rect x="170.61" y="153.74" width="7.30" height="7.30" fill="#EF4444"/><rect x="177.91" y="153.74" width="7.30" height="7.30" fill="#EF4444"/><rect x="185.22" y="153.74" width="7.30" height="7.30" fill="#EF4444"/><rect x="192.52" y="153.74" width="7.30" height="7.30" fill="#EF4444"/><rect x="199.83" y="153.74" width="7.30" height="7.30" fill="#EF4444"/><rect x="207.13" y="153.74" width="7.30" height="7.30" fill="#EF4444"/><rect x="214.43" y="153.74" width="7.30" height="7.30" fill="#EF4444"/><rect x="221.74" y="153.74" width="7.30" height="7.30" fill="#EF4444"/><rect x="229.04" y="153.74" width="7.30" height="7.30" fill="#EF4444"/><rect x="236.35" y="153.74" width="7.30" height="7.30" fill="#EF4444"/><rect x="243.65" y="153.74" width="7.30" height="7.30" fill="#EF4444"/><rect x="250.96" y="153.74" width="7.30" height="7.30" fill="#EF4444"/><rect x="258.26" y="153.74" width="7.30" height="7.30" fill="#EF4444"/><rect x="265.57" y="153.74" width="7.30" height="7.30" fill="#EF4444"/><rect x="272.87" y="153.74" width="7.30" height="7.30" fill="#EF4444"/><rect x="280.17" y="153.74" width="7.30" height="7.30" fill="#EF4444"/><rect x="287.48" y="153.74" width="7.30" height="7.30" fill="#EF4444"/><rect x="294.78" y="153.74" width="7.30" height="7.30" fill="#EF4444"/><rect x="302.09" y="153.74" width="7.30" height="7.30" fill="#EF4444"/><rect x="309.39" y="153.74" width="7.30" height="7.30" fill="#EF4444"/><rect x="170.61" y="161.04" width="7.30" height="7.30" fill="#92400E"/><rect x="177.91" y="161.04" width="7.30" height="7.30" fill="#92400E"/><rect x="185.22" y="161.04" width="7.30" height="7.30" fill="#92400E"/><rect x="192.52" y="161.04" width="7.30" height="7.30" fill="#92400E"/><rect x="199.83" y="161.04" width="7.30" height="7.30" fill="#92400E"/><rect x="207.13" y="161.04" width="7.30" height="7.30" fill="#92400E"/><rect x="214.43" y="161.04" width="7.30" height="7.30" fill="#92400E"/><rect x="221.74" y="161.04" width="7.30" height="7.30" fill="#92400E"/><rect x="229.04" y="161.04" width="7.30" height="7.30" fill="#92400E"/><rect x="236.35" y="161.04" width="7.30" height="7.30" fill="#92400E"/><rect x="243.65" y="161.04" width="7.30" height="7.30" fill="#92400E"/><rect x="250.96" y="161.04" width="7.30" height="7.30" fill="#92400E"/><rect x="258.26" y="161.04" width="7.30" height="7.30" fill="#92400E"/><rect x="265.57" y="161.04" width="7.30" height="7.30" fill="#92400E"/><rect x="272.87" y="161.04" width="7.30" height="7.30" fill="#92400E"/><rect x="280.17" y="161.04" width="7.30" height="7.30" fill="#92400E"/><rect x="287.48" y="161.04" width="7.30" height="7.30" fill="#92400E"/><rect x="294.78" y="161.04" width="7.30" height="7.30" fill="#92400E"/><rect x="302.09" y="161.04" width="7.30" height="7.30" fill="#92400E"/><rect x="170.61" y="168.35" width="7.30" height="7.30" fill="#92400E"/><rect x="177.91" y="168.35" width="7.30" height="7.30" fill="#92400E"/><rect x="185.22" y="168.35" width="7.30" height="7.30" fill="#92400E"/><rect x="192.52" y="168.35" width="7.30" height="7.30" fill="#92400E"/><rect x="199.83" y="168.35" width="7.30" height="7.30" fill="#EF4444"/><rect x="207.13" y="168.35" width="7.30" height="7.30" fill="#EF4444"/><rect x="214.43" y="168.35" width="7.30" height="7.30" fill="#EF4444"/><rect x="221.74" y="168.35" width="7.30" height="7.30" fill="#92400E"/><rect x="229.04" y="168.35" width="7.30" height="7.30" fill="#92400E"/><rect x="236.35" y="168.35" width="7.30" height="7.30" fill="#92400E"/><rect x="243.65" y="168.35" width="7.30" height="7.30" fill="#92400E"/><rect x="250.96" y="168.35" width="7.30" height="7.30" fill="#92400E"/><rect x="258.26" y="168.35" width="7.30" height="7.30" fill="#EF4444"/><rect x="265.57" y="168.35" width="7.30" height="7.30" fill="#EF4444"/><rect x="272.87" y="168.35" width="7.30" height="7.30" fill="#EF4444"/><rect x="280.17" y="168.35" width="7.30" height="7.30" fill="#92400E"/><rect x="287.48" y="168.35" width="7.30" height="7.30" fill="#92400E"/><rect x="294.78" y="168.35" width="7.30" height="7.30" fill="#92400E"/><rect x="302.09" y="168.35" width="7.30" height="7.30" fill="#92400E"/><rect x="163.30" y="175.65" width="7.30" height="7.30" fill="#92400E"/><rect x="170.61" y="175.65" width="7.30" height="7.30" fill="#92400E"/><rect x="177.91" y="175.65" width="7.30" height="7.30" fill="#92400E"/><rect x="185.22" y="175.65" width="7.30" height="7.30" fill="#92400E"/><rect x="192.52" y="175.65" width="7.30" height="7.30" fill="#92400E"/><rect x="199.83" y="175.65" width="7.30" height="7.30" fill="#EF4444"/><rect x="207.13" y="175.65" width="7.30" height="7.30" fill="#1A1A1A"/><rect x="214.43" y="175.65" width="7.30" height="7.30" fill="#EF4444"/><rect x="221.74" y="175.65" width="7.30" height="7.30" fill="#92400E"/><rect x="229.04" y="175.65" width="7.30" height="7.30" fill="#92400E"/><rect x="236.35" y="175.65" width="7.30" height="7.30" fill="#92400E"/><rect x="243.65" y="175.65" width="7.30" height="7.30" fill="#92400E"/><rect x="250.96" y="175.65" width="7.30" height="7.30" fill="#92400E"/><rect x="258.26" y="175.65" width="7.30" height="7.30" fill="#EF4444"/><rect x="265.57" y="175.65" width="7.30" height="7.30" fill="#1A1A1A"/><rect x="272.87" y="175.65" width="7.30" height="7.30" fill="#EF4444"/><rect x="280.17" y="175.65" width="7.30" height="7.30" fill="#92400E"/><rect x="287.48" y="175.65" width="7.30" height="7.30" fill="#92400E"/><rect x="294.78" y="175.65" width="7.30" height="7.30" fill="#92400E"/><rect x="302.09" y="175.65" width="7.30" height="7.30" fill="#92400E"/><rect x="309.39" y="175.65" width="7.30" height="7.30" fill="#92400E"/><rect x="170.61" y="182.96" width="7.30" height="7.30" fill="#92400E"/><rect x="177.91" y="182.96" width="7.30" height="7.30" fill="#92400E"/><rect x="185.22" y="182.96" width="7.30" height="7.30" fill="#92400E"/><rect x="192.52" y="182.96" width="7.30" height="7.30" fill="#92400E"/><rect x="199.83" y="182.96" width="7.30" height="7.30" fill="#EF4444"/><rect x="207.13" y="182.96" width="7.30" height="7.30" fill="#EF4444"/><rect x="214.43" y="182.96" width="7.30" height="7.30" fill="#EF4444"/><rect x="221.74" y="182.96" width="7.30" height="7.30" fill="#92400E"/><rect x="229.04" y="182.96" width="7.30" height="7.30" fill="#92400E"/><rect x="236.35" y="182.96" width="7.30" height="7.30" fill="#92400E"/><rect x="243.65" y="182.96" width="7.30" height="7.30" fill="#92400E"/><rect x="250.96" y="182.96" width="7.30" height="7.30" fill="#92400E"/><rect x="258.26" y="182.96" width="7.30" height="7.30" fill="#EF4444"/><rect x="265.57" y="182.96" width="7.30" height="7.30" fill="#EF4444"/><rect x="272.87" y="182.96" width="7.30" height="7.30" fill="#EF4444"/><rect x="280.17" y="182.96" width="7.30" height="7.30" fill="#92400E"/><rect x="287.48" y="182.96" width="7.30" height="7.30" fill="#92400E"/><rect x="294.78" y="182.96" width="7.30" height="7.30" fill="#92400E"/><rect x="302.09" y="182.96" width="7.30" height="7.30" fill="#92400E"/><rect x="170.61" y="190.26" width="7.30" height="7.30" fill="#92400E"/><rect x="177.91" y="190.26" width="7.30" height="7.30" fill="#92400E"/><rect x="185.22" y="190.26" width="7.30" height="7.30" fill="#92400E"/><rect x="192.52" y="190.26" width="7.30" height="7.30" fill="#92400E"/><rect x="199.83" y="190.26" width="7.30" height="7.30" fill="#92400E"/><rect x="207.13" y="190.26" width="7.30" height="7.30" fill="#92400E"/><rect x="214.43" y="190.26" width="7.30" height="7.30" fill="#92400E"/><rect x="221.74" y="190.26" width="7.30" height="7.30" fill="#92400E"/><rect x="229.04" y="190.26" width="7.30" height="7.30" fill="#92400E"/><rect x="236.35" y="190.26" width="7.30" height="7.30" fill="#92400E"/><rect x="243.65" y="190.26" width="7.30" height="7.30" fill="#92400E"/><rect x="250.96" y="190.26" width="7.30" height="7.30" fill="#92400E"/><rect x="258.26" y="190.26" width="7.30" height="7.30" fill="#92400E"/><rect x="265.57" y="190.26" width="7.30" height="7.30" fill="#92400E"/><rect x="272.87" y="190.26" width="7.30" height="7.30" fill="#92400E"/><rect x="280.17" y="190.26" width="7.30" height="7.30" fill="#92400E"/><rect x="287.48" y="190.26" width="7.30" height="7.30" fill="#92400E"/><rect x="294.78" y="190.26" width="7.30" height="7.30" fill="#92400E"/><rect x="302.09" y="190.26" width="7.30" height="7.30" fill="#92400E"/><rect x="170.61" y="197.57" width="7.30" height="7.30" fill="#3B82F6"/><rect x="177.91" y="197.57" width="7.30" height="7.30" fill="#3B82F6"/><rect x="185.22" y="197.57" width="7.30" height="7.30" fill="#3B82F6"/><rect x="192.52" y="197.57" width="7.30" height="7.30" fill="#3B82F6"/><rect x="199.83" y="197.57" width="7.30" height="7.30" fill="#3B82F6"/><rect x="207.13" y="197.57" width="7.30" height="7.30" fill="#92400E"/><rect x="214.43" y="197.57" width="7.30" height="7.30" fill="#92400E"/><rect x="221.74" y="197.57" width="7.30" height="7.30" fill="#92400E"/><rect x="229.04" y="197.57" width="7.30" height="7.30" fill="#92400E"/><rect x="236.35" y="197.57" width="7.30" height="7.30" fill="#92400E"/><rect x="243.65" y="197.57" width="7.30" height="7.30" fill="#92400E"/><rect x="250.96" y="197.57" width="7.30" height="7.30" fill="#92400E"/><rect x="258.26" y="197.57" width="7.30" height="7.30" fill="#92400E"/><rect x="265.57" y="197.57" width="7.30" height="7.30" fill="#92400E"/><rect x="272.87" y="197.57" width="7.30" height="7.30" fill="#3B82F6"/><rect x="280.17" y="197.57" width="7.30" height="7.30" fill="#3B82F6"/><rect x="287.48" y="197.57" width="7.30" height="7.30" fill="#3B82F6"/><rect x="294.78" y="197.57" width="7.30" height="7.30" fill="#3B82F6"/><rect x="302.09" y="197.57" width="7.30" height="7.30" fill="#3B82F6"/><rect x="170.61" y="204.87" width="7.30" height="7.30" fill="#3B82F6"/><rect x="177.91" y="204.87" width="7.30" height="7.30" fill="#3B82F6"/><rect x="185.22" y="204.87" width="7.30" height="7.30" fill="#3B82F6"/><rect x="192.52" y="204.87" width="7.30" height="7.30" fill="#3B82F6"/><rect x="199.83" y="204.87" width="7.30" height="7.30" fill="#3B82F6"/><rect x="207.13" y="204.87" width="7.30" height="7.30" fill="#92400E"/><rect x="214.43" y="204.87" width="7.30" height="7.30" fill="#92400E"/><rect x="221.74" y="204.87" width="7.30" height="7.30" fill="#92400E"/><rect x="229.04" y="204.87" width="7.30" height="7.30" fill="#92400E"/><rect x="236.35" y="204.87" width="7.30" height="7.30" fill="#92400E"/><rect x="243.65" y="204.87" width="7.30" height="7.30" fill="#92400E"/><rect x="250.96" y="204.87" width="7.30" height="7.30" fill="#92400E"/><rect x="258.26" y="204.87" width="7.30" height="7.30" fill="#92400E"/><rect x="265.57" y="204.87" width="7.30" height="7.30" fill="#92400E"/><rect x="272.87" y="204.87" width="7.30" height="7.30" fill="#3B82F6"/><rect x="280.17" y="204.87" width="7.30" height="7.30" fill="#3B82F6"/><rect x="287.48" y="204.87" width="7.30" height="7.30" fill="#3B82F6"/><rect x="294.78" y="204.87" width="7.30" height="7.30" fill="#3B82F6"/><rect x="302.09" y="204.87" width="7.30" height="7.30" fill="#3B82F6"/><rect x="170.61" y="212.17" width="7.30" height="7.30" fill="#3B82F6"/><rect x="177.91" y="212.17" width="7.30" height="7.30" fill="#3B82F6"/><rect x="185.22" y="212.17" width="7.30" height="7.30" fill="#3B82F6"/><rect x="192.52" y="212.17" width="7.30" height="7.30" fill="#3B82F6"/><rect x="199.83" y="212.17" width="7.30" height="7.30" fill="#3B82F6"/><rect x="207.13" y="212.17" width="7.30" height="7.30" fill="#92400E"/><rect x="214.43" y="212.17" width="7.30" height="7.30" fill="#92400E"/><rect x="221.74" y="212.17" width="7.30" height="7.30" fill="#92400E"/><rect x="229.04" y="212.17" width="7.30" height="7.30" fill="#1A1A1A"/><rect x="236.35" y="212.17" width="7.30" height="7.30" fill="#1A1A1A"/><rect x="243.65" y="212.17" width="7.30" height="7.30" fill="#1A1A1A"/><rect x="250.96" y="212.17" width="7.30" height="7.30" fill="#92400E"/><rect x="258.26" y="212.17" width="7.30" height="7.30" fill="#92400E"/><rect x="265.57" y="212.17" width="7.30" height="7.30" fill="#92400E"/><rect x="272.87" y="212.17" width="7.30" height="7.30" fill="#3B82F6"/><rect x="280.17" y="212.17" width="7.30" height="7.30" fill="#3B82F6"/><rect x="287.48" y="212.17" width="7.30" height="7.30" fill="#3B82F6"/><rect x="294.78" y="212.17" width="7.30" height="7.30" fill="#3B82F6"/><rect x="302.09" y="212.17" width="7.30" height="7.30" fill="#3B82F6"/><rect x="177.91" y="219.48" width="7.30" height="7.30" fill="#92400E"/><rect x="185.22" y="219.48" width="7.30" height="7.30" fill="#92400E"/><rect x="192.52" y="219.48" width="7.30" height="7.30" fill="#92400E"/><rect x="199.83" y="219.48" width="7.30" height="7.30" fill="#92400E"/><rect x="207.13" y="219.48" width="7.30" height="7.30" fill="#92400E"/><rect x="214.43" y="219.48" width="7.30" height="7.30" fill="#92400E"/><rect x="221.74" y="219.48" width="7.30" height="7.30" fill="#92400E"/><rect x="229.04" y="219.48" width="7.30" height="7.30" fill="#92400E"/><rect x="236.35" y="219.48" width="7.30" height="7.30" fill="#92400E"/><rect x="243.65" y="219.48" width="7.30" height="7.30" fill="#92400E"/><rect x="250.96" y="219.48" width="7.30" height="7.30" fill="#92400E"/><rect x="258.26" y="219.48" width="7.30" height="7.30" fill="#92400E"/><rect x="265.57" y="219.48" width="7.30" height="7.30" fill="#92400E"/><rect x="272.87" y="219.48" width="7.30" height="7.30" fill="#92400E"/><rect x="280.17" y="219.48" width="7.30" height="7.30" fill="#92400E"/><rect x="287.48" y="219.48" width="7.30" height="7.30" fill="#92400E"/><rect x="294.78" y="219.48" width="7.30" height="7.30" fill="#92400E"/><rect x="185.22" y="226.78" width="7.30" height="7.30" fill="#92400E"/><rect x="192.52" y="226.78" width="7.30" height="7.30" fill="#92400E"/><rect x="199.83" y="226.78" width="7.30" height="7.30" fill="#92400E"/><rect x="207.13" y="226.78" width="7.30" height="7.30" fill="#92400E"/><rect x="214.43" y="226.78" width="7.30" height="7.30" fill="#92400E"/><rect x="221.74" y="226.78" width="7.30" height="7.30" fill="#92400E"/><rect x="229.04" y="226.78" width="7.30" height="7.30" fill="#92400E"/><rect x="236.35" y="226.78" width="7.30" height="7.30" fill="#92400E"/><rect x="243.65" y="226.78" width="7.30" height="7.30" fill="#92400E"/><rect x="250.96" y="226.78" width="7.30" height="7.30" fill="#92400E"/><rect x="258.26" y="226.78" width="7.30" height="7.30" fill="#92400E"/><rect x="265.57" y="226.78" width="7.30" height="7.30" fill="#92400E"/><rect x="272.87" y="226.78" width="7.30" height="7.30" fill="#92400E"/><rect x="280.17" y="226.78" width="7.30" height="7.30" fill="#92400E"/><rect x="287.48" y="226.78" width="7.30" height="7.30" fill="#92400E"/><rect x="192.52" y="234.09" width="7.30" height="7.30" fill="#92400E"/><rect x="199.83" y="234.09" width="7.30" height="7.30" fill="#92400E"/><rect x="207.13" y="234.09" width="7.30" height="7.30" fill="#92400E"/><rect x="214.43" y="234.09" width="7.30" height="7.30" fill="#92400E"/><rect x="221.74" y="234.09" width="7.30" height="7.30" fill="#92400E"/><rect x="229.04" y="234.09" width="7.30" height="7.30" fill="#92400E"/><rect x="236.35" y="234.09" width="7.30" height="7.30" fill="#92400E"/><rect x="243.65" y="234.09" width="7.30" height="7.30" fill="#92400E"/><rect x="250.96" y="234.09" width="7.30" height="7.30" fill="#92400E"/><rect x="258.26" y="234.09" width="7.30" height="7.30" fill="#92400E"/><rect x="265.57" y="234.09" width="7.30" height="7.30" fill="#92400E"/><rect x="272.87" y="234.09" width="7.30" height="7.30" fill="#92400E"/><rect x="280.17" y="234.09" width="7.30" height="7.30" fill="#92400E"/><rect x="207.13" y="241.39" width="7.30" height="7.30" fill="#92400E"/><rect x="214.43" y="241.39" width="7.30" height="7.30" fill="#92400E"/><rect x="221.74" y="241.39" width="7.30" height="7.30" fill="#92400E"/><rect x="229.04" y="241.39" width="7.30" height="7.30" fill="#92400E"/><rect x="236.35" y="241.39" width="7.30" height="7.30" fill="#92400E"/><rect x="243.65" y="241.39" width="7.30" height="7.30" fill="#92400E"/><rect x="250.96" y="241.39" width="7.30" height="7.30" fill="#92400E"/><rect x="258.26" y="241.39" width="7.30" height="7.30" fill="#92400E"/><rect x="265.57" y="241.39" width="7.30" height="7.30" fill="#92400E"/><rect x="236.35" y="248.70" width="7.30" height="7.30" fill="#92400E"/>
  <!-- 难度标签 -->
  <rect x="390" y="20" width="70" height="22" rx="11" fill="#ff3b30"/>
  <text x="425" y="35" font-family="-apple-system, sans-serif" font-size="11" font-weight="600" fill="#ffffff" text-anchor="middle">HARD</text>
  <!-- 分类标签 -->
  <rect x="20" y="20" width="56" height="22" rx="11" fill="#A855F7" opacity="0.9"/>
  <text x="48" y="35" font-family="-apple-system, sans-serif" font-size="10" font-weight="600" fill="#ffffff" text-anchor="middle">ANIME</text>
  <!-- 模板名 -->
  <text x="240" y="286" font-family="-apple-system, 'PingFang SC', sans-serif" font-size="16" font-weight="600" fill="#1d1d1f" text-anchor="middle">漩涡鸣人</text>
  <text x="240" y="304" font-family="-apple-system, sans-serif" font-size="11" font-weight="400" fill="#86868b" text-anchor="middle">361 beads · 32×32</text>
</svg>
