<svg xmlns="http://www.w3.org/2000/svg" viewBox="0 0 480 360" width="480" height="360">
  <defs>
    <linearGradient id="bgaoteren001" x1="0%" y1="0%" x2="100%" y2="100%">
      <stop offset="0%" stop-color="#EC4899" stop-opacity="0.25"/>
      <stop offset="100%" stop-color="#3B82F6" stop-opacity="0.25"/>
    </linearGradient>
    <linearGradient id="cardaoteren001" x1="0%" y1="0%" x2="0%" y2="100%">
      <stop offset="0%" stop-color="#ffffff" stop-opacity="0.98"/>
      <stop offset="100%" stop-color="#f5f5f7" stop-opacity="0.95"/>
    </linearGradient>
    <filter id="shadowaoteren001" x="-10%" y="-10%" width="120%" height="120%">
      <feGaussianBlur in="SourceAlpha" stdDeviation="4"/>
      <feOffset dx="0" dy="2"/>
      <feComponentTransfer><feFuncA type="linear" slope="0.15"/></feComponentTransfer>
      <feMerge><feMergeNode/><feMergeNode in="SourceGraphic"/></feMerge>
    </filter>
  </defs>
  <rect width="480" height="360" fill="#fafafa"/>
  <rect width="480" height="360" fill="url(#bgaoteren001)"/>
  <path d="M 0 340 Q 240 320 480 340" stroke="#A855F7" stroke-width="1" fill="none" opacity="0.15"/>
  <path d="M 0 20 Q 240 0 480 20" stroke="#EC4899" stroke-width="1" fill="none" opacity="0.2"/>
  <circle cx="30" cy="25" r="2" fill="#EC4899" opacity="0.15"/>
  <circle cx="86" cy="72" r="3" fill="#3B82F6" opacity="0.22999999999999998"/>
  <circle cx="142" cy="119" r="4" fill="#A855F7" opacity="0.31"/>
  <circle cx="198" cy="166" r="5" fill="#EC4899" opacity="0.15"/>
  <circle cx="254" cy="213" r="2" fill="#3B82F6" opacity="0.22999999999999998"/>
  <circle cx="310" cy="260" r="3" fill="#A855F7" opacity="0.31"/>
  <circle cx="366" cy="307" r="4" fill="#EC4899" opacity="0.15"/>
  <circle cx="422" cy="34" r="5" fill="#3B82F6" opacity="0.22999999999999998"/>
  <rect x="138" y="70" width="204" height="232" rx="18" fill="url(#cardaoteren001)" stroke="rgba(0,0,0,0.06)" stroke-width="1" filter="url(#shadowaoteren001)"/>
  <rect x="152" y="84" width="176" height="176" rx="6" fill="#f5f5f7" stroke="rgba(0,0,0,0.08)" stroke-width="1"/>
  <rect x="198.00" y="88.00" width="10.50" height="10.50" rx="1.26" fill="#8B4513"/><rect x="208.50" y="88.00" width="10.50" height="10.50" rx="1.26" fill="#8B4513"/><rect x="219.00" y="88.00" width="10.50" height="10.50" rx="1.26" fill="#8B4513"/><rect x="229.50" y="88.00" width="10.50" height="10.50" rx="1.26" fill="#8B4513"/><rect x="240.00" y="88.00" width="10.50" height="10.50" rx="1.26" fill="#8B4513"/><rect x="250.50" y="88.00" width="10.50" height="10.50" rx="1.26" fill="#8B4513"/><rect x="261.00" y="88.00" width="10.50" height="10.50" rx="1.26" fill="#8B4513"/><rect x="271.50" y="88.00" width="10.50" height="10.50" rx="1.26" fill="#8B4513"/><rect x="187.50" y="98.50" width="10.50" height="10.50" rx="1.26" fill="#8B4513"/><rect x="198.00" y="98.50" width="10.50" height="10.50" rx="1.26" fill="#8B4513"/><rect x="208.50" y="98.50" width="10.50" height="10.50" rx="1.26" fill="#8B4513"/><rect x="219.00" y="98.50" width="10.50" height="10.50" rx="1.26" fill="#8B4513"/><rect x="229.50" y="98.50" width="10.50" height="10.50" rx="1.26" fill="#8B4513"/><rect x="240.00" y="98.50" width="10.50" height="10.50" rx="1.26" fill="#8B4513"/><rect x="250.50" y="98.50" width="10.50" height="10.50" rx="1.26" fill="#8B4513"/><rect x="261.00" y="98.50" width="10.50" height="10.50" rx="1.26" fill="#8B4513"/><rect x="271.50" y="98.50" width="10.50" height="10.50" rx="1.26" fill="#8B4513"/><rect x="282.00" y="98.50" width="10.50" height="10.50" rx="1.26" fill="#8B4513"/><rect x="177.00" y="109.00" width="10.50" height="10.50" rx="1.26" fill="#8B4513"/><rect x="187.50" y="109.00" width="10.50" height="10.50" rx="1.26" fill="#8B4513"/><rect x="198.00" y="109.00" width="10.50" height="10.50" rx="1.26" fill="#8B4513"/><rect x="208.50" y="109.00" width="10.50" height="10.50" rx="1.26" fill="#8B4513"/><rect x="219.00" y="109.00" width="10.50" height="10.50" rx="1.26" fill="#8B4513"/><rect x="229.50" y="109.00" width="10.50" height="10.50" rx="1.26" fill="#8B4513"/><rect x="240.00" y="109.00" width="10.50" height="10.50" rx="1.26" fill="#8B4513"/><rect x="250.50" y="109.00" width="10.50" height="10.50" rx="1.26" fill="#8B4513"/><rect x="261.00" y="109.00" width="10.50" height="10.50" rx="1.26" fill="#8B4513"/><rect x="271.50" y="109.00" width="10.50" height="10.50" rx="1.26" fill="#8B4513"/><rect x="282.00" y="109.00" width="10.50" height="10.50" rx="1.26" fill="#8B4513"/><rect x="292.50" y="109.00" width="10.50" height="10.50" rx="1.26" fill="#8B4513"/><rect x="166.50" y="119.50" width="10.50" height="10.50" rx="1.26" fill="#8B4513"/><rect x="177.00" y="119.50" width="10.50" height="10.50" rx="1.26" fill="#8B4513"/><rect x="187.50" y="119.50" width="10.50" height="10.50" rx="1.26" fill="#8B4513"/><rect x="198.00" y="119.50" width="10.50" height="10.50" rx="1.26" fill="#8B4513"/><rect x="208.50" y="119.50" width="10.50" height="10.50" rx="1.26" fill="#FFDAB9"/><rect x="219.00" y="119.50" width="10.50" height="10.50" rx="1.26" fill="#FFDAB9"/><rect x="229.50" y="119.50" width="10.50" height="10.50" rx="1.26" fill="#FFDAB9"/><rect x="240.00" y="119.50" width="10.50" height="10.50" rx="1.26" fill="#FFDAB9"/><rect x="250.50" y="119.50" width="10.50" height="10.50" rx="1.26" fill="#FFDAB9"/><rect x="261.00" y="119.50" width="10.50" height="10.50" rx="1.26" fill="#FFDAB9"/><rect x="271.50" y="119.50" width="10.50" height="10.50" rx="1.26" fill="#8B4513"/><rect x="282.00" y="119.50" width="10.50" height="10.50" rx="1.26" fill="#8B4513"/><rect x="292.50" y="119.50" width="10.50" height="10.50" rx="1.26" fill="#8B4513"/><rect x="303.00" y="119.50" width="10.50" height="10.50" rx="1.26" fill="#8B4513"/><rect x="166.50" y="130.00" width="10.50" height="10.50" rx="1.26" fill="#8B4513"/><rect x="177.00" y="130.00" width="10.50" height="10.50" rx="1.26" fill="#8B4513"/><rect x="187.50" y="130.00" width="10.50" height="10.50" rx="1.26" fill="#8B4513"/><rect x="198.00" y="130.00" width="10.50" height="10.50" rx="1.26" fill="#FFDAB9"/><rect x="208.50" y="130.00" width="10.50" height="10.50" rx="1.26" fill="#FFDAB9"/><rect x="219.00" y="130.00" width="10.50" height="10.50" rx="1.26" fill="#FFDAB9"/><rect x="229.50" y="130.00" width="10.50" height="10.50" rx="1.26" fill="#FFDAB9"/><rect x="240.00" y="130.00" width="10.50" height="10.50" rx="1.26" fill="#FFDAB9"/><rect x="250.50" y="130.00" width="10.50" height="10.50" rx="1.26" fill="#FFDAB9"/><rect x="261.00" y="130.00" width="10.50" height="10.50" rx="1.26" fill="#FFDAB9"/><rect x="271.50" y="130.00" width="10.50" height="10.50" rx="1.26" fill="#FFDAB9"/><rect x="282.00" y="130.00" width="10.50" height="10.50" rx="1.26" fill="#8B4513"/><rect x="292.50" y="130.00" width="10.50" height="10.50" rx="1.26" fill="#8B4513"/><rect x="303.00" y="130.00" width="10.50" height="10.50" rx="1.26" fill="#8B4513"/><rect x="166.50" y="140.50" width="10.50" height="10.50" rx="1.26" fill="#8B4513"/><rect x="177.00" y="140.50" width="10.50" height="10.50" rx="1.26" fill="#8B4513"/><rect x="187.50" y="140.50" width="10.50" height="10.50" rx="1.26" fill="#FFDAB9"/><rect x="198.00" y="140.50" width="10.50" height="10.50" rx="1.26" fill="#FFDAB9"/><rect x="208.50" y="140.50" width="10.50" height="10.50" rx="1.26" fill="#FFDAB9"/><rect x="219.00" y="140.50" width="10.50" height="10.50" rx="1.26" fill="#FFDAB9"/><rect x="229.50" y="140.50" width="10.50" height="10.50" rx="1.26" fill="#FFDAB9"/><rect x="240.00" y="140.50" width="10.50" height="10.50" rx="1.26" fill="#FFDAB9"/><rect x="250.50" y="140.50" width="10.50" height="10.50" rx="1.26" fill="#FFDAB9"/><rect x="261.00" y="140.50" width="10.50" height="10.50" rx="1.26" fill="#FFDAB9"/><rect x="271.50" y="140.50" width="10.50" height="10.50" rx="1.26" fill="#FFDAB9"/><rect x="282.00" y="140.50" width="10.50" height="10.50" rx="1.26" fill="#FFDAB9"/><rect x="292.50" y="140.50" width="10.50" height="10.50" rx="1.26" fill="#8B4513"/><rect x="303.00" y="140.50" width="10.50" height="10.50" rx="1.26" fill="#8B4513"/><rect x="166.50" y="151.00" width="10.50" height="10.50" rx="1.26" fill="#8B4513"/><rect x="177.00" y="151.00" width="10.50" height="10.50" rx="1.26" fill="#FFDAB9"/><rect x="187.50" y="151.00" width="10.50" height="10.50" rx="1.26" fill="#FFDAB9"/><rect x="198.00" y="151.00" width="10.50" height="10.50" rx="1.26" fill="#1A1A1A"/><rect x="208.50" y="151.00" width="10.50" height="10.50" rx="1.26" fill="#1A1A1A"/><rect x="219.00" y="151.00" width="10.50" height="10.50" rx="1.26" fill="#FFDAB9"/><rect x="229.50" y="151.00" width="10.50" height="10.50" rx="1.26" fill="#FFDAB9"/><rect x="240.00" y="151.00" width="10.50" height="10.50" rx="1.26" fill="#FFDAB9"/><rect x="250.50" y="151.00" width="10.50" height="10.50" rx="1.26" fill="#FFDAB9"/><rect x="261.00" y="151.00" width="10.50" height="10.50" rx="1.26" fill="#1A1A1A"/><rect x="271.50" y="151.00" width="10.50" height="10.50" rx="1.26" fill="#1A1A1A"/><rect x="282.00" y="151.00" width="10.50" height="10.50" rx="1.26" fill="#FFDAB9"/><rect x="292.50" y="151.00" width="10.50" height="10.50" rx="1.26" fill="#FFDAB9"/><rect x="303.00" y="151.00" width="10.50" height="10.50" rx="1.26" fill="#8B4513"/><rect x="166.50" y="161.50" width="10.50" height="10.50" rx="1.26" fill="#8B4513"/><rect x="177.00" y="161.50" width="10.50" height="10.50" rx="1.26" fill="#FFDAB9"/><rect x="187.50" y="161.50" width="10.50" height="10.50" rx="1.26" fill="#FFDAB9"/><rect x="198.00" y="161.50" width="10.50" height="10.50" rx="1.26" fill="#1A1A1A"/><rect x="208.50" y="161.50" width="10.50" height="10.50" rx="1.26" fill="#1A1A1A"/><rect x="219.00" y="161.50" width="10.50" height="10.50" rx="1.26" fill="#FFDAB9"/><rect x="229.50" y="161.50" width="10.50" height="10.50" rx="1.26" fill="#FFDAB9"/><rect x="240.00" y="161.50" width="10.50" height="10.50" rx="1.26" fill="#FFDAB9"/><rect x="250.50" y="161.50" width="10.50" height="10.50" rx="1.26" fill="#FFDAB9"/><rect x="261.00" y="161.50" width="10.50" height="10.50" rx="1.26" fill="#1A1A1A"/><rect x="271.50" y="161.50" width="10.50" height="10.50" rx="1.26" fill="#1A1A1A"/><rect x="282.00" y="161.50" width="10.50" height="10.50" rx="1.26" fill="#FFDAB9"/><rect x="292.50" y="161.50" width="10.50" height="10.50" rx="1.26" fill="#FFDAB9"/><rect x="303.00" y="161.50" width="10.50" height="10.50" rx="1.26" fill="#8B4513"/><rect x="166.50" y="172.00" width="10.50" height="10.50" rx="1.26" fill="#8B4513"/><rect x="177.00" y="172.00" width="10.50" height="10.50" rx="1.26" fill="#FFDAB9"/><rect x="187.50" y="172.00" width="10.50" height="10.50" rx="1.26" fill="#FFDAB9"/><rect x="198.00" y="172.00" width="10.50" height="10.50" rx="1.26" fill="#FFDAB9"/><rect x="208.50" y="172.00" width="10.50" height="10.50" rx="1.26" fill="#FFDAB9"/><rect x="219.00" y="172.00" width="10.50" height="10.50" rx="1.26" fill="#FFDAB9"/><rect x="229.50" y="172.00" width="10.50" height="10.50" rx="1.26" fill="#FFDAB9"/><rect x="240.00" y="172.00" width="10.50" height="10.50" rx="1.26" fill="#FFDAB9"/><rect x="250.50" y="172.00" width="10.50" height="10.50" rx="1.26" fill="#FFDAB9"/><rect x="261.00" y="172.00" width="10.50" height="10.50" rx="1.26" fill="#FFDAB9"/><rect x="271.50" y="172.00" width="10.50" height="10.50" rx="1.26" fill="#FFDAB9"/><rect x="282.00" y="172.00" width="10.50" height="10.50" rx="1.26" fill="#FFDAB9"/><rect x="292.50" y="172.00" width="10.50" height="10.50" rx="1.26" fill="#FFDAB9"/><rect x="303.00" y="172.00" width="10.50" height="10.50" rx="1.26" fill="#8B4513"/><rect x="177.00" y="182.50" width="10.50" height="10.50" rx="1.26" fill="#8B4513"/><rect x="187.50" y="182.50" width="10.50" height="10.50" rx="1.26" fill="#FFDAB9"/><rect x="198.00" y="182.50" width="10.50" height="10.50" rx="1.26" fill="#FFDAB9"/><rect x="208.50" y="182.50" width="10.50" height="10.50" rx="1.26" fill="#FFDAB9"/><rect x="219.00" y="182.50" width="10.50" height="10.50" rx="1.26" fill="#FFDAB9"/><rect x="229.50" y="182.50" width="10.50" height="10.50" rx="1.26" fill="#FFDAB9"/><rect x="240.00" y="182.50" width="10.50" height="10.50" rx="1.26" fill="#FFDAB9"/><rect x="250.50" y="182.50" width="10.50" height="10.50" rx="1.26" fill="#FFDAB9"/><rect x="261.00" y="182.50" width="10.50" height="10.50" rx="1.26" fill="#FFDAB9"/><rect x="271.50" y="182.50" width="10.50" height="10.50" rx="1.26" fill="#FFDAB9"/><rect x="282.00" y="182.50" width="10.50" height="10.50" rx="1.26" fill="#FFDAB9"/><rect x="292.50" y="182.50" width="10.50" height="10.50" rx="1.26" fill="#8B4513"/><rect x="156.00" y="193.00" width="10.50" height="10.50" rx="1.26" fill="#228B22"/><rect x="166.50" y="193.00" width="10.50" height="10.50" rx="1.26" fill="#228B22"/><rect x="177.00" y="193.00" width="10.50" height="10.50" rx="1.26" fill="#8B4513"/><rect x="187.50" y="193.00" width="10.50" height="10.50" rx="1.26" fill="#8B4513"/><rect x="198.00" y="193.00" width="10.50" height="10.50" rx="1.26" fill="#FFDAB9"/><rect x="208.50" y="193.00" width="10.50" height="10.50" rx="1.26" fill="#FFDAB9"/><rect x="219.00" y="193.00" width="10.50" height="10.50" rx="1.26" fill="#FFDAB9"/><rect x="229.50" y="193.00" width="10.50" height="10.50" rx="1.26" fill="#FFDAB9"/><rect x="240.00" y="193.00" width="10.50" height="10.50" rx="1.26" fill="#FFDAB9"/><rect x="250.50" y="193.00" width="10.50" height="10.50" rx="1.26" fill="#FFDAB9"/><rect x="261.00" y="193.00" width="10.50" height="10.50" rx="1.26" fill="#FFDAB9"/><rect x="271.50" y="193.00" width="10.50" height="10.50" rx="1.26" fill="#FFDAB9"/><rect x="282.00" y="193.00" width="10.50" height="10.50" rx="1.26" fill="#8B4513"/><rect x="292.50" y="193.00" width="10.50" height="10.50" rx="1.26" fill="#8B4513"/><rect x="303.00" y="193.00" width="10.50" height="10.50" rx="1.26" fill="#228B22"/><rect x="313.50" y="193.00" width="10.50" height="10.50" rx="1.26" fill="#228B22"/><rect x="156.00" y="203.50" width="10.50" height="10.50" rx="1.26" fill="#228B22"/><rect x="166.50" y="203.50" width="10.50" height="10.50" rx="1.26" fill="#228B22"/><rect x="177.00" y="203.50" width="10.50" height="10.50" rx="1.26" fill="#228B22"/><rect x="187.50" y="203.50" width="10.50" height="10.50" rx="1.26" fill="#8B4513"/><rect x="198.00" y="203.50" width="10.50" height="10.50" rx="1.26" fill="#FFFFFF"/><rect x="208.50" y="203.50" width="10.50" height="10.50" rx="1.26" fill="#FFFFFF"/><rect x="219.00" y="203.50" width="10.50" height="10.50" rx="1.26" fill="#FFFFFF"/><rect x="229.50" y="203.50" width="10.50" height="10.50" rx="1.26" fill="#FFFFFF"/><rect x="240.00" y="203.50" width="10.50" height="10.50" rx="1.26" fill="#FFFFFF"/><rect x="250.50" y="203.50" width="10.50" height="10.50" rx="1.26" fill="#FFFFFF"/><rect x="261.00" y="203.50" width="10.50" height="10.50" rx="1.26" fill="#FFFFFF"/><rect x="271.50" y="203.50" width="10.50" height="10.50" rx="1.26" fill="#8B4513"/><rect x="282.00" y="203.50" width="10.50" height="10.50" rx="1.26" fill="#228B22"/><rect x="292.50" y="203.50" width="10.50" height="10.50" rx="1.26" fill="#228B22"/><rect x="303.00" y="203.50" width="10.50" height="10.50" rx="1.26" fill="#228B22"/><rect x="313.50" y="203.50" width="10.50" height="10.50" rx="1.26" fill="#228B22"/><rect x="156.00" y="214.00" width="10.50" height="10.50" rx="1.26" fill="#228B22"/><rect x="166.50" y="214.00" width="10.50" height="10.50" rx="1.26" fill="#228B22"/><rect x="177.00" y="214.00" width="10.50" height="10.50" rx="1.26" fill="#228B22"/><rect x="187.50" y="214.00" width="10.50" height="10.50" rx="1.26" fill="#228B22"/><rect x="198.00" y="214.00" width="10.50" height="10.50" rx="1.26" fill="#FFFFFF"/><rect x="208.50" y="214.00" width="10.50" height="10.50" rx="1.26" fill="#FFFFFF"/><rect x="219.00" y="214.00" width="10.50" height="10.50" rx="1.26" fill="#FFFFFF"/><rect x="229.50" y="214.00" width="10.50" height="10.50" rx="1.26" fill="#FFFFFF"/><rect x="240.00" y="214.00" width="10.50" height="10.50" rx="1.26" fill="#FFFFFF"/><rect x="250.50" y="214.00" width="10.50" height="10.50" rx="1.26" fill="#FFFFFF"/><rect x="261.00" y="214.00" width="10.50" height="10.50" rx="1.26" fill="#FFFFFF"/><rect x="271.50" y="214.00" width="10.50" height="10.50" rx="1.26" fill="#FFFFFF"/><rect x="282.00" y="214.00" width="10.50" height="10.50" rx="1.26" fill="#228B22"/><rect x="292.50" y="214.00" width="10.50" height="10.50" rx="1.26" fill="#228B22"/><rect x="303.00" y="214.00" width="10.50" height="10.50" rx="1.26" fill="#228B22"/><rect x="313.50" y="214.00" width="10.50" height="10.50" rx="1.26" fill="#228B22"/><rect x="156.00" y="224.50" width="10.50" height="10.50" rx="1.26" fill="#228B22"/><rect x="166.50" y="224.50" width="10.50" height="10.50" rx="1.26" fill="#228B22"/><rect x="177.00" y="224.50" width="10.50" height="10.50" rx="1.26" fill="#228B22"/><rect x="187.50" y="224.50" width="10.50" height="10.50" rx="1.26" fill="#228B22"/><rect x="198.00" y="224.50" width="10.50" height="10.50" rx="1.26" fill="#FFFFFF"/><rect x="208.50" y="224.50" width="10.50" height="10.50" rx="1.26" fill="#FFFFFF"/><rect x="219.00" y="224.50" width="10.50" height="10.50" rx="1.26" fill="#FFFFFF"/><rect x="229.50" y="224.50" width="10.50" height="10.50" rx="1.26" fill="#FFFFFF"/><rect x="240.00" y="224.50" width="10.50" height="10.50" rx="1.26" fill="#FFFFFF"/><rect x="250.50" y="224.50" width="10.50" height="10.50" rx="1.26" fill="#FFFFFF"/><rect x="261.00" y="224.50" width="10.50" height="10.50" rx="1.26" fill="#FFFFFF"/><rect x="271.50" y="224.50" width="10.50" height="10.50" rx="1.26" fill="#FFFFFF"/><rect x="282.00" y="224.50" width="10.50" height="10.50" rx="1.26" fill="#228B22"/><rect x="292.50" y="224.50" width="10.50" height="10.50" rx="1.26" fill="#228B22"/><rect x="303.00" y="224.50" width="10.50" height="10.50" rx="1.26" fill="#228B22"/><rect x="313.50" y="224.50" width="10.50" height="10.50" rx="1.26" fill="#228B22"/><rect x="156.00" y="235.00" width="10.50" height="10.50" rx="1.26" fill="#228B22"/><rect x="166.50" y="235.00" width="10.50" height="10.50" rx="1.26" fill="#228B22"/><rect x="177.00" y="235.00" width="10.50" height="10.50" rx="1.26" fill="#228B22"/><rect x="187.50" y="235.00" width="10.50" height="10.50" rx="1.26" fill="#228B22"/><rect x="198.00" y="235.00" width="10.50" height="10.50" rx="1.26" fill="#FFFFFF"/><rect x="208.50" y="235.00" width="10.50" height="10.50" rx="1.26" fill="#FFFFFF"/><rect x="219.00" y="235.00" width="10.50" height="10.50" rx="1.26" fill="#FFFFFF"/><rect x="229.50" y="235.00" width="10.50" height="10.50" rx="1.26" fill="#FFFFFF"/><rect x="240.00" y="235.00" width="10.50" height="10.50" rx="1.26" fill="#FFFFFF"/><rect x="250.50" y="235.00" width="10.50" height="10.50" rx="1.26" fill="#FFFFFF"/><rect x="261.00" y="235.00" width="10.50" height="10.50" rx="1.26" fill="#FFFFFF"/><rect x="271.50" y="235.00" width="10.50" height="10.50" rx="1.26" fill="#FFFFFF"/><rect x="282.00" y="235.00" width="10.50" height="10.50" rx="1.26" fill="#228B22"/><rect x="292.50" y="235.00" width="10.50" height="10.50" rx="1.26" fill="#228B22"/><rect x="303.00" y="235.00" width="10.50" height="10.50" rx="1.26" fill="#228B22"/><rect x="313.50" y="235.00" width="10.50" height="10.50" rx="1.26" fill="#228B22"/><rect x="156.00" y="245.50" width="10.50" height="10.50" rx="1.26" fill="#228B22"/><rect x="166.50" y="245.50" width="10.50" height="10.50" rx="1.26" fill="#228B22"/><rect x="177.00" y="245.50" width="10.50" height="10.50" rx="1.26" fill="#228B22"/><rect x="187.50" y="245.50" width="10.50" height="10.50" rx="1.26" fill="#228B22"/><rect x="198.00" y="245.50" width="10.50" height="10.50" rx="1.26" fill="#228B22"/><rect x="208.50" y="245.50" width="10.50" height="10.50" rx="1.26" fill="#FFFFFF"/><rect x="219.00" y="245.50" width="10.50" height="10.50" rx="1.26" fill="#FFFFFF"/><rect x="229.50" y="245.50" width="10.50" height="10.50" rx="1.26" fill="#FFFFFF"/><rect x="240.00" y="245.50" width="10.50" height="10.50" rx="1.26" fill="#FFFFFF"/><rect x="250.50" y="245.50" width="10.50" height="10.50" rx="1.26" fill="#FFFFFF"/><rect x="261.00" y="245.50" width="10.50" height="10.50" rx="1.26" fill="#228B22"/><rect x="271.50" y="245.50" width="10.50" height="10.50" rx="1.26" fill="#228B22"/><rect x="282.00" y="245.50" width="10.50" height="10.50" rx="1.26" fill="#228B22"/><rect x="292.50" y="245.50" width="10.50" height="10.50" rx="1.26" fill="#228B22"/><rect x="303.00" y="245.50" width="10.50" height="10.50" rx="1.26" fill="#228B22"/><rect x="313.50" y="245.50" width="10.50" height="10.50" rx="1.26" fill="#228B22"/>
  <rect x="390" y="20" width="70" height="22" rx="11" fill="#f59e0b"/>
  <text x="425" y="35" font-family="-apple-system, sans-serif" font-size="11" font-weight="600" fill="#ffffff" text-anchor="middle">MEDIUM</text>
  <rect x="20" y="20" width="56" height="22" rx="11" fill="#A855F7" opacity="0.9"/>
  <text x="48" y="35" font-family="-apple-system, sans-serif" font-size="10" font-weight="600" fill="#ffffff" text-anchor="middle">ANIME</text>
  <text x="240" y="286" font-family="-apple-system, 'PingFang SC', sans-serif" font-size="16" font-weight="600" fill="#1d1d1f" text-anchor="middle">艾伦·耶格尔</text>
  <text x="240" y="304" font-family="-apple-system, sans-serif" font-size="11" font-weight="400" fill="#86868b" text-anchor="middle">222 beads · 16×16</text>
</svg>
