<svg xmlns="http://www.w3.org/2000/svg" viewBox="0 0 480 360" width="480" height="360">
  <defs>
    <linearGradient id="bgcelebritybts010" x1="0%" y1="0%" x2="100%" y2="100%">
      <stop offset="0%" stop-color="#A855F7" stop-opacity="0.25"/>
      <stop offset="100%" stop-color="#EC4899" stop-opacity="0.25"/>
    </linearGradient>
    <linearGradient id="cardcelebritybts010" x1="0%" y1="0%" x2="0%" y2="100%">
      <stop offset="0%" stop-color="#ffffff" stop-opacity="0.98"/>
      <stop offset="100%" stop-color="#f5f5f7" stop-opacity="0.95"/>
    </linearGradient>
    <filter id="shadowcelebritybts010" x="-10%" y="-10%" width="120%" height="120%">
      <feGaussianBlur in="SourceAlpha" stdDeviation="4"/>
      <feOffset dx="0" dy="2"/>
      <feComponentTransfer><feFuncA type="linear" slope="0.15"/></feComponentTransfer>
      <feMerge><feMergeNode/><feMergeNode in="SourceGraphic"/></feMerge>
    </filter>
  </defs>
  <rect width="480" height="360" fill="#fafafa"/>
  <rect width="480" height="360" fill="url(#bgcelebritybts010)"/>
  <path d="M 0 340 Q 240 320 480 340" stroke="#F59E0B" stroke-width="1" fill="none" opacity="0.15"/>
  <path d="M 0 20 Q 240 0 480 20" stroke="#A855F7" stroke-width="1" fill="none" opacity="0.2"/>
  <circle cx="30" cy="25" r="2" fill="#A855F7" opacity="0.15"/>
  <circle cx="86" cy="72" r="3" fill="#EC4899" opacity="0.22999999999999998"/>
  <circle cx="142" cy="119" r="4" fill="#F59E0B" opacity="0.31"/>
  <circle cx="198" cy="166" r="5" fill="#A855F7" opacity="0.15"/>
  <circle cx="254" cy="213" r="2" fill="#EC4899" opacity="0.22999999999999998"/>
  <circle cx="310" cy="260" r="3" fill="#F59E0B" opacity="0.31"/>
  <circle cx="366" cy="307" r="4" fill="#A855F7" opacity="0.15"/>
  <circle cx="422" cy="34" r="5" fill="#EC4899" opacity="0.22999999999999998"/>
  <rect x="138" y="70" width="204" height="232" rx="18" fill="url(#cardcelebritybts010)" stroke="rgba(0,0,0,0.06)" stroke-width="1" filter="url(#shadowcelebritybts010)"/>
  <rect x="152" y="84" width="176" height="176" rx="6" fill="#f5f5f7" stroke="rgba(0,0,0,0.08)" stroke-width="1"/>
  <rect x="218.09" y="88.00" width="7.30" height="7.30" rx="0.88" fill="#FFFFFF"/><rect x="269.22" y="88.00" width="7.30" height="7.30" rx="0.88" fill="#FFFFFF"/><rect x="188.87" y="95.30" width="7.30" height="7.30" rx="0.88" fill="#FFFFFF"/><rect x="240.00" y="95.30" width="7.30" height="7.30" rx="0.88" fill="#FFFFFF"/><rect x="291.13" y="95.30" width="7.30" height="7.30" rx="0.88" fill="#FFFFFF"/><rect x="203.48" y="109.91" width="7.30" height="7.30" rx="0.88" fill="#DB2777"/><rect x="210.78" y="109.91" width="7.30" height="7.30" rx="0.88" fill="#DB2777"/><rect x="218.09" y="109.91" width="7.30" height="7.30" rx="0.88" fill="#DB2777"/><rect x="225.39" y="109.91" width="7.30" height="7.30" rx="0.88" fill="#DB2777"/><rect x="232.70" y="109.91" width="7.30" height="7.30" rx="0.88" fill="#DB2777"/><rect x="240.00" y="109.91" width="7.30" height="7.30" rx="0.88" fill="#DB2777"/><rect x="247.30" y="109.91" width="7.30" height="7.30" rx="0.88" fill="#DB2777"/><rect x="254.61" y="109.91" width="7.30" height="7.30" rx="0.88" fill="#DB2777"/><rect x="261.91" y="109.91" width="7.30" height="7.30" rx="0.88" fill="#DB2777"/><rect x="269.22" y="109.91" width="7.30" height="7.30" rx="0.88" fill="#DB2777"/><rect x="276.52" y="109.91" width="7.30" height="7.30" rx="0.88" fill="#DB2777"/><rect x="188.87" y="117.22" width="7.30" height="7.30" rx="0.88" fill="#DB2777"/><rect x="196.17" y="117.22" width="7.30" height="7.30" rx="0.88" fill="#DB2777"/><rect x="203.48" y="117.22" width="7.30" height="7.30" rx="0.88" fill="#EC4899"/><rect x="210.78" y="117.22" width="7.30" height="7.30" rx="0.88" fill="#EC4899"/><rect x="218.09" y="117.22" width="7.30" height="7.30" rx="0.88" fill="#EC4899"/><rect x="225.39" y="117.22" width="7.30" height="7.30" rx="0.88" fill="#EC4899"/><rect x="232.70" y="117.22" width="7.30" height="7.30" rx="0.88" fill="#EC4899"/><rect x="240.00" y="117.22" width="7.30" height="7.30" rx="0.88" fill="#EC4899"/><rect x="247.30" y="117.22" width="7.30" height="7.30" rx="0.88" fill="#EC4899"/><rect x="254.61" y="117.22" width="7.30" height="7.30" rx="0.88" fill="#EC4899"/><rect x="261.91" y="117.22" width="7.30" height="7.30" rx="0.88" fill="#EC4899"/><rect x="269.22" y="117.22" width="7.30" height="7.30" rx="0.88" fill="#EC4899"/><rect x="276.52" y="117.22" width="7.30" height="7.30" rx="0.88" fill="#EC4899"/><rect x="283.83" y="117.22" width="7.30" height="7.30" rx="0.88" fill="#DB2777"/><rect x="181.57" y="124.52" width="7.30" height="7.30" rx="0.88" fill="#DB2777"/><rect x="188.87" y="124.52" width="7.30" height="7.30" rx="0.88" fill="#EC4899"/><rect x="196.17" y="124.52" width="7.30" height="7.30" rx="0.88" fill="#EC4899"/><rect x="203.48" y="124.52" width="7.30" height="7.30" rx="0.88" fill="#EC4899"/><rect x="210.78" y="124.52" width="7.30" height="7.30" rx="0.88" fill="#A78BFA"/><rect x="218.09" y="124.52" width="7.30" height="7.30" rx="0.88" fill="#A78BFA"/><rect x="225.39" y="124.52" width="7.30" height="7.30" rx="0.88" fill="#A78BFA"/><rect x="232.70" y="124.52" width="7.30" height="7.30" rx="0.88" fill="#A78BFA"/><rect x="240.00" y="124.52" width="7.30" height="7.30" rx="0.88" fill="#A78BFA"/><rect x="247.30" y="124.52" width="7.30" height="7.30" rx="0.88" fill="#A78BFA"/><rect x="254.61" y="124.52" width="7.30" height="7.30" rx="0.88" fill="#A78BFA"/><rect x="261.91" y="124.52" width="7.30" height="7.30" rx="0.88" fill="#A78BFA"/><rect x="269.22" y="124.52" width="7.30" height="7.30" rx="0.88" fill="#EC4899"/><rect x="276.52" y="124.52" width="7.30" height="7.30" rx="0.88" fill="#EC4899"/><rect x="283.83" y="124.52" width="7.30" height="7.30" rx="0.88" fill="#EC4899"/><rect x="291.13" y="124.52" width="7.30" height="7.30" rx="0.88" fill="#DB2777"/><rect x="181.57" y="131.83" width="7.30" height="7.30" rx="0.88" fill="#DB2777"/><rect x="188.87" y="131.83" width="7.30" height="7.30" rx="0.88" fill="#EC4899"/><rect x="196.17" y="131.83" width="7.30" height="7.30" rx="0.88" fill="#A78BFA"/><rect x="203.48" y="131.83" width="7.30" height="7.30" rx="0.88" fill="#A78BFA"/><rect x="210.78" y="131.83" width="7.30" height="7.30" rx="0.88" fill="#A78BFA"/><rect x="218.09" y="131.83" width="7.30" height="7.30" rx="0.88" fill="#A78BFA"/><rect x="225.39" y="131.83" width="7.30" height="7.30" rx="0.88" fill="#A78BFA"/><rect x="232.70" y="131.83" width="7.30" height="7.30" rx="0.88" fill="#A78BFA"/><rect x="240.00" y="131.83" width="7.30" height="7.30" rx="0.88" fill="#A78BFA"/><rect x="247.30" y="131.83" width="7.30" height="7.30" rx="0.88" fill="#A78BFA"/><rect x="254.61" y="131.83" width="7.30" height="7.30" rx="0.88" fill="#A78BFA"/><rect x="261.91" y="131.83" width="7.30" height="7.30" rx="0.88" fill="#A78BFA"/><rect x="269.22" y="131.83" width="7.30" height="7.30" rx="0.88" fill="#A78BFA"/><rect x="276.52" y="131.83" width="7.30" height="7.30" rx="0.88" fill="#A78BFA"/><rect x="283.83" y="131.83" width="7.30" height="7.30" rx="0.88" fill="#EC4899"/><rect x="291.13" y="131.83" width="7.30" height="7.30" rx="0.88" fill="#DB2777"/><rect x="174.26" y="139.13" width="7.30" height="7.30" rx="0.88" fill="#DB2777"/><rect x="181.57" y="139.13" width="7.30" height="7.30" rx="0.88" fill="#EC4899"/><rect x="188.87" y="139.13" width="7.30" height="7.30" rx="0.88" fill="#EC4899"/><rect x="196.17" y="139.13" width="7.30" height="7.30" rx="0.88" fill="#A78BFA"/><rect x="203.48" y="139.13" width="7.30" height="7.30" rx="0.88" fill="#A78BFA"/><rect x="210.78" y="139.13" width="7.30" height="7.30" rx="0.88" fill="#A78BFA"/><rect x="218.09" y="139.13" width="7.30" height="7.30" rx="0.88" fill="#7C3AED"/><rect x="225.39" y="139.13" width="7.30" height="7.30" rx="0.88" fill="#7C3AED"/><rect x="232.70" y="139.13" width="7.30" height="7.30" rx="0.88" fill="#7C3AED"/><rect x="240.00" y="139.13" width="7.30" height="7.30" rx="0.88" fill="#7C3AED"/><rect x="247.30" y="139.13" width="7.30" height="7.30" rx="0.88" fill="#7C3AED"/><rect x="254.61" y="139.13" width="7.30" height="7.30" rx="0.88" fill="#7C3AED"/><rect x="261.91" y="139.13" width="7.30" height="7.30" rx="0.88" fill="#A78BFA"/><rect x="269.22" y="139.13" width="7.30" height="7.30" rx="0.88" fill="#A78BFA"/><rect x="276.52" y="139.13" width="7.30" height="7.30" rx="0.88" fill="#A78BFA"/><rect x="283.83" y="139.13" width="7.30" height="7.30" rx="0.88" fill="#EC4899"/><rect x="291.13" y="139.13" width="7.30" height="7.30" rx="0.88" fill="#EC4899"/><rect x="298.43" y="139.13" width="7.30" height="7.30" rx="0.88" fill="#DB2777"/><rect x="174.26" y="146.43" width="7.30" height="7.30" rx="0.88" fill="#DB2777"/><rect x="181.57" y="146.43" width="7.30" height="7.30" rx="0.88" fill="#EC4899"/><rect x="188.87" y="146.43" width="7.30" height="7.30" rx="0.88" fill="#A78BFA"/><rect x="196.17" y="146.43" width="7.30" height="7.30" rx="0.88" fill="#A78BFA"/><rect x="203.48" y="146.43" width="7.30" height="7.30" rx="0.88" fill="#A78BFA"/><rect x="210.78" y="146.43" width="7.30" height="7.30" rx="0.88" fill="#7C3AED"/><rect x="218.09" y="146.43" width="7.30" height="7.30" rx="0.88" fill="#7C3AED"/><rect x="225.39" y="146.43" width="7.30" height="7.30" rx="0.88" fill="#7C3AED"/><rect x="232.70" y="146.43" width="7.30" height="7.30" rx="0.88" fill="#A78BFA"/><rect x="240.00" y="146.43" width="7.30" height="7.30" rx="0.88" fill="#A78BFA"/><rect x="247.30" y="146.43" width="7.30" height="7.30" rx="0.88" fill="#7C3AED"/><rect x="254.61" y="146.43" width="7.30" height="7.30" rx="0.88" fill="#7C3AED"/><rect x="261.91" y="146.43" width="7.30" height="7.30" rx="0.88" fill="#7C3AED"/><rect x="269.22" y="146.43" width="7.30" height="7.30" rx="0.88" fill="#A78BFA"/><rect x="276.52" y="146.43" width="7.30" height="7.30" rx="0.88" fill="#A78BFA"/><rect x="283.83" y="146.43" width="7.30" height="7.30" rx="0.88" fill="#A78BFA"/><rect x="291.13" y="146.43" width="7.30" height="7.30" rx="0.88" fill="#EC4899"/><rect x="298.43" y="146.43" width="7.30" height="7.30" rx="0.88" fill="#DB2777"/><rect x="174.26" y="153.74" width="7.30" height="7.30" rx="0.88" fill="#DB2777"/><rect x="181.57" y="153.74" width="7.30" height="7.30" rx="0.88" fill="#EC4899"/><rect x="188.87" y="153.74" width="7.30" height="7.30" rx="0.88" fill="#A78BFA"/><rect x="196.17" y="153.74" width="7.30" height="7.30" rx="0.88" fill="#A78BFA"/><rect x="203.48" y="153.74" width="7.30" height="7.30" rx="0.88" fill="#7C3AED"/><rect x="210.78" y="153.74" width="7.30" height="7.30" rx="0.88" fill="#7C3AED"/><rect x="218.09" y="153.74" width="7.30" height="7.30" rx="0.88" fill="#7C3AED"/><rect x="225.39" y="153.74" width="7.30" height="7.30" rx="0.88" fill="#A78BFA"/><rect x="232.70" y="153.74" width="7.30" height="7.30" rx="0.88" fill="#A78BFA"/><rect x="240.00" y="153.74" width="7.30" height="7.30" rx="0.88" fill="#A78BFA"/><rect x="247.30" y="153.74" width="7.30" height="7.30" rx="0.88" fill="#A78BFA"/><rect x="254.61" y="153.74" width="7.30" height="7.30" rx="0.88" fill="#7C3AED"/><rect x="261.91" y="153.74" width="7.30" height="7.30" rx="0.88" fill="#7C3AED"/><rect x="269.22" y="153.74" width="7.30" height="7.30" rx="0.88" fill="#7C3AED"/><rect x="276.52" y="153.74" width="7.30" height="7.30" rx="0.88" fill="#A78BFA"/><rect x="283.83" y="153.74" width="7.30" height="7.30" rx="0.88" fill="#A78BFA"/><rect x="291.13" y="153.74" width="7.30" height="7.30" rx="0.88" fill="#EC4899"/><rect x="298.43" y="153.74" width="7.30" height="7.30" rx="0.88" fill="#DB2777"/><rect x="174.26" y="161.04" width="7.30" height="7.30" rx="0.88" fill="#DB2777"/><rect x="181.57" y="161.04" width="7.30" height="7.30" rx="0.88" fill="#EC4899"/><rect x="188.87" y="161.04" width="7.30" height="7.30" rx="0.88" fill="#A78BFA"/><rect x="196.17" y="161.04" width="7.30" height="7.30" rx="0.88" fill="#A78BFA"/><rect x="203.48" y="161.04" width="7.30" height="7.30" rx="0.88" fill="#7C3AED"/><rect x="210.78" y="161.04" width="7.30" height="7.30" rx="0.88" fill="#7C3AED"/><rect x="218.09" y="161.04" width="7.30" height="7.30" rx="0.88" fill="#A78BFA"/><rect x="225.39" y="161.04" width="7.30" height="7.30" rx="0.88" fill="#A78BFA"/><rect x="232.70" y="161.04" width="7.30" height="7.30" rx="0.88" fill="#A78BFA"/><rect x="240.00" y="161.04" width="7.30" height="7.30" rx="0.88" fill="#A78BFA"/><rect x="247.30" y="161.04" width="7.30" height="7.30" rx="0.88" fill="#A78BFA"/><rect x="254.61" y="161.04" width="7.30" height="7.30" rx="0.88" fill="#A78BFA"/><rect x="261.91" y="161.04" width="7.30" height="7.30" rx="0.88" fill="#7C3AED"/><rect x="269.22" y="161.04" width="7.30" height="7.30" rx="0.88" fill="#7C3AED"/><rect x="276.52" y="161.04" width="7.30" height="7.30" rx="0.88" fill="#A78BFA"/><rect x="283.83" y="161.04" width="7.30" height="7.30" rx="0.88" fill="#A78BFA"/><rect x="291.13" y="161.04" width="7.30" height="7.30" rx="0.88" fill="#EC4899"/><rect x="298.43" y="161.04" width="7.30" height="7.30" rx="0.88" fill="#DB2777"/><rect x="174.26" y="168.35" width="7.30" height="7.30" rx="0.88" fill="#DB2777"/><rect x="181.57" y="168.35" width="7.30" height="7.30" rx="0.88" fill="#EC4899"/><rect x="188.87" y="168.35" width="7.30" height="7.30" rx="0.88" fill="#A78BFA"/><rect x="196.17" y="168.35" width="7.30" height="7.30" rx="0.88" fill="#A78BFA"/><rect x="203.48" y="168.35" width="7.30" height="7.30" rx="0.88" fill="#7C3AED"/><rect x="210.78" y="168.35" width="7.30" height="7.30" rx="0.88" fill="#7C3AED"/><rect x="218.09" y="168.35" width="7.30" height="7.30" rx="0.88" fill="#A78BFA"/><rect x="225.39" y="168.35" width="7.30" height="7.30" rx="0.88" fill="#A78BFA"/><rect x="232.70" y="168.35" width="7.30" height="7.30" rx="0.88" fill="#5B21B6"/><rect x="240.00" y="168.35" width="7.30" height="7.30" rx="0.88" fill="#5B21B6"/><rect x="247.30" y="168.35" width="7.30" height="7.30" rx="0.88" fill="#A78BFA"/><rect x="254.61" y="168.35" width="7.30" height="7.30" rx="0.88" fill="#A78BFA"/><rect x="261.91" y="168.35" width="7.30" height="7.30" rx="0.88" fill="#7C3AED"/><rect x="269.22" y="168.35" width="7.30" height="7.30" rx="0.88" fill="#7C3AED"/><rect x="276.52" y="168.35" width="7.30" height="7.30" rx="0.88" fill="#A78BFA"/><rect x="283.83" y="168.35" width="7.30" height="7.30" rx="0.88" fill="#A78BFA"/><rect x="291.13" y="168.35" width="7.30" height="7.30" rx="0.88" fill="#EC4899"/><rect x="298.43" y="168.35" width="7.30" height="7.30" rx="0.88" fill="#DB2777"/><rect x="174.26" y="175.65" width="7.30" height="7.30" rx="0.88" fill="#DB2777"/><rect x="181.57" y="175.65" width="7.30" height="7.30" rx="0.88" fill="#EC4899"/><rect x="188.87" y="175.65" width="7.30" height="7.30" rx="0.88" fill="#A78BFA"/><rect x="196.17" y="175.65" width="7.30" height="7.30" rx="0.88" fill="#A78BFA"/><rect x="203.48" y="175.65" width="7.30" height="7.30" rx="0.88" fill="#A78BFA"/><rect x="210.78" y="175.65" width="7.30" height="7.30" rx="0.88" fill="#7C3AED"/><rect x="218.09" y="175.65" width="7.30" height="7.30" rx="0.88" fill="#7C3AED"/><rect x="225.39" y="175.65" width="7.30" height="7.30" rx="0.88" fill="#A78BFA"/><rect x="232.70" y="175.65" width="7.30" height="7.30" rx="0.88" fill="#5B21B6"/><rect x="240.00" y="175.65" width="7.30" height="7.30" rx="0.88" fill="#5B21B6"/><rect x="247.30" y="175.65" width="7.30" height="7.30" rx="0.88" fill="#A78BFA"/><rect x="254.61" y="175.65" width="7.30" height="7.30" rx="0.88" fill="#7C3AED"/><rect x="261.91" y="175.65" width="7.30" height="7.30" rx="0.88" fill="#7C3AED"/><rect x="269.22" y="175.65" width="7.30" height="7.30" rx="0.88" fill="#A78BFA"/><rect x="276.52" y="175.65" width="7.30" height="7.30" rx="0.88" fill="#A78BFA"/><rect x="283.83" y="175.65" width="7.30" height="7.30" rx="0.88" fill="#A78BFA"/><rect x="291.13" y="175.65" width="7.30" height="7.30" rx="0.88" fill="#EC4899"/><rect x="298.43" y="175.65" width="7.30" height="7.30" rx="0.88" fill="#DB2777"/><rect x="174.26" y="182.96" width="7.30" height="7.30" rx="0.88" fill="#DB2777"/><rect x="181.57" y="182.96" width="7.30" height="7.30" rx="0.88" fill="#EC4899"/><rect x="188.87" y="182.96" width="7.30" height="7.30" rx="0.88" fill="#A78BFA"/><rect x="196.17" y="182.96" width="7.30" height="7.30" rx="0.88" fill="#A78BFA"/><rect x="203.48" y="182.96" width="7.30" height="7.30" rx="0.88" fill="#A78BFA"/><rect x="210.78" y="182.96" width="7.30" height="7.30" rx="0.88" fill="#7C3AED"/><rect x="218.09" y="182.96" width="7.30" height="7.30" rx="0.88" fill="#7C3AED"/><rect x="225.39" y="182.96" width="7.30" height="7.30" rx="0.88" fill="#7C3AED"/><rect x="232.70" y="182.96" width="7.30" height="7.30" rx="0.88" fill="#A78BFA"/><rect x="240.00" y="182.96" width="7.30" height="7.30" rx="0.88" fill="#A78BFA"/><rect x="247.30" y="182.96" width="7.30" height="7.30" rx="0.88" fill="#7C3AED"/><rect x="254.61" y="182.96" width="7.30" height="7.30" rx="0.88" fill="#7C3AED"/><rect x="261.91" y="182.96" width="7.30" height="7.30" rx="0.88" fill="#7C3AED"/><rect x="269.22" y="182.96" width="7.30" height="7.30" rx="0.88" fill="#A78BFA"/><rect x="276.52" y="182.96" width="7.30" height="7.30" rx="0.88" fill="#A78BFA"/><rect x="283.83" y="182.96" width="7.30" height="7.30" rx="0.88" fill="#A78BFA"/><rect x="291.13" y="182.96" width="7.30" height="7.30" rx="0.88" fill="#EC4899"/><rect x="298.43" y="182.96" width="7.30" height="7.30" rx="0.88" fill="#DB2777"/><rect x="174.26" y="190.26" width="7.30" height="7.30" rx="0.88" fill="#DB2777"/><rect x="181.57" y="190.26" width="7.30" height="7.30" rx="0.88" fill="#EC4899"/><rect x="188.87" y="190.26" width="7.30" height="7.30" rx="0.88" fill="#EC4899"/><rect x="196.17" y="190.26" width="7.30" height="7.30" rx="0.88" fill="#A78BFA"/><rect x="203.48" y="190.26" width="7.30" height="7.30" rx="0.88" fill="#A78BFA"/><rect x="210.78" y="190.26" width="7.30" height="7.30" rx="0.88" fill="#A78BFA"/><rect x="218.09" y="190.26" width="7.30" height="7.30" rx="0.88" fill="#7C3AED"/><rect x="225.39" y="190.26" width="7.30" height="7.30" rx="0.88" fill="#7C3AED"/><rect x="232.70" y="190.26" width="7.30" height="7.30" rx="0.88" fill="#7C3AED"/><rect x="240.00" y="190.26" width="7.30" height="7.30" rx="0.88" fill="#7C3AED"/><rect x="247.30" y="190.26" width="7.30" height="7.30" rx="0.88" fill="#7C3AED"/><rect x="254.61" y="190.26" width="7.30" height="7.30" rx="0.88" fill="#7C3AED"/><rect x="261.91" y="190.26" width="7.30" height="7.30" rx="0.88" fill="#A78BFA"/><rect x="269.22" y="190.26" width="7.30" height="7.30" rx="0.88" fill="#A78BFA"/><rect x="276.52" y="190.26" width="7.30" height="7.30" rx="0.88" fill="#A78BFA"/><rect x="283.83" y="190.26" width="7.30" height="7.30" rx="0.88" fill="#EC4899"/><rect x="291.13" y="190.26" width="7.30" height="7.30" rx="0.88" fill="#EC4899"/><rect x="298.43" y="190.26" width="7.30" height="7.30" rx="0.88" fill="#DB2777"/><rect x="181.57" y="197.57" width="7.30" height="7.30" rx="0.88" fill="#DB2777"/><rect x="188.87" y="197.57" width="7.30" height="7.30" rx="0.88" fill="#EC4899"/><rect x="196.17" y="197.57" width="7.30" height="7.30" rx="0.88" fill="#A78BFA"/><rect x="203.48" y="197.57" width="7.30" height="7.30" rx="0.88" fill="#A78BFA"/><rect x="210.78" y="197.57" width="7.30" height="7.30" rx="0.88" fill="#A78BFA"/><rect x="218.09" y="197.57" width="7.30" height="7.30" rx="0.88" fill="#A78BFA"/><rect x="225.39" y="197.57" width="7.30" height="7.30" rx="0.88" fill="#7C3AED"/><rect x="232.70" y="197.57" width="7.30" height="7.30" rx="0.88" fill="#7C3AED"/><rect x="240.00" y="197.57" width="7.30" height="7.30" rx="0.88" fill="#7C3AED"/><rect x="247.30" y="197.57" width="7.30" height="7.30" rx="0.88" fill="#7C3AED"/><rect x="254.61" y="197.57" width="7.30" height="7.30" rx="0.88" fill="#A78BFA"/><rect x="261.91" y="197.57" width="7.30" height="7.30" rx="0.88" fill="#A78BFA"/><rect x="269.22" y="197.57" width="7.30" height="7.30" rx="0.88" fill="#A78BFA"/><rect x="276.52" y="197.57" width="7.30" height="7.30" rx="0.88" fill="#A78BFA"/><rect x="283.83" y="197.57" width="7.30" height="7.30" rx="0.88" fill="#EC4899"/><rect x="291.13" y="197.57" width="7.30" height="7.30" rx="0.88" fill="#DB2777"/><rect x="181.57" y="204.87" width="7.30" height="7.30" rx="0.88" fill="#DB2777"/><rect x="188.87" y="204.87" width="7.30" height="7.30" rx="0.88" fill="#EC4899"/><rect x="196.17" y="204.87" width="7.30" height="7.30" rx="0.88" fill="#EC4899"/><rect x="203.48" y="204.87" width="7.30" height="7.30" rx="0.88" fill="#A78BFA"/><rect x="210.78" y="204.87" width="7.30" height="7.30" rx="0.88" fill="#A78BFA"/><rect x="218.09" y="204.87" width="7.30" height="7.30" rx="0.88" fill="#A78BFA"/><rect x="225.39" y="204.87" width="7.30" height="7.30" rx="0.88" fill="#A78BFA"/><rect x="232.70" y="204.87" width="7.30" height="7.30" rx="0.88" fill="#A78BFA"/><rect x="240.00" y="204.87" width="7.30" height="7.30" rx="0.88" fill="#A78BFA"/><rect x="247.30" y="204.87" width="7.30" height="7.30" rx="0.88" fill="#A78BFA"/><rect x="254.61" y="204.87" width="7.30" height="7.30" rx="0.88" fill="#A78BFA"/><rect x="261.91" y="204.87" width="7.30" height="7.30" rx="0.88" fill="#A78BFA"/><rect x="269.22" y="204.87" width="7.30" height="7.30" rx="0.88" fill="#A78BFA"/><rect x="276.52" y="204.87" width="7.30" height="7.30" rx="0.88" fill="#EC4899"/><rect x="283.83" y="204.87" width="7.30" height="7.30" rx="0.88" fill="#EC4899"/><rect x="291.13" y="204.87" width="7.30" height="7.30" rx="0.88" fill="#DB2777"/><rect x="188.87" y="212.17" width="7.30" height="7.30" rx="0.88" fill="#DB2777"/><rect x="196.17" y="212.17" width="7.30" height="7.30" rx="0.88" fill="#EC4899"/><rect x="203.48" y="212.17" width="7.30" height="7.30" rx="0.88" fill="#EC4899"/><rect x="210.78" y="212.17" width="7.30" height="7.30" rx="0.88" fill="#EC4899"/><rect x="218.09" y="212.17" width="7.30" height="7.30" rx="0.88" fill="#A78BFA"/><rect x="225.39" y="212.17" width="7.30" height="7.30" rx="0.88" fill="#A78BFA"/><rect x="232.70" y="212.17" width="7.30" height="7.30" rx="0.88" fill="#A78BFA"/><rect x="240.00" y="212.17" width="7.30" height="7.30" rx="0.88" fill="#A78BFA"/><rect x="247.30" y="212.17" width="7.30" height="7.30" rx="0.88" fill="#A78BFA"/><rect x="254.61" y="212.17" width="7.30" height="7.30" rx="0.88" fill="#A78BFA"/><rect x="261.91" y="212.17" width="7.30" height="7.30" rx="0.88" fill="#EC4899"/><rect x="269.22" y="212.17" width="7.30" height="7.30" rx="0.88" fill="#EC4899"/><rect x="276.52" y="212.17" width="7.30" height="7.30" rx="0.88" fill="#EC4899"/><rect x="283.83" y="212.17" width="7.30" height="7.30" rx="0.88" fill="#DB2777"/><rect x="196.17" y="219.48" width="7.30" height="7.30" rx="0.88" fill="#DB2777"/><rect x="203.48" y="219.48" width="7.30" height="7.30" rx="0.88" fill="#EC4899"/><rect x="210.78" y="219.48" width="7.30" height="7.30" rx="0.88" fill="#EC4899"/><rect x="218.09" y="219.48" width="7.30" height="7.30" rx="0.88" fill="#EC4899"/><rect x="225.39" y="219.48" width="7.30" height="7.30" rx="0.88" fill="#EC4899"/><rect x="232.70" y="219.48" width="7.30" height="7.30" rx="0.88" fill="#EC4899"/><rect x="240.00" y="219.48" width="7.30" height="7.30" rx="0.88" fill="#EC4899"/><rect x="247.30" y="219.48" width="7.30" height="7.30" rx="0.88" fill="#EC4899"/><rect x="254.61" y="219.48" width="7.30" height="7.30" rx="0.88" fill="#EC4899"/><rect x="261.91" y="219.48" width="7.30" height="7.30" rx="0.88" fill="#EC4899"/><rect x="269.22" y="219.48" width="7.30" height="7.30" rx="0.88" fill="#EC4899"/><rect x="276.52" y="219.48" width="7.30" height="7.30" rx="0.88" fill="#DB2777"/><rect x="203.48" y="226.78" width="7.30" height="7.30" rx="0.88" fill="#DB2777"/><rect x="210.78" y="226.78" width="7.30" height="7.30" rx="0.88" fill="#DB2777"/><rect x="218.09" y="226.78" width="7.30" height="7.30" rx="0.88" fill="#DB2777"/><rect x="225.39" y="226.78" width="7.30" height="7.30" rx="0.88" fill="#DB2777"/><rect x="232.70" y="226.78" width="7.30" height="7.30" rx="0.88" fill="#DB2777"/><rect x="240.00" y="226.78" width="7.30" height="7.30" rx="0.88" fill="#DB2777"/><rect x="247.30" y="226.78" width="7.30" height="7.30" rx="0.88" fill="#DB2777"/><rect x="254.61" y="226.78" width="7.30" height="7.30" rx="0.88" fill="#DB2777"/><rect x="261.91" y="226.78" width="7.30" height="7.30" rx="0.88" fill="#DB2777"/><rect x="269.22" y="226.78" width="7.30" height="7.30" rx="0.88" fill="#DB2777"/><rect x="196.17" y="241.39" width="7.30" height="7.30" rx="0.88" fill="#1A1A1A"/><rect x="203.48" y="241.39" width="7.30" height="7.30" rx="0.88" fill="#FFFFFF"/><rect x="210.78" y="241.39" width="7.30" height="7.30" rx="0.88" fill="#1A1A1A"/><rect x="225.39" y="241.39" width="7.30" height="7.30" rx="0.88" fill="#1A1A1A"/><rect x="232.70" y="241.39" width="7.30" height="7.30" rx="0.88" fill="#FFFFFF"/><rect x="240.00" y="241.39" width="7.30" height="7.30" rx="0.88" fill="#1A1A1A"/><rect x="188.87" y="248.70" width="7.30" height="7.30" rx="0.88" fill="#1A1A1A"/><rect x="196.17" y="248.70" width="7.30" height="7.30" rx="0.88" fill="#1A1A1A"/><rect x="203.48" y="248.70" width="7.30" height="7.30" rx="0.88" fill="#1A1A1A"/><rect x="210.78" y="248.70" width="7.30" height="7.30" rx="0.88" fill="#1A1A1A"/><rect x="218.09" y="248.70" width="7.30" height="7.30" rx="0.88" fill="#1A1A1A"/><rect x="225.39" y="248.70" width="7.30" height="7.30" rx="0.88" fill="#1A1A1A"/><rect x="232.70" y="248.70" width="7.30" height="7.30" rx="0.88" fill="#1A1A1A"/><rect x="240.00" y="248.70" width="7.30" height="7.30" rx="0.88" fill="#1A1A1A"/><rect x="247.30" y="248.70" width="7.30" height="7.30" rx="0.88" fill="#1A1A1A"/><rect x="254.61" y="248.70" width="7.30" height="7.30" rx="0.88" fill="#1A1A1A"/>
  <rect x="390" y="20" width="70" height="22" rx="11" fill="#ef4444"/>
  <text x="425" y="35" font-family="-apple-system, sans-serif" font-size="11" font-weight="600" fill="#ffffff" text-anchor="middle">HARD</text>
  <rect x="20" y="20" width="56" height="22" rx="11" fill="#F59E0B" opacity="0.9"/>
  <text x="48" y="35" font-family="-apple-system, sans-serif" font-size="10" font-weight="600" fill="#ffffff" text-anchor="middle">CELEB</text>
  <text x="240" y="286" font-family="-apple-system, 'PingFang SC', sans-serif" font-size="16" font-weight="600" fill="#1d1d1f" text-anchor="middle">BTS 防弹少年团</text>
  <text x="240" y="304" font-family="-apple-system, sans-serif" font-size="11" font-weight="400" fill="#86868b" text-anchor="middle">290 beads · 24×21</text>
</svg>
