<svg xmlns="http://www.w3.org/2000/svg" viewBox="0 0 480 360" width="480" height="360">
  <defs>
    <linearGradient id="bgcelebrityxuezhiqian001" x1="0%" y1="0%" x2="100%" y2="100%">
      <stop offset="0%" stop-color="#A855F7" stop-opacity="0.25"/>
      <stop offset="100%" stop-color="#EC4899" stop-opacity="0.25"/>
    </linearGradient>
    <linearGradient id="cardcelebrityxuezhiqian001" x1="0%" y1="0%" x2="0%" y2="100%">
      <stop offset="0%" stop-color="#ffffff" stop-opacity="0.98"/>
      <stop offset="100%" stop-color="#f5f5f7" stop-opacity="0.95"/>
    </linearGradient>
    <filter id="shadowcelebrityxuezhiqian001" x="-10%" y="-10%" width="120%" height="120%">
      <feGaussianBlur in="SourceAlpha" stdDeviation="4"/>
      <feOffset dx="0" dy="2"/>
      <feComponentTransfer><feFuncA type="linear" slope="0.15"/></feComponentTransfer>
      <feMerge><feMergeNode/><feMergeNode in="SourceGraphic"/></feMerge>
    </filter>
  </defs>
  <rect width="480" height="360" fill="#fafafa"/>
  <rect width="480" height="360" fill="url(#bgcelebrityxuezhiqian001)"/>
  <path d="M 0 340 Q 240 320 480 340" stroke="#F59E0B" stroke-width="1" fill="none" opacity="0.15"/>
  <path d="M 0 20 Q 240 0 480 20" stroke="#A855F7" stroke-width="1" fill="none" opacity="0.2"/>
  <circle cx="30" cy="25" r="2" fill="#A855F7" opacity="0.15"/>
  <circle cx="86" cy="72" r="3" fill="#EC4899" opacity="0.22999999999999998"/>
  <circle cx="142" cy="119" r="4" fill="#F59E0B" opacity="0.31"/>
  <circle cx="198" cy="166" r="5" fill="#A855F7" opacity="0.15"/>
  <circle cx="254" cy="213" r="2" fill="#EC4899" opacity="0.22999999999999998"/>
  <circle cx="310" cy="260" r="3" fill="#F59E0B" opacity="0.31"/>
  <circle cx="366" cy="307" r="4" fill="#A855F7" opacity="0.15"/>
  <circle cx="422" cy="34" r="5" fill="#EC4899" opacity="0.22999999999999998"/>
  <rect x="138" y="70" width="204" height="232" rx="18" fill="url(#cardcelebrityxuezhiqian001)" stroke="rgba(0,0,0,0.06)" stroke-width="1" filter="url(#shadowcelebrityxuezhiqian001)"/>
  <rect x="152" y="84" width="176" height="176" rx="6" fill="#f5f5f7" stroke="rgba(0,0,0,0.08)" stroke-width="1"/>
  <rect x="215.50" y="88.00" width="7.00" height="7.00" rx="0.84" fill="#1A1A1A"/><rect x="222.50" y="88.00" width="7.00" height="7.00" rx="0.84" fill="#1A1A1A"/><rect x="229.50" y="88.00" width="7.00" height="7.00" rx="0.84" fill="#1A1A1A"/><rect x="236.50" y="88.00" width="7.00" height="7.00" rx="0.84" fill="#1A1A1A"/><rect x="243.50" y="88.00" width="7.00" height="7.00" rx="0.84" fill="#1A1A1A"/><rect x="250.50" y="88.00" width="7.00" height="7.00" rx="0.84" fill="#1A1A1A"/><rect x="257.50" y="88.00" width="7.00" height="7.00" rx="0.84" fill="#1A1A1A"/><rect x="201.50" y="95.00" width="7.00" height="7.00" rx="0.84" fill="#1A1A1A"/><rect x="208.50" y="95.00" width="7.00" height="7.00" rx="0.84" fill="#1A1A1A"/><rect x="215.50" y="95.00" width="7.00" height="7.00" rx="0.84" fill="#1A1A1A"/><rect x="222.50" y="95.00" width="7.00" height="7.00" rx="0.84" fill="#3D2817"/><rect x="229.50" y="95.00" width="7.00" height="7.00" rx="0.84" fill="#3D2817"/><rect x="236.50" y="95.00" width="7.00" height="7.00" rx="0.84" fill="#3D2817"/><rect x="243.50" y="95.00" width="7.00" height="7.00" rx="0.84" fill="#3D2817"/><rect x="250.50" y="95.00" width="7.00" height="7.00" rx="0.84" fill="#1A1A1A"/><rect x="257.50" y="95.00" width="7.00" height="7.00" rx="0.84" fill="#1A1A1A"/><rect x="264.50" y="95.00" width="7.00" height="7.00" rx="0.84" fill="#1A1A1A"/><rect x="271.50" y="95.00" width="7.00" height="7.00" rx="0.84" fill="#1A1A1A"/><rect x="194.50" y="102.00" width="7.00" height="7.00" rx="0.84" fill="#1A1A1A"/><rect x="201.50" y="102.00" width="7.00" height="7.00" rx="0.84" fill="#1A1A1A"/><rect x="208.50" y="102.00" width="7.00" height="7.00" rx="0.84" fill="#3D2817"/><rect x="215.50" y="102.00" width="7.00" height="7.00" rx="0.84" fill="#3D2817"/><rect x="222.50" y="102.00" width="7.00" height="7.00" rx="0.84" fill="#6B4423"/><rect x="229.50" y="102.00" width="7.00" height="7.00" rx="0.84" fill="#6B4423"/><rect x="236.50" y="102.00" width="7.00" height="7.00" rx="0.84" fill="#6B4423"/><rect x="243.50" y="102.00" width="7.00" height="7.00" rx="0.84" fill="#3D2817"/><rect x="250.50" y="102.00" width="7.00" height="7.00" rx="0.84" fill="#3D2817"/><rect x="257.50" y="102.00" width="7.00" height="7.00" rx="0.84" fill="#3D2817"/><rect x="264.50" y="102.00" width="7.00" height="7.00" rx="0.84" fill="#1A1A1A"/><rect x="271.50" y="102.00" width="7.00" height="7.00" rx="0.84" fill="#1A1A1A"/><rect x="278.50" y="102.00" width="7.00" height="7.00" rx="0.84" fill="#1A1A1A"/><rect x="187.50" y="109.00" width="7.00" height="7.00" rx="0.84" fill="#1A1A1A"/><rect x="194.50" y="109.00" width="7.00" height="7.00" rx="0.84" fill="#1A1A1A"/><rect x="201.50" y="109.00" width="7.00" height="7.00" rx="0.84" fill="#3D2817"/><rect x="208.50" y="109.00" width="7.00" height="7.00" rx="0.84" fill="#3D2817"/><rect x="215.50" y="109.00" width="7.00" height="7.00" rx="0.84" fill="#6B4423"/><rect x="222.50" y="109.00" width="7.00" height="7.00" rx="0.84" fill="#6B4423"/><rect x="229.50" y="109.00" width="7.00" height="7.00" rx="0.84" fill="#6B4423"/><rect x="236.50" y="109.00" width="7.00" height="7.00" rx="0.84" fill="#6B4423"/><rect x="243.50" y="109.00" width="7.00" height="7.00" rx="0.84" fill="#6B4423"/><rect x="250.50" y="109.00" width="7.00" height="7.00" rx="0.84" fill="#3D2817"/><rect x="257.50" y="109.00" width="7.00" height="7.00" rx="0.84" fill="#3D2817"/><rect x="264.50" y="109.00" width="7.00" height="7.00" rx="0.84" fill="#1A1A1A"/><rect x="271.50" y="109.00" width="7.00" height="7.00" rx="0.84" fill="#1A1A1A"/><rect x="278.50" y="109.00" width="7.00" height="7.00" rx="0.84" fill="#1A1A1A"/><rect x="285.50" y="109.00" width="7.00" height="7.00" rx="0.84" fill="#1A1A1A"/><rect x="180.50" y="116.00" width="7.00" height="7.00" rx="0.84" fill="#1A1A1A"/><rect x="187.50" y="116.00" width="7.00" height="7.00" rx="0.84" fill="#1A1A1A"/><rect x="194.50" y="116.00" width="7.00" height="7.00" rx="0.84" fill="#3D2817"/><rect x="201.50" y="116.00" width="7.00" height="7.00" rx="0.84" fill="#3D2817"/><rect x="208.50" y="116.00" width="7.00" height="7.00" rx="0.84" fill="#6B4423"/><rect x="215.50" y="116.00" width="7.00" height="7.00" rx="0.84" fill="#6B4423"/><rect x="222.50" y="116.00" width="7.00" height="7.00" rx="0.84" fill="#6B4423"/><rect x="229.50" y="116.00" width="7.00" height="7.00" rx="0.84" fill="#6B4423"/><rect x="236.50" y="116.00" width="7.00" height="7.00" rx="0.84" fill="#6B4423"/><rect x="243.50" y="116.00" width="7.00" height="7.00" rx="0.84" fill="#6B4423"/><rect x="250.50" y="116.00" width="7.00" height="7.00" rx="0.84" fill="#6B4423"/><rect x="257.50" y="116.00" width="7.00" height="7.00" rx="0.84" fill="#3D2817"/><rect x="264.50" y="116.00" width="7.00" height="7.00" rx="0.84" fill="#3D2817"/><rect x="271.50" y="116.00" width="7.00" height="7.00" rx="0.84" fill="#1A1A1A"/><rect x="278.50" y="116.00" width="7.00" height="7.00" rx="0.84" fill="#1A1A1A"/><rect x="285.50" y="116.00" width="7.00" height="7.00" rx="0.84" fill="#1A1A1A"/><rect x="292.50" y="116.00" width="7.00" height="7.00" rx="0.84" fill="#1A1A1A"/><rect x="180.50" y="123.00" width="7.00" height="7.00" rx="0.84" fill="#1A1A1A"/><rect x="187.50" y="123.00" width="7.00" height="7.00" rx="0.84" fill="#3D2817"/><rect x="194.50" y="123.00" width="7.00" height="7.00" rx="0.84" fill="#3D2817"/><rect x="201.50" y="123.00" width="7.00" height="7.00" rx="0.84" fill="#6B4423"/><rect x="208.50" y="123.00" width="7.00" height="7.00" rx="0.84" fill="#6B4423"/><rect x="215.50" y="123.00" width="7.00" height="7.00" rx="0.84" fill="#6B4423"/><rect x="222.50" y="123.00" width="7.00" height="7.00" rx="0.84" fill="#6B4423"/><rect x="229.50" y="123.00" width="7.00" height="7.00" rx="0.84" fill="#6B4423"/><rect x="236.50" y="123.00" width="7.00" height="7.00" rx="0.84" fill="#6B4423"/><rect x="243.50" y="123.00" width="7.00" height="7.00" rx="0.84" fill="#6B4423"/><rect x="250.50" y="123.00" width="7.00" height="7.00" rx="0.84" fill="#6B4423"/><rect x="257.50" y="123.00" width="7.00" height="7.00" rx="0.84" fill="#6B4423"/><rect x="264.50" y="123.00" width="7.00" height="7.00" rx="0.84" fill="#3D2817"/><rect x="271.50" y="123.00" width="7.00" height="7.00" rx="0.84" fill="#1A1A1A"/><rect x="278.50" y="123.00" width="7.00" height="7.00" rx="0.84" fill="#1A1A1A"/><rect x="285.50" y="123.00" width="7.00" height="7.00" rx="0.84" fill="#1A1A1A"/><rect x="180.50" y="130.00" width="7.00" height="7.00" rx="0.84" fill="#1A1A1A"/><rect x="187.50" y="130.00" width="7.00" height="7.00" rx="0.84" fill="#3D2817"/><rect x="194.50" y="130.00" width="7.00" height="7.00" rx="0.84" fill="#6B4423"/><rect x="201.50" y="130.00" width="7.00" height="7.00" rx="0.84" fill="#6B4423"/><rect x="208.50" y="130.00" width="7.00" height="7.00" rx="0.84" fill="#6B4423"/><rect x="215.50" y="130.00" width="7.00" height="7.00" rx="0.84" fill="#6B4423"/><rect x="222.50" y="130.00" width="7.00" height="7.00" rx="0.84" fill="#6B4423"/><rect x="229.50" y="130.00" width="7.00" height="7.00" rx="0.84" fill="#6B4423"/><rect x="236.50" y="130.00" width="7.00" height="7.00" rx="0.84" fill="#6B4423"/><rect x="243.50" y="130.00" width="7.00" height="7.00" rx="0.84" fill="#6B4423"/><rect x="250.50" y="130.00" width="7.00" height="7.00" rx="0.84" fill="#6B4423"/><rect x="257.50" y="130.00" width="7.00" height="7.00" rx="0.84" fill="#6B4423"/><rect x="264.50" y="130.00" width="7.00" height="7.00" rx="0.84" fill="#6B4423"/><rect x="271.50" y="130.00" width="7.00" height="7.00" rx="0.84" fill="#3D2817"/><rect x="278.50" y="130.00" width="7.00" height="7.00" rx="0.84" fill="#1A1A1A"/><rect x="285.50" y="130.00" width="7.00" height="7.00" rx="0.84" fill="#1A1A1A"/><rect x="180.50" y="137.00" width="7.00" height="7.00" rx="0.84" fill="#1A1A1A"/><rect x="187.50" y="137.00" width="7.00" height="7.00" rx="0.84" fill="#3D2817"/><rect x="194.50" y="137.00" width="7.00" height="7.00" rx="0.84" fill="#6B4423"/><rect x="201.50" y="137.00" width="7.00" height="7.00" rx="0.84" fill="#6B4423"/><rect x="208.50" y="137.00" width="7.00" height="7.00" rx="0.84" fill="#6B4423"/><rect x="215.50" y="137.00" width="7.00" height="7.00" rx="0.84" fill="#F5DEB3"/><rect x="222.50" y="137.00" width="7.00" height="7.00" rx="0.84" fill="#F5DEB3"/><rect x="229.50" y="137.00" width="7.00" height="7.00" rx="0.84" fill="#F5DEB3"/><rect x="236.50" y="137.00" width="7.00" height="7.00" rx="0.84" fill="#F5DEB3"/><rect x="243.50" y="137.00" width="7.00" height="7.00" rx="0.84" fill="#6B4423"/><rect x="250.50" y="137.00" width="7.00" height="7.00" rx="0.84" fill="#6B4423"/><rect x="257.50" y="137.00" width="7.00" height="7.00" rx="0.84" fill="#6B4423"/><rect x="264.50" y="137.00" width="7.00" height="7.00" rx="0.84" fill="#6B4423"/><rect x="271.50" y="137.00" width="7.00" height="7.00" rx="0.84" fill="#3D2817"/><rect x="278.50" y="137.00" width="7.00" height="7.00" rx="0.84" fill="#1A1A1A"/><rect x="285.50" y="137.00" width="7.00" height="7.00" rx="0.84" fill="#1A1A1A"/><rect x="180.50" y="144.00" width="7.00" height="7.00" rx="0.84" fill="#1A1A1A"/><rect x="187.50" y="144.00" width="7.00" height="7.00" rx="0.84" fill="#3D2817"/><rect x="194.50" y="144.00" width="7.00" height="7.00" rx="0.84" fill="#6B4423"/><rect x="201.50" y="144.00" width="7.00" height="7.00" rx="0.84" fill="#6B4423"/><rect x="208.50" y="144.00" width="7.00" height="7.00" rx="0.84" fill="#F5DEB3"/><rect x="215.50" y="144.00" width="7.00" height="7.00" rx="0.84" fill="#F5DEB3"/><rect x="222.50" y="144.00" width="7.00" height="7.00" rx="0.84" fill="#F5DEB3"/><rect x="229.50" y="144.00" width="7.00" height="7.00" rx="0.84" fill="#F5DEB3"/><rect x="236.50" y="144.00" width="7.00" height="7.00" rx="0.84" fill="#F5DEB3"/><rect x="243.50" y="144.00" width="7.00" height="7.00" rx="0.84" fill="#F5DEB3"/><rect x="250.50" y="144.00" width="7.00" height="7.00" rx="0.84" fill="#6B4423"/><rect x="257.50" y="144.00" width="7.00" height="7.00" rx="0.84" fill="#6B4423"/><rect x="264.50" y="144.00" width="7.00" height="7.00" rx="0.84" fill="#6B4423"/><rect x="271.50" y="144.00" width="7.00" height="7.00" rx="0.84" fill="#3D2817"/><rect x="278.50" y="144.00" width="7.00" height="7.00" rx="0.84" fill="#1A1A1A"/><rect x="285.50" y="144.00" width="7.00" height="7.00" rx="0.84" fill="#1A1A1A"/><rect x="180.50" y="151.00" width="7.00" height="7.00" rx="0.84" fill="#1A1A1A"/><rect x="187.50" y="151.00" width="7.00" height="7.00" rx="0.84" fill="#3D2817"/><rect x="194.50" y="151.00" width="7.00" height="7.00" rx="0.84" fill="#6B4423"/><rect x="201.50" y="151.00" width="7.00" height="7.00" rx="0.84" fill="#F5DEB3"/><rect x="208.50" y="151.00" width="7.00" height="7.00" rx="0.84" fill="#F5DEB3"/><rect x="215.50" y="151.00" width="7.00" height="7.00" rx="0.84" fill="#000000"/><rect x="222.50" y="151.00" width="7.00" height="7.00" rx="0.84" fill="#000000"/><rect x="229.50" y="151.00" width="7.00" height="7.00" rx="0.84" fill="#F5DEB3"/><rect x="236.50" y="151.00" width="7.00" height="7.00" rx="0.84" fill="#F5DEB3"/><rect x="243.50" y="151.00" width="7.00" height="7.00" rx="0.84" fill="#000000"/><rect x="250.50" y="151.00" width="7.00" height="7.00" rx="0.84" fill="#000000"/><rect x="257.50" y="151.00" width="7.00" height="7.00" rx="0.84" fill="#F5DEB3"/><rect x="264.50" y="151.00" width="7.00" height="7.00" rx="0.84" fill="#6B4423"/><rect x="271.50" y="151.00" width="7.00" height="7.00" rx="0.84" fill="#3D2817"/><rect x="278.50" y="151.00" width="7.00" height="7.00" rx="0.84" fill="#1A1A1A"/><rect x="285.50" y="151.00" width="7.00" height="7.00" rx="0.84" fill="#1A1A1A"/><rect x="180.50" y="158.00" width="7.00" height="7.00" rx="0.84" fill="#1A1A1A"/><rect x="187.50" y="158.00" width="7.00" height="7.00" rx="0.84" fill="#3D2817"/><rect x="194.50" y="158.00" width="7.00" height="7.00" rx="0.84" fill="#6B4423"/><rect x="201.50" y="158.00" width="7.00" height="7.00" rx="0.84" fill="#F5DEB3"/><rect x="208.50" y="158.00" width="7.00" height="7.00" rx="0.84" fill="#F5DEB3"/><rect x="215.50" y="158.00" width="7.00" height="7.00" rx="0.84" fill="#FFFFFF"/><rect x="222.50" y="158.00" width="7.00" height="7.00" rx="0.84" fill="#000000"/><rect x="229.50" y="158.00" width="7.00" height="7.00" rx="0.84" fill="#FFFFFF"/><rect x="236.50" y="158.00" width="7.00" height="7.00" rx="0.84" fill="#FFFFFF"/><rect x="243.50" y="158.00" width="7.00" height="7.00" rx="0.84" fill="#000000"/><rect x="250.50" y="158.00" width="7.00" height="7.00" rx="0.84" fill="#FFFFFF"/><rect x="257.50" y="158.00" width="7.00" height="7.00" rx="0.84" fill="#F5DEB3"/><rect x="264.50" y="158.00" width="7.00" height="7.00" rx="0.84" fill="#6B4423"/><rect x="271.50" y="158.00" width="7.00" height="7.00" rx="0.84" fill="#3D2817"/><rect x="278.50" y="158.00" width="7.00" height="7.00" rx="0.84" fill="#1A1A1A"/><rect x="285.50" y="158.00" width="7.00" height="7.00" rx="0.84" fill="#1A1A1A"/><rect x="180.50" y="165.00" width="7.00" height="7.00" rx="0.84" fill="#1A1A1A"/><rect x="187.50" y="165.00" width="7.00" height="7.00" rx="0.84" fill="#3D2817"/><rect x="194.50" y="165.00" width="7.00" height="7.00" rx="0.84" fill="#6B4423"/><rect x="201.50" y="165.00" width="7.00" height="7.00" rx="0.84" fill="#F5DEB3"/><rect x="208.50" y="165.00" width="7.00" height="7.00" rx="0.84" fill="#F5DEB3"/><rect x="215.50" y="165.00" width="7.00" height="7.00" rx="0.84" fill="#F5DEB3"/><rect x="222.50" y="165.00" width="7.00" height="7.00" rx="0.84" fill="#F5DEB3"/><rect x="229.50" y="165.00" width="7.00" height="7.00" rx="0.84" fill="#D2A679"/><rect x="236.50" y="165.00" width="7.00" height="7.00" rx="0.84" fill="#D2A679"/><rect x="243.50" y="165.00" width="7.00" height="7.00" rx="0.84" fill="#F5DEB3"/><rect x="250.50" y="165.00" width="7.00" height="7.00" rx="0.84" fill="#F5DEB3"/><rect x="257.50" y="165.00" width="7.00" height="7.00" rx="0.84" fill="#F5DEB3"/><rect x="264.50" y="165.00" width="7.00" height="7.00" rx="0.84" fill="#6B4423"/><rect x="271.50" y="165.00" width="7.00" height="7.00" rx="0.84" fill="#3D2817"/><rect x="278.50" y="165.00" width="7.00" height="7.00" rx="0.84" fill="#1A1A1A"/><rect x="285.50" y="165.00" width="7.00" height="7.00" rx="0.84" fill="#1A1A1A"/><rect x="180.50" y="172.00" width="7.00" height="7.00" rx="0.84" fill="#1A1A1A"/><rect x="187.50" y="172.00" width="7.00" height="7.00" rx="0.84" fill="#3D2817"/><rect x="194.50" y="172.00" width="7.00" height="7.00" rx="0.84" fill="#6B4423"/><rect x="201.50" y="172.00" width="7.00" height="7.00" rx="0.84" fill="#F5DEB3"/><rect x="208.50" y="172.00" width="7.00" height="7.00" rx="0.84" fill="#F5DEB3"/><rect x="215.50" y="172.00" width="7.00" height="7.00" rx="0.84" fill="#F5DEB3"/><rect x="222.50" y="172.00" width="7.00" height="7.00" rx="0.84" fill="#D2A679"/><rect x="229.50" y="172.00" width="7.00" height="7.00" rx="0.84" fill="#D2A679"/><rect x="236.50" y="172.00" width="7.00" height="7.00" rx="0.84" fill="#D2A679"/><rect x="243.50" y="172.00" width="7.00" height="7.00" rx="0.84" fill="#D2A679"/><rect x="250.50" y="172.00" width="7.00" height="7.00" rx="0.84" fill="#F5DEB3"/><rect x="257.50" y="172.00" width="7.00" height="7.00" rx="0.84" fill="#F5DEB3"/><rect x="264.50" y="172.00" width="7.00" height="7.00" rx="0.84" fill="#6B4423"/><rect x="271.50" y="172.00" width="7.00" height="7.00" rx="0.84" fill="#3D2817"/><rect x="278.50" y="172.00" width="7.00" height="7.00" rx="0.84" fill="#1A1A1A"/><rect x="285.50" y="172.00" width="7.00" height="7.00" rx="0.84" fill="#1A1A1A"/><rect x="180.50" y="179.00" width="7.00" height="7.00" rx="0.84" fill="#1A1A1A"/><rect x="187.50" y="179.00" width="7.00" height="7.00" rx="0.84" fill="#3D2817"/><rect x="194.50" y="179.00" width="7.00" height="7.00" rx="0.84" fill="#6B4423"/><rect x="201.50" y="179.00" width="7.00" height="7.00" rx="0.84" fill="#F5DEB3"/><rect x="208.50" y="179.00" width="7.00" height="7.00" rx="0.84" fill="#F5DEB3"/><rect x="215.50" y="179.00" width="7.00" height="7.00" rx="0.84" fill="#F5DEB3"/><rect x="222.50" y="179.00" width="7.00" height="7.00" rx="0.84" fill="#D2A679"/><rect x="229.50" y="179.00" width="7.00" height="7.00" rx="0.84" fill="#D2A679"/><rect x="236.50" y="179.00" width="7.00" height="7.00" rx="0.84" fill="#D2A679"/><rect x="243.50" y="179.00" width="7.00" height="7.00" rx="0.84" fill="#D2A679"/><rect x="250.50" y="179.00" width="7.00" height="7.00" rx="0.84" fill="#F5DEB3"/><rect x="257.50" y="179.00" width="7.00" height="7.00" rx="0.84" fill="#F5DEB3"/><rect x="264.50" y="179.00" width="7.00" height="7.00" rx="0.84" fill="#6B4423"/><rect x="271.50" y="179.00" width="7.00" height="7.00" rx="0.84" fill="#3D2817"/><rect x="278.50" y="179.00" width="7.00" height="7.00" rx="0.84" fill="#1A1A1A"/><rect x="285.50" y="179.00" width="7.00" height="7.00" rx="0.84" fill="#1A1A1A"/><rect x="180.50" y="186.00" width="7.00" height="7.00" rx="0.84" fill="#1A1A1A"/><rect x="187.50" y="186.00" width="7.00" height="7.00" rx="0.84" fill="#3D2817"/><rect x="194.50" y="186.00" width="7.00" height="7.00" rx="0.84" fill="#6B4423"/><rect x="201.50" y="186.00" width="7.00" height="7.00" rx="0.84" fill="#F5DEB3"/><rect x="208.50" y="186.00" width="7.00" height="7.00" rx="0.84" fill="#F5DEB3"/><rect x="215.50" y="186.00" width="7.00" height="7.00" rx="0.84" fill="#F5DEB3"/><rect x="222.50" y="186.00" width="7.00" height="7.00" rx="0.84" fill="#F5DEB3"/><rect x="229.50" y="186.00" width="7.00" height="7.00" rx="0.84" fill="#D2A679"/><rect x="236.50" y="186.00" width="7.00" height="7.00" rx="0.84" fill="#D2A679"/><rect x="243.50" y="186.00" width="7.00" height="7.00" rx="0.84" fill="#F5DEB3"/><rect x="250.50" y="186.00" width="7.00" height="7.00" rx="0.84" fill="#F5DEB3"/><rect x="257.50" y="186.00" width="7.00" height="7.00" rx="0.84" fill="#F5DEB3"/><rect x="264.50" y="186.00" width="7.00" height="7.00" rx="0.84" fill="#6B4423"/><rect x="271.50" y="186.00" width="7.00" height="7.00" rx="0.84" fill="#3D2817"/><rect x="278.50" y="186.00" width="7.00" height="7.00" rx="0.84" fill="#1A1A1A"/><rect x="285.50" y="186.00" width="7.00" height="7.00" rx="0.84" fill="#1A1A1A"/><rect x="180.50" y="193.00" width="7.00" height="7.00" rx="0.84" fill="#1A1A1A"/><rect x="187.50" y="193.00" width="7.00" height="7.00" rx="0.84" fill="#3D2817"/><rect x="194.50" y="193.00" width="7.00" height="7.00" rx="0.84" fill="#6B4423"/><rect x="201.50" y="193.00" width="7.00" height="7.00" rx="0.84" fill="#F5DEB3"/><rect x="208.50" y="193.00" width="7.00" height="7.00" rx="0.84" fill="#F5DEB3"/><rect x="215.50" y="193.00" width="7.00" height="7.00" rx="0.84" fill="#F5DEB3"/><rect x="222.50" y="193.00" width="7.00" height="7.00" rx="0.84" fill="#F5DEB3"/><rect x="229.50" y="193.00" width="7.00" height="7.00" rx="0.84" fill="#D2A679"/><rect x="236.50" y="193.00" width="7.00" height="7.00" rx="0.84" fill="#D2A679"/><rect x="243.50" y="193.00" width="7.00" height="7.00" rx="0.84" fill="#F5DEB3"/><rect x="250.50" y="193.00" width="7.00" height="7.00" rx="0.84" fill="#F5DEB3"/><rect x="257.50" y="193.00" width="7.00" height="7.00" rx="0.84" fill="#F5DEB3"/><rect x="264.50" y="193.00" width="7.00" height="7.00" rx="0.84" fill="#6B4423"/><rect x="271.50" y="193.00" width="7.00" height="7.00" rx="0.84" fill="#3D2817"/><rect x="278.50" y="193.00" width="7.00" height="7.00" rx="0.84" fill="#1A1A1A"/><rect x="285.50" y="193.00" width="7.00" height="7.00" rx="0.84" fill="#1A1A1A"/><rect x="187.50" y="200.00" width="7.00" height="7.00" rx="0.84" fill="#1A1A1A"/><rect x="194.50" y="200.00" width="7.00" height="7.00" rx="0.84" fill="#3D2817"/><rect x="201.50" y="200.00" width="7.00" height="7.00" rx="0.84" fill="#6B4423"/><rect x="208.50" y="200.00" width="7.00" height="7.00" rx="0.84" fill="#F5DEB3"/><rect x="215.50" y="200.00" width="7.00" height="7.00" rx="0.84" fill="#F5DEB3"/><rect x="222.50" y="200.00" width="7.00" height="7.00" rx="0.84" fill="#F5DEB3"/><rect x="229.50" y="200.00" width="7.00" height="7.00" rx="0.84" fill="#F5DEB3"/><rect x="236.50" y="200.00" width="7.00" height="7.00" rx="0.84" fill="#F5DEB3"/><rect x="243.50" y="200.00" width="7.00" height="7.00" rx="0.84" fill="#F5DEB3"/><rect x="250.50" y="200.00" width="7.00" height="7.00" rx="0.84" fill="#F5DEB3"/><rect x="257.50" y="200.00" width="7.00" height="7.00" rx="0.84" fill="#6B4423"/><rect x="264.50" y="200.00" width="7.00" height="7.00" rx="0.84" fill="#3D2817"/><rect x="271.50" y="200.00" width="7.00" height="7.00" rx="0.84" fill="#1A1A1A"/><rect x="278.50" y="200.00" width="7.00" height="7.00" rx="0.84" fill="#1A1A1A"/><rect x="187.50" y="207.00" width="7.00" height="7.00" rx="0.84" fill="#1A1A1A"/><rect x="194.50" y="207.00" width="7.00" height="7.00" rx="0.84" fill="#3D2817"/><rect x="201.50" y="207.00" width="7.00" height="7.00" rx="0.84" fill="#6B4423"/><rect x="208.50" y="207.00" width="7.00" height="7.00" rx="0.84" fill="#F5DEB3"/><rect x="215.50" y="207.00" width="7.00" height="7.00" rx="0.84" fill="#F5DEB3"/><rect x="222.50" y="207.00" width="7.00" height="7.00" rx="0.84" fill="#F5DEB3"/><rect x="229.50" y="207.00" width="7.00" height="7.00" rx="0.84" fill="#F5DEB3"/><rect x="236.50" y="207.00" width="7.00" height="7.00" rx="0.84" fill="#F5DEB3"/><rect x="243.50" y="207.00" width="7.00" height="7.00" rx="0.84" fill="#F5DEB3"/><rect x="250.50" y="207.00" width="7.00" height="7.00" rx="0.84" fill="#F5DEB3"/><rect x="257.50" y="207.00" width="7.00" height="7.00" rx="0.84" fill="#6B4423"/><rect x="264.50" y="207.00" width="7.00" height="7.00" rx="0.84" fill="#3D2817"/><rect x="271.50" y="207.00" width="7.00" height="7.00" rx="0.84" fill="#1A1A1A"/><rect x="278.50" y="207.00" width="7.00" height="7.00" rx="0.84" fill="#1A1A1A"/><rect x="194.50" y="214.00" width="7.00" height="7.00" rx="0.84" fill="#1A1A1A"/><rect x="201.50" y="214.00" width="7.00" height="7.00" rx="0.84" fill="#3D2817"/><rect x="208.50" y="214.00" width="7.00" height="7.00" rx="0.84" fill="#6B4423"/><rect x="215.50" y="214.00" width="7.00" height="7.00" rx="0.84" fill="#F5DEB3"/><rect x="222.50" y="214.00" width="7.00" height="7.00" rx="0.84" fill="#F5DEB3"/><rect x="229.50" y="214.00" width="7.00" height="7.00" rx="0.84" fill="#F5DEB3"/><rect x="236.50" y="214.00" width="7.00" height="7.00" rx="0.84" fill="#F5DEB3"/><rect x="243.50" y="214.00" width="7.00" height="7.00" rx="0.84" fill="#F5DEB3"/><rect x="250.50" y="214.00" width="7.00" height="7.00" rx="0.84" fill="#6B4423"/><rect x="257.50" y="214.00" width="7.00" height="7.00" rx="0.84" fill="#3D2817"/><rect x="264.50" y="214.00" width="7.00" height="7.00" rx="0.84" fill="#1A1A1A"/><rect x="271.50" y="214.00" width="7.00" height="7.00" rx="0.84" fill="#1A1A1A"/><rect x="201.50" y="221.00" width="7.00" height="7.00" rx="0.84" fill="#1A1A1A"/><rect x="208.50" y="221.00" width="7.00" height="7.00" rx="0.84" fill="#3D2817"/><rect x="215.50" y="221.00" width="7.00" height="7.00" rx="0.84" fill="#3D2817"/><rect x="222.50" y="221.00" width="7.00" height="7.00" rx="0.84" fill="#6B4423"/><rect x="229.50" y="221.00" width="7.00" height="7.00" rx="0.84" fill="#6B4423"/><rect x="236.50" y="221.00" width="7.00" height="7.00" rx="0.84" fill="#6B4423"/><rect x="243.50" y="221.00" width="7.00" height="7.00" rx="0.84" fill="#3D2817"/><rect x="250.50" y="221.00" width="7.00" height="7.00" rx="0.84" fill="#3D2817"/><rect x="257.50" y="221.00" width="7.00" height="7.00" rx="0.84" fill="#1A1A1A"/><rect x="264.50" y="221.00" width="7.00" height="7.00" rx="0.84" fill="#1A1A1A"/><rect x="208.50" y="228.00" width="7.00" height="7.00" rx="0.84" fill="#1A1A1A"/><rect x="215.50" y="228.00" width="7.00" height="7.00" rx="0.84" fill="#1A1A1A"/><rect x="222.50" y="228.00" width="7.00" height="7.00" rx="0.84" fill="#8B5E3C"/><rect x="229.50" y="228.00" width="7.00" height="7.00" rx="0.84" fill="#8B5E3C"/><rect x="236.50" y="228.00" width="7.00" height="7.00" rx="0.84" fill="#8B5E3C"/><rect x="243.50" y="228.00" width="7.00" height="7.00" rx="0.84" fill="#1A1A1A"/><rect x="250.50" y="228.00" width="7.00" height="7.00" rx="0.84" fill="#1A1A1A"/><rect x="257.50" y="228.00" width="7.00" height="7.00" rx="0.84" fill="#1A1A1A"/><rect x="201.50" y="235.00" width="7.00" height="7.00" rx="0.84" fill="#1A1A1A"/><rect x="208.50" y="235.00" width="7.00" height="7.00" rx="0.84" fill="#8B5E3C"/><rect x="215.50" y="235.00" width="7.00" height="7.00" rx="0.84" fill="#8B5E3C"/><rect x="222.50" y="235.00" width="7.00" height="7.00" rx="0.84" fill="#2C2C2C"/><rect x="229.50" y="235.00" width="7.00" height="7.00" rx="0.84" fill="#2C2C2C"/><rect x="236.50" y="235.00" width="7.00" height="7.00" rx="0.84" fill="#2C2C2C"/><rect x="243.50" y="235.00" width="7.00" height="7.00" rx="0.84" fill="#2C2C2C"/><rect x="250.50" y="235.00" width="7.00" height="7.00" rx="0.84" fill="#8B5E3C"/><rect x="257.50" y="235.00" width="7.00" height="7.00" rx="0.84" fill="#8B5E3C"/><rect x="264.50" y="235.00" width="7.00" height="7.00" rx="0.84" fill="#1A1A1A"/><rect x="201.50" y="242.00" width="7.00" height="7.00" rx="0.84" fill="#8B5E3C"/><rect x="208.50" y="242.00" width="7.00" height="7.00" rx="0.84" fill="#2C2C2C"/><rect x="215.50" y="242.00" width="7.00" height="7.00" rx="0.84" fill="#2C2C2C"/><rect x="222.50" y="242.00" width="7.00" height="7.00" rx="0.84" fill="#2C2C2C"/><rect x="229.50" y="242.00" width="7.00" height="7.00" rx="0.84" fill="#2C2C2C"/><rect x="236.50" y="242.00" width="7.00" height="7.00" rx="0.84" fill="#2C2C2C"/><rect x="243.50" y="242.00" width="7.00" height="7.00" rx="0.84" fill="#2C2C2C"/><rect x="250.50" y="242.00" width="7.00" height="7.00" rx="0.84" fill="#2C2C2C"/><rect x="257.50" y="242.00" width="7.00" height="7.00" rx="0.84" fill="#2C2C2C"/><rect x="264.50" y="242.00" width="7.00" height="7.00" rx="0.84" fill="#8B5E3C"/><rect x="208.50" y="249.00" width="7.00" height="7.00" rx="0.84" fill="#8B5E3C"/><rect x="215.50" y="249.00" width="7.00" height="7.00" rx="0.84" fill="#2C2C2C"/><rect x="222.50" y="249.00" width="7.00" height="7.00" rx="0.84" fill="#2C2C2C"/><rect x="229.50" y="249.00" width="7.00" height="7.00" rx="0.84" fill="#2C2C2C"/><rect x="236.50" y="249.00" width="7.00" height="7.00" rx="0.84" fill="#2C2C2C"/><rect x="243.50" y="249.00" width="7.00" height="7.00" rx="0.84" fill="#2C2C2C"/><rect x="250.50" y="249.00" width="7.00" height="7.00" rx="0.84" fill="#2C2C2C"/><rect x="257.50" y="249.00" width="7.00" height="7.00" rx="0.84" fill="#8B5E3C"/>
  <rect x="390" y="20" width="70" height="22" rx="11" fill="#ef4444"/>
  <text x="425" y="35" font-family="-apple-system, sans-serif" font-size="11" font-weight="600" fill="#ffffff" text-anchor="middle">HARD</text>
  <rect x="20" y="20" width="56" height="22" rx="11" fill="#F59E0B" opacity="0.9"/>
  <text x="48" y="35" font-family="-apple-system, sans-serif" font-size="10" font-weight="600" fill="#ffffff" text-anchor="middle">CELEB</text>
  <text x="240" y="286" font-family="-apple-system, 'PingFang SC', sans-serif" font-size="16" font-weight="600" fill="#1d1d1f" text-anchor="middle">薛之谦</text>
  <text x="240" y="304" font-family="-apple-system, sans-serif" font-size="11" font-weight="400" fill="#86868b" text-anchor="middle">325 beads · 24×20</text>
</svg>
