<?xml version="1.0" encoding="UTF-8"?>
<svg xmlns="http://www.w3.org/2000/svg" viewBox="0 0 480 360" width="480" height="360">
  
    <defs>
      <linearGradient id="bg" x1="0" y1="0" x2="1" y2="1">
        <stop offset="0%" stop-color="#00BFFF" stop-opacity="0.15"/>
        <stop offset="100%" stop-color="#87CEEB" stop-opacity="0.25"/>
      </linearGradient>
      <linearGradient id="card" x1="0" y1="0" x2="0" y2="1">
        <stop offset="0%" stop-color="#ffffff"/>
        <stop offset="100%" stop-color="#f8f9fa"/>
      </linearGradient>
      <filter id="shadow" x="-20%" y="-20%" width="140%" height="140%">
        <feDropShadow dx="0" dy="4" stdDeviation="6" flood-opacity="0.15"/>
      </filter>
    </defs>
  
  <rect width="480" height="360" fill="url(#bg)" />
  <rect x="38" y="113" width="6" height="6" rx="1" fill="#87CEEB" opacity="0.30" /><rect x="200" y="338" width="8" height="8" rx="1" fill="#00BFFF" opacity="0.15" /><rect x="363" y="242" width="4" height="4" rx="1" fill="#FFFFFF" opacity="0.25" /><rect x="86" y="50" width="4" height="4" rx="1" fill="#00BFFF" opacity="0.10" /><rect x="249" y="275" width="6" height="6" rx="1" fill="#FFFFFF" opacity="0.20" /><rect x="412" y="179" width="8" height="8" rx="1" fill="#87CEEB" opacity="0.30" /><rect x="134" y="307" width="8" height="8" rx="1" fill="#FFFFFF" opacity="0.15" /><rect x="297" y="212" width="4" height="4" rx="1" fill="#87CEEB" opacity="0.25" /><rect x="20" y="20" width="4" height="4" rx="1" fill="#FFFFFF" opacity="0.10" /><rect x="183" y="244" width="6" height="6" rx="1" fill="#87CEEB" opacity="0.20" /><rect x="346" y="149" width="8" height="8" rx="1" fill="#00BFFF" opacity="0.30" /><rect x="68" y="277" width="8" height="8" rx="1" fill="#87CEEB" opacity="0.15" />
  <rect x="162" y="103" width="156" height="114" rx="12" fill="url(#card)" filter="url(#shadow)" />
  <rect x="212" y="111" width="14" height="14" rx="2" fill="#00BFFF" /><rect x="226" y="111" width="14" height="14" rx="2" fill="#00BFFF" /><rect x="240" y="111" width="14" height="14" rx="2" fill="#00BFFF" /><rect x="254" y="111" width="14" height="14" rx="2" fill="#00BFFF" /><rect x="198" y="125" width="14" height="14" rx="2" fill="#00BFFF" /><rect x="212" y="125" width="14" height="14" rx="2" fill="#00BFFF" /><rect x="226" y="125" width="14" height="14" rx="2" fill="#87CEEB" /><rect x="240" y="125" width="14" height="14" rx="2" fill="#87CEEB" /><rect x="254" y="125" width="14" height="14" rx="2" fill="#00BFFF" /><rect x="268" y="125" width="14" height="14" rx="2" fill="#00BFFF" /><rect x="184" y="139" width="14" height="14" rx="2" fill="#00BFFF" /><rect x="198" y="139" width="14" height="14" rx="2" fill="#00BFFF" /><rect x="212" y="139" width="14" height="14" rx="2" fill="#87CEEB" /><rect x="226" y="139" width="14" height="14" rx="2" fill="#87CEEB" /><rect x="240" y="139" width="14" height="14" rx="2" fill="#87CEEB" /><rect x="254" y="139" width="14" height="14" rx="2" fill="#87CEEB" /><rect x="268" y="139" width="14" height="14" rx="2" fill="#00BFFF" /><rect x="282" y="139" width="14" height="14" rx="2" fill="#00BFFF" /><rect x="170" y="153" width="14" height="14" rx="2" fill="#00BFFF" /><rect x="184" y="153" width="14" height="14" rx="2" fill="#00BFFF" /><rect x="198" y="153" width="14" height="14" rx="2" fill="#87CEEB" /><rect x="212" y="153" width="14" height="14" rx="2" fill="#87CEEB" /><rect x="226" y="153" width="14" height="14" rx="2" fill="#FFFFFF" /><rect x="240" y="153" width="14" height="14" rx="2" fill="#FFFFFF" /><rect x="254" y="153" width="14" height="14" rx="2" fill="#87CEEB" /><rect x="268" y="153" width="14" height="14" rx="2" fill="#87CEEB" /><rect x="282" y="153" width="14" height="14" rx="2" fill="#00BFFF" /><rect x="296" y="153" width="14" height="14" rx="2" fill="#00BFFF" /><rect x="184" y="167" width="14" height="14" rx="2" fill="#00BFFF" /><rect x="198" y="167" width="14" height="14" rx="2" fill="#00BFFF" /><rect x="212" y="167" width="14" height="14" rx="2" fill="#87CEEB" /><rect x="226" y="167" width="14" height="14" rx="2" fill="#87CEEB" /><rect x="240" y="167" width="14" height="14" rx="2" fill="#87CEEB" /><rect x="254" y="167" width="14" height="14" rx="2" fill="#87CEEB" /><rect x="268" y="167" width="14" height="14" rx="2" fill="#00BFFF" /><rect x="282" y="167" width="14" height="14" rx="2" fill="#00BFFF" /><rect x="198" y="181" width="14" height="14" rx="2" fill="#00BFFF" /><rect x="212" y="181" width="14" height="14" rx="2" fill="#00BFFF" /><rect x="226" y="181" width="14" height="14" rx="2" fill="#87CEEB" /><rect x="240" y="181" width="14" height="14" rx="2" fill="#87CEEB" /><rect x="254" y="181" width="14" height="14" rx="2" fill="#00BFFF" /><rect x="268" y="181" width="14" height="14" rx="2" fill="#00BFFF" /><rect x="212" y="195" width="14" height="14" rx="2" fill="#00BFFF" /><rect x="226" y="195" width="14" height="14" rx="2" fill="#00BFFF" /><rect x="240" y="195" width="14" height="14" rx="2" fill="#00BFFF" /><rect x="254" y="195" width="14" height="14" rx="2" fill="#00BFFF" />
  <rect x="390" y="16" width="74" height="26" rx="13" fill="#22c55e" />
  <text x="427" y="33" text-anchor="middle" fill="#fff" font-size="13" font-family="system-ui, sans-serif" font-weight="600">简单</text>
  <text x="240" y="340" text-anchor="middle" fill="#1f2937" font-size="20" font-family="system-ui, sans-serif" font-weight="700">钻石</text>
</svg>