<?xml version="1.0" encoding="UTF-8"?>
<svg xmlns="http://www.w3.org/2000/svg" viewBox="0 0 480 360" width="480" height="360">
  
    <defs>
      <linearGradient id="bg" x1="0" y1="0" x2="1" y2="1">
        <stop offset="0%" stop-color="#FFD700" stop-opacity="0.15"/>
        <stop offset="100%" stop-color="#FFA500" stop-opacity="0.25"/>
      </linearGradient>
      <linearGradient id="card" x1="0" y1="0" x2="0" y2="1">
        <stop offset="0%" stop-color="#ffffff"/>
        <stop offset="100%" stop-color="#f8f9fa"/>
      </linearGradient>
      <filter id="shadow" x="-20%" y="-20%" width="140%" height="140%">
        <feDropShadow dx="0" dy="4" stdDeviation="6" flood-opacity="0.15"/>
      </filter>
    </defs>
  
  <rect width="480" height="360" fill="url(#bg)" />
  <rect x="161" y="128" width="8" height="8" rx="1" fill="#FFD700" opacity="0.20" /><rect x="324" y="32" width="4" height="4" rx="1" fill="#FFD700" opacity="0.30" /><rect x="46" y="160" width="4" height="4" rx="1" fill="#FFD700" opacity="0.15" /><rect x="209" y="64" width="6" height="6" rx="1" fill="#FFD700" opacity="0.25" /><rect x="372" y="289" width="8" height="8" rx="1" fill="#FFD700" opacity="0.10" /><rect x="95" y="97" width="8" height="8" rx="1" fill="#FFD700" opacity="0.20" /><rect x="258" y="321" width="4" height="4" rx="1" fill="#FFD700" opacity="0.30" /><rect x="420" y="226" width="6" height="6" rx="1" fill="#FFD700" opacity="0.15" /><rect x="143" y="34" width="6" height="6" rx="1" fill="#FFD700" opacity="0.25" /><rect x="306" y="258" width="8" height="8" rx="1" fill="#FFD700" opacity="0.10" /><rect x="29" y="67" width="8" height="8" rx="1" fill="#FFD700" opacity="0.20" /><rect x="192" y="291" width="4" height="4" rx="1" fill="#FFD700" opacity="0.30" />
  <rect x="176" y="103" width="128" height="114" rx="12" fill="url(#card)" filter="url(#shadow)" />
  <rect x="240" y="111" width="14" height="14" rx="2" fill="#FFD700" /><rect x="226" y="125" width="14" height="14" rx="2" fill="#FFD700" /><rect x="240" y="125" width="14" height="14" rx="2" fill="#FFD700" /><rect x="212" y="139" width="14" height="14" rx="2" fill="#FFD700" /><rect x="226" y="139" width="14" height="14" rx="2" fill="#FFD700" /><rect x="240" y="139" width="14" height="14" rx="2" fill="#FFD700" /><rect x="226" y="153" width="14" height="14" rx="2" fill="#FFD700" /><rect x="240" y="153" width="14" height="14" rx="2" fill="#FFD700" /><rect x="254" y="153" width="14" height="14" rx="2" fill="#FFD700" /><rect x="240" y="167" width="14" height="14" rx="2" fill="#FFD700" /><rect x="254" y="167" width="14" height="14" rx="2" fill="#FFD700" /><rect x="254" y="181" width="14" height="14" rx="2" fill="#FFD700" />
  <rect x="390" y="16" width="74" height="26" rx="13" fill="#22c55e" />
  <text x="427" y="33" text-anchor="middle" fill="#fff" font-size="13" font-family="system-ui, sans-serif" font-weight="600">简单</text>
  <text x="240" y="340" text-anchor="middle" fill="#1f2937" font-size="20" font-family="system-ui, sans-serif" font-weight="700">闪电</text>
</svg>