<?xml version="1.0" encoding="UTF-8"?>
<svg xmlns="http://www.w3.org/2000/svg" viewBox="0 0 480 360" width="480" height="360">
  
    <defs>
      <linearGradient id="bg" x1="0" y1="0" x2="1" y2="1">
        <stop offset="0%" stop-color="#FAEBD7" stop-opacity="0.15"/>
        <stop offset="100%" stop-color="#FAEBD7" stop-opacity="0.25"/>
      </linearGradient>
      <linearGradient id="card" x1="0" y1="0" x2="0" y2="1">
        <stop offset="0%" stop-color="#ffffff"/>
        <stop offset="100%" stop-color="#f8f9fa"/>
      </linearGradient>
      <filter id="shadow" x="-20%" y="-20%" width="140%" height="140%">
        <feDropShadow dx="0" dy="4" stdDeviation="6" flood-opacity="0.15"/>
      </filter>
    </defs>
  
  <rect width="480" height="360" fill="url(#bg)" />
  <rect x="354" y="195" width="6" height="6" rx="1" fill="#D2691E" opacity="0.15" /><rect x="77" y="324" width="6" height="6" rx="1" fill="#FFFFFF" opacity="0.25" /><rect x="240" y="228" width="8" height="8" rx="1" fill="#D2691E" opacity="0.10" /><rect x="403" y="132" width="4" height="4" rx="1" fill="#FFFFFF" opacity="0.20" /><rect x="126" y="261" width="4" height="4" rx="1" fill="#D2691E" opacity="0.30" /><rect x="288" y="165" width="6" height="6" rx="1" fill="#FFFFFF" opacity="0.15" /><rect x="451" y="69" width="8" height="8" rx="1" fill="#D2691E" opacity="0.25" /><rect x="174" y="198" width="8" height="8" rx="1" fill="#FFFFFF" opacity="0.10" /><rect x="337" y="102" width="4" height="4" rx="1" fill="#D2691E" opacity="0.20" /><rect x="60" y="230" width="4" height="4" rx="1" fill="#FFFFFF" opacity="0.30" /><rect x="222" y="135" width="6" height="6" rx="1" fill="#D2691E" opacity="0.15" /><rect x="385" y="39" width="8" height="8" rx="1" fill="#FFFFFF" opacity="0.25" />
  <rect x="134" y="89" width="212" height="142" rx="12" fill="url(#card)" filter="url(#shadow)" />
  <rect x="170" y="97" width="14" height="14" rx="2" fill="#D2691E" /><rect x="184" y="97" width="14" height="14" rx="2" fill="#D2691E" /><rect x="198" y="97" width="14" height="14" rx="2" fill="#D2691E" /><rect x="212" y="97" width="14" height="14" rx="2" fill="#D2691E" /><rect x="226" y="97" width="14" height="14" rx="2" fill="#D2691E" /><rect x="240" y="97" width="14" height="14" rx="2" fill="#D2691E" /><rect x="254" y="97" width="14" height="14" rx="2" fill="#D2691E" /><rect x="268" y="97" width="14" height="14" rx="2" fill="#D2691E" /><rect x="282" y="97" width="14" height="14" rx="2" fill="#D2691E" /><rect x="156" y="111" width="14" height="14" rx="2" fill="#D2691E" /><rect x="170" y="111" width="14" height="14" rx="2" fill="#D2691E" /><rect x="184" y="111" width="14" height="14" rx="2" fill="#D2691E" /><rect x="198" y="111" width="14" height="14" rx="2" fill="#D2691E" /><rect x="212" y="111" width="14" height="14" rx="2" fill="#D2691E" /><rect x="226" y="111" width="14" height="14" rx="2" fill="#D2691E" /><rect x="240" y="111" width="14" height="14" rx="2" fill="#D2691E" /><rect x="254" y="111" width="14" height="14" rx="2" fill="#D2691E" /><rect x="268" y="111" width="14" height="14" rx="2" fill="#D2691E" /><rect x="282" y="111" width="14" height="14" rx="2" fill="#D2691E" /><rect x="296" y="111" width="14" height="14" rx="2" fill="#D2691E" /><rect x="156" y="125" width="14" height="14" rx="2" fill="#D2691E" /><rect x="170" y="125" width="14" height="14" rx="2" fill="#D2691E" /><rect x="184" y="125" width="14" height="14" rx="2" fill="#FAEBD7" /><rect x="198" y="125" width="14" height="14" rx="2" fill="#FAEBD7" /><rect x="212" y="125" width="14" height="14" rx="2" fill="#FAEBD7" /><rect x="226" y="125" width="14" height="14" rx="2" fill="#FAEBD7" /><rect x="240" y="125" width="14" height="14" rx="2" fill="#FAEBD7" /><rect x="254" y="125" width="14" height="14" rx="2" fill="#D2691E" /><rect x="268" y="125" width="14" height="14" rx="2" fill="#D2691E" /><rect x="282" y="125" width="14" height="14" rx="2" fill="#D2691E" /><rect x="296" y="125" width="14" height="14" rx="2" fill="#D2691E" /><rect x="156" y="139" width="14" height="14" rx="2" fill="#D2691E" /><rect x="170" y="139" width="14" height="14" rx="2" fill="#FAEBD7" /><rect x="184" y="139" width="14" height="14" rx="2" fill="#FAEBD7" /><rect x="198" y="139" width="14" height="14" rx="2" fill="#FFFFFF" /><rect x="212" y="139" width="14" height="14" rx="2" fill="#FFFFFF" /><rect x="226" y="139" width="14" height="14" rx="2" fill="#FFFFFF" /><rect x="240" y="139" width="14" height="14" rx="2" fill="#FAEBD7" /><rect x="254" y="139" width="14" height="14" rx="2" fill="#FAEBD7" /><rect x="268" y="139" width="14" height="14" rx="2" fill="#D2691E" /><rect x="282" y="139" width="14" height="14" rx="2" fill="#D2691E" /><rect x="170" y="153" width="14" height="14" rx="2" fill="#D2691E" /><rect x="184" y="153" width="14" height="14" rx="2" fill="#FAEBD7" /><rect x="198" y="153" width="14" height="14" rx="2" fill="#FFFFFF" /><rect x="212" y="153" width="14" height="14" rx="2" fill="#FFFFFF" /><rect x="226" y="153" width="14" height="14" rx="2" fill="#FFFFFF" /><rect x="240" y="153" width="14" height="14" rx="2" fill="#FFFFFF" /><rect x="254" y="153" width="14" height="14" rx="2" fill="#FAEBD7" /><rect x="268" y="153" width="14" height="14" rx="2" fill="#D2691E" /><rect x="170" y="167" width="14" height="14" rx="2" fill="#D2691E" /><rect x="184" y="167" width="14" height="14" rx="2" fill="#FAEBD7" /><rect x="198" y="167" width="14" height="14" rx="2" fill="#FFFFFF" /><rect x="212" y="167" width="14" height="14" rx="2" fill="#FFFFFF" /><rect x="226" y="167" width="14" height="14" rx="2" fill="#FFFFFF" /><rect x="240" y="167" width="14" height="14" rx="2" fill="#FFFFFF" /><rect x="254" y="167" width="14" height="14" rx="2" fill="#FAEBD7" /><rect x="268" y="167" width="14" height="14" rx="2" fill="#D2691E" /><rect x="170" y="181" width="14" height="14" rx="2" fill="#D2691E" /><rect x="184" y="181" width="14" height="14" rx="2" fill="#FAEBD7" /><rect x="198" y="181" width="14" height="14" rx="2" fill="#FFFFFF" /><rect x="212" y="181" width="14" height="14" rx="2" fill="#FFFFFF" /><rect x="226" y="181" width="14" height="14" rx="2" fill="#FFFFFF" /><rect x="240" y="181" width="14" height="14" rx="2" fill="#FFFFFF" /><rect x="254" y="181" width="14" height="14" rx="2" fill="#FAEBD7" /><rect x="268" y="181" width="14" height="14" rx="2" fill="#D2691E" /><rect x="184" y="195" width="14" height="14" rx="2" fill="#D2691E" /><rect x="198" y="195" width="14" height="14" rx="2" fill="#FAEBD7" /><rect x="212" y="195" width="14" height="14" rx="2" fill="#FAEBD7" /><rect x="226" y="195" width="14" height="14" rx="2" fill="#FAEBD7" /><rect x="240" y="195" width="14" height="14" rx="2" fill="#FAEBD7" /><rect x="254" y="195" width="14" height="14" rx="2" fill="#D2691E" /><rect x="198" y="209" width="14" height="14" rx="2" fill="#D2691E" /><rect x="212" y="209" width="14" height="14" rx="2" fill="#D2691E" /><rect x="226" y="209" width="14" height="14" rx="2" fill="#D2691E" /><rect x="240" y="209" width="14" height="14" rx="2" fill="#D2691E" />
  <rect x="390" y="16" width="74" height="26" rx="13" fill="#22c55e" />
  <text x="427" y="33" text-anchor="middle" fill="#fff" font-size="13" font-family="system-ui, sans-serif" font-weight="600">简单</text>
  <text x="240" y="340" text-anchor="middle" fill="#1f2937" font-size="20" font-family="system-ui, sans-serif" font-weight="700">拿铁咖啡</text>
</svg>