<svg xmlns="http://www.w3.org/2000/svg" viewBox="0 0 480 360" width="480" height="360">
  <defs>
    <linearGradient id="bgfoodfeast013" x1="0%" y1="0%" x2="100%" y2="100%">
      <stop offset="0%" stop-color="#FB923C" stop-opacity="0.25"/>
      <stop offset="100%" stop-color="#FBBF24" stop-opacity="0.25"/>
    </linearGradient>
    <linearGradient id="cardfoodfeast013" x1="0%" y1="0%" x2="0%" y2="100%">
      <stop offset="0%" stop-color="#ffffff" stop-opacity="0.98"/>
      <stop offset="100%" stop-color="#f5f5f7" stop-opacity="0.95"/>
    </linearGradient>
    <linearGradient id="boardfoodfeast013" x1="0%" y1="0%" x2="0%" y2="100%">
      <stop offset="0%" stop-color="#1d1d1f" stop-opacity="0.04"/>
      <stop offset="100%" stop-color="#1d1d1f" stop-opacity="0.08"/>
    </linearGradient>
    <filter id="shadowfoodfeast013" x="-10%" y="-10%" width="120%" height="120%">
      <feGaussianBlur in="SourceAlpha" stdDeviation="4"/>
      <feOffset dx="0" dy="2"/>
      <feComponentTransfer><feFuncA type="linear" slope="0.15"/></feComponentTransfer>
      <feMerge><feMergeNode/><feMergeNode in="SourceGraphic"/></feMerge>
    </filter>
  </defs>
  <rect width="480" height="360" fill="#fafafa"/>
  <rect width="480" height="360" fill="url(#bgfoodfeast013)"/>
  <path d="M 0 340 Q 240 320 480 340" stroke="#E74C3C" stroke-width="1" fill="none" opacity="0.15"/>
  <path d="M 0 20 Q 240 0 480 20" stroke="#FB923C" stroke-width="1" fill="none" opacity="0.2"/>
  <circle cx="30" cy="25" r="2" fill="#FB923C" opacity="0.15"/>
  <circle cx="86" cy="72" r="3" fill="#FBBF24" opacity="0.22999999999999998"/>
  <circle cx="142" cy="119" r="4" fill="#E74C3C" opacity="0.31"/>
  <circle cx="198" cy="166" r="5" fill="#FB923C" opacity="0.15"/>
  <circle cx="254" cy="213" r="2" fill="#FBBF24" opacity="0.22999999999999998"/>
  <circle cx="310" cy="260" r="3" fill="#E74C3C" opacity="0.31"/>
  <circle cx="366" cy="307" r="4" fill="#FB923C" opacity="0.15"/>
  <circle cx="422" cy="34" r="5" fill="#FBBF24" opacity="0.22999999999999998"/>
  <rect x="138" y="70" width="204" height="232" rx="18" fill="url(#cardfoodfeast013)" stroke="rgba(0,0,0,0.06)" stroke-width="1" filter="url(#shadowfoodfeast013)"/>
  <!-- 像素预览底板（深色，让浅色像素可见） -->
  <rect x="152" y="84" width="176" height="176" rx="6" fill="#f5f5f7" stroke="rgba(0,0,0,0.08)" stroke-width="1"/>
  <!-- 像素网格 -->
  <rect x="240.00" y="101.13" width="5.25" height="5.25" fill="#FF8C42"/><rect x="229.50" y="106.38" width="5.25" height="5.25" fill="#FF8C42"/><rect x="234.75" y="106.38" width="5.25" height="5.25" fill="#FF8C42"/><rect x="240.00" y="106.38" width="5.25" height="5.25" fill="#FF8C42"/><rect x="245.25" y="106.38" width="5.25" height="5.25" fill="#FF8C42"/><rect x="250.50" y="106.38" width="5.25" height="5.25" fill="#FF8C42"/><rect x="187.50" y="111.63" width="5.25" height="5.25" fill="#8D6E63"/><rect x="229.50" y="111.63" width="5.25" height="5.25" fill="#FF8C42"/><rect x="234.75" y="111.63" width="5.25" height="5.25" fill="#FF8C42"/><rect x="240.00" y="111.63" width="5.25" height="5.25" fill="#FF8C42"/><rect x="245.25" y="111.63" width="5.25" height="5.25" fill="#FF8C42"/><rect x="250.50" y="111.63" width="5.25" height="5.25" fill="#FF8C42"/><rect x="292.50" y="111.63" width="5.25" height="5.25" fill="#66BB6A"/><rect x="177.00" y="116.88" width="5.25" height="5.25" fill="#8D6E63"/><rect x="182.25" y="116.88" width="5.25" height="5.25" fill="#8D6E63"/><rect x="187.50" y="116.88" width="5.25" height="5.25" fill="#8D6E63"/><rect x="192.75" y="116.88" width="5.25" height="5.25" fill="#8D6E63"/><rect x="198.00" y="116.88" width="5.25" height="5.25" fill="#8D6E63"/><rect x="224.25" y="116.88" width="5.25" height="5.25" fill="#FF8C42"/><rect x="229.50" y="116.88" width="5.25" height="5.25" fill="#FF8C42"/><rect x="234.75" y="116.88" width="5.25" height="5.25" fill="#FF8C42"/><rect x="240.00" y="116.88" width="5.25" height="5.25" fill="#FFB6C1"/><rect x="245.25" y="116.88" width="5.25" height="5.25" fill="#FF8C42"/><rect x="250.50" y="116.88" width="5.25" height="5.25" fill="#FF8C42"/><rect x="255.75" y="116.88" width="5.25" height="5.25" fill="#FF8C42"/><rect x="282.00" y="116.88" width="5.25" height="5.25" fill="#66BB6A"/><rect x="287.25" y="116.88" width="5.25" height="5.25" fill="#66BB6A"/><rect x="292.50" y="116.88" width="5.25" height="5.25" fill="#66BB6A"/><rect x="297.75" y="116.88" width="5.25" height="5.25" fill="#66BB6A"/><rect x="303.00" y="116.88" width="5.25" height="5.25" fill="#66BB6A"/><rect x="177.00" y="122.13" width="5.25" height="5.25" fill="#8D6E63"/><rect x="182.25" y="122.13" width="5.25" height="5.25" fill="#8D6E63"/><rect x="187.50" y="122.13" width="5.25" height="5.25" fill="#8D6E63"/><rect x="192.75" y="122.13" width="5.25" height="5.25" fill="#8D6E63"/><rect x="198.00" y="122.13" width="5.25" height="5.25" fill="#8D6E63"/><rect x="229.50" y="122.13" width="5.25" height="5.25" fill="#FF8C42"/><rect x="234.75" y="122.13" width="5.25" height="5.25" fill="#FF8C42"/><rect x="240.00" y="122.13" width="5.25" height="5.25" fill="#FF8C42"/><rect x="245.25" y="122.13" width="5.25" height="5.25" fill="#FF8C42"/><rect x="250.50" y="122.13" width="5.25" height="5.25" fill="#FF8C42"/><rect x="282.00" y="122.13" width="5.25" height="5.25" fill="#66BB6A"/><rect x="287.25" y="122.13" width="5.25" height="5.25" fill="#66BB6A"/><rect x="292.50" y="122.13" width="5.25" height="5.25" fill="#66BB6A"/><rect x="297.75" y="122.13" width="5.25" height="5.25" fill="#66BB6A"/><rect x="303.00" y="122.13" width="5.25" height="5.25" fill="#66BB6A"/><rect x="171.75" y="127.38" width="5.25" height="5.25" fill="#8D6E63"/><rect x="177.00" y="127.38" width="5.25" height="5.25" fill="#8D6E63"/><rect x="182.25" y="127.38" width="5.25" height="5.25" fill="#8D6E63"/><rect x="187.50" y="127.38" width="5.25" height="5.25" fill="#1A1A1A"/><rect x="192.75" y="127.38" width="5.25" height="5.25" fill="#8D6E63"/><rect x="198.00" y="127.38" width="5.25" height="5.25" fill="#8D6E63"/><rect x="203.25" y="127.38" width="5.25" height="5.25" fill="#8D6E63"/><rect x="229.50" y="127.38" width="5.25" height="5.25" fill="#FF8C42"/><rect x="234.75" y="127.38" width="5.25" height="5.25" fill="#FF8C42"/><rect x="240.00" y="127.38" width="5.25" height="5.25" fill="#FF8C42"/><rect x="245.25" y="127.38" width="5.25" height="5.25" fill="#FF8C42"/><rect x="250.50" y="127.38" width="5.25" height="5.25" fill="#FF8C42"/><rect x="276.75" y="127.38" width="5.25" height="5.25" fill="#66BB6A"/><rect x="282.00" y="127.38" width="5.25" height="5.25" fill="#66BB6A"/><rect x="287.25" y="127.38" width="5.25" height="5.25" fill="#66BB6A"/><rect x="292.50" y="127.38" width="5.25" height="5.25" fill="#66BB6A"/><rect x="297.75" y="127.38" width="5.25" height="5.25" fill="#66BB6A"/><rect x="303.00" y="127.38" width="5.25" height="5.25" fill="#66BB6A"/><rect x="308.25" y="127.38" width="5.25" height="5.25" fill="#66BB6A"/><rect x="177.00" y="132.63" width="5.25" height="5.25" fill="#8D6E63"/><rect x="182.25" y="132.63" width="5.25" height="5.25" fill="#8D6E63"/><rect x="187.50" y="132.63" width="5.25" height="5.25" fill="#8D6E63"/><rect x="192.75" y="132.63" width="5.25" height="5.25" fill="#8D6E63"/><rect x="198.00" y="132.63" width="5.25" height="5.25" fill="#8D6E63"/><rect x="240.00" y="132.63" width="5.25" height="5.25" fill="#FF8C42"/><rect x="282.00" y="132.63" width="5.25" height="5.25" fill="#66BB6A"/><rect x="287.25" y="132.63" width="5.25" height="5.25" fill="#66BB6A"/><rect x="292.50" y="132.63" width="5.25" height="5.25" fill="#66BB6A"/><rect x="297.75" y="132.63" width="5.25" height="5.25" fill="#66BB6A"/><rect x="303.00" y="132.63" width="5.25" height="5.25" fill="#66BB6A"/><rect x="177.00" y="137.88" width="5.25" height="5.25" fill="#8D6E63"/><rect x="182.25" y="137.88" width="5.25" height="5.25" fill="#8D6E63"/><rect x="187.50" y="137.88" width="5.25" height="5.25" fill="#8D6E63"/><rect x="192.75" y="137.88" width="5.25" height="5.25" fill="#8D6E63"/><rect x="198.00" y="137.88" width="5.25" height="5.25" fill="#8D6E63"/><rect x="282.00" y="137.88" width="5.25" height="5.25" fill="#66BB6A"/><rect x="287.25" y="137.88" width="5.25" height="5.25" fill="#66BB6A"/><rect x="292.50" y="137.88" width="5.25" height="5.25" fill="#66BB6A"/><rect x="297.75" y="137.88" width="5.25" height="5.25" fill="#66BB6A"/><rect x="303.00" y="137.88" width="5.25" height="5.25" fill="#66BB6A"/><rect x="187.50" y="143.13" width="5.25" height="5.25" fill="#8D6E63"/><rect x="292.50" y="143.13" width="5.25" height="5.25" fill="#66BB6A"/><rect x="156.00" y="148.38" width="5.25" height="5.25" fill="#8D6E63"/><rect x="161.25" y="148.38" width="5.25" height="5.25" fill="#8D6E63"/><rect x="166.50" y="148.38" width="5.25" height="5.25" fill="#8D6E63"/><rect x="171.75" y="148.38" width="5.25" height="5.25" fill="#8D6E63"/><rect x="177.00" y="148.38" width="5.25" height="5.25" fill="#8D6E63"/><rect x="182.25" y="148.38" width="5.25" height="5.25" fill="#8D6E63"/><rect x="187.50" y="148.38" width="5.25" height="5.25" fill="#8D6E63"/><rect x="192.75" y="148.38" width="5.25" height="5.25" fill="#8D6E63"/><rect x="198.00" y="148.38" width="5.25" height="5.25" fill="#8D6E63"/><rect x="203.25" y="148.38" width="5.25" height="5.25" fill="#8D6E63"/><rect x="208.50" y="148.38" width="5.25" height="5.25" fill="#8D6E63"/><rect x="213.75" y="148.38" width="5.25" height="5.25" fill="#8D6E63"/><rect x="219.00" y="148.38" width="5.25" height="5.25" fill="#8D6E63"/><rect x="224.25" y="148.38" width="5.25" height="5.25" fill="#8D6E63"/><rect x="229.50" y="148.38" width="5.25" height="5.25" fill="#8D6E63"/><rect x="234.75" y="148.38" width="5.25" height="5.25" fill="#8D6E63"/><rect x="240.00" y="148.38" width="5.25" height="5.25" fill="#8D6E63"/><rect x="245.25" y="148.38" width="5.25" height="5.25" fill="#8D6E63"/><rect x="250.50" y="148.38" width="5.25" height="5.25" fill="#8D6E63"/><rect x="255.75" y="148.38" width="5.25" height="5.25" fill="#8D6E63"/><rect x="261.00" y="148.38" width="5.25" height="5.25" fill="#8D6E63"/><rect x="266.25" y="148.38" width="5.25" height="5.25" fill="#8D6E63"/><rect x="271.50" y="148.38" width="5.25" height="5.25" fill="#8D6E63"/><rect x="276.75" y="148.38" width="5.25" height="5.25" fill="#8D6E63"/><rect x="282.00" y="148.38" width="5.25" height="5.25" fill="#8D6E63"/><rect x="287.25" y="148.38" width="5.25" height="5.25" fill="#8D6E63"/><rect x="292.50" y="148.38" width="5.25" height="5.25" fill="#8D6E63"/><rect x="297.75" y="148.38" width="5.25" height="5.25" fill="#8D6E63"/><rect x="303.00" y="148.38" width="5.25" height="5.25" fill="#8D6E63"/><rect x="308.25" y="148.38" width="5.25" height="5.25" fill="#8D6E63"/><rect x="313.50" y="148.38" width="5.25" height="5.25" fill="#8D6E63"/><rect x="318.75" y="148.38" width="5.25" height="5.25" fill="#8D6E63"/><rect x="166.50" y="158.88" width="5.25" height="5.25" fill="#8E44AD"/><rect x="171.75" y="158.88" width="5.25" height="5.25" fill="#8E44AD"/><rect x="177.00" y="158.88" width="5.25" height="5.25" fill="#8E44AD"/><rect x="182.25" y="158.88" width="5.25" height="5.25" fill="#8E44AD"/><rect x="187.50" y="158.88" width="5.25" height="5.25" fill="#8E44AD"/><rect x="192.75" y="158.88" width="5.25" height="5.25" fill="#8E44AD"/><rect x="198.00" y="158.88" width="5.25" height="5.25" fill="#8E44AD"/><rect x="203.25" y="158.88" width="5.25" height="5.25" fill="#8E44AD"/><rect x="208.50" y="158.88" width="5.25" height="5.25" fill="#8E44AD"/><rect x="213.75" y="158.88" width="5.25" height="5.25" fill="#8E44AD"/><rect x="219.00" y="158.88" width="5.25" height="5.25" fill="#8E44AD"/><rect x="224.25" y="158.88" width="5.25" height="5.25" fill="#8E44AD"/><rect x="229.50" y="158.88" width="5.25" height="5.25" fill="#8E44AD"/><rect x="234.75" y="158.88" width="5.25" height="5.25" fill="#8E44AD"/><rect x="240.00" y="158.88" width="5.25" height="5.25" fill="#8E44AD"/><rect x="245.25" y="158.88" width="5.25" height="5.25" fill="#8E44AD"/><rect x="250.50" y="158.88" width="5.25" height="5.25" fill="#8E44AD"/><rect x="255.75" y="158.88" width="5.25" height="5.25" fill="#8E44AD"/><rect x="261.00" y="158.88" width="5.25" height="5.25" fill="#8E44AD"/><rect x="266.25" y="158.88" width="5.25" height="5.25" fill="#8E44AD"/><rect x="271.50" y="158.88" width="5.25" height="5.25" fill="#8E44AD"/><rect x="276.75" y="158.88" width="5.25" height="5.25" fill="#8E44AD"/><rect x="282.00" y="158.88" width="5.25" height="5.25" fill="#8E44AD"/><rect x="287.25" y="158.88" width="5.25" height="5.25" fill="#8E44AD"/><rect x="292.50" y="158.88" width="5.25" height="5.25" fill="#8E44AD"/><rect x="297.75" y="158.88" width="5.25" height="5.25" fill="#8E44AD"/><rect x="303.00" y="158.88" width="5.25" height="5.25" fill="#8E44AD"/><rect x="308.25" y="158.88" width="5.25" height="5.25" fill="#8E44AD"/><rect x="313.50" y="158.88" width="5.25" height="5.25" fill="#8E44AD"/><rect x="166.50" y="164.13" width="5.25" height="5.25" fill="#8E44AD"/><rect x="171.75" y="164.13" width="5.25" height="5.25" fill="#8E44AD"/><rect x="177.00" y="164.13" width="5.25" height="5.25" fill="#8E44AD"/><rect x="182.25" y="164.13" width="5.25" height="5.25" fill="#8E44AD"/><rect x="187.50" y="164.13" width="5.25" height="5.25" fill="#8E44AD"/><rect x="192.75" y="164.13" width="5.25" height="5.25" fill="#8E44AD"/><rect x="198.00" y="164.13" width="5.25" height="5.25" fill="#8E44AD"/><rect x="203.25" y="164.13" width="5.25" height="5.25" fill="#8E44AD"/><rect x="208.50" y="164.13" width="5.25" height="5.25" fill="#8E44AD"/><rect x="213.75" y="164.13" width="5.25" height="5.25" fill="#8E44AD"/><rect x="219.00" y="164.13" width="5.25" height="5.25" fill="#8E44AD"/><rect x="224.25" y="164.13" width="5.25" height="5.25" fill="#8E44AD"/><rect x="229.50" y="164.13" width="5.25" height="5.25" fill="#8E44AD"/><rect x="234.75" y="164.13" width="5.25" height="5.25" fill="#8E44AD"/><rect x="240.00" y="164.13" width="5.25" height="5.25" fill="#FFD700"/><rect x="245.25" y="164.13" width="5.25" height="5.25" fill="#8E44AD"/><rect x="250.50" y="164.13" width="5.25" height="5.25" fill="#8E44AD"/><rect x="255.75" y="164.13" width="5.25" height="5.25" fill="#8E44AD"/><rect x="261.00" y="164.13" width="5.25" height="5.25" fill="#8E44AD"/><rect x="266.25" y="164.13" width="5.25" height="5.25" fill="#8E44AD"/><rect x="271.50" y="164.13" width="5.25" height="5.25" fill="#8E44AD"/><rect x="276.75" y="164.13" width="5.25" height="5.25" fill="#8E44AD"/><rect x="282.00" y="164.13" width="5.25" height="5.25" fill="#8E44AD"/><rect x="287.25" y="164.13" width="5.25" height="5.25" fill="#8E44AD"/><rect x="292.50" y="164.13" width="5.25" height="5.25" fill="#8E44AD"/><rect x="297.75" y="164.13" width="5.25" height="5.25" fill="#8E44AD"/><rect x="303.00" y="164.13" width="5.25" height="5.25" fill="#8E44AD"/><rect x="308.25" y="164.13" width="5.25" height="5.25" fill="#8E44AD"/><rect x="313.50" y="164.13" width="5.25" height="5.25" fill="#8E44AD"/><rect x="166.50" y="169.38" width="5.25" height="5.25" fill="#8E44AD"/><rect x="171.75" y="169.38" width="5.25" height="5.25" fill="#8E44AD"/><rect x="177.00" y="169.38" width="5.25" height="5.25" fill="#8E44AD"/><rect x="182.25" y="169.38" width="5.25" height="5.25" fill="#8E44AD"/><rect x="187.50" y="169.38" width="5.25" height="5.25" fill="#8E44AD"/><rect x="192.75" y="169.38" width="5.25" height="5.25" fill="#8E44AD"/><rect x="198.00" y="169.38" width="5.25" height="5.25" fill="#8E44AD"/><rect x="203.25" y="169.38" width="5.25" height="5.25" fill="#8E44AD"/><rect x="208.50" y="169.38" width="5.25" height="5.25" fill="#8E44AD"/><rect x="213.75" y="169.38" width="5.25" height="5.25" fill="#8E44AD"/><rect x="219.00" y="169.38" width="5.25" height="5.25" fill="#8E44AD"/><rect x="224.25" y="169.38" width="5.25" height="5.25" fill="#8E44AD"/><rect x="229.50" y="169.38" width="5.25" height="5.25" fill="#8E44AD"/><rect x="234.75" y="169.38" width="5.25" height="5.25" fill="#FFD700"/><rect x="240.00" y="169.38" width="5.25" height="5.25" fill="#FFD700"/><rect x="245.25" y="169.38" width="5.25" height="5.25" fill="#FFD700"/><rect x="250.50" y="169.38" width="5.25" height="5.25" fill="#8E44AD"/><rect x="255.75" y="169.38" width="5.25" height="5.25" fill="#8E44AD"/><rect x="261.00" y="169.38" width="5.25" height="5.25" fill="#8E44AD"/><rect x="266.25" y="169.38" width="5.25" height="5.25" fill="#8E44AD"/><rect x="271.50" y="169.38" width="5.25" height="5.25" fill="#8E44AD"/><rect x="276.75" y="169.38" width="5.25" height="5.25" fill="#8E44AD"/><rect x="282.00" y="169.38" width="5.25" height="5.25" fill="#8E44AD"/><rect x="287.25" y="169.38" width="5.25" height="5.25" fill="#8E44AD"/><rect x="292.50" y="169.38" width="5.25" height="5.25" fill="#8E44AD"/><rect x="297.75" y="169.38" width="5.25" height="5.25" fill="#8E44AD"/><rect x="303.00" y="169.38" width="5.25" height="5.25" fill="#8E44AD"/><rect x="308.25" y="169.38" width="5.25" height="5.25" fill="#8E44AD"/><rect x="313.50" y="169.38" width="5.25" height="5.25" fill="#8E44AD"/><rect x="166.50" y="174.63" width="5.25" height="5.25" fill="#8E44AD"/><rect x="171.75" y="174.63" width="5.25" height="5.25" fill="#8E44AD"/><rect x="177.00" y="174.63" width="5.25" height="5.25" fill="#8E44AD"/><rect x="182.25" y="174.63" width="5.25" height="5.25" fill="#8E44AD"/><rect x="187.50" y="174.63" width="5.25" height="5.25" fill="#8E44AD"/><rect x="192.75" y="174.63" width="5.25" height="5.25" fill="#8E44AD"/><rect x="198.00" y="174.63" width="5.25" height="5.25" fill="#8E44AD"/><rect x="203.25" y="174.63" width="5.25" height="5.25" fill="#8E44AD"/><rect x="208.50" y="174.63" width="5.25" height="5.25" fill="#8E44AD"/><rect x="213.75" y="174.63" width="5.25" height="5.25" fill="#8E44AD"/><rect x="219.00" y="174.63" width="5.25" height="5.25" fill="#8E44AD"/><rect x="224.25" y="174.63" width="5.25" height="5.25" fill="#8E44AD"/><rect x="229.50" y="174.63" width="5.25" height="5.25" fill="#8E44AD"/><rect x="234.75" y="174.63" width="5.25" height="5.25" fill="#8E44AD"/><rect x="240.00" y="174.63" width="5.25" height="5.25" fill="#FFD700"/><rect x="245.25" y="174.63" width="5.25" height="5.25" fill="#8E44AD"/><rect x="250.50" y="174.63" width="5.25" height="5.25" fill="#8E44AD"/><rect x="255.75" y="174.63" width="5.25" height="5.25" fill="#8E44AD"/><rect x="261.00" y="174.63" width="5.25" height="5.25" fill="#8E44AD"/><rect x="266.25" y="174.63" width="5.25" height="5.25" fill="#8E44AD"/><rect x="271.50" y="174.63" width="5.25" height="5.25" fill="#8E44AD"/><rect x="276.75" y="174.63" width="5.25" height="5.25" fill="#8E44AD"/><rect x="282.00" y="174.63" width="5.25" height="5.25" fill="#8E44AD"/><rect x="287.25" y="174.63" width="5.25" height="5.25" fill="#8E44AD"/><rect x="292.50" y="174.63" width="5.25" height="5.25" fill="#8E44AD"/><rect x="297.75" y="174.63" width="5.25" height="5.25" fill="#8E44AD"/><rect x="303.00" y="174.63" width="5.25" height="5.25" fill="#8E44AD"/><rect x="308.25" y="174.63" width="5.25" height="5.25" fill="#8E44AD"/><rect x="313.50" y="174.63" width="5.25" height="5.25" fill="#8E44AD"/><rect x="166.50" y="179.88" width="5.25" height="5.25" fill="#8E44AD"/><rect x="171.75" y="179.88" width="5.25" height="5.25" fill="#8E44AD"/><rect x="177.00" y="179.88" width="5.25" height="5.25" fill="#8E44AD"/><rect x="182.25" y="179.88" width="5.25" height="5.25" fill="#8E44AD"/><rect x="187.50" y="179.88" width="5.25" height="5.25" fill="#8E44AD"/><rect x="192.75" y="179.88" width="5.25" height="5.25" fill="#8E44AD"/><rect x="198.00" y="179.88" width="5.25" height="5.25" fill="#8E44AD"/><rect x="203.25" y="179.88" width="5.25" height="5.25" fill="#8E44AD"/><rect x="208.50" y="179.88" width="5.25" height="5.25" fill="#8E44AD"/><rect x="213.75" y="179.88" width="5.25" height="5.25" fill="#8E44AD"/><rect x="219.00" y="179.88" width="5.25" height="5.25" fill="#8E44AD"/><rect x="224.25" y="179.88" width="5.25" height="5.25" fill="#8E44AD"/><rect x="229.50" y="179.88" width="5.25" height="5.25" fill="#8E44AD"/><rect x="234.75" y="179.88" width="5.25" height="5.25" fill="#8E44AD"/><rect x="240.00" y="179.88" width="5.25" height="5.25" fill="#8E44AD"/><rect x="245.25" y="179.88" width="5.25" height="5.25" fill="#8E44AD"/><rect x="250.50" y="179.88" width="5.25" height="5.25" fill="#8E44AD"/><rect x="255.75" y="179.88" width="5.25" height="5.25" fill="#8E44AD"/><rect x="261.00" y="179.88" width="5.25" height="5.25" fill="#8E44AD"/><rect x="266.25" y="179.88" width="5.25" height="5.25" fill="#8E44AD"/><rect x="271.50" y="179.88" width="5.25" height="5.25" fill="#8E44AD"/><rect x="276.75" y="179.88" width="5.25" height="5.25" fill="#8E44AD"/><rect x="282.00" y="179.88" width="5.25" height="5.25" fill="#8E44AD"/><rect x="287.25" y="179.88" width="5.25" height="5.25" fill="#8E44AD"/><rect x="292.50" y="179.88" width="5.25" height="5.25" fill="#8E44AD"/><rect x="297.75" y="179.88" width="5.25" height="5.25" fill="#8E44AD"/><rect x="303.00" y="179.88" width="5.25" height="5.25" fill="#8E44AD"/><rect x="308.25" y="179.88" width="5.25" height="5.25" fill="#8E44AD"/><rect x="313.50" y="179.88" width="5.25" height="5.25" fill="#8E44AD"/><rect x="156.00" y="190.38" width="5.25" height="5.25" fill="#8D6E63"/><rect x="161.25" y="190.38" width="5.25" height="5.25" fill="#8D6E63"/><rect x="166.50" y="190.38" width="5.25" height="5.25" fill="#8D6E63"/><rect x="171.75" y="190.38" width="5.25" height="5.25" fill="#8D6E63"/><rect x="177.00" y="190.38" width="5.25" height="5.25" fill="#8D6E63"/><rect x="182.25" y="190.38" width="5.25" height="5.25" fill="#8D6E63"/><rect x="187.50" y="190.38" width="5.25" height="5.25" fill="#8D6E63"/><rect x="192.75" y="190.38" width="5.25" height="5.25" fill="#8D6E63"/><rect x="198.00" y="190.38" width="5.25" height="5.25" fill="#8D6E63"/><rect x="203.25" y="190.38" width="5.25" height="5.25" fill="#8D6E63"/><rect x="208.50" y="190.38" width="5.25" height="5.25" fill="#8D6E63"/><rect x="213.75" y="190.38" width="5.25" height="5.25" fill="#8D6E63"/><rect x="219.00" y="190.38" width="5.25" height="5.25" fill="#8D6E63"/><rect x="224.25" y="190.38" width="5.25" height="5.25" fill="#8D6E63"/><rect x="229.50" y="190.38" width="5.25" height="5.25" fill="#8D6E63"/><rect x="234.75" y="190.38" width="5.25" height="5.25" fill="#8D6E63"/><rect x="240.00" y="190.38" width="5.25" height="5.25" fill="#8D6E63"/><rect x="245.25" y="190.38" width="5.25" height="5.25" fill="#8D6E63"/><rect x="250.50" y="190.38" width="5.25" height="5.25" fill="#8D6E63"/><rect x="255.75" y="190.38" width="5.25" height="5.25" fill="#8D6E63"/><rect x="261.00" y="190.38" width="5.25" height="5.25" fill="#8D6E63"/><rect x="266.25" y="190.38" width="5.25" height="5.25" fill="#8D6E63"/><rect x="271.50" y="190.38" width="5.25" height="5.25" fill="#8D6E63"/><rect x="276.75" y="190.38" width="5.25" height="5.25" fill="#8D6E63"/><rect x="282.00" y="190.38" width="5.25" height="5.25" fill="#8D6E63"/><rect x="287.25" y="190.38" width="5.25" height="5.25" fill="#8D6E63"/><rect x="292.50" y="190.38" width="5.25" height="5.25" fill="#8D6E63"/><rect x="297.75" y="190.38" width="5.25" height="5.25" fill="#8D6E63"/><rect x="303.00" y="190.38" width="5.25" height="5.25" fill="#8D6E63"/><rect x="308.25" y="190.38" width="5.25" height="5.25" fill="#8D6E63"/><rect x="313.50" y="190.38" width="5.25" height="5.25" fill="#8D6E63"/><rect x="318.75" y="190.38" width="5.25" height="5.25" fill="#8D6E63"/><rect x="187.50" y="195.63" width="5.25" height="5.25" fill="#E74C3C"/><rect x="292.50" y="195.63" width="5.25" height="5.25" fill="#FFFFFF"/><rect x="177.00" y="200.88" width="5.25" height="5.25" fill="#E74C3C"/><rect x="182.25" y="200.88" width="5.25" height="5.25" fill="#E74C3C"/><rect x="187.50" y="200.88" width="5.25" height="5.25" fill="#E74C3C"/><rect x="192.75" y="200.88" width="5.25" height="5.25" fill="#E74C3C"/><rect x="198.00" y="200.88" width="5.25" height="5.25" fill="#E74C3C"/><rect x="282.00" y="200.88" width="5.25" height="5.25" fill="#FFFFFF"/><rect x="287.25" y="200.88" width="5.25" height="5.25" fill="#FFFFFF"/><rect x="292.50" y="200.88" width="5.25" height="5.25" fill="#FFFFFF"/><rect x="297.75" y="200.88" width="5.25" height="5.25" fill="#FFFFFF"/><rect x="303.00" y="200.88" width="5.25" height="5.25" fill="#FFFFFF"/><rect x="177.00" y="206.13" width="5.25" height="5.25" fill="#E74C3C"/><rect x="182.25" y="206.13" width="5.25" height="5.25" fill="#E74C3C"/><rect x="187.50" y="206.13" width="5.25" height="5.25" fill="#E74C3C"/><rect x="192.75" y="206.13" width="5.25" height="5.25" fill="#E74C3C"/><rect x="198.00" y="206.13" width="5.25" height="5.25" fill="#E74C3C"/><rect x="240.00" y="206.13" width="5.25" height="5.25" fill="#FFB6C1"/><rect x="282.00" y="206.13" width="5.25" height="5.25" fill="#FFFFFF"/><rect x="287.25" y="206.13" width="5.25" height="5.25" fill="#FFFFFF"/><rect x="292.50" y="206.13" width="5.25" height="5.25" fill="#FFFFFF"/><rect x="297.75" y="206.13" width="5.25" height="5.25" fill="#FFFFFF"/><rect x="303.00" y="206.13" width="5.25" height="5.25" fill="#FFFFFF"/><rect x="171.75" y="211.38" width="5.25" height="5.25" fill="#E74C3C"/><rect x="177.00" y="211.38" width="5.25" height="5.25" fill="#E74C3C"/><rect x="182.25" y="211.38" width="5.25" height="5.25" fill="#E74C3C"/><rect x="187.50" y="211.38" width="5.25" height="5.25" fill="#FFD700"/><rect x="192.75" y="211.38" width="5.25" height="5.25" fill="#E74C3C"/><rect x="198.00" y="211.38" width="5.25" height="5.25" fill="#E74C3C"/><rect x="203.25" y="211.38" width="5.25" height="5.25" fill="#E74C3C"/><rect x="229.50" y="211.38" width="5.25" height="5.25" fill="#FFB6C1"/><rect x="234.75" y="211.38" width="5.25" height="5.25" fill="#FFB6C1"/><rect x="240.00" y="211.38" width="5.25" height="5.25" fill="#FFB6C1"/><rect x="245.25" y="211.38" width="5.25" height="5.25" fill="#FFB6C1"/><rect x="250.50" y="211.38" width="5.25" height="5.25" fill="#FFB6C1"/><rect x="276.75" y="211.38" width="5.25" height="5.25" fill="#FFFFFF"/><rect x="282.00" y="211.38" width="5.25" height="5.25" fill="#FFFFFF"/><rect x="287.25" y="211.38" width="5.25" height="5.25" fill="#FFFFFF"/><rect x="292.50" y="211.38" width="5.25" height="5.25" fill="#E74C3C"/><rect x="297.75" y="211.38" width="5.25" height="5.25" fill="#FFFFFF"/><rect x="303.00" y="211.38" width="5.25" height="5.25" fill="#FFFFFF"/><rect x="308.25" y="211.38" width="5.25" height="5.25" fill="#FFFFFF"/><rect x="177.00" y="216.63" width="5.25" height="5.25" fill="#E74C3C"/><rect x="182.25" y="216.63" width="5.25" height="5.25" fill="#E74C3C"/><rect x="187.50" y="216.63" width="5.25" height="5.25" fill="#E74C3C"/><rect x="192.75" y="216.63" width="5.25" height="5.25" fill="#E74C3C"/><rect x="198.00" y="216.63" width="5.25" height="5.25" fill="#E74C3C"/><rect x="229.50" y="216.63" width="5.25" height="5.25" fill="#FFB6C1"/><rect x="234.75" y="216.63" width="5.25" height="5.25" fill="#FFB6C1"/><rect x="240.00" y="216.63" width="5.25" height="5.25" fill="#FFB6C1"/><rect x="245.25" y="216.63" width="5.25" height="5.25" fill="#FFB6C1"/><rect x="250.50" y="216.63" width="5.25" height="5.25" fill="#FFB6C1"/><rect x="282.00" y="216.63" width="5.25" height="5.25" fill="#FFFFFF"/><rect x="287.25" y="216.63" width="5.25" height="5.25" fill="#FFFFFF"/><rect x="292.50" y="216.63" width="5.25" height="5.25" fill="#FFFFFF"/><rect x="297.75" y="216.63" width="5.25" height="5.25" fill="#FFFFFF"/><rect x="303.00" y="216.63" width="5.25" height="5.25" fill="#FFFFFF"/><rect x="177.00" y="221.88" width="5.25" height="5.25" fill="#E74C3C"/><rect x="182.25" y="221.88" width="5.25" height="5.25" fill="#E74C3C"/><rect x="187.50" y="221.88" width="5.25" height="5.25" fill="#E74C3C"/><rect x="192.75" y="221.88" width="5.25" height="5.25" fill="#E74C3C"/><rect x="198.00" y="221.88" width="5.25" height="5.25" fill="#E74C3C"/><rect x="224.25" y="221.88" width="5.25" height="5.25" fill="#FFB6C1"/><rect x="229.50" y="221.88" width="5.25" height="5.25" fill="#FFB6C1"/><rect x="234.75" y="221.88" width="5.25" height="5.25" fill="#FFB6C1"/><rect x="240.00" y="221.88" width="5.25" height="5.25" fill="#FFB6C1"/><rect x="245.25" y="221.88" width="5.25" height="5.25" fill="#FFB6C1"/><rect x="250.50" y="221.88" width="5.25" height="5.25" fill="#FFB6C1"/><rect x="255.75" y="221.88" width="5.25" height="5.25" fill="#FFB6C1"/><rect x="282.00" y="221.88" width="5.25" height="5.25" fill="#FFFFFF"/><rect x="287.25" y="221.88" width="5.25" height="5.25" fill="#FFFFFF"/><rect x="292.50" y="221.88" width="5.25" height="5.25" fill="#FFFFFF"/><rect x="297.75" y="221.88" width="5.25" height="5.25" fill="#FFFFFF"/><rect x="303.00" y="221.88" width="5.25" height="5.25" fill="#FFFFFF"/><rect x="187.50" y="227.13" width="5.25" height="5.25" fill="#E74C3C"/><rect x="229.50" y="227.13" width="5.25" height="5.25" fill="#FFB6C1"/><rect x="234.75" y="227.13" width="5.25" height="5.25" fill="#FFB6C1"/><rect x="240.00" y="227.13" width="5.25" height="5.25" fill="#FFB6C1"/><rect x="245.25" y="227.13" width="5.25" height="5.25" fill="#FFB6C1"/><rect x="250.50" y="227.13" width="5.25" height="5.25" fill="#FFB6C1"/><rect x="292.50" y="227.13" width="5.25" height="5.25" fill="#FFFFFF"/><rect x="229.50" y="232.38" width="5.25" height="5.25" fill="#FFB6C1"/><rect x="234.75" y="232.38" width="5.25" height="5.25" fill="#FFB6C1"/><rect x="240.00" y="232.38" width="5.25" height="5.25" fill="#FFB6C1"/><rect x="245.25" y="232.38" width="5.25" height="5.25" fill="#FFB6C1"/><rect x="250.50" y="232.38" width="5.25" height="5.25" fill="#FFB6C1"/><rect x="240.00" y="237.63" width="5.25" height="5.25" fill="#FFB6C1"/>
  <!-- 难度标签 -->
  <rect x="390" y="20" width="70" height="22" rx="11" fill="#ff3b30"/>
  <text x="425" y="35" font-family="-apple-system, sans-serif" font-size="11" font-weight="600" fill="#ffffff" text-anchor="middle">HARD</text>
  <!-- 分类标签 -->
  <rect x="20" y="20" width="48" height="22" rx="11" fill="#E74C3C" opacity="0.9"/>
  <text x="44" y="35" font-family="-apple-system, sans-serif" font-size="10" font-weight="600" fill="#ffffff" text-anchor="middle">FOOD</text>
  <!-- 模板名 -->
  <text x="240" y="286" font-family="-apple-system, 'PingFang SC', sans-serif" font-size="16" font-weight="600" fill="#1d1d1f" text-anchor="middle">满汉全席</text>
  <text x="240" y="304" font-family="-apple-system, sans-serif" font-size="11" font-weight="400" fill="#86868b" text-anchor="middle">383 beads · 32×32</text>
</svg>
