<svg xmlns="http://www.w3.org/2000/svg" viewBox="0 0 480 360" width="480" height="360">
  <defs>
    <linearGradient id="bgfoodcake011" x1="0%" y1="0%" x2="100%" y2="100%">
      <stop offset="0%" stop-color="#FB923C" stop-opacity="0.25"/>
      <stop offset="100%" stop-color="#FBBF24" stop-opacity="0.25"/>
    </linearGradient>
    <linearGradient id="cardfoodcake011" x1="0%" y1="0%" x2="0%" y2="100%">
      <stop offset="0%" stop-color="#ffffff" stop-opacity="0.98"/>
      <stop offset="100%" stop-color="#f5f5f7" stop-opacity="0.95"/>
    </linearGradient>
    <linearGradient id="boardfoodcake011" x1="0%" y1="0%" x2="0%" y2="100%">
      <stop offset="0%" stop-color="#1d1d1f" stop-opacity="0.04"/>
      <stop offset="100%" stop-color="#1d1d1f" stop-opacity="0.08"/>
    </linearGradient>
    <filter id="shadowfoodcake011" x="-10%" y="-10%" width="120%" height="120%">
      <feGaussianBlur in="SourceAlpha" stdDeviation="4"/>
      <feOffset dx="0" dy="2"/>
      <feComponentTransfer><feFuncA type="linear" slope="0.15"/></feComponentTransfer>
      <feMerge><feMergeNode/><feMergeNode in="SourceGraphic"/></feMerge>
    </filter>
  </defs>
  <rect width="480" height="360" fill="#fafafa"/>
  <rect width="480" height="360" fill="url(#bgfoodcake011)"/>
  <path d="M 0 340 Q 240 320 480 340" stroke="#E74C3C" stroke-width="1" fill="none" opacity="0.15"/>
  <path d="M 0 20 Q 240 0 480 20" stroke="#FB923C" stroke-width="1" fill="none" opacity="0.2"/>
  <circle cx="30" cy="25" r="2" fill="#FB923C" opacity="0.15"/>
  <circle cx="86" cy="72" r="3" fill="#FBBF24" opacity="0.22999999999999998"/>
  <circle cx="142" cy="119" r="4" fill="#E74C3C" opacity="0.31"/>
  <circle cx="198" cy="166" r="5" fill="#FB923C" opacity="0.15"/>
  <circle cx="254" cy="213" r="2" fill="#FBBF24" opacity="0.22999999999999998"/>
  <circle cx="310" cy="260" r="3" fill="#E74C3C" opacity="0.31"/>
  <circle cx="366" cy="307" r="4" fill="#FB923C" opacity="0.15"/>
  <circle cx="422" cy="34" r="5" fill="#FBBF24" opacity="0.22999999999999998"/>
  <rect x="138" y="70" width="204" height="232" rx="18" fill="url(#cardfoodcake011)" stroke="rgba(0,0,0,0.06)" stroke-width="1" filter="url(#shadowfoodcake011)"/>
  <!-- 像素预览底板（深色，让浅色像素可见） -->
  <rect x="152" y="84" width="176" height="176" rx="6" fill="#f5f5f7" stroke="rgba(0,0,0,0.08)" stroke-width="1"/>
  <!-- 像素网格 -->
  <rect x="237.10" y="93.79" width="5.79" height="5.79" fill="#FF8C42"/><rect x="231.31" y="99.59" width="5.79" height="5.79" fill="#FFB6C1"/><rect x="242.90" y="99.59" width="5.79" height="5.79" fill="#FFB6C1"/><rect x="237.10" y="105.38" width="5.79" height="5.79" fill="#FFD700"/><rect x="237.10" y="111.17" width="5.79" height="5.79" fill="#FFD700"/><rect x="237.10" y="116.97" width="5.79" height="5.79" fill="#FFD700"/><rect x="237.10" y="122.76" width="5.79" height="5.79" fill="#FFD700"/><rect x="237.10" y="128.55" width="5.79" height="5.79" fill="#FFB6C1"/><rect x="231.31" y="134.34" width="5.79" height="5.79" fill="#FFB6C1"/><rect x="237.10" y="134.34" width="5.79" height="5.79" fill="#FFB6C1"/><rect x="242.90" y="134.34" width="5.79" height="5.79" fill="#FFB6C1"/><rect x="202.34" y="140.14" width="5.79" height="5.79" fill="#FFFFFF"/><rect x="208.14" y="140.14" width="5.79" height="5.79" fill="#FFFFFF"/><rect x="213.93" y="140.14" width="5.79" height="5.79" fill="#FFFFFF"/><rect x="219.72" y="140.14" width="5.79" height="5.79" fill="#FFFFFF"/><rect x="225.52" y="140.14" width="5.79" height="5.79" fill="#FFFFFF"/><rect x="231.31" y="140.14" width="5.79" height="5.79" fill="#FFFFFF"/><rect x="237.10" y="140.14" width="5.79" height="5.79" fill="#FFB6C1"/><rect x="242.90" y="140.14" width="5.79" height="5.79" fill="#FFFFFF"/><rect x="248.69" y="140.14" width="5.79" height="5.79" fill="#FFFFFF"/><rect x="254.48" y="140.14" width="5.79" height="5.79" fill="#FFFFFF"/><rect x="260.28" y="140.14" width="5.79" height="5.79" fill="#FFFFFF"/><rect x="266.07" y="140.14" width="5.79" height="5.79" fill="#FFFFFF"/><rect x="271.86" y="140.14" width="5.79" height="5.79" fill="#FFFFFF"/><rect x="202.34" y="145.93" width="5.79" height="5.79" fill="#FFFFFF"/><rect x="208.14" y="145.93" width="5.79" height="5.79" fill="#FFFFFF"/><rect x="213.93" y="145.93" width="5.79" height="5.79" fill="#FFFFFF"/><rect x="219.72" y="145.93" width="5.79" height="5.79" fill="#FFFFFF"/><rect x="225.52" y="145.93" width="5.79" height="5.79" fill="#FFFFFF"/><rect x="231.31" y="145.93" width="5.79" height="5.79" fill="#FFFFFF"/><rect x="237.10" y="145.93" width="5.79" height="5.79" fill="#FFFFFF"/><rect x="242.90" y="145.93" width="5.79" height="5.79" fill="#FFFFFF"/><rect x="248.69" y="145.93" width="5.79" height="5.79" fill="#FFFFFF"/><rect x="254.48" y="145.93" width="5.79" height="5.79" fill="#FFFFFF"/><rect x="260.28" y="145.93" width="5.79" height="5.79" fill="#FFFFFF"/><rect x="266.07" y="145.93" width="5.79" height="5.79" fill="#FFFFFF"/><rect x="271.86" y="145.93" width="5.79" height="5.79" fill="#FFFFFF"/><rect x="202.34" y="151.72" width="5.79" height="5.79" fill="#FFFFFF"/><rect x="208.14" y="151.72" width="5.79" height="5.79" fill="#FFFFFF"/><rect x="213.93" y="151.72" width="5.79" height="5.79" fill="#FFFFFF"/><rect x="219.72" y="151.72" width="5.79" height="5.79" fill="#FFFFFF"/><rect x="225.52" y="151.72" width="5.79" height="5.79" fill="#FFFFFF"/><rect x="231.31" y="151.72" width="5.79" height="5.79" fill="#FFFFFF"/><rect x="237.10" y="151.72" width="5.79" height="5.79" fill="#FFFFFF"/><rect x="242.90" y="151.72" width="5.79" height="5.79" fill="#FFFFFF"/><rect x="248.69" y="151.72" width="5.79" height="5.79" fill="#FFFFFF"/><rect x="254.48" y="151.72" width="5.79" height="5.79" fill="#FFFFFF"/><rect x="260.28" y="151.72" width="5.79" height="5.79" fill="#FFFFFF"/><rect x="266.07" y="151.72" width="5.79" height="5.79" fill="#FFFFFF"/><rect x="271.86" y="151.72" width="5.79" height="5.79" fill="#FFFFFF"/><rect x="202.34" y="157.52" width="5.79" height="5.79" fill="#FFFFFF"/><rect x="208.14" y="157.52" width="5.79" height="5.79" fill="#FFFFFF"/><rect x="213.93" y="157.52" width="5.79" height="5.79" fill="#FFFFFF"/><rect x="219.72" y="157.52" width="5.79" height="5.79" fill="#FFFFFF"/><rect x="225.52" y="157.52" width="5.79" height="5.79" fill="#FFFFFF"/><rect x="231.31" y="157.52" width="5.79" height="5.79" fill="#FFFFFF"/><rect x="237.10" y="157.52" width="5.79" height="5.79" fill="#FFFFFF"/><rect x="242.90" y="157.52" width="5.79" height="5.79" fill="#FFFFFF"/><rect x="248.69" y="157.52" width="5.79" height="5.79" fill="#FFFFFF"/><rect x="254.48" y="157.52" width="5.79" height="5.79" fill="#FFFFFF"/><rect x="260.28" y="157.52" width="5.79" height="5.79" fill="#FFFFFF"/><rect x="266.07" y="157.52" width="5.79" height="5.79" fill="#FFFFFF"/><rect x="271.86" y="157.52" width="5.79" height="5.79" fill="#FFFFFF"/><rect x="202.34" y="163.31" width="5.79" height="5.79" fill="#FFFFFF"/><rect x="208.14" y="163.31" width="5.79" height="5.79" fill="#FFFFFF"/><rect x="213.93" y="163.31" width="5.79" height="5.79" fill="#FFFFFF"/><rect x="219.72" y="163.31" width="5.79" height="5.79" fill="#FFFFFF"/><rect x="225.52" y="163.31" width="5.79" height="5.79" fill="#FFFFFF"/><rect x="231.31" y="163.31" width="5.79" height="5.79" fill="#FFFFFF"/><rect x="237.10" y="163.31" width="5.79" height="5.79" fill="#FFFFFF"/><rect x="242.90" y="163.31" width="5.79" height="5.79" fill="#FFFFFF"/><rect x="248.69" y="163.31" width="5.79" height="5.79" fill="#FFFFFF"/><rect x="254.48" y="163.31" width="5.79" height="5.79" fill="#FFFFFF"/><rect x="260.28" y="163.31" width="5.79" height="5.79" fill="#FFFFFF"/><rect x="266.07" y="163.31" width="5.79" height="5.79" fill="#FFFFFF"/><rect x="271.86" y="163.31" width="5.79" height="5.79" fill="#FFFFFF"/><rect x="202.34" y="169.10" width="5.79" height="5.79" fill="#FFFFFF"/><rect x="208.14" y="169.10" width="5.79" height="5.79" fill="#FFFFFF"/><rect x="213.93" y="169.10" width="5.79" height="5.79" fill="#FFFFFF"/><rect x="219.72" y="169.10" width="5.79" height="5.79" fill="#FFFFFF"/><rect x="225.52" y="169.10" width="5.79" height="5.79" fill="#FFFFFF"/><rect x="231.31" y="169.10" width="5.79" height="5.79" fill="#FFFFFF"/><rect x="237.10" y="169.10" width="5.79" height="5.79" fill="#FFFFFF"/><rect x="242.90" y="169.10" width="5.79" height="5.79" fill="#FFFFFF"/><rect x="248.69" y="169.10" width="5.79" height="5.79" fill="#FFFFFF"/><rect x="254.48" y="169.10" width="5.79" height="5.79" fill="#FFFFFF"/><rect x="260.28" y="169.10" width="5.79" height="5.79" fill="#FFFFFF"/><rect x="266.07" y="169.10" width="5.79" height="5.79" fill="#FFFFFF"/><rect x="271.86" y="169.10" width="5.79" height="5.79" fill="#FFFFFF"/><rect x="179.17" y="174.90" width="5.79" height="5.79" fill="#FFFFFF"/><rect x="184.97" y="174.90" width="5.79" height="5.79" fill="#FFB6C1"/><rect x="190.76" y="174.90" width="5.79" height="5.79" fill="#FFFFFF"/><rect x="196.55" y="174.90" width="5.79" height="5.79" fill="#FFB6C1"/><rect x="202.34" y="174.90" width="5.79" height="5.79" fill="#FFFFFF"/><rect x="208.14" y="174.90" width="5.79" height="5.79" fill="#FFFFFF"/><rect x="213.93" y="174.90" width="5.79" height="5.79" fill="#FFFFFF"/><rect x="219.72" y="174.90" width="5.79" height="5.79" fill="#FFFFFF"/><rect x="225.52" y="174.90" width="5.79" height="5.79" fill="#FFFFFF"/><rect x="231.31" y="174.90" width="5.79" height="5.79" fill="#FFFFFF"/><rect x="237.10" y="174.90" width="5.79" height="5.79" fill="#FFFFFF"/><rect x="242.90" y="174.90" width="5.79" height="5.79" fill="#FFFFFF"/><rect x="248.69" y="174.90" width="5.79" height="5.79" fill="#FFFFFF"/><rect x="254.48" y="174.90" width="5.79" height="5.79" fill="#FFFFFF"/><rect x="260.28" y="174.90" width="5.79" height="5.79" fill="#FFFFFF"/><rect x="266.07" y="174.90" width="5.79" height="5.79" fill="#FFFFFF"/><rect x="271.86" y="174.90" width="5.79" height="5.79" fill="#FFFFFF"/><rect x="277.66" y="174.90" width="5.79" height="5.79" fill="#FFB6C1"/><rect x="283.45" y="174.90" width="5.79" height="5.79" fill="#FFFFFF"/><rect x="289.24" y="174.90" width="5.79" height="5.79" fill="#FFB6C1"/><rect x="295.03" y="174.90" width="5.79" height="5.79" fill="#FFB6C1"/><rect x="179.17" y="180.69" width="5.79" height="5.79" fill="#FFB6C1"/><rect x="184.97" y="180.69" width="5.79" height="5.79" fill="#FFB6C1"/><rect x="190.76" y="180.69" width="5.79" height="5.79" fill="#FFB6C1"/><rect x="196.55" y="180.69" width="5.79" height="5.79" fill="#FFB6C1"/><rect x="202.34" y="180.69" width="5.79" height="5.79" fill="#FFB6C1"/><rect x="208.14" y="180.69" width="5.79" height="5.79" fill="#FFB6C1"/><rect x="213.93" y="180.69" width="5.79" height="5.79" fill="#FFB6C1"/><rect x="219.72" y="180.69" width="5.79" height="5.79" fill="#FFB6C1"/><rect x="225.52" y="180.69" width="5.79" height="5.79" fill="#FFB6C1"/><rect x="231.31" y="180.69" width="5.79" height="5.79" fill="#FFB6C1"/><rect x="237.10" y="180.69" width="5.79" height="5.79" fill="#FFB6C1"/><rect x="242.90" y="180.69" width="5.79" height="5.79" fill="#FFB6C1"/><rect x="248.69" y="180.69" width="5.79" height="5.79" fill="#FFB6C1"/><rect x="254.48" y="180.69" width="5.79" height="5.79" fill="#FFB6C1"/><rect x="260.28" y="180.69" width="5.79" height="5.79" fill="#FFB6C1"/><rect x="266.07" y="180.69" width="5.79" height="5.79" fill="#FFB6C1"/><rect x="271.86" y="180.69" width="5.79" height="5.79" fill="#FFB6C1"/><rect x="277.66" y="180.69" width="5.79" height="5.79" fill="#FFB6C1"/><rect x="283.45" y="180.69" width="5.79" height="5.79" fill="#FFB6C1"/><rect x="289.24" y="180.69" width="5.79" height="5.79" fill="#FFB6C1"/><rect x="295.03" y="180.69" width="5.79" height="5.79" fill="#FFB6C1"/><rect x="179.17" y="186.48" width="5.79" height="5.79" fill="#FFB6C1"/><rect x="184.97" y="186.48" width="5.79" height="5.79" fill="#FFB6C1"/><rect x="190.76" y="186.48" width="5.79" height="5.79" fill="#FFB6C1"/><rect x="196.55" y="186.48" width="5.79" height="5.79" fill="#FFB6C1"/><rect x="202.34" y="186.48" width="5.79" height="5.79" fill="#FFB6C1"/><rect x="208.14" y="186.48" width="5.79" height="5.79" fill="#FFB6C1"/><rect x="213.93" y="186.48" width="5.79" height="5.79" fill="#FFB6C1"/><rect x="219.72" y="186.48" width="5.79" height="5.79" fill="#FFB6C1"/><rect x="225.52" y="186.48" width="5.79" height="5.79" fill="#FFB6C1"/><rect x="231.31" y="186.48" width="5.79" height="5.79" fill="#FFB6C1"/><rect x="237.10" y="186.48" width="5.79" height="5.79" fill="#FFB6C1"/><rect x="242.90" y="186.48" width="5.79" height="5.79" fill="#FFB6C1"/><rect x="248.69" y="186.48" width="5.79" height="5.79" fill="#FFB6C1"/><rect x="254.48" y="186.48" width="5.79" height="5.79" fill="#FFB6C1"/><rect x="260.28" y="186.48" width="5.79" height="5.79" fill="#FFB6C1"/><rect x="266.07" y="186.48" width="5.79" height="5.79" fill="#FFB6C1"/><rect x="271.86" y="186.48" width="5.79" height="5.79" fill="#FFB6C1"/><rect x="277.66" y="186.48" width="5.79" height="5.79" fill="#FFB6C1"/><rect x="283.45" y="186.48" width="5.79" height="5.79" fill="#FFB6C1"/><rect x="289.24" y="186.48" width="5.79" height="5.79" fill="#FFB6C1"/><rect x="295.03" y="186.48" width="5.79" height="5.79" fill="#FFB6C1"/><rect x="179.17" y="192.28" width="5.79" height="5.79" fill="#FFB6C1"/><rect x="184.97" y="192.28" width="5.79" height="5.79" fill="#FFB6C1"/><rect x="190.76" y="192.28" width="5.79" height="5.79" fill="#E74C3C"/><rect x="196.55" y="192.28" width="5.79" height="5.79" fill="#FFB6C1"/><rect x="202.34" y="192.28" width="5.79" height="5.79" fill="#FFB6C1"/><rect x="208.14" y="192.28" width="5.79" height="5.79" fill="#E74C3C"/><rect x="213.93" y="192.28" width="5.79" height="5.79" fill="#FFB6C1"/><rect x="219.72" y="192.28" width="5.79" height="5.79" fill="#FFB6C1"/><rect x="225.52" y="192.28" width="5.79" height="5.79" fill="#E74C3C"/><rect x="231.31" y="192.28" width="5.79" height="5.79" fill="#FFB6C1"/><rect x="237.10" y="192.28" width="5.79" height="5.79" fill="#FFB6C1"/><rect x="242.90" y="192.28" width="5.79" height="5.79" fill="#E74C3C"/><rect x="248.69" y="192.28" width="5.79" height="5.79" fill="#FFB6C1"/><rect x="254.48" y="192.28" width="5.79" height="5.79" fill="#FFB6C1"/><rect x="260.28" y="192.28" width="5.79" height="5.79" fill="#E74C3C"/><rect x="266.07" y="192.28" width="5.79" height="5.79" fill="#FFB6C1"/><rect x="271.86" y="192.28" width="5.79" height="5.79" fill="#FFB6C1"/><rect x="277.66" y="192.28" width="5.79" height="5.79" fill="#E74C3C"/><rect x="283.45" y="192.28" width="5.79" height="5.79" fill="#FFB6C1"/><rect x="289.24" y="192.28" width="5.79" height="5.79" fill="#FFB6C1"/><rect x="295.03" y="192.28" width="5.79" height="5.79" fill="#FFB6C1"/><rect x="179.17" y="198.07" width="5.79" height="5.79" fill="#FFB6C1"/><rect x="184.97" y="198.07" width="5.79" height="5.79" fill="#FFB6C1"/><rect x="190.76" y="198.07" width="5.79" height="5.79" fill="#FFB6C1"/><rect x="196.55" y="198.07" width="5.79" height="5.79" fill="#FFB6C1"/><rect x="202.34" y="198.07" width="5.79" height="5.79" fill="#FFB6C1"/><rect x="208.14" y="198.07" width="5.79" height="5.79" fill="#FFB6C1"/><rect x="213.93" y="198.07" width="5.79" height="5.79" fill="#FFB6C1"/><rect x="219.72" y="198.07" width="5.79" height="5.79" fill="#FFB6C1"/><rect x="225.52" y="198.07" width="5.79" height="5.79" fill="#FFB6C1"/><rect x="231.31" y="198.07" width="5.79" height="5.79" fill="#FFB6C1"/><rect x="237.10" y="198.07" width="5.79" height="5.79" fill="#FFB6C1"/><rect x="242.90" y="198.07" width="5.79" height="5.79" fill="#FFB6C1"/><rect x="248.69" y="198.07" width="5.79" height="5.79" fill="#FFB6C1"/><rect x="254.48" y="198.07" width="5.79" height="5.79" fill="#FFB6C1"/><rect x="260.28" y="198.07" width="5.79" height="5.79" fill="#FFB6C1"/><rect x="266.07" y="198.07" width="5.79" height="5.79" fill="#FFB6C1"/><rect x="271.86" y="198.07" width="5.79" height="5.79" fill="#FFB6C1"/><rect x="277.66" y="198.07" width="5.79" height="5.79" fill="#FFB6C1"/><rect x="283.45" y="198.07" width="5.79" height="5.79" fill="#FFB6C1"/><rect x="289.24" y="198.07" width="5.79" height="5.79" fill="#FFB6C1"/><rect x="295.03" y="198.07" width="5.79" height="5.79" fill="#FFB6C1"/><rect x="179.17" y="203.86" width="5.79" height="5.79" fill="#FFB6C1"/><rect x="184.97" y="203.86" width="5.79" height="5.79" fill="#FFB6C1"/><rect x="190.76" y="203.86" width="5.79" height="5.79" fill="#FFB6C1"/><rect x="196.55" y="203.86" width="5.79" height="5.79" fill="#FFB6C1"/><rect x="202.34" y="203.86" width="5.79" height="5.79" fill="#FFB6C1"/><rect x="208.14" y="203.86" width="5.79" height="5.79" fill="#FFB6C1"/><rect x="213.93" y="203.86" width="5.79" height="5.79" fill="#FFB6C1"/><rect x="219.72" y="203.86" width="5.79" height="5.79" fill="#FFB6C1"/><rect x="225.52" y="203.86" width="5.79" height="5.79" fill="#FFB6C1"/><rect x="231.31" y="203.86" width="5.79" height="5.79" fill="#FFB6C1"/><rect x="237.10" y="203.86" width="5.79" height="5.79" fill="#FFB6C1"/><rect x="242.90" y="203.86" width="5.79" height="5.79" fill="#FFB6C1"/><rect x="248.69" y="203.86" width="5.79" height="5.79" fill="#FFB6C1"/><rect x="254.48" y="203.86" width="5.79" height="5.79" fill="#FFB6C1"/><rect x="260.28" y="203.86" width="5.79" height="5.79" fill="#FFB6C1"/><rect x="266.07" y="203.86" width="5.79" height="5.79" fill="#FFB6C1"/><rect x="271.86" y="203.86" width="5.79" height="5.79" fill="#FFB6C1"/><rect x="277.66" y="203.86" width="5.79" height="5.79" fill="#FFB6C1"/><rect x="283.45" y="203.86" width="5.79" height="5.79" fill="#FFB6C1"/><rect x="289.24" y="203.86" width="5.79" height="5.79" fill="#FFB6C1"/><rect x="295.03" y="203.86" width="5.79" height="5.79" fill="#FFB6C1"/><rect x="156.00" y="209.66" width="5.79" height="5.79" fill="#FFFFFF"/><rect x="161.79" y="209.66" width="5.79" height="5.79" fill="#8D6E63"/><rect x="167.59" y="209.66" width="5.79" height="5.79" fill="#FFFFFF"/><rect x="173.38" y="209.66" width="5.79" height="5.79" fill="#8D6E63"/><rect x="179.17" y="209.66" width="5.79" height="5.79" fill="#FFFFFF"/><rect x="184.97" y="209.66" width="5.79" height="5.79" fill="#FFB6C1"/><rect x="190.76" y="209.66" width="5.79" height="5.79" fill="#FFFFFF"/><rect x="196.55" y="209.66" width="5.79" height="5.79" fill="#FFB6C1"/><rect x="202.34" y="209.66" width="5.79" height="5.79" fill="#FFFFFF"/><rect x="208.14" y="209.66" width="5.79" height="5.79" fill="#FFB6C1"/><rect x="213.93" y="209.66" width="5.79" height="5.79" fill="#FFFFFF"/><rect x="219.72" y="209.66" width="5.79" height="5.79" fill="#FFB6C1"/><rect x="225.52" y="209.66" width="5.79" height="5.79" fill="#FFFFFF"/><rect x="231.31" y="209.66" width="5.79" height="5.79" fill="#FFB6C1"/><rect x="237.10" y="209.66" width="5.79" height="5.79" fill="#FFFFFF"/><rect x="242.90" y="209.66" width="5.79" height="5.79" fill="#FFB6C1"/><rect x="248.69" y="209.66" width="5.79" height="5.79" fill="#FFFFFF"/><rect x="254.48" y="209.66" width="5.79" height="5.79" fill="#FFB6C1"/><rect x="260.28" y="209.66" width="5.79" height="5.79" fill="#FFFFFF"/><rect x="266.07" y="209.66" width="5.79" height="5.79" fill="#FFB6C1"/><rect x="271.86" y="209.66" width="5.79" height="5.79" fill="#FFFFFF"/><rect x="277.66" y="209.66" width="5.79" height="5.79" fill="#FFB6C1"/><rect x="283.45" y="209.66" width="5.79" height="5.79" fill="#FFFFFF"/><rect x="289.24" y="209.66" width="5.79" height="5.79" fill="#FFB6C1"/><rect x="295.03" y="209.66" width="5.79" height="5.79" fill="#FFFFFF"/><rect x="300.83" y="209.66" width="5.79" height="5.79" fill="#8D6E63"/><rect x="306.62" y="209.66" width="5.79" height="5.79" fill="#FFFFFF"/><rect x="312.41" y="209.66" width="5.79" height="5.79" fill="#8D6E63"/><rect x="318.21" y="209.66" width="5.79" height="5.79" fill="#8D6E63"/><rect x="156.00" y="215.45" width="5.79" height="5.79" fill="#8D6E63"/><rect x="161.79" y="215.45" width="5.79" height="5.79" fill="#8D6E63"/><rect x="167.59" y="215.45" width="5.79" height="5.79" fill="#8D6E63"/><rect x="173.38" y="215.45" width="5.79" height="5.79" fill="#8D6E63"/><rect x="179.17" y="215.45" width="5.79" height="5.79" fill="#8D6E63"/><rect x="184.97" y="215.45" width="5.79" height="5.79" fill="#8D6E63"/><rect x="190.76" y="215.45" width="5.79" height="5.79" fill="#8D6E63"/><rect x="196.55" y="215.45" width="5.79" height="5.79" fill="#8D6E63"/><rect x="202.34" y="215.45" width="5.79" height="5.79" fill="#8D6E63"/><rect x="208.14" y="215.45" width="5.79" height="5.79" fill="#8D6E63"/><rect x="213.93" y="215.45" width="5.79" height="5.79" fill="#8D6E63"/><rect x="219.72" y="215.45" width="5.79" height="5.79" fill="#8D6E63"/><rect x="225.52" y="215.45" width="5.79" height="5.79" fill="#8D6E63"/><rect x="231.31" y="215.45" width="5.79" height="5.79" fill="#8D6E63"/><rect x="237.10" y="215.45" width="5.79" height="5.79" fill="#8D6E63"/><rect x="242.90" y="215.45" width="5.79" height="5.79" fill="#8D6E63"/><rect x="248.69" y="215.45" width="5.79" height="5.79" fill="#8D6E63"/><rect x="254.48" y="215.45" width="5.79" height="5.79" fill="#8D6E63"/><rect x="260.28" y="215.45" width="5.79" height="5.79" fill="#8D6E63"/><rect x="266.07" y="215.45" width="5.79" height="5.79" fill="#8D6E63"/><rect x="271.86" y="215.45" width="5.79" height="5.79" fill="#8D6E63"/><rect x="277.66" y="215.45" width="5.79" height="5.79" fill="#8D6E63"/><rect x="283.45" y="215.45" width="5.79" height="5.79" fill="#8D6E63"/><rect x="289.24" y="215.45" width="5.79" height="5.79" fill="#8D6E63"/><rect x="295.03" y="215.45" width="5.79" height="5.79" fill="#8D6E63"/><rect x="300.83" y="215.45" width="5.79" height="5.79" fill="#8D6E63"/><rect x="306.62" y="215.45" width="5.79" height="5.79" fill="#8D6E63"/><rect x="312.41" y="215.45" width="5.79" height="5.79" fill="#8D6E63"/><rect x="318.21" y="215.45" width="5.79" height="5.79" fill="#8D6E63"/><rect x="156.00" y="221.24" width="5.79" height="5.79" fill="#8D6E63"/><rect x="161.79" y="221.24" width="5.79" height="5.79" fill="#8D6E63"/><rect x="167.59" y="221.24" width="5.79" height="5.79" fill="#8D6E63"/><rect x="173.38" y="221.24" width="5.79" height="5.79" fill="#8D6E63"/><rect x="179.17" y="221.24" width="5.79" height="5.79" fill="#8D6E63"/><rect x="184.97" y="221.24" width="5.79" height="5.79" fill="#8D6E63"/><rect x="190.76" y="221.24" width="5.79" height="5.79" fill="#8D6E63"/><rect x="196.55" y="221.24" width="5.79" height="5.79" fill="#8D6E63"/><rect x="202.34" y="221.24" width="5.79" height="5.79" fill="#8D6E63"/><rect x="208.14" y="221.24" width="5.79" height="5.79" fill="#8D6E63"/><rect x="213.93" y="221.24" width="5.79" height="5.79" fill="#8D6E63"/><rect x="219.72" y="221.24" width="5.79" height="5.79" fill="#8D6E63"/><rect x="225.52" y="221.24" width="5.79" height="5.79" fill="#8D6E63"/><rect x="231.31" y="221.24" width="5.79" height="5.79" fill="#8D6E63"/><rect x="237.10" y="221.24" width="5.79" height="5.79" fill="#8D6E63"/><rect x="242.90" y="221.24" width="5.79" height="5.79" fill="#8D6E63"/><rect x="248.69" y="221.24" width="5.79" height="5.79" fill="#8D6E63"/><rect x="254.48" y="221.24" width="5.79" height="5.79" fill="#8D6E63"/><rect x="260.28" y="221.24" width="5.79" height="5.79" fill="#8D6E63"/><rect x="266.07" y="221.24" width="5.79" height="5.79" fill="#8D6E63"/><rect x="271.86" y="221.24" width="5.79" height="5.79" fill="#8D6E63"/><rect x="277.66" y="221.24" width="5.79" height="5.79" fill="#8D6E63"/><rect x="283.45" y="221.24" width="5.79" height="5.79" fill="#8D6E63"/><rect x="289.24" y="221.24" width="5.79" height="5.79" fill="#8D6E63"/><rect x="295.03" y="221.24" width="5.79" height="5.79" fill="#8D6E63"/><rect x="300.83" y="221.24" width="5.79" height="5.79" fill="#8D6E63"/><rect x="306.62" y="221.24" width="5.79" height="5.79" fill="#8D6E63"/><rect x="312.41" y="221.24" width="5.79" height="5.79" fill="#8D6E63"/><rect x="318.21" y="221.24" width="5.79" height="5.79" fill="#8D6E63"/><rect x="156.00" y="227.03" width="5.79" height="5.79" fill="#8D6E63"/><rect x="161.79" y="227.03" width="5.79" height="5.79" fill="#8D6E63"/><rect x="167.59" y="227.03" width="5.79" height="5.79" fill="#4E342E"/><rect x="173.38" y="227.03" width="5.79" height="5.79" fill="#8D6E63"/><rect x="179.17" y="227.03" width="5.79" height="5.79" fill="#8D6E63"/><rect x="184.97" y="227.03" width="5.79" height="5.79" fill="#4E342E"/><rect x="190.76" y="227.03" width="5.79" height="5.79" fill="#8D6E63"/><rect x="196.55" y="227.03" width="5.79" height="5.79" fill="#8D6E63"/><rect x="202.34" y="227.03" width="5.79" height="5.79" fill="#4E342E"/><rect x="208.14" y="227.03" width="5.79" height="5.79" fill="#8D6E63"/><rect x="213.93" y="227.03" width="5.79" height="5.79" fill="#8D6E63"/><rect x="219.72" y="227.03" width="5.79" height="5.79" fill="#4E342E"/><rect x="225.52" y="227.03" width="5.79" height="5.79" fill="#8D6E63"/><rect x="231.31" y="227.03" width="5.79" height="5.79" fill="#8D6E63"/><rect x="237.10" y="227.03" width="5.79" height="5.79" fill="#4E342E"/><rect x="242.90" y="227.03" width="5.79" height="5.79" fill="#8D6E63"/><rect x="248.69" y="227.03" width="5.79" height="5.79" fill="#8D6E63"/><rect x="254.48" y="227.03" width="5.79" height="5.79" fill="#4E342E"/><rect x="260.28" y="227.03" width="5.79" height="5.79" fill="#8D6E63"/><rect x="266.07" y="227.03" width="5.79" height="5.79" fill="#8D6E63"/><rect x="271.86" y="227.03" width="5.79" height="5.79" fill="#4E342E"/><rect x="277.66" y="227.03" width="5.79" height="5.79" fill="#8D6E63"/><rect x="283.45" y="227.03" width="5.79" height="5.79" fill="#8D6E63"/><rect x="289.24" y="227.03" width="5.79" height="5.79" fill="#4E342E"/><rect x="295.03" y="227.03" width="5.79" height="5.79" fill="#8D6E63"/><rect x="300.83" y="227.03" width="5.79" height="5.79" fill="#8D6E63"/><rect x="306.62" y="227.03" width="5.79" height="5.79" fill="#4E342E"/><rect x="312.41" y="227.03" width="5.79" height="5.79" fill="#8D6E63"/><rect x="318.21" y="227.03" width="5.79" height="5.79" fill="#8D6E63"/><rect x="156.00" y="232.83" width="5.79" height="5.79" fill="#8D6E63"/><rect x="161.79" y="232.83" width="5.79" height="5.79" fill="#8D6E63"/><rect x="167.59" y="232.83" width="5.79" height="5.79" fill="#8D6E63"/><rect x="173.38" y="232.83" width="5.79" height="5.79" fill="#8D6E63"/><rect x="179.17" y="232.83" width="5.79" height="5.79" fill="#8D6E63"/><rect x="184.97" y="232.83" width="5.79" height="5.79" fill="#8D6E63"/><rect x="190.76" y="232.83" width="5.79" height="5.79" fill="#8D6E63"/><rect x="196.55" y="232.83" width="5.79" height="5.79" fill="#8D6E63"/><rect x="202.34" y="232.83" width="5.79" height="5.79" fill="#8D6E63"/><rect x="208.14" y="232.83" width="5.79" height="5.79" fill="#8D6E63"/><rect x="213.93" y="232.83" width="5.79" height="5.79" fill="#8D6E63"/><rect x="219.72" y="232.83" width="5.79" height="5.79" fill="#8D6E63"/><rect x="225.52" y="232.83" width="5.79" height="5.79" fill="#8D6E63"/><rect x="231.31" y="232.83" width="5.79" height="5.79" fill="#8D6E63"/><rect x="237.10" y="232.83" width="5.79" height="5.79" fill="#8D6E63"/><rect x="242.90" y="232.83" width="5.79" height="5.79" fill="#8D6E63"/><rect x="248.69" y="232.83" width="5.79" height="5.79" fill="#8D6E63"/><rect x="254.48" y="232.83" width="5.79" height="5.79" fill="#8D6E63"/><rect x="260.28" y="232.83" width="5.79" height="5.79" fill="#8D6E63"/><rect x="266.07" y="232.83" width="5.79" height="5.79" fill="#8D6E63"/><rect x="271.86" y="232.83" width="5.79" height="5.79" fill="#8D6E63"/><rect x="277.66" y="232.83" width="5.79" height="5.79" fill="#8D6E63"/><rect x="283.45" y="232.83" width="5.79" height="5.79" fill="#8D6E63"/><rect x="289.24" y="232.83" width="5.79" height="5.79" fill="#8D6E63"/><rect x="295.03" y="232.83" width="5.79" height="5.79" fill="#8D6E63"/><rect x="300.83" y="232.83" width="5.79" height="5.79" fill="#8D6E63"/><rect x="306.62" y="232.83" width="5.79" height="5.79" fill="#8D6E63"/><rect x="312.41" y="232.83" width="5.79" height="5.79" fill="#8D6E63"/><rect x="318.21" y="232.83" width="5.79" height="5.79" fill="#8D6E63"/><rect x="156.00" y="238.62" width="5.79" height="5.79" fill="#8D6E63"/><rect x="161.79" y="238.62" width="5.79" height="5.79" fill="#8D6E63"/><rect x="167.59" y="238.62" width="5.79" height="5.79" fill="#8D6E63"/><rect x="173.38" y="238.62" width="5.79" height="5.79" fill="#8D6E63"/><rect x="179.17" y="238.62" width="5.79" height="5.79" fill="#8D6E63"/><rect x="184.97" y="238.62" width="5.79" height="5.79" fill="#8D6E63"/><rect x="190.76" y="238.62" width="5.79" height="5.79" fill="#8D6E63"/><rect x="196.55" y="238.62" width="5.79" height="5.79" fill="#8D6E63"/><rect x="202.34" y="238.62" width="5.79" height="5.79" fill="#8D6E63"/><rect x="208.14" y="238.62" width="5.79" height="5.79" fill="#8D6E63"/><rect x="213.93" y="238.62" width="5.79" height="5.79" fill="#8D6E63"/><rect x="219.72" y="238.62" width="5.79" height="5.79" fill="#8D6E63"/><rect x="225.52" y="238.62" width="5.79" height="5.79" fill="#8D6E63"/><rect x="231.31" y="238.62" width="5.79" height="5.79" fill="#8D6E63"/><rect x="237.10" y="238.62" width="5.79" height="5.79" fill="#8D6E63"/><rect x="242.90" y="238.62" width="5.79" height="5.79" fill="#8D6E63"/><rect x="248.69" y="238.62" width="5.79" height="5.79" fill="#8D6E63"/><rect x="254.48" y="238.62" width="5.79" height="5.79" fill="#8D6E63"/><rect x="260.28" y="238.62" width="5.79" height="5.79" fill="#8D6E63"/><rect x="266.07" y="238.62" width="5.79" height="5.79" fill="#8D6E63"/><rect x="271.86" y="238.62" width="5.79" height="5.79" fill="#8D6E63"/><rect x="277.66" y="238.62" width="5.79" height="5.79" fill="#8D6E63"/><rect x="283.45" y="238.62" width="5.79" height="5.79" fill="#8D6E63"/><rect x="289.24" y="238.62" width="5.79" height="5.79" fill="#8D6E63"/><rect x="295.03" y="238.62" width="5.79" height="5.79" fill="#8D6E63"/><rect x="300.83" y="238.62" width="5.79" height="5.79" fill="#8D6E63"/><rect x="306.62" y="238.62" width="5.79" height="5.79" fill="#8D6E63"/><rect x="312.41" y="238.62" width="5.79" height="5.79" fill="#8D6E63"/><rect x="318.21" y="238.62" width="5.79" height="5.79" fill="#8D6E63"/><rect x="156.00" y="244.41" width="5.79" height="5.79" fill="#8D6E63"/><rect x="161.79" y="244.41" width="5.79" height="5.79" fill="#8D6E63"/><rect x="167.59" y="244.41" width="5.79" height="5.79" fill="#8D6E63"/><rect x="173.38" y="244.41" width="5.79" height="5.79" fill="#8D6E63"/><rect x="179.17" y="244.41" width="5.79" height="5.79" fill="#8D6E63"/><rect x="184.97" y="244.41" width="5.79" height="5.79" fill="#8D6E63"/><rect x="190.76" y="244.41" width="5.79" height="5.79" fill="#8D6E63"/><rect x="196.55" y="244.41" width="5.79" height="5.79" fill="#8D6E63"/><rect x="202.34" y="244.41" width="5.79" height="5.79" fill="#8D6E63"/><rect x="208.14" y="244.41" width="5.79" height="5.79" fill="#8D6E63"/><rect x="213.93" y="244.41" width="5.79" height="5.79" fill="#8D6E63"/><rect x="219.72" y="244.41" width="5.79" height="5.79" fill="#8D6E63"/><rect x="225.52" y="244.41" width="5.79" height="5.79" fill="#8D6E63"/><rect x="231.31" y="244.41" width="5.79" height="5.79" fill="#8D6E63"/><rect x="237.10" y="244.41" width="5.79" height="5.79" fill="#8D6E63"/><rect x="242.90" y="244.41" width="5.79" height="5.79" fill="#8D6E63"/><rect x="248.69" y="244.41" width="5.79" height="5.79" fill="#8D6E63"/><rect x="254.48" y="244.41" width="5.79" height="5.79" fill="#8D6E63"/><rect x="260.28" y="244.41" width="5.79" height="5.79" fill="#8D6E63"/><rect x="266.07" y="244.41" width="5.79" height="5.79" fill="#8D6E63"/><rect x="271.86" y="244.41" width="5.79" height="5.79" fill="#8D6E63"/><rect x="277.66" y="244.41" width="5.79" height="5.79" fill="#8D6E63"/><rect x="283.45" y="244.41" width="5.79" height="5.79" fill="#8D6E63"/><rect x="289.24" y="244.41" width="5.79" height="5.79" fill="#8D6E63"/><rect x="295.03" y="244.41" width="5.79" height="5.79" fill="#8D6E63"/><rect x="300.83" y="244.41" width="5.79" height="5.79" fill="#8D6E63"/><rect x="306.62" y="244.41" width="5.79" height="5.79" fill="#8D6E63"/><rect x="312.41" y="244.41" width="5.79" height="5.79" fill="#8D6E63"/><rect x="318.21" y="244.41" width="5.79" height="5.79" fill="#8D6E63"/>
  <!-- 难度标签 -->
  <rect x="390" y="20" width="70" height="22" rx="11" fill="#ff3b30"/>
  <text x="425" y="35" font-family="-apple-system, sans-serif" font-size="11" font-weight="600" fill="#ffffff" text-anchor="middle">HARD</text>
  <!-- 分类标签 -->
  <rect x="20" y="20" width="48" height="22" rx="11" fill="#E74C3C" opacity="0.9"/>
  <text x="44" y="35" font-family="-apple-system, sans-serif" font-size="10" font-weight="600" fill="#ffffff" text-anchor="middle">FOOD</text>
  <!-- 模板名 -->
  <text x="240" y="286" font-family="-apple-system, 'PingFang SC', sans-serif" font-size="16" font-weight="600" fill="#1d1d1f" text-anchor="middle">精致蛋糕</text>
  <text x="240" y="304" font-family="-apple-system, sans-serif" font-size="11" font-weight="400" fill="#86868b" text-anchor="middle">418 beads · 32×32</text>
</svg>
