<svg xmlns="http://www.w3.org/2000/svg" viewBox="0 0 480 360" width="480" height="360">
  <defs>
    <linearGradient id="bggenshinraiden001" x1="0%" y1="0%" x2="100%" y2="100%">
      <stop offset="0%" stop-color="#EC4899" stop-opacity="0.25"/>
      <stop offset="100%" stop-color="#3B82F6" stop-opacity="0.25"/>
    </linearGradient>
    <linearGradient id="cardgenshinraiden001" x1="0%" y1="0%" x2="0%" y2="100%">
      <stop offset="0%" stop-color="#ffffff" stop-opacity="0.98"/>
      <stop offset="100%" stop-color="#f5f5f7" stop-opacity="0.95"/>
    </linearGradient>
    <filter id="shadowgenshinraiden001" x="-10%" y="-10%" width="120%" height="120%">
      <feGaussianBlur in="SourceAlpha" stdDeviation="4"/>
      <feOffset dx="0" dy="2"/>
      <feComponentTransfer><feFuncA type="linear" slope="0.15"/></feComponentTransfer>
      <feMerge><feMergeNode/><feMergeNode in="SourceGraphic"/></feMerge>
    </filter>
  </defs>
  <rect width="480" height="360" fill="#fafafa"/>
  <rect width="480" height="360" fill="url(#bggenshinraiden001)"/>
  <path d="M 0 340 Q 240 320 480 340" stroke="#A855F7" stroke-width="1" fill="none" opacity="0.15"/>
  <path d="M 0 20 Q 240 0 480 20" stroke="#EC4899" stroke-width="1" fill="none" opacity="0.2"/>
  <circle cx="30" cy="25" r="2" fill="#EC4899" opacity="0.15"/>
  <circle cx="86" cy="72" r="3" fill="#3B82F6" opacity="0.22999999999999998"/>
  <circle cx="142" cy="119" r="4" fill="#A855F7" opacity="0.31"/>
  <circle cx="198" cy="166" r="5" fill="#EC4899" opacity="0.15"/>
  <circle cx="254" cy="213" r="2" fill="#3B82F6" opacity="0.22999999999999998"/>
  <circle cx="310" cy="260" r="3" fill="#A855F7" opacity="0.31"/>
  <circle cx="366" cy="307" r="4" fill="#EC4899" opacity="0.15"/>
  <circle cx="422" cy="34" r="5" fill="#3B82F6" opacity="0.22999999999999998"/>
  <rect x="138" y="70" width="204" height="232" rx="18" fill="url(#cardgenshinraiden001)" stroke="rgba(0,0,0,0.06)" stroke-width="1" filter="url(#shadowgenshinraiden001)"/>
  <rect x="152" y="84" width="176" height="176" rx="6" fill="#f5f5f7" stroke="rgba(0,0,0,0.08)" stroke-width="1"/>
  <rect x="206.40" y="88.00" width="8.40" height="8.40" rx="1.01" fill="#6A0DAD"/><rect x="214.80" y="88.00" width="8.40" height="8.40" rx="1.01" fill="#6A0DAD"/><rect x="223.20" y="88.00" width="8.40" height="8.40" rx="1.01" fill="#6A0DAD"/><rect x="231.60" y="88.00" width="8.40" height="8.40" rx="1.01" fill="#6A0DAD"/><rect x="240.00" y="88.00" width="8.40" height="8.40" rx="1.01" fill="#6A0DAD"/><rect x="248.40" y="88.00" width="8.40" height="8.40" rx="1.01" fill="#6A0DAD"/><rect x="256.80" y="88.00" width="8.40" height="8.40" rx="1.01" fill="#6A0DAD"/><rect x="265.20" y="88.00" width="8.40" height="8.40" rx="1.01" fill="#6A0DAD"/><rect x="198.00" y="96.40" width="8.40" height="8.40" rx="1.01" fill="#6A0DAD"/><rect x="206.40" y="96.40" width="8.40" height="8.40" rx="1.01" fill="#6A0DAD"/><rect x="214.80" y="96.40" width="8.40" height="8.40" rx="1.01" fill="#6A0DAD"/><rect x="223.20" y="96.40" width="8.40" height="8.40" rx="1.01" fill="#6A0DAD"/><rect x="231.60" y="96.40" width="8.40" height="8.40" rx="1.01" fill="#6A0DAD"/><rect x="240.00" y="96.40" width="8.40" height="8.40" rx="1.01" fill="#6A0DAD"/><rect x="248.40" y="96.40" width="8.40" height="8.40" rx="1.01" fill="#6A0DAD"/><rect x="256.80" y="96.40" width="8.40" height="8.40" rx="1.01" fill="#6A0DAD"/><rect x="265.20" y="96.40" width="8.40" height="8.40" rx="1.01" fill="#6A0DAD"/><rect x="273.60" y="96.40" width="8.40" height="8.40" rx="1.01" fill="#6A0DAD"/><rect x="181.20" y="104.80" width="8.40" height="8.40" rx="1.01" fill="#FFD700"/><rect x="198.00" y="104.80" width="8.40" height="8.40" rx="1.01" fill="#6A0DAD"/><rect x="206.40" y="104.80" width="8.40" height="8.40" rx="1.01" fill="#6A0DAD"/><rect x="214.80" y="104.80" width="8.40" height="8.40" rx="1.01" fill="#6A0DAD"/><rect x="223.20" y="104.80" width="8.40" height="8.40" rx="1.01" fill="#6A0DAD"/><rect x="231.60" y="104.80" width="8.40" height="8.40" rx="1.01" fill="#6A0DAD"/><rect x="240.00" y="104.80" width="8.40" height="8.40" rx="1.01" fill="#6A0DAD"/><rect x="248.40" y="104.80" width="8.40" height="8.40" rx="1.01" fill="#6A0DAD"/><rect x="256.80" y="104.80" width="8.40" height="8.40" rx="1.01" fill="#6A0DAD"/><rect x="265.20" y="104.80" width="8.40" height="8.40" rx="1.01" fill="#6A0DAD"/><rect x="273.60" y="104.80" width="8.40" height="8.40" rx="1.01" fill="#6A0DAD"/><rect x="282.00" y="104.80" width="8.40" height="8.40" rx="1.01" fill="#6A0DAD"/><rect x="172.80" y="113.20" width="8.40" height="8.40" rx="1.01" fill="#FFD700"/><rect x="181.20" y="113.20" width="8.40" height="8.40" rx="1.01" fill="#FFD700"/><rect x="198.00" y="113.20" width="8.40" height="8.40" rx="1.01" fill="#6A0DAD"/><rect x="206.40" y="113.20" width="8.40" height="8.40" rx="1.01" fill="#6A0DAD"/><rect x="214.80" y="113.20" width="8.40" height="8.40" rx="1.01" fill="#FFDAB9"/><rect x="223.20" y="113.20" width="8.40" height="8.40" rx="1.01" fill="#FFDAB9"/><rect x="231.60" y="113.20" width="8.40" height="8.40" rx="1.01" fill="#FFDAB9"/><rect x="240.00" y="113.20" width="8.40" height="8.40" rx="1.01" fill="#FFDAB9"/><rect x="248.40" y="113.20" width="8.40" height="8.40" rx="1.01" fill="#FFDAB9"/><rect x="256.80" y="113.20" width="8.40" height="8.40" rx="1.01" fill="#FFDAB9"/><rect x="265.20" y="113.20" width="8.40" height="8.40" rx="1.01" fill="#6A0DAD"/><rect x="273.60" y="113.20" width="8.40" height="8.40" rx="1.01" fill="#6A0DAD"/><rect x="282.00" y="113.20" width="8.40" height="8.40" rx="1.01" fill="#6A0DAD"/><rect x="290.40" y="113.20" width="8.40" height="8.40" rx="1.01" fill="#6A0DAD"/><rect x="172.80" y="121.60" width="8.40" height="8.40" rx="1.01" fill="#FFD700"/><rect x="189.60" y="121.60" width="8.40" height="8.40" rx="1.01" fill="#6A0DAD"/><rect x="198.00" y="121.60" width="8.40" height="8.40" rx="1.01" fill="#6A0DAD"/><rect x="206.40" y="121.60" width="8.40" height="8.40" rx="1.01" fill="#FFDAB9"/><rect x="214.80" y="121.60" width="8.40" height="8.40" rx="1.01" fill="#FFDAB9"/><rect x="223.20" y="121.60" width="8.40" height="8.40" rx="1.01" fill="#FFDAB9"/><rect x="231.60" y="121.60" width="8.40" height="8.40" rx="1.01" fill="#FFDAB9"/><rect x="240.00" y="121.60" width="8.40" height="8.40" rx="1.01" fill="#FFDAB9"/><rect x="248.40" y="121.60" width="8.40" height="8.40" rx="1.01" fill="#FFDAB9"/><rect x="256.80" y="121.60" width="8.40" height="8.40" rx="1.01" fill="#FFDAB9"/><rect x="265.20" y="121.60" width="8.40" height="8.40" rx="1.01" fill="#FFDAB9"/><rect x="273.60" y="121.60" width="8.40" height="8.40" rx="1.01" fill="#6A0DAD"/><rect x="282.00" y="121.60" width="8.40" height="8.40" rx="1.01" fill="#6A0DAD"/><rect x="290.40" y="121.60" width="8.40" height="8.40" rx="1.01" fill="#6A0DAD"/><rect x="298.80" y="121.60" width="8.40" height="8.40" rx="1.01" fill="#6A0DAD"/><rect x="164.40" y="130.00" width="8.40" height="8.40" rx="1.01" fill="#6A0DAD"/><rect x="172.80" y="130.00" width="8.40" height="8.40" rx="1.01" fill="#6A0DAD"/><rect x="181.20" y="130.00" width="8.40" height="8.40" rx="1.01" fill="#6A0DAD"/><rect x="189.60" y="130.00" width="8.40" height="8.40" rx="1.01" fill="#FFDAB9"/><rect x="198.00" y="130.00" width="8.40" height="8.40" rx="1.01" fill="#FFDAB9"/><rect x="206.40" y="130.00" width="8.40" height="8.40" rx="1.01" fill="#FFDAB9"/><rect x="214.80" y="130.00" width="8.40" height="8.40" rx="1.01" fill="#FFDAB9"/><rect x="223.20" y="130.00" width="8.40" height="8.40" rx="1.01" fill="#FFDAB9"/><rect x="231.60" y="130.00" width="8.40" height="8.40" rx="1.01" fill="#FFDAB9"/><rect x="240.00" y="130.00" width="8.40" height="8.40" rx="1.01" fill="#FFDAB9"/><rect x="248.40" y="130.00" width="8.40" height="8.40" rx="1.01" fill="#FFDAB9"/><rect x="256.80" y="130.00" width="8.40" height="8.40" rx="1.01" fill="#FFDAB9"/><rect x="265.20" y="130.00" width="8.40" height="8.40" rx="1.01" fill="#FFDAB9"/><rect x="273.60" y="130.00" width="8.40" height="8.40" rx="1.01" fill="#FFDAB9"/><rect x="282.00" y="130.00" width="8.40" height="8.40" rx="1.01" fill="#6A0DAD"/><rect x="290.40" y="130.00" width="8.40" height="8.40" rx="1.01" fill="#6A0DAD"/><rect x="298.80" y="130.00" width="8.40" height="8.40" rx="1.01" fill="#6A0DAD"/><rect x="164.40" y="138.40" width="8.40" height="8.40" rx="1.01" fill="#6A0DAD"/><rect x="172.80" y="138.40" width="8.40" height="8.40" rx="1.01" fill="#6A0DAD"/><rect x="181.20" y="138.40" width="8.40" height="8.40" rx="1.01" fill="#FFDAB9"/><rect x="189.60" y="138.40" width="8.40" height="8.40" rx="1.01" fill="#FFDAB9"/><rect x="198.00" y="138.40" width="8.40" height="8.40" rx="1.01" fill="#FFDAB9"/><rect x="206.40" y="138.40" width="8.40" height="8.40" rx="1.01" fill="#4B0082"/><rect x="214.80" y="138.40" width="8.40" height="8.40" rx="1.01" fill="#4B0082"/><rect x="223.20" y="138.40" width="8.40" height="8.40" rx="1.01" fill="#FFDAB9"/><rect x="231.60" y="138.40" width="8.40" height="8.40" rx="1.01" fill="#FFDAB9"/><rect x="240.00" y="138.40" width="8.40" height="8.40" rx="1.01" fill="#FFDAB9"/><rect x="248.40" y="138.40" width="8.40" height="8.40" rx="1.01" fill="#4B0082"/><rect x="256.80" y="138.40" width="8.40" height="8.40" rx="1.01" fill="#4B0082"/><rect x="265.20" y="138.40" width="8.40" height="8.40" rx="1.01" fill="#FFDAB9"/><rect x="273.60" y="138.40" width="8.40" height="8.40" rx="1.01" fill="#FFDAB9"/><rect x="282.00" y="138.40" width="8.40" height="8.40" rx="1.01" fill="#FFDAB9"/><rect x="290.40" y="138.40" width="8.40" height="8.40" rx="1.01" fill="#6A0DAD"/><rect x="298.80" y="138.40" width="8.40" height="8.40" rx="1.01" fill="#6A0DAD"/><rect x="164.40" y="146.80" width="8.40" height="8.40" rx="1.01" fill="#6A0DAD"/><rect x="172.80" y="146.80" width="8.40" height="8.40" rx="1.01" fill="#6A0DAD"/><rect x="181.20" y="146.80" width="8.40" height="8.40" rx="1.01" fill="#FFDAB9"/><rect x="189.60" y="146.80" width="8.40" height="8.40" rx="1.01" fill="#FFDAB9"/><rect x="198.00" y="146.80" width="8.40" height="8.40" rx="1.01" fill="#FFDAB9"/><rect x="206.40" y="146.80" width="8.40" height="8.40" rx="1.01" fill="#4B0082"/><rect x="214.80" y="146.80" width="8.40" height="8.40" rx="1.01" fill="#4B0082"/><rect x="223.20" y="146.80" width="8.40" height="8.40" rx="1.01" fill="#FFDAB9"/><rect x="231.60" y="146.80" width="8.40" height="8.40" rx="1.01" fill="#FFDAB9"/><rect x="240.00" y="146.80" width="8.40" height="8.40" rx="1.01" fill="#FFDAB9"/><rect x="248.40" y="146.80" width="8.40" height="8.40" rx="1.01" fill="#4B0082"/><rect x="256.80" y="146.80" width="8.40" height="8.40" rx="1.01" fill="#4B0082"/><rect x="265.20" y="146.80" width="8.40" height="8.40" rx="1.01" fill="#FFDAB9"/><rect x="273.60" y="146.80" width="8.40" height="8.40" rx="1.01" fill="#FFDAB9"/><rect x="282.00" y="146.80" width="8.40" height="8.40" rx="1.01" fill="#FFDAB9"/><rect x="290.40" y="146.80" width="8.40" height="8.40" rx="1.01" fill="#6A0DAD"/><rect x="298.80" y="146.80" width="8.40" height="8.40" rx="1.01" fill="#6A0DAD"/><rect x="172.80" y="155.20" width="8.40" height="8.40" rx="1.01" fill="#6A0DAD"/><rect x="181.20" y="155.20" width="8.40" height="8.40" rx="1.01" fill="#6A0DAD"/><rect x="189.60" y="155.20" width="8.40" height="8.40" rx="1.01" fill="#FFDAB9"/><rect x="198.00" y="155.20" width="8.40" height="8.40" rx="1.01" fill="#FFDAB9"/><rect x="206.40" y="155.20" width="8.40" height="8.40" rx="1.01" fill="#FFDAB9"/><rect x="214.80" y="155.20" width="8.40" height="8.40" rx="1.01" fill="#FFDAB9"/><rect x="223.20" y="155.20" width="8.40" height="8.40" rx="1.01" fill="#FFDAB9"/><rect x="231.60" y="155.20" width="8.40" height="8.40" rx="1.01" fill="#FFDAB9"/><rect x="240.00" y="155.20" width="8.40" height="8.40" rx="1.01" fill="#FFDAB9"/><rect x="248.40" y="155.20" width="8.40" height="8.40" rx="1.01" fill="#FFDAB9"/><rect x="256.80" y="155.20" width="8.40" height="8.40" rx="1.01" fill="#FFDAB9"/><rect x="265.20" y="155.20" width="8.40" height="8.40" rx="1.01" fill="#FFDAB9"/><rect x="273.60" y="155.20" width="8.40" height="8.40" rx="1.01" fill="#FFDAB9"/><rect x="282.00" y="155.20" width="8.40" height="8.40" rx="1.01" fill="#6A0DAD"/><rect x="290.40" y="155.20" width="8.40" height="8.40" rx="1.01" fill="#6A0DAD"/><rect x="307.20" y="155.20" width="8.40" height="8.40" rx="1.01" fill="#FFD700"/><rect x="181.20" y="163.60" width="8.40" height="8.40" rx="1.01" fill="#6A0DAD"/><rect x="189.60" y="163.60" width="8.40" height="8.40" rx="1.01" fill="#6A0DAD"/><rect x="198.00" y="163.60" width="8.40" height="8.40" rx="1.01" fill="#FFDAB9"/><rect x="206.40" y="163.60" width="8.40" height="8.40" rx="1.01" fill="#FFDAB9"/><rect x="214.80" y="163.60" width="8.40" height="8.40" rx="1.01" fill="#FFDAB9"/><rect x="223.20" y="163.60" width="8.40" height="8.40" rx="1.01" fill="#FFDAB9"/><rect x="231.60" y="163.60" width="8.40" height="8.40" rx="1.01" fill="#FFDAB9"/><rect x="240.00" y="163.60" width="8.40" height="8.40" rx="1.01" fill="#FFDAB9"/><rect x="248.40" y="163.60" width="8.40" height="8.40" rx="1.01" fill="#FFDAB9"/><rect x="256.80" y="163.60" width="8.40" height="8.40" rx="1.01" fill="#FFDAB9"/><rect x="265.20" y="163.60" width="8.40" height="8.40" rx="1.01" fill="#FFDAB9"/><rect x="273.60" y="163.60" width="8.40" height="8.40" rx="1.01" fill="#6A0DAD"/><rect x="282.00" y="163.60" width="8.40" height="8.40" rx="1.01" fill="#6A0DAD"/><rect x="298.80" y="163.60" width="8.40" height="8.40" rx="1.01" fill="#FFD700"/><rect x="307.20" y="163.60" width="8.40" height="8.40" rx="1.01" fill="#FFD700"/><rect x="189.60" y="172.00" width="8.40" height="8.40" rx="1.01" fill="#6A0DAD"/><rect x="198.00" y="172.00" width="8.40" height="8.40" rx="1.01" fill="#6A0DAD"/><rect x="206.40" y="172.00" width="8.40" height="8.40" rx="1.01" fill="#6A0DAD"/><rect x="214.80" y="172.00" width="8.40" height="8.40" rx="1.01" fill="#FFDAB9"/><rect x="223.20" y="172.00" width="8.40" height="8.40" rx="1.01" fill="#FFDAB9"/><rect x="231.60" y="172.00" width="8.40" height="8.40" rx="1.01" fill="#FFDAB9"/><rect x="240.00" y="172.00" width="8.40" height="8.40" rx="1.01" fill="#FFDAB9"/><rect x="248.40" y="172.00" width="8.40" height="8.40" rx="1.01" fill="#FFDAB9"/><rect x="256.80" y="172.00" width="8.40" height="8.40" rx="1.01" fill="#6A0DAD"/><rect x="265.20" y="172.00" width="8.40" height="8.40" rx="1.01" fill="#6A0DAD"/><rect x="273.60" y="172.00" width="8.40" height="8.40" rx="1.01" fill="#6A0DAD"/><rect x="307.20" y="172.00" width="8.40" height="8.40" rx="1.01" fill="#FFD700"/><rect x="198.00" y="180.40" width="8.40" height="8.40" rx="1.01" fill="#6A0DAD"/><rect x="206.40" y="180.40" width="8.40" height="8.40" rx="1.01" fill="#6A0DAD"/><rect x="214.80" y="180.40" width="8.40" height="8.40" rx="1.01" fill="#6A0DAD"/><rect x="223.20" y="180.40" width="8.40" height="8.40" rx="1.01" fill="#8A2BE2"/><rect x="231.60" y="180.40" width="8.40" height="8.40" rx="1.01" fill="#8A2BE2"/><rect x="240.00" y="180.40" width="8.40" height="8.40" rx="1.01" fill="#8A2BE2"/><rect x="248.40" y="180.40" width="8.40" height="8.40" rx="1.01" fill="#6A0DAD"/><rect x="256.80" y="180.40" width="8.40" height="8.40" rx="1.01" fill="#6A0DAD"/><rect x="265.20" y="180.40" width="8.40" height="8.40" rx="1.01" fill="#6A0DAD"/><rect x="206.40" y="188.80" width="8.40" height="8.40" rx="1.01" fill="#6A0DAD"/><rect x="214.80" y="188.80" width="8.40" height="8.40" rx="1.01" fill="#6A0DAD"/><rect x="223.20" y="188.80" width="8.40" height="8.40" rx="1.01" fill="#8A2BE2"/><rect x="231.60" y="188.80" width="8.40" height="8.40" rx="1.01" fill="#8A2BE2"/><rect x="240.00" y="188.80" width="8.40" height="8.40" rx="1.01" fill="#8A2BE2"/><rect x="248.40" y="188.80" width="8.40" height="8.40" rx="1.01" fill="#6A0DAD"/><rect x="256.80" y="188.80" width="8.40" height="8.40" rx="1.01" fill="#6A0DAD"/><rect x="214.80" y="197.20" width="8.40" height="8.40" rx="1.01" fill="#6A0DAD"/><rect x="223.20" y="197.20" width="8.40" height="8.40" rx="1.01" fill="#6A0DAD"/><rect x="231.60" y="197.20" width="8.40" height="8.40" rx="1.01" fill="#8A2BE2"/><rect x="240.00" y="197.20" width="8.40" height="8.40" rx="1.01" fill="#6A0DAD"/><rect x="248.40" y="197.20" width="8.40" height="8.40" rx="1.01" fill="#6A0DAD"/><rect x="223.20" y="205.60" width="8.40" height="8.40" rx="1.01" fill="#6A0DAD"/><rect x="231.60" y="205.60" width="8.40" height="8.40" rx="1.01" fill="#6A0DAD"/><rect x="240.00" y="205.60" width="8.40" height="8.40" rx="1.01" fill="#6A0DAD"/><rect x="214.80" y="214.00" width="8.40" height="8.40" rx="1.01" fill="#6A0DAD"/><rect x="223.20" y="214.00" width="8.40" height="8.40" rx="1.01" fill="#6A0DAD"/><rect x="231.60" y="214.00" width="8.40" height="8.40" rx="1.01" fill="#4B0082"/><rect x="240.00" y="214.00" width="8.40" height="8.40" rx="1.01" fill="#6A0DAD"/><rect x="248.40" y="214.00" width="8.40" height="8.40" rx="1.01" fill="#6A0DAD"/><rect x="206.40" y="222.40" width="8.40" height="8.40" rx="1.01" fill="#6A0DAD"/><rect x="214.80" y="222.40" width="8.40" height="8.40" rx="1.01" fill="#6A0DAD"/><rect x="223.20" y="222.40" width="8.40" height="8.40" rx="1.01" fill="#4B0082"/><rect x="231.60" y="222.40" width="8.40" height="8.40" rx="1.01" fill="#4B0082"/><rect x="240.00" y="222.40" width="8.40" height="8.40" rx="1.01" fill="#4B0082"/><rect x="248.40" y="222.40" width="8.40" height="8.40" rx="1.01" fill="#6A0DAD"/><rect x="256.80" y="222.40" width="8.40" height="8.40" rx="1.01" fill="#6A0DAD"/><rect x="198.00" y="230.80" width="8.40" height="8.40" rx="1.01" fill="#6A0DAD"/><rect x="206.40" y="230.80" width="8.40" height="8.40" rx="1.01" fill="#6A0DAD"/><rect x="214.80" y="230.80" width="8.40" height="8.40" rx="1.01" fill="#4B0082"/><rect x="223.20" y="230.80" width="8.40" height="8.40" rx="1.01" fill="#4B0082"/><rect x="231.60" y="230.80" width="8.40" height="8.40" rx="1.01" fill="#FFD700"/><rect x="240.00" y="230.80" width="8.40" height="8.40" rx="1.01" fill="#4B0082"/><rect x="248.40" y="230.80" width="8.40" height="8.40" rx="1.01" fill="#4B0082"/><rect x="256.80" y="230.80" width="8.40" height="8.40" rx="1.01" fill="#6A0DAD"/><rect x="265.20" y="230.80" width="8.40" height="8.40" rx="1.01" fill="#6A0DAD"/><rect x="189.60" y="239.20" width="8.40" height="8.40" rx="1.01" fill="#6A0DAD"/><rect x="198.00" y="239.20" width="8.40" height="8.40" rx="1.01" fill="#6A0DAD"/><rect x="206.40" y="239.20" width="8.40" height="8.40" rx="1.01" fill="#4B0082"/><rect x="214.80" y="239.20" width="8.40" height="8.40" rx="1.01" fill="#4B0082"/><rect x="223.20" y="239.20" width="8.40" height="8.40" rx="1.01" fill="#FFD700"/><rect x="231.60" y="239.20" width="8.40" height="8.40" rx="1.01" fill="#FFD700"/><rect x="240.00" y="239.20" width="8.40" height="8.40" rx="1.01" fill="#FFD700"/><rect x="248.40" y="239.20" width="8.40" height="8.40" rx="1.01" fill="#4B0082"/><rect x="256.80" y="239.20" width="8.40" height="8.40" rx="1.01" fill="#4B0082"/><rect x="265.20" y="239.20" width="8.40" height="8.40" rx="1.01" fill="#6A0DAD"/><rect x="273.60" y="239.20" width="8.40" height="8.40" rx="1.01" fill="#6A0DAD"/><rect x="181.20" y="247.60" width="8.40" height="8.40" rx="1.01" fill="#6A0DAD"/><rect x="189.60" y="247.60" width="8.40" height="8.40" rx="1.01" fill="#6A0DAD"/><rect x="198.00" y="247.60" width="8.40" height="8.40" rx="1.01" fill="#4B0082"/><rect x="206.40" y="247.60" width="8.40" height="8.40" rx="1.01" fill="#4B0082"/><rect x="214.80" y="247.60" width="8.40" height="8.40" rx="1.01" fill="#4B0082"/><rect x="223.20" y="247.60" width="8.40" height="8.40" rx="1.01" fill="#4B0082"/><rect x="231.60" y="247.60" width="8.40" height="8.40" rx="1.01" fill="#4B0082"/><rect x="240.00" y="247.60" width="8.40" height="8.40" rx="1.01" fill="#4B0082"/><rect x="248.40" y="247.60" width="8.40" height="8.40" rx="1.01" fill="#4B0082"/><rect x="256.80" y="247.60" width="8.40" height="8.40" rx="1.01" fill="#4B0082"/><rect x="265.20" y="247.60" width="8.40" height="8.40" rx="1.01" fill="#4B0082"/><rect x="273.60" y="247.60" width="8.40" height="8.40" rx="1.01" fill="#6A0DAD"/><rect x="282.00" y="247.60" width="8.40" height="8.40" rx="1.01" fill="#6A0DAD"/>
  <rect x="390" y="20" width="70" height="22" rx="11" fill="#ef4444"/>
  <text x="425" y="35" font-family="-apple-system, sans-serif" font-size="11" font-weight="600" fill="#ffffff" text-anchor="middle">HARD</text>
  <rect x="20" y="20" width="56" height="22" rx="11" fill="#A855F7" opacity="0.9"/>
  <text x="48" y="35" font-family="-apple-system, sans-serif" font-size="10" font-weight="600" fill="#ffffff" text-anchor="middle">ANIME</text>
  <text x="240" y="286" font-family="-apple-system, 'PingFang SC', sans-serif" font-size="16" font-weight="600" fill="#1d1d1f" text-anchor="middle">雷电将军</text>
  <text x="240" y="304" font-family="-apple-system, sans-serif" font-size="11" font-weight="400" fill="#86868b" text-anchor="middle">222 beads · 20×20</text>
</svg>
