<?xml version="1.0" encoding="UTF-8"?>
<svg xmlns="http://www.w3.org/2000/svg" viewBox="0 0 480 360" width="480" height="360">
  
    <defs>
      <linearGradient id="bg" x1="0" y1="0" x2="1" y2="1">
        <stop offset="0%" stop-color="#FF0000" stop-opacity="0.15"/>
        <stop offset="100%" stop-color="#FFB6C1" stop-opacity="0.25"/>
      </linearGradient>
      <linearGradient id="card" x1="0" y1="0" x2="0" y2="1">
        <stop offset="0%" stop-color="#ffffff"/>
        <stop offset="100%" stop-color="#f8f9fa"/>
      </linearGradient>
      <filter id="shadow" x="-20%" y="-20%" width="140%" height="140%">
        <feDropShadow dx="0" dy="4" stdDeviation="6" flood-opacity="0.15"/>
      </filter>
    </defs>
  
  <rect width="480" height="360" fill="url(#bg)" />
  <rect x="244" y="251" width="4" height="4" rx="1" fill="#FF0000" opacity="0.15" /><rect x="407" y="156" width="6" height="6" rx="1" fill="#FFD700" opacity="0.25" /><rect x="130" y="284" width="6" height="6" rx="1" fill="#FF0000" opacity="0.10" /><rect x="293" y="188" width="8" height="8" rx="1" fill="#FFD700" opacity="0.20" /><rect x="456" y="93" width="4" height="4" rx="1" fill="#FFB6C1" opacity="0.30" /><rect x="178" y="221" width="4" height="4" rx="1" fill="#FFD700" opacity="0.15" /><rect x="341" y="125" width="6" height="6" rx="1" fill="#FFB6C1" opacity="0.25" /><rect x="64" y="254" width="6" height="6" rx="1" fill="#FFD700" opacity="0.10" /><rect x="227" y="158" width="8" height="8" rx="1" fill="#FFB6C1" opacity="0.20" /><rect x="390" y="62" width="4" height="4" rx="1" fill="#FF0000" opacity="0.30" /><rect x="112" y="191" width="4" height="4" rx="1" fill="#FFB6C1" opacity="0.15" /><rect x="275" y="95" width="6" height="6" rx="1" fill="#FF0000" opacity="0.25" />
  <rect x="148" y="89" width="184" height="142" rx="12" fill="url(#card)" filter="url(#shadow)" />
  <rect x="170" y="97" width="14" height="14" rx="2" fill="#FF0000" /><rect x="184" y="97" width="14" height="14" rx="2" fill="#FF0000" /><rect x="282" y="97" width="14" height="14" rx="2" fill="#FF0000" /><rect x="296" y="97" width="14" height="14" rx="2" fill="#FF0000" /><rect x="156" y="111" width="14" height="14" rx="2" fill="#FF0000" /><rect x="170" y="111" width="14" height="14" rx="2" fill="#FF0000" /><rect x="184" y="111" width="14" height="14" rx="2" fill="#FF0000" /><rect x="198" y="111" width="14" height="14" rx="2" fill="#FF0000" /><rect x="268" y="111" width="14" height="14" rx="2" fill="#FF0000" /><rect x="282" y="111" width="14" height="14" rx="2" fill="#FF0000" /><rect x="296" y="111" width="14" height="14" rx="2" fill="#FF0000" /><rect x="310" y="111" width="14" height="14" rx="2" fill="#FF0000" /><rect x="156" y="125" width="14" height="14" rx="2" fill="#FF0000" /><rect x="170" y="125" width="14" height="14" rx="2" fill="#FF0000" /><rect x="184" y="125" width="14" height="14" rx="2" fill="#FF0000" /><rect x="198" y="125" width="14" height="14" rx="2" fill="#FF0000" /><rect x="212" y="125" width="14" height="14" rx="2" fill="#FF0000" /><rect x="254" y="125" width="14" height="14" rx="2" fill="#FF0000" /><rect x="268" y="125" width="14" height="14" rx="2" fill="#FF0000" /><rect x="282" y="125" width="14" height="14" rx="2" fill="#FF0000" /><rect x="296" y="125" width="14" height="14" rx="2" fill="#FF0000" /><rect x="310" y="125" width="14" height="14" rx="2" fill="#FF0000" /><rect x="156" y="139" width="14" height="14" rx="2" fill="#FF0000" /><rect x="170" y="139" width="14" height="14" rx="2" fill="#FF0000" /><rect x="184" y="139" width="14" height="14" rx="2" fill="#FF0000" /><rect x="198" y="139" width="14" height="14" rx="2" fill="#FF0000" /><rect x="212" y="139" width="14" height="14" rx="2" fill="#FF0000" /><rect x="226" y="139" width="14" height="14" rx="2" fill="#FF0000" /><rect x="240" y="139" width="14" height="14" rx="2" fill="#FF0000" /><rect x="254" y="139" width="14" height="14" rx="2" fill="#FF0000" /><rect x="268" y="139" width="14" height="14" rx="2" fill="#FF0000" /><rect x="282" y="139" width="14" height="14" rx="2" fill="#FF0000" /><rect x="296" y="139" width="14" height="14" rx="2" fill="#FF0000" /><rect x="310" y="139" width="14" height="14" rx="2" fill="#FF0000" /><rect x="156" y="153" width="14" height="14" rx="2" fill="#FF0000" /><rect x="170" y="153" width="14" height="14" rx="2" fill="#FF0000" /><rect x="184" y="153" width="14" height="14" rx="2" fill="#FF0000" /><rect x="198" y="153" width="14" height="14" rx="2" fill="#FF0000" /><rect x="212" y="153" width="14" height="14" rx="2" fill="#FF0000" /><rect x="226" y="153" width="14" height="14" rx="2" fill="#FF0000" /><rect x="240" y="153" width="14" height="14" rx="2" fill="#FF0000" /><rect x="254" y="153" width="14" height="14" rx="2" fill="#FF0000" /><rect x="268" y="153" width="14" height="14" rx="2" fill="#FF0000" /><rect x="282" y="153" width="14" height="14" rx="2" fill="#FF0000" /><rect x="296" y="153" width="14" height="14" rx="2" fill="#FF0000" /><rect x="310" y="153" width="14" height="14" rx="2" fill="#FF0000" /><rect x="170" y="167" width="14" height="14" rx="2" fill="#FF0000" /><rect x="184" y="167" width="14" height="14" rx="2" fill="#FF0000" /><rect x="198" y="167" width="14" height="14" rx="2" fill="#FF0000" /><rect x="212" y="167" width="14" height="14" rx="2" fill="#FF0000" /><rect x="226" y="167" width="14" height="14" rx="2" fill="#FF0000" /><rect x="240" y="167" width="14" height="14" rx="2" fill="#FF0000" /><rect x="254" y="167" width="14" height="14" rx="2" fill="#FF0000" /><rect x="268" y="167" width="14" height="14" rx="2" fill="#FF0000" /><rect x="282" y="167" width="14" height="14" rx="2" fill="#FF0000" /><rect x="296" y="167" width="14" height="14" rx="2" fill="#FF0000" /><rect x="184" y="181" width="14" height="14" rx="2" fill="#FF0000" /><rect x="198" y="181" width="14" height="14" rx="2" fill="#FF0000" /><rect x="212" y="181" width="14" height="14" rx="2" fill="#FF0000" /><rect x="226" y="181" width="14" height="14" rx="2" fill="#FF0000" /><rect x="240" y="181" width="14" height="14" rx="2" fill="#FF0000" /><rect x="254" y="181" width="14" height="14" rx="2" fill="#FF0000" /><rect x="268" y="181" width="14" height="14" rx="2" fill="#FF0000" /><rect x="282" y="181" width="14" height="14" rx="2" fill="#FF0000" /><rect x="198" y="195" width="14" height="14" rx="2" fill="#FF0000" /><rect x="212" y="195" width="14" height="14" rx="2" fill="#FF0000" /><rect x="226" y="195" width="14" height="14" rx="2" fill="#FF0000" /><rect x="240" y="195" width="14" height="14" rx="2" fill="#FF0000" /><rect x="254" y="195" width="14" height="14" rx="2" fill="#FF0000" /><rect x="268" y="195" width="14" height="14" rx="2" fill="#FF0000" /><rect x="212" y="209" width="14" height="14" rx="2" fill="#FF0000" /><rect x="226" y="209" width="14" height="14" rx="2" fill="#FF0000" /><rect x="240" y="209" width="14" height="14" rx="2" fill="#FF0000" /><rect x="254" y="209" width="14" height="14" rx="2" fill="#FF0000" />
  <rect x="390" y="16" width="74" height="26" rx="13" fill="#22c55e" />
  <text x="427" y="33" text-anchor="middle" fill="#fff" font-size="13" font-family="system-ui, sans-serif" font-weight="600">简单</text>
  <text x="240" y="340" text-anchor="middle" fill="#1f2937" font-size="20" font-family="system-ui, sans-serif" font-weight="700">爱心礼盒</text>
</svg>