<?xml version="1.0" encoding="UTF-8"?>
<svg xmlns="http://www.w3.org/2000/svg" viewBox="0 0 480 360" width="480" height="360">
  
    <defs>
      <linearGradient id="bg" x1="0" y1="0" x2="1" y2="1">
        <stop offset="0%" stop-color="#000000" stop-opacity="0.15"/>
        <stop offset="100%" stop-color="#FFD700" stop-opacity="0.25"/>
      </linearGradient>
      <linearGradient id="card" x1="0" y1="0" x2="0" y2="1">
        <stop offset="0%" stop-color="#ffffff"/>
        <stop offset="100%" stop-color="#f8f9fa"/>
      </linearGradient>
      <filter id="shadow" x="-20%" y="-20%" width="140%" height="140%">
        <feDropShadow dx="0" dy="4" stdDeviation="6" flood-opacity="0.15"/>
      </filter>
    </defs>
  
  <rect width="480" height="360" fill="url(#bg)" />
  <rect x="121" y="237" width="8" height="8" rx="1" fill="#FF0000" opacity="0.25" /><rect x="284" y="142" width="4" height="4" rx="1" fill="#FFD700" opacity="0.10" /><rect x="447" y="46" width="6" height="6" rx="1" fill="#FF0000" opacity="0.20" /><rect x="170" y="174" width="6" height="6" rx="1" fill="#FFD700" opacity="0.30" /><rect x="332" y="79" width="8" height="8" rx="1" fill="#FF0000" opacity="0.15" /><rect x="55" y="207" width="8" height="8" rx="1" fill="#FFD700" opacity="0.25" /><rect x="218" y="111" width="4" height="4" rx="1" fill="#FF0000" opacity="0.10" /><rect x="381" y="336" width="6" height="6" rx="1" fill="#FFD700" opacity="0.20" /><rect x="104" y="144" width="6" height="6" rx="1" fill="#FF0000" opacity="0.30" /><rect x="266" y="48" width="8" height="8" rx="1" fill="#FFD700" opacity="0.15" /><rect x="429" y="272" width="4" height="4" rx="1" fill="#FF0000" opacity="0.25" /><rect x="152" y="81" width="4" height="4" rx="1" fill="#FFD700" opacity="0.10" />
  <rect x="120" y="40" width="240" height="240" rx="12" fill="url(#card)" filter="url(#shadow)" />
  <rect x="128" y="48" width="14" height="14" rx="2" fill="#FF0000" /><rect x="142" y="48" width="14" height="14" rx="2" fill="#FF0000" /><rect x="296" y="48" width="14" height="14" rx="2" fill="#FF0000" /><rect x="310" y="48" width="14" height="14" rx="2" fill="#FF0000" /><rect x="128" y="62" width="14" height="14" rx="2" fill="#FF0000" /><rect x="142" y="62" width="14" height="14" rx="2" fill="#FF0000" /><rect x="156" y="62" width="14" height="14" rx="2" fill="#FF0000" /><rect x="282" y="62" width="14" height="14" rx="2" fill="#FF0000" /><rect x="296" y="62" width="14" height="14" rx="2" fill="#FF0000" /><rect x="310" y="62" width="14" height="14" rx="2" fill="#FF0000" /><rect x="128" y="76" width="14" height="14" rx="2" fill="#FF0000" /><rect x="142" y="76" width="14" height="14" rx="2" fill="#FF0000" /><rect x="156" y="76" width="14" height="14" rx="2" fill="#FF0000" /><rect x="170" y="76" width="14" height="14" rx="2" fill="#FF0000" /><rect x="184" y="76" width="14" height="14" rx="2" fill="#FF0000" /><rect x="198" y="76" width="14" height="14" rx="2" fill="#FF0000" /><rect x="212" y="76" width="14" height="14" rx="2" fill="#FF0000" /><rect x="226" y="76" width="14" height="14" rx="2" fill="#FF0000" /><rect x="240" y="76" width="14" height="14" rx="2" fill="#FF0000" /><rect x="254" y="76" width="14" height="14" rx="2" fill="#FF0000" /><rect x="268" y="76" width="14" height="14" rx="2" fill="#FF0000" /><rect x="282" y="76" width="14" height="14" rx="2" fill="#FF0000" /><rect x="296" y="76" width="14" height="14" rx="2" fill="#FF0000" /><rect x="310" y="76" width="14" height="14" rx="2" fill="#FF0000" /><rect x="142" y="90" width="14" height="14" rx="2" fill="#FF0000" /><rect x="156" y="90" width="14" height="14" rx="2" fill="#FF0000" /><rect x="170" y="90" width="14" height="14" rx="2" fill="#FF0000" /><rect x="184" y="90" width="14" height="14" rx="2" fill="#FF0000" /><rect x="198" y="90" width="14" height="14" rx="2" fill="#FF0000" /><rect x="212" y="90" width="14" height="14" rx="2" fill="#FF0000" /><rect x="226" y="90" width="14" height="14" rx="2" fill="#FF0000" /><rect x="240" y="90" width="14" height="14" rx="2" fill="#FF0000" /><rect x="254" y="90" width="14" height="14" rx="2" fill="#FF0000" /><rect x="268" y="90" width="14" height="14" rx="2" fill="#FF0000" /><rect x="282" y="90" width="14" height="14" rx="2" fill="#FF0000" /><rect x="296" y="90" width="14" height="14" rx="2" fill="#FF0000" /><rect x="198" y="104" width="14" height="14" rx="2" fill="#000000" /><rect x="212" y="104" width="14" height="14" rx="2" fill="#000000" /><rect x="226" y="104" width="14" height="14" rx="2" fill="#000000" /><rect x="240" y="104" width="14" height="14" rx="2" fill="#000000" /><rect x="254" y="104" width="14" height="14" rx="2" fill="#000000" /><rect x="184" y="118" width="14" height="14" rx="2" fill="#000000" /><rect x="198" y="118" width="14" height="14" rx="2" fill="#000000" /><rect x="212" y="118" width="14" height="14" rx="2" fill="#FFD700" /><rect x="226" y="118" width="14" height="14" rx="2" fill="#FFD700" /><rect x="240" y="118" width="14" height="14" rx="2" fill="#FFD700" /><rect x="254" y="118" width="14" height="14" rx="2" fill="#000000" /><rect x="268" y="118" width="14" height="14" rx="2" fill="#000000" /><rect x="170" y="132" width="14" height="14" rx="2" fill="#000000" /><rect x="184" y="132" width="14" height="14" rx="2" fill="#000000" /><rect x="198" y="132" width="14" height="14" rx="2" fill="#FFD700" /><rect x="212" y="132" width="14" height="14" rx="2" fill="#FFD700" /><rect x="226" y="132" width="14" height="14" rx="2" fill="#FFD700" /><rect x="240" y="132" width="14" height="14" rx="2" fill="#FFD700" /><rect x="254" y="132" width="14" height="14" rx="2" fill="#FFD700" /><rect x="268" y="132" width="14" height="14" rx="2" fill="#000000" /><rect x="282" y="132" width="14" height="14" rx="2" fill="#000000" /><rect x="170" y="146" width="14" height="14" rx="2" fill="#000000" /><rect x="184" y="146" width="14" height="14" rx="2" fill="#FFD700" /><rect x="198" y="146" width="14" height="14" rx="2" fill="#FFD700" /><rect x="212" y="146" width="14" height="14" rx="2" fill="#FFD700" /><rect x="226" y="146" width="14" height="14" rx="2" fill="#FFD700" /><rect x="240" y="146" width="14" height="14" rx="2" fill="#FFD700" /><rect x="254" y="146" width="14" height="14" rx="2" fill="#FFD700" /><rect x="268" y="146" width="14" height="14" rx="2" fill="#FFD700" /><rect x="282" y="146" width="14" height="14" rx="2" fill="#000000" /><rect x="170" y="160" width="14" height="14" rx="2" fill="#000000" /><rect x="184" y="160" width="14" height="14" rx="2" fill="#FFD700" /><rect x="198" y="160" width="14" height="14" rx="2" fill="#FFD700" /><rect x="212" y="160" width="14" height="14" rx="2" fill="#FFD700" /><rect x="226" y="160" width="14" height="14" rx="2" fill="#FFD700" /><rect x="240" y="160" width="14" height="14" rx="2" fill="#FFD700" /><rect x="254" y="160" width="14" height="14" rx="2" fill="#FFD700" /><rect x="268" y="160" width="14" height="14" rx="2" fill="#FFD700" /><rect x="282" y="160" width="14" height="14" rx="2" fill="#000000" /><rect x="170" y="174" width="14" height="14" rx="2" fill="#000000" /><rect x="184" y="174" width="14" height="14" rx="2" fill="#FFD700" /><rect x="198" y="174" width="14" height="14" rx="2" fill="#FFD700" /><rect x="212" y="174" width="14" height="14" rx="2" fill="#000000" /><rect x="226" y="174" width="14" height="14" rx="2" fill="#000000" /><rect x="240" y="174" width="14" height="14" rx="2" fill="#000000" /><rect x="254" y="174" width="14" height="14" rx="2" fill="#FFD700" /><rect x="268" y="174" width="14" height="14" rx="2" fill="#FFD700" /><rect x="282" y="174" width="14" height="14" rx="2" fill="#000000" /><rect x="170" y="188" width="14" height="14" rx="2" fill="#000000" /><rect x="184" y="188" width="14" height="14" rx="2" fill="#FFD700" /><rect x="198" y="188" width="14" height="14" rx="2" fill="#FFD700" /><rect x="212" y="188" width="14" height="14" rx="2" fill="#FFFFFF" /><rect x="226" y="188" width="14" height="14" rx="2" fill="#FFFFFF" /><rect x="240" y="188" width="14" height="14" rx="2" fill="#FFFFFF" /><rect x="254" y="188" width="14" height="14" rx="2" fill="#FFD700" /><rect x="268" y="188" width="14" height="14" rx="2" fill="#FFD700" /><rect x="282" y="188" width="14" height="14" rx="2" fill="#000000" /><rect x="170" y="202" width="14" height="14" rx="2" fill="#000000" /><rect x="184" y="202" width="14" height="14" rx="2" fill="#FFD700" /><rect x="198" y="202" width="14" height="14" rx="2" fill="#FFD700" /><rect x="212" y="202" width="14" height="14" rx="2" fill="#FFFFFF" /><rect x="226" y="202" width="14" height="14" rx="2" fill="#FFFFFF" /><rect x="240" y="202" width="14" height="14" rx="2" fill="#FFFFFF" /><rect x="254" y="202" width="14" height="14" rx="2" fill="#FFD700" /><rect x="268" y="202" width="14" height="14" rx="2" fill="#FFD700" /><rect x="282" y="202" width="14" height="14" rx="2" fill="#000000" /><rect x="170" y="216" width="14" height="14" rx="2" fill="#000000" /><rect x="184" y="216" width="14" height="14" rx="2" fill="#FFD700" /><rect x="198" y="216" width="14" height="14" rx="2" fill="#FFD700" /><rect x="212" y="216" width="14" height="14" rx="2" fill="#000000" /><rect x="226" y="216" width="14" height="14" rx="2" fill="#000000" /><rect x="240" y="216" width="14" height="14" rx="2" fill="#000000" /><rect x="254" y="216" width="14" height="14" rx="2" fill="#FFD700" /><rect x="268" y="216" width="14" height="14" rx="2" fill="#FFD700" /><rect x="282" y="216" width="14" height="14" rx="2" fill="#000000" /><rect x="170" y="230" width="14" height="14" rx="2" fill="#000000" /><rect x="184" y="230" width="14" height="14" rx="2" fill="#FFD700" /><rect x="198" y="230" width="14" height="14" rx="2" fill="#FFD700" /><rect x="212" y="230" width="14" height="14" rx="2" fill="#FFD700" /><rect x="226" y="230" width="14" height="14" rx="2" fill="#FFD700" /><rect x="240" y="230" width="14" height="14" rx="2" fill="#FFD700" /><rect x="254" y="230" width="14" height="14" rx="2" fill="#FFD700" /><rect x="268" y="230" width="14" height="14" rx="2" fill="#FFD700" /><rect x="282" y="230" width="14" height="14" rx="2" fill="#000000" /><rect x="184" y="244" width="14" height="14" rx="2" fill="#000000" /><rect x="198" y="244" width="14" height="14" rx="2" fill="#000000" /><rect x="212" y="244" width="14" height="14" rx="2" fill="#FFD700" /><rect x="226" y="244" width="14" height="14" rx="2" fill="#FFD700" /><rect x="240" y="244" width="14" height="14" rx="2" fill="#FFD700" /><rect x="254" y="244" width="14" height="14" rx="2" fill="#000000" /><rect x="268" y="244" width="14" height="14" rx="2" fill="#000000" /><rect x="198" y="258" width="14" height="14" rx="2" fill="#000000" /><rect x="212" y="258" width="14" height="14" rx="2" fill="#000000" /><rect x="226" y="258" width="14" height="14" rx="2" fill="#000000" /><rect x="240" y="258" width="14" height="14" rx="2" fill="#000000" /><rect x="254" y="258" width="14" height="14" rx="2" fill="#000000" />
  <rect x="390" y="16" width="74" height="26" rx="13" fill="#22c55e" />
  <text x="427" y="33" text-anchor="middle" fill="#fff" font-size="13" font-family="system-ui, sans-serif" font-weight="600">简单</text>
  <text x="240" y="340" text-anchor="middle" fill="#1f2937" font-size="20" font-family="system-ui, sans-serif" font-weight="700">迪士尼 Tsum Tsum</text>
</svg>