<?xml version="1.0" encoding="UTF-8"?>
<svg xmlns="http://www.w3.org/2000/svg" viewBox="0 0 480 360" width="480" height="360">
  
    <defs>
      <linearGradient id="bg" x1="0" y1="0" x2="1" y2="1">
        <stop offset="0%" stop-color="#FFFFFF" stop-opacity="0.15"/>
        <stop offset="100%" stop-color="#FFFFFF" stop-opacity="0.25"/>
      </linearGradient>
      <linearGradient id="card" x1="0" y1="0" x2="0" y2="1">
        <stop offset="0%" stop-color="#ffffff"/>
        <stop offset="100%" stop-color="#f8f9fa"/>
      </linearGradient>
      <filter id="shadow" x="-20%" y="-20%" width="140%" height="140%">
        <feDropShadow dx="0" dy="4" stdDeviation="6" flood-opacity="0.15"/>
      </filter>
    </defs>
  
  <rect width="480" height="360" fill="url(#bg)" />
  <rect x="24" y="43" width="6" height="6" rx="1" fill="#FFFFFF" opacity="0.15" /><rect x="187" y="268" width="8" height="8" rx="1" fill="#000000" opacity="0.25" /><rect x="350" y="172" width="4" height="4" rx="1" fill="#FF69B4" opacity="0.10" /><rect x="73" y="300" width="4" height="4" rx="1" fill="#FFD700" opacity="0.20" /><rect x="236" y="205" width="6" height="6" rx="1" fill="#87CEEB" opacity="0.30" /><rect x="398" y="109" width="8" height="8" rx="1" fill="#FFFFFF" opacity="0.15" /><rect x="121" y="237" width="8" height="8" rx="1" fill="#000000" opacity="0.25" /><rect x="284" y="142" width="4" height="4" rx="1" fill="#FF69B4" opacity="0.10" /><rect x="447" y="46" width="6" height="6" rx="1" fill="#FFD700" opacity="0.20" /><rect x="170" y="174" width="6" height="6" rx="1" fill="#87CEEB" opacity="0.30" /><rect x="332" y="79" width="8" height="8" rx="1" fill="#FFFFFF" opacity="0.15" /><rect x="55" y="207" width="8" height="8" rx="1" fill="#000000" opacity="0.25" />
  <rect x="148" y="89" width="184" height="142" rx="12" fill="url(#card)" filter="url(#shadow)" />
  <rect x="212" y="97" width="14" height="14" rx="2" fill="#FFD700" /><rect x="212" y="111" width="14" height="14" rx="2" fill="#FFD700" /><rect x="226" y="111" width="14" height="14" rx="2" fill="#FFD700" /><rect x="198" y="125" width="14" height="14" rx="2" fill="#FFD700" /><rect x="212" y="125" width="14" height="14" rx="2" fill="#FFFFFF" /><rect x="226" y="125" width="14" height="14" rx="2" fill="#FFFFFF" /><rect x="240" y="125" width="14" height="14" rx="2" fill="#FFD700" /><rect x="184" y="139" width="14" height="14" rx="2" fill="#FFD700" /><rect x="198" y="139" width="14" height="14" rx="2" fill="#FFFFFF" /><rect x="212" y="139" width="14" height="14" rx="2" fill="#FFFFFF" /><rect x="226" y="139" width="14" height="14" rx="2" fill="#FFFFFF" /><rect x="240" y="139" width="14" height="14" rx="2" fill="#FFFFFF" /><rect x="254" y="139" width="14" height="14" rx="2" fill="#FFD700" /><rect x="170" y="153" width="14" height="14" rx="2" fill="#FFD700" /><rect x="184" y="153" width="14" height="14" rx="2" fill="#FFFFFF" /><rect x="198" y="153" width="14" height="14" rx="2" fill="#FFFFFF" /><rect x="212" y="153" width="14" height="14" rx="2" fill="#FF69B4" /><rect x="226" y="153" width="14" height="14" rx="2" fill="#FF69B4" /><rect x="240" y="153" width="14" height="14" rx="2" fill="#FF69B4" /><rect x="254" y="153" width="14" height="14" rx="2" fill="#FFFFFF" /><rect x="268" y="153" width="14" height="14" rx="2" fill="#FFFFFF" /><rect x="282" y="153" width="14" height="14" rx="2" fill="#FFD700" /><rect x="170" y="167" width="14" height="14" rx="2" fill="#FFD700" /><rect x="184" y="167" width="14" height="14" rx="2" fill="#FFFFFF" /><rect x="198" y="167" width="14" height="14" rx="2" fill="#FF69B4" /><rect x="212" y="167" width="14" height="14" rx="2" fill="#FF69B4" /><rect x="226" y="167" width="14" height="14" rx="2" fill="#87CEEB" /><rect x="240" y="167" width="14" height="14" rx="2" fill="#FF69B4" /><rect x="254" y="167" width="14" height="14" rx="2" fill="#FF69B4" /><rect x="268" y="167" width="14" height="14" rx="2" fill="#FF69B4" /><rect x="282" y="167" width="14" height="14" rx="2" fill="#FFFFFF" /><rect x="296" y="167" width="14" height="14" rx="2" fill="#FFD700" /><rect x="184" y="181" width="14" height="14" rx="2" fill="#FFD700" /><rect x="198" y="181" width="14" height="14" rx="2" fill="#FFFFFF" /><rect x="212" y="181" width="14" height="14" rx="2" fill="#FF69B4" /><rect x="226" y="181" width="14" height="14" rx="2" fill="#87CEEB" /><rect x="240" y="181" width="14" height="14" rx="2" fill="#87CEEB" /><rect x="254" y="181" width="14" height="14" rx="2" fill="#87CEEB" /><rect x="268" y="181" width="14" height="14" rx="2" fill="#FF69B4" /><rect x="282" y="181" width="14" height="14" rx="2" fill="#FFFFFF" /><rect x="296" y="181" width="14" height="14" rx="2" fill="#FFD700" /><rect x="198" y="195" width="14" height="14" rx="2" fill="#FFD700" /><rect x="212" y="195" width="14" height="14" rx="2" fill="#FFFFFF" /><rect x="226" y="195" width="14" height="14" rx="2" fill="#FF69B4" /><rect x="240" y="195" width="14" height="14" rx="2" fill="#FF69B4" /><rect x="254" y="195" width="14" height="14" rx="2" fill="#FF69B4" /><rect x="268" y="195" width="14" height="14" rx="2" fill="#FFFFFF" /><rect x="282" y="195" width="14" height="14" rx="2" fill="#FFD700" /><rect x="212" y="209" width="14" height="14" rx="2" fill="#FFD700" /><rect x="226" y="209" width="14" height="14" rx="2" fill="#FFFFFF" /><rect x="240" y="209" width="14" height="14" rx="2" fill="#FFFFFF" /><rect x="254" y="209" width="14" height="14" rx="2" fill="#FFFFFF" /><rect x="268" y="209" width="14" height="14" rx="2" fill="#FFD700" />
  <rect x="390" y="16" width="74" height="26" rx="13" fill="#f59e0b" />
  <text x="427" y="33" text-anchor="middle" fill="#fff" font-size="13" font-family="system-ui, sans-serif" font-weight="600">中等</text>
  <text x="240" y="340" text-anchor="middle" fill="#1f2937" font-size="20" font-family="system-ui, sans-serif" font-weight="700">独角兽</text>
</svg>