<svg xmlns="http://www.w3.org/2000/svg" viewBox="0 0 480 360" width="480" height="360">
  <defs>
    <linearGradient id="bglogomcdonald004" x1="0%" y1="0%" x2="100%" y2="100%">
      <stop offset="0%" stop-color="#FFC72C" stop-opacity="0.18"/>
      <stop offset="50%" stop-color="#0071e3" stop-opacity="0.12"/>
      <stop offset="100%" stop-color="#0071e3" stop-opacity="0.18"/>
    </linearGradient>
    <linearGradient id="cardlogomcdonald004" x1="0%" y1="0%" x2="0%" y2="100%">
      <stop offset="0%" stop-color="#ffffff" stop-opacity="0.95"/>
      <stop offset="100%" stop-color="#f5f5f7" stop-opacity="0.9"/>
    </linearGradient>
  </defs>
  <rect width="480" height="360" fill="url(#bglogomcdonald004)"/>
  <rect width="480" height="360" fill="#0071e3" opacity="0.04"/>
  <!-- 装饰粒子 -->
  <circle cx="40" cy="30" r="3" fill="#FFC72C" opacity="0.25"/>
  <!-- 卡片 -->
  <rect x="138" y="70" width="204" height="232" rx="18" fill="url(#cardlogomcdonald004)" stroke="#d2d2d7" stroke-width="1"/>
  <rect x="186.3" y="107.5" width="10.8" height="10.8" fill="#FFC72C" rx="1"/><rect x="197.0" y="107.5" width="10.8" height="10.8" fill="#FFC72C" rx="1"/><rect x="207.8" y="107.5" width="10.8" height="10.8" fill="#FFC72C" rx="1"/><rect x="218.5" y="107.5" width="10.8" height="10.8" fill="#FFC72C" rx="1"/><rect x="229.3" y="107.5" width="10.8" height="10.8" fill="#FFC72C" rx="1"/><rect x="240.0" y="107.5" width="10.8" height="10.8" fill="#FFC72C" rx="1"/><rect x="250.8" y="107.5" width="10.8" height="10.8" fill="#FFC72C" rx="1"/><rect x="261.5" y="107.5" width="10.8" height="10.8" fill="#FFC72C" rx="1"/><rect x="272.3" y="107.5" width="10.8" height="10.8" fill="#FFC72C" rx="1"/><rect x="283.0" y="107.5" width="10.8" height="10.8" fill="#FFC72C" rx="1"/><rect x="293.8" y="107.5" width="10.8" height="10.8" fill="#FFC72C" rx="1"/><rect x="304.5" y="107.5" width="10.8" height="10.8" fill="#FFC72C" rx="1"/><rect x="315.3" y="107.5" width="10.8" height="10.8" fill="#FFC72C" rx="1"/><rect x="186.3" y="118.3" width="10.8" height="10.8" fill="#FFC72C" rx="1"/><rect x="229.3" y="118.3" width="10.8" height="10.8" fill="#FFC72C" rx="1"/><rect x="240.0" y="118.3" width="10.8" height="10.8" fill="#FFC72C" rx="1"/><rect x="250.8" y="118.3" width="10.8" height="10.8" fill="#FFC72C" rx="1"/><rect x="261.5" y="118.3" width="10.8" height="10.8" fill="#FFC72C" rx="1"/><rect x="272.3" y="118.3" width="10.8" height="10.8" fill="#FFC72C" rx="1"/><rect x="283.0" y="118.3" width="10.8" height="10.8" fill="#FFC72C" rx="1"/><rect x="293.8" y="118.3" width="10.8" height="10.8" fill="#FFC72C" rx="1"/><rect x="304.5" y="118.3" width="10.8" height="10.8" fill="#FFC72C" rx="1"/><rect x="315.3" y="118.3" width="10.8" height="10.8" fill="#FFC72C" rx="1"/><rect x="186.3" y="129.0" width="10.8" height="10.8" fill="#FFC72C" rx="1"/><rect x="229.3" y="129.0" width="10.8" height="10.8" fill="#FFC72C" rx="1"/><rect x="240.0" y="129.0" width="10.8" height="10.8" fill="#FFC72C" rx="1"/><rect x="250.8" y="129.0" width="10.8" height="10.8" fill="#FFC72C" rx="1"/><rect x="261.5" y="129.0" width="10.8" height="10.8" fill="#FFC72C" rx="1"/><rect x="272.3" y="129.0" width="10.8" height="10.8" fill="#FFC72C" rx="1"/><rect x="283.0" y="129.0" width="10.8" height="10.8" fill="#FFC72C" rx="1"/><rect x="293.8" y="129.0" width="10.8" height="10.8" fill="#FFC72C" rx="1"/><rect x="304.5" y="129.0" width="10.8" height="10.8" fill="#FFC72C" rx="1"/><rect x="315.3" y="129.0" width="10.8" height="10.8" fill="#FFC72C" rx="1"/><rect x="186.3" y="139.8" width="10.8" height="10.8" fill="#FFC72C" rx="1"/><rect x="229.3" y="139.8" width="10.8" height="10.8" fill="#FFC72C" rx="1"/><rect x="240.0" y="139.8" width="10.8" height="10.8" fill="#FFC72C" rx="1"/><rect x="250.8" y="139.8" width="10.8" height="10.8" fill="#FFC72C" rx="1"/><rect x="261.5" y="139.8" width="10.8" height="10.8" fill="#FFC72C" rx="1"/><rect x="272.3" y="139.8" width="10.8" height="10.8" fill="#FFC72C" rx="1"/><rect x="283.0" y="139.8" width="10.8" height="10.8" fill="#FFC72C" rx="1"/><rect x="293.8" y="139.8" width="10.8" height="10.8" fill="#FFC72C" rx="1"/><rect x="304.5" y="139.8" width="10.8" height="10.8" fill="#FFC72C" rx="1"/><rect x="315.3" y="139.8" width="10.8" height="10.8" fill="#FFC72C" rx="1"/><rect x="186.3" y="150.5" width="10.8" height="10.8" fill="#FFC72C" rx="1"/><rect x="229.3" y="150.5" width="10.8" height="10.8" fill="#FFC72C" rx="1"/><rect x="186.3" y="161.3" width="10.8" height="10.8" fill="#FFC72C" rx="1"/><rect x="229.3" y="161.3" width="10.8" height="10.8" fill="#FFC72C" rx="1"/><rect x="186.3" y="172.0" width="10.8" height="10.8" fill="#FFC72C" rx="1"/><rect x="229.3" y="172.0" width="10.8" height="10.8" fill="#FFC72C" rx="1"/><rect x="186.3" y="182.8" width="10.8" height="10.8" fill="#FFC72C" rx="1"/><rect x="229.3" y="182.8" width="10.8" height="10.8" fill="#FFC72C" rx="1"/><rect x="186.3" y="193.5" width="10.8" height="10.8" fill="#FFC72C" rx="1"/><rect x="229.3" y="193.5" width="10.8" height="10.8" fill="#FFC72C" rx="1"/><rect x="186.3" y="204.3" width="10.8" height="10.8" fill="#FFC72C" rx="1"/><rect x="229.3" y="204.3" width="10.8" height="10.8" fill="#FFC72C" rx="1"/><rect x="186.3" y="215.0" width="10.8" height="10.8" fill="#FFC72C" rx="1"/><rect x="197.0" y="215.0" width="10.8" height="10.8" fill="#FFC72C" rx="1"/><rect x="207.8" y="215.0" width="10.8" height="10.8" fill="#FFC72C" rx="1"/><rect x="218.5" y="215.0" width="10.8" height="10.8" fill="#FFC72C" rx="1"/><rect x="229.3" y="215.0" width="10.8" height="10.8" fill="#FFC72C" rx="1"/>
  <!-- 难度标签 -->
  <rect x="390" y="20" width="70" height="22" rx="11" fill="#34c759"/>
  <text x="425" y="35" font-family="-apple-system, sans-serif" font-size="11" font-weight="600" fill="#1d1d1f" text-anchor="middle">EASY</text>
  <!-- 模板名 -->
  <text x="240" y="286" font-family="-apple-system, 'PingFang SC', sans-serif" font-size="16" font-weight="600" fill="#1d1d1f" text-anchor="middle">麦当劳金拱门</text>
  <text x="240" y="304" font-family="-apple-system, sans-serif" font-size="11" font-weight="400" fill="#86868b" text-anchor="middle">88 beads · 24×16</text>
</svg>