<svg xmlns="http://www.w3.org/2000/svg" viewBox="0 0 480 360" width="480" height="360">
  <defs>
    <linearGradient id="bgnaturebeach005" x1="0%" y1="0%" x2="100%" y2="100%">
      <stop offset="0%" stop-color="#5B2C6F" stop-opacity="0.18"/>
      <stop offset="50%" stop-color="#C0392B" stop-opacity="0.12"/>
      <stop offset="100%" stop-color="#E74C3C" stop-opacity="0.18"/>
    </linearGradient>
    <linearGradient id="cardnaturebeach005" x1="0%" y1="0%" x2="0%" y2="100%">
      <stop offset="0%" stop-color="#ffffff" stop-opacity="0.95"/>
      <stop offset="100%" stop-color="#f5f5f7" stop-opacity="0.9"/>
    </linearGradient>
  </defs>
  <rect width="480" height="360" fill="url(#bgnaturebeach005)"/>
  <rect width="480" height="360" fill="#FF8C42" opacity="0.04"/>
  <!-- 装饰粒子 -->
  <circle cx="40" cy="30" r="3" fill="#5B2C6F" opacity="0.25"/>
  <circle cx="113" cy="77" r="4" fill="#C0392B" opacity="0.25"/>
  <circle cx="186" cy="124" r="5" fill="#E74C3C" opacity="0.25"/>
  <circle cx="259" cy="171" r="3" fill="#FF8C42" opacity="0.25"/>
  <circle cx="332" cy="218" r="4" fill="#F4D03F" opacity="0.25"/>
  <circle cx="405" cy="265" r="5" fill="#1F4E79" opacity="0.25"/>
  <!-- 卡片 -->
  <rect x="138" y="70" width="204" height="232" rx="18" fill="url(#cardnaturebeach005)" stroke="#d2d2d7" stroke-width="1"/>
  <rect x="154.0" y="86.0" width="10.8" height="10.8" fill="#5B2C6F" rx="1"/><rect x="164.8" y="86.0" width="10.8" height="10.8" fill="#5B2C6F" rx="1"/><rect x="175.5" y="86.0" width="10.8" height="10.8" fill="#5B2C6F" rx="1"/><rect x="186.3" y="86.0" width="10.8" height="10.8" fill="#5B2C6F" rx="1"/><rect x="197.0" y="86.0" width="10.8" height="10.8" fill="#5B2C6F" rx="1"/><rect x="207.8" y="86.0" width="10.8" height="10.8" fill="#5B2C6F" rx="1"/><rect x="218.5" y="86.0" width="10.8" height="10.8" fill="#5B2C6F" rx="1"/><rect x="229.3" y="86.0" width="10.8" height="10.8" fill="#5B2C6F" rx="1"/><rect x="240.0" y="86.0" width="10.8" height="10.8" fill="#5B2C6F" rx="1"/><rect x="250.8" y="86.0" width="10.8" height="10.8" fill="#5B2C6F" rx="1"/><rect x="261.5" y="86.0" width="10.8" height="10.8" fill="#5B2C6F" rx="1"/><rect x="272.3" y="86.0" width="10.8" height="10.8" fill="#5B2C6F" rx="1"/><rect x="283.0" y="86.0" width="10.8" height="10.8" fill="#5B2C6F" rx="1"/><rect x="293.8" y="86.0" width="10.8" height="10.8" fill="#5B2C6F" rx="1"/><rect x="304.5" y="86.0" width="10.8" height="10.8" fill="#5B2C6F" rx="1"/><rect x="315.3" y="86.0" width="10.8" height="10.8" fill="#5B2C6F" rx="1"/><rect x="154.0" y="96.8" width="10.8" height="10.8" fill="#5B2C6F" rx="1"/><rect x="164.8" y="96.8" width="10.8" height="10.8" fill="#5B2C6F" rx="1"/><rect x="175.5" y="96.8" width="10.8" height="10.8" fill="#5B2C6F" rx="1"/><rect x="186.3" y="96.8" width="10.8" height="10.8" fill="#5B2C6F" rx="1"/><rect x="197.0" y="96.8" width="10.8" height="10.8" fill="#5B2C6F" rx="1"/><rect x="207.8" y="96.8" width="10.8" height="10.8" fill="#5B2C6F" rx="1"/><rect x="218.5" y="96.8" width="10.8" height="10.8" fill="#5B2C6F" rx="1"/><rect x="229.3" y="96.8" width="10.8" height="10.8" fill="#5B2C6F" rx="1"/><rect x="240.0" y="96.8" width="10.8" height="10.8" fill="#5B2C6F" rx="1"/><rect x="250.8" y="96.8" width="10.8" height="10.8" fill="#5B2C6F" rx="1"/><rect x="261.5" y="96.8" width="10.8" height="10.8" fill="#2C1A0E" rx="1"/><rect x="272.3" y="96.8" width="10.8" height="10.8" fill="#2C1A0E" rx="1"/><rect x="283.0" y="96.8" width="10.8" height="10.8" fill="#2C1A0E" rx="1"/><rect x="293.8" y="96.8" width="10.8" height="10.8" fill="#5B2C6F" rx="1"/><rect x="304.5" y="96.8" width="10.8" height="10.8" fill="#5B2C6F" rx="1"/><rect x="315.3" y="96.8" width="10.8" height="10.8" fill="#5B2C6F" rx="1"/><rect x="154.0" y="107.5" width="10.8" height="10.8" fill="#C0392B" rx="1"/><rect x="164.8" y="107.5" width="10.8" height="10.8" fill="#C0392B" rx="1"/><rect x="175.5" y="107.5" width="10.8" height="10.8" fill="#C0392B" rx="1"/><rect x="186.3" y="107.5" width="10.8" height="10.8" fill="#C0392B" rx="1"/><rect x="197.0" y="107.5" width="10.8" height="10.8" fill="#C0392B" rx="1"/><rect x="207.8" y="107.5" width="10.8" height="10.8" fill="#C0392B" rx="1"/><rect x="218.5" y="107.5" width="10.8" height="10.8" fill="#C0392B" rx="1"/><rect x="229.3" y="107.5" width="10.8" height="10.8" fill="#C0392B" rx="1"/><rect x="240.0" y="107.5" width="10.8" height="10.8" fill="#C0392B" rx="1"/><rect x="250.8" y="107.5" width="10.8" height="10.8" fill="#C0392B" rx="1"/><rect x="261.5" y="107.5" width="10.8" height="10.8" fill="#2C1A0E" rx="1"/><rect x="272.3" y="107.5" width="10.8" height="10.8" fill="#2C1A0E" rx="1"/><rect x="283.0" y="107.5" width="10.8" height="10.8" fill="#2C1A0E" rx="1"/><rect x="293.8" y="107.5" width="10.8" height="10.8" fill="#2C1A0E" rx="1"/><rect x="304.5" y="107.5" width="10.8" height="10.8" fill="#2C1A0E" rx="1"/><rect x="315.3" y="107.5" width="10.8" height="10.8" fill="#2C1A0E" rx="1"/><rect x="154.0" y="118.3" width="10.8" height="10.8" fill="#C0392B" rx="1"/><rect x="164.8" y="118.3" width="10.8" height="10.8" fill="#C0392B" rx="1"/><rect x="175.5" y="118.3" width="10.8" height="10.8" fill="#C0392B" rx="1"/><rect x="186.3" y="118.3" width="10.8" height="10.8" fill="#C0392B" rx="1"/><rect x="197.0" y="118.3" width="10.8" height="10.8" fill="#C0392B" rx="1"/><rect x="207.8" y="118.3" width="10.8" height="10.8" fill="#C0392B" rx="1"/><rect x="218.5" y="118.3" width="10.8" height="10.8" fill="#C0392B" rx="1"/><rect x="229.3" y="118.3" width="10.8" height="10.8" fill="#C0392B" rx="1"/><rect x="240.0" y="118.3" width="10.8" height="10.8" fill="#2C1A0E" rx="1"/><rect x="250.8" y="118.3" width="10.8" height="10.8" fill="#2C1A0E" rx="1"/><rect x="261.5" y="118.3" width="10.8" height="10.8" fill="#C0392B" rx="1"/><rect x="272.3" y="118.3" width="10.8" height="10.8" fill="#2C1A0E" rx="1"/><rect x="283.0" y="118.3" width="10.8" height="10.8" fill="#2C1A0E" rx="1"/><rect x="293.8" y="118.3" width="10.8" height="10.8" fill="#2C1A0E" rx="1"/><rect x="304.5" y="118.3" width="10.8" height="10.8" fill="#2C1A0E" rx="1"/><rect x="315.3" y="118.3" width="10.8" height="10.8" fill="#2C1A0E" rx="1"/><rect x="154.0" y="129.0" width="10.8" height="10.8" fill="#E74C3C" rx="1"/><rect x="164.8" y="129.0" width="10.8" height="10.8" fill="#E74C3C" rx="1"/><rect x="175.5" y="129.0" width="10.8" height="10.8" fill="#E74C3C" rx="1"/><rect x="186.3" y="129.0" width="10.8" height="10.8" fill="#E74C3C" rx="1"/><rect x="197.0" y="129.0" width="10.8" height="10.8" fill="#E74C3C" rx="1"/><rect x="207.8" y="129.0" width="10.8" height="10.8" fill="#E74C3C" rx="1"/><rect x="218.5" y="129.0" width="10.8" height="10.8" fill="#E74C3C" rx="1"/><rect x="229.3" y="129.0" width="10.8" height="10.8" fill="#2C1A0E" rx="1"/><rect x="240.0" y="129.0" width="10.8" height="10.8" fill="#2C1A0E" rx="1"/><rect x="250.8" y="129.0" width="10.8" height="10.8" fill="#E74C3C" rx="1"/><rect x="261.5" y="129.0" width="10.8" height="10.8" fill="#2C1A0E" rx="1"/><rect x="272.3" y="129.0" width="10.8" height="10.8" fill="#FF8C42" rx="1"/><rect x="283.0" y="129.0" width="10.8" height="10.8" fill="#FF8C42" rx="1"/><rect x="293.8" y="129.0" width="10.8" height="10.8" fill="#2C1A0E" rx="1"/><rect x="304.5" y="129.0" width="10.8" height="10.8" fill="#2C1A0E" rx="1"/><rect x="315.3" y="129.0" width="10.8" height="10.8" fill="#2C1A0E" rx="1"/><rect x="154.0" y="139.8" width="10.8" height="10.8" fill="#E74C3C" rx="1"/><rect x="164.8" y="139.8" width="10.8" height="10.8" fill="#E74C3C" rx="1"/><rect x="175.5" y="139.8" width="10.8" height="10.8" fill="#E74C3C" rx="1"/><rect x="186.3" y="139.8" width="10.8" height="10.8" fill="#E74C3C" rx="1"/><rect x="197.0" y="139.8" width="10.8" height="10.8" fill="#E74C3C" rx="1"/><rect x="207.8" y="139.8" width="10.8" height="10.8" fill="#E74C3C" rx="1"/><rect x="218.5" y="139.8" width="10.8" height="10.8" fill="#2C1A0E" rx="1"/><rect x="229.3" y="139.8" width="10.8" height="10.8" fill="#E74C3C" rx="1"/><rect x="240.0" y="139.8" width="10.8" height="10.8" fill="#E74C3C" rx="1"/><rect x="250.8" y="139.8" width="10.8" height="10.8" fill="#2C1A0E" rx="1"/><rect x="261.5" y="139.8" width="10.8" height="10.8" fill="#FF8C42" rx="1"/><rect x="272.3" y="139.8" width="10.8" height="10.8" fill="#FF8C42" rx="1"/><rect x="283.0" y="139.8" width="10.8" height="10.8" fill="#F4D03F" rx="1"/><rect x="293.8" y="139.8" width="10.8" height="10.8" fill="#2C1A0E" rx="1"/><rect x="304.5" y="139.8" width="10.8" height="10.8" fill="#2C1A0E" rx="1"/><rect x="315.3" y="139.8" width="10.8" height="10.8" fill="#E74C3C" rx="1"/><rect x="154.0" y="150.5" width="10.8" height="10.8" fill="#FF8C42" rx="1"/><rect x="164.8" y="150.5" width="10.8" height="10.8" fill="#FF8C42" rx="1"/><rect x="175.5" y="150.5" width="10.8" height="10.8" fill="#FF8C42" rx="1"/><rect x="186.3" y="150.5" width="10.8" height="10.8" fill="#FF8C42" rx="1"/><rect x="197.0" y="150.5" width="10.8" height="10.8" fill="#FF8C42" rx="1"/><rect x="207.8" y="150.5" width="10.8" height="10.8" fill="#FF8C42" rx="1"/><rect x="218.5" y="150.5" width="10.8" height="10.8" fill="#FF8C42" rx="1"/><rect x="229.3" y="150.5" width="10.8" height="10.8" fill="#FF8C42" rx="1"/><rect x="240.0" y="150.5" width="10.8" height="10.8" fill="#2C1A0E" rx="1"/><rect x="250.8" y="150.5" width="10.8" height="10.8" fill="#FF8C42" rx="1"/><rect x="261.5" y="150.5" width="10.8" height="10.8" fill="#FF8C42" rx="1"/><rect x="272.3" y="150.5" width="10.8" height="10.8" fill="#F4D03F" rx="1"/><rect x="283.0" y="150.5" width="10.8" height="10.8" fill="#F4D03F" rx="1"/><rect x="293.8" y="150.5" width="10.8" height="10.8" fill="#F4D03F" rx="1"/><rect x="304.5" y="150.5" width="10.8" height="10.8" fill="#FF8C42" rx="1"/><rect x="315.3" y="150.5" width="10.8" height="10.8" fill="#FF8C42" rx="1"/><rect x="154.0" y="161.3" width="10.8" height="10.8" fill="#FF8C42" rx="1"/><rect x="164.8" y="161.3" width="10.8" height="10.8" fill="#FF8C42" rx="1"/><rect x="175.5" y="161.3" width="10.8" height="10.8" fill="#FF8C42" rx="1"/><rect x="186.3" y="161.3" width="10.8" height="10.8" fill="#FF8C42" rx="1"/><rect x="197.0" y="161.3" width="10.8" height="10.8" fill="#FF8C42" rx="1"/><rect x="207.8" y="161.3" width="10.8" height="10.8" fill="#FF8C42" rx="1"/><rect x="218.5" y="161.3" width="10.8" height="10.8" fill="#FF8C42" rx="1"/><rect x="229.3" y="161.3" width="10.8" height="10.8" fill="#2C1A0E" rx="1"/><rect x="240.0" y="161.3" width="10.8" height="10.8" fill="#E74C3C" rx="1"/><rect x="250.8" y="161.3" width="10.8" height="10.8" fill="#FF8C42" rx="1"/><rect x="261.5" y="161.3" width="10.8" height="10.8" fill="#F4D03F" rx="1"/><rect x="272.3" y="161.3" width="10.8" height="10.8" fill="#F4D03F" rx="1"/><rect x="283.0" y="161.3" width="10.8" height="10.8" fill="#F4D03F" rx="1"/><rect x="293.8" y="161.3" width="10.8" height="10.8" fill="#F4D03F" rx="1"/><rect x="304.5" y="161.3" width="10.8" height="10.8" fill="#F4D03F" rx="1"/><rect x="315.3" y="161.3" width="10.8" height="10.8" fill="#FF8C42" rx="1"/><rect x="154.0" y="172.0" width="10.8" height="10.8" fill="#5DADE2" rx="1"/><rect x="164.8" y="172.0" width="10.8" height="10.8" fill="#5DADE2" rx="1"/><rect x="175.5" y="172.0" width="10.8" height="10.8" fill="#5DADE2" rx="1"/><rect x="186.3" y="172.0" width="10.8" height="10.8" fill="#5DADE2" rx="1"/><rect x="197.0" y="172.0" width="10.8" height="10.8" fill="#5DADE2" rx="1"/><rect x="207.8" y="172.0" width="10.8" height="10.8" fill="#5DADE2" rx="1"/><rect x="218.5" y="172.0" width="10.8" height="10.8" fill="#2C1A0E" rx="1"/><rect x="229.3" y="172.0" width="10.8" height="10.8" fill="#F9E79F" rx="1"/><rect x="240.0" y="172.0" width="10.8" height="10.8" fill="#F9E79F" rx="1"/><rect x="250.8" y="172.0" width="10.8" height="10.8" fill="#F9E79F" rx="1"/><rect x="261.5" y="172.0" width="10.8" height="10.8" fill="#F9E79F" rx="1"/><rect x="272.3" y="172.0" width="10.8" height="10.8" fill="#F9E79F" rx="1"/><rect x="283.0" y="172.0" width="10.8" height="10.8" fill="#F9E79F" rx="1"/><rect x="293.8" y="172.0" width="10.8" height="10.8" fill="#F9E79F" rx="1"/><rect x="304.5" y="172.0" width="10.8" height="10.8" fill="#F9E79F" rx="1"/><rect x="315.3" y="172.0" width="10.8" height="10.8" fill="#F9E79F" rx="1"/><rect x="154.0" y="182.8" width="10.8" height="10.8" fill="#5DADE2" rx="1"/><rect x="164.8" y="182.8" width="10.8" height="10.8" fill="#2E86C1" rx="1"/><rect x="175.5" y="182.8" width="10.8" height="10.8" fill="#2E86C1" rx="1"/><rect x="186.3" y="182.8" width="10.8" height="10.8" fill="#5DADE2" rx="1"/><rect x="197.0" y="182.8" width="10.8" height="10.8" fill="#2E86C1" rx="1"/><rect x="207.8" y="182.8" width="10.8" height="10.8" fill="#2C1A0E" rx="1"/><rect x="218.5" y="182.8" width="10.8" height="10.8" fill="#5DADE2" rx="1"/><rect x="229.3" y="182.8" width="10.8" height="10.8" fill="#2E86C1" rx="1"/><rect x="240.0" y="182.8" width="10.8" height="10.8" fill="#F4D03F" rx="1"/><rect x="250.8" y="182.8" width="10.8" height="10.8" fill="#F4D03F" rx="1"/><rect x="261.5" y="182.8" width="10.8" height="10.8" fill="#F4D03F" rx="1"/><rect x="272.3" y="182.8" width="10.8" height="10.8" fill="#F4D03F" rx="1"/><rect x="283.0" y="182.8" width="10.8" height="10.8" fill="#F4D03F" rx="1"/><rect x="293.8" y="182.8" width="10.8" height="10.8" fill="#F4D03F" rx="1"/><rect x="304.5" y="182.8" width="10.8" height="10.8" fill="#F4D03F" rx="1"/><rect x="315.3" y="182.8" width="10.8" height="10.8" fill="#F4D03F" rx="1"/><rect x="154.0" y="193.5" width="10.8" height="10.8" fill="#2E86C1" rx="1"/><rect x="164.8" y="193.5" width="10.8" height="10.8" fill="#2E86C1" rx="1"/><rect x="175.5" y="193.5" width="10.8" height="10.8" fill="#2E86C1" rx="1"/><rect x="186.3" y="193.5" width="10.8" height="10.8" fill="#2E86C1" rx="1"/><rect x="197.0" y="193.5" width="10.8" height="10.8" fill="#2C1A0E" rx="1"/><rect x="207.8" y="193.5" width="10.8" height="10.8" fill="#2E86C1" rx="1"/><rect x="218.5" y="193.5" width="10.8" height="10.8" fill="#2E86C1" rx="1"/><rect x="229.3" y="193.5" width="10.8" height="10.8" fill="#2E86C1" rx="1"/><rect x="240.0" y="193.5" width="10.8" height="10.8" fill="#2E86C1" rx="1"/><rect x="250.8" y="193.5" width="10.8" height="10.8" fill="#F9E79F" rx="1"/><rect x="261.5" y="193.5" width="10.8" height="10.8" fill="#F9E79F" rx="1"/><rect x="272.3" y="193.5" width="10.8" height="10.8" fill="#F9E79F" rx="1"/><rect x="283.0" y="193.5" width="10.8" height="10.8" fill="#F9E79F" rx="1"/><rect x="293.8" y="193.5" width="10.8" height="10.8" fill="#F9E79F" rx="1"/><rect x="304.5" y="193.5" width="10.8" height="10.8" fill="#F9E79F" rx="1"/><rect x="315.3" y="193.5" width="10.8" height="10.8" fill="#F9E79F" rx="1"/><rect x="154.0" y="204.3" width="10.8" height="10.8" fill="#5DADE2" rx="1"/><rect x="164.8" y="204.3" width="10.8" height="10.8" fill="#2E86C1" rx="1"/><rect x="175.5" y="204.3" width="10.8" height="10.8" fill="#2E86C1" rx="1"/><rect x="186.3" y="204.3" width="10.8" height="10.8" fill="#5DADE2" rx="1"/><rect x="197.0" y="204.3" width="10.8" height="10.8" fill="#2C1A0E" rx="1"/><rect x="207.8" y="204.3" width="10.8" height="10.8" fill="#2E86C1" rx="1"/><rect x="218.5" y="204.3" width="10.8" height="10.8" fill="#5DADE2" rx="1"/><rect x="229.3" y="204.3" width="10.8" height="10.8" fill="#2E86C1" rx="1"/><rect x="240.0" y="204.3" width="10.8" height="10.8" fill="#2E86C1" rx="1"/><rect x="250.8" y="204.3" width="10.8" height="10.8" fill="#5DADE2" rx="1"/><rect x="261.5" y="204.3" width="10.8" height="10.8" fill="#F4D03F" rx="1"/><rect x="272.3" y="204.3" width="10.8" height="10.8" fill="#F4D03F" rx="1"/><rect x="283.0" y="204.3" width="10.8" height="10.8" fill="#F4D03F" rx="1"/><rect x="293.8" y="204.3" width="10.8" height="10.8" fill="#F4D03F" rx="1"/><rect x="304.5" y="204.3" width="10.8" height="10.8" fill="#F4D03F" rx="1"/><rect x="315.3" y="204.3" width="10.8" height="10.8" fill="#5DADE2" rx="1"/><rect x="154.0" y="215.0" width="10.8" height="10.8" fill="#2E86C1" rx="1"/><rect x="164.8" y="215.0" width="10.8" height="10.8" fill="#2E86C1" rx="1"/><rect x="175.5" y="215.0" width="10.8" height="10.8" fill="#2E86C1" rx="1"/><rect x="186.3" y="215.0" width="10.8" height="10.8" fill="#2C1A0E" rx="1"/><rect x="197.0" y="215.0" width="10.8" height="10.8" fill="#2E86C1" rx="1"/><rect x="207.8" y="215.0" width="10.8" height="10.8" fill="#2E86C1" rx="1"/><rect x="218.5" y="215.0" width="10.8" height="10.8" fill="#2E86C1" rx="1"/><rect x="229.3" y="215.0" width="10.8" height="10.8" fill="#2E86C1" rx="1"/><rect x="240.0" y="215.0" width="10.8" height="10.8" fill="#2E86C1" rx="1"/><rect x="250.8" y="215.0" width="10.8" height="10.8" fill="#2E86C1" rx="1"/><rect x="261.5" y="215.0" width="10.8" height="10.8" fill="#2E86C1" rx="1"/><rect x="272.3" y="215.0" width="10.8" height="10.8" fill="#F9E79F" rx="1"/><rect x="283.0" y="215.0" width="10.8" height="10.8" fill="#F9E79F" rx="1"/><rect x="293.8" y="215.0" width="10.8" height="10.8" fill="#F9E79F" rx="1"/><rect x="304.5" y="215.0" width="10.8" height="10.8" fill="#2E86C1" rx="1"/><rect x="315.3" y="215.0" width="10.8" height="10.8" fill="#2E86C1" rx="1"/><rect x="154.0" y="225.8" width="10.8" height="10.8" fill="#1F4E79" rx="1"/><rect x="164.8" y="225.8" width="10.8" height="10.8" fill="#1F4E79" rx="1"/><rect x="175.5" y="225.8" width="10.8" height="10.8" fill="#1F4E79" rx="1"/><rect x="186.3" y="225.8" width="10.8" height="10.8" fill="#2C1A0E" rx="1"/><rect x="197.0" y="225.8" width="10.8" height="10.8" fill="#1F4E79" rx="1"/><rect x="207.8" y="225.8" width="10.8" height="10.8" fill="#1F4E79" rx="1"/><rect x="218.5" y="225.8" width="10.8" height="10.8" fill="#1F4E79" rx="1"/><rect x="229.3" y="225.8" width="10.8" height="10.8" fill="#1F4E79" rx="1"/><rect x="240.0" y="225.8" width="10.8" height="10.8" fill="#1F4E79" rx="1"/><rect x="250.8" y="225.8" width="10.8" height="10.8" fill="#1F4E79" rx="1"/><rect x="261.5" y="225.8" width="10.8" height="10.8" fill="#1F4E79" rx="1"/><rect x="272.3" y="225.8" width="10.8" height="10.8" fill="#F4D03F" rx="1"/><rect x="283.0" y="225.8" width="10.8" height="10.8" fill="#F4D03F" rx="1"/><rect x="293.8" y="225.8" width="10.8" height="10.8" fill="#F4D03F" rx="1"/><rect x="304.5" y="225.8" width="10.8" height="10.8" fill="#1F4E79" rx="1"/><rect x="315.3" y="225.8" width="10.8" height="10.8" fill="#1F4E79" rx="1"/><rect x="154.0" y="236.5" width="10.8" height="10.8" fill="#1F4E79" rx="1"/><rect x="164.8" y="236.5" width="10.8" height="10.8" fill="#1F4E79" rx="1"/><rect x="175.5" y="236.5" width="10.8" height="10.8" fill="#1F4E79" rx="1"/><rect x="186.3" y="236.5" width="10.8" height="10.8" fill="#2C1A0E" rx="1"/><rect x="197.0" y="236.5" width="10.8" height="10.8" fill="#1F4E79" rx="1"/><rect x="207.8" y="236.5" width="10.8" height="10.8" fill="#1F4E79" rx="1"/><rect x="218.5" y="236.5" width="10.8" height="10.8" fill="#1F4E79" rx="1"/><rect x="229.3" y="236.5" width="10.8" height="10.8" fill="#1F4E79" rx="1"/><rect x="240.0" y="236.5" width="10.8" height="10.8" fill="#1F4E79" rx="1"/><rect x="250.8" y="236.5" width="10.8" height="10.8" fill="#1F4E79" rx="1"/><rect x="261.5" y="236.5" width="10.8" height="10.8" fill="#1F4E79" rx="1"/><rect x="272.3" y="236.5" width="10.8" height="10.8" fill="#F9E79F" rx="1"/><rect x="283.0" y="236.5" width="10.8" height="10.8" fill="#F9E79F" rx="1"/><rect x="293.8" y="236.5" width="10.8" height="10.8" fill="#F9E79F" rx="1"/><rect x="304.5" y="236.5" width="10.8" height="10.8" fill="#1F4E79" rx="1"/><rect x="315.3" y="236.5" width="10.8" height="10.8" fill="#1F4E79" rx="1"/><rect x="154.0" y="247.3" width="10.8" height="10.8" fill="#1F4E79" rx="1"/><rect x="164.8" y="247.3" width="10.8" height="10.8" fill="#1F4E79" rx="1"/><rect x="175.5" y="247.3" width="10.8" height="10.8" fill="#1F4E79" rx="1"/><rect x="186.3" y="247.3" width="10.8" height="10.8" fill="#2C1A0E" rx="1"/><rect x="197.0" y="247.3" width="10.8" height="10.8" fill="#1F4E79" rx="1"/><rect x="207.8" y="247.3" width="10.8" height="10.8" fill="#1F4E79" rx="1"/><rect x="218.5" y="247.3" width="10.8" height="10.8" fill="#1F4E79" rx="1"/><rect x="229.3" y="247.3" width="10.8" height="10.8" fill="#1F4E79" rx="1"/><rect x="240.0" y="247.3" width="10.8" height="10.8" fill="#1F4E79" rx="1"/><rect x="250.8" y="247.3" width="10.8" height="10.8" fill="#1F4E79" rx="1"/><rect x="261.5" y="247.3" width="10.8" height="10.8" fill="#1F4E79" rx="1"/><rect x="272.3" y="247.3" width="10.8" height="10.8" fill="#1F4E79" rx="1"/><rect x="283.0" y="247.3" width="10.8" height="10.8" fill="#1F4E79" rx="1"/><rect x="293.8" y="247.3" width="10.8" height="10.8" fill="#1F4E79" rx="1"/><rect x="304.5" y="247.3" width="10.8" height="10.8" fill="#1F4E79" rx="1"/><rect x="315.3" y="247.3" width="10.8" height="10.8" fill="#1F4E79" rx="1"/>
  <!-- 难度标签 -->
  <rect x="390" y="20" width="70" height="22" rx="11" fill="#ff9500"/>
  <text x="425" y="35" font-family="-apple-system, sans-serif" font-size="11" font-weight="600" fill="#1d1d1f" text-anchor="middle">MED</text>
  <!-- 模板名 -->
  <text x="240" y="286" font-family="-apple-system, 'PingFang SC', sans-serif" font-size="16" font-weight="600" fill="#1d1d1f" text-anchor="middle">海滩日落</text>
  <text x="240" y="304" font-family="-apple-system, sans-serif" font-size="11" font-weight="400" fill="#86868b" text-anchor="middle">384 beads · 24×16</text>
</svg>