<?xml version="1.0" encoding="UTF-8"?>
<svg xmlns="http://www.w3.org/2000/svg" viewBox="0 0 480 360" width="480" height="360">
  
    <defs>
      <linearGradient id="bg" x1="0" y1="0" x2="1" y2="1">
        <stop offset="0%" stop-color="#10B981" stop-opacity="0.15"/>
        <stop offset="100%" stop-color="#EC4899" stop-opacity="0.25"/>
      </linearGradient>
      <linearGradient id="card" x1="0" y1="0" x2="0" y2="1">
        <stop offset="0%" stop-color="#ffffff"/>
        <stop offset="100%" stop-color="#f8f9fa"/>
      </linearGradient>
      <filter id="shadow" x="-20%" y="-20%" width="140%" height="140%">
        <feDropShadow dx="0" dy="4" stdDeviation="6" flood-opacity="0.15"/>
      </filter>
    </defs>
  
  <rect width="480" height="360" fill="url(#bg)" />
  <rect x="266" y="48" width="8" height="8" rx="1" fill="#EC4899" opacity="0.15" /><rect x="429" y="272" width="4" height="4" rx="1" fill="#8B5E3C" opacity="0.25" /><rect x="152" y="81" width="4" height="4" rx="1" fill="#FDE68A" opacity="0.10" /><rect x="315" y="305" width="6" height="6" rx="1" fill="#10B981" opacity="0.20" /><rect x="38" y="113" width="6" height="6" rx="1" fill="#D4A373" opacity="0.30" /><rect x="200" y="338" width="8" height="8" rx="1" fill="#EC4899" opacity="0.15" /><rect x="363" y="242" width="4" height="4" rx="1" fill="#8B5E3C" opacity="0.25" /><rect x="86" y="50" width="4" height="4" rx="1" fill="#FDE68A" opacity="0.10" /><rect x="249" y="275" width="6" height="6" rx="1" fill="#10B981" opacity="0.20" /><rect x="412" y="179" width="8" height="8" rx="1" fill="#D4A373" opacity="0.30" /><rect x="134" y="307" width="8" height="8" rx="1" fill="#EC4899" opacity="0.15" /><rect x="297" y="212" width="4" height="4" rx="1" fill="#8B5E3C" opacity="0.25" />
  <rect x="120" y="40" width="240" height="240" rx="12" fill="url(#card)" filter="url(#shadow)" />
  <rect x="212" y="48" width="14" height="14" rx="2" fill="#10B981" /><rect x="226" y="48" width="14" height="14" rx="2" fill="#10B981" /><rect x="198" y="62" width="14" height="14" rx="2" fill="#10B981" /><rect x="212" y="62" width="14" height="14" rx="2" fill="#10B981" /><rect x="226" y="62" width="14" height="14" rx="2" fill="#10B981" /><rect x="240" y="62" width="14" height="14" rx="2" fill="#10B981" /><rect x="198" y="76" width="14" height="14" rx="2" fill="#10B981" /><rect x="212" y="76" width="14" height="14" rx="2" fill="#EC4899" /><rect x="226" y="76" width="14" height="14" rx="2" fill="#10B981" /><rect x="240" y="76" width="14" height="14" rx="2" fill="#10B981" /><rect x="198" y="90" width="14" height="14" rx="2" fill="#10B981" /><rect x="212" y="90" width="14" height="14" rx="2" fill="#10B981" /><rect x="226" y="90" width="14" height="14" rx="2" fill="#10B981" /><rect x="240" y="90" width="14" height="14" rx="2" fill="#10B981" /><rect x="142" y="104" width="14" height="14" rx="2" fill="#10B981" /><rect x="156" y="104" width="14" height="14" rx="2" fill="#10B981" /><rect x="170" y="104" width="14" height="14" rx="2" fill="#10B981" /><rect x="198" y="104" width="14" height="14" rx="2" fill="#10B981" /><rect x="212" y="104" width="14" height="14" rx="2" fill="#10B981" /><rect x="226" y="104" width="14" height="14" rx="2" fill="#10B981" /><rect x="240" y="104" width="14" height="14" rx="2" fill="#10B981" /><rect x="268" y="104" width="14" height="14" rx="2" fill="#10B981" /><rect x="282" y="104" width="14" height="14" rx="2" fill="#10B981" /><rect x="296" y="104" width="14" height="14" rx="2" fill="#10B981" /><rect x="310" y="104" width="14" height="14" rx="2" fill="#10B981" /><rect x="128" y="118" width="14" height="14" rx="2" fill="#10B981" /><rect x="142" y="118" width="14" height="14" rx="2" fill="#10B981" /><rect x="156" y="118" width="14" height="14" rx="2" fill="#10B981" /><rect x="170" y="118" width="14" height="14" rx="2" fill="#10B981" /><rect x="184" y="118" width="14" height="14" rx="2" fill="#10B981" /><rect x="198" y="118" width="14" height="14" rx="2" fill="#10B981" /><rect x="212" y="118" width="14" height="14" rx="2" fill="#EC4899" /><rect x="226" y="118" width="14" height="14" rx="2" fill="#10B981" /><rect x="240" y="118" width="14" height="14" rx="2" fill="#10B981" /><rect x="254" y="118" width="14" height="14" rx="2" fill="#10B981" /><rect x="268" y="118" width="14" height="14" rx="2" fill="#10B981" /><rect x="282" y="118" width="14" height="14" rx="2" fill="#10B981" /><rect x="296" y="118" width="14" height="14" rx="2" fill="#10B981" /><rect x="310" y="118" width="14" height="14" rx="2" fill="#10B981" /><rect x="324" y="118" width="14" height="14" rx="2" fill="#10B981" /><rect x="128" y="132" width="14" height="14" rx="2" fill="#10B981" /><rect x="142" y="132" width="14" height="14" rx="2" fill="#10B981" /><rect x="156" y="132" width="14" height="14" rx="2" fill="#10B981" /><rect x="170" y="132" width="14" height="14" rx="2" fill="#10B981" /><rect x="184" y="132" width="14" height="14" rx="2" fill="#10B981" /><rect x="198" y="132" width="14" height="14" rx="2" fill="#10B981" /><rect x="212" y="132" width="14" height="14" rx="2" fill="#10B981" /><rect x="226" y="132" width="14" height="14" rx="2" fill="#10B981" /><rect x="240" y="132" width="14" height="14" rx="2" fill="#10B981" /><rect x="254" y="132" width="14" height="14" rx="2" fill="#10B981" /><rect x="268" y="132" width="14" height="14" rx="2" fill="#10B981" /><rect x="282" y="132" width="14" height="14" rx="2" fill="#10B981" /><rect x="296" y="132" width="14" height="14" rx="2" fill="#10B981" /><rect x="310" y="132" width="14" height="14" rx="2" fill="#10B981" /><rect x="324" y="132" width="14" height="14" rx="2" fill="#10B981" /><rect x="142" y="146" width="14" height="14" rx="2" fill="#10B981" /><rect x="156" y="146" width="14" height="14" rx="2" fill="#10B981" /><rect x="170" y="146" width="14" height="14" rx="2" fill="#10B981" /><rect x="198" y="146" width="14" height="14" rx="2" fill="#10B981" /><rect x="212" y="146" width="14" height="14" rx="2" fill="#10B981" /><rect x="226" y="146" width="14" height="14" rx="2" fill="#10B981" /><rect x="240" y="146" width="14" height="14" rx="2" fill="#10B981" /><rect x="268" y="146" width="14" height="14" rx="2" fill="#10B981" /><rect x="282" y="146" width="14" height="14" rx="2" fill="#10B981" /><rect x="296" y="146" width="14" height="14" rx="2" fill="#10B981" /><rect x="310" y="146" width="14" height="14" rx="2" fill="#10B981" /><rect x="198" y="160" width="14" height="14" rx="2" fill="#10B981" /><rect x="212" y="160" width="14" height="14" rx="2" fill="#10B981" /><rect x="226" y="160" width="14" height="14" rx="2" fill="#10B981" /><rect x="240" y="160" width="14" height="14" rx="2" fill="#10B981" /><rect x="198" y="174" width="14" height="14" rx="2" fill="#10B981" /><rect x="212" y="174" width="14" height="14" rx="2" fill="#10B981" /><rect x="226" y="174" width="14" height="14" rx="2" fill="#FDE68A" /><rect x="240" y="174" width="14" height="14" rx="2" fill="#10B981" /><rect x="198" y="188" width="14" height="14" rx="2" fill="#10B981" /><rect x="212" y="188" width="14" height="14" rx="2" fill="#10B981" /><rect x="226" y="188" width="14" height="14" rx="2" fill="#10B981" /><rect x="240" y="188" width="14" height="14" rx="2" fill="#10B981" /><rect x="198" y="202" width="14" height="14" rx="2" fill="#10B981" /><rect x="212" y="202" width="14" height="14" rx="2" fill="#10B981" /><rect x="226" y="202" width="14" height="14" rx="2" fill="#10B981" /><rect x="240" y="202" width="14" height="14" rx="2" fill="#10B981" /><rect x="212" y="216" width="14" height="14" rx="2" fill="#10B981" /><rect x="226" y="216" width="14" height="14" rx="2" fill="#10B981" /><rect x="128" y="230" width="14" height="14" rx="2" fill="#D4A373" /><rect x="142" y="230" width="14" height="14" rx="2" fill="#D4A373" /><rect x="156" y="230" width="14" height="14" rx="2" fill="#D4A373" /><rect x="170" y="230" width="14" height="14" rx="2" fill="#D4A373" /><rect x="184" y="230" width="14" height="14" rx="2" fill="#D4A373" /><rect x="198" y="230" width="14" height="14" rx="2" fill="#D4A373" /><rect x="212" y="230" width="14" height="14" rx="2" fill="#D4A373" /><rect x="226" y="230" width="14" height="14" rx="2" fill="#D4A373" /><rect x="240" y="230" width="14" height="14" rx="2" fill="#D4A373" /><rect x="254" y="230" width="14" height="14" rx="2" fill="#D4A373" /><rect x="268" y="230" width="14" height="14" rx="2" fill="#D4A373" /><rect x="282" y="230" width="14" height="14" rx="2" fill="#D4A373" /><rect x="296" y="230" width="14" height="14" rx="2" fill="#D4A373" /><rect x="310" y="230" width="14" height="14" rx="2" fill="#D4A373" /><rect x="324" y="230" width="14" height="14" rx="2" fill="#D4A373" /><rect x="338" y="230" width="14" height="14" rx="2" fill="#D4A373" /><rect x="128" y="244" width="14" height="14" rx="2" fill="#D4A373" /><rect x="142" y="244" width="14" height="14" rx="2" fill="#D4A373" /><rect x="156" y="244" width="14" height="14" rx="2" fill="#D4A373" /><rect x="170" y="244" width="14" height="14" rx="2" fill="#D4A373" /><rect x="184" y="244" width="14" height="14" rx="2" fill="#D4A373" /><rect x="198" y="244" width="14" height="14" rx="2" fill="#D4A373" /><rect x="212" y="244" width="14" height="14" rx="2" fill="#D4A373" /><rect x="226" y="244" width="14" height="14" rx="2" fill="#D4A373" /><rect x="240" y="244" width="14" height="14" rx="2" fill="#D4A373" /><rect x="254" y="244" width="14" height="14" rx="2" fill="#D4A373" /><rect x="268" y="244" width="14" height="14" rx="2" fill="#D4A373" /><rect x="282" y="244" width="14" height="14" rx="2" fill="#D4A373" /><rect x="296" y="244" width="14" height="14" rx="2" fill="#D4A373" /><rect x="310" y="244" width="14" height="14" rx="2" fill="#D4A373" /><rect x="324" y="244" width="14" height="14" rx="2" fill="#D4A373" /><rect x="338" y="244" width="14" height="14" rx="2" fill="#D4A373" /><rect x="128" y="258" width="14" height="14" rx="2" fill="#8B5E3C" /><rect x="142" y="258" width="14" height="14" rx="2" fill="#8B5E3C" /><rect x="156" y="258" width="14" height="14" rx="2" fill="#8B5E3C" /><rect x="170" y="258" width="14" height="14" rx="2" fill="#8B5E3C" /><rect x="184" y="258" width="14" height="14" rx="2" fill="#8B5E3C" /><rect x="198" y="258" width="14" height="14" rx="2" fill="#8B5E3C" /><rect x="212" y="258" width="14" height="14" rx="2" fill="#8B5E3C" /><rect x="226" y="258" width="14" height="14" rx="2" fill="#8B5E3C" /><rect x="240" y="258" width="14" height="14" rx="2" fill="#8B5E3C" /><rect x="254" y="258" width="14" height="14" rx="2" fill="#8B5E3C" /><rect x="268" y="258" width="14" height="14" rx="2" fill="#8B5E3C" /><rect x="282" y="258" width="14" height="14" rx="2" fill="#8B5E3C" /><rect x="296" y="258" width="14" height="14" rx="2" fill="#8B5E3C" /><rect x="310" y="258" width="14" height="14" rx="2" fill="#8B5E3C" /><rect x="324" y="258" width="14" height="14" rx="2" fill="#8B5E3C" /><rect x="338" y="258" width="14" height="14" rx="2" fill="#8B5E3C" />
  <rect x="390" y="16" width="74" height="26" rx="13" fill="#f59e0b" />
  <text x="427" y="33" text-anchor="middle" fill="#fff" font-size="13" font-family="system-ui, sans-serif" font-weight="600">中等</text>
  <text x="240" y="340" text-anchor="middle" fill="#1f2937" font-size="20" font-family="system-ui, sans-serif" font-weight="700">沙漠仙人掌</text>
</svg>