<svg xmlns="http://www.w3.org/2000/svg" viewBox="0 0 480 360" width="480" height="360">
  <defs>
    <linearGradient id="bgpixel3dcastle3d012" x1="0%" y1="0%" x2="100%" y2="100%">
      <stop offset="0%" stop-color="#FFFFFF" stop-opacity="0.18"/>
      <stop offset="50%" stop-color="#1A1A1A" stop-opacity="0.12"/>
      <stop offset="100%" stop-color="#374151" stop-opacity="0.18"/>
    </linearGradient>
    <linearGradient id="cardpixel3dcastle3d012" x1="0%" y1="0%" x2="0%" y2="100%">
      <stop offset="0%" stop-color="#ffffff" stop-opacity="0.95"/>
      <stop offset="100%" stop-color="#f5f5f7" stop-opacity="0.9"/>
    </linearGradient>
  </defs>
  <rect width="480" height="360" fill="url(#bgpixel3dcastle3d012)"/>
  <rect width="480" height="360" fill="#FFFFFF" opacity="0.04"/>
  <circle cx="40" cy="30" r="3" fill="#FFFFFF" opacity="0.25"/>
  <circle cx="113" cy="77" r="4" fill="#1A1A1A" opacity="0.25"/>
  <circle cx="186" cy="124" r="5" fill="#374151" opacity="0.25"/>
  <circle cx="259" cy="171" r="3" fill="#FFFFFF" opacity="0.25"/>
  <circle cx="332" cy="218" r="4" fill="#1A1A1A" opacity="0.25"/>
  <circle cx="405" cy="265" r="5" fill="#374151" opacity="0.25"/>
  <rect x="138" y="70" width="204" height="232" rx="18" fill="url(#cardpixel3dcastle3d012)" stroke="#d2d2d7" stroke-width="1"/>
  <rect x="240.0" y="96.8" width="5.4" height="5.4" fill="#1A1A1A" rx="0.5"/><rect x="245.4" y="96.8" width="5.4" height="5.4" fill="#FB923C" rx="0.5"/><rect x="240.0" y="102.1" width="5.4" height="5.4" fill="#1A1A1A" rx="0.5"/><rect x="223.9" y="107.5" width="5.4" height="5.4" fill="#EF4444" rx="0.5"/><rect x="229.3" y="107.5" width="5.4" height="5.4" fill="#EF4444" rx="0.5"/><rect x="234.6" y="107.5" width="5.4" height="5.4" fill="#EF4444" rx="0.5"/><rect x="240.0" y="107.5" width="5.4" height="5.4" fill="#1A1A1A" rx="0.5"/><rect x="245.4" y="107.5" width="5.4" height="5.4" fill="#EF4444" rx="0.5"/><rect x="250.8" y="107.5" width="5.4" height="5.4" fill="#EF4444" rx="0.5"/><rect x="256.1" y="107.5" width="5.4" height="5.4" fill="#EF4444" rx="0.5"/><rect x="223.9" y="112.9" width="5.4" height="5.4" fill="#EF4444" rx="0.5"/><rect x="229.3" y="112.9" width="5.4" height="5.4" fill="#EF4444" rx="0.5"/><rect x="234.6" y="112.9" width="5.4" height="5.4" fill="#EF4444" rx="0.5"/><rect x="240.0" y="112.9" width="5.4" height="5.4" fill="#EF4444" rx="0.5"/><rect x="245.4" y="112.9" width="5.4" height="5.4" fill="#EF4444" rx="0.5"/><rect x="250.8" y="112.9" width="5.4" height="5.4" fill="#EF4444" rx="0.5"/><rect x="256.1" y="112.9" width="5.4" height="5.4" fill="#EF4444" rx="0.5"/><rect x="223.9" y="118.3" width="5.4" height="5.4" fill="#EF4444" rx="0.5"/><rect x="229.3" y="118.3" width="5.4" height="5.4" fill="#EF4444" rx="0.5"/><rect x="234.6" y="118.3" width="5.4" height="5.4" fill="#EF4444" rx="0.5"/><rect x="240.0" y="118.3" width="5.4" height="5.4" fill="#EF4444" rx="0.5"/><rect x="245.4" y="118.3" width="5.4" height="5.4" fill="#EF4444" rx="0.5"/><rect x="250.8" y="118.3" width="5.4" height="5.4" fill="#EF4444" rx="0.5"/><rect x="256.1" y="118.3" width="5.4" height="5.4" fill="#EF4444" rx="0.5"/><rect x="229.3" y="123.6" width="5.4" height="5.4" fill="#E5E7EB" rx="0.5"/><rect x="234.6" y="123.6" width="5.4" height="5.4" fill="#E5E7EB" rx="0.5"/><rect x="240.0" y="123.6" width="5.4" height="5.4" fill="#9CA3AF" rx="0.5"/><rect x="245.4" y="123.6" width="5.4" height="5.4" fill="#9CA3AF" rx="0.5"/><rect x="250.8" y="123.6" width="5.4" height="5.4" fill="#9CA3AF" rx="0.5"/><rect x="229.3" y="129.0" width="5.4" height="5.4" fill="#E5E7EB" rx="0.5"/><rect x="234.6" y="129.0" width="5.4" height="5.4" fill="#E5E7EB" rx="0.5"/><rect x="240.0" y="129.0" width="5.4" height="5.4" fill="#9CA3AF" rx="0.5"/><rect x="245.4" y="129.0" width="5.4" height="5.4" fill="#9CA3AF" rx="0.5"/><rect x="250.8" y="129.0" width="5.4" height="5.4" fill="#9CA3AF" rx="0.5"/><rect x="229.3" y="134.4" width="5.4" height="5.4" fill="#E5E7EB" rx="0.5"/><rect x="234.6" y="134.4" width="5.4" height="5.4" fill="#E5E7EB" rx="0.5"/><rect x="240.0" y="134.4" width="5.4" height="5.4" fill="#9CA3AF" rx="0.5"/><rect x="245.4" y="134.4" width="5.4" height="5.4" fill="#9CA3AF" rx="0.5"/><rect x="250.8" y="134.4" width="5.4" height="5.4" fill="#9CA3AF" rx="0.5"/><rect x="229.3" y="139.8" width="5.4" height="5.4" fill="#E5E7EB" rx="0.5"/><rect x="234.6" y="139.8" width="5.4" height="5.4" fill="#1E40AF" rx="0.5"/><rect x="240.0" y="139.8" width="5.4" height="5.4" fill="#1E40AF" rx="0.5"/><rect x="245.4" y="139.8" width="5.4" height="5.4" fill="#1E40AF" rx="0.5"/><rect x="250.8" y="139.8" width="5.4" height="5.4" fill="#9CA3AF" rx="0.5"/><rect x="229.3" y="145.1" width="5.4" height="5.4" fill="#E5E7EB" rx="0.5"/><rect x="234.6" y="145.1" width="5.4" height="5.4" fill="#1E40AF" rx="0.5"/><rect x="240.0" y="145.1" width="5.4" height="5.4" fill="#1E40AF" rx="0.5"/><rect x="245.4" y="145.1" width="5.4" height="5.4" fill="#1E40AF" rx="0.5"/><rect x="250.8" y="145.1" width="5.4" height="5.4" fill="#9CA3AF" rx="0.5"/><rect x="186.3" y="150.5" width="5.4" height="5.4" fill="#374151" rx="0.5"/><rect x="191.6" y="150.5" width="5.4" height="5.4" fill="#E5E7EB" rx="0.5"/><rect x="197.0" y="150.5" width="5.4" height="5.4" fill="#374151" rx="0.5"/><rect x="202.4" y="150.5" width="5.4" height="5.4" fill="#E5E7EB" rx="0.5"/><rect x="207.8" y="150.5" width="5.4" height="5.4" fill="#374151" rx="0.5"/><rect x="213.1" y="150.5" width="5.4" height="5.4" fill="#9CA3AF" rx="0.5"/><rect x="218.5" y="150.5" width="5.4" height="5.4" fill="#374151" rx="0.5"/><rect x="223.9" y="150.5" width="5.4" height="5.4" fill="#9CA3AF" rx="0.5"/><rect x="229.3" y="150.5" width="5.4" height="5.4" fill="#374151" rx="0.5"/><rect x="234.6" y="150.5" width="5.4" height="5.4" fill="#1E40AF" rx="0.5"/><rect x="240.0" y="150.5" width="5.4" height="5.4" fill="#1E40AF" rx="0.5"/><rect x="245.4" y="150.5" width="5.4" height="5.4" fill="#1E40AF" rx="0.5"/><rect x="250.8" y="150.5" width="5.4" height="5.4" fill="#374151" rx="0.5"/><rect x="256.1" y="150.5" width="5.4" height="5.4" fill="#9CA3AF" rx="0.5"/><rect x="261.5" y="150.5" width="5.4" height="5.4" fill="#374151" rx="0.5"/><rect x="266.9" y="150.5" width="5.4" height="5.4" fill="#9CA3AF" rx="0.5"/><rect x="272.3" y="150.5" width="5.4" height="5.4" fill="#374151" rx="0.5"/><rect x="277.6" y="150.5" width="5.4" height="5.4" fill="#374151" rx="0.5"/><rect x="283.0" y="150.5" width="5.4" height="5.4" fill="#374151" rx="0.5"/><rect x="288.4" y="150.5" width="5.4" height="5.4" fill="#374151" rx="0.5"/><rect x="293.8" y="150.5" width="5.4" height="5.4" fill="#374151" rx="0.5"/><rect x="186.3" y="155.9" width="5.4" height="5.4" fill="#E5E7EB" rx="0.5"/><rect x="191.6" y="155.9" width="5.4" height="5.4" fill="#E5E7EB" rx="0.5"/><rect x="197.0" y="155.9" width="5.4" height="5.4" fill="#E5E7EB" rx="0.5"/><rect x="202.4" y="155.9" width="5.4" height="5.4" fill="#E5E7EB" rx="0.5"/><rect x="207.8" y="155.9" width="5.4" height="5.4" fill="#E5E7EB" rx="0.5"/><rect x="213.1" y="155.9" width="5.4" height="5.4" fill="#9CA3AF" rx="0.5"/><rect x="218.5" y="155.9" width="5.4" height="5.4" fill="#9CA3AF" rx="0.5"/><rect x="223.9" y="155.9" width="5.4" height="5.4" fill="#9CA3AF" rx="0.5"/><rect x="229.3" y="155.9" width="5.4" height="5.4" fill="#E5E7EB" rx="0.5"/><rect x="234.6" y="155.9" width="5.4" height="5.4" fill="#E5E7EB" rx="0.5"/><rect x="240.0" y="155.9" width="5.4" height="5.4" fill="#9CA3AF" rx="0.5"/><rect x="245.4" y="155.9" width="5.4" height="5.4" fill="#9CA3AF" rx="0.5"/><rect x="250.8" y="155.9" width="5.4" height="5.4" fill="#9CA3AF" rx="0.5"/><rect x="256.1" y="155.9" width="5.4" height="5.4" fill="#9CA3AF" rx="0.5"/><rect x="261.5" y="155.9" width="5.4" height="5.4" fill="#9CA3AF" rx="0.5"/><rect x="266.9" y="155.9" width="5.4" height="5.4" fill="#9CA3AF" rx="0.5"/><rect x="272.3" y="155.9" width="5.4" height="5.4" fill="#374151" rx="0.5"/><rect x="277.6" y="155.9" width="5.4" height="5.4" fill="#374151" rx="0.5"/><rect x="283.0" y="155.9" width="5.4" height="5.4" fill="#374151" rx="0.5"/><rect x="288.4" y="155.9" width="5.4" height="5.4" fill="#374151" rx="0.5"/><rect x="293.8" y="155.9" width="5.4" height="5.4" fill="#374151" rx="0.5"/><rect x="186.3" y="161.3" width="5.4" height="5.4" fill="#E5E7EB" rx="0.5"/><rect x="191.6" y="161.3" width="5.4" height="5.4" fill="#E5E7EB" rx="0.5"/><rect x="197.0" y="161.3" width="5.4" height="5.4" fill="#E5E7EB" rx="0.5"/><rect x="202.4" y="161.3" width="5.4" height="5.4" fill="#E5E7EB" rx="0.5"/><rect x="207.8" y="161.3" width="5.4" height="5.4" fill="#E5E7EB" rx="0.5"/><rect x="213.1" y="161.3" width="5.4" height="5.4" fill="#9CA3AF" rx="0.5"/><rect x="218.5" y="161.3" width="5.4" height="5.4" fill="#9CA3AF" rx="0.5"/><rect x="223.9" y="161.3" width="5.4" height="5.4" fill="#9CA3AF" rx="0.5"/><rect x="229.3" y="161.3" width="5.4" height="5.4" fill="#E5E7EB" rx="0.5"/><rect x="234.6" y="161.3" width="5.4" height="5.4" fill="#E5E7EB" rx="0.5"/><rect x="240.0" y="161.3" width="5.4" height="5.4" fill="#9CA3AF" rx="0.5"/><rect x="245.4" y="161.3" width="5.4" height="5.4" fill="#9CA3AF" rx="0.5"/><rect x="250.8" y="161.3" width="5.4" height="5.4" fill="#9CA3AF" rx="0.5"/><rect x="256.1" y="161.3" width="5.4" height="5.4" fill="#9CA3AF" rx="0.5"/><rect x="261.5" y="161.3" width="5.4" height="5.4" fill="#9CA3AF" rx="0.5"/><rect x="266.9" y="161.3" width="5.4" height="5.4" fill="#9CA3AF" rx="0.5"/><rect x="272.3" y="161.3" width="5.4" height="5.4" fill="#374151" rx="0.5"/><rect x="277.6" y="161.3" width="5.4" height="5.4" fill="#374151" rx="0.5"/><rect x="283.0" y="161.3" width="5.4" height="5.4" fill="#374151" rx="0.5"/><rect x="288.4" y="161.3" width="5.4" height="5.4" fill="#374151" rx="0.5"/><rect x="293.8" y="161.3" width="5.4" height="5.4" fill="#374151" rx="0.5"/><rect x="186.3" y="166.6" width="5.4" height="5.4" fill="#E5E7EB" rx="0.5"/><rect x="191.6" y="166.6" width="5.4" height="5.4" fill="#E5E7EB" rx="0.5"/><rect x="197.0" y="166.6" width="5.4" height="5.4" fill="#E5E7EB" rx="0.5"/><rect x="202.4" y="166.6" width="5.4" height="5.4" fill="#E5E7EB" rx="0.5"/><rect x="207.8" y="166.6" width="5.4" height="5.4" fill="#E5E7EB" rx="0.5"/><rect x="213.1" y="166.6" width="5.4" height="5.4" fill="#9CA3AF" rx="0.5"/><rect x="218.5" y="166.6" width="5.4" height="5.4" fill="#9CA3AF" rx="0.5"/><rect x="223.9" y="166.6" width="5.4" height="5.4" fill="#9CA3AF" rx="0.5"/><rect x="229.3" y="166.6" width="5.4" height="5.4" fill="#E5E7EB" rx="0.5"/><rect x="234.6" y="166.6" width="5.4" height="5.4" fill="#E5E7EB" rx="0.5"/><rect x="240.0" y="166.6" width="5.4" height="5.4" fill="#9CA3AF" rx="0.5"/><rect x="245.4" y="166.6" width="5.4" height="5.4" fill="#9CA3AF" rx="0.5"/><rect x="250.8" y="166.6" width="5.4" height="5.4" fill="#9CA3AF" rx="0.5"/><rect x="256.1" y="166.6" width="5.4" height="5.4" fill="#9CA3AF" rx="0.5"/><rect x="261.5" y="166.6" width="5.4" height="5.4" fill="#9CA3AF" rx="0.5"/><rect x="266.9" y="166.6" width="5.4" height="5.4" fill="#9CA3AF" rx="0.5"/><rect x="272.3" y="166.6" width="5.4" height="5.4" fill="#374151" rx="0.5"/><rect x="277.6" y="166.6" width="5.4" height="5.4" fill="#374151" rx="0.5"/><rect x="283.0" y="166.6" width="5.4" height="5.4" fill="#374151" rx="0.5"/><rect x="288.4" y="166.6" width="5.4" height="5.4" fill="#374151" rx="0.5"/><rect x="293.8" y="166.6" width="5.4" height="5.4" fill="#374151" rx="0.5"/><rect x="186.3" y="172.0" width="5.4" height="5.4" fill="#E5E7EB" rx="0.5"/><rect x="191.6" y="172.0" width="5.4" height="5.4" fill="#E5E7EB" rx="0.5"/><rect x="197.0" y="172.0" width="5.4" height="5.4" fill="#1E40AF" rx="0.5"/><rect x="202.4" y="172.0" width="5.4" height="5.4" fill="#1E40AF" rx="0.5"/><rect x="207.8" y="172.0" width="5.4" height="5.4" fill="#E5E7EB" rx="0.5"/><rect x="213.1" y="172.0" width="5.4" height="5.4" fill="#9CA3AF" rx="0.5"/><rect x="218.5" y="172.0" width="5.4" height="5.4" fill="#9CA3AF" rx="0.5"/><rect x="223.9" y="172.0" width="5.4" height="5.4" fill="#9CA3AF" rx="0.5"/><rect x="229.3" y="172.0" width="5.4" height="5.4" fill="#E5E7EB" rx="0.5"/><rect x="234.6" y="172.0" width="5.4" height="5.4" fill="#E5E7EB" rx="0.5"/><rect x="240.0" y="172.0" width="5.4" height="5.4" fill="#9CA3AF" rx="0.5"/><rect x="245.4" y="172.0" width="5.4" height="5.4" fill="#9CA3AF" rx="0.5"/><rect x="250.8" y="172.0" width="5.4" height="5.4" fill="#9CA3AF" rx="0.5"/><rect x="256.1" y="172.0" width="5.4" height="5.4" fill="#9CA3AF" rx="0.5"/><rect x="261.5" y="172.0" width="5.4" height="5.4" fill="#9CA3AF" rx="0.5"/><rect x="266.9" y="172.0" width="5.4" height="5.4" fill="#9CA3AF" rx="0.5"/><rect x="272.3" y="172.0" width="5.4" height="5.4" fill="#374151" rx="0.5"/><rect x="277.6" y="172.0" width="5.4" height="5.4" fill="#1E40AF" rx="0.5"/><rect x="283.0" y="172.0" width="5.4" height="5.4" fill="#1E40AF" rx="0.5"/><rect x="288.4" y="172.0" width="5.4" height="5.4" fill="#374151" rx="0.5"/><rect x="293.8" y="172.0" width="5.4" height="5.4" fill="#374151" rx="0.5"/><rect x="186.3" y="177.4" width="5.4" height="5.4" fill="#E5E7EB" rx="0.5"/><rect x="191.6" y="177.4" width="5.4" height="5.4" fill="#E5E7EB" rx="0.5"/><rect x="197.0" y="177.4" width="5.4" height="5.4" fill="#1E40AF" rx="0.5"/><rect x="202.4" y="177.4" width="5.4" height="5.4" fill="#1E40AF" rx="0.5"/><rect x="207.8" y="177.4" width="5.4" height="5.4" fill="#E5E7EB" rx="0.5"/><rect x="213.1" y="177.4" width="5.4" height="5.4" fill="#9CA3AF" rx="0.5"/><rect x="218.5" y="177.4" width="5.4" height="5.4" fill="#9CA3AF" rx="0.5"/><rect x="223.9" y="177.4" width="5.4" height="5.4" fill="#9CA3AF" rx="0.5"/><rect x="229.3" y="177.4" width="5.4" height="5.4" fill="#E5E7EB" rx="0.5"/><rect x="234.6" y="177.4" width="5.4" height="5.4" fill="#E5E7EB" rx="0.5"/><rect x="240.0" y="177.4" width="5.4" height="5.4" fill="#9CA3AF" rx="0.5"/><rect x="245.4" y="177.4" width="5.4" height="5.4" fill="#9CA3AF" rx="0.5"/><rect x="250.8" y="177.4" width="5.4" height="5.4" fill="#9CA3AF" rx="0.5"/><rect x="256.1" y="177.4" width="5.4" height="5.4" fill="#9CA3AF" rx="0.5"/><rect x="261.5" y="177.4" width="5.4" height="5.4" fill="#9CA3AF" rx="0.5"/><rect x="266.9" y="177.4" width="5.4" height="5.4" fill="#9CA3AF" rx="0.5"/><rect x="272.3" y="177.4" width="5.4" height="5.4" fill="#374151" rx="0.5"/><rect x="277.6" y="177.4" width="5.4" height="5.4" fill="#1E40AF" rx="0.5"/><rect x="283.0" y="177.4" width="5.4" height="5.4" fill="#1E40AF" rx="0.5"/><rect x="288.4" y="177.4" width="5.4" height="5.4" fill="#374151" rx="0.5"/><rect x="293.8" y="177.4" width="5.4" height="5.4" fill="#374151" rx="0.5"/><rect x="186.3" y="182.8" width="5.4" height="5.4" fill="#E5E7EB" rx="0.5"/><rect x="191.6" y="182.8" width="5.4" height="5.4" fill="#E5E7EB" rx="0.5"/><rect x="197.0" y="182.8" width="5.4" height="5.4" fill="#1E40AF" rx="0.5"/><rect x="202.4" y="182.8" width="5.4" height="5.4" fill="#1E40AF" rx="0.5"/><rect x="207.8" y="182.8" width="5.4" height="5.4" fill="#E5E7EB" rx="0.5"/><rect x="213.1" y="182.8" width="5.4" height="5.4" fill="#9CA3AF" rx="0.5"/><rect x="218.5" y="182.8" width="5.4" height="5.4" fill="#9CA3AF" rx="0.5"/><rect x="223.9" y="182.8" width="5.4" height="5.4" fill="#9CA3AF" rx="0.5"/><rect x="229.3" y="182.8" width="5.4" height="5.4" fill="#1A1A1A" rx="0.5"/><rect x="234.6" y="182.8" width="5.4" height="5.4" fill="#1A1A1A" rx="0.5"/><rect x="240.0" y="182.8" width="5.4" height="5.4" fill="#1A1A1A" rx="0.5"/><rect x="245.4" y="182.8" width="5.4" height="5.4" fill="#1A1A1A" rx="0.5"/><rect x="250.8" y="182.8" width="5.4" height="5.4" fill="#1A1A1A" rx="0.5"/><rect x="256.1" y="182.8" width="5.4" height="5.4" fill="#9CA3AF" rx="0.5"/><rect x="261.5" y="182.8" width="5.4" height="5.4" fill="#9CA3AF" rx="0.5"/><rect x="266.9" y="182.8" width="5.4" height="5.4" fill="#9CA3AF" rx="0.5"/><rect x="272.3" y="182.8" width="5.4" height="5.4" fill="#374151" rx="0.5"/><rect x="277.6" y="182.8" width="5.4" height="5.4" fill="#1E40AF" rx="0.5"/><rect x="283.0" y="182.8" width="5.4" height="5.4" fill="#1E40AF" rx="0.5"/><rect x="288.4" y="182.8" width="5.4" height="5.4" fill="#374151" rx="0.5"/><rect x="293.8" y="182.8" width="5.4" height="5.4" fill="#374151" rx="0.5"/><rect x="186.3" y="188.1" width="5.4" height="5.4" fill="#E5E7EB" rx="0.5"/><rect x="191.6" y="188.1" width="5.4" height="5.4" fill="#E5E7EB" rx="0.5"/><rect x="197.0" y="188.1" width="5.4" height="5.4" fill="#E5E7EB" rx="0.5"/><rect x="202.4" y="188.1" width="5.4" height="5.4" fill="#E5E7EB" rx="0.5"/><rect x="207.8" y="188.1" width="5.4" height="5.4" fill="#E5E7EB" rx="0.5"/><rect x="213.1" y="188.1" width="5.4" height="5.4" fill="#9CA3AF" rx="0.5"/><rect x="218.5" y="188.1" width="5.4" height="5.4" fill="#9CA3AF" rx="0.5"/><rect x="223.9" y="188.1" width="5.4" height="5.4" fill="#9CA3AF" rx="0.5"/><rect x="229.3" y="188.1" width="5.4" height="5.4" fill="#1A1A1A" rx="0.5"/><rect x="234.6" y="188.1" width="5.4" height="5.4" fill="#1A1A1A" rx="0.5"/><rect x="240.0" y="188.1" width="5.4" height="5.4" fill="#1A1A1A" rx="0.5"/><rect x="245.4" y="188.1" width="5.4" height="5.4" fill="#1A1A1A" rx="0.5"/><rect x="250.8" y="188.1" width="5.4" height="5.4" fill="#1A1A1A" rx="0.5"/><rect x="256.1" y="188.1" width="5.4" height="5.4" fill="#9CA3AF" rx="0.5"/><rect x="261.5" y="188.1" width="5.4" height="5.4" fill="#9CA3AF" rx="0.5"/><rect x="266.9" y="188.1" width="5.4" height="5.4" fill="#9CA3AF" rx="0.5"/><rect x="272.3" y="188.1" width="5.4" height="5.4" fill="#374151" rx="0.5"/><rect x="277.6" y="188.1" width="5.4" height="5.4" fill="#374151" rx="0.5"/><rect x="283.0" y="188.1" width="5.4" height="5.4" fill="#374151" rx="0.5"/><rect x="288.4" y="188.1" width="5.4" height="5.4" fill="#374151" rx="0.5"/><rect x="293.8" y="188.1" width="5.4" height="5.4" fill="#374151" rx="0.5"/><rect x="186.3" y="193.5" width="5.4" height="5.4" fill="#E5E7EB" rx="0.5"/><rect x="191.6" y="193.5" width="5.4" height="5.4" fill="#E5E7EB" rx="0.5"/><rect x="197.0" y="193.5" width="5.4" height="5.4" fill="#E5E7EB" rx="0.5"/><rect x="202.4" y="193.5" width="5.4" height="5.4" fill="#E5E7EB" rx="0.5"/><rect x="207.8" y="193.5" width="5.4" height="5.4" fill="#E5E7EB" rx="0.5"/><rect x="213.1" y="193.5" width="5.4" height="5.4" fill="#9CA3AF" rx="0.5"/><rect x="218.5" y="193.5" width="5.4" height="5.4" fill="#9CA3AF" rx="0.5"/><rect x="223.9" y="193.5" width="5.4" height="5.4" fill="#9CA3AF" rx="0.5"/><rect x="229.3" y="193.5" width="5.4" height="5.4" fill="#1A1A1A" rx="0.5"/><rect x="234.6" y="193.5" width="5.4" height="5.4" fill="#1A1A1A" rx="0.5"/><rect x="240.0" y="193.5" width="5.4" height="5.4" fill="#1A1A1A" rx="0.5"/><rect x="245.4" y="193.5" width="5.4" height="5.4" fill="#1A1A1A" rx="0.5"/><rect x="250.8" y="193.5" width="5.4" height="5.4" fill="#1A1A1A" rx="0.5"/><rect x="256.1" y="193.5" width="5.4" height="5.4" fill="#9CA3AF" rx="0.5"/><rect x="261.5" y="193.5" width="5.4" height="5.4" fill="#9CA3AF" rx="0.5"/><rect x="266.9" y="193.5" width="5.4" height="5.4" fill="#9CA3AF" rx="0.5"/><rect x="272.3" y="193.5" width="5.4" height="5.4" fill="#374151" rx="0.5"/><rect x="277.6" y="193.5" width="5.4" height="5.4" fill="#374151" rx="0.5"/><rect x="283.0" y="193.5" width="5.4" height="5.4" fill="#374151" rx="0.5"/><rect x="288.4" y="193.5" width="5.4" height="5.4" fill="#374151" rx="0.5"/><rect x="293.8" y="193.5" width="5.4" height="5.4" fill="#374151" rx="0.5"/><rect x="186.3" y="198.9" width="5.4" height="5.4" fill="#E5E7EB" rx="0.5"/><rect x="191.6" y="198.9" width="5.4" height="5.4" fill="#E5E7EB" rx="0.5"/><rect x="197.0" y="198.9" width="5.4" height="5.4" fill="#E5E7EB" rx="0.5"/><rect x="202.4" y="198.9" width="5.4" height="5.4" fill="#E5E7EB" rx="0.5"/><rect x="207.8" y="198.9" width="5.4" height="5.4" fill="#E5E7EB" rx="0.5"/><rect x="213.1" y="198.9" width="5.4" height="5.4" fill="#9CA3AF" rx="0.5"/><rect x="218.5" y="198.9" width="5.4" height="5.4" fill="#9CA3AF" rx="0.5"/><rect x="223.9" y="198.9" width="5.4" height="5.4" fill="#9CA3AF" rx="0.5"/><rect x="229.3" y="198.9" width="5.4" height="5.4" fill="#1A1A1A" rx="0.5"/><rect x="234.6" y="198.9" width="5.4" height="5.4" fill="#1A1A1A" rx="0.5"/><rect x="240.0" y="198.9" width="5.4" height="5.4" fill="#1A1A1A" rx="0.5"/><rect x="245.4" y="198.9" width="5.4" height="5.4" fill="#1A1A1A" rx="0.5"/><rect x="250.8" y="198.9" width="5.4" height="5.4" fill="#1A1A1A" rx="0.5"/><rect x="256.1" y="198.9" width="5.4" height="5.4" fill="#9CA3AF" rx="0.5"/><rect x="261.5" y="198.9" width="5.4" height="5.4" fill="#9CA3AF" rx="0.5"/><rect x="266.9" y="198.9" width="5.4" height="5.4" fill="#9CA3AF" rx="0.5"/><rect x="272.3" y="198.9" width="5.4" height="5.4" fill="#374151" rx="0.5"/><rect x="277.6" y="198.9" width="5.4" height="5.4" fill="#374151" rx="0.5"/><rect x="283.0" y="198.9" width="5.4" height="5.4" fill="#374151" rx="0.5"/><rect x="288.4" y="198.9" width="5.4" height="5.4" fill="#374151" rx="0.5"/><rect x="293.8" y="198.9" width="5.4" height="5.4" fill="#374151" rx="0.5"/><rect x="186.3" y="204.3" width="5.4" height="5.4" fill="#E5E7EB" rx="0.5"/><rect x="191.6" y="204.3" width="5.4" height="5.4" fill="#E5E7EB" rx="0.5"/><rect x="197.0" y="204.3" width="5.4" height="5.4" fill="#E5E7EB" rx="0.5"/><rect x="202.4" y="204.3" width="5.4" height="5.4" fill="#E5E7EB" rx="0.5"/><rect x="207.8" y="204.3" width="5.4" height="5.4" fill="#E5E7EB" rx="0.5"/><rect x="213.1" y="204.3" width="5.4" height="5.4" fill="#9CA3AF" rx="0.5"/><rect x="218.5" y="204.3" width="5.4" height="5.4" fill="#9CA3AF" rx="0.5"/><rect x="223.9" y="204.3" width="5.4" height="5.4" fill="#9CA3AF" rx="0.5"/><rect x="229.3" y="204.3" width="5.4" height="5.4" fill="#1A1A1A" rx="0.5"/><rect x="234.6" y="204.3" width="5.4" height="5.4" fill="#1A1A1A" rx="0.5"/><rect x="240.0" y="204.3" width="5.4" height="5.4" fill="#1A1A1A" rx="0.5"/><rect x="245.4" y="204.3" width="5.4" height="5.4" fill="#1A1A1A" rx="0.5"/><rect x="250.8" y="204.3" width="5.4" height="5.4" fill="#1A1A1A" rx="0.5"/><rect x="256.1" y="204.3" width="5.4" height="5.4" fill="#9CA3AF" rx="0.5"/><rect x="261.5" y="204.3" width="5.4" height="5.4" fill="#9CA3AF" rx="0.5"/><rect x="266.9" y="204.3" width="5.4" height="5.4" fill="#9CA3AF" rx="0.5"/><rect x="272.3" y="204.3" width="5.4" height="5.4" fill="#374151" rx="0.5"/><rect x="277.6" y="204.3" width="5.4" height="5.4" fill="#374151" rx="0.5"/><rect x="283.0" y="204.3" width="5.4" height="5.4" fill="#374151" rx="0.5"/><rect x="288.4" y="204.3" width="5.4" height="5.4" fill="#374151" rx="0.5"/><rect x="293.8" y="204.3" width="5.4" height="5.4" fill="#374151" rx="0.5"/><rect x="186.3" y="209.6" width="5.4" height="5.4" fill="#E5E7EB" rx="0.5"/><rect x="191.6" y="209.6" width="5.4" height="5.4" fill="#E5E7EB" rx="0.5"/><rect x="197.0" y="209.6" width="5.4" height="5.4" fill="#E5E7EB" rx="0.5"/><rect x="202.4" y="209.6" width="5.4" height="5.4" fill="#E5E7EB" rx="0.5"/><rect x="207.8" y="209.6" width="5.4" height="5.4" fill="#E5E7EB" rx="0.5"/><rect x="213.1" y="209.6" width="5.4" height="5.4" fill="#9CA3AF" rx="0.5"/><rect x="218.5" y="209.6" width="5.4" height="5.4" fill="#9CA3AF" rx="0.5"/><rect x="223.9" y="209.6" width="5.4" height="5.4" fill="#9CA3AF" rx="0.5"/><rect x="229.3" y="209.6" width="5.4" height="5.4" fill="#1A1A1A" rx="0.5"/><rect x="234.6" y="209.6" width="5.4" height="5.4" fill="#1A1A1A" rx="0.5"/><rect x="240.0" y="209.6" width="5.4" height="5.4" fill="#1A1A1A" rx="0.5"/><rect x="245.4" y="209.6" width="5.4" height="5.4" fill="#1A1A1A" rx="0.5"/><rect x="250.8" y="209.6" width="5.4" height="5.4" fill="#1A1A1A" rx="0.5"/><rect x="256.1" y="209.6" width="5.4" height="5.4" fill="#9CA3AF" rx="0.5"/><rect x="261.5" y="209.6" width="5.4" height="5.4" fill="#9CA3AF" rx="0.5"/><rect x="266.9" y="209.6" width="5.4" height="5.4" fill="#9CA3AF" rx="0.5"/><rect x="272.3" y="209.6" width="5.4" height="5.4" fill="#374151" rx="0.5"/><rect x="277.6" y="209.6" width="5.4" height="5.4" fill="#374151" rx="0.5"/><rect x="283.0" y="209.6" width="5.4" height="5.4" fill="#374151" rx="0.5"/><rect x="288.4" y="209.6" width="5.4" height="5.4" fill="#374151" rx="0.5"/><rect x="293.8" y="209.6" width="5.4" height="5.4" fill="#374151" rx="0.5"/><rect x="154.0" y="215.0" width="5.4" height="5.4" fill="#22C55E" rx="0.5"/><rect x="159.4" y="215.0" width="5.4" height="5.4" fill="#22C55E" rx="0.5"/><rect x="164.8" y="215.0" width="5.4" height="5.4" fill="#22C55E" rx="0.5"/><rect x="170.1" y="215.0" width="5.4" height="5.4" fill="#22C55E" rx="0.5"/><rect x="175.5" y="215.0" width="5.4" height="5.4" fill="#22C55E" rx="0.5"/><rect x="180.9" y="215.0" width="5.4" height="5.4" fill="#22C55E" rx="0.5"/><rect x="186.3" y="215.0" width="5.4" height="5.4" fill="#E5E7EB" rx="0.5"/><rect x="191.6" y="215.0" width="5.4" height="5.4" fill="#E5E7EB" rx="0.5"/><rect x="197.0" y="215.0" width="5.4" height="5.4" fill="#E5E7EB" rx="0.5"/><rect x="202.4" y="215.0" width="5.4" height="5.4" fill="#E5E7EB" rx="0.5"/><rect x="207.8" y="215.0" width="5.4" height="5.4" fill="#E5E7EB" rx="0.5"/><rect x="213.1" y="215.0" width="5.4" height="5.4" fill="#9CA3AF" rx="0.5"/><rect x="218.5" y="215.0" width="5.4" height="5.4" fill="#9CA3AF" rx="0.5"/><rect x="223.9" y="215.0" width="5.4" height="5.4" fill="#9CA3AF" rx="0.5"/><rect x="229.3" y="215.0" width="5.4" height="5.4" fill="#1A1A1A" rx="0.5"/><rect x="234.6" y="215.0" width="5.4" height="5.4" fill="#1A1A1A" rx="0.5"/><rect x="240.0" y="215.0" width="5.4" height="5.4" fill="#1A1A1A" rx="0.5"/><rect x="245.4" y="215.0" width="5.4" height="5.4" fill="#1A1A1A" rx="0.5"/><rect x="250.8" y="215.0" width="5.4" height="5.4" fill="#1A1A1A" rx="0.5"/><rect x="256.1" y="215.0" width="5.4" height="5.4" fill="#9CA3AF" rx="0.5"/><rect x="261.5" y="215.0" width="5.4" height="5.4" fill="#9CA3AF" rx="0.5"/><rect x="266.9" y="215.0" width="5.4" height="5.4" fill="#9CA3AF" rx="0.5"/><rect x="272.3" y="215.0" width="5.4" height="5.4" fill="#374151" rx="0.5"/><rect x="277.6" y="215.0" width="5.4" height="5.4" fill="#374151" rx="0.5"/><rect x="283.0" y="215.0" width="5.4" height="5.4" fill="#374151" rx="0.5"/><rect x="288.4" y="215.0" width="5.4" height="5.4" fill="#374151" rx="0.5"/><rect x="293.8" y="215.0" width="5.4" height="5.4" fill="#374151" rx="0.5"/><rect x="299.1" y="215.0" width="5.4" height="5.4" fill="#22C55E" rx="0.5"/><rect x="304.5" y="215.0" width="5.4" height="5.4" fill="#22C55E" rx="0.5"/><rect x="309.9" y="215.0" width="5.4" height="5.4" fill="#22C55E" rx="0.5"/><rect x="315.3" y="215.0" width="5.4" height="5.4" fill="#22C55E" rx="0.5"/><rect x="320.6" y="215.0" width="5.4" height="5.4" fill="#22C55E" rx="0.5"/><rect x="154.0" y="220.4" width="5.4" height="5.4" fill="#22C55E" rx="0.5"/><rect x="159.4" y="220.4" width="5.4" height="5.4" fill="#22C55E" rx="0.5"/><rect x="164.8" y="220.4" width="5.4" height="5.4" fill="#22C55E" rx="0.5"/><rect x="170.1" y="220.4" width="5.4" height="5.4" fill="#22C55E" rx="0.5"/><rect x="175.5" y="220.4" width="5.4" height="5.4" fill="#22C55E" rx="0.5"/><rect x="180.9" y="220.4" width="5.4" height="5.4" fill="#22C55E" rx="0.5"/><rect x="186.3" y="220.4" width="5.4" height="5.4" fill="#22C55E" rx="0.5"/><rect x="191.6" y="220.4" width="5.4" height="5.4" fill="#22C55E" rx="0.5"/><rect x="197.0" y="220.4" width="5.4" height="5.4" fill="#22C55E" rx="0.5"/><rect x="202.4" y="220.4" width="5.4" height="5.4" fill="#22C55E" rx="0.5"/><rect x="207.8" y="220.4" width="5.4" height="5.4" fill="#22C55E" rx="0.5"/><rect x="213.1" y="220.4" width="5.4" height="5.4" fill="#22C55E" rx="0.5"/><rect x="218.5" y="220.4" width="5.4" height="5.4" fill="#22C55E" rx="0.5"/><rect x="223.9" y="220.4" width="5.4" height="5.4" fill="#22C55E" rx="0.5"/><rect x="229.3" y="220.4" width="5.4" height="5.4" fill="#22C55E" rx="0.5"/><rect x="234.6" y="220.4" width="5.4" height="5.4" fill="#22C55E" rx="0.5"/><rect x="240.0" y="220.4" width="5.4" height="5.4" fill="#22C55E" rx="0.5"/><rect x="245.4" y="220.4" width="5.4" height="5.4" fill="#22C55E" rx="0.5"/><rect x="250.8" y="220.4" width="5.4" height="5.4" fill="#22C55E" rx="0.5"/><rect x="256.1" y="220.4" width="5.4" height="5.4" fill="#22C55E" rx="0.5"/><rect x="261.5" y="220.4" width="5.4" height="5.4" fill="#22C55E" rx="0.5"/><rect x="266.9" y="220.4" width="5.4" height="5.4" fill="#22C55E" rx="0.5"/><rect x="272.3" y="220.4" width="5.4" height="5.4" fill="#22C55E" rx="0.5"/><rect x="277.6" y="220.4" width="5.4" height="5.4" fill="#22C55E" rx="0.5"/><rect x="283.0" y="220.4" width="5.4" height="5.4" fill="#22C55E" rx="0.5"/><rect x="288.4" y="220.4" width="5.4" height="5.4" fill="#22C55E" rx="0.5"/><rect x="293.8" y="220.4" width="5.4" height="5.4" fill="#22C55E" rx="0.5"/><rect x="299.1" y="220.4" width="5.4" height="5.4" fill="#22C55E" rx="0.5"/><rect x="304.5" y="220.4" width="5.4" height="5.4" fill="#22C55E" rx="0.5"/><rect x="309.9" y="220.4" width="5.4" height="5.4" fill="#22C55E" rx="0.5"/><rect x="315.3" y="220.4" width="5.4" height="5.4" fill="#22C55E" rx="0.5"/><rect x="320.6" y="220.4" width="5.4" height="5.4" fill="#22C55E" rx="0.5"/><rect x="154.0" y="225.8" width="5.4" height="5.4" fill="#22C55E" rx="0.5"/><rect x="159.4" y="225.8" width="5.4" height="5.4" fill="#22C55E" rx="0.5"/><rect x="164.8" y="225.8" width="5.4" height="5.4" fill="#22C55E" rx="0.5"/><rect x="170.1" y="225.8" width="5.4" height="5.4" fill="#22C55E" rx="0.5"/><rect x="175.5" y="225.8" width="5.4" height="5.4" fill="#22C55E" rx="0.5"/><rect x="180.9" y="225.8" width="5.4" height="5.4" fill="#22C55E" rx="0.5"/><rect x="186.3" y="225.8" width="5.4" height="5.4" fill="#22C55E" rx="0.5"/><rect x="191.6" y="225.8" width="5.4" height="5.4" fill="#22C55E" rx="0.5"/><rect x="197.0" y="225.8" width="5.4" height="5.4" fill="#22C55E" rx="0.5"/><rect x="202.4" y="225.8" width="5.4" height="5.4" fill="#22C55E" rx="0.5"/><rect x="207.8" y="225.8" width="5.4" height="5.4" fill="#22C55E" rx="0.5"/><rect x="213.1" y="225.8" width="5.4" height="5.4" fill="#22C55E" rx="0.5"/><rect x="218.5" y="225.8" width="5.4" height="5.4" fill="#22C55E" rx="0.5"/><rect x="223.9" y="225.8" width="5.4" height="5.4" fill="#22C55E" rx="0.5"/><rect x="229.3" y="225.8" width="5.4" height="5.4" fill="#22C55E" rx="0.5"/><rect x="234.6" y="225.8" width="5.4" height="5.4" fill="#22C55E" rx="0.5"/><rect x="240.0" y="225.8" width="5.4" height="5.4" fill="#22C55E" rx="0.5"/><rect x="245.4" y="225.8" width="5.4" height="5.4" fill="#22C55E" rx="0.5"/><rect x="250.8" y="225.8" width="5.4" height="5.4" fill="#22C55E" rx="0.5"/><rect x="256.1" y="225.8" width="5.4" height="5.4" fill="#22C55E" rx="0.5"/><rect x="261.5" y="225.8" width="5.4" height="5.4" fill="#22C55E" rx="0.5"/><rect x="266.9" y="225.8" width="5.4" height="5.4" fill="#22C55E" rx="0.5"/><rect x="272.3" y="225.8" width="5.4" height="5.4" fill="#22C55E" rx="0.5"/><rect x="277.6" y="225.8" width="5.4" height="5.4" fill="#22C55E" rx="0.5"/><rect x="283.0" y="225.8" width="5.4" height="5.4" fill="#22C55E" rx="0.5"/><rect x="288.4" y="225.8" width="5.4" height="5.4" fill="#22C55E" rx="0.5"/><rect x="293.8" y="225.8" width="5.4" height="5.4" fill="#22C55E" rx="0.5"/><rect x="299.1" y="225.8" width="5.4" height="5.4" fill="#22C55E" rx="0.5"/><rect x="304.5" y="225.8" width="5.4" height="5.4" fill="#22C55E" rx="0.5"/><rect x="309.9" y="225.8" width="5.4" height="5.4" fill="#22C55E" rx="0.5"/><rect x="315.3" y="225.8" width="5.4" height="5.4" fill="#22C55E" rx="0.5"/><rect x="320.6" y="225.8" width="5.4" height="5.4" fill="#22C55E" rx="0.5"/><rect x="154.0" y="231.1" width="5.4" height="5.4" fill="#22C55E" rx="0.5"/><rect x="159.4" y="231.1" width="5.4" height="5.4" fill="#22C55E" rx="0.5"/><rect x="164.8" y="231.1" width="5.4" height="5.4" fill="#22C55E" rx="0.5"/><rect x="170.1" y="231.1" width="5.4" height="5.4" fill="#22C55E" rx="0.5"/><rect x="175.5" y="231.1" width="5.4" height="5.4" fill="#22C55E" rx="0.5"/><rect x="180.9" y="231.1" width="5.4" height="5.4" fill="#22C55E" rx="0.5"/><rect x="186.3" y="231.1" width="5.4" height="5.4" fill="#22C55E" rx="0.5"/><rect x="191.6" y="231.1" width="5.4" height="5.4" fill="#22C55E" rx="0.5"/><rect x="197.0" y="231.1" width="5.4" height="5.4" fill="#22C55E" rx="0.5"/><rect x="202.4" y="231.1" width="5.4" height="5.4" fill="#22C55E" rx="0.5"/><rect x="207.8" y="231.1" width="5.4" height="5.4" fill="#22C55E" rx="0.5"/><rect x="213.1" y="231.1" width="5.4" height="5.4" fill="#22C55E" rx="0.5"/><rect x="218.5" y="231.1" width="5.4" height="5.4" fill="#22C55E" rx="0.5"/><rect x="223.9" y="231.1" width="5.4" height="5.4" fill="#22C55E" rx="0.5"/><rect x="229.3" y="231.1" width="5.4" height="5.4" fill="#22C55E" rx="0.5"/><rect x="234.6" y="231.1" width="5.4" height="5.4" fill="#22C55E" rx="0.5"/><rect x="240.0" y="231.1" width="5.4" height="5.4" fill="#22C55E" rx="0.5"/><rect x="245.4" y="231.1" width="5.4" height="5.4" fill="#22C55E" rx="0.5"/><rect x="250.8" y="231.1" width="5.4" height="5.4" fill="#22C55E" rx="0.5"/><rect x="256.1" y="231.1" width="5.4" height="5.4" fill="#22C55E" rx="0.5"/><rect x="261.5" y="231.1" width="5.4" height="5.4" fill="#22C55E" rx="0.5"/><rect x="266.9" y="231.1" width="5.4" height="5.4" fill="#22C55E" rx="0.5"/><rect x="272.3" y="231.1" width="5.4" height="5.4" fill="#22C55E" rx="0.5"/><rect x="277.6" y="231.1" width="5.4" height="5.4" fill="#22C55E" rx="0.5"/><rect x="283.0" y="231.1" width="5.4" height="5.4" fill="#22C55E" rx="0.5"/><rect x="288.4" y="231.1" width="5.4" height="5.4" fill="#22C55E" rx="0.5"/><rect x="293.8" y="231.1" width="5.4" height="5.4" fill="#22C55E" rx="0.5"/><rect x="299.1" y="231.1" width="5.4" height="5.4" fill="#22C55E" rx="0.5"/><rect x="304.5" y="231.1" width="5.4" height="5.4" fill="#22C55E" rx="0.5"/><rect x="309.9" y="231.1" width="5.4" height="5.4" fill="#22C55E" rx="0.5"/><rect x="315.3" y="231.1" width="5.4" height="5.4" fill="#22C55E" rx="0.5"/><rect x="320.6" y="231.1" width="5.4" height="5.4" fill="#22C55E" rx="0.5"/><rect x="154.0" y="236.5" width="5.4" height="5.4" fill="#22C55E" rx="0.5"/><rect x="159.4" y="236.5" width="5.4" height="5.4" fill="#22C55E" rx="0.5"/><rect x="164.8" y="236.5" width="5.4" height="5.4" fill="#22C55E" rx="0.5"/><rect x="170.1" y="236.5" width="5.4" height="5.4" fill="#22C55E" rx="0.5"/><rect x="175.5" y="236.5" width="5.4" height="5.4" fill="#22C55E" rx="0.5"/><rect x="180.9" y="236.5" width="5.4" height="5.4" fill="#22C55E" rx="0.5"/><rect x="186.3" y="236.5" width="5.4" height="5.4" fill="#22C55E" rx="0.5"/><rect x="191.6" y="236.5" width="5.4" height="5.4" fill="#22C55E" rx="0.5"/><rect x="197.0" y="236.5" width="5.4" height="5.4" fill="#22C55E" rx="0.5"/><rect x="202.4" y="236.5" width="5.4" height="5.4" fill="#22C55E" rx="0.5"/><rect x="207.8" y="236.5" width="5.4" height="5.4" fill="#22C55E" rx="0.5"/><rect x="213.1" y="236.5" width="5.4" height="5.4" fill="#22C55E" rx="0.5"/><rect x="218.5" y="236.5" width="5.4" height="5.4" fill="#22C55E" rx="0.5"/><rect x="223.9" y="236.5" width="5.4" height="5.4" fill="#22C55E" rx="0.5"/><rect x="229.3" y="236.5" width="5.4" height="5.4" fill="#22C55E" rx="0.5"/><rect x="234.6" y="236.5" width="5.4" height="5.4" fill="#22C55E" rx="0.5"/><rect x="240.0" y="236.5" width="5.4" height="5.4" fill="#22C55E" rx="0.5"/><rect x="245.4" y="236.5" width="5.4" height="5.4" fill="#22C55E" rx="0.5"/><rect x="250.8" y="236.5" width="5.4" height="5.4" fill="#22C55E" rx="0.5"/><rect x="256.1" y="236.5" width="5.4" height="5.4" fill="#22C55E" rx="0.5"/><rect x="261.5" y="236.5" width="5.4" height="5.4" fill="#22C55E" rx="0.5"/><rect x="266.9" y="236.5" width="5.4" height="5.4" fill="#22C55E" rx="0.5"/><rect x="272.3" y="236.5" width="5.4" height="5.4" fill="#22C55E" rx="0.5"/><rect x="277.6" y="236.5" width="5.4" height="5.4" fill="#22C55E" rx="0.5"/><rect x="283.0" y="236.5" width="5.4" height="5.4" fill="#22C55E" rx="0.5"/><rect x="288.4" y="236.5" width="5.4" height="5.4" fill="#22C55E" rx="0.5"/><rect x="293.8" y="236.5" width="5.4" height="5.4" fill="#22C55E" rx="0.5"/><rect x="299.1" y="236.5" width="5.4" height="5.4" fill="#22C55E" rx="0.5"/><rect x="304.5" y="236.5" width="5.4" height="5.4" fill="#22C55E" rx="0.5"/><rect x="309.9" y="236.5" width="5.4" height="5.4" fill="#22C55E" rx="0.5"/><rect x="315.3" y="236.5" width="5.4" height="5.4" fill="#22C55E" rx="0.5"/><rect x="320.6" y="236.5" width="5.4" height="5.4" fill="#22C55E" rx="0.5"/><rect x="154.0" y="241.9" width="5.4" height="5.4" fill="#22C55E" rx="0.5"/><rect x="159.4" y="241.9" width="5.4" height="5.4" fill="#22C55E" rx="0.5"/><rect x="164.8" y="241.9" width="5.4" height="5.4" fill="#22C55E" rx="0.5"/><rect x="170.1" y="241.9" width="5.4" height="5.4" fill="#22C55E" rx="0.5"/><rect x="175.5" y="241.9" width="5.4" height="5.4" fill="#22C55E" rx="0.5"/><rect x="180.9" y="241.9" width="5.4" height="5.4" fill="#22C55E" rx="0.5"/><rect x="186.3" y="241.9" width="5.4" height="5.4" fill="#22C55E" rx="0.5"/><rect x="191.6" y="241.9" width="5.4" height="5.4" fill="#22C55E" rx="0.5"/><rect x="197.0" y="241.9" width="5.4" height="5.4" fill="#22C55E" rx="0.5"/><rect x="202.4" y="241.9" width="5.4" height="5.4" fill="#22C55E" rx="0.5"/><rect x="207.8" y="241.9" width="5.4" height="5.4" fill="#22C55E" rx="0.5"/><rect x="213.1" y="241.9" width="5.4" height="5.4" fill="#22C55E" rx="0.5"/><rect x="218.5" y="241.9" width="5.4" height="5.4" fill="#22C55E" rx="0.5"/><rect x="223.9" y="241.9" width="5.4" height="5.4" fill="#22C55E" rx="0.5"/><rect x="229.3" y="241.9" width="5.4" height="5.4" fill="#22C55E" rx="0.5"/><rect x="234.6" y="241.9" width="5.4" height="5.4" fill="#22C55E" rx="0.5"/><rect x="240.0" y="241.9" width="5.4" height="5.4" fill="#22C55E" rx="0.5"/><rect x="245.4" y="241.9" width="5.4" height="5.4" fill="#22C55E" rx="0.5"/><rect x="250.8" y="241.9" width="5.4" height="5.4" fill="#22C55E" rx="0.5"/><rect x="256.1" y="241.9" width="5.4" height="5.4" fill="#22C55E" rx="0.5"/><rect x="261.5" y="241.9" width="5.4" height="5.4" fill="#22C55E" rx="0.5"/><rect x="266.9" y="241.9" width="5.4" height="5.4" fill="#22C55E" rx="0.5"/><rect x="272.3" y="241.9" width="5.4" height="5.4" fill="#22C55E" rx="0.5"/><rect x="277.6" y="241.9" width="5.4" height="5.4" fill="#22C55E" rx="0.5"/><rect x="283.0" y="241.9" width="5.4" height="5.4" fill="#22C55E" rx="0.5"/><rect x="288.4" y="241.9" width="5.4" height="5.4" fill="#22C55E" rx="0.5"/><rect x="293.8" y="241.9" width="5.4" height="5.4" fill="#22C55E" rx="0.5"/><rect x="299.1" y="241.9" width="5.4" height="5.4" fill="#22C55E" rx="0.5"/><rect x="304.5" y="241.9" width="5.4" height="5.4" fill="#22C55E" rx="0.5"/><rect x="309.9" y="241.9" width="5.4" height="5.4" fill="#22C55E" rx="0.5"/><rect x="315.3" y="241.9" width="5.4" height="5.4" fill="#22C55E" rx="0.5"/><rect x="320.6" y="241.9" width="5.4" height="5.4" fill="#22C55E" rx="0.5"/><rect x="154.0" y="247.3" width="5.4" height="5.4" fill="#22C55E" rx="0.5"/><rect x="159.4" y="247.3" width="5.4" height="5.4" fill="#22C55E" rx="0.5"/><rect x="164.8" y="247.3" width="5.4" height="5.4" fill="#22C55E" rx="0.5"/><rect x="170.1" y="247.3" width="5.4" height="5.4" fill="#22C55E" rx="0.5"/><rect x="175.5" y="247.3" width="5.4" height="5.4" fill="#22C55E" rx="0.5"/><rect x="180.9" y="247.3" width="5.4" height="5.4" fill="#22C55E" rx="0.5"/><rect x="186.3" y="247.3" width="5.4" height="5.4" fill="#22C55E" rx="0.5"/><rect x="191.6" y="247.3" width="5.4" height="5.4" fill="#22C55E" rx="0.5"/><rect x="197.0" y="247.3" width="5.4" height="5.4" fill="#22C55E" rx="0.5"/><rect x="202.4" y="247.3" width="5.4" height="5.4" fill="#22C55E" rx="0.5"/><rect x="207.8" y="247.3" width="5.4" height="5.4" fill="#22C55E" rx="0.5"/><rect x="213.1" y="247.3" width="5.4" height="5.4" fill="#22C55E" rx="0.5"/><rect x="218.5" y="247.3" width="5.4" height="5.4" fill="#22C55E" rx="0.5"/><rect x="223.9" y="247.3" width="5.4" height="5.4" fill="#22C55E" rx="0.5"/><rect x="229.3" y="247.3" width="5.4" height="5.4" fill="#22C55E" rx="0.5"/><rect x="234.6" y="247.3" width="5.4" height="5.4" fill="#22C55E" rx="0.5"/><rect x="240.0" y="247.3" width="5.4" height="5.4" fill="#22C55E" rx="0.5"/><rect x="245.4" y="247.3" width="5.4" height="5.4" fill="#22C55E" rx="0.5"/><rect x="250.8" y="247.3" width="5.4" height="5.4" fill="#22C55E" rx="0.5"/><rect x="256.1" y="247.3" width="5.4" height="5.4" fill="#22C55E" rx="0.5"/><rect x="261.5" y="247.3" width="5.4" height="5.4" fill="#22C55E" rx="0.5"/><rect x="266.9" y="247.3" width="5.4" height="5.4" fill="#22C55E" rx="0.5"/><rect x="272.3" y="247.3" width="5.4" height="5.4" fill="#22C55E" rx="0.5"/><rect x="277.6" y="247.3" width="5.4" height="5.4" fill="#22C55E" rx="0.5"/><rect x="283.0" y="247.3" width="5.4" height="5.4" fill="#22C55E" rx="0.5"/><rect x="288.4" y="247.3" width="5.4" height="5.4" fill="#22C55E" rx="0.5"/><rect x="293.8" y="247.3" width="5.4" height="5.4" fill="#22C55E" rx="0.5"/><rect x="299.1" y="247.3" width="5.4" height="5.4" fill="#22C55E" rx="0.5"/><rect x="304.5" y="247.3" width="5.4" height="5.4" fill="#22C55E" rx="0.5"/><rect x="309.9" y="247.3" width="5.4" height="5.4" fill="#22C55E" rx="0.5"/><rect x="315.3" y="247.3" width="5.4" height="5.4" fill="#22C55E" rx="0.5"/><rect x="320.6" y="247.3" width="5.4" height="5.4" fill="#22C55E" rx="0.5"/><rect x="154.0" y="252.6" width="5.4" height="5.4" fill="#22C55E" rx="0.5"/><rect x="159.4" y="252.6" width="5.4" height="5.4" fill="#22C55E" rx="0.5"/><rect x="164.8" y="252.6" width="5.4" height="5.4" fill="#22C55E" rx="0.5"/><rect x="170.1" y="252.6" width="5.4" height="5.4" fill="#22C55E" rx="0.5"/><rect x="175.5" y="252.6" width="5.4" height="5.4" fill="#22C55E" rx="0.5"/><rect x="180.9" y="252.6" width="5.4" height="5.4" fill="#22C55E" rx="0.5"/><rect x="186.3" y="252.6" width="5.4" height="5.4" fill="#22C55E" rx="0.5"/><rect x="191.6" y="252.6" width="5.4" height="5.4" fill="#22C55E" rx="0.5"/><rect x="197.0" y="252.6" width="5.4" height="5.4" fill="#22C55E" rx="0.5"/><rect x="202.4" y="252.6" width="5.4" height="5.4" fill="#22C55E" rx="0.5"/><rect x="207.8" y="252.6" width="5.4" height="5.4" fill="#22C55E" rx="0.5"/><rect x="213.1" y="252.6" width="5.4" height="5.4" fill="#22C55E" rx="0.5"/><rect x="218.5" y="252.6" width="5.4" height="5.4" fill="#22C55E" rx="0.5"/><rect x="223.9" y="252.6" width="5.4" height="5.4" fill="#22C55E" rx="0.5"/><rect x="229.3" y="252.6" width="5.4" height="5.4" fill="#22C55E" rx="0.5"/><rect x="234.6" y="252.6" width="5.4" height="5.4" fill="#22C55E" rx="0.5"/><rect x="240.0" y="252.6" width="5.4" height="5.4" fill="#22C55E" rx="0.5"/><rect x="245.4" y="252.6" width="5.4" height="5.4" fill="#22C55E" rx="0.5"/><rect x="250.8" y="252.6" width="5.4" height="5.4" fill="#22C55E" rx="0.5"/><rect x="256.1" y="252.6" width="5.4" height="5.4" fill="#22C55E" rx="0.5"/><rect x="261.5" y="252.6" width="5.4" height="5.4" fill="#22C55E" rx="0.5"/><rect x="266.9" y="252.6" width="5.4" height="5.4" fill="#22C55E" rx="0.5"/><rect x="272.3" y="252.6" width="5.4" height="5.4" fill="#22C55E" rx="0.5"/><rect x="277.6" y="252.6" width="5.4" height="5.4" fill="#22C55E" rx="0.5"/><rect x="283.0" y="252.6" width="5.4" height="5.4" fill="#22C55E" rx="0.5"/><rect x="288.4" y="252.6" width="5.4" height="5.4" fill="#22C55E" rx="0.5"/><rect x="293.8" y="252.6" width="5.4" height="5.4" fill="#22C55E" rx="0.5"/><rect x="299.1" y="252.6" width="5.4" height="5.4" fill="#22C55E" rx="0.5"/><rect x="304.5" y="252.6" width="5.4" height="5.4" fill="#22C55E" rx="0.5"/><rect x="309.9" y="252.6" width="5.4" height="5.4" fill="#22C55E" rx="0.5"/><rect x="315.3" y="252.6" width="5.4" height="5.4" fill="#22C55E" rx="0.5"/><rect x="320.6" y="252.6" width="5.4" height="5.4" fill="#22C55E" rx="0.5"/>
  <rect x="390" y="20" width="70" height="22" rx="11" fill="#ff3b30"/>
  <text x="425" y="35" font-family="-apple-system, sans-serif" font-size="11" font-weight="600" fill="#ffffff" text-anchor="middle">HARD</text>
  <text x="240" y="286" font-family="-apple-system, 'PingFang SC', sans-serif" font-size="16" font-weight="600" fill="#1d1d1f" text-anchor="middle">3D 立体城堡</text>
  <text x="240" y="304" font-family="-apple-system, sans-serif" font-size="11" font-weight="400" fill="#86868b" text-anchor="middle">557 beads · 32×32</text>
</svg>
