<?xml version="1.0" encoding="UTF-8"?>
<svg xmlns="http://www.w3.org/2000/svg" viewBox="0 0 480 360" width="480" height="360">
  
    <defs>
      <linearGradient id="bg" x1="0" y1="0" x2="1" y2="1">
        <stop offset="0%" stop-color="#1E1B4B" stop-opacity="0.15"/>
        <stop offset="100%" stop-color="#7C3AED" stop-opacity="0.25"/>
      </linearGradient>
      <linearGradient id="card" x1="0" y1="0" x2="0" y2="1">
        <stop offset="0%" stop-color="#ffffff"/>
        <stop offset="100%" stop-color="#f8f9fa"/>
      </linearGradient>
      <filter id="shadow" x="-20%" y="-20%" width="140%" height="140%">
        <feDropShadow dx="0" dy="4" stdDeviation="6" flood-opacity="0.15"/>
      </filter>
    </defs>
  
  <rect width="480" height="360" fill="url(#bg)" />
  <rect x="381" y="336" width="6" height="6" rx="1" fill="#0EA5E9" opacity="0.20" /><rect x="104" y="144" width="6" height="6" rx="1" fill="#F97316" opacity="0.30" /><rect x="266" y="48" width="8" height="8" rx="1" fill="#0EA5E9" opacity="0.15" /><rect x="429" y="272" width="4" height="4" rx="1" fill="#1E1B4B" opacity="0.25" /><rect x="152" y="81" width="4" height="4" rx="1" fill="#0EA5E9" opacity="0.10" /><rect x="315" y="305" width="6" height="6" rx="1" fill="#1E1B4B" opacity="0.20" /><rect x="38" y="113" width="6" height="6" rx="1" fill="#0EA5E9" opacity="0.30" /><rect x="200" y="338" width="8" height="8" rx="1" fill="#1E1B4B" opacity="0.15" /><rect x="363" y="242" width="4" height="4" rx="1" fill="#F97316" opacity="0.25" /><rect x="86" y="50" width="4" height="4" rx="1" fill="#1E1B4B" opacity="0.10" /><rect x="249" y="275" width="6" height="6" rx="1" fill="#F97316" opacity="0.20" /><rect x="412" y="179" width="8" height="8" rx="1" fill="#0EA5E9" opacity="0.30" />
  <rect x="64" y="12" width="352" height="296" rx="12" fill="url(#card)" filter="url(#shadow)" />
  <rect x="114" y="20" width="14" height="14" rx="2" fill="#1E1B4B" /><rect x="128" y="20" width="14" height="14" rx="2" fill="#1E1B4B" /><rect x="142" y="20" width="14" height="14" rx="2" fill="#1E1B4B" /><rect x="156" y="20" width="14" height="14" rx="2" fill="#1E1B4B" /><rect x="170" y="20" width="14" height="14" rx="2" fill="#1E1B4B" /><rect x="184" y="20" width="14" height="14" rx="2" fill="#1E1B4B" /><rect x="198" y="20" width="14" height="14" rx="2" fill="#1E1B4B" /><rect x="212" y="20" width="14" height="14" rx="2" fill="#1E1B4B" /><rect x="226" y="20" width="14" height="14" rx="2" fill="#1E1B4B" /><rect x="240" y="20" width="14" height="14" rx="2" fill="#1E1B4B" /><rect x="254" y="20" width="14" height="14" rx="2" fill="#1E1B4B" /><rect x="268" y="20" width="14" height="14" rx="2" fill="#1E1B4B" /><rect x="282" y="20" width="14" height="14" rx="2" fill="#1E1B4B" /><rect x="296" y="20" width="14" height="14" rx="2" fill="#1E1B4B" /><rect x="310" y="20" width="14" height="14" rx="2" fill="#1E1B4B" /><rect x="324" y="20" width="14" height="14" rx="2" fill="#1E1B4B" /><rect x="338" y="20" width="14" height="14" rx="2" fill="#1E1B4B" /><rect x="352" y="20" width="14" height="14" rx="2" fill="#1E1B4B" /><rect x="100" y="34" width="14" height="14" rx="2" fill="#1E1B4B" /><rect x="114" y="34" width="14" height="14" rx="2" fill="#1E1B4B" /><rect x="128" y="34" width="14" height="14" rx="2" fill="#1E1B4B" /><rect x="142" y="34" width="14" height="14" rx="2" fill="#1E1B4B" /><rect x="156" y="34" width="14" height="14" rx="2" fill="#1E1B4B" /><rect x="170" y="34" width="14" height="14" rx="2" fill="#1E1B4B" /><rect x="184" y="34" width="14" height="14" rx="2" fill="#1E1B4B" /><rect x="198" y="34" width="14" height="14" rx="2" fill="#1E1B4B" /><rect x="212" y="34" width="14" height="14" rx="2" fill="#1E1B4B" /><rect x="226" y="34" width="14" height="14" rx="2" fill="#1E1B4B" /><rect x="240" y="34" width="14" height="14" rx="2" fill="#1E1B4B" /><rect x="254" y="34" width="14" height="14" rx="2" fill="#1E1B4B" /><rect x="268" y="34" width="14" height="14" rx="2" fill="#1E1B4B" /><rect x="282" y="34" width="14" height="14" rx="2" fill="#1E1B4B" /><rect x="296" y="34" width="14" height="14" rx="2" fill="#1E1B4B" /><rect x="310" y="34" width="14" height="14" rx="2" fill="#1E1B4B" /><rect x="324" y="34" width="14" height="14" rx="2" fill="#1E1B4B" /><rect x="338" y="34" width="14" height="14" rx="2" fill="#1E1B4B" /><rect x="352" y="34" width="14" height="14" rx="2" fill="#1E1B4B" /><rect x="366" y="34" width="14" height="14" rx="2" fill="#1E1B4B" /><rect x="86" y="48" width="14" height="14" rx="2" fill="#1E1B4B" /><rect x="100" y="48" width="14" height="14" rx="2" fill="#1E1B4B" /><rect x="114" y="48" width="14" height="14" rx="2" fill="#1E1B4B" /><rect x="128" y="48" width="14" height="14" rx="2" fill="#1E1B4B" /><rect x="142" y="48" width="14" height="14" rx="2" fill="#1E1B4B" /><rect x="156" y="48" width="14" height="14" rx="2" fill="#7C3AED" /><rect x="170" y="48" width="14" height="14" rx="2" fill="#7C3AED" /><rect x="184" y="48" width="14" height="14" rx="2" fill="#7C3AED" /><rect x="198" y="48" width="14" height="14" rx="2" fill="#7C3AED" /><rect x="212" y="48" width="14" height="14" rx="2" fill="#7C3AED" /><rect x="226" y="48" width="14" height="14" rx="2" fill="#7C3AED" /><rect x="240" y="48" width="14" height="14" rx="2" fill="#7C3AED" /><rect x="254" y="48" width="14" height="14" rx="2" fill="#7C3AED" /><rect x="268" y="48" width="14" height="14" rx="2" fill="#7C3AED" /><rect x="282" y="48" width="14" height="14" rx="2" fill="#1E1B4B" /><rect x="296" y="48" width="14" height="14" rx="2" fill="#1E1B4B" /><rect x="310" y="48" width="14" height="14" rx="2" fill="#1E1B4B" /><rect x="324" y="48" width="14" height="14" rx="2" fill="#1E1B4B" /><rect x="338" y="48" width="14" height="14" rx="2" fill="#1E1B4B" /><rect x="352" y="48" width="14" height="14" rx="2" fill="#1E1B4B" /><rect x="366" y="48" width="14" height="14" rx="2" fill="#1E1B4B" /><rect x="380" y="48" width="14" height="14" rx="2" fill="#1E1B4B" /><rect x="86" y="62" width="14" height="14" rx="2" fill="#1E1B4B" /><rect x="100" y="62" width="14" height="14" rx="2" fill="#1E1B4B" /><rect x="114" y="62" width="14" height="14" rx="2" fill="#1E1B4B" /><rect x="128" y="62" width="14" height="14" rx="2" fill="#7C3AED" /><rect x="142" y="62" width="14" height="14" rx="2" fill="#7C3AED" /><rect x="156" y="62" width="14" height="14" rx="2" fill="#7C3AED" /><rect x="170" y="62" width="14" height="14" rx="2" fill="#7C3AED" /><rect x="184" y="62" width="14" height="14" rx="2" fill="#7C3AED" /><rect x="198" y="62" width="14" height="14" rx="2" fill="#7C3AED" /><rect x="212" y="62" width="14" height="14" rx="2" fill="#7C3AED" /><rect x="226" y="62" width="14" height="14" rx="2" fill="#7C3AED" /><rect x="240" y="62" width="14" height="14" rx="2" fill="#7C3AED" /><rect x="254" y="62" width="14" height="14" rx="2" fill="#7C3AED" /><rect x="268" y="62" width="14" height="14" rx="2" fill="#7C3AED" /><rect x="282" y="62" width="14" height="14" rx="2" fill="#7C3AED" /><rect x="296" y="62" width="14" height="14" rx="2" fill="#7C3AED" /><rect x="310" y="62" width="14" height="14" rx="2" fill="#1E1B4B" /><rect x="324" y="62" width="14" height="14" rx="2" fill="#1E1B4B" /><rect x="338" y="62" width="14" height="14" rx="2" fill="#1E1B4B" /><rect x="352" y="62" width="14" height="14" rx="2" fill="#1E1B4B" /><rect x="366" y="62" width="14" height="14" rx="2" fill="#1E1B4B" /><rect x="380" y="62" width="14" height="14" rx="2" fill="#1E1B4B" /><rect x="72" y="76" width="14" height="14" rx="2" fill="#1E1B4B" /><rect x="86" y="76" width="14" height="14" rx="2" fill="#1E1B4B" /><rect x="100" y="76" width="14" height="14" rx="2" fill="#1E1B4B" /><rect x="114" y="76" width="14" height="14" rx="2" fill="#7C3AED" /><rect x="128" y="76" width="14" height="14" rx="2" fill="#7C3AED" /><rect x="142" y="76" width="14" height="14" rx="2" fill="#7C3AED" /><rect x="156" y="76" width="14" height="14" rx="2" fill="#7C3AED" /><rect x="170" y="76" width="14" height="14" rx="2" fill="#7C3AED" /><rect x="184" y="76" width="14" height="14" rx="2" fill="#F97316" /><rect x="198" y="76" width="14" height="14" rx="2" fill="#F97316" /><rect x="212" y="76" width="14" height="14" rx="2" fill="#F97316" /><rect x="226" y="76" width="14" height="14" rx="2" fill="#F97316" /><rect x="240" y="76" width="14" height="14" rx="2" fill="#F97316" /><rect x="254" y="76" width="14" height="14" rx="2" fill="#7C3AED" /><rect x="268" y="76" width="14" height="14" rx="2" fill="#7C3AED" /><rect x="282" y="76" width="14" height="14" rx="2" fill="#7C3AED" /><rect x="296" y="76" width="14" height="14" rx="2" fill="#7C3AED" /><rect x="310" y="76" width="14" height="14" rx="2" fill="#7C3AED" /><rect x="324" y="76" width="14" height="14" rx="2" fill="#1E1B4B" /><rect x="338" y="76" width="14" height="14" rx="2" fill="#1E1B4B" /><rect x="352" y="76" width="14" height="14" rx="2" fill="#1E1B4B" /><rect x="366" y="76" width="14" height="14" rx="2" fill="#1E1B4B" /><rect x="380" y="76" width="14" height="14" rx="2" fill="#1E1B4B" /><rect x="394" y="76" width="14" height="14" rx="2" fill="#1E1B4B" /><rect x="72" y="90" width="14" height="14" rx="2" fill="#1E1B4B" /><rect x="86" y="90" width="14" height="14" rx="2" fill="#1E1B4B" /><rect x="100" y="90" width="14" height="14" rx="2" fill="#7C3AED" /><rect x="114" y="90" width="14" height="14" rx="2" fill="#7C3AED" /><rect x="128" y="90" width="14" height="14" rx="2" fill="#7C3AED" /><rect x="142" y="90" width="14" height="14" rx="2" fill="#7C3AED" /><rect x="156" y="90" width="14" height="14" rx="2" fill="#F97316" /><rect x="170" y="90" width="14" height="14" rx="2" fill="#F97316" /><rect x="184" y="90" width="14" height="14" rx="2" fill="#F97316" /><rect x="198" y="90" width="14" height="14" rx="2" fill="#F97316" /><rect x="212" y="90" width="14" height="14" rx="2" fill="#F97316" /><rect x="226" y="90" width="14" height="14" rx="2" fill="#F97316" /><rect x="240" y="90" width="14" height="14" rx="2" fill="#F97316" /><rect x="254" y="90" width="14" height="14" rx="2" fill="#F97316" /><rect x="268" y="90" width="14" height="14" rx="2" fill="#F97316" /><rect x="282" y="90" width="14" height="14" rx="2" fill="#7C3AED" /><rect x="296" y="90" width="14" height="14" rx="2" fill="#7C3AED" /><rect x="310" y="90" width="14" height="14" rx="2" fill="#7C3AED" /><rect x="324" y="90" width="14" height="14" rx="2" fill="#7C3AED" /><rect x="338" y="90" width="14" height="14" rx="2" fill="#1E1B4B" /><rect x="352" y="90" width="14" height="14" rx="2" fill="#1E1B4B" /><rect x="366" y="90" width="14" height="14" rx="2" fill="#1E1B4B" /><rect x="380" y="90" width="14" height="14" rx="2" fill="#1E1B4B" /><rect x="394" y="90" width="14" height="14" rx="2" fill="#1E1B4B" /><rect x="72" y="104" width="14" height="14" rx="2" fill="#1E1B4B" /><rect x="86" y="104" width="14" height="14" rx="2" fill="#1E1B4B" /><rect x="100" y="104" width="14" height="14" rx="2" fill="#7C3AED" /><rect x="114" y="104" width="14" height="14" rx="2" fill="#7C3AED" /><rect x="128" y="104" width="14" height="14" rx="2" fill="#7C3AED" /><rect x="142" y="104" width="14" height="14" rx="2" fill="#F97316" /><rect x="156" y="104" width="14" height="14" rx="2" fill="#F97316" /><rect x="170" y="104" width="14" height="14" rx="2" fill="#F97316" /><rect x="184" y="104" width="14" height="14" rx="2" fill="#F97316" /><rect x="198" y="104" width="14" height="14" rx="2" fill="#F97316" /><rect x="212" y="104" width="14" height="14" rx="2" fill="#F97316" /><rect x="226" y="104" width="14" height="14" rx="2" fill="#F97316" /><rect x="240" y="104" width="14" height="14" rx="2" fill="#F97316" /><rect x="254" y="104" width="14" height="14" rx="2" fill="#F97316" /><rect x="268" y="104" width="14" height="14" rx="2" fill="#F97316" /><rect x="282" y="104" width="14" height="14" rx="2" fill="#F97316" /><rect x="296" y="104" width="14" height="14" rx="2" fill="#F97316" /><rect x="310" y="104" width="14" height="14" rx="2" fill="#7C3AED" /><rect x="324" y="104" width="14" height="14" rx="2" fill="#7C3AED" /><rect x="338" y="104" width="14" height="14" rx="2" fill="#7C3AED" /><rect x="352" y="104" width="14" height="14" rx="2" fill="#1E1B4B" /><rect x="366" y="104" width="14" height="14" rx="2" fill="#1E1B4B" /><rect x="380" y="104" width="14" height="14" rx="2" fill="#1E1B4B" /><rect x="394" y="104" width="14" height="14" rx="2" fill="#1E1B4B" /><rect x="72" y="118" width="14" height="14" rx="2" fill="#1E1B4B" /><rect x="86" y="118" width="14" height="14" rx="2" fill="#1E1B4B" /><rect x="100" y="118" width="14" height="14" rx="2" fill="#7C3AED" /><rect x="114" y="118" width="14" height="14" rx="2" fill="#7C3AED" /><rect x="128" y="118" width="14" height="14" rx="2" fill="#F97316" /><rect x="142" y="118" width="14" height="14" rx="2" fill="#F97316" /><rect x="156" y="118" width="14" height="14" rx="2" fill="#F97316" /><rect x="170" y="118" width="14" height="14" rx="2" fill="#F97316" /><rect x="184" y="118" width="14" height="14" rx="2" fill="#F97316" /><rect x="198" y="118" width="14" height="14" rx="2" fill="#FBBF24" /><rect x="212" y="118" width="14" height="14" rx="2" fill="#FBBF24" /><rect x="226" y="118" width="14" height="14" rx="2" fill="#F97316" /><rect x="240" y="118" width="14" height="14" rx="2" fill="#F97316" /><rect x="254" y="118" width="14" height="14" rx="2" fill="#F97316" /><rect x="268" y="118" width="14" height="14" rx="2" fill="#F97316" /><rect x="282" y="118" width="14" height="14" rx="2" fill="#F97316" /><rect x="296" y="118" width="14" height="14" rx="2" fill="#F97316" /><rect x="310" y="118" width="14" height="14" rx="2" fill="#F97316" /><rect x="324" y="118" width="14" height="14" rx="2" fill="#7C3AED" /><rect x="338" y="118" width="14" height="14" rx="2" fill="#7C3AED" /><rect x="352" y="118" width="14" height="14" rx="2" fill="#1E1B4B" /><rect x="366" y="118" width="14" height="14" rx="2" fill="#1E1B4B" /><rect x="380" y="118" width="14" height="14" rx="2" fill="#1E1B4B" /><rect x="394" y="118" width="14" height="14" rx="2" fill="#1E1B4B" /><rect x="72" y="132" width="14" height="14" rx="2" fill="#1E1B4B" /><rect x="86" y="132" width="14" height="14" rx="2" fill="#1E1B4B" /><rect x="100" y="132" width="14" height="14" rx="2" fill="#1E1B4B" /><rect x="114" y="132" width="14" height="14" rx="2" fill="#7C3AED" /><rect x="128" y="132" width="14" height="14" rx="2" fill="#F97316" /><rect x="142" y="132" width="14" height="14" rx="2" fill="#F97316" /><rect x="156" y="132" width="14" height="14" rx="2" fill="#F97316" /><rect x="170" y="132" width="14" height="14" rx="2" fill="#F97316" /><rect x="184" y="132" width="14" height="14" rx="2" fill="#FBBF24" /><rect x="198" y="132" width="14" height="14" rx="2" fill="#FBBF24" /><rect x="212" y="132" width="14" height="14" rx="2" fill="#FBBF24" /><rect x="226" y="132" width="14" height="14" rx="2" fill="#FBBF24" /><rect x="240" y="132" width="14" height="14" rx="2" fill="#F97316" /><rect x="254" y="132" width="14" height="14" rx="2" fill="#F97316" /><rect x="268" y="132" width="14" height="14" rx="2" fill="#F97316" /><rect x="282" y="132" width="14" height="14" rx="2" fill="#F97316" /><rect x="296" y="132" width="14" height="14" rx="2" fill="#F97316" /><rect x="310" y="132" width="14" height="14" rx="2" fill="#7C3AED" /><rect x="324" y="132" width="14" height="14" rx="2" fill="#7C3AED" /><rect x="338" y="132" width="14" height="14" rx="2" fill="#1E1B4B" /><rect x="352" y="132" width="14" height="14" rx="2" fill="#1E1B4B" /><rect x="366" y="132" width="14" height="14" rx="2" fill="#1E1B4B" /><rect x="380" y="132" width="14" height="14" rx="2" fill="#1E1B4B" /><rect x="394" y="132" width="14" height="14" rx="2" fill="#1E1B4B" /><rect x="72" y="146" width="14" height="14" rx="2" fill="#1E1B4B" /><rect x="86" y="146" width="14" height="14" rx="2" fill="#1E1B4B" /><rect x="100" y="146" width="14" height="14" rx="2" fill="#1E1B4B" /><rect x="114" y="146" width="14" height="14" rx="2" fill="#7C3AED" /><rect x="128" y="146" width="14" height="14" rx="2" fill="#F97316" /><rect x="142" y="146" width="14" height="14" rx="2" fill="#F97316" /><rect x="156" y="146" width="14" height="14" rx="2" fill="#F97316" /><rect x="170" y="146" width="14" height="14" rx="2" fill="#F97316" /><rect x="184" y="146" width="14" height="14" rx="2" fill="#F97316" /><rect x="198" y="146" width="14" height="14" rx="2" fill="#FBBF24" /><rect x="212" y="146" width="14" height="14" rx="2" fill="#F97316" /><rect x="226" y="146" width="14" height="14" rx="2" fill="#F97316" /><rect x="240" y="146" width="14" height="14" rx="2" fill="#F97316" /><rect x="254" y="146" width="14" height="14" rx="2" fill="#F97316" /><rect x="268" y="146" width="14" height="14" rx="2" fill="#F97316" /><rect x="282" y="146" width="14" height="14" rx="2" fill="#F97316" /><rect x="296" y="146" width="14" height="14" rx="2" fill="#7C3AED" /><rect x="310" y="146" width="14" height="14" rx="2" fill="#7C3AED" /><rect x="324" y="146" width="14" height="14" rx="2" fill="#7C3AED" /><rect x="338" y="146" width="14" height="14" rx="2" fill="#1E1B4B" /><rect x="352" y="146" width="14" height="14" rx="2" fill="#1E1B4B" /><rect x="366" y="146" width="14" height="14" rx="2" fill="#1E1B4B" /><rect x="380" y="146" width="14" height="14" rx="2" fill="#1E1B4B" /><rect x="394" y="146" width="14" height="14" rx="2" fill="#1E1B4B" /><rect x="72" y="160" width="14" height="14" rx="2" fill="#1E1B4B" /><rect x="86" y="160" width="14" height="14" rx="2" fill="#1E1B4B" /><rect x="100" y="160" width="14" height="14" rx="2" fill="#1E1B4B" /><rect x="114" y="160" width="14" height="14" rx="2" fill="#7C3AED" /><rect x="128" y="160" width="14" height="14" rx="2" fill="#7C3AED" /><rect x="142" y="160" width="14" height="14" rx="2" fill="#F97316" /><rect x="156" y="160" width="14" height="14" rx="2" fill="#F97316" /><rect x="170" y="160" width="14" height="14" rx="2" fill="#F97316" /><rect x="184" y="160" width="14" height="14" rx="2" fill="#F97316" /><rect x="198" y="160" width="14" height="14" rx="2" fill="#F97316" /><rect x="212" y="160" width="14" height="14" rx="2" fill="#F97316" /><rect x="226" y="160" width="14" height="14" rx="2" fill="#F97316" /><rect x="240" y="160" width="14" height="14" rx="2" fill="#F97316" /><rect x="254" y="160" width="14" height="14" rx="2" fill="#F97316" /><rect x="268" y="160" width="14" height="14" rx="2" fill="#F97316" /><rect x="282" y="160" width="14" height="14" rx="2" fill="#7C3AED" /><rect x="296" y="160" width="14" height="14" rx="2" fill="#7C3AED" /><rect x="310" y="160" width="14" height="14" rx="2" fill="#7C3AED" /><rect x="324" y="160" width="14" height="14" rx="2" fill="#1E1B4B" /><rect x="338" y="160" width="14" height="14" rx="2" fill="#1E1B4B" /><rect x="352" y="160" width="14" height="14" rx="2" fill="#1E1B4B" /><rect x="366" y="160" width="14" height="14" rx="2" fill="#1E1B4B" /><rect x="380" y="160" width="14" height="14" rx="2" fill="#1E1B4B" /><rect x="394" y="160" width="14" height="14" rx="2" fill="#1E1B4B" /><rect x="72" y="174" width="14" height="14" rx="2" fill="#1E1B4B" /><rect x="86" y="174" width="14" height="14" rx="2" fill="#1E1B4B" /><rect x="100" y="174" width="14" height="14" rx="2" fill="#1E1B4B" /><rect x="114" y="174" width="14" height="14" rx="2" fill="#1E1B4B" /><rect x="128" y="174" width="14" height="14" rx="2" fill="#7C3AED" /><rect x="142" y="174" width="14" height="14" rx="2" fill="#7C3AED" /><rect x="156" y="174" width="14" height="14" rx="2" fill="#7C3AED" /><rect x="170" y="174" width="14" height="14" rx="2" fill="#F97316" /><rect x="184" y="174" width="14" height="14" rx="2" fill="#F97316" /><rect x="198" y="174" width="14" height="14" rx="2" fill="#F97316" /><rect x="212" y="174" width="14" height="14" rx="2" fill="#F97316" /><rect x="226" y="174" width="14" height="14" rx="2" fill="#F97316" /><rect x="240" y="174" width="14" height="14" rx="2" fill="#F97316" /><rect x="254" y="174" width="14" height="14" rx="2" fill="#7C3AED" /><rect x="268" y="174" width="14" height="14" rx="2" fill="#7C3AED" /><rect x="282" y="174" width="14" height="14" rx="2" fill="#7C3AED" /><rect x="296" y="174" width="14" height="14" rx="2" fill="#7C3AED" /><rect x="310" y="174" width="14" height="14" rx="2" fill="#1E1B4B" /><rect x="324" y="174" width="14" height="14" rx="2" fill="#1E1B4B" /><rect x="338" y="174" width="14" height="14" rx="2" fill="#1E1B4B" /><rect x="352" y="174" width="14" height="14" rx="2" fill="#1E1B4B" /><rect x="366" y="174" width="14" height="14" rx="2" fill="#1E1B4B" /><rect x="380" y="174" width="14" height="14" rx="2" fill="#1E1B4B" /><rect x="394" y="174" width="14" height="14" rx="2" fill="#1E1B4B" /><rect x="72" y="188" width="14" height="14" rx="2" fill="#1E1B4B" /><rect x="86" y="188" width="14" height="14" rx="2" fill="#1E1B4B" /><rect x="100" y="188" width="14" height="14" rx="2" fill="#1E1B4B" /><rect x="114" y="188" width="14" height="14" rx="2" fill="#1E1B4B" /><rect x="128" y="188" width="14" height="14" rx="2" fill="#1E1B4B" /><rect x="142" y="188" width="14" height="14" rx="2" fill="#7C3AED" /><rect x="156" y="188" width="14" height="14" rx="2" fill="#7C3AED" /><rect x="170" y="188" width="14" height="14" rx="2" fill="#7C3AED" /><rect x="184" y="188" width="14" height="14" rx="2" fill="#7C3AED" /><rect x="198" y="188" width="14" height="14" rx="2" fill="#7C3AED" /><rect x="212" y="188" width="14" height="14" rx="2" fill="#7C3AED" /><rect x="226" y="188" width="14" height="14" rx="2" fill="#7C3AED" /><rect x="240" y="188" width="14" height="14" rx="2" fill="#7C3AED" /><rect x="254" y="188" width="14" height="14" rx="2" fill="#7C3AED" /><rect x="268" y="188" width="14" height="14" rx="2" fill="#7C3AED" /><rect x="282" y="188" width="14" height="14" rx="2" fill="#1E1B4B" /><rect x="296" y="188" width="14" height="14" rx="2" fill="#1E1B4B" /><rect x="310" y="188" width="14" height="14" rx="2" fill="#1E1B4B" /><rect x="324" y="188" width="14" height="14" rx="2" fill="#1E1B4B" /><rect x="338" y="188" width="14" height="14" rx="2" fill="#1E1B4B" /><rect x="352" y="188" width="14" height="14" rx="2" fill="#1E1B4B" /><rect x="366" y="188" width="14" height="14" rx="2" fill="#1E1B4B" /><rect x="380" y="188" width="14" height="14" rx="2" fill="#1E1B4B" /><rect x="394" y="188" width="14" height="14" rx="2" fill="#1E1B4B" /><rect x="72" y="202" width="14" height="14" rx="2" fill="#1E1B4B" /><rect x="86" y="202" width="14" height="14" rx="2" fill="#1E1B4B" /><rect x="100" y="202" width="14" height="14" rx="2" fill="#1E1B4B" /><rect x="114" y="202" width="14" height="14" rx="2" fill="#1E1B4B" /><rect x="128" y="202" width="14" height="14" rx="2" fill="#1E1B4B" /><rect x="142" y="202" width="14" height="14" rx="2" fill="#1E1B4B" /><rect x="156" y="202" width="14" height="14" rx="2" fill="#7C3AED" /><rect x="170" y="202" width="14" height="14" rx="2" fill="#7C3AED" /><rect x="184" y="202" width="14" height="14" rx="2" fill="#7C3AED" /><rect x="198" y="202" width="14" height="14" rx="2" fill="#7C3AED" /><rect x="212" y="202" width="14" height="14" rx="2" fill="#7C3AED" /><rect x="226" y="202" width="14" height="14" rx="2" fill="#7C3AED" /><rect x="240" y="202" width="14" height="14" rx="2" fill="#7C3AED" /><rect x="254" y="202" width="14" height="14" rx="2" fill="#1E1B4B" /><rect x="268" y="202" width="14" height="14" rx="2" fill="#1E1B4B" /><rect x="282" y="202" width="14" height="14" rx="2" fill="#1E1B4B" /><rect x="296" y="202" width="14" height="14" rx="2" fill="#1E1B4B" /><rect x="310" y="202" width="14" height="14" rx="2" fill="#1E1B4B" /><rect x="324" y="202" width="14" height="14" rx="2" fill="#1E1B4B" /><rect x="338" y="202" width="14" height="14" rx="2" fill="#1E1B4B" /><rect x="352" y="202" width="14" height="14" rx="2" fill="#1E1B4B" /><rect x="366" y="202" width="14" height="14" rx="2" fill="#1E1B4B" /><rect x="380" y="202" width="14" height="14" rx="2" fill="#1E1B4B" /><rect x="394" y="202" width="14" height="14" rx="2" fill="#1E1B4B" /><rect x="72" y="216" width="14" height="14" rx="2" fill="#1E1B4B" /><rect x="86" y="216" width="14" height="14" rx="2" fill="#1E1B4B" /><rect x="100" y="216" width="14" height="14" rx="2" fill="#1E1B4B" /><rect x="114" y="216" width="14" height="14" rx="2" fill="#1E1B4B" /><rect x="128" y="216" width="14" height="14" rx="2" fill="#1E1B4B" /><rect x="142" y="216" width="14" height="14" rx="2" fill="#1E1B4B" /><rect x="156" y="216" width="14" height="14" rx="2" fill="#0EA5E9" /><rect x="170" y="216" width="14" height="14" rx="2" fill="#0EA5E9" /><rect x="184" y="216" width="14" height="14" rx="2" fill="#0EA5E9" /><rect x="198" y="216" width="14" height="14" rx="2" fill="#0EA5E9" /><rect x="212" y="216" width="14" height="14" rx="2" fill="#0EA5E9" /><rect x="226" y="216" width="14" height="14" rx="2" fill="#0EA5E9" /><rect x="240" y="216" width="14" height="14" rx="2" fill="#0EA5E9" /><rect x="254" y="216" width="14" height="14" rx="2" fill="#0EA5E9" /><rect x="268" y="216" width="14" height="14" rx="2" fill="#1E1B4B" /><rect x="282" y="216" width="14" height="14" rx="2" fill="#1E1B4B" /><rect x="296" y="216" width="14" height="14" rx="2" fill="#1E1B4B" /><rect x="310" y="216" width="14" height="14" rx="2" fill="#1E1B4B" /><rect x="324" y="216" width="14" height="14" rx="2" fill="#1E1B4B" /><rect x="338" y="216" width="14" height="14" rx="2" fill="#1E1B4B" /><rect x="352" y="216" width="14" height="14" rx="2" fill="#1E1B4B" /><rect x="366" y="216" width="14" height="14" rx="2" fill="#1E1B4B" /><rect x="380" y="216" width="14" height="14" rx="2" fill="#1E1B4B" /><rect x="394" y="216" width="14" height="14" rx="2" fill="#1E1B4B" /><rect x="72" y="230" width="14" height="14" rx="2" fill="#0EA5E9" /><rect x="86" y="230" width="14" height="14" rx="2" fill="#0EA5E9" /><rect x="100" y="230" width="14" height="14" rx="2" fill="#0EA5E9" /><rect x="114" y="230" width="14" height="14" rx="2" fill="#0EA5E9" /><rect x="128" y="230" width="14" height="14" rx="2" fill="#0EA5E9" /><rect x="142" y="230" width="14" height="14" rx="2" fill="#0EA5E9" /><rect x="156" y="230" width="14" height="14" rx="2" fill="#0EA5E9" /><rect x="170" y="230" width="14" height="14" rx="2" fill="#0EA5E9" /><rect x="184" y="230" width="14" height="14" rx="2" fill="#0EA5E9" /><rect x="198" y="230" width="14" height="14" rx="2" fill="#0EA5E9" /><rect x="212" y="230" width="14" height="14" rx="2" fill="#0EA5E9" /><rect x="226" y="230" width="14" height="14" rx="2" fill="#0EA5E9" /><rect x="240" y="230" width="14" height="14" rx="2" fill="#0EA5E9" /><rect x="254" y="230" width="14" height="14" rx="2" fill="#0EA5E9" /><rect x="268" y="230" width="14" height="14" rx="2" fill="#0EA5E9" /><rect x="282" y="230" width="14" height="14" rx="2" fill="#0EA5E9" /><rect x="296" y="230" width="14" height="14" rx="2" fill="#0EA5E9" /><rect x="310" y="230" width="14" height="14" rx="2" fill="#0EA5E9" /><rect x="324" y="230" width="14" height="14" rx="2" fill="#0EA5E9" /><rect x="338" y="230" width="14" height="14" rx="2" fill="#0EA5E9" /><rect x="352" y="230" width="14" height="14" rx="2" fill="#0EA5E9" /><rect x="366" y="230" width="14" height="14" rx="2" fill="#0EA5E9" /><rect x="380" y="230" width="14" height="14" rx="2" fill="#0EA5E9" /><rect x="394" y="230" width="14" height="14" rx="2" fill="#0EA5E9" /><rect x="72" y="244" width="14" height="14" rx="2" fill="#1E40AF" /><rect x="86" y="244" width="14" height="14" rx="2" fill="#1E40AF" /><rect x="100" y="244" width="14" height="14" rx="2" fill="#0EA5E9" /><rect x="114" y="244" width="14" height="14" rx="2" fill="#0EA5E9" /><rect x="128" y="244" width="14" height="14" rx="2" fill="#0EA5E9" /><rect x="142" y="244" width="14" height="14" rx="2" fill="#0EA5E9" /><rect x="156" y="244" width="14" height="14" rx="2" fill="#0EA5E9" /><rect x="170" y="244" width="14" height="14" rx="2" fill="#0EA5E9" /><rect x="184" y="244" width="14" height="14" rx="2" fill="#0EA5E9" /><rect x="198" y="244" width="14" height="14" rx="2" fill="#0EA5E9" /><rect x="212" y="244" width="14" height="14" rx="2" fill="#0EA5E9" /><rect x="226" y="244" width="14" height="14" rx="2" fill="#0EA5E9" /><rect x="240" y="244" width="14" height="14" rx="2" fill="#0EA5E9" /><rect x="254" y="244" width="14" height="14" rx="2" fill="#0EA5E9" /><rect x="268" y="244" width="14" height="14" rx="2" fill="#0EA5E9" /><rect x="282" y="244" width="14" height="14" rx="2" fill="#0EA5E9" /><rect x="296" y="244" width="14" height="14" rx="2" fill="#0EA5E9" /><rect x="310" y="244" width="14" height="14" rx="2" fill="#0EA5E9" /><rect x="324" y="244" width="14" height="14" rx="2" fill="#0EA5E9" /><rect x="338" y="244" width="14" height="14" rx="2" fill="#0EA5E9" /><rect x="352" y="244" width="14" height="14" rx="2" fill="#0EA5E9" /><rect x="366" y="244" width="14" height="14" rx="2" fill="#0EA5E9" /><rect x="380" y="244" width="14" height="14" rx="2" fill="#1E40AF" /><rect x="394" y="244" width="14" height="14" rx="2" fill="#1E40AF" /><rect x="72" y="258" width="14" height="14" rx="2" fill="#1E40AF" /><rect x="86" y="258" width="14" height="14" rx="2" fill="#1E40AF" /><rect x="100" y="258" width="14" height="14" rx="2" fill="#1E40AF" /><rect x="114" y="258" width="14" height="14" rx="2" fill="#1E40AF" /><rect x="128" y="258" width="14" height="14" rx="2" fill="#1E40AF" /><rect x="142" y="258" width="14" height="14" rx="2" fill="#1E40AF" /><rect x="156" y="258" width="14" height="14" rx="2" fill="#1E40AF" /><rect x="170" y="258" width="14" height="14" rx="2" fill="#1E40AF" /><rect x="184" y="258" width="14" height="14" rx="2" fill="#1E40AF" /><rect x="198" y="258" width="14" height="14" rx="2" fill="#1E40AF" /><rect x="212" y="258" width="14" height="14" rx="2" fill="#1E40AF" /><rect x="226" y="258" width="14" height="14" rx="2" fill="#1E40AF" /><rect x="240" y="258" width="14" height="14" rx="2" fill="#1E40AF" /><rect x="254" y="258" width="14" height="14" rx="2" fill="#1E40AF" /><rect x="268" y="258" width="14" height="14" rx="2" fill="#1E40AF" /><rect x="282" y="258" width="14" height="14" rx="2" fill="#1E40AF" /><rect x="296" y="258" width="14" height="14" rx="2" fill="#1E40AF" /><rect x="310" y="258" width="14" height="14" rx="2" fill="#1E40AF" /><rect x="324" y="258" width="14" height="14" rx="2" fill="#1E40AF" /><rect x="338" y="258" width="14" height="14" rx="2" fill="#1E40AF" /><rect x="352" y="258" width="14" height="14" rx="2" fill="#1E40AF" /><rect x="366" y="258" width="14" height="14" rx="2" fill="#1E40AF" /><rect x="380" y="258" width="14" height="14" rx="2" fill="#1E40AF" /><rect x="394" y="258" width="14" height="14" rx="2" fill="#1E40AF" /><rect x="72" y="272" width="14" height="14" rx="2" fill="#1E40AF" /><rect x="86" y="272" width="14" height="14" rx="2" fill="#1E40AF" /><rect x="100" y="272" width="14" height="14" rx="2" fill="#1E40AF" /><rect x="114" y="272" width="14" height="14" rx="2" fill="#1E40AF" /><rect x="128" y="272" width="14" height="14" rx="2" fill="#1E40AF" /><rect x="142" y="272" width="14" height="14" rx="2" fill="#1E40AF" /><rect x="156" y="272" width="14" height="14" rx="2" fill="#1E40AF" /><rect x="170" y="272" width="14" height="14" rx="2" fill="#1E40AF" /><rect x="184" y="272" width="14" height="14" rx="2" fill="#1E40AF" /><rect x="198" y="272" width="14" height="14" rx="2" fill="#1E40AF" /><rect x="212" y="272" width="14" height="14" rx="2" fill="#1E40AF" /><rect x="226" y="272" width="14" height="14" rx="2" fill="#1E40AF" /><rect x="240" y="272" width="14" height="14" rx="2" fill="#1E40AF" /><rect x="254" y="272" width="14" height="14" rx="2" fill="#1E40AF" /><rect x="268" y="272" width="14" height="14" rx="2" fill="#1E40AF" /><rect x="282" y="272" width="14" height="14" rx="2" fill="#1E40AF" /><rect x="296" y="272" width="14" height="14" rx="2" fill="#1E40AF" /><rect x="310" y="272" width="14" height="14" rx="2" fill="#1E40AF" /><rect x="324" y="272" width="14" height="14" rx="2" fill="#1E40AF" /><rect x="338" y="272" width="14" height="14" rx="2" fill="#1E40AF" /><rect x="352" y="272" width="14" height="14" rx="2" fill="#1E40AF" /><rect x="366" y="272" width="14" height="14" rx="2" fill="#1E40AF" /><rect x="380" y="272" width="14" height="14" rx="2" fill="#1E40AF" /><rect x="394" y="272" width="14" height="14" rx="2" fill="#1E40AF" /><rect x="72" y="286" width="14" height="14" rx="2" fill="#1E40AF" /><rect x="86" y="286" width="14" height="14" rx="2" fill="#1E40AF" /><rect x="100" y="286" width="14" height="14" rx="2" fill="#1E40AF" /><rect x="114" y="286" width="14" height="14" rx="2" fill="#1E40AF" /><rect x="128" y="286" width="14" height="14" rx="2" fill="#1E40AF" /><rect x="142" y="286" width="14" height="14" rx="2" fill="#1E40AF" /><rect x="156" y="286" width="14" height="14" rx="2" fill="#1E40AF" /><rect x="170" y="286" width="14" height="14" rx="2" fill="#1E40AF" /><rect x="184" y="286" width="14" height="14" rx="2" fill="#1E40AF" /><rect x="198" y="286" width="14" height="14" rx="2" fill="#1E40AF" /><rect x="212" y="286" width="14" height="14" rx="2" fill="#1E40AF" /><rect x="226" y="286" width="14" height="14" rx="2" fill="#1E40AF" /><rect x="240" y="286" width="14" height="14" rx="2" fill="#1E40AF" /><rect x="254" y="286" width="14" height="14" rx="2" fill="#1E40AF" /><rect x="268" y="286" width="14" height="14" rx="2" fill="#1E40AF" /><rect x="282" y="286" width="14" height="14" rx="2" fill="#1E40AF" /><rect x="296" y="286" width="14" height="14" rx="2" fill="#1E40AF" /><rect x="310" y="286" width="14" height="14" rx="2" fill="#1E40AF" /><rect x="324" y="286" width="14" height="14" rx="2" fill="#1E40AF" /><rect x="338" y="286" width="14" height="14" rx="2" fill="#1E40AF" /><rect x="352" y="286" width="14" height="14" rx="2" fill="#1E40AF" /><rect x="366" y="286" width="14" height="14" rx="2" fill="#1E40AF" /><rect x="380" y="286" width="14" height="14" rx="2" fill="#1E40AF" /><rect x="394" y="286" width="14" height="14" rx="2" fill="#1E40AF" />
  <rect x="390" y="16" width="74" height="26" rx="13" fill="#ef4444" />
  <text x="427" y="33" text-anchor="middle" fill="#fff" font-size="13" font-family="system-ui, sans-serif" font-weight="600">困难</text>
  <text x="240" y="340" text-anchor="middle" fill="#1f2937" font-size="20" font-family="system-ui, sans-serif" font-weight="700">日落山海</text>
</svg>