<svg xmlns="http://www.w3.org/2000/svg" viewBox="0 0 480 360" width="480" height="360">
  <defs>
    <linearGradient id="bgpixel3ddragon3d011" x1="0%" y1="0%" x2="100%" y2="100%">
      <stop offset="0%" stop-color="#3B82F6" stop-opacity="0.25"/>
      <stop offset="100%" stop-color="#06B6D4" stop-opacity="0.25"/>
    </linearGradient>
    <linearGradient id="cardpixel3ddragon3d011" x1="0%" y1="0%" x2="0%" y2="100%">
      <stop offset="0%" stop-color="#ffffff" stop-opacity="0.98"/>
      <stop offset="100%" stop-color="#f5f5f7" stop-opacity="0.95"/>
    </linearGradient>
    <linearGradient id="boardpixel3ddragon3d011" x1="0%" y1="0%" x2="0%" y2="100%">
      <stop offset="0%" stop-color="#1d1d1f" stop-opacity="0.04"/>
      <stop offset="100%" stop-color="#1d1d1f" stop-opacity="0.08"/>
    </linearGradient>
    <filter id="shadowpixel3ddragon3d011" x="-10%" y="-10%" width="120%" height="120%">
      <feGaussianBlur in="SourceAlpha" stdDeviation="4"/>
      <feOffset dx="0" dy="2"/>
      <feComponentTransfer><feFuncA type="linear" slope="0.15"/></feComponentTransfer>
      <feMerge><feMergeNode/><feMergeNode in="SourceGraphic"/></feMerge>
    </filter>
  </defs>
  <rect width="480" height="360" fill="#fafafa"/>
  <rect width="480" height="360" fill="url(#bgpixel3ddragon3d011)"/>
  <path d="M 0 340 Q 240 320 480 340" stroke="#FB923C" stroke-width="1" fill="none" opacity="0.15"/>
  <path d="M 0 20 Q 240 0 480 20" stroke="#3B82F6" stroke-width="1" fill="none" opacity="0.2"/>
  <circle cx="30" cy="25" r="2" fill="#3B82F6" opacity="0.15"/>
  <circle cx="86" cy="72" r="3" fill="#06B6D4" opacity="0.22999999999999998"/>
  <circle cx="142" cy="119" r="4" fill="#FB923C" opacity="0.31"/>
  <circle cx="198" cy="166" r="5" fill="#3B82F6" opacity="0.15"/>
  <circle cx="254" cy="213" r="2" fill="#06B6D4" opacity="0.22999999999999998"/>
  <circle cx="310" cy="260" r="3" fill="#FB923C" opacity="0.31"/>
  <circle cx="366" cy="307" r="4" fill="#3B82F6" opacity="0.15"/>
  <circle cx="422" cy="34" r="5" fill="#06B6D4" opacity="0.22999999999999998"/>
  <rect x="138" y="70" width="204" height="232" rx="18" fill="url(#cardpixel3ddragon3d011)" stroke="rgba(0,0,0,0.06)" stroke-width="1" filter="url(#shadowpixel3ddragon3d011)"/>
  <!-- 像素预览底板（深色，让浅色像素可见） -->
  <rect x="152" y="84" width="176" height="176" rx="6" fill="#f5f5f7" stroke="rgba(0,0,0,0.08)" stroke-width="1"/>
  <!-- 像素网格 -->
  <rect x="192.00" y="121.00" width="6.00" height="6.00" fill="#FBBF24"/><rect x="192.00" y="127.00" width="6.00" height="6.00" fill="#22C55E"/><rect x="204.00" y="127.00" width="6.00" height="6.00" fill="#FBBF24"/><rect x="204.00" y="133.00" width="6.00" height="6.00" fill="#22C55E"/><rect x="216.00" y="133.00" width="6.00" height="6.00" fill="#FBBF24"/><rect x="216.00" y="139.00" width="6.00" height="6.00" fill="#22C55E"/><rect x="228.00" y="139.00" width="6.00" height="6.00" fill="#FBBF24"/><rect x="156.00" y="145.00" width="6.00" height="6.00" fill="#22C55E"/><rect x="162.00" y="145.00" width="6.00" height="6.00" fill="#22C55E"/><rect x="228.00" y="145.00" width="6.00" height="6.00" fill="#22C55E"/><rect x="240.00" y="145.00" width="6.00" height="6.00" fill="#FBBF24"/><rect x="156.00" y="151.00" width="6.00" height="6.00" fill="#FBBF24"/><rect x="162.00" y="151.00" width="6.00" height="6.00" fill="#FBBF24"/><rect x="168.00" y="151.00" width="6.00" height="6.00" fill="#A855F7"/><rect x="174.00" y="151.00" width="6.00" height="6.00" fill="#22C55E"/><rect x="180.00" y="151.00" width="6.00" height="6.00" fill="#A855F7"/><rect x="240.00" y="151.00" width="6.00" height="6.00" fill="#22C55E"/><rect x="252.00" y="151.00" width="6.00" height="6.00" fill="#FBBF24"/><rect x="168.00" y="157.00" width="6.00" height="6.00" fill="#9CA3AF"/><rect x="174.00" y="157.00" width="6.00" height="6.00" fill="#FBBF24"/><rect x="180.00" y="157.00" width="6.00" height="6.00" fill="#9CA3AF"/><rect x="186.00" y="157.00" width="6.00" height="6.00" fill="#22C55E"/><rect x="192.00" y="157.00" width="6.00" height="6.00" fill="#A855F7"/><rect x="204.00" y="157.00" width="6.00" height="6.00" fill="#A855F7"/><rect x="252.00" y="157.00" width="6.00" height="6.00" fill="#22C55E"/><rect x="180.00" y="163.00" width="6.00" height="6.00" fill="#FBBF24"/><rect x="186.00" y="163.00" width="6.00" height="6.00" fill="#FBBF24"/><rect x="192.00" y="163.00" width="6.00" height="6.00" fill="#9CA3AF"/><rect x="198.00" y="163.00" width="6.00" height="6.00" fill="#22C55E"/><rect x="204.00" y="163.00" width="6.00" height="6.00" fill="#9CA3AF"/><rect x="216.00" y="163.00" width="6.00" height="6.00" fill="#A855F7"/><rect x="228.00" y="163.00" width="6.00" height="6.00" fill="#A855F7"/><rect x="192.00" y="169.00" width="6.00" height="6.00" fill="#FBBF24"/><rect x="198.00" y="169.00" width="6.00" height="6.00" fill="#FBBF24"/><rect x="204.00" y="169.00" width="6.00" height="6.00" fill="#22C55E"/><rect x="210.00" y="169.00" width="6.00" height="6.00" fill="#22C55E"/><rect x="216.00" y="169.00" width="6.00" height="6.00" fill="#9CA3AF"/><rect x="228.00" y="169.00" width="6.00" height="6.00" fill="#9CA3AF"/><rect x="240.00" y="169.00" width="6.00" height="6.00" fill="#A855F7"/><rect x="252.00" y="169.00" width="6.00" height="6.00" fill="#A855F7"/><rect x="204.00" y="175.00" width="6.00" height="6.00" fill="#FBBF24"/><rect x="210.00" y="175.00" width="6.00" height="6.00" fill="#FBBF24"/><rect x="216.00" y="175.00" width="6.00" height="6.00" fill="#22C55E"/><rect x="222.00" y="175.00" width="6.00" height="6.00" fill="#22C55E"/><rect x="240.00" y="175.00" width="6.00" height="6.00" fill="#9CA3AF"/><rect x="252.00" y="175.00" width="6.00" height="6.00" fill="#9CA3AF"/><rect x="264.00" y="175.00" width="6.00" height="6.00" fill="#A855F7"/><rect x="276.00" y="175.00" width="6.00" height="6.00" fill="#A855F7"/><rect x="216.00" y="181.00" width="6.00" height="6.00" fill="#FBBF24"/><rect x="222.00" y="181.00" width="6.00" height="6.00" fill="#FBBF24"/><rect x="228.00" y="181.00" width="6.00" height="6.00" fill="#22C55E"/><rect x="234.00" y="181.00" width="6.00" height="6.00" fill="#22C55E"/><rect x="264.00" y="181.00" width="6.00" height="6.00" fill="#9CA3AF"/><rect x="276.00" y="181.00" width="6.00" height="6.00" fill="#9CA3AF"/><rect x="228.00" y="187.00" width="6.00" height="6.00" fill="#FBBF24"/><rect x="234.00" y="187.00" width="6.00" height="6.00" fill="#FBBF24"/><rect x="240.00" y="187.00" width="6.00" height="6.00" fill="#22C55E"/><rect x="246.00" y="187.00" width="6.00" height="6.00" fill="#22C55E"/><rect x="240.00" y="193.00" width="6.00" height="6.00" fill="#FBBF24"/><rect x="246.00" y="193.00" width="6.00" height="6.00" fill="#FBBF24"/><rect x="252.00" y="193.00" width="6.00" height="6.00" fill="#22C55E"/><rect x="258.00" y="193.00" width="6.00" height="6.00" fill="#22C55E"/><rect x="288.00" y="193.00" width="6.00" height="6.00" fill="#22C55E"/><rect x="252.00" y="199.00" width="6.00" height="6.00" fill="#FBBF24"/><rect x="258.00" y="199.00" width="6.00" height="6.00" fill="#FBBF24"/><rect x="264.00" y="199.00" width="6.00" height="6.00" fill="#22C55E"/><rect x="270.00" y="199.00" width="6.00" height="6.00" fill="#22C55E"/><rect x="282.00" y="199.00" width="6.00" height="6.00" fill="#22C55E"/><rect x="288.00" y="199.00" width="6.00" height="6.00" fill="#1A1A1A"/><rect x="294.00" y="199.00" width="6.00" height="6.00" fill="#22C55E"/><rect x="300.00" y="199.00" width="6.00" height="6.00" fill="#374151"/><rect x="306.00" y="199.00" width="6.00" height="6.00" fill="#374151"/><rect x="312.00" y="199.00" width="6.00" height="6.00" fill="#374151"/><rect x="318.00" y="199.00" width="6.00" height="6.00" fill="#374151"/><rect x="264.00" y="205.00" width="6.00" height="6.00" fill="#FBBF24"/><rect x="270.00" y="205.00" width="6.00" height="6.00" fill="#FBBF24"/><rect x="276.00" y="205.00" width="6.00" height="6.00" fill="#22C55E"/><rect x="282.00" y="205.00" width="6.00" height="6.00" fill="#22C55E"/><rect x="288.00" y="205.00" width="6.00" height="6.00" fill="#22C55E"/><rect x="294.00" y="205.00" width="6.00" height="6.00" fill="#22C55E"/><rect x="300.00" y="205.00" width="6.00" height="6.00" fill="#EF4444"/><rect x="306.00" y="205.00" width="6.00" height="6.00" fill="#EF4444"/><rect x="312.00" y="205.00" width="6.00" height="6.00" fill="#EF4444"/><rect x="318.00" y="205.00" width="6.00" height="6.00" fill="#EF4444"/><rect x="282.00" y="211.00" width="6.00" height="6.00" fill="#22C55E"/><rect x="288.00" y="211.00" width="6.00" height="6.00" fill="#22C55E"/><rect x="294.00" y="211.00" width="6.00" height="6.00" fill="#22C55E"/><rect x="288.00" y="217.00" width="6.00" height="6.00" fill="#22C55E"/>
  <!-- 难度标签 -->
  <rect x="390" y="20" width="70" height="22" rx="11" fill="#ff3b30"/>
  <text x="425" y="35" font-family="-apple-system, sans-serif" font-size="11" font-weight="600" fill="#ffffff" text-anchor="middle">HARD</text>
  <!-- 分类标签 -->
  <rect x="20" y="20" width="32" height="22" rx="11" fill="#FB923C" opacity="0.9"/>
  <text x="36" y="35" font-family="-apple-system, sans-serif" font-size="10" font-weight="600" fill="#ffffff" text-anchor="middle">3D</text>
  <!-- 模板名 -->
  <text x="240" y="286" font-family="-apple-system, 'PingFang SC', sans-serif" font-size="16" font-weight="600" fill="#1d1d1f" text-anchor="middle">3D 立体龙</text>
  <text x="240" y="304" font-family="-apple-system, sans-serif" font-size="11" font-weight="400" fill="#86868b" text-anchor="middle">88 beads · 32×32</text>
</svg>
