<?xml version="1.0" encoding="UTF-8"?>
<svg xmlns="http://www.w3.org/2000/svg" viewBox="0 0 480 360" width="480" height="360">
  
    <defs>
      <linearGradient id="bg" x1="0" y1="0" x2="1" y2="1">
        <stop offset="0%" stop-color="#DC143C" stop-opacity="0.15"/>
        <stop offset="100%" stop-color="#F5F5DC" stop-opacity="0.25"/>
      </linearGradient>
      <linearGradient id="card" x1="0" y1="0" x2="0" y2="1">
        <stop offset="0%" stop-color="#ffffff"/>
        <stop offset="100%" stop-color="#f8f9fa"/>
      </linearGradient>
      <filter id="shadow" x="-20%" y="-20%" width="140%" height="140%">
        <feDropShadow dx="0" dy="4" stdDeviation="6" flood-opacity="0.15"/>
      </filter>
    </defs>
  
  <rect width="480" height="360" fill="url(#bg)" />
  <rect x="398" y="109" width="8" height="8" rx="1" fill="#8B4513" opacity="0.15" /><rect x="121" y="237" width="8" height="8" rx="1" fill="#DC143C" opacity="0.25" /><rect x="284" y="142" width="4" height="4" rx="1" fill="#8B4513" opacity="0.10" /><rect x="447" y="46" width="6" height="6" rx="1" fill="#DC143C" opacity="0.20" /><rect x="170" y="174" width="6" height="6" rx="1" fill="#8B4513" opacity="0.30" /><rect x="332" y="79" width="8" height="8" rx="1" fill="#DC143C" opacity="0.15" /><rect x="55" y="207" width="8" height="8" rx="1" fill="#8B4513" opacity="0.25" /><rect x="218" y="111" width="4" height="4" rx="1" fill="#DC143C" opacity="0.10" /><rect x="381" y="336" width="6" height="6" rx="1" fill="#8B4513" opacity="0.20" /><rect x="104" y="144" width="6" height="6" rx="1" fill="#DC143C" opacity="0.30" /><rect x="266" y="48" width="8" height="8" rx="1" fill="#8B4513" opacity="0.15" /><rect x="429" y="272" width="4" height="4" rx="1" fill="#DC143C" opacity="0.25" />
  <rect x="155" y="89" width="170" height="142" rx="12" fill="url(#card)" filter="url(#shadow)" />
  <rect x="219" y="97" width="14" height="14" rx="2" fill="#DC143C" /><rect x="233" y="97" width="14" height="14" rx="2" fill="#DC143C" /><rect x="247" y="97" width="14" height="14" rx="2" fill="#DC143C" /><rect x="205" y="111" width="14" height="14" rx="2" fill="#DC143C" /><rect x="219" y="111" width="14" height="14" rx="2" fill="#DC143C" /><rect x="233" y="111" width="14" height="14" rx="2" fill="#DC143C" /><rect x="247" y="111" width="14" height="14" rx="2" fill="#DC143C" /><rect x="261" y="111" width="14" height="14" rx="2" fill="#DC143C" /><rect x="191" y="125" width="14" height="14" rx="2" fill="#DC143C" /><rect x="205" y="125" width="14" height="14" rx="2" fill="#DC143C" /><rect x="219" y="125" width="14" height="14" rx="2" fill="#DC143C" /><rect x="233" y="125" width="14" height="14" rx="2" fill="#DC143C" /><rect x="247" y="125" width="14" height="14" rx="2" fill="#DC143C" /><rect x="261" y="125" width="14" height="14" rx="2" fill="#DC143C" /><rect x="275" y="125" width="14" height="14" rx="2" fill="#DC143C" /><rect x="177" y="139" width="14" height="14" rx="2" fill="#DC143C" /><rect x="191" y="139" width="14" height="14" rx="2" fill="#DC143C" /><rect x="205" y="139" width="14" height="14" rx="2" fill="#DC143C" /><rect x="219" y="139" width="14" height="14" rx="2" fill="#DC143C" /><rect x="233" y="139" width="14" height="14" rx="2" fill="#DC143C" /><rect x="247" y="139" width="14" height="14" rx="2" fill="#DC143C" /><rect x="261" y="139" width="14" height="14" rx="2" fill="#DC143C" /><rect x="275" y="139" width="14" height="14" rx="2" fill="#DC143C" /><rect x="289" y="139" width="14" height="14" rx="2" fill="#DC143C" /><rect x="163" y="153" width="14" height="14" rx="2" fill="#DC143C" /><rect x="177" y="153" width="14" height="14" rx="2" fill="#DC143C" /><rect x="191" y="153" width="14" height="14" rx="2" fill="#DC143C" /><rect x="205" y="153" width="14" height="14" rx="2" fill="#DC143C" /><rect x="219" y="153" width="14" height="14" rx="2" fill="#DC143C" /><rect x="233" y="153" width="14" height="14" rx="2" fill="#DC143C" /><rect x="247" y="153" width="14" height="14" rx="2" fill="#DC143C" /><rect x="261" y="153" width="14" height="14" rx="2" fill="#DC143C" /><rect x="275" y="153" width="14" height="14" rx="2" fill="#DC143C" /><rect x="289" y="153" width="14" height="14" rx="2" fill="#DC143C" /><rect x="303" y="153" width="14" height="14" rx="2" fill="#DC143C" /><rect x="177" y="167" width="14" height="14" rx="2" fill="#F5F5DC" /><rect x="191" y="167" width="14" height="14" rx="2" fill="#F5F5DC" /><rect x="205" y="167" width="14" height="14" rx="2" fill="#F5F5DC" /><rect x="219" y="167" width="14" height="14" rx="2" fill="#F5F5DC" /><rect x="233" y="167" width="14" height="14" rx="2" fill="#F5F5DC" /><rect x="247" y="167" width="14" height="14" rx="2" fill="#F5F5DC" /><rect x="261" y="167" width="14" height="14" rx="2" fill="#F5F5DC" /><rect x="275" y="167" width="14" height="14" rx="2" fill="#F5F5DC" /><rect x="289" y="167" width="14" height="14" rx="2" fill="#F5F5DC" /><rect x="177" y="181" width="14" height="14" rx="2" fill="#F5F5DC" /><rect x="191" y="181" width="14" height="14" rx="2" fill="#87CEEB" /><rect x="205" y="181" width="14" height="14" rx="2" fill="#87CEEB" /><rect x="219" y="181" width="14" height="14" rx="2" fill="#F5F5DC" /><rect x="233" y="181" width="14" height="14" rx="2" fill="#8B4513" /><rect x="247" y="181" width="14" height="14" rx="2" fill="#8B4513" /><rect x="261" y="181" width="14" height="14" rx="2" fill="#F5F5DC" /><rect x="275" y="181" width="14" height="14" rx="2" fill="#87CEEB" /><rect x="289" y="181" width="14" height="14" rx="2" fill="#87CEEB" /><rect x="177" y="195" width="14" height="14" rx="2" fill="#F5F5DC" /><rect x="191" y="195" width="14" height="14" rx="2" fill="#87CEEB" /><rect x="205" y="195" width="14" height="14" rx="2" fill="#87CEEB" /><rect x="219" y="195" width="14" height="14" rx="2" fill="#F5F5DC" /><rect x="233" y="195" width="14" height="14" rx="2" fill="#8B4513" /><rect x="247" y="195" width="14" height="14" rx="2" fill="#8B4513" /><rect x="261" y="195" width="14" height="14" rx="2" fill="#F5F5DC" /><rect x="275" y="195" width="14" height="14" rx="2" fill="#87CEEB" /><rect x="289" y="195" width="14" height="14" rx="2" fill="#87CEEB" /><rect x="177" y="209" width="14" height="14" rx="2" fill="#F5F5DC" /><rect x="191" y="209" width="14" height="14" rx="2" fill="#F5F5DC" /><rect x="205" y="209" width="14" height="14" rx="2" fill="#F5F5DC" /><rect x="219" y="209" width="14" height="14" rx="2" fill="#F5F5DC" /><rect x="233" y="209" width="14" height="14" rx="2" fill="#F5F5DC" /><rect x="247" y="209" width="14" height="14" rx="2" fill="#F5F5DC" /><rect x="261" y="209" width="14" height="14" rx="2" fill="#F5F5DC" /><rect x="275" y="209" width="14" height="14" rx="2" fill="#F5F5DC" /><rect x="289" y="209" width="14" height="14" rx="2" fill="#F5F5DC" />
  <rect x="390" y="16" width="74" height="26" rx="13" fill="#f59e0b" />
  <text x="427" y="33" text-anchor="middle" fill="#fff" font-size="13" font-family="system-ui, sans-serif" font-weight="600">中等</text>
  <text x="240" y="340" text-anchor="middle" fill="#1f2937" font-size="20" font-family="system-ui, sans-serif" font-weight="700">立体小房子</text>
</svg>