<?xml version="1.0" encoding="UTF-8"?>
<svg xmlns="http://www.w3.org/2000/svg" viewBox="0 0 480 360" width="480" height="360">
  
    <defs>
      <linearGradient id="bg" x1="0" y1="0" x2="1" y2="1">
        <stop offset="0%" stop-color="#1E1B4B" stop-opacity="0.15"/>
        <stop offset="100%" stop-color="#5B21B6" stop-opacity="0.25"/>
      </linearGradient>
      <linearGradient id="card" x1="0" y1="0" x2="0" y2="1">
        <stop offset="0%" stop-color="#ffffff"/>
        <stop offset="100%" stop-color="#f8f9fa"/>
      </linearGradient>
      <filter id="shadow" x="-20%" y="-20%" width="140%" height="140%">
        <feDropShadow dx="0" dy="4" stdDeviation="6" flood-opacity="0.15"/>
      </filter>
    </defs>
  
  <rect width="480" height="360" fill="url(#bg)" />
  <rect x="275" y="95" width="6" height="6" rx="1" fill="#2563EB" opacity="0.25" /><rect x="438" y="319" width="8" height="8" rx="1" fill="#5B21B6" opacity="0.10" /><rect x="161" y="128" width="8" height="8" rx="1" fill="#FBBF24" opacity="0.20" /><rect x="324" y="32" width="4" height="4" rx="1" fill="#7C3AED" opacity="0.30" /><rect x="46" y="160" width="4" height="4" rx="1" fill="#1E1B4B" opacity="0.15" /><rect x="209" y="64" width="6" height="6" rx="1" fill="#2563EB" opacity="0.25" /><rect x="372" y="289" width="8" height="8" rx="1" fill="#5B21B6" opacity="0.10" /><rect x="95" y="97" width="8" height="8" rx="1" fill="#FBBF24" opacity="0.20" /><rect x="258" y="321" width="4" height="4" rx="1" fill="#7C3AED" opacity="0.30" /><rect x="420" y="226" width="6" height="6" rx="1" fill="#1E1B4B" opacity="0.15" /><rect x="143" y="34" width="6" height="6" rx="1" fill="#2563EB" opacity="0.25" /><rect x="306" y="258" width="8" height="8" rx="1" fill="#5B21B6" opacity="0.10" />
  <rect x="106" y="40" width="268" height="240" rx="12" fill="url(#card)" filter="url(#shadow)" />
  <rect x="114" y="48" width="14" height="14" rx="2" fill="#1E1B4B" /><rect x="128" y="48" width="14" height="14" rx="2" fill="#1E1B4B" /><rect x="142" y="48" width="14" height="14" rx="2" fill="#1E1B4B" /><rect x="156" y="48" width="14" height="14" rx="2" fill="#1E1B4B" /><rect x="170" y="48" width="14" height="14" rx="2" fill="#1E1B4B" /><rect x="184" y="48" width="14" height="14" rx="2" fill="#1E1B4B" /><rect x="198" y="48" width="14" height="14" rx="2" fill="#1E1B4B" /><rect x="212" y="48" width="14" height="14" rx="2" fill="#1E1B4B" /><rect x="226" y="48" width="14" height="14" rx="2" fill="#5B21B6" /><rect x="240" y="48" width="14" height="14" rx="2" fill="#5B21B6" /><rect x="254" y="48" width="14" height="14" rx="2" fill="#1E1B4B" /><rect x="268" y="48" width="14" height="14" rx="2" fill="#1E1B4B" /><rect x="282" y="48" width="14" height="14" rx="2" fill="#1E1B4B" /><rect x="296" y="48" width="14" height="14" rx="2" fill="#1E1B4B" /><rect x="310" y="48" width="14" height="14" rx="2" fill="#1E1B4B" /><rect x="324" y="48" width="14" height="14" rx="2" fill="#1E1B4B" /><rect x="338" y="48" width="14" height="14" rx="2" fill="#1E1B4B" /><rect x="352" y="48" width="14" height="14" rx="2" fill="#1E1B4B" /><rect x="114" y="62" width="14" height="14" rx="2" fill="#1E1B4B" /><rect x="128" y="62" width="14" height="14" rx="2" fill="#1E1B4B" /><rect x="142" y="62" width="14" height="14" rx="2" fill="#1E1B4B" /><rect x="156" y="62" width="14" height="14" rx="2" fill="#1E1B4B" /><rect x="170" y="62" width="14" height="14" rx="2" fill="#1E1B4B" /><rect x="184" y="62" width="14" height="14" rx="2" fill="#1E1B4B" /><rect x="198" y="62" width="14" height="14" rx="2" fill="#5B21B6" /><rect x="212" y="62" width="14" height="14" rx="2" fill="#5B21B6" /><rect x="226" y="62" width="14" height="14" rx="2" fill="#5B21B6" /><rect x="240" y="62" width="14" height="14" rx="2" fill="#5B21B6" /><rect x="254" y="62" width="14" height="14" rx="2" fill="#5B21B6" /><rect x="268" y="62" width="14" height="14" rx="2" fill="#5B21B6" /><rect x="282" y="62" width="14" height="14" rx="2" fill="#1E1B4B" /><rect x="296" y="62" width="14" height="14" rx="2" fill="#1E1B4B" /><rect x="310" y="62" width="14" height="14" rx="2" fill="#1E1B4B" /><rect x="324" y="62" width="14" height="14" rx="2" fill="#1E1B4B" /><rect x="338" y="62" width="14" height="14" rx="2" fill="#1E1B4B" /><rect x="352" y="62" width="14" height="14" rx="2" fill="#1E1B4B" /><rect x="114" y="76" width="14" height="14" rx="2" fill="#1E1B4B" /><rect x="128" y="76" width="14" height="14" rx="2" fill="#1E1B4B" /><rect x="142" y="76" width="14" height="14" rx="2" fill="#1E1B4B" /><rect x="156" y="76" width="14" height="14" rx="2" fill="#1E1B4B" /><rect x="170" y="76" width="14" height="14" rx="2" fill="#5B21B6" /><rect x="184" y="76" width="14" height="14" rx="2" fill="#5B21B6" /><rect x="198" y="76" width="14" height="14" rx="2" fill="#5B21B6" /><rect x="212" y="76" width="14" height="14" rx="2" fill="#7C3AED" /><rect x="226" y="76" width="14" height="14" rx="2" fill="#7C3AED" /><rect x="240" y="76" width="14" height="14" rx="2" fill="#7C3AED" /><rect x="254" y="76" width="14" height="14" rx="2" fill="#5B21B6" /><rect x="268" y="76" width="14" height="14" rx="2" fill="#5B21B6" /><rect x="282" y="76" width="14" height="14" rx="2" fill="#5B21B6" /><rect x="296" y="76" width="14" height="14" rx="2" fill="#1E1B4B" /><rect x="310" y="76" width="14" height="14" rx="2" fill="#1E1B4B" /><rect x="324" y="76" width="14" height="14" rx="2" fill="#1E1B4B" /><rect x="338" y="76" width="14" height="14" rx="2" fill="#1E1B4B" /><rect x="352" y="76" width="14" height="14" rx="2" fill="#1E1B4B" /><rect x="114" y="90" width="14" height="14" rx="2" fill="#1E1B4B" /><rect x="128" y="90" width="14" height="14" rx="2" fill="#1E1B4B" /><rect x="142" y="90" width="14" height="14" rx="2" fill="#1E1B4B" /><rect x="156" y="90" width="14" height="14" rx="2" fill="#5B21B6" /><rect x="170" y="90" width="14" height="14" rx="2" fill="#5B21B6" /><rect x="184" y="90" width="14" height="14" rx="2" fill="#7C3AED" /><rect x="198" y="90" width="14" height="14" rx="2" fill="#7C3AED" /><rect x="212" y="90" width="14" height="14" rx="2" fill="#7C3AED" /><rect x="226" y="90" width="14" height="14" rx="2" fill="#7C3AED" /><rect x="240" y="90" width="14" height="14" rx="2" fill="#7C3AED" /><rect x="254" y="90" width="14" height="14" rx="2" fill="#7C3AED" /><rect x="268" y="90" width="14" height="14" rx="2" fill="#7C3AED" /><rect x="282" y="90" width="14" height="14" rx="2" fill="#5B21B6" /><rect x="296" y="90" width="14" height="14" rx="2" fill="#5B21B6" /><rect x="310" y="90" width="14" height="14" rx="2" fill="#1E1B4B" /><rect x="324" y="90" width="14" height="14" rx="2" fill="#1E1B4B" /><rect x="338" y="90" width="14" height="14" rx="2" fill="#1E1B4B" /><rect x="352" y="90" width="14" height="14" rx="2" fill="#1E1B4B" /><rect x="114" y="104" width="14" height="14" rx="2" fill="#1E1B4B" /><rect x="128" y="104" width="14" height="14" rx="2" fill="#1E1B4B" /><rect x="142" y="104" width="14" height="14" rx="2" fill="#5B21B6" /><rect x="156" y="104" width="14" height="14" rx="2" fill="#5B21B6" /><rect x="170" y="104" width="14" height="14" rx="2" fill="#7C3AED" /><rect x="184" y="104" width="14" height="14" rx="2" fill="#7C3AED" /><rect x="198" y="104" width="14" height="14" rx="2" fill="#7C3AED" /><rect x="212" y="104" width="14" height="14" rx="2" fill="#7C3AED" /><rect x="226" y="104" width="14" height="14" rx="2" fill="#2563EB" /><rect x="240" y="104" width="14" height="14" rx="2" fill="#7C3AED" /><rect x="254" y="104" width="14" height="14" rx="2" fill="#7C3AED" /><rect x="268" y="104" width="14" height="14" rx="2" fill="#7C3AED" /><rect x="282" y="104" width="14" height="14" rx="2" fill="#7C3AED" /><rect x="296" y="104" width="14" height="14" rx="2" fill="#5B21B6" /><rect x="310" y="104" width="14" height="14" rx="2" fill="#5B21B6" /><rect x="324" y="104" width="14" height="14" rx="2" fill="#1E1B4B" /><rect x="338" y="104" width="14" height="14" rx="2" fill="#1E1B4B" /><rect x="352" y="104" width="14" height="14" rx="2" fill="#1E1B4B" /><rect x="114" y="118" width="14" height="14" rx="2" fill="#1E1B4B" /><rect x="128" y="118" width="14" height="14" rx="2" fill="#5B21B6" /><rect x="142" y="118" width="14" height="14" rx="2" fill="#5B21B6" /><rect x="156" y="118" width="14" height="14" rx="2" fill="#7C3AED" /><rect x="170" y="118" width="14" height="14" rx="2" fill="#7C3AED" /><rect x="184" y="118" width="14" height="14" rx="2" fill="#7C3AED" /><rect x="198" y="118" width="14" height="14" rx="2" fill="#7C3AED" /><rect x="212" y="118" width="14" height="14" rx="2" fill="#2563EB" /><rect x="226" y="118" width="14" height="14" rx="2" fill="#2563EB" /><rect x="240" y="118" width="14" height="14" rx="2" fill="#2563EB" /><rect x="254" y="118" width="14" height="14" rx="2" fill="#7C3AED" /><rect x="268" y="118" width="14" height="14" rx="2" fill="#7C3AED" /><rect x="282" y="118" width="14" height="14" rx="2" fill="#7C3AED" /><rect x="296" y="118" width="14" height="14" rx="2" fill="#7C3AED" /><rect x="310" y="118" width="14" height="14" rx="2" fill="#5B21B6" /><rect x="324" y="118" width="14" height="14" rx="2" fill="#5B21B6" /><rect x="338" y="118" width="14" height="14" rx="2" fill="#1E1B4B" /><rect x="352" y="118" width="14" height="14" rx="2" fill="#1E1B4B" /><rect x="114" y="132" width="14" height="14" rx="2" fill="#5B21B6" /><rect x="128" y="132" width="14" height="14" rx="2" fill="#5B21B6" /><rect x="142" y="132" width="14" height="14" rx="2" fill="#7C3AED" /><rect x="156" y="132" width="14" height="14" rx="2" fill="#7C3AED" /><rect x="170" y="132" width="14" height="14" rx="2" fill="#7C3AED" /><rect x="184" y="132" width="14" height="14" rx="2" fill="#7C3AED" /><rect x="198" y="132" width="14" height="14" rx="2" fill="#2563EB" /><rect x="212" y="132" width="14" height="14" rx="2" fill="#2563EB" /><rect x="226" y="132" width="14" height="14" rx="2" fill="#FBBF24" /><rect x="240" y="132" width="14" height="14" rx="2" fill="#2563EB" /><rect x="254" y="132" width="14" height="14" rx="2" fill="#2563EB" /><rect x="268" y="132" width="14" height="14" rx="2" fill="#7C3AED" /><rect x="282" y="132" width="14" height="14" rx="2" fill="#7C3AED" /><rect x="296" y="132" width="14" height="14" rx="2" fill="#7C3AED" /><rect x="310" y="132" width="14" height="14" rx="2" fill="#7C3AED" /><rect x="324" y="132" width="14" height="14" rx="2" fill="#5B21B6" /><rect x="338" y="132" width="14" height="14" rx="2" fill="#5B21B6" /><rect x="352" y="132" width="14" height="14" rx="2" fill="#1E1B4B" /><rect x="114" y="146" width="14" height="14" rx="2" fill="#5B21B6" /><rect x="128" y="146" width="14" height="14" rx="2" fill="#7C3AED" /><rect x="142" y="146" width="14" height="14" rx="2" fill="#7C3AED" /><rect x="156" y="146" width="14" height="14" rx="2" fill="#7C3AED" /><rect x="170" y="146" width="14" height="14" rx="2" fill="#7C3AED" /><rect x="184" y="146" width="14" height="14" rx="2" fill="#2563EB" /><rect x="198" y="146" width="14" height="14" rx="2" fill="#2563EB" /><rect x="212" y="146" width="14" height="14" rx="2" fill="#FBBF24" /><rect x="226" y="146" width="14" height="14" rx="2" fill="#FBBF24" /><rect x="240" y="146" width="14" height="14" rx="2" fill="#FBBF24" /><rect x="254" y="146" width="14" height="14" rx="2" fill="#2563EB" /><rect x="268" y="146" width="14" height="14" rx="2" fill="#2563EB" /><rect x="282" y="146" width="14" height="14" rx="2" fill="#7C3AED" /><rect x="296" y="146" width="14" height="14" rx="2" fill="#7C3AED" /><rect x="310" y="146" width="14" height="14" rx="2" fill="#7C3AED" /><rect x="324" y="146" width="14" height="14" rx="2" fill="#7C3AED" /><rect x="338" y="146" width="14" height="14" rx="2" fill="#5B21B6" /><rect x="352" y="146" width="14" height="14" rx="2" fill="#5B21B6" /><rect x="114" y="160" width="14" height="14" rx="2" fill="#5B21B6" /><rect x="128" y="160" width="14" height="14" rx="2" fill="#7C3AED" /><rect x="142" y="160" width="14" height="14" rx="2" fill="#7C3AED" /><rect x="156" y="160" width="14" height="14" rx="2" fill="#7C3AED" /><rect x="170" y="160" width="14" height="14" rx="2" fill="#2563EB" /><rect x="184" y="160" width="14" height="14" rx="2" fill="#2563EB" /><rect x="198" y="160" width="14" height="14" rx="2" fill="#FBBF24" /><rect x="212" y="160" width="14" height="14" rx="2" fill="#FBBF24" /><rect x="226" y="160" width="14" height="14" rx="2" fill="#FBBF24" /><rect x="240" y="160" width="14" height="14" rx="2" fill="#FBBF24" /><rect x="254" y="160" width="14" height="14" rx="2" fill="#FBBF24" /><rect x="268" y="160" width="14" height="14" rx="2" fill="#2563EB" /><rect x="282" y="160" width="14" height="14" rx="2" fill="#2563EB" /><rect x="296" y="160" width="14" height="14" rx="2" fill="#7C3AED" /><rect x="310" y="160" width="14" height="14" rx="2" fill="#7C3AED" /><rect x="324" y="160" width="14" height="14" rx="2" fill="#7C3AED" /><rect x="338" y="160" width="14" height="14" rx="2" fill="#5B21B6" /><rect x="352" y="160" width="14" height="14" rx="2" fill="#5B21B6" /><rect x="114" y="174" width="14" height="14" rx="2" fill="#5B21B6" /><rect x="128" y="174" width="14" height="14" rx="2" fill="#7C3AED" /><rect x="142" y="174" width="14" height="14" rx="2" fill="#7C3AED" /><rect x="156" y="174" width="14" height="14" rx="2" fill="#7C3AED" /><rect x="170" y="174" width="14" height="14" rx="2" fill="#7C3AED" /><rect x="184" y="174" width="14" height="14" rx="2" fill="#2563EB" /><rect x="198" y="174" width="14" height="14" rx="2" fill="#2563EB" /><rect x="212" y="174" width="14" height="14" rx="2" fill="#FBBF24" /><rect x="226" y="174" width="14" height="14" rx="2" fill="#FBBF24" /><rect x="240" y="174" width="14" height="14" rx="2" fill="#FBBF24" /><rect x="254" y="174" width="14" height="14" rx="2" fill="#2563EB" /><rect x="268" y="174" width="14" height="14" rx="2" fill="#2563EB" /><rect x="282" y="174" width="14" height="14" rx="2" fill="#7C3AED" /><rect x="296" y="174" width="14" height="14" rx="2" fill="#7C3AED" /><rect x="310" y="174" width="14" height="14" rx="2" fill="#7C3AED" /><rect x="324" y="174" width="14" height="14" rx="2" fill="#7C3AED" /><rect x="338" y="174" width="14" height="14" rx="2" fill="#5B21B6" /><rect x="352" y="174" width="14" height="14" rx="2" fill="#5B21B6" /><rect x="114" y="188" width="14" height="14" rx="2" fill="#1E1B4B" /><rect x="128" y="188" width="14" height="14" rx="2" fill="#5B21B6" /><rect x="142" y="188" width="14" height="14" rx="2" fill="#5B21B6" /><rect x="156" y="188" width="14" height="14" rx="2" fill="#7C3AED" /><rect x="170" y="188" width="14" height="14" rx="2" fill="#7C3AED" /><rect x="184" y="188" width="14" height="14" rx="2" fill="#7C3AED" /><rect x="198" y="188" width="14" height="14" rx="2" fill="#7C3AED" /><rect x="212" y="188" width="14" height="14" rx="2" fill="#2563EB" /><rect x="226" y="188" width="14" height="14" rx="2" fill="#2563EB" /><rect x="240" y="188" width="14" height="14" rx="2" fill="#2563EB" /><rect x="254" y="188" width="14" height="14" rx="2" fill="#7C3AED" /><rect x="268" y="188" width="14" height="14" rx="2" fill="#7C3AED" /><rect x="282" y="188" width="14" height="14" rx="2" fill="#7C3AED" /><rect x="296" y="188" width="14" height="14" rx="2" fill="#7C3AED" /><rect x="310" y="188" width="14" height="14" rx="2" fill="#5B21B6" /><rect x="324" y="188" width="14" height="14" rx="2" fill="#5B21B6" /><rect x="338" y="188" width="14" height="14" rx="2" fill="#1E1B4B" /><rect x="352" y="188" width="14" height="14" rx="2" fill="#1E1B4B" /><rect x="114" y="202" width="14" height="14" rx="2" fill="#1E1B4B" /><rect x="128" y="202" width="14" height="14" rx="2" fill="#1E1B4B" /><rect x="142" y="202" width="14" height="14" rx="2" fill="#5B21B6" /><rect x="156" y="202" width="14" height="14" rx="2" fill="#5B21B6" /><rect x="170" y="202" width="14" height="14" rx="2" fill="#7C3AED" /><rect x="184" y="202" width="14" height="14" rx="2" fill="#7C3AED" /><rect x="198" y="202" width="14" height="14" rx="2" fill="#7C3AED" /><rect x="212" y="202" width="14" height="14" rx="2" fill="#7C3AED" /><rect x="226" y="202" width="14" height="14" rx="2" fill="#2563EB" /><rect x="240" y="202" width="14" height="14" rx="2" fill="#7C3AED" /><rect x="254" y="202" width="14" height="14" rx="2" fill="#7C3AED" /><rect x="268" y="202" width="14" height="14" rx="2" fill="#7C3AED" /><rect x="282" y="202" width="14" height="14" rx="2" fill="#7C3AED" /><rect x="296" y="202" width="14" height="14" rx="2" fill="#5B21B6" /><rect x="310" y="202" width="14" height="14" rx="2" fill="#5B21B6" /><rect x="324" y="202" width="14" height="14" rx="2" fill="#1E1B4B" /><rect x="338" y="202" width="14" height="14" rx="2" fill="#1E1B4B" /><rect x="352" y="202" width="14" height="14" rx="2" fill="#1E1B4B" /><rect x="114" y="216" width="14" height="14" rx="2" fill="#1E1B4B" /><rect x="128" y="216" width="14" height="14" rx="2" fill="#1E1B4B" /><rect x="142" y="216" width="14" height="14" rx="2" fill="#1E1B4B" /><rect x="156" y="216" width="14" height="14" rx="2" fill="#5B21B6" /><rect x="170" y="216" width="14" height="14" rx="2" fill="#5B21B6" /><rect x="184" y="216" width="14" height="14" rx="2" fill="#7C3AED" /><rect x="198" y="216" width="14" height="14" rx="2" fill="#7C3AED" /><rect x="212" y="216" width="14" height="14" rx="2" fill="#7C3AED" /><rect x="226" y="216" width="14" height="14" rx="2" fill="#7C3AED" /><rect x="240" y="216" width="14" height="14" rx="2" fill="#7C3AED" /><rect x="254" y="216" width="14" height="14" rx="2" fill="#7C3AED" /><rect x="268" y="216" width="14" height="14" rx="2" fill="#7C3AED" /><rect x="282" y="216" width="14" height="14" rx="2" fill="#5B21B6" /><rect x="296" y="216" width="14" height="14" rx="2" fill="#5B21B6" /><rect x="310" y="216" width="14" height="14" rx="2" fill="#1E1B4B" /><rect x="324" y="216" width="14" height="14" rx="2" fill="#1E1B4B" /><rect x="338" y="216" width="14" height="14" rx="2" fill="#1E1B4B" /><rect x="352" y="216" width="14" height="14" rx="2" fill="#1E1B4B" /><rect x="114" y="230" width="14" height="14" rx="2" fill="#1E1B4B" /><rect x="128" y="230" width="14" height="14" rx="2" fill="#1E1B4B" /><rect x="142" y="230" width="14" height="14" rx="2" fill="#1E1B4B" /><rect x="156" y="230" width="14" height="14" rx="2" fill="#1E1B4B" /><rect x="170" y="230" width="14" height="14" rx="2" fill="#5B21B6" /><rect x="184" y="230" width="14" height="14" rx="2" fill="#5B21B6" /><rect x="198" y="230" width="14" height="14" rx="2" fill="#5B21B6" /><rect x="212" y="230" width="14" height="14" rx="2" fill="#7C3AED" /><rect x="226" y="230" width="14" height="14" rx="2" fill="#7C3AED" /><rect x="240" y="230" width="14" height="14" rx="2" fill="#7C3AED" /><rect x="254" y="230" width="14" height="14" rx="2" fill="#5B21B6" /><rect x="268" y="230" width="14" height="14" rx="2" fill="#5B21B6" /><rect x="282" y="230" width="14" height="14" rx="2" fill="#5B21B6" /><rect x="296" y="230" width="14" height="14" rx="2" fill="#1E1B4B" /><rect x="310" y="230" width="14" height="14" rx="2" fill="#1E1B4B" /><rect x="324" y="230" width="14" height="14" rx="2" fill="#1E1B4B" /><rect x="338" y="230" width="14" height="14" rx="2" fill="#1E1B4B" /><rect x="352" y="230" width="14" height="14" rx="2" fill="#1E1B4B" /><rect x="114" y="244" width="14" height="14" rx="2" fill="#1E1B4B" /><rect x="128" y="244" width="14" height="14" rx="2" fill="#1E1B4B" /><rect x="142" y="244" width="14" height="14" rx="2" fill="#1E1B4B" /><rect x="156" y="244" width="14" height="14" rx="2" fill="#1E1B4B" /><rect x="170" y="244" width="14" height="14" rx="2" fill="#1E1B4B" /><rect x="184" y="244" width="14" height="14" rx="2" fill="#1E1B4B" /><rect x="198" y="244" width="14" height="14" rx="2" fill="#5B21B6" /><rect x="212" y="244" width="14" height="14" rx="2" fill="#5B21B6" /><rect x="226" y="244" width="14" height="14" rx="2" fill="#5B21B6" /><rect x="240" y="244" width="14" height="14" rx="2" fill="#5B21B6" /><rect x="254" y="244" width="14" height="14" rx="2" fill="#5B21B6" /><rect x="268" y="244" width="14" height="14" rx="2" fill="#5B21B6" /><rect x="282" y="244" width="14" height="14" rx="2" fill="#1E1B4B" /><rect x="296" y="244" width="14" height="14" rx="2" fill="#1E1B4B" /><rect x="310" y="244" width="14" height="14" rx="2" fill="#1E1B4B" /><rect x="324" y="244" width="14" height="14" rx="2" fill="#1E1B4B" /><rect x="338" y="244" width="14" height="14" rx="2" fill="#1E1B4B" /><rect x="352" y="244" width="14" height="14" rx="2" fill="#1E1B4B" /><rect x="114" y="258" width="14" height="14" rx="2" fill="#1E1B4B" /><rect x="128" y="258" width="14" height="14" rx="2" fill="#1E1B4B" /><rect x="142" y="258" width="14" height="14" rx="2" fill="#1E1B4B" /><rect x="156" y="258" width="14" height="14" rx="2" fill="#1E1B4B" /><rect x="170" y="258" width="14" height="14" rx="2" fill="#1E1B4B" /><rect x="184" y="258" width="14" height="14" rx="2" fill="#1E1B4B" /><rect x="198" y="258" width="14" height="14" rx="2" fill="#1E1B4B" /><rect x="212" y="258" width="14" height="14" rx="2" fill="#1E1B4B" /><rect x="226" y="258" width="14" height="14" rx="2" fill="#5B21B6" /><rect x="240" y="258" width="14" height="14" rx="2" fill="#5B21B6" /><rect x="254" y="258" width="14" height="14" rx="2" fill="#1E1B4B" /><rect x="268" y="258" width="14" height="14" rx="2" fill="#1E1B4B" /><rect x="282" y="258" width="14" height="14" rx="2" fill="#1E1B4B" /><rect x="296" y="258" width="14" height="14" rx="2" fill="#1E1B4B" /><rect x="310" y="258" width="14" height="14" rx="2" fill="#1E1B4B" /><rect x="324" y="258" width="14" height="14" rx="2" fill="#1E1B4B" /><rect x="338" y="258" width="14" height="14" rx="2" fill="#1E1B4B" /><rect x="352" y="258" width="14" height="14" rx="2" fill="#1E1B4B" />
  <rect x="390" y="16" width="74" height="26" rx="13" fill="#ef4444" />
  <text x="427" y="33" text-anchor="middle" fill="#fff" font-size="13" font-family="system-ui, sans-serif" font-weight="600">困难</text>
  <text x="240" y="340" text-anchor="middle" fill="#1f2937" font-size="20" font-family="system-ui, sans-serif" font-weight="700">星河漩涡</text>
</svg>