<svg xmlns="http://www.w3.org/2000/svg" viewBox="0 0 480 360" width="480" height="360">
  <defs>
    <linearGradient id="bgpokemoncharizard013" x1="0%" y1="0%" x2="100%" y2="100%">
      <stop offset="0%" stop-color="#EF4444" stop-opacity="0.25"/>
      <stop offset="100%" stop-color="#FBBF24" stop-opacity="0.25"/>
    </linearGradient>
    <linearGradient id="cardpokemoncharizard013" x1="0%" y1="0%" x2="0%" y2="100%">
      <stop offset="0%" stop-color="#ffffff" stop-opacity="0.98"/>
      <stop offset="100%" stop-color="#f5f5f7" stop-opacity="0.95"/>
    </linearGradient>
    <linearGradient id="boardpokemoncharizard013" x1="0%" y1="0%" x2="0%" y2="100%">
      <stop offset="0%" stop-color="#1d1d1f" stop-opacity="0.04"/>
      <stop offset="100%" stop-color="#1d1d1f" stop-opacity="0.08"/>
    </linearGradient>
    <filter id="shadowpokemoncharizard013" x="-10%" y="-10%" width="120%" height="120%">
      <feGaussianBlur in="SourceAlpha" stdDeviation="4"/>
      <feOffset dx="0" dy="2"/>
      <feComponentTransfer><feFuncA type="linear" slope="0.15"/></feComponentTransfer>
      <feMerge><feMergeNode/><feMergeNode in="SourceGraphic"/></feMerge>
    </filter>
  </defs>
  <rect width="480" height="360" fill="#fafafa"/>
  <rect width="480" height="360" fill="url(#bgpokemoncharizard013)"/>
  <path d="M 0 340 Q 240 320 480 340" stroke="#3B82F6" stroke-width="1" fill="none" opacity="0.15"/>
  <path d="M 0 20 Q 240 0 480 20" stroke="#EF4444" stroke-width="1" fill="none" opacity="0.2"/>
  <circle cx="30" cy="25" r="2" fill="#EF4444" opacity="0.15"/>
  <circle cx="86" cy="72" r="3" fill="#FBBF24" opacity="0.22999999999999998"/>
  <circle cx="142" cy="119" r="4" fill="#3B82F6" opacity="0.31"/>
  <circle cx="198" cy="166" r="5" fill="#EF4444" opacity="0.15"/>
  <circle cx="254" cy="213" r="2" fill="#FBBF24" opacity="0.22999999999999998"/>
  <circle cx="310" cy="260" r="3" fill="#3B82F6" opacity="0.31"/>
  <circle cx="366" cy="307" r="4" fill="#EF4444" opacity="0.15"/>
  <circle cx="422" cy="34" r="5" fill="#FBBF24" opacity="0.22999999999999998"/>
  <rect x="138" y="70" width="204" height="232" rx="18" fill="url(#cardpokemoncharizard013)" stroke="rgba(0,0,0,0.06)" stroke-width="1" filter="url(#shadowpokemoncharizard013)"/>
  <!-- 像素预览底板（深色，让浅色像素可见） -->
  <rect x="152" y="84" width="176" height="176" rx="6" fill="#f5f5f7" stroke="rgba(0,0,0,0.08)" stroke-width="1"/>
  <!-- 像素网格 -->
  <rect x="236.77" y="88.00" width="6.46" height="6.46" fill="#FBBF24"/><rect x="223.85" y="94.46" width="6.46" height="6.46" fill="#FBBF24"/><rect x="230.31" y="94.46" width="6.46" height="6.46" fill="#FBBF24"/><rect x="236.77" y="94.46" width="6.46" height="6.46" fill="#FBBF24"/><rect x="243.23" y="94.46" width="6.46" height="6.46" fill="#FBBF24"/><rect x="249.69" y="94.46" width="6.46" height="6.46" fill="#FBBF24"/><rect x="159.23" y="100.92" width="6.46" height="6.46" fill="#3B82F6"/><rect x="217.38" y="100.92" width="6.46" height="6.46" fill="#FBBF24"/><rect x="223.85" y="100.92" width="6.46" height="6.46" fill="#FBBF24"/><rect x="230.31" y="100.92" width="6.46" height="6.46" fill="#FBBF24"/><rect x="236.77" y="100.92" width="6.46" height="6.46" fill="#FBBF24"/><rect x="243.23" y="100.92" width="6.46" height="6.46" fill="#FBBF24"/><rect x="249.69" y="100.92" width="6.46" height="6.46" fill="#FBBF24"/><rect x="256.15" y="100.92" width="6.46" height="6.46" fill="#FBBF24"/><rect x="314.31" y="100.92" width="6.46" height="6.46" fill="#3B82F6"/><rect x="165.69" y="107.38" width="6.46" height="6.46" fill="#3B82F6"/><rect x="172.15" y="107.38" width="6.46" height="6.46" fill="#3B82F6"/><rect x="217.38" y="107.38" width="6.46" height="6.46" fill="#FBBF24"/><rect x="223.85" y="107.38" width="6.46" height="6.46" fill="#1A1A1A"/><rect x="230.31" y="107.38" width="6.46" height="6.46" fill="#FBBF24"/><rect x="236.77" y="107.38" width="6.46" height="6.46" fill="#FBBF24"/><rect x="243.23" y="107.38" width="6.46" height="6.46" fill="#FBBF24"/><rect x="249.69" y="107.38" width="6.46" height="6.46" fill="#1A1A1A"/><rect x="256.15" y="107.38" width="6.46" height="6.46" fill="#FBBF24"/><rect x="301.38" y="107.38" width="6.46" height="6.46" fill="#3B82F6"/><rect x="307.85" y="107.38" width="6.46" height="6.46" fill="#3B82F6"/><rect x="159.23" y="113.85" width="6.46" height="6.46" fill="#3B82F6"/><rect x="178.62" y="113.85" width="6.46" height="6.46" fill="#3B82F6"/><rect x="198.00" y="113.85" width="6.46" height="6.46" fill="#FBBF24"/><rect x="204.46" y="113.85" width="6.46" height="6.46" fill="#FBBF24"/><rect x="210.92" y="113.85" width="6.46" height="6.46" fill="#FBBF24"/><rect x="217.38" y="113.85" width="6.46" height="6.46" fill="#FBBF24"/><rect x="223.85" y="113.85" width="6.46" height="6.46" fill="#FBBF24"/><rect x="230.31" y="113.85" width="6.46" height="6.46" fill="#FBBF24"/><rect x="236.77" y="113.85" width="6.46" height="6.46" fill="#FBBF24"/><rect x="243.23" y="113.85" width="6.46" height="6.46" fill="#FBBF24"/><rect x="249.69" y="113.85" width="6.46" height="6.46" fill="#FBBF24"/><rect x="256.15" y="113.85" width="6.46" height="6.46" fill="#FBBF24"/><rect x="262.62" y="113.85" width="6.46" height="6.46" fill="#FBBF24"/><rect x="269.08" y="113.85" width="6.46" height="6.46" fill="#FBBF24"/><rect x="275.54" y="113.85" width="6.46" height="6.46" fill="#FBBF24"/><rect x="294.92" y="113.85" width="6.46" height="6.46" fill="#3B82F6"/><rect x="314.31" y="113.85" width="6.46" height="6.46" fill="#3B82F6"/><rect x="165.69" y="120.31" width="6.46" height="6.46" fill="#3B82F6"/><rect x="172.15" y="120.31" width="6.46" height="6.46" fill="#3B82F6"/><rect x="185.08" y="120.31" width="6.46" height="6.46" fill="#3B82F6"/><rect x="191.54" y="120.31" width="6.46" height="6.46" fill="#3B82F6"/><rect x="198.00" y="120.31" width="6.46" height="6.46" fill="#FBBF24"/><rect x="204.46" y="120.31" width="6.46" height="6.46" fill="#FBBF24"/><rect x="210.92" y="120.31" width="6.46" height="6.46" fill="#FBBF24"/><rect x="217.38" y="120.31" width="6.46" height="6.46" fill="#FBBF24"/><rect x="223.85" y="120.31" width="6.46" height="6.46" fill="#FBBF24"/><rect x="230.31" y="120.31" width="6.46" height="6.46" fill="#FBBF24"/><rect x="236.77" y="120.31" width="6.46" height="6.46" fill="#FBBF24"/><rect x="243.23" y="120.31" width="6.46" height="6.46" fill="#FBBF24"/><rect x="249.69" y="120.31" width="6.46" height="6.46" fill="#FBBF24"/><rect x="256.15" y="120.31" width="6.46" height="6.46" fill="#FBBF24"/><rect x="262.62" y="120.31" width="6.46" height="6.46" fill="#FBBF24"/><rect x="269.08" y="120.31" width="6.46" height="6.46" fill="#FBBF24"/><rect x="275.54" y="120.31" width="6.46" height="6.46" fill="#FBBF24"/><rect x="282.00" y="120.31" width="6.46" height="6.46" fill="#3B82F6"/><rect x="288.46" y="120.31" width="6.46" height="6.46" fill="#3B82F6"/><rect x="301.38" y="120.31" width="6.46" height="6.46" fill="#3B82F6"/><rect x="307.85" y="120.31" width="6.46" height="6.46" fill="#3B82F6"/><rect x="159.23" y="126.77" width="6.46" height="6.46" fill="#3B82F6"/><rect x="165.69" y="126.77" width="6.46" height="6.46" fill="#3B82F6"/><rect x="172.15" y="126.77" width="6.46" height="6.46" fill="#1E40AF"/><rect x="178.62" y="126.77" width="6.46" height="6.46" fill="#3B82F6"/><rect x="185.08" y="126.77" width="6.46" height="6.46" fill="#3B82F6"/><rect x="198.00" y="126.77" width="6.46" height="6.46" fill="#3B82F6"/><rect x="204.46" y="126.77" width="6.46" height="6.46" fill="#FBBF24"/><rect x="210.92" y="126.77" width="6.46" height="6.46" fill="#FBBF24"/><rect x="217.38" y="126.77" width="6.46" height="6.46" fill="#FBBF24"/><rect x="223.85" y="126.77" width="6.46" height="6.46" fill="#1A1A1A"/><rect x="230.31" y="126.77" width="6.46" height="6.46" fill="#1A1A1A"/><rect x="236.77" y="126.77" width="6.46" height="6.46" fill="#1A1A1A"/><rect x="243.23" y="126.77" width="6.46" height="6.46" fill="#1A1A1A"/><rect x="249.69" y="126.77" width="6.46" height="6.46" fill="#1A1A1A"/><rect x="256.15" y="126.77" width="6.46" height="6.46" fill="#FBBF24"/><rect x="262.62" y="126.77" width="6.46" height="6.46" fill="#FBBF24"/><rect x="269.08" y="126.77" width="6.46" height="6.46" fill="#FBBF24"/><rect x="275.54" y="126.77" width="6.46" height="6.46" fill="#3B82F6"/><rect x="288.46" y="126.77" width="6.46" height="6.46" fill="#3B82F6"/><rect x="294.92" y="126.77" width="6.46" height="6.46" fill="#3B82F6"/><rect x="301.38" y="126.77" width="6.46" height="6.46" fill="#1E40AF"/><rect x="307.85" y="126.77" width="6.46" height="6.46" fill="#3B82F6"/><rect x="314.31" y="126.77" width="6.46" height="6.46" fill="#3B82F6"/><rect x="172.15" y="133.23" width="6.46" height="6.46" fill="#3B82F6"/><rect x="178.62" y="133.23" width="6.46" height="6.46" fill="#3B82F6"/><rect x="185.08" y="133.23" width="6.46" height="6.46" fill="#3B82F6"/><rect x="191.54" y="133.23" width="6.46" height="6.46" fill="#3B82F6"/><rect x="198.00" y="133.23" width="6.46" height="6.46" fill="#3B82F6"/><rect x="204.46" y="133.23" width="6.46" height="6.46" fill="#FBBF24"/><rect x="210.92" y="133.23" width="6.46" height="6.46" fill="#FBBF24"/><rect x="217.38" y="133.23" width="6.46" height="6.46" fill="#FBBF24"/><rect x="223.85" y="133.23" width="6.46" height="6.46" fill="#FBBF24"/><rect x="230.31" y="133.23" width="6.46" height="6.46" fill="#FBBF24"/><rect x="236.77" y="133.23" width="6.46" height="6.46" fill="#FBBF24"/><rect x="243.23" y="133.23" width="6.46" height="6.46" fill="#FBBF24"/><rect x="249.69" y="133.23" width="6.46" height="6.46" fill="#FBBF24"/><rect x="256.15" y="133.23" width="6.46" height="6.46" fill="#FBBF24"/><rect x="262.62" y="133.23" width="6.46" height="6.46" fill="#FBBF24"/><rect x="269.08" y="133.23" width="6.46" height="6.46" fill="#FBBF24"/><rect x="275.54" y="133.23" width="6.46" height="6.46" fill="#3B82F6"/><rect x="282.00" y="133.23" width="6.46" height="6.46" fill="#3B82F6"/><rect x="288.46" y="133.23" width="6.46" height="6.46" fill="#3B82F6"/><rect x="294.92" y="133.23" width="6.46" height="6.46" fill="#3B82F6"/><rect x="301.38" y="133.23" width="6.46" height="6.46" fill="#3B82F6"/><rect x="159.23" y="139.69" width="6.46" height="6.46" fill="#3B82F6"/><rect x="165.69" y="139.69" width="6.46" height="6.46" fill="#3B82F6"/><rect x="172.15" y="139.69" width="6.46" height="6.46" fill="#3B82F6"/><rect x="191.54" y="139.69" width="6.46" height="6.46" fill="#3B82F6"/><rect x="198.00" y="139.69" width="6.46" height="6.46" fill="#3B82F6"/><rect x="204.46" y="139.69" width="6.46" height="6.46" fill="#FBBF24"/><rect x="210.92" y="139.69" width="6.46" height="6.46" fill="#FBBF24"/><rect x="217.38" y="139.69" width="6.46" height="6.46" fill="#FBBF24"/><rect x="223.85" y="139.69" width="6.46" height="6.46" fill="#FBBF24"/><rect x="230.31" y="139.69" width="6.46" height="6.46" fill="#FBBF24"/><rect x="236.77" y="139.69" width="6.46" height="6.46" fill="#FBBF24"/><rect x="243.23" y="139.69" width="6.46" height="6.46" fill="#FBBF24"/><rect x="249.69" y="139.69" width="6.46" height="6.46" fill="#FBBF24"/><rect x="256.15" y="139.69" width="6.46" height="6.46" fill="#FBBF24"/><rect x="262.62" y="139.69" width="6.46" height="6.46" fill="#FBBF24"/><rect x="269.08" y="139.69" width="6.46" height="6.46" fill="#FBBF24"/><rect x="275.54" y="139.69" width="6.46" height="6.46" fill="#3B82F6"/><rect x="282.00" y="139.69" width="6.46" height="6.46" fill="#3B82F6"/><rect x="301.38" y="139.69" width="6.46" height="6.46" fill="#3B82F6"/><rect x="307.85" y="139.69" width="6.46" height="6.46" fill="#3B82F6"/><rect x="314.31" y="139.69" width="6.46" height="6.46" fill="#3B82F6"/><rect x="178.62" y="146.15" width="6.46" height="6.46" fill="#3B82F6"/><rect x="185.08" y="146.15" width="6.46" height="6.46" fill="#3B82F6"/><rect x="191.54" y="146.15" width="6.46" height="6.46" fill="#3B82F6"/><rect x="198.00" y="146.15" width="6.46" height="6.46" fill="#3B82F6"/><rect x="204.46" y="146.15" width="6.46" height="6.46" fill="#FBBF24"/><rect x="210.92" y="146.15" width="6.46" height="6.46" fill="#FBBF24"/><rect x="217.38" y="146.15" width="6.46" height="6.46" fill="#FBBF24"/><rect x="223.85" y="146.15" width="6.46" height="6.46" fill="#FBBF24"/><rect x="230.31" y="146.15" width="6.46" height="6.46" fill="#FBBF24"/><rect x="236.77" y="146.15" width="6.46" height="6.46" fill="#FBBF24"/><rect x="243.23" y="146.15" width="6.46" height="6.46" fill="#FBBF24"/><rect x="249.69" y="146.15" width="6.46" height="6.46" fill="#FBBF24"/><rect x="256.15" y="146.15" width="6.46" height="6.46" fill="#FBBF24"/><rect x="262.62" y="146.15" width="6.46" height="6.46" fill="#FBBF24"/><rect x="269.08" y="146.15" width="6.46" height="6.46" fill="#FBBF24"/><rect x="275.54" y="146.15" width="6.46" height="6.46" fill="#3B82F6"/><rect x="282.00" y="146.15" width="6.46" height="6.46" fill="#3B82F6"/><rect x="288.46" y="146.15" width="6.46" height="6.46" fill="#3B82F6"/><rect x="294.92" y="146.15" width="6.46" height="6.46" fill="#3B82F6"/><rect x="159.23" y="152.62" width="6.46" height="6.46" fill="#3B82F6"/><rect x="165.69" y="152.62" width="6.46" height="6.46" fill="#3B82F6"/><rect x="172.15" y="152.62" width="6.46" height="6.46" fill="#3B82F6"/><rect x="178.62" y="152.62" width="6.46" height="6.46" fill="#3B82F6"/><rect x="185.08" y="152.62" width="6.46" height="6.46" fill="#3B82F6"/><rect x="191.54" y="152.62" width="6.46" height="6.46" fill="#3B82F6"/><rect x="198.00" y="152.62" width="6.46" height="6.46" fill="#3B82F6"/><rect x="204.46" y="152.62" width="6.46" height="6.46" fill="#FBBF24"/><rect x="210.92" y="152.62" width="6.46" height="6.46" fill="#FBBF24"/><rect x="217.38" y="152.62" width="6.46" height="6.46" fill="#FBBF24"/><rect x="223.85" y="152.62" width="6.46" height="6.46" fill="#FBBF24"/><rect x="230.31" y="152.62" width="6.46" height="6.46" fill="#FBBF24"/><rect x="236.77" y="152.62" width="6.46" height="6.46" fill="#FBBF24"/><rect x="243.23" y="152.62" width="6.46" height="6.46" fill="#FBBF24"/><rect x="249.69" y="152.62" width="6.46" height="6.46" fill="#FBBF24"/><rect x="256.15" y="152.62" width="6.46" height="6.46" fill="#FBBF24"/><rect x="262.62" y="152.62" width="6.46" height="6.46" fill="#FBBF24"/><rect x="269.08" y="152.62" width="6.46" height="6.46" fill="#FBBF24"/><rect x="275.54" y="152.62" width="6.46" height="6.46" fill="#3B82F6"/><rect x="282.00" y="152.62" width="6.46" height="6.46" fill="#3B82F6"/><rect x="288.46" y="152.62" width="6.46" height="6.46" fill="#3B82F6"/><rect x="294.92" y="152.62" width="6.46" height="6.46" fill="#3B82F6"/><rect x="301.38" y="152.62" width="6.46" height="6.46" fill="#3B82F6"/><rect x="307.85" y="152.62" width="6.46" height="6.46" fill="#3B82F6"/><rect x="314.31" y="152.62" width="6.46" height="6.46" fill="#3B82F6"/><rect x="198.00" y="159.08" width="6.46" height="6.46" fill="#FBBF24"/><rect x="204.46" y="159.08" width="6.46" height="6.46" fill="#FBBF24"/><rect x="210.92" y="159.08" width="6.46" height="6.46" fill="#FBBF24"/><rect x="217.38" y="159.08" width="6.46" height="6.46" fill="#FBBF24"/><rect x="223.85" y="159.08" width="6.46" height="6.46" fill="#FBBF24"/><rect x="230.31" y="159.08" width="6.46" height="6.46" fill="#FBBF24"/><rect x="236.77" y="159.08" width="6.46" height="6.46" fill="#FBBF24"/><rect x="243.23" y="159.08" width="6.46" height="6.46" fill="#FBBF24"/><rect x="249.69" y="159.08" width="6.46" height="6.46" fill="#FBBF24"/><rect x="256.15" y="159.08" width="6.46" height="6.46" fill="#FBBF24"/><rect x="262.62" y="159.08" width="6.46" height="6.46" fill="#FBBF24"/><rect x="269.08" y="159.08" width="6.46" height="6.46" fill="#FBBF24"/><rect x="275.54" y="159.08" width="6.46" height="6.46" fill="#FBBF24"/><rect x="198.00" y="165.54" width="6.46" height="6.46" fill="#FBBF24"/><rect x="204.46" y="165.54" width="6.46" height="6.46" fill="#FBBF24"/><rect x="210.92" y="165.54" width="6.46" height="6.46" fill="#FBBF24"/><rect x="217.38" y="165.54" width="6.46" height="6.46" fill="#FBBF24"/><rect x="223.85" y="165.54" width="6.46" height="6.46" fill="#22C55E"/><rect x="230.31" y="165.54" width="6.46" height="6.46" fill="#22C55E"/><rect x="236.77" y="165.54" width="6.46" height="6.46" fill="#22C55E"/><rect x="243.23" y="165.54" width="6.46" height="6.46" fill="#22C55E"/><rect x="249.69" y="165.54" width="6.46" height="6.46" fill="#22C55E"/><rect x="256.15" y="165.54" width="6.46" height="6.46" fill="#FBBF24"/><rect x="262.62" y="165.54" width="6.46" height="6.46" fill="#FBBF24"/><rect x="269.08" y="165.54" width="6.46" height="6.46" fill="#FBBF24"/><rect x="275.54" y="165.54" width="6.46" height="6.46" fill="#FBBF24"/><rect x="198.00" y="172.00" width="6.46" height="6.46" fill="#FBBF24"/><rect x="204.46" y="172.00" width="6.46" height="6.46" fill="#FBBF24"/><rect x="210.92" y="172.00" width="6.46" height="6.46" fill="#FBBF24"/><rect x="217.38" y="172.00" width="6.46" height="6.46" fill="#FBBF24"/><rect x="223.85" y="172.00" width="6.46" height="6.46" fill="#22C55E"/><rect x="230.31" y="172.00" width="6.46" height="6.46" fill="#22C55E"/><rect x="236.77" y="172.00" width="6.46" height="6.46" fill="#22C55E"/><rect x="243.23" y="172.00" width="6.46" height="6.46" fill="#22C55E"/><rect x="249.69" y="172.00" width="6.46" height="6.46" fill="#22C55E"/><rect x="256.15" y="172.00" width="6.46" height="6.46" fill="#FBBF24"/><rect x="262.62" y="172.00" width="6.46" height="6.46" fill="#FBBF24"/><rect x="269.08" y="172.00" width="6.46" height="6.46" fill="#FBBF24"/><rect x="275.54" y="172.00" width="6.46" height="6.46" fill="#FBBF24"/><rect x="198.00" y="178.46" width="6.46" height="6.46" fill="#FBBF24"/><rect x="204.46" y="178.46" width="6.46" height="6.46" fill="#FBBF24"/><rect x="210.92" y="178.46" width="6.46" height="6.46" fill="#FBBF24"/><rect x="217.38" y="178.46" width="6.46" height="6.46" fill="#FBBF24"/><rect x="223.85" y="178.46" width="6.46" height="6.46" fill="#22C55E"/><rect x="230.31" y="178.46" width="6.46" height="6.46" fill="#22C55E"/><rect x="236.77" y="178.46" width="6.46" height="6.46" fill="#22C55E"/><rect x="243.23" y="178.46" width="6.46" height="6.46" fill="#22C55E"/><rect x="249.69" y="178.46" width="6.46" height="6.46" fill="#22C55E"/><rect x="256.15" y="178.46" width="6.46" height="6.46" fill="#FBBF24"/><rect x="262.62" y="178.46" width="6.46" height="6.46" fill="#FBBF24"/><rect x="269.08" y="178.46" width="6.46" height="6.46" fill="#FBBF24"/><rect x="275.54" y="178.46" width="6.46" height="6.46" fill="#FBBF24"/><rect x="198.00" y="184.92" width="6.46" height="6.46" fill="#FBBF24"/><rect x="204.46" y="184.92" width="6.46" height="6.46" fill="#FBBF24"/><rect x="210.92" y="184.92" width="6.46" height="6.46" fill="#FBBF24"/><rect x="217.38" y="184.92" width="6.46" height="6.46" fill="#FBBF24"/><rect x="223.85" y="184.92" width="6.46" height="6.46" fill="#22C55E"/><rect x="230.31" y="184.92" width="6.46" height="6.46" fill="#22C55E"/><rect x="236.77" y="184.92" width="6.46" height="6.46" fill="#22C55E"/><rect x="243.23" y="184.92" width="6.46" height="6.46" fill="#22C55E"/><rect x="249.69" y="184.92" width="6.46" height="6.46" fill="#22C55E"/><rect x="256.15" y="184.92" width="6.46" height="6.46" fill="#FBBF24"/><rect x="262.62" y="184.92" width="6.46" height="6.46" fill="#FBBF24"/><rect x="269.08" y="184.92" width="6.46" height="6.46" fill="#FBBF24"/><rect x="275.54" y="184.92" width="6.46" height="6.46" fill="#FBBF24"/><rect x="198.00" y="191.38" width="6.46" height="6.46" fill="#FBBF24"/><rect x="204.46" y="191.38" width="6.46" height="6.46" fill="#FBBF24"/><rect x="210.92" y="191.38" width="6.46" height="6.46" fill="#FBBF24"/><rect x="217.38" y="191.38" width="6.46" height="6.46" fill="#FBBF24"/><rect x="223.85" y="191.38" width="6.46" height="6.46" fill="#22C55E"/><rect x="230.31" y="191.38" width="6.46" height="6.46" fill="#22C55E"/><rect x="236.77" y="191.38" width="6.46" height="6.46" fill="#22C55E"/><rect x="243.23" y="191.38" width="6.46" height="6.46" fill="#22C55E"/><rect x="249.69" y="191.38" width="6.46" height="6.46" fill="#22C55E"/><rect x="256.15" y="191.38" width="6.46" height="6.46" fill="#FBBF24"/><rect x="262.62" y="191.38" width="6.46" height="6.46" fill="#FBBF24"/><rect x="269.08" y="191.38" width="6.46" height="6.46" fill="#FBBF24"/><rect x="275.54" y="191.38" width="6.46" height="6.46" fill="#FBBF24"/><rect x="223.85" y="197.85" width="6.46" height="6.46" fill="#22C55E"/><rect x="230.31" y="197.85" width="6.46" height="6.46" fill="#22C55E"/><rect x="236.77" y="197.85" width="6.46" height="6.46" fill="#22C55E"/><rect x="243.23" y="197.85" width="6.46" height="6.46" fill="#22C55E"/><rect x="249.69" y="197.85" width="6.46" height="6.46" fill="#22C55E"/><rect x="223.85" y="204.31" width="6.46" height="6.46" fill="#22C55E"/><rect x="230.31" y="204.31" width="6.46" height="6.46" fill="#22C55E"/><rect x="236.77" y="204.31" width="6.46" height="6.46" fill="#22C55E"/><rect x="243.23" y="204.31" width="6.46" height="6.46" fill="#22C55E"/><rect x="249.69" y="204.31" width="6.46" height="6.46" fill="#22C55E"/><rect x="236.77" y="230.15" width="6.46" height="6.46" fill="#15803D"/><rect x="236.77" y="236.62" width="6.46" height="6.46" fill="#15803D"/><rect x="236.77" y="243.08" width="6.46" height="6.46" fill="#15803D"/><rect x="236.77" y="249.54" width="6.46" height="6.46" fill="#15803D"/>
  <!-- 难度标签 -->
  <rect x="390" y="20" width="70" height="22" rx="11" fill="#ff3b30"/>
  <text x="425" y="35" font-family="-apple-system, sans-serif" font-size="11" font-weight="600" fill="#ffffff" text-anchor="middle">HARD</text>
  <!-- 分类标签 -->
  <rect x="20" y="20" width="72" height="22" rx="11" fill="#3B82F6" opacity="0.9"/>
  <text x="56" y="35" font-family="-apple-system, sans-serif" font-size="10" font-weight="600" fill="#ffffff" text-anchor="middle">POKEMON</text>
  <!-- 模板名 -->
  <text x="240" y="286" font-family="-apple-system, 'PingFang SC', sans-serif" font-size="16" font-weight="600" fill="#1d1d1f" text-anchor="middle">喷火龙</text>
  <text x="240" y="304" font-family="-apple-system, sans-serif" font-size="11" font-weight="400" fill="#86868b" text-anchor="middle">265 beads · 32×32</text>
</svg>
