<svg xmlns="http://www.w3.org/2000/svg" viewBox="0 0 480 360" width="480" height="360">
  <defs>
    <linearGradient id="bgpokemonpikachu001" x1="0%" y1="0%" x2="100%" y2="100%">
      <stop offset="0%" stop-color="#EF4444" stop-opacity="0.25"/>
      <stop offset="100%" stop-color="#FBBF24" stop-opacity="0.25"/>
    </linearGradient>
    <linearGradient id="cardpokemonpikachu001" x1="0%" y1="0%" x2="0%" y2="100%">
      <stop offset="0%" stop-color="#ffffff" stop-opacity="0.98"/>
      <stop offset="100%" stop-color="#f5f5f7" stop-opacity="0.95"/>
    </linearGradient>
    <filter id="shadowpokemonpikachu001" x="-10%" y="-10%" width="120%" height="120%">
      <feGaussianBlur in="SourceAlpha" stdDeviation="4"/>
      <feOffset dx="0" dy="2"/>
      <feComponentTransfer><feFuncA type="linear" slope="0.15"/></feComponentTransfer>
      <feMerge><feMergeNode/><feMergeNode in="SourceGraphic"/></feMerge>
    </filter>
  </defs>
  <rect width="480" height="360" fill="#fafafa"/>
  <rect width="480" height="360" fill="url(#bgpokemonpikachu001)"/>
  <path d="M 0 340 Q 240 320 480 340" stroke="#3B82F6" stroke-width="1" fill="none" opacity="0.15"/>
  <path d="M 0 20 Q 240 0 480 20" stroke="#EF4444" stroke-width="1" fill="none" opacity="0.2"/>
  <circle cx="30" cy="25" r="2" fill="#EF4444" opacity="0.15"/>
  <circle cx="86" cy="72" r="3" fill="#FBBF24" opacity="0.22999999999999998"/>
  <circle cx="142" cy="119" r="4" fill="#3B82F6" opacity="0.31"/>
  <circle cx="198" cy="166" r="5" fill="#EF4444" opacity="0.15"/>
  <circle cx="254" cy="213" r="2" fill="#FBBF24" opacity="0.22999999999999998"/>
  <circle cx="310" cy="260" r="3" fill="#3B82F6" opacity="0.31"/>
  <circle cx="366" cy="307" r="4" fill="#EF4444" opacity="0.15"/>
  <circle cx="422" cy="34" r="5" fill="#FBBF24" opacity="0.22999999999999998"/>
  <rect x="138" y="70" width="204" height="232" rx="18" fill="url(#cardpokemonpikachu001)" stroke="rgba(0,0,0,0.06)" stroke-width="1" filter="url(#shadowpokemonpikachu001)"/>
  <rect x="152" y="84" width="176" height="176" rx="6" fill="#f5f5f7" stroke="rgba(0,0,0,0.08)" stroke-width="1"/>
  <rect x="191.00" y="88.00" width="7.00" height="7.00" rx="0.84" fill="#1A1A1A"/><rect x="198.00" y="88.00" width="7.00" height="7.00" rx="0.84" fill="#1A1A1A"/><rect x="275.00" y="88.00" width="7.00" height="7.00" rx="0.84" fill="#1A1A1A"/><rect x="282.00" y="88.00" width="7.00" height="7.00" rx="0.84" fill="#1A1A1A"/><rect x="184.00" y="95.00" width="7.00" height="7.00" rx="0.84" fill="#1A1A1A"/><rect x="191.00" y="95.00" width="7.00" height="7.00" rx="0.84" fill="#1A1A1A"/><rect x="198.00" y="95.00" width="7.00" height="7.00" rx="0.84" fill="#1A1A1A"/><rect x="205.00" y="95.00" width="7.00" height="7.00" rx="0.84" fill="#1A1A1A"/><rect x="268.00" y="95.00" width="7.00" height="7.00" rx="0.84" fill="#1A1A1A"/><rect x="275.00" y="95.00" width="7.00" height="7.00" rx="0.84" fill="#1A1A1A"/><rect x="282.00" y="95.00" width="7.00" height="7.00" rx="0.84" fill="#1A1A1A"/><rect x="289.00" y="95.00" width="7.00" height="7.00" rx="0.84" fill="#1A1A1A"/><rect x="184.00" y="102.00" width="7.00" height="7.00" rx="0.84" fill="#1A1A1A"/><rect x="191.00" y="102.00" width="7.00" height="7.00" rx="0.84" fill="#1A1A1A"/><rect x="198.00" y="102.00" width="7.00" height="7.00" rx="0.84" fill="#1A1A1A"/><rect x="205.00" y="102.00" width="7.00" height="7.00" rx="0.84" fill="#1A1A1A"/><rect x="268.00" y="102.00" width="7.00" height="7.00" rx="0.84" fill="#1A1A1A"/><rect x="275.00" y="102.00" width="7.00" height="7.00" rx="0.84" fill="#1A1A1A"/><rect x="282.00" y="102.00" width="7.00" height="7.00" rx="0.84" fill="#1A1A1A"/><rect x="289.00" y="102.00" width="7.00" height="7.00" rx="0.84" fill="#1A1A1A"/><rect x="184.00" y="109.00" width="7.00" height="7.00" rx="0.84" fill="#FFD93D"/><rect x="191.00" y="109.00" width="7.00" height="7.00" rx="0.84" fill="#FFD93D"/><rect x="198.00" y="109.00" width="7.00" height="7.00" rx="0.84" fill="#FFD93D"/><rect x="205.00" y="109.00" width="7.00" height="7.00" rx="0.84" fill="#FFD93D"/><rect x="268.00" y="109.00" width="7.00" height="7.00" rx="0.84" fill="#FFD93D"/><rect x="275.00" y="109.00" width="7.00" height="7.00" rx="0.84" fill="#FFD93D"/><rect x="282.00" y="109.00" width="7.00" height="7.00" rx="0.84" fill="#FFD93D"/><rect x="289.00" y="109.00" width="7.00" height="7.00" rx="0.84" fill="#FFD93D"/><rect x="184.00" y="116.00" width="7.00" height="7.00" rx="0.84" fill="#FFD93D"/><rect x="191.00" y="116.00" width="7.00" height="7.00" rx="0.84" fill="#FFD93D"/><rect x="198.00" y="116.00" width="7.00" height="7.00" rx="0.84" fill="#FFD93D"/><rect x="205.00" y="116.00" width="7.00" height="7.00" rx="0.84" fill="#FFD93D"/><rect x="268.00" y="116.00" width="7.00" height="7.00" rx="0.84" fill="#FFD93D"/><rect x="275.00" y="116.00" width="7.00" height="7.00" rx="0.84" fill="#FFD93D"/><rect x="282.00" y="116.00" width="7.00" height="7.00" rx="0.84" fill="#FFD93D"/><rect x="289.00" y="116.00" width="7.00" height="7.00" rx="0.84" fill="#FFD93D"/><rect x="184.00" y="123.00" width="7.00" height="7.00" rx="0.84" fill="#FFD93D"/><rect x="191.00" y="123.00" width="7.00" height="7.00" rx="0.84" fill="#FFD93D"/><rect x="198.00" y="123.00" width="7.00" height="7.00" rx="0.84" fill="#FFD93D"/><rect x="205.00" y="123.00" width="7.00" height="7.00" rx="0.84" fill="#FFD93D"/><rect x="268.00" y="123.00" width="7.00" height="7.00" rx="0.84" fill="#FFD93D"/><rect x="275.00" y="123.00" width="7.00" height="7.00" rx="0.84" fill="#FFD93D"/><rect x="282.00" y="123.00" width="7.00" height="7.00" rx="0.84" fill="#FFD93D"/><rect x="289.00" y="123.00" width="7.00" height="7.00" rx="0.84" fill="#FFD93D"/><rect x="184.00" y="130.00" width="7.00" height="7.00" rx="0.84" fill="#8B4513"/><rect x="191.00" y="130.00" width="7.00" height="7.00" rx="0.84" fill="#FFD93D"/><rect x="198.00" y="130.00" width="7.00" height="7.00" rx="0.84" fill="#FFD93D"/><rect x="205.00" y="130.00" width="7.00" height="7.00" rx="0.84" fill="#8B4513"/><rect x="268.00" y="130.00" width="7.00" height="7.00" rx="0.84" fill="#8B4513"/><rect x="275.00" y="130.00" width="7.00" height="7.00" rx="0.84" fill="#FFD93D"/><rect x="282.00" y="130.00" width="7.00" height="7.00" rx="0.84" fill="#FFD93D"/><rect x="289.00" y="130.00" width="7.00" height="7.00" rx="0.84" fill="#8B4513"/><rect x="184.00" y="137.00" width="7.00" height="7.00" rx="0.84" fill="#5C3317"/><rect x="191.00" y="137.00" width="7.00" height="7.00" rx="0.84" fill="#8B4513"/><rect x="198.00" y="137.00" width="7.00" height="7.00" rx="0.84" fill="#8B4513"/><rect x="205.00" y="137.00" width="7.00" height="7.00" rx="0.84" fill="#5C3317"/><rect x="268.00" y="137.00" width="7.00" height="7.00" rx="0.84" fill="#5C3317"/><rect x="275.00" y="137.00" width="7.00" height="7.00" rx="0.84" fill="#8B4513"/><rect x="282.00" y="137.00" width="7.00" height="7.00" rx="0.84" fill="#8B4513"/><rect x="289.00" y="137.00" width="7.00" height="7.00" rx="0.84" fill="#5C3317"/><rect x="198.00" y="144.00" width="7.00" height="7.00" rx="0.84" fill="#FFD93D"/><rect x="205.00" y="144.00" width="7.00" height="7.00" rx="0.84" fill="#FFD93D"/><rect x="212.00" y="144.00" width="7.00" height="7.00" rx="0.84" fill="#FFD93D"/><rect x="219.00" y="144.00" width="7.00" height="7.00" rx="0.84" fill="#FFD93D"/><rect x="226.00" y="144.00" width="7.00" height="7.00" rx="0.84" fill="#FFD93D"/><rect x="233.00" y="144.00" width="7.00" height="7.00" rx="0.84" fill="#FFD93D"/><rect x="240.00" y="144.00" width="7.00" height="7.00" rx="0.84" fill="#FFD93D"/><rect x="247.00" y="144.00" width="7.00" height="7.00" rx="0.84" fill="#FFD93D"/><rect x="254.00" y="144.00" width="7.00" height="7.00" rx="0.84" fill="#FFD93D"/><rect x="261.00" y="144.00" width="7.00" height="7.00" rx="0.84" fill="#FFD93D"/><rect x="268.00" y="144.00" width="7.00" height="7.00" rx="0.84" fill="#FFD93D"/><rect x="275.00" y="144.00" width="7.00" height="7.00" rx="0.84" fill="#FFD93D"/><rect x="191.00" y="151.00" width="7.00" height="7.00" rx="0.84" fill="#FFD93D"/><rect x="198.00" y="151.00" width="7.00" height="7.00" rx="0.84" fill="#FFD93D"/><rect x="205.00" y="151.00" width="7.00" height="7.00" rx="0.84" fill="#FFD93D"/><rect x="212.00" y="151.00" width="7.00" height="7.00" rx="0.84" fill="#FFD93D"/><rect x="219.00" y="151.00" width="7.00" height="7.00" rx="0.84" fill="#FFD93D"/><rect x="226.00" y="151.00" width="7.00" height="7.00" rx="0.84" fill="#FFD93D"/><rect x="233.00" y="151.00" width="7.00" height="7.00" rx="0.84" fill="#FFD93D"/><rect x="240.00" y="151.00" width="7.00" height="7.00" rx="0.84" fill="#FFD93D"/><rect x="247.00" y="151.00" width="7.00" height="7.00" rx="0.84" fill="#FFD93D"/><rect x="254.00" y="151.00" width="7.00" height="7.00" rx="0.84" fill="#FFD93D"/><rect x="261.00" y="151.00" width="7.00" height="7.00" rx="0.84" fill="#FFD93D"/><rect x="268.00" y="151.00" width="7.00" height="7.00" rx="0.84" fill="#FFD93D"/><rect x="275.00" y="151.00" width="7.00" height="7.00" rx="0.84" fill="#FFD93D"/><rect x="282.00" y="151.00" width="7.00" height="7.00" rx="0.84" fill="#FFD93D"/><rect x="184.00" y="158.00" width="7.00" height="7.00" rx="0.84" fill="#F5C400"/><rect x="191.00" y="158.00" width="7.00" height="7.00" rx="0.84" fill="#FFD93D"/><rect x="198.00" y="158.00" width="7.00" height="7.00" rx="0.84" fill="#FFD93D"/><rect x="205.00" y="158.00" width="7.00" height="7.00" rx="0.84" fill="#FFD93D"/><rect x="212.00" y="158.00" width="7.00" height="7.00" rx="0.84" fill="#FFD93D"/><rect x="219.00" y="158.00" width="7.00" height="7.00" rx="0.84" fill="#FFD93D"/><rect x="226.00" y="158.00" width="7.00" height="7.00" rx="0.84" fill="#FFD93D"/><rect x="233.00" y="158.00" width="7.00" height="7.00" rx="0.84" fill="#FFD93D"/><rect x="240.00" y="158.00" width="7.00" height="7.00" rx="0.84" fill="#FFD93D"/><rect x="247.00" y="158.00" width="7.00" height="7.00" rx="0.84" fill="#FFD93D"/><rect x="254.00" y="158.00" width="7.00" height="7.00" rx="0.84" fill="#FFD93D"/><rect x="261.00" y="158.00" width="7.00" height="7.00" rx="0.84" fill="#FFD93D"/><rect x="268.00" y="158.00" width="7.00" height="7.00" rx="0.84" fill="#FFD93D"/><rect x="275.00" y="158.00" width="7.00" height="7.00" rx="0.84" fill="#FFD93D"/><rect x="282.00" y="158.00" width="7.00" height="7.00" rx="0.84" fill="#FFD93D"/><rect x="289.00" y="158.00" width="7.00" height="7.00" rx="0.84" fill="#F5C400"/><rect x="177.00" y="165.00" width="7.00" height="7.00" rx="0.84" fill="#FFD93D"/><rect x="184.00" y="165.00" width="7.00" height="7.00" rx="0.84" fill="#FFD93D"/><rect x="191.00" y="165.00" width="7.00" height="7.00" rx="0.84" fill="#FFD93D"/><rect x="198.00" y="165.00" width="7.00" height="7.00" rx="0.84" fill="#1A1A1A"/><rect x="205.00" y="165.00" width="7.00" height="7.00" rx="0.84" fill="#1A1A1A"/><rect x="212.00" y="165.00" width="7.00" height="7.00" rx="0.84" fill="#FFD93D"/><rect x="219.00" y="165.00" width="7.00" height="7.00" rx="0.84" fill="#FFD93D"/><rect x="226.00" y="165.00" width="7.00" height="7.00" rx="0.84" fill="#FFD93D"/><rect x="233.00" y="165.00" width="7.00" height="7.00" rx="0.84" fill="#FFD93D"/><rect x="240.00" y="165.00" width="7.00" height="7.00" rx="0.84" fill="#FFD93D"/><rect x="247.00" y="165.00" width="7.00" height="7.00" rx="0.84" fill="#FFD93D"/><rect x="254.00" y="165.00" width="7.00" height="7.00" rx="0.84" fill="#FFD93D"/><rect x="261.00" y="165.00" width="7.00" height="7.00" rx="0.84" fill="#FFD93D"/><rect x="268.00" y="165.00" width="7.00" height="7.00" rx="0.84" fill="#1A1A1A"/><rect x="275.00" y="165.00" width="7.00" height="7.00" rx="0.84" fill="#1A1A1A"/><rect x="282.00" y="165.00" width="7.00" height="7.00" rx="0.84" fill="#FFD93D"/><rect x="289.00" y="165.00" width="7.00" height="7.00" rx="0.84" fill="#FFD93D"/><rect x="296.00" y="165.00" width="7.00" height="7.00" rx="0.84" fill="#FFD93D"/><rect x="177.00" y="172.00" width="7.00" height="7.00" rx="0.84" fill="#FFD93D"/><rect x="184.00" y="172.00" width="7.00" height="7.00" rx="0.84" fill="#FFD93D"/><rect x="191.00" y="172.00" width="7.00" height="7.00" rx="0.84" fill="#FFD93D"/><rect x="198.00" y="172.00" width="7.00" height="7.00" rx="0.84" fill="#1A1A1A"/><rect x="205.00" y="172.00" width="7.00" height="7.00" rx="0.84" fill="#FFFFFF"/><rect x="212.00" y="172.00" width="7.00" height="7.00" rx="0.84" fill="#FFD93D"/><rect x="219.00" y="172.00" width="7.00" height="7.00" rx="0.84" fill="#FFD93D"/><rect x="226.00" y="172.00" width="7.00" height="7.00" rx="0.84" fill="#FFD93D"/><rect x="233.00" y="172.00" width="7.00" height="7.00" rx="0.84" fill="#FFD93D"/><rect x="240.00" y="172.00" width="7.00" height="7.00" rx="0.84" fill="#FFD93D"/><rect x="247.00" y="172.00" width="7.00" height="7.00" rx="0.84" fill="#FFD93D"/><rect x="254.00" y="172.00" width="7.00" height="7.00" rx="0.84" fill="#FFD93D"/><rect x="261.00" y="172.00" width="7.00" height="7.00" rx="0.84" fill="#FFD93D"/><rect x="268.00" y="172.00" width="7.00" height="7.00" rx="0.84" fill="#FFFFFF"/><rect x="275.00" y="172.00" width="7.00" height="7.00" rx="0.84" fill="#1A1A1A"/><rect x="282.00" y="172.00" width="7.00" height="7.00" rx="0.84" fill="#FFD93D"/><rect x="289.00" y="172.00" width="7.00" height="7.00" rx="0.84" fill="#FFD93D"/><rect x="296.00" y="172.00" width="7.00" height="7.00" rx="0.84" fill="#FFD93D"/><rect x="177.00" y="179.00" width="7.00" height="7.00" rx="0.84" fill="#FFD93D"/><rect x="184.00" y="179.00" width="7.00" height="7.00" rx="0.84" fill="#FFD93D"/><rect x="191.00" y="179.00" width="7.00" height="7.00" rx="0.84" fill="#FFD93D"/><rect x="198.00" y="179.00" width="7.00" height="7.00" rx="0.84" fill="#FFD93D"/><rect x="205.00" y="179.00" width="7.00" height="7.00" rx="0.84" fill="#FFD93D"/><rect x="212.00" y="179.00" width="7.00" height="7.00" rx="0.84" fill="#FFD93D"/><rect x="219.00" y="179.00" width="7.00" height="7.00" rx="0.84" fill="#FFD93D"/><rect x="226.00" y="179.00" width="7.00" height="7.00" rx="0.84" fill="#FFD93D"/><rect x="233.00" y="179.00" width="7.00" height="7.00" rx="0.84" fill="#1A1A1A"/><rect x="240.00" y="179.00" width="7.00" height="7.00" rx="0.84" fill="#1A1A1A"/><rect x="247.00" y="179.00" width="7.00" height="7.00" rx="0.84" fill="#FFD93D"/><rect x="254.00" y="179.00" width="7.00" height="7.00" rx="0.84" fill="#FFD93D"/><rect x="261.00" y="179.00" width="7.00" height="7.00" rx="0.84" fill="#FFD93D"/><rect x="268.00" y="179.00" width="7.00" height="7.00" rx="0.84" fill="#FFD93D"/><rect x="275.00" y="179.00" width="7.00" height="7.00" rx="0.84" fill="#FFD93D"/><rect x="282.00" y="179.00" width="7.00" height="7.00" rx="0.84" fill="#FFD93D"/><rect x="289.00" y="179.00" width="7.00" height="7.00" rx="0.84" fill="#FFD93D"/><rect x="296.00" y="179.00" width="7.00" height="7.00" rx="0.84" fill="#FFD93D"/><rect x="177.00" y="186.00" width="7.00" height="7.00" rx="0.84" fill="#FFD93D"/><rect x="184.00" y="186.00" width="7.00" height="7.00" rx="0.84" fill="#FFD93D"/><rect x="191.00" y="186.00" width="7.00" height="7.00" rx="0.84" fill="#FF5252"/><rect x="198.00" y="186.00" width="7.00" height="7.00" rx="0.84" fill="#FFD93D"/><rect x="205.00" y="186.00" width="7.00" height="7.00" rx="0.84" fill="#FFD93D"/><rect x="212.00" y="186.00" width="7.00" height="7.00" rx="0.84" fill="#FFD93D"/><rect x="219.00" y="186.00" width="7.00" height="7.00" rx="0.84" fill="#FFD93D"/><rect x="226.00" y="186.00" width="7.00" height="7.00" rx="0.84" fill="#FFD93D"/><rect x="233.00" y="186.00" width="7.00" height="7.00" rx="0.84" fill="#FFD93D"/><rect x="240.00" y="186.00" width="7.00" height="7.00" rx="0.84" fill="#FFD93D"/><rect x="247.00" y="186.00" width="7.00" height="7.00" rx="0.84" fill="#FFD93D"/><rect x="254.00" y="186.00" width="7.00" height="7.00" rx="0.84" fill="#FFD93D"/><rect x="261.00" y="186.00" width="7.00" height="7.00" rx="0.84" fill="#FFD93D"/><rect x="268.00" y="186.00" width="7.00" height="7.00" rx="0.84" fill="#FFD93D"/><rect x="275.00" y="186.00" width="7.00" height="7.00" rx="0.84" fill="#FFD93D"/><rect x="282.00" y="186.00" width="7.00" height="7.00" rx="0.84" fill="#FF5252"/><rect x="289.00" y="186.00" width="7.00" height="7.00" rx="0.84" fill="#FFD93D"/><rect x="296.00" y="186.00" width="7.00" height="7.00" rx="0.84" fill="#FFD93D"/><rect x="177.00" y="193.00" width="7.00" height="7.00" rx="0.84" fill="#FFD93D"/><rect x="184.00" y="193.00" width="7.00" height="7.00" rx="0.84" fill="#FF5252"/><rect x="191.00" y="193.00" width="7.00" height="7.00" rx="0.84" fill="#FF5252"/><rect x="198.00" y="193.00" width="7.00" height="7.00" rx="0.84" fill="#FF5252"/><rect x="205.00" y="193.00" width="7.00" height="7.00" rx="0.84" fill="#FFD93D"/><rect x="212.00" y="193.00" width="7.00" height="7.00" rx="0.84" fill="#FFD93D"/><rect x="219.00" y="193.00" width="7.00" height="7.00" rx="0.84" fill="#FFD93D"/><rect x="226.00" y="193.00" width="7.00" height="7.00" rx="0.84" fill="#FFD93D"/><rect x="233.00" y="193.00" width="7.00" height="7.00" rx="0.84" fill="#FFD93D"/><rect x="240.00" y="193.00" width="7.00" height="7.00" rx="0.84" fill="#FFD93D"/><rect x="247.00" y="193.00" width="7.00" height="7.00" rx="0.84" fill="#FFD93D"/><rect x="254.00" y="193.00" width="7.00" height="7.00" rx="0.84" fill="#FFD93D"/><rect x="261.00" y="193.00" width="7.00" height="7.00" rx="0.84" fill="#FFD93D"/><rect x="268.00" y="193.00" width="7.00" height="7.00" rx="0.84" fill="#FF5252"/><rect x="275.00" y="193.00" width="7.00" height="7.00" rx="0.84" fill="#FF5252"/><rect x="282.00" y="193.00" width="7.00" height="7.00" rx="0.84" fill="#FF5252"/><rect x="289.00" y="193.00" width="7.00" height="7.00" rx="0.84" fill="#FFD93D"/><rect x="296.00" y="193.00" width="7.00" height="7.00" rx="0.84" fill="#FFD93D"/><rect x="177.00" y="200.00" width="7.00" height="7.00" rx="0.84" fill="#FFD93D"/><rect x="184.00" y="200.00" width="7.00" height="7.00" rx="0.84" fill="#FF5252"/><rect x="191.00" y="200.00" width="7.00" height="7.00" rx="0.84" fill="#FF5252"/><rect x="198.00" y="200.00" width="7.00" height="7.00" rx="0.84" fill="#FF5252"/><rect x="205.00" y="200.00" width="7.00" height="7.00" rx="0.84" fill="#FFD93D"/><rect x="212.00" y="200.00" width="7.00" height="7.00" rx="0.84" fill="#1A1A1A"/><rect x="219.00" y="200.00" width="7.00" height="7.00" rx="0.84" fill="#FFD93D"/><rect x="226.00" y="200.00" width="7.00" height="7.00" rx="0.84" fill="#1A1A1A"/><rect x="233.00" y="200.00" width="7.00" height="7.00" rx="0.84" fill="#FFD93D"/><rect x="240.00" y="200.00" width="7.00" height="7.00" rx="0.84" fill="#1A1A1A"/><rect x="247.00" y="200.00" width="7.00" height="7.00" rx="0.84" fill="#FFD93D"/><rect x="254.00" y="200.00" width="7.00" height="7.00" rx="0.84" fill="#1A1A1A"/><rect x="261.00" y="200.00" width="7.00" height="7.00" rx="0.84" fill="#FFD93D"/><rect x="268.00" y="200.00" width="7.00" height="7.00" rx="0.84" fill="#FF5252"/><rect x="275.00" y="200.00" width="7.00" height="7.00" rx="0.84" fill="#FF5252"/><rect x="282.00" y="200.00" width="7.00" height="7.00" rx="0.84" fill="#FF5252"/><rect x="289.00" y="200.00" width="7.00" height="7.00" rx="0.84" fill="#FFD93D"/><rect x="296.00" y="200.00" width="7.00" height="7.00" rx="0.84" fill="#FFD93D"/><rect x="184.00" y="207.00" width="7.00" height="7.00" rx="0.84" fill="#FFD93D"/><rect x="191.00" y="207.00" width="7.00" height="7.00" rx="0.84" fill="#FF5252"/><rect x="198.00" y="207.00" width="7.00" height="7.00" rx="0.84" fill="#FFD93D"/><rect x="205.00" y="207.00" width="7.00" height="7.00" rx="0.84" fill="#FFD93D"/><rect x="212.00" y="207.00" width="7.00" height="7.00" rx="0.84" fill="#FFD93D"/><rect x="219.00" y="207.00" width="7.00" height="7.00" rx="0.84" fill="#FFD93D"/><rect x="226.00" y="207.00" width="7.00" height="7.00" rx="0.84" fill="#FFD93D"/><rect x="233.00" y="207.00" width="7.00" height="7.00" rx="0.84" fill="#FFD93D"/><rect x="240.00" y="207.00" width="7.00" height="7.00" rx="0.84" fill="#FFD93D"/><rect x="247.00" y="207.00" width="7.00" height="7.00" rx="0.84" fill="#FFD93D"/><rect x="254.00" y="207.00" width="7.00" height="7.00" rx="0.84" fill="#FFD93D"/><rect x="261.00" y="207.00" width="7.00" height="7.00" rx="0.84" fill="#FFD93D"/><rect x="268.00" y="207.00" width="7.00" height="7.00" rx="0.84" fill="#FFD93D"/><rect x="275.00" y="207.00" width="7.00" height="7.00" rx="0.84" fill="#FFD93D"/><rect x="282.00" y="207.00" width="7.00" height="7.00" rx="0.84" fill="#FF5252"/><rect x="289.00" y="207.00" width="7.00" height="7.00" rx="0.84" fill="#FFD93D"/><rect x="191.00" y="214.00" width="7.00" height="7.00" rx="0.84" fill="#FFD93D"/><rect x="198.00" y="214.00" width="7.00" height="7.00" rx="0.84" fill="#FFD93D"/><rect x="205.00" y="214.00" width="7.00" height="7.00" rx="0.84" fill="#FFD93D"/><rect x="212.00" y="214.00" width="7.00" height="7.00" rx="0.84" fill="#FFD93D"/><rect x="219.00" y="214.00" width="7.00" height="7.00" rx="0.84" fill="#FFD93D"/><rect x="226.00" y="214.00" width="7.00" height="7.00" rx="0.84" fill="#FFD93D"/><rect x="233.00" y="214.00" width="7.00" height="7.00" rx="0.84" fill="#FFD93D"/><rect x="240.00" y="214.00" width="7.00" height="7.00" rx="0.84" fill="#FFD93D"/><rect x="247.00" y="214.00" width="7.00" height="7.00" rx="0.84" fill="#FFD93D"/><rect x="254.00" y="214.00" width="7.00" height="7.00" rx="0.84" fill="#FFD93D"/><rect x="261.00" y="214.00" width="7.00" height="7.00" rx="0.84" fill="#FFD93D"/><rect x="268.00" y="214.00" width="7.00" height="7.00" rx="0.84" fill="#FFD93D"/><rect x="275.00" y="214.00" width="7.00" height="7.00" rx="0.84" fill="#FFD93D"/><rect x="184.00" y="221.00" width="7.00" height="7.00" rx="0.84" fill="#FFD93D"/><rect x="191.00" y="221.00" width="7.00" height="7.00" rx="0.84" fill="#FFD93D"/><rect x="198.00" y="221.00" width="7.00" height="7.00" rx="0.84" fill="#FFD93D"/><rect x="205.00" y="221.00" width="7.00" height="7.00" rx="0.84" fill="#FFD93D"/><rect x="212.00" y="221.00" width="7.00" height="7.00" rx="0.84" fill="#FFD93D"/><rect x="219.00" y="221.00" width="7.00" height="7.00" rx="0.84" fill="#FFD93D"/><rect x="226.00" y="221.00" width="7.00" height="7.00" rx="0.84" fill="#FFD93D"/><rect x="233.00" y="221.00" width="7.00" height="7.00" rx="0.84" fill="#FFD93D"/><rect x="240.00" y="221.00" width="7.00" height="7.00" rx="0.84" fill="#FFD93D"/><rect x="247.00" y="221.00" width="7.00" height="7.00" rx="0.84" fill="#FFD93D"/><rect x="254.00" y="221.00" width="7.00" height="7.00" rx="0.84" fill="#FFD93D"/><rect x="261.00" y="221.00" width="7.00" height="7.00" rx="0.84" fill="#FFD93D"/><rect x="268.00" y="221.00" width="7.00" height="7.00" rx="0.84" fill="#FFD93D"/><rect x="275.00" y="221.00" width="7.00" height="7.00" rx="0.84" fill="#FFD93D"/><rect x="282.00" y="221.00" width="7.00" height="7.00" rx="0.84" fill="#FFD93D"/><rect x="289.00" y="221.00" width="7.00" height="7.00" rx="0.84" fill="#FFD93D"/><rect x="177.00" y="228.00" width="7.00" height="7.00" rx="0.84" fill="#FFD93D"/><rect x="184.00" y="228.00" width="7.00" height="7.00" rx="0.84" fill="#FFD93D"/><rect x="191.00" y="228.00" width="7.00" height="7.00" rx="0.84" fill="#FFD93D"/><rect x="198.00" y="228.00" width="7.00" height="7.00" rx="0.84" fill="#FFD93D"/><rect x="205.00" y="228.00" width="7.00" height="7.00" rx="0.84" fill="#FFD93D"/><rect x="212.00" y="228.00" width="7.00" height="7.00" rx="0.84" fill="#FFD93D"/><rect x="219.00" y="228.00" width="7.00" height="7.00" rx="0.84" fill="#FFD93D"/><rect x="226.00" y="228.00" width="7.00" height="7.00" rx="0.84" fill="#FFD93D"/><rect x="233.00" y="228.00" width="7.00" height="7.00" rx="0.84" fill="#FFD93D"/><rect x="240.00" y="228.00" width="7.00" height="7.00" rx="0.84" fill="#FFD93D"/><rect x="247.00" y="228.00" width="7.00" height="7.00" rx="0.84" fill="#FFD93D"/><rect x="254.00" y="228.00" width="7.00" height="7.00" rx="0.84" fill="#FFD93D"/><rect x="261.00" y="228.00" width="7.00" height="7.00" rx="0.84" fill="#FFD93D"/><rect x="268.00" y="228.00" width="7.00" height="7.00" rx="0.84" fill="#FFD93D"/><rect x="275.00" y="228.00" width="7.00" height="7.00" rx="0.84" fill="#FFD93D"/><rect x="282.00" y="228.00" width="7.00" height="7.00" rx="0.84" fill="#FFD93D"/><rect x="289.00" y="228.00" width="7.00" height="7.00" rx="0.84" fill="#FFD93D"/><rect x="296.00" y="228.00" width="7.00" height="7.00" rx="0.84" fill="#FFD93D"/><rect x="177.00" y="235.00" width="7.00" height="7.00" rx="0.84" fill="#F5C400"/><rect x="184.00" y="235.00" width="7.00" height="7.00" rx="0.84" fill="#FFD93D"/><rect x="191.00" y="235.00" width="7.00" height="7.00" rx="0.84" fill="#FFD93D"/><rect x="198.00" y="235.00" width="7.00" height="7.00" rx="0.84" fill="#FFD93D"/><rect x="205.00" y="235.00" width="7.00" height="7.00" rx="0.84" fill="#FFD93D"/><rect x="212.00" y="235.00" width="7.00" height="7.00" rx="0.84" fill="#FFD93D"/><rect x="219.00" y="235.00" width="7.00" height="7.00" rx="0.84" fill="#FFD93D"/><rect x="226.00" y="235.00" width="7.00" height="7.00" rx="0.84" fill="#FFD93D"/><rect x="233.00" y="235.00" width="7.00" height="7.00" rx="0.84" fill="#FFD93D"/><rect x="240.00" y="235.00" width="7.00" height="7.00" rx="0.84" fill="#FFD93D"/><rect x="247.00" y="235.00" width="7.00" height="7.00" rx="0.84" fill="#FFD93D"/><rect x="254.00" y="235.00" width="7.00" height="7.00" rx="0.84" fill="#FFD93D"/><rect x="261.00" y="235.00" width="7.00" height="7.00" rx="0.84" fill="#FFD93D"/><rect x="268.00" y="235.00" width="7.00" height="7.00" rx="0.84" fill="#FFD93D"/><rect x="275.00" y="235.00" width="7.00" height="7.00" rx="0.84" fill="#FFD93D"/><rect x="282.00" y="235.00" width="7.00" height="7.00" rx="0.84" fill="#FFD93D"/><rect x="289.00" y="235.00" width="7.00" height="7.00" rx="0.84" fill="#FFD93D"/><rect x="296.00" y="235.00" width="7.00" height="7.00" rx="0.84" fill="#F5C400"/><rect x="184.00" y="242.00" width="7.00" height="7.00" rx="0.84" fill="#F5C400"/><rect x="191.00" y="242.00" width="7.00" height="7.00" rx="0.84" fill="#FFD93D"/><rect x="198.00" y="242.00" width="7.00" height="7.00" rx="0.84" fill="#FFD93D"/><rect x="205.00" y="242.00" width="7.00" height="7.00" rx="0.84" fill="#FFD93D"/><rect x="212.00" y="242.00" width="7.00" height="7.00" rx="0.84" fill="#FFD93D"/><rect x="219.00" y="242.00" width="7.00" height="7.00" rx="0.84" fill="#FFD93D"/><rect x="226.00" y="242.00" width="7.00" height="7.00" rx="0.84" fill="#FFD93D"/><rect x="233.00" y="242.00" width="7.00" height="7.00" rx="0.84" fill="#FFD93D"/><rect x="240.00" y="242.00" width="7.00" height="7.00" rx="0.84" fill="#FFD93D"/><rect x="247.00" y="242.00" width="7.00" height="7.00" rx="0.84" fill="#FFD93D"/><rect x="254.00" y="242.00" width="7.00" height="7.00" rx="0.84" fill="#FFD93D"/><rect x="261.00" y="242.00" width="7.00" height="7.00" rx="0.84" fill="#FFD93D"/><rect x="268.00" y="242.00" width="7.00" height="7.00" rx="0.84" fill="#FFD93D"/><rect x="275.00" y="242.00" width="7.00" height="7.00" rx="0.84" fill="#FFD93D"/><rect x="282.00" y="242.00" width="7.00" height="7.00" rx="0.84" fill="#F5C400"/><rect x="198.00" y="249.00" width="7.00" height="7.00" rx="0.84" fill="#F5C400"/><rect x="205.00" y="249.00" width="7.00" height="7.00" rx="0.84" fill="#FFD93D"/><rect x="212.00" y="249.00" width="7.00" height="7.00" rx="0.84" fill="#FFD93D"/><rect x="219.00" y="249.00" width="7.00" height="7.00" rx="0.84" fill="#FFD93D"/><rect x="226.00" y="249.00" width="7.00" height="7.00" rx="0.84" fill="#FFD93D"/><rect x="233.00" y="249.00" width="7.00" height="7.00" rx="0.84" fill="#FFD93D"/><rect x="240.00" y="249.00" width="7.00" height="7.00" rx="0.84" fill="#FFD93D"/><rect x="247.00" y="249.00" width="7.00" height="7.00" rx="0.84" fill="#FFD93D"/><rect x="254.00" y="249.00" width="7.00" height="7.00" rx="0.84" fill="#FFD93D"/><rect x="261.00" y="249.00" width="7.00" height="7.00" rx="0.84" fill="#FFD93D"/><rect x="268.00" y="249.00" width="7.00" height="7.00" rx="0.84" fill="#FFD93D"/><rect x="275.00" y="249.00" width="7.00" height="7.00" rx="0.84" fill="#F5C400"/>
  <rect x="390" y="20" width="70" height="22" rx="11" fill="#f59e0b"/>
  <text x="425" y="35" font-family="-apple-system, sans-serif" font-size="11" font-weight="600" fill="#ffffff" text-anchor="middle">MEDIUM</text>
  <rect x="20" y="20" width="48" height="22" rx="11" fill="#3B82F6" opacity="0.9"/>
  <text x="44" y="35" font-family="-apple-system, sans-serif" font-size="10" font-weight="600" fill="#ffffff" text-anchor="middle">GAME</text>
  <text x="240" y="286" font-family="-apple-system, 'PingFang SC', sans-serif" font-size="16" font-weight="600" fill="#1d1d1f" text-anchor="middle">皮卡丘</text>
  <text x="240" y="304" font-family="-apple-system, sans-serif" font-size="11" font-weight="400" fill="#86868b" text-anchor="middle">318 beads · 24×20</text>
</svg>
