<svg xmlns="http://www.w3.org/2000/svg" viewBox="0 0 480 360" width="480" height="360">
  <defs>
    <linearGradient id="bgpokemonlucario014" x1="0%" y1="0%" x2="100%" y2="100%">
      <stop offset="0%" stop-color="#EF4444" stop-opacity="0.25"/>
      <stop offset="100%" stop-color="#FBBF24" stop-opacity="0.25"/>
    </linearGradient>
    <linearGradient id="cardpokemonlucario014" x1="0%" y1="0%" x2="0%" y2="100%">
      <stop offset="0%" stop-color="#ffffff" stop-opacity="0.98"/>
      <stop offset="100%" stop-color="#f5f5f7" stop-opacity="0.95"/>
    </linearGradient>
    <linearGradient id="boardpokemonlucario014" x1="0%" y1="0%" x2="0%" y2="100%">
      <stop offset="0%" stop-color="#1d1d1f" stop-opacity="0.04"/>
      <stop offset="100%" stop-color="#1d1d1f" stop-opacity="0.08"/>
    </linearGradient>
    <filter id="shadowpokemonlucario014" x="-10%" y="-10%" width="120%" height="120%">
      <feGaussianBlur in="SourceAlpha" stdDeviation="4"/>
      <feOffset dx="0" dy="2"/>
      <feComponentTransfer><feFuncA type="linear" slope="0.15"/></feComponentTransfer>
      <feMerge><feMergeNode/><feMergeNode in="SourceGraphic"/></feMerge>
    </filter>
  </defs>
  <rect width="480" height="360" fill="#fafafa"/>
  <rect width="480" height="360" fill="url(#bgpokemonlucario014)"/>
  <path d="M 0 340 Q 240 320 480 340" stroke="#3B82F6" stroke-width="1" fill="none" opacity="0.15"/>
  <path d="M 0 20 Q 240 0 480 20" stroke="#EF4444" stroke-width="1" fill="none" opacity="0.2"/>
  <circle cx="30" cy="25" r="2" fill="#EF4444" opacity="0.15"/>
  <circle cx="86" cy="72" r="3" fill="#FBBF24" opacity="0.22999999999999998"/>
  <circle cx="142" cy="119" r="4" fill="#3B82F6" opacity="0.31"/>
  <circle cx="198" cy="166" r="5" fill="#EF4444" opacity="0.15"/>
  <circle cx="254" cy="213" r="2" fill="#FBBF24" opacity="0.22999999999999998"/>
  <circle cx="310" cy="260" r="3" fill="#3B82F6" opacity="0.31"/>
  <circle cx="366" cy="307" r="4" fill="#EF4444" opacity="0.15"/>
  <circle cx="422" cy="34" r="5" fill="#FBBF24" opacity="0.22999999999999998"/>
  <rect x="138" y="70" width="204" height="232" rx="18" fill="url(#cardpokemonlucario014)" stroke="rgba(0,0,0,0.06)" stroke-width="1" filter="url(#shadowpokemonlucario014)"/>
  <!-- 像素预览底板（深色，让浅色像素可见） -->
  <rect x="152" y="84" width="176" height="176" rx="6" fill="#f5f5f7" stroke="rgba(0,0,0,0.08)" stroke-width="1"/>
  <!-- 像素网格 -->
  <rect x="208.50" y="98.50" width="5.25" height="5.25" fill="#3B82F6"/><rect x="271.50" y="98.50" width="5.25" height="5.25" fill="#3B82F6"/><rect x="213.75" y="103.75" width="5.25" height="5.25" fill="#3B82F6"/><rect x="266.25" y="103.75" width="5.25" height="5.25" fill="#3B82F6"/><rect x="213.75" y="109.00" width="5.25" height="5.25" fill="#3B82F6"/><rect x="266.25" y="109.00" width="5.25" height="5.25" fill="#3B82F6"/><rect x="219.00" y="114.25" width="5.25" height="5.25" fill="#3B82F6"/><rect x="261.00" y="114.25" width="5.25" height="5.25" fill="#3B82F6"/><rect x="219.00" y="119.50" width="5.25" height="5.25" fill="#3B82F6"/><rect x="240.00" y="119.50" width="5.25" height="5.25" fill="#3B82F6"/><rect x="261.00" y="119.50" width="5.25" height="5.25" fill="#3B82F6"/><rect x="229.50" y="124.75" width="5.25" height="5.25" fill="#3B82F6"/><rect x="234.75" y="124.75" width="5.25" height="5.25" fill="#3B82F6"/><rect x="240.00" y="124.75" width="5.25" height="5.25" fill="#3B82F6"/><rect x="245.25" y="124.75" width="5.25" height="5.25" fill="#3B82F6"/><rect x="250.50" y="124.75" width="5.25" height="5.25" fill="#3B82F6"/><rect x="224.25" y="130.00" width="5.25" height="5.25" fill="#3B82F6"/><rect x="229.50" y="130.00" width="5.25" height="5.25" fill="#3B82F6"/><rect x="234.75" y="130.00" width="5.25" height="5.25" fill="#3B82F6"/><rect x="240.00" y="130.00" width="5.25" height="5.25" fill="#3B82F6"/><rect x="245.25" y="130.00" width="5.25" height="5.25" fill="#3B82F6"/><rect x="250.50" y="130.00" width="5.25" height="5.25" fill="#3B82F6"/><rect x="255.75" y="130.00" width="5.25" height="5.25" fill="#3B82F6"/><rect x="224.25" y="135.25" width="5.25" height="5.25" fill="#1A1A1A"/><rect x="229.50" y="135.25" width="5.25" height="5.25" fill="#1A1A1A"/><rect x="234.75" y="135.25" width="5.25" height="5.25" fill="#1A1A1A"/><rect x="240.00" y="135.25" width="5.25" height="5.25" fill="#1A1A1A"/><rect x="245.25" y="135.25" width="5.25" height="5.25" fill="#1A1A1A"/><rect x="250.50" y="135.25" width="5.25" height="5.25" fill="#1A1A1A"/><rect x="255.75" y="135.25" width="5.25" height="5.25" fill="#1A1A1A"/><rect x="213.75" y="140.50" width="5.25" height="5.25" fill="#3B82F6"/><rect x="219.00" y="140.50" width="5.25" height="5.25" fill="#3B82F6"/><rect x="224.25" y="140.50" width="5.25" height="5.25" fill="#1A1A1A"/><rect x="229.50" y="140.50" width="5.25" height="5.25" fill="#15803D"/><rect x="234.75" y="140.50" width="5.25" height="5.25" fill="#1A1A1A"/><rect x="240.00" y="140.50" width="5.25" height="5.25" fill="#1A1A1A"/><rect x="245.25" y="140.50" width="5.25" height="5.25" fill="#1A1A1A"/><rect x="250.50" y="140.50" width="5.25" height="5.25" fill="#15803D"/><rect x="255.75" y="140.50" width="5.25" height="5.25" fill="#1A1A1A"/><rect x="261.00" y="140.50" width="5.25" height="5.25" fill="#3B82F6"/><rect x="266.25" y="140.50" width="5.25" height="5.25" fill="#3B82F6"/><rect x="213.75" y="145.75" width="5.25" height="5.25" fill="#3B82F6"/><rect x="219.00" y="145.75" width="5.25" height="5.25" fill="#3B82F6"/><rect x="224.25" y="145.75" width="5.25" height="5.25" fill="#1A1A1A"/><rect x="229.50" y="145.75" width="5.25" height="5.25" fill="#1A1A1A"/><rect x="234.75" y="145.75" width="5.25" height="5.25" fill="#1A1A1A"/><rect x="240.00" y="145.75" width="5.25" height="5.25" fill="#1A1A1A"/><rect x="245.25" y="145.75" width="5.25" height="5.25" fill="#1A1A1A"/><rect x="250.50" y="145.75" width="5.25" height="5.25" fill="#1A1A1A"/><rect x="255.75" y="145.75" width="5.25" height="5.25" fill="#1A1A1A"/><rect x="261.00" y="145.75" width="5.25" height="5.25" fill="#3B82F6"/><rect x="266.25" y="145.75" width="5.25" height="5.25" fill="#3B82F6"/><rect x="213.75" y="151.00" width="5.25" height="5.25" fill="#3B82F6"/><rect x="219.00" y="151.00" width="5.25" height="5.25" fill="#3B82F6"/><rect x="224.25" y="151.00" width="5.25" height="5.25" fill="#3B82F6"/><rect x="229.50" y="151.00" width="5.25" height="5.25" fill="#3B82F6"/><rect x="234.75" y="151.00" width="5.25" height="5.25" fill="#3B82F6"/><rect x="240.00" y="151.00" width="5.25" height="5.25" fill="#3B82F6"/><rect x="245.25" y="151.00" width="5.25" height="5.25" fill="#3B82F6"/><rect x="250.50" y="151.00" width="5.25" height="5.25" fill="#3B82F6"/><rect x="255.75" y="151.00" width="5.25" height="5.25" fill="#3B82F6"/><rect x="261.00" y="151.00" width="5.25" height="5.25" fill="#3B82F6"/><rect x="266.25" y="151.00" width="5.25" height="5.25" fill="#3B82F6"/><rect x="213.75" y="156.25" width="5.25" height="5.25" fill="#3B82F6"/><rect x="219.00" y="156.25" width="5.25" height="5.25" fill="#3B82F6"/><rect x="224.25" y="156.25" width="5.25" height="5.25" fill="#3B82F6"/><rect x="229.50" y="156.25" width="5.25" height="5.25" fill="#3B82F6"/><rect x="234.75" y="156.25" width="5.25" height="5.25" fill="#3B82F6"/><rect x="240.00" y="156.25" width="5.25" height="5.25" fill="#3B82F6"/><rect x="245.25" y="156.25" width="5.25" height="5.25" fill="#3B82F6"/><rect x="250.50" y="156.25" width="5.25" height="5.25" fill="#3B82F6"/><rect x="255.75" y="156.25" width="5.25" height="5.25" fill="#3B82F6"/><rect x="261.00" y="156.25" width="5.25" height="5.25" fill="#3B82F6"/><rect x="266.25" y="156.25" width="5.25" height="5.25" fill="#3B82F6"/><rect x="213.75" y="161.50" width="5.25" height="5.25" fill="#3B82F6"/><rect x="219.00" y="161.50" width="5.25" height="5.25" fill="#3B82F6"/><rect x="224.25" y="161.50" width="5.25" height="5.25" fill="#3B82F6"/><rect x="229.50" y="161.50" width="5.25" height="5.25" fill="#3B82F6"/><rect x="234.75" y="161.50" width="5.25" height="5.25" fill="#3B82F6"/><rect x="240.00" y="161.50" width="5.25" height="5.25" fill="#3B82F6"/><rect x="245.25" y="161.50" width="5.25" height="5.25" fill="#3B82F6"/><rect x="250.50" y="161.50" width="5.25" height="5.25" fill="#3B82F6"/><rect x="255.75" y="161.50" width="5.25" height="5.25" fill="#3B82F6"/><rect x="261.00" y="161.50" width="5.25" height="5.25" fill="#3B82F6"/><rect x="266.25" y="161.50" width="5.25" height="5.25" fill="#3B82F6"/><rect x="213.75" y="166.75" width="5.25" height="5.25" fill="#3B82F6"/><rect x="219.00" y="166.75" width="5.25" height="5.25" fill="#3B82F6"/><rect x="224.25" y="166.75" width="5.25" height="5.25" fill="#3B82F6"/><rect x="229.50" y="166.75" width="5.25" height="5.25" fill="#3B82F6"/><rect x="234.75" y="166.75" width="5.25" height="5.25" fill="#3B82F6"/><rect x="240.00" y="166.75" width="5.25" height="5.25" fill="#3B82F6"/><rect x="245.25" y="166.75" width="5.25" height="5.25" fill="#3B82F6"/><rect x="250.50" y="166.75" width="5.25" height="5.25" fill="#3B82F6"/><rect x="255.75" y="166.75" width="5.25" height="5.25" fill="#3B82F6"/><rect x="261.00" y="166.75" width="5.25" height="5.25" fill="#3B82F6"/><rect x="266.25" y="166.75" width="5.25" height="5.25" fill="#3B82F6"/><rect x="213.75" y="172.00" width="5.25" height="5.25" fill="#3B82F6"/><rect x="219.00" y="172.00" width="5.25" height="5.25" fill="#3B82F6"/><rect x="224.25" y="172.00" width="5.25" height="5.25" fill="#3B82F6"/><rect x="229.50" y="172.00" width="5.25" height="5.25" fill="#3B82F6"/><rect x="234.75" y="172.00" width="5.25" height="5.25" fill="#3B82F6"/><rect x="240.00" y="172.00" width="5.25" height="5.25" fill="#3B82F6"/><rect x="245.25" y="172.00" width="5.25" height="5.25" fill="#3B82F6"/><rect x="250.50" y="172.00" width="5.25" height="5.25" fill="#3B82F6"/><rect x="255.75" y="172.00" width="5.25" height="5.25" fill="#3B82F6"/><rect x="261.00" y="172.00" width="5.25" height="5.25" fill="#3B82F6"/><rect x="266.25" y="172.00" width="5.25" height="5.25" fill="#3B82F6"/><rect x="213.75" y="177.25" width="5.25" height="5.25" fill="#3B82F6"/><rect x="219.00" y="177.25" width="5.25" height="5.25" fill="#3B82F6"/><rect x="224.25" y="177.25" width="5.25" height="5.25" fill="#3B82F6"/><rect x="229.50" y="177.25" width="5.25" height="5.25" fill="#22C55E"/><rect x="234.75" y="177.25" width="5.25" height="5.25" fill="#22C55E"/><rect x="240.00" y="177.25" width="5.25" height="5.25" fill="#22C55E"/><rect x="245.25" y="177.25" width="5.25" height="5.25" fill="#22C55E"/><rect x="250.50" y="177.25" width="5.25" height="5.25" fill="#22C55E"/><rect x="255.75" y="177.25" width="5.25" height="5.25" fill="#3B82F6"/><rect x="261.00" y="177.25" width="5.25" height="5.25" fill="#3B82F6"/><rect x="266.25" y="177.25" width="5.25" height="5.25" fill="#3B82F6"/><rect x="213.75" y="182.50" width="5.25" height="5.25" fill="#3B82F6"/><rect x="219.00" y="182.50" width="5.25" height="5.25" fill="#3B82F6"/><rect x="224.25" y="182.50" width="5.25" height="5.25" fill="#3B82F6"/><rect x="229.50" y="182.50" width="5.25" height="5.25" fill="#22C55E"/><rect x="234.75" y="182.50" width="5.25" height="5.25" fill="#22C55E"/><rect x="240.00" y="182.50" width="5.25" height="5.25" fill="#22C55E"/><rect x="245.25" y="182.50" width="5.25" height="5.25" fill="#22C55E"/><rect x="250.50" y="182.50" width="5.25" height="5.25" fill="#22C55E"/><rect x="255.75" y="182.50" width="5.25" height="5.25" fill="#3B82F6"/><rect x="261.00" y="182.50" width="5.25" height="5.25" fill="#3B82F6"/><rect x="266.25" y="182.50" width="5.25" height="5.25" fill="#3B82F6"/><rect x="208.50" y="187.75" width="5.25" height="5.25" fill="#3B82F6"/><rect x="213.75" y="187.75" width="5.25" height="5.25" fill="#3B82F6"/><rect x="219.00" y="187.75" width="5.25" height="5.25" fill="#3B82F6"/><rect x="224.25" y="187.75" width="5.25" height="5.25" fill="#3B82F6"/><rect x="229.50" y="187.75" width="5.25" height="5.25" fill="#22C55E"/><rect x="234.75" y="187.75" width="5.25" height="5.25" fill="#22C55E"/><rect x="240.00" y="187.75" width="5.25" height="5.25" fill="#22C55E"/><rect x="245.25" y="187.75" width="5.25" height="5.25" fill="#22C55E"/><rect x="250.50" y="187.75" width="5.25" height="5.25" fill="#22C55E"/><rect x="255.75" y="187.75" width="5.25" height="5.25" fill="#3B82F6"/><rect x="261.00" y="187.75" width="5.25" height="5.25" fill="#3B82F6"/><rect x="266.25" y="187.75" width="5.25" height="5.25" fill="#3B82F6"/><rect x="271.50" y="187.75" width="5.25" height="5.25" fill="#3B82F6"/><rect x="203.25" y="193.00" width="5.25" height="5.25" fill="#3B82F6"/><rect x="213.75" y="193.00" width="5.25" height="5.25" fill="#3B82F6"/><rect x="219.00" y="193.00" width="5.25" height="5.25" fill="#3B82F6"/><rect x="224.25" y="193.00" width="5.25" height="5.25" fill="#3B82F6"/><rect x="229.50" y="193.00" width="5.25" height="5.25" fill="#3B82F6"/><rect x="234.75" y="193.00" width="5.25" height="5.25" fill="#3B82F6"/><rect x="240.00" y="193.00" width="5.25" height="5.25" fill="#3B82F6"/><rect x="245.25" y="193.00" width="5.25" height="5.25" fill="#3B82F6"/><rect x="250.50" y="193.00" width="5.25" height="5.25" fill="#3B82F6"/><rect x="255.75" y="193.00" width="5.25" height="5.25" fill="#3B82F6"/><rect x="261.00" y="193.00" width="5.25" height="5.25" fill="#3B82F6"/><rect x="266.25" y="193.00" width="5.25" height="5.25" fill="#3B82F6"/><rect x="276.75" y="193.00" width="5.25" height="5.25" fill="#3B82F6"/><rect x="198.00" y="198.25" width="5.25" height="5.25" fill="#3B82F6"/><rect x="213.75" y="198.25" width="5.25" height="5.25" fill="#3B82F6"/><rect x="219.00" y="198.25" width="5.25" height="5.25" fill="#3B82F6"/><rect x="224.25" y="198.25" width="5.25" height="5.25" fill="#3B82F6"/><rect x="229.50" y="198.25" width="5.25" height="5.25" fill="#3B82F6"/><rect x="234.75" y="198.25" width="5.25" height="5.25" fill="#3B82F6"/><rect x="240.00" y="198.25" width="5.25" height="5.25" fill="#3B82F6"/><rect x="245.25" y="198.25" width="5.25" height="5.25" fill="#3B82F6"/><rect x="250.50" y="198.25" width="5.25" height="5.25" fill="#3B82F6"/><rect x="255.75" y="198.25" width="5.25" height="5.25" fill="#3B82F6"/><rect x="261.00" y="198.25" width="5.25" height="5.25" fill="#3B82F6"/><rect x="266.25" y="198.25" width="5.25" height="5.25" fill="#3B82F6"/><rect x="282.00" y="198.25" width="5.25" height="5.25" fill="#3B82F6"/><rect x="192.75" y="203.50" width="5.25" height="5.25" fill="#3B82F6"/><rect x="213.75" y="203.50" width="5.25" height="5.25" fill="#3B82F6"/><rect x="219.00" y="203.50" width="5.25" height="5.25" fill="#3B82F6"/><rect x="224.25" y="203.50" width="5.25" height="5.25" fill="#3B82F6"/><rect x="229.50" y="203.50" width="5.25" height="5.25" fill="#3B82F6"/><rect x="234.75" y="203.50" width="5.25" height="5.25" fill="#3B82F6"/><rect x="240.00" y="203.50" width="5.25" height="5.25" fill="#1E40AF"/><rect x="245.25" y="203.50" width="5.25" height="5.25" fill="#3B82F6"/><rect x="250.50" y="203.50" width="5.25" height="5.25" fill="#3B82F6"/><rect x="255.75" y="203.50" width="5.25" height="5.25" fill="#3B82F6"/><rect x="261.00" y="203.50" width="5.25" height="5.25" fill="#3B82F6"/><rect x="266.25" y="203.50" width="5.25" height="5.25" fill="#3B82F6"/><rect x="287.25" y="203.50" width="5.25" height="5.25" fill="#3B82F6"/><rect x="234.75" y="208.75" width="5.25" height="5.25" fill="#1E40AF"/><rect x="240.00" y="208.75" width="5.25" height="5.25" fill="#1E40AF"/><rect x="245.25" y="208.75" width="5.25" height="5.25" fill="#1E40AF"/><rect x="229.50" y="214.00" width="5.25" height="5.25" fill="#1E40AF"/><rect x="234.75" y="214.00" width="5.25" height="5.25" fill="#1E40AF"/><rect x="240.00" y="214.00" width="5.25" height="5.25" fill="#1E40AF"/><rect x="245.25" y="214.00" width="5.25" height="5.25" fill="#1E40AF"/><rect x="250.50" y="214.00" width="5.25" height="5.25" fill="#1E40AF"/><rect x="234.75" y="219.25" width="5.25" height="5.25" fill="#1E40AF"/><rect x="240.00" y="219.25" width="5.25" height="5.25" fill="#1E40AF"/><rect x="245.25" y="219.25" width="5.25" height="5.25" fill="#1E40AF"/><rect x="240.00" y="224.50" width="5.25" height="5.25" fill="#1E40AF"/>
  <!-- 难度标签 -->
  <rect x="390" y="20" width="70" height="22" rx="11" fill="#ff3b30"/>
  <text x="425" y="35" font-family="-apple-system, sans-serif" font-size="11" font-weight="600" fill="#ffffff" text-anchor="middle">HARD</text>
  <!-- 分类标签 -->
  <rect x="20" y="20" width="72" height="22" rx="11" fill="#3B82F6" opacity="0.9"/>
  <text x="56" y="35" font-family="-apple-system, sans-serif" font-size="10" font-weight="600" fill="#ffffff" text-anchor="middle">POKEMON</text>
  <!-- 模板名 -->
  <text x="240" y="286" font-family="-apple-system, 'PingFang SC', sans-serif" font-size="16" font-weight="600" fill="#1d1d1f" text-anchor="middle">路卡利欧</text>
  <text x="240" y="304" font-family="-apple-system, sans-serif" font-size="11" font-weight="400" fill="#86868b" text-anchor="middle">193 beads · 32×32</text>
</svg>
