<svg xmlns="http://www.w3.org/2000/svg" viewBox="0 0 480 360" width="480" height="360">
  <defs>
    <linearGradient id="bgpokemonzacian001" x1="0%" y1="0%" x2="100%" y2="100%">
      <stop offset="0%" stop-color="#EF4444" stop-opacity="0.25"/>
      <stop offset="100%" stop-color="#FBBF24" stop-opacity="0.25"/>
    </linearGradient>
    <linearGradient id="cardpokemonzacian001" x1="0%" y1="0%" x2="0%" y2="100%">
      <stop offset="0%" stop-color="#ffffff" stop-opacity="0.98"/>
      <stop offset="100%" stop-color="#f5f5f7" stop-opacity="0.95"/>
    </linearGradient>
    <filter id="shadowpokemonzacian001" x="-10%" y="-10%" width="120%" height="120%">
      <feGaussianBlur in="SourceAlpha" stdDeviation="4"/>
      <feOffset dx="0" dy="2"/>
      <feComponentTransfer><feFuncA type="linear" slope="0.15"/></feComponentTransfer>
      <feMerge><feMergeNode/><feMergeNode in="SourceGraphic"/></feMerge>
    </filter>
  </defs>
  <rect width="480" height="360" fill="#fafafa"/>
  <rect width="480" height="360" fill="url(#bgpokemonzacian001)"/>
  <path d="M 0 340 Q 240 320 480 340" stroke="#3B82F6" stroke-width="1" fill="none" opacity="0.15"/>
  <path d="M 0 20 Q 240 0 480 20" stroke="#EF4444" stroke-width="1" fill="none" opacity="0.2"/>
  <circle cx="30" cy="25" r="2" fill="#EF4444" opacity="0.15"/>
  <circle cx="86" cy="72" r="3" fill="#FBBF24" opacity="0.22999999999999998"/>
  <circle cx="142" cy="119" r="4" fill="#3B82F6" opacity="0.31"/>
  <circle cx="198" cy="166" r="5" fill="#EF4444" opacity="0.15"/>
  <circle cx="254" cy="213" r="2" fill="#FBBF24" opacity="0.22999999999999998"/>
  <circle cx="310" cy="260" r="3" fill="#3B82F6" opacity="0.31"/>
  <circle cx="366" cy="307" r="4" fill="#EF4444" opacity="0.15"/>
  <circle cx="422" cy="34" r="5" fill="#FBBF24" opacity="0.22999999999999998"/>
  <rect x="138" y="70" width="204" height="232" rx="18" fill="url(#cardpokemonzacian001)" stroke="rgba(0,0,0,0.06)" stroke-width="1" filter="url(#shadowpokemonzacian001)"/>
  <rect x="152" y="84" width="176" height="176" rx="6" fill="#f5f5f7" stroke="rgba(0,0,0,0.08)" stroke-width="1"/>
  <rect x="198.00" y="92.20" width="8.40" height="8.40" rx="1.01" fill="#3B82F6"/><rect x="206.40" y="92.20" width="8.40" height="8.40" rx="1.01" fill="#3B82F6"/><rect x="282.00" y="92.20" width="8.40" height="8.40" rx="1.01" fill="#3B82F6"/><rect x="290.40" y="92.20" width="8.40" height="8.40" rx="1.01" fill="#3B82F6"/><rect x="189.60" y="100.60" width="8.40" height="8.40" rx="1.01" fill="#3B82F6"/><rect x="198.00" y="100.60" width="8.40" height="8.40" rx="1.01" fill="#3B82F6"/><rect x="206.40" y="100.60" width="8.40" height="8.40" rx="1.01" fill="#3B82F6"/><rect x="214.80" y="100.60" width="8.40" height="8.40" rx="1.01" fill="#3B82F6"/><rect x="273.60" y="100.60" width="8.40" height="8.40" rx="1.01" fill="#3B82F6"/><rect x="282.00" y="100.60" width="8.40" height="8.40" rx="1.01" fill="#3B82F6"/><rect x="290.40" y="100.60" width="8.40" height="8.40" rx="1.01" fill="#3B82F6"/><rect x="298.80" y="100.60" width="8.40" height="8.40" rx="1.01" fill="#3B82F6"/><rect x="181.20" y="109.00" width="8.40" height="8.40" rx="1.01" fill="#3B82F6"/><rect x="189.60" y="109.00" width="8.40" height="8.40" rx="1.01" fill="#3B82F6"/><rect x="198.00" y="109.00" width="8.40" height="8.40" rx="1.01" fill="#3B82F6"/><rect x="206.40" y="109.00" width="8.40" height="8.40" rx="1.01" fill="#3B82F6"/><rect x="214.80" y="109.00" width="8.40" height="8.40" rx="1.01" fill="#3B82F6"/><rect x="223.20" y="109.00" width="8.40" height="8.40" rx="1.01" fill="#3B82F6"/><rect x="265.20" y="109.00" width="8.40" height="8.40" rx="1.01" fill="#3B82F6"/><rect x="273.60" y="109.00" width="8.40" height="8.40" rx="1.01" fill="#3B82F6"/><rect x="282.00" y="109.00" width="8.40" height="8.40" rx="1.01" fill="#3B82F6"/><rect x="290.40" y="109.00" width="8.40" height="8.40" rx="1.01" fill="#3B82F6"/><rect x="298.80" y="109.00" width="8.40" height="8.40" rx="1.01" fill="#3B82F6"/><rect x="307.20" y="109.00" width="8.40" height="8.40" rx="1.01" fill="#3B82F6"/><rect x="172.80" y="117.40" width="8.40" height="8.40" rx="1.01" fill="#3B82F6"/><rect x="181.20" y="117.40" width="8.40" height="8.40" rx="1.01" fill="#3B82F6"/><rect x="189.60" y="117.40" width="8.40" height="8.40" rx="1.01" fill="#3B82F6"/><rect x="198.00" y="117.40" width="8.40" height="8.40" rx="1.01" fill="#3B82F6"/><rect x="206.40" y="117.40" width="8.40" height="8.40" rx="1.01" fill="#3B82F6"/><rect x="214.80" y="117.40" width="8.40" height="8.40" rx="1.01" fill="#3B82F6"/><rect x="223.20" y="117.40" width="8.40" height="8.40" rx="1.01" fill="#3B82F6"/><rect x="231.60" y="117.40" width="8.40" height="8.40" rx="1.01" fill="#3B82F6"/><rect x="256.80" y="117.40" width="8.40" height="8.40" rx="1.01" fill="#3B82F6"/><rect x="265.20" y="117.40" width="8.40" height="8.40" rx="1.01" fill="#3B82F6"/><rect x="273.60" y="117.40" width="8.40" height="8.40" rx="1.01" fill="#3B82F6"/><rect x="282.00" y="117.40" width="8.40" height="8.40" rx="1.01" fill="#3B82F6"/><rect x="290.40" y="117.40" width="8.40" height="8.40" rx="1.01" fill="#3B82F6"/><rect x="298.80" y="117.40" width="8.40" height="8.40" rx="1.01" fill="#3B82F6"/><rect x="307.20" y="117.40" width="8.40" height="8.40" rx="1.01" fill="#3B82F6"/><rect x="164.40" y="125.80" width="8.40" height="8.40" rx="1.01" fill="#3B82F6"/><rect x="172.80" y="125.80" width="8.40" height="8.40" rx="1.01" fill="#3B82F6"/><rect x="181.20" y="125.80" width="8.40" height="8.40" rx="1.01" fill="#3B82F6"/><rect x="189.60" y="125.80" width="8.40" height="8.40" rx="1.01" fill="#3B82F6"/><rect x="198.00" y="125.80" width="8.40" height="8.40" rx="1.01" fill="#3B82F6"/><rect x="206.40" y="125.80" width="8.40" height="8.40" rx="1.01" fill="#3B82F6"/><rect x="214.80" y="125.80" width="8.40" height="8.40" rx="1.01" fill="#3B82F6"/><rect x="223.20" y="125.80" width="8.40" height="8.40" rx="1.01" fill="#3B82F6"/><rect x="231.60" y="125.80" width="8.40" height="8.40" rx="1.01" fill="#3B82F6"/><rect x="240.00" y="125.80" width="8.40" height="8.40" rx="1.01" fill="#3B82F6"/><rect x="248.40" y="125.80" width="8.40" height="8.40" rx="1.01" fill="#3B82F6"/><rect x="256.80" y="125.80" width="8.40" height="8.40" rx="1.01" fill="#3B82F6"/><rect x="265.20" y="125.80" width="8.40" height="8.40" rx="1.01" fill="#3B82F6"/><rect x="273.60" y="125.80" width="8.40" height="8.40" rx="1.01" fill="#3B82F6"/><rect x="282.00" y="125.80" width="8.40" height="8.40" rx="1.01" fill="#3B82F6"/><rect x="290.40" y="125.80" width="8.40" height="8.40" rx="1.01" fill="#3B82F6"/><rect x="298.80" y="125.80" width="8.40" height="8.40" rx="1.01" fill="#3B82F6"/><rect x="307.20" y="125.80" width="8.40" height="8.40" rx="1.01" fill="#3B82F6"/><rect x="156.00" y="134.20" width="8.40" height="8.40" rx="1.01" fill="#3B82F6"/><rect x="164.40" y="134.20" width="8.40" height="8.40" rx="1.01" fill="#3B82F6"/><rect x="172.80" y="134.20" width="8.40" height="8.40" rx="1.01" fill="#3B82F6"/><rect x="181.20" y="134.20" width="8.40" height="8.40" rx="1.01" fill="#3B82F6"/><rect x="189.60" y="134.20" width="8.40" height="8.40" rx="1.01" fill="#3B82F6"/><rect x="198.00" y="134.20" width="8.40" height="8.40" rx="1.01" fill="#3B82F6"/><rect x="206.40" y="134.20" width="8.40" height="8.40" rx="1.01" fill="#3B82F6"/><rect x="214.80" y="134.20" width="8.40" height="8.40" rx="1.01" fill="#3B82F6"/><rect x="223.20" y="134.20" width="8.40" height="8.40" rx="1.01" fill="#3B82F6"/><rect x="231.60" y="134.20" width="8.40" height="8.40" rx="1.01" fill="#3B82F6"/><rect x="240.00" y="134.20" width="8.40" height="8.40" rx="1.01" fill="#3B82F6"/><rect x="248.40" y="134.20" width="8.40" height="8.40" rx="1.01" fill="#3B82F6"/><rect x="256.80" y="134.20" width="8.40" height="8.40" rx="1.01" fill="#3B82F6"/><rect x="265.20" y="134.20" width="8.40" height="8.40" rx="1.01" fill="#3B82F6"/><rect x="273.60" y="134.20" width="8.40" height="8.40" rx="1.01" fill="#3B82F6"/><rect x="282.00" y="134.20" width="8.40" height="8.40" rx="1.01" fill="#3B82F6"/><rect x="290.40" y="134.20" width="8.40" height="8.40" rx="1.01" fill="#3B82F6"/><rect x="298.80" y="134.20" width="8.40" height="8.40" rx="1.01" fill="#3B82F6"/><rect x="307.20" y="134.20" width="8.40" height="8.40" rx="1.01" fill="#3B82F6"/><rect x="315.60" y="134.20" width="8.40" height="8.40" rx="1.01" fill="#3B82F6"/><rect x="156.00" y="142.60" width="8.40" height="8.40" rx="1.01" fill="#3B82F6"/><rect x="164.40" y="142.60" width="8.40" height="8.40" rx="1.01" fill="#3B82F6"/><rect x="172.80" y="142.60" width="8.40" height="8.40" rx="1.01" fill="#1E40AF"/><rect x="181.20" y="142.60" width="8.40" height="8.40" rx="1.01" fill="#1E40AF"/><rect x="189.60" y="142.60" width="8.40" height="8.40" rx="1.01" fill="#3B82F6"/><rect x="198.00" y="142.60" width="8.40" height="8.40" rx="1.01" fill="#3B82F6"/><rect x="206.40" y="142.60" width="8.40" height="8.40" rx="1.01" fill="#3B82F6"/><rect x="214.80" y="142.60" width="8.40" height="8.40" rx="1.01" fill="#3B82F6"/><rect x="223.20" y="142.60" width="8.40" height="8.40" rx="1.01" fill="#3B82F6"/><rect x="231.60" y="142.60" width="8.40" height="8.40" rx="1.01" fill="#3B82F6"/><rect x="240.00" y="142.60" width="8.40" height="8.40" rx="1.01" fill="#3B82F6"/><rect x="248.40" y="142.60" width="8.40" height="8.40" rx="1.01" fill="#3B82F6"/><rect x="256.80" y="142.60" width="8.40" height="8.40" rx="1.01" fill="#3B82F6"/><rect x="265.20" y="142.60" width="8.40" height="8.40" rx="1.01" fill="#3B82F6"/><rect x="273.60" y="142.60" width="8.40" height="8.40" rx="1.01" fill="#3B82F6"/><rect x="282.00" y="142.60" width="8.40" height="8.40" rx="1.01" fill="#3B82F6"/><rect x="290.40" y="142.60" width="8.40" height="8.40" rx="1.01" fill="#1E40AF"/><rect x="298.80" y="142.60" width="8.40" height="8.40" rx="1.01" fill="#1E40AF"/><rect x="307.20" y="142.60" width="8.40" height="8.40" rx="1.01" fill="#3B82F6"/><rect x="315.60" y="142.60" width="8.40" height="8.40" rx="1.01" fill="#3B82F6"/><rect x="156.00" y="151.00" width="8.40" height="8.40" rx="1.01" fill="#3B82F6"/><rect x="164.40" y="151.00" width="8.40" height="8.40" rx="1.01" fill="#3B82F6"/><rect x="172.80" y="151.00" width="8.40" height="8.40" rx="1.01" fill="#1A1A1A"/><rect x="181.20" y="151.00" width="8.40" height="8.40" rx="1.01" fill="#1A1A1A"/><rect x="189.60" y="151.00" width="8.40" height="8.40" rx="1.01" fill="#3B82F6"/><rect x="198.00" y="151.00" width="8.40" height="8.40" rx="1.01" fill="#3B82F6"/><rect x="206.40" y="151.00" width="8.40" height="8.40" rx="1.01" fill="#3B82F6"/><rect x="214.80" y="151.00" width="8.40" height="8.40" rx="1.01" fill="#3B82F6"/><rect x="223.20" y="151.00" width="8.40" height="8.40" rx="1.01" fill="#3B82F6"/><rect x="231.60" y="151.00" width="8.40" height="8.40" rx="1.01" fill="#3B82F6"/><rect x="240.00" y="151.00" width="8.40" height="8.40" rx="1.01" fill="#3B82F6"/><rect x="248.40" y="151.00" width="8.40" height="8.40" rx="1.01" fill="#3B82F6"/><rect x="256.80" y="151.00" width="8.40" height="8.40" rx="1.01" fill="#3B82F6"/><rect x="265.20" y="151.00" width="8.40" height="8.40" rx="1.01" fill="#3B82F6"/><rect x="273.60" y="151.00" width="8.40" height="8.40" rx="1.01" fill="#3B82F6"/><rect x="282.00" y="151.00" width="8.40" height="8.40" rx="1.01" fill="#3B82F6"/><rect x="290.40" y="151.00" width="8.40" height="8.40" rx="1.01" fill="#1A1A1A"/><rect x="298.80" y="151.00" width="8.40" height="8.40" rx="1.01" fill="#1A1A1A"/><rect x="307.20" y="151.00" width="8.40" height="8.40" rx="1.01" fill="#3B82F6"/><rect x="315.60" y="151.00" width="8.40" height="8.40" rx="1.01" fill="#3B82F6"/><rect x="156.00" y="159.40" width="8.40" height="8.40" rx="1.01" fill="#3B82F6"/><rect x="164.40" y="159.40" width="8.40" height="8.40" rx="1.01" fill="#3B82F6"/><rect x="172.80" y="159.40" width="8.40" height="8.40" rx="1.01" fill="#3B82F6"/><rect x="181.20" y="159.40" width="8.40" height="8.40" rx="1.01" fill="#3B82F6"/><rect x="189.60" y="159.40" width="8.40" height="8.40" rx="1.01" fill="#3B82F6"/><rect x="198.00" y="159.40" width="8.40" height="8.40" rx="1.01" fill="#3B82F6"/><rect x="206.40" y="159.40" width="8.40" height="8.40" rx="1.01" fill="#3B82F6"/><rect x="214.80" y="159.40" width="8.40" height="8.40" rx="1.01" fill="#3B82F6"/><rect x="223.20" y="159.40" width="8.40" height="8.40" rx="1.01" fill="#3B82F6"/><rect x="231.60" y="159.40" width="8.40" height="8.40" rx="1.01" fill="#3B82F6"/><rect x="240.00" y="159.40" width="8.40" height="8.40" rx="1.01" fill="#3B82F6"/><rect x="248.40" y="159.40" width="8.40" height="8.40" rx="1.01" fill="#3B82F6"/><rect x="256.80" y="159.40" width="8.40" height="8.40" rx="1.01" fill="#3B82F6"/><rect x="265.20" y="159.40" width="8.40" height="8.40" rx="1.01" fill="#3B82F6"/><rect x="273.60" y="159.40" width="8.40" height="8.40" rx="1.01" fill="#3B82F6"/><rect x="282.00" y="159.40" width="8.40" height="8.40" rx="1.01" fill="#3B82F6"/><rect x="290.40" y="159.40" width="8.40" height="8.40" rx="1.01" fill="#3B82F6"/><rect x="298.80" y="159.40" width="8.40" height="8.40" rx="1.01" fill="#3B82F6"/><rect x="307.20" y="159.40" width="8.40" height="8.40" rx="1.01" fill="#3B82F6"/><rect x="315.60" y="159.40" width="8.40" height="8.40" rx="1.01" fill="#3B82F6"/><rect x="156.00" y="167.80" width="8.40" height="8.40" rx="1.01" fill="#3B82F6"/><rect x="164.40" y="167.80" width="8.40" height="8.40" rx="1.01" fill="#3B82F6"/><rect x="172.80" y="167.80" width="8.40" height="8.40" rx="1.01" fill="#3B82F6"/><rect x="181.20" y="167.80" width="8.40" height="8.40" rx="1.01" fill="#3B82F6"/><rect x="189.60" y="167.80" width="8.40" height="8.40" rx="1.01" fill="#3B82F6"/><rect x="198.00" y="167.80" width="8.40" height="8.40" rx="1.01" fill="#3B82F6"/><rect x="206.40" y="167.80" width="8.40" height="8.40" rx="1.01" fill="#FBBF24"/><rect x="214.80" y="167.80" width="8.40" height="8.40" rx="1.01" fill="#FBBF24"/><rect x="223.20" y="167.80" width="8.40" height="8.40" rx="1.01" fill="#FBBF24"/><rect x="231.60" y="167.80" width="8.40" height="8.40" rx="1.01" fill="#FBBF24"/><rect x="240.00" y="167.80" width="8.40" height="8.40" rx="1.01" fill="#FBBF24"/><rect x="248.40" y="167.80" width="8.40" height="8.40" rx="1.01" fill="#FBBF24"/><rect x="256.80" y="167.80" width="8.40" height="8.40" rx="1.01" fill="#FBBF24"/><rect x="265.20" y="167.80" width="8.40" height="8.40" rx="1.01" fill="#FBBF24"/><rect x="273.60" y="167.80" width="8.40" height="8.40" rx="1.01" fill="#3B82F6"/><rect x="282.00" y="167.80" width="8.40" height="8.40" rx="1.01" fill="#3B82F6"/><rect x="290.40" y="167.80" width="8.40" height="8.40" rx="1.01" fill="#3B82F6"/><rect x="298.80" y="167.80" width="8.40" height="8.40" rx="1.01" fill="#3B82F6"/><rect x="307.20" y="167.80" width="8.40" height="8.40" rx="1.01" fill="#3B82F6"/><rect x="315.60" y="167.80" width="8.40" height="8.40" rx="1.01" fill="#3B82F6"/><rect x="156.00" y="176.20" width="8.40" height="8.40" rx="1.01" fill="#3B82F6"/><rect x="164.40" y="176.20" width="8.40" height="8.40" rx="1.01" fill="#3B82F6"/><rect x="172.80" y="176.20" width="8.40" height="8.40" rx="1.01" fill="#3B82F6"/><rect x="181.20" y="176.20" width="8.40" height="8.40" rx="1.01" fill="#3B82F6"/><rect x="189.60" y="176.20" width="8.40" height="8.40" rx="1.01" fill="#3B82F6"/><rect x="198.00" y="176.20" width="8.40" height="8.40" rx="1.01" fill="#FBBF24"/><rect x="206.40" y="176.20" width="8.40" height="8.40" rx="1.01" fill="#FBBF24"/><rect x="214.80" y="176.20" width="8.40" height="8.40" rx="1.01" fill="#FBBF24"/><rect x="223.20" y="176.20" width="8.40" height="8.40" rx="1.01" fill="#FBBF24"/><rect x="231.60" y="176.20" width="8.40" height="8.40" rx="1.01" fill="#FBBF24"/><rect x="240.00" y="176.20" width="8.40" height="8.40" rx="1.01" fill="#FBBF24"/><rect x="248.40" y="176.20" width="8.40" height="8.40" rx="1.01" fill="#FBBF24"/><rect x="256.80" y="176.20" width="8.40" height="8.40" rx="1.01" fill="#FBBF24"/><rect x="265.20" y="176.20" width="8.40" height="8.40" rx="1.01" fill="#FBBF24"/><rect x="273.60" y="176.20" width="8.40" height="8.40" rx="1.01" fill="#FBBF24"/><rect x="282.00" y="176.20" width="8.40" height="8.40" rx="1.01" fill="#FBBF24"/><rect x="290.40" y="176.20" width="8.40" height="8.40" rx="1.01" fill="#3B82F6"/><rect x="298.80" y="176.20" width="8.40" height="8.40" rx="1.01" fill="#3B82F6"/><rect x="307.20" y="176.20" width="8.40" height="8.40" rx="1.01" fill="#3B82F6"/><rect x="315.60" y="176.20" width="8.40" height="8.40" rx="1.01" fill="#3B82F6"/><rect x="156.00" y="184.60" width="8.40" height="8.40" rx="1.01" fill="#3B82F6"/><rect x="164.40" y="184.60" width="8.40" height="8.40" rx="1.01" fill="#3B82F6"/><rect x="172.80" y="184.60" width="8.40" height="8.40" rx="1.01" fill="#3B82F6"/><rect x="181.20" y="184.60" width="8.40" height="8.40" rx="1.01" fill="#3B82F6"/><rect x="189.60" y="184.60" width="8.40" height="8.40" rx="1.01" fill="#3B82F6"/><rect x="198.00" y="184.60" width="8.40" height="8.40" rx="1.01" fill="#3B82F6"/><rect x="206.40" y="184.60" width="8.40" height="8.40" rx="1.01" fill="#FBBF24"/><rect x="214.80" y="184.60" width="8.40" height="8.40" rx="1.01" fill="#FBBF24"/><rect x="223.20" y="184.60" width="8.40" height="8.40" rx="1.01" fill="#FBBF24"/><rect x="231.60" y="184.60" width="8.40" height="8.40" rx="1.01" fill="#FBBF24"/><rect x="240.00" y="184.60" width="8.40" height="8.40" rx="1.01" fill="#FBBF24"/><rect x="248.40" y="184.60" width="8.40" height="8.40" rx="1.01" fill="#FBBF24"/><rect x="256.80" y="184.60" width="8.40" height="8.40" rx="1.01" fill="#FBBF24"/><rect x="265.20" y="184.60" width="8.40" height="8.40" rx="1.01" fill="#FBBF24"/><rect x="273.60" y="184.60" width="8.40" height="8.40" rx="1.01" fill="#3B82F6"/><rect x="282.00" y="184.60" width="8.40" height="8.40" rx="1.01" fill="#3B82F6"/><rect x="290.40" y="184.60" width="8.40" height="8.40" rx="1.01" fill="#3B82F6"/><rect x="298.80" y="184.60" width="8.40" height="8.40" rx="1.01" fill="#3B82F6"/><rect x="307.20" y="184.60" width="8.40" height="8.40" rx="1.01" fill="#3B82F6"/><rect x="315.60" y="184.60" width="8.40" height="8.40" rx="1.01" fill="#3B82F6"/><rect x="156.00" y="193.00" width="8.40" height="8.40" rx="1.01" fill="#3B82F6"/><rect x="164.40" y="193.00" width="8.40" height="8.40" rx="1.01" fill="#3B82F6"/><rect x="172.80" y="193.00" width="8.40" height="8.40" rx="1.01" fill="#3B82F6"/><rect x="181.20" y="193.00" width="8.40" height="8.40" rx="1.01" fill="#3B82F6"/><rect x="189.60" y="193.00" width="8.40" height="8.40" rx="1.01" fill="#3B82F6"/><rect x="198.00" y="193.00" width="8.40" height="8.40" rx="1.01" fill="#3B82F6"/><rect x="206.40" y="193.00" width="8.40" height="8.40" rx="1.01" fill="#3B82F6"/><rect x="214.80" y="193.00" width="8.40" height="8.40" rx="1.01" fill="#3B82F6"/><rect x="223.20" y="193.00" width="8.40" height="8.40" rx="1.01" fill="#FFFFFF"/><rect x="231.60" y="193.00" width="8.40" height="8.40" rx="1.01" fill="#FFFFFF"/><rect x="240.00" y="193.00" width="8.40" height="8.40" rx="1.01" fill="#FFFFFF"/><rect x="248.40" y="193.00" width="8.40" height="8.40" rx="1.01" fill="#FFFFFF"/><rect x="256.80" y="193.00" width="8.40" height="8.40" rx="1.01" fill="#3B82F6"/><rect x="265.20" y="193.00" width="8.40" height="8.40" rx="1.01" fill="#3B82F6"/><rect x="273.60" y="193.00" width="8.40" height="8.40" rx="1.01" fill="#3B82F6"/><rect x="282.00" y="193.00" width="8.40" height="8.40" rx="1.01" fill="#3B82F6"/><rect x="290.40" y="193.00" width="8.40" height="8.40" rx="1.01" fill="#3B82F6"/><rect x="298.80" y="193.00" width="8.40" height="8.40" rx="1.01" fill="#3B82F6"/><rect x="307.20" y="193.00" width="8.40" height="8.40" rx="1.01" fill="#3B82F6"/><rect x="315.60" y="193.00" width="8.40" height="8.40" rx="1.01" fill="#3B82F6"/><rect x="156.00" y="201.40" width="8.40" height="8.40" rx="1.01" fill="#3B82F6"/><rect x="164.40" y="201.40" width="8.40" height="8.40" rx="1.01" fill="#3B82F6"/><rect x="172.80" y="201.40" width="8.40" height="8.40" rx="1.01" fill="#3B82F6"/><rect x="181.20" y="201.40" width="8.40" height="8.40" rx="1.01" fill="#3B82F6"/><rect x="189.60" y="201.40" width="8.40" height="8.40" rx="1.01" fill="#3B82F6"/><rect x="198.00" y="201.40" width="8.40" height="8.40" rx="1.01" fill="#3B82F6"/><rect x="206.40" y="201.40" width="8.40" height="8.40" rx="1.01" fill="#FFFFFF"/><rect x="214.80" y="201.40" width="8.40" height="8.40" rx="1.01" fill="#FFFFFF"/><rect x="223.20" y="201.40" width="8.40" height="8.40" rx="1.01" fill="#FFFFFF"/><rect x="231.60" y="201.40" width="8.40" height="8.40" rx="1.01" fill="#FFFFFF"/><rect x="240.00" y="201.40" width="8.40" height="8.40" rx="1.01" fill="#FFFFFF"/><rect x="248.40" y="201.40" width="8.40" height="8.40" rx="1.01" fill="#FFFFFF"/><rect x="256.80" y="201.40" width="8.40" height="8.40" rx="1.01" fill="#3B82F6"/><rect x="265.20" y="201.40" width="8.40" height="8.40" rx="1.01" fill="#3B82F6"/><rect x="273.60" y="201.40" width="8.40" height="8.40" rx="1.01" fill="#3B82F6"/><rect x="282.00" y="201.40" width="8.40" height="8.40" rx="1.01" fill="#3B82F6"/><rect x="290.40" y="201.40" width="8.40" height="8.40" rx="1.01" fill="#3B82F6"/><rect x="298.80" y="201.40" width="8.40" height="8.40" rx="1.01" fill="#3B82F6"/><rect x="307.20" y="201.40" width="8.40" height="8.40" rx="1.01" fill="#3B82F6"/><rect x="315.60" y="201.40" width="8.40" height="8.40" rx="1.01" fill="#3B82F6"/><rect x="164.40" y="209.80" width="8.40" height="8.40" rx="1.01" fill="#3B82F6"/><rect x="172.80" y="209.80" width="8.40" height="8.40" rx="1.01" fill="#3B82F6"/><rect x="181.20" y="209.80" width="8.40" height="8.40" rx="1.01" fill="#3B82F6"/><rect x="189.60" y="209.80" width="8.40" height="8.40" rx="1.01" fill="#3B82F6"/><rect x="198.00" y="209.80" width="8.40" height="8.40" rx="1.01" fill="#3B82F6"/><rect x="206.40" y="209.80" width="8.40" height="8.40" rx="1.01" fill="#3B82F6"/><rect x="214.80" y="209.80" width="8.40" height="8.40" rx="1.01" fill="#3B82F6"/><rect x="223.20" y="209.80" width="8.40" height="8.40" rx="1.01" fill="#3B82F6"/><rect x="231.60" y="209.80" width="8.40" height="8.40" rx="1.01" fill="#3B82F6"/><rect x="240.00" y="209.80" width="8.40" height="8.40" rx="1.01" fill="#3B82F6"/><rect x="248.40" y="209.80" width="8.40" height="8.40" rx="1.01" fill="#3B82F6"/><rect x="256.80" y="209.80" width="8.40" height="8.40" rx="1.01" fill="#3B82F6"/><rect x="265.20" y="209.80" width="8.40" height="8.40" rx="1.01" fill="#3B82F6"/><rect x="273.60" y="209.80" width="8.40" height="8.40" rx="1.01" fill="#3B82F6"/><rect x="282.00" y="209.80" width="8.40" height="8.40" rx="1.01" fill="#3B82F6"/><rect x="290.40" y="209.80" width="8.40" height="8.40" rx="1.01" fill="#3B82F6"/><rect x="298.80" y="209.80" width="8.40" height="8.40" rx="1.01" fill="#3B82F6"/><rect x="307.20" y="209.80" width="8.40" height="8.40" rx="1.01" fill="#3B82F6"/><rect x="172.80" y="218.20" width="8.40" height="8.40" rx="1.01" fill="#3B82F6"/><rect x="181.20" y="218.20" width="8.40" height="8.40" rx="1.01" fill="#3B82F6"/><rect x="189.60" y="218.20" width="8.40" height="8.40" rx="1.01" fill="#3B82F6"/><rect x="198.00" y="218.20" width="8.40" height="8.40" rx="1.01" fill="#3B82F6"/><rect x="206.40" y="218.20" width="8.40" height="8.40" rx="1.01" fill="#3B82F6"/><rect x="214.80" y="218.20" width="8.40" height="8.40" rx="1.01" fill="#3B82F6"/><rect x="223.20" y="218.20" width="8.40" height="8.40" rx="1.01" fill="#3B82F6"/><rect x="231.60" y="218.20" width="8.40" height="8.40" rx="1.01" fill="#3B82F6"/><rect x="240.00" y="218.20" width="8.40" height="8.40" rx="1.01" fill="#3B82F6"/><rect x="248.40" y="218.20" width="8.40" height="8.40" rx="1.01" fill="#3B82F6"/><rect x="256.80" y="218.20" width="8.40" height="8.40" rx="1.01" fill="#3B82F6"/><rect x="265.20" y="218.20" width="8.40" height="8.40" rx="1.01" fill="#3B82F6"/><rect x="273.60" y="218.20" width="8.40" height="8.40" rx="1.01" fill="#3B82F6"/><rect x="282.00" y="218.20" width="8.40" height="8.40" rx="1.01" fill="#3B82F6"/><rect x="290.40" y="218.20" width="8.40" height="8.40" rx="1.01" fill="#3B82F6"/><rect x="298.80" y="218.20" width="8.40" height="8.40" rx="1.01" fill="#3B82F6"/><rect x="181.20" y="226.60" width="8.40" height="8.40" rx="1.01" fill="#3B82F6"/><rect x="189.60" y="226.60" width="8.40" height="8.40" rx="1.01" fill="#3B82F6"/><rect x="198.00" y="226.60" width="8.40" height="8.40" rx="1.01" fill="#3B82F6"/><rect x="206.40" y="226.60" width="8.40" height="8.40" rx="1.01" fill="#3B82F6"/><rect x="214.80" y="226.60" width="8.40" height="8.40" rx="1.01" fill="#3B82F6"/><rect x="223.20" y="226.60" width="8.40" height="8.40" rx="1.01" fill="#3B82F6"/><rect x="231.60" y="226.60" width="8.40" height="8.40" rx="1.01" fill="#3B82F6"/><rect x="240.00" y="226.60" width="8.40" height="8.40" rx="1.01" fill="#3B82F6"/><rect x="248.40" y="226.60" width="8.40" height="8.40" rx="1.01" fill="#3B82F6"/><rect x="256.80" y="226.60" width="8.40" height="8.40" rx="1.01" fill="#3B82F6"/><rect x="265.20" y="226.60" width="8.40" height="8.40" rx="1.01" fill="#3B82F6"/><rect x="273.60" y="226.60" width="8.40" height="8.40" rx="1.01" fill="#3B82F6"/><rect x="282.00" y="226.60" width="8.40" height="8.40" rx="1.01" fill="#3B82F6"/><rect x="290.40" y="226.60" width="8.40" height="8.40" rx="1.01" fill="#3B82F6"/><rect x="189.60" y="235.00" width="8.40" height="8.40" rx="1.01" fill="#3B82F6"/><rect x="198.00" y="235.00" width="8.40" height="8.40" rx="1.01" fill="#3B82F6"/><rect x="206.40" y="235.00" width="8.40" height="8.40" rx="1.01" fill="#3B82F6"/><rect x="214.80" y="235.00" width="8.40" height="8.40" rx="1.01" fill="#3B82F6"/><rect x="223.20" y="235.00" width="8.40" height="8.40" rx="1.01" fill="#3B82F6"/><rect x="231.60" y="235.00" width="8.40" height="8.40" rx="1.01" fill="#3B82F6"/><rect x="240.00" y="235.00" width="8.40" height="8.40" rx="1.01" fill="#3B82F6"/><rect x="248.40" y="235.00" width="8.40" height="8.40" rx="1.01" fill="#3B82F6"/><rect x="256.80" y="235.00" width="8.40" height="8.40" rx="1.01" fill="#3B82F6"/><rect x="265.20" y="235.00" width="8.40" height="8.40" rx="1.01" fill="#3B82F6"/><rect x="273.60" y="235.00" width="8.40" height="8.40" rx="1.01" fill="#3B82F6"/><rect x="282.00" y="235.00" width="8.40" height="8.40" rx="1.01" fill="#3B82F6"/><rect x="198.00" y="243.40" width="8.40" height="8.40" rx="1.01" fill="#3B82F6"/><rect x="206.40" y="243.40" width="8.40" height="8.40" rx="1.01" fill="#3B82F6"/><rect x="214.80" y="243.40" width="8.40" height="8.40" rx="1.01" fill="#3B82F6"/><rect x="223.20" y="243.40" width="8.40" height="8.40" rx="1.01" fill="#3B82F6"/><rect x="231.60" y="243.40" width="8.40" height="8.40" rx="1.01" fill="#3B82F6"/><rect x="240.00" y="243.40" width="8.40" height="8.40" rx="1.01" fill="#3B82F6"/><rect x="248.40" y="243.40" width="8.40" height="8.40" rx="1.01" fill="#3B82F6"/><rect x="256.80" y="243.40" width="8.40" height="8.40" rx="1.01" fill="#3B82F6"/><rect x="265.20" y="243.40" width="8.40" height="8.40" rx="1.01" fill="#3B82F6"/>
  <rect x="390" y="20" width="70" height="22" rx="11" fill="#ef4444"/>
  <text x="425" y="35" font-family="-apple-system, sans-serif" font-size="11" font-weight="600" fill="#ffffff" text-anchor="middle">HARD</text>
  <rect x="20" y="20" width="48" height="22" rx="11" fill="#3B82F6" opacity="0.9"/>
  <text x="44" y="35" font-family="-apple-system, sans-serif" font-size="10" font-weight="600" fill="#ffffff" text-anchor="middle">GAME</text>
  <text x="240" y="286" font-family="-apple-system, 'PingFang SC', sans-serif" font-size="16" font-weight="600" fill="#1d1d1f" text-anchor="middle">苍响</text>
  <text x="240" y="304" font-family="-apple-system, sans-serif" font-size="11" font-weight="400" fill="#86868b" text-anchor="middle">306 beads · 20×20</text>
</svg>
