<svg xmlns="http://www.w3.org/2000/svg" viewBox="0 0 480 360" width="480" height="360">
  <defs>
    <linearGradient id="bgpokemonlucario014" x1="0%" y1="0%" x2="100%" y2="100%">
      <stop offset="0%" stop-color="#EF4444" stop-opacity="0.25"/>
      <stop offset="100%" stop-color="#FBBF24" stop-opacity="0.25"/>
    </linearGradient>
    <linearGradient id="cardpokemonlucario014" x1="0%" y1="0%" x2="0%" y2="100%">
      <stop offset="0%" stop-color="#ffffff" stop-opacity="0.98"/>
      <stop offset="100%" stop-color="#f5f5f7" stop-opacity="0.95"/>
    </linearGradient>
    <linearGradient id="boardpokemonlucario014" x1="0%" y1="0%" x2="0%" y2="100%">
      <stop offset="0%" stop-color="#1d1d1f" stop-opacity="0.04"/>
      <stop offset="100%" stop-color="#1d1d1f" stop-opacity="0.08"/>
    </linearGradient>
    <filter id="shadowpokemonlucario014" x="-10%" y="-10%" width="120%" height="120%">
      <feGaussianBlur in="SourceAlpha" stdDeviation="4"/>
      <feOffset dx="0" dy="2"/>
      <feComponentTransfer><feFuncA type="linear" slope="0.15"/></feComponentTransfer>
      <feMerge><feMergeNode/><feMergeNode in="SourceGraphic"/></feMerge>
    </filter>
  </defs>
  <rect width="480" height="360" fill="#fafafa"/>
  <rect width="480" height="360" fill="url(#bgpokemonlucario014)"/>
  <path d="M 0 340 Q 240 320 480 340" stroke="#3B82F6" stroke-width="1" fill="none" opacity="0.15"/>
  <path d="M 0 20 Q 240 0 480 20" stroke="#EF4444" stroke-width="1" fill="none" opacity="0.2"/>
  <circle cx="30" cy="25" r="2" fill="#EF4444" opacity="0.15"/>
  <circle cx="86" cy="72" r="3" fill="#FBBF24" opacity="0.22999999999999998"/>
  <circle cx="142" cy="119" r="4" fill="#3B82F6" opacity="0.31"/>
  <circle cx="198" cy="166" r="5" fill="#EF4444" opacity="0.15"/>
  <circle cx="254" cy="213" r="2" fill="#FBBF24" opacity="0.22999999999999998"/>
  <circle cx="310" cy="260" r="3" fill="#3B82F6" opacity="0.31"/>
  <circle cx="366" cy="307" r="4" fill="#EF4444" opacity="0.15"/>
  <circle cx="422" cy="34" r="5" fill="#FBBF24" opacity="0.22999999999999998"/>
  <rect x="138" y="70" width="204" height="232" rx="18" fill="url(#cardpokemonlucario014)" stroke="rgba(0,0,0,0.06)" stroke-width="1" filter="url(#shadowpokemonlucario014)"/>
  <!-- 像素预览底板（深色，让浅色像素可见） -->
  <rect x="152" y="84" width="176" height="176" rx="6" fill="#f5f5f7" stroke="rgba(0,0,0,0.08)" stroke-width="1"/>
  <!-- 像素网格 -->
  <rect x="196.32" y="88.00" width="6.72" height="6.72" fill="#3B82F6"/><rect x="276.96" y="88.00" width="6.72" height="6.72" fill="#3B82F6"/><rect x="203.04" y="94.72" width="6.72" height="6.72" fill="#3B82F6"/><rect x="270.24" y="94.72" width="6.72" height="6.72" fill="#3B82F6"/><rect x="203.04" y="101.44" width="6.72" height="6.72" fill="#3B82F6"/><rect x="270.24" y="101.44" width="6.72" height="6.72" fill="#3B82F6"/><rect x="209.76" y="108.16" width="6.72" height="6.72" fill="#3B82F6"/><rect x="263.52" y="108.16" width="6.72" height="6.72" fill="#3B82F6"/><rect x="209.76" y="114.88" width="6.72" height="6.72" fill="#3B82F6"/><rect x="236.64" y="114.88" width="6.72" height="6.72" fill="#3B82F6"/><rect x="263.52" y="114.88" width="6.72" height="6.72" fill="#3B82F6"/><rect x="223.20" y="121.60" width="6.72" height="6.72" fill="#3B82F6"/><rect x="229.92" y="121.60" width="6.72" height="6.72" fill="#3B82F6"/><rect x="236.64" y="121.60" width="6.72" height="6.72" fill="#3B82F6"/><rect x="243.36" y="121.60" width="6.72" height="6.72" fill="#3B82F6"/><rect x="250.08" y="121.60" width="6.72" height="6.72" fill="#3B82F6"/><rect x="216.48" y="128.32" width="6.72" height="6.72" fill="#3B82F6"/><rect x="223.20" y="128.32" width="6.72" height="6.72" fill="#3B82F6"/><rect x="229.92" y="128.32" width="6.72" height="6.72" fill="#3B82F6"/><rect x="236.64" y="128.32" width="6.72" height="6.72" fill="#3B82F6"/><rect x="243.36" y="128.32" width="6.72" height="6.72" fill="#3B82F6"/><rect x="250.08" y="128.32" width="6.72" height="6.72" fill="#3B82F6"/><rect x="256.80" y="128.32" width="6.72" height="6.72" fill="#3B82F6"/><rect x="216.48" y="135.04" width="6.72" height="6.72" fill="#1A1A1A"/><rect x="223.20" y="135.04" width="6.72" height="6.72" fill="#1A1A1A"/><rect x="229.92" y="135.04" width="6.72" height="6.72" fill="#1A1A1A"/><rect x="236.64" y="135.04" width="6.72" height="6.72" fill="#1A1A1A"/><rect x="243.36" y="135.04" width="6.72" height="6.72" fill="#1A1A1A"/><rect x="250.08" y="135.04" width="6.72" height="6.72" fill="#1A1A1A"/><rect x="256.80" y="135.04" width="6.72" height="6.72" fill="#1A1A1A"/><rect x="203.04" y="141.76" width="6.72" height="6.72" fill="#3B82F6"/><rect x="209.76" y="141.76" width="6.72" height="6.72" fill="#3B82F6"/><rect x="216.48" y="141.76" width="6.72" height="6.72" fill="#1A1A1A"/><rect x="223.20" y="141.76" width="6.72" height="6.72" fill="#15803D"/><rect x="229.92" y="141.76" width="6.72" height="6.72" fill="#1A1A1A"/><rect x="236.64" y="141.76" width="6.72" height="6.72" fill="#1A1A1A"/><rect x="243.36" y="141.76" width="6.72" height="6.72" fill="#1A1A1A"/><rect x="250.08" y="141.76" width="6.72" height="6.72" fill="#15803D"/><rect x="256.80" y="141.76" width="6.72" height="6.72" fill="#1A1A1A"/><rect x="263.52" y="141.76" width="6.72" height="6.72" fill="#3B82F6"/><rect x="270.24" y="141.76" width="6.72" height="6.72" fill="#3B82F6"/><rect x="203.04" y="148.48" width="6.72" height="6.72" fill="#3B82F6"/><rect x="209.76" y="148.48" width="6.72" height="6.72" fill="#3B82F6"/><rect x="216.48" y="148.48" width="6.72" height="6.72" fill="#1A1A1A"/><rect x="223.20" y="148.48" width="6.72" height="6.72" fill="#1A1A1A"/><rect x="229.92" y="148.48" width="6.72" height="6.72" fill="#1A1A1A"/><rect x="236.64" y="148.48" width="6.72" height="6.72" fill="#1A1A1A"/><rect x="243.36" y="148.48" width="6.72" height="6.72" fill="#1A1A1A"/><rect x="250.08" y="148.48" width="6.72" height="6.72" fill="#1A1A1A"/><rect x="256.80" y="148.48" width="6.72" height="6.72" fill="#1A1A1A"/><rect x="263.52" y="148.48" width="6.72" height="6.72" fill="#3B82F6"/><rect x="270.24" y="148.48" width="6.72" height="6.72" fill="#3B82F6"/><rect x="203.04" y="155.20" width="6.72" height="6.72" fill="#3B82F6"/><rect x="209.76" y="155.20" width="6.72" height="6.72" fill="#3B82F6"/><rect x="216.48" y="155.20" width="6.72" height="6.72" fill="#3B82F6"/><rect x="223.20" y="155.20" width="6.72" height="6.72" fill="#3B82F6"/><rect x="229.92" y="155.20" width="6.72" height="6.72" fill="#3B82F6"/><rect x="236.64" y="155.20" width="6.72" height="6.72" fill="#3B82F6"/><rect x="243.36" y="155.20" width="6.72" height="6.72" fill="#3B82F6"/><rect x="250.08" y="155.20" width="6.72" height="6.72" fill="#3B82F6"/><rect x="256.80" y="155.20" width="6.72" height="6.72" fill="#3B82F6"/><rect x="263.52" y="155.20" width="6.72" height="6.72" fill="#3B82F6"/><rect x="270.24" y="155.20" width="6.72" height="6.72" fill="#3B82F6"/><rect x="203.04" y="161.92" width="6.72" height="6.72" fill="#3B82F6"/><rect x="209.76" y="161.92" width="6.72" height="6.72" fill="#3B82F6"/><rect x="216.48" y="161.92" width="6.72" height="6.72" fill="#3B82F6"/><rect x="223.20" y="161.92" width="6.72" height="6.72" fill="#3B82F6"/><rect x="229.92" y="161.92" width="6.72" height="6.72" fill="#3B82F6"/><rect x="236.64" y="161.92" width="6.72" height="6.72" fill="#3B82F6"/><rect x="243.36" y="161.92" width="6.72" height="6.72" fill="#3B82F6"/><rect x="250.08" y="161.92" width="6.72" height="6.72" fill="#3B82F6"/><rect x="256.80" y="161.92" width="6.72" height="6.72" fill="#3B82F6"/><rect x="263.52" y="161.92" width="6.72" height="6.72" fill="#3B82F6"/><rect x="270.24" y="161.92" width="6.72" height="6.72" fill="#3B82F6"/><rect x="203.04" y="168.64" width="6.72" height="6.72" fill="#3B82F6"/><rect x="209.76" y="168.64" width="6.72" height="6.72" fill="#3B82F6"/><rect x="216.48" y="168.64" width="6.72" height="6.72" fill="#3B82F6"/><rect x="223.20" y="168.64" width="6.72" height="6.72" fill="#3B82F6"/><rect x="229.92" y="168.64" width="6.72" height="6.72" fill="#3B82F6"/><rect x="236.64" y="168.64" width="6.72" height="6.72" fill="#3B82F6"/><rect x="243.36" y="168.64" width="6.72" height="6.72" fill="#3B82F6"/><rect x="250.08" y="168.64" width="6.72" height="6.72" fill="#3B82F6"/><rect x="256.80" y="168.64" width="6.72" height="6.72" fill="#3B82F6"/><rect x="263.52" y="168.64" width="6.72" height="6.72" fill="#3B82F6"/><rect x="270.24" y="168.64" width="6.72" height="6.72" fill="#3B82F6"/><rect x="203.04" y="175.36" width="6.72" height="6.72" fill="#3B82F6"/><rect x="209.76" y="175.36" width="6.72" height="6.72" fill="#3B82F6"/><rect x="216.48" y="175.36" width="6.72" height="6.72" fill="#3B82F6"/><rect x="223.20" y="175.36" width="6.72" height="6.72" fill="#3B82F6"/><rect x="229.92" y="175.36" width="6.72" height="6.72" fill="#3B82F6"/><rect x="236.64" y="175.36" width="6.72" height="6.72" fill="#3B82F6"/><rect x="243.36" y="175.36" width="6.72" height="6.72" fill="#3B82F6"/><rect x="250.08" y="175.36" width="6.72" height="6.72" fill="#3B82F6"/><rect x="256.80" y="175.36" width="6.72" height="6.72" fill="#3B82F6"/><rect x="263.52" y="175.36" width="6.72" height="6.72" fill="#3B82F6"/><rect x="270.24" y="175.36" width="6.72" height="6.72" fill="#3B82F6"/><rect x="203.04" y="182.08" width="6.72" height="6.72" fill="#3B82F6"/><rect x="209.76" y="182.08" width="6.72" height="6.72" fill="#3B82F6"/><rect x="216.48" y="182.08" width="6.72" height="6.72" fill="#3B82F6"/><rect x="223.20" y="182.08" width="6.72" height="6.72" fill="#3B82F6"/><rect x="229.92" y="182.08" width="6.72" height="6.72" fill="#3B82F6"/><rect x="236.64" y="182.08" width="6.72" height="6.72" fill="#3B82F6"/><rect x="243.36" y="182.08" width="6.72" height="6.72" fill="#3B82F6"/><rect x="250.08" y="182.08" width="6.72" height="6.72" fill="#3B82F6"/><rect x="256.80" y="182.08" width="6.72" height="6.72" fill="#3B82F6"/><rect x="263.52" y="182.08" width="6.72" height="6.72" fill="#3B82F6"/><rect x="270.24" y="182.08" width="6.72" height="6.72" fill="#3B82F6"/><rect x="203.04" y="188.80" width="6.72" height="6.72" fill="#3B82F6"/><rect x="209.76" y="188.80" width="6.72" height="6.72" fill="#3B82F6"/><rect x="216.48" y="188.80" width="6.72" height="6.72" fill="#3B82F6"/><rect x="223.20" y="188.80" width="6.72" height="6.72" fill="#22C55E"/><rect x="229.92" y="188.80" width="6.72" height="6.72" fill="#22C55E"/><rect x="236.64" y="188.80" width="6.72" height="6.72" fill="#22C55E"/><rect x="243.36" y="188.80" width="6.72" height="6.72" fill="#22C55E"/><rect x="250.08" y="188.80" width="6.72" height="6.72" fill="#22C55E"/><rect x="256.80" y="188.80" width="6.72" height="6.72" fill="#3B82F6"/><rect x="263.52" y="188.80" width="6.72" height="6.72" fill="#3B82F6"/><rect x="270.24" y="188.80" width="6.72" height="6.72" fill="#3B82F6"/><rect x="203.04" y="195.52" width="6.72" height="6.72" fill="#3B82F6"/><rect x="209.76" y="195.52" width="6.72" height="6.72" fill="#3B82F6"/><rect x="216.48" y="195.52" width="6.72" height="6.72" fill="#3B82F6"/><rect x="223.20" y="195.52" width="6.72" height="6.72" fill="#22C55E"/><rect x="229.92" y="195.52" width="6.72" height="6.72" fill="#22C55E"/><rect x="236.64" y="195.52" width="6.72" height="6.72" fill="#22C55E"/><rect x="243.36" y="195.52" width="6.72" height="6.72" fill="#22C55E"/><rect x="250.08" y="195.52" width="6.72" height="6.72" fill="#22C55E"/><rect x="256.80" y="195.52" width="6.72" height="6.72" fill="#3B82F6"/><rect x="263.52" y="195.52" width="6.72" height="6.72" fill="#3B82F6"/><rect x="270.24" y="195.52" width="6.72" height="6.72" fill="#3B82F6"/><rect x="196.32" y="202.24" width="6.72" height="6.72" fill="#3B82F6"/><rect x="203.04" y="202.24" width="6.72" height="6.72" fill="#3B82F6"/><rect x="209.76" y="202.24" width="6.72" height="6.72" fill="#3B82F6"/><rect x="216.48" y="202.24" width="6.72" height="6.72" fill="#3B82F6"/><rect x="223.20" y="202.24" width="6.72" height="6.72" fill="#22C55E"/><rect x="229.92" y="202.24" width="6.72" height="6.72" fill="#22C55E"/><rect x="236.64" y="202.24" width="6.72" height="6.72" fill="#22C55E"/><rect x="243.36" y="202.24" width="6.72" height="6.72" fill="#22C55E"/><rect x="250.08" y="202.24" width="6.72" height="6.72" fill="#22C55E"/><rect x="256.80" y="202.24" width="6.72" height="6.72" fill="#3B82F6"/><rect x="263.52" y="202.24" width="6.72" height="6.72" fill="#3B82F6"/><rect x="270.24" y="202.24" width="6.72" height="6.72" fill="#3B82F6"/><rect x="276.96" y="202.24" width="6.72" height="6.72" fill="#3B82F6"/><rect x="189.60" y="208.96" width="6.72" height="6.72" fill="#3B82F6"/><rect x="203.04" y="208.96" width="6.72" height="6.72" fill="#3B82F6"/><rect x="209.76" y="208.96" width="6.72" height="6.72" fill="#3B82F6"/><rect x="216.48" y="208.96" width="6.72" height="6.72" fill="#3B82F6"/><rect x="223.20" y="208.96" width="6.72" height="6.72" fill="#3B82F6"/><rect x="229.92" y="208.96" width="6.72" height="6.72" fill="#3B82F6"/><rect x="236.64" y="208.96" width="6.72" height="6.72" fill="#3B82F6"/><rect x="243.36" y="208.96" width="6.72" height="6.72" fill="#3B82F6"/><rect x="250.08" y="208.96" width="6.72" height="6.72" fill="#3B82F6"/><rect x="256.80" y="208.96" width="6.72" height="6.72" fill="#3B82F6"/><rect x="263.52" y="208.96" width="6.72" height="6.72" fill="#3B82F6"/><rect x="270.24" y="208.96" width="6.72" height="6.72" fill="#3B82F6"/><rect x="283.68" y="208.96" width="6.72" height="6.72" fill="#3B82F6"/><rect x="182.88" y="215.68" width="6.72" height="6.72" fill="#3B82F6"/><rect x="203.04" y="215.68" width="6.72" height="6.72" fill="#3B82F6"/><rect x="209.76" y="215.68" width="6.72" height="6.72" fill="#3B82F6"/><rect x="216.48" y="215.68" width="6.72" height="6.72" fill="#3B82F6"/><rect x="223.20" y="215.68" width="6.72" height="6.72" fill="#3B82F6"/><rect x="229.92" y="215.68" width="6.72" height="6.72" fill="#3B82F6"/><rect x="236.64" y="215.68" width="6.72" height="6.72" fill="#3B82F6"/><rect x="243.36" y="215.68" width="6.72" height="6.72" fill="#3B82F6"/><rect x="250.08" y="215.68" width="6.72" height="6.72" fill="#3B82F6"/><rect x="256.80" y="215.68" width="6.72" height="6.72" fill="#3B82F6"/><rect x="263.52" y="215.68" width="6.72" height="6.72" fill="#3B82F6"/><rect x="270.24" y="215.68" width="6.72" height="6.72" fill="#3B82F6"/><rect x="290.40" y="215.68" width="6.72" height="6.72" fill="#3B82F6"/><rect x="176.16" y="222.40" width="6.72" height="6.72" fill="#3B82F6"/><rect x="203.04" y="222.40" width="6.72" height="6.72" fill="#3B82F6"/><rect x="209.76" y="222.40" width="6.72" height="6.72" fill="#3B82F6"/><rect x="216.48" y="222.40" width="6.72" height="6.72" fill="#3B82F6"/><rect x="223.20" y="222.40" width="6.72" height="6.72" fill="#3B82F6"/><rect x="229.92" y="222.40" width="6.72" height="6.72" fill="#3B82F6"/><rect x="236.64" y="222.40" width="6.72" height="6.72" fill="#1E40AF"/><rect x="243.36" y="222.40" width="6.72" height="6.72" fill="#3B82F6"/><rect x="250.08" y="222.40" width="6.72" height="6.72" fill="#3B82F6"/><rect x="256.80" y="222.40" width="6.72" height="6.72" fill="#3B82F6"/><rect x="263.52" y="222.40" width="6.72" height="6.72" fill="#3B82F6"/><rect x="270.24" y="222.40" width="6.72" height="6.72" fill="#3B82F6"/><rect x="297.12" y="222.40" width="6.72" height="6.72" fill="#3B82F6"/><rect x="229.92" y="229.12" width="6.72" height="6.72" fill="#1E40AF"/><rect x="236.64" y="229.12" width="6.72" height="6.72" fill="#1E40AF"/><rect x="243.36" y="229.12" width="6.72" height="6.72" fill="#1E40AF"/><rect x="223.20" y="235.84" width="6.72" height="6.72" fill="#1E40AF"/><rect x="229.92" y="235.84" width="6.72" height="6.72" fill="#1E40AF"/><rect x="236.64" y="235.84" width="6.72" height="6.72" fill="#1E40AF"/><rect x="243.36" y="235.84" width="6.72" height="6.72" fill="#1E40AF"/><rect x="250.08" y="235.84" width="6.72" height="6.72" fill="#1E40AF"/><rect x="229.92" y="242.56" width="6.72" height="6.72" fill="#1E40AF"/><rect x="236.64" y="242.56" width="6.72" height="6.72" fill="#1E40AF"/><rect x="243.36" y="242.56" width="6.72" height="6.72" fill="#1E40AF"/><rect x="236.64" y="249.28" width="6.72" height="6.72" fill="#1E40AF"/>
  <!-- 难度标签 -->
  <rect x="390" y="20" width="70" height="22" rx="11" fill="#ff3b30"/>
  <text x="425" y="35" font-family="-apple-system, sans-serif" font-size="11" font-weight="600" fill="#ffffff" text-anchor="middle">HARD</text>
  <!-- 分类标签 -->
  <rect x="20" y="20" width="72" height="22" rx="11" fill="#3B82F6" opacity="0.9"/>
  <text x="56" y="35" font-family="-apple-system, sans-serif" font-size="10" font-weight="600" fill="#ffffff" text-anchor="middle">POKEMON</text>
  <!-- 模板名 -->
  <text x="240" y="286" font-family="-apple-system, 'PingFang SC', sans-serif" font-size="16" font-weight="600" fill="#1d1d1f" text-anchor="middle">路卡利欧</text>
  <text x="240" y="304" font-family="-apple-system, sans-serif" font-size="11" font-weight="400" fill="#86868b" text-anchor="middle">193 beads · 32×32</text>
</svg>
