<?xml version="1.0" encoding="UTF-8"?>
<svg xmlns="http://www.w3.org/2000/svg" viewBox="0 0 480 360" width="480" height="360">
  
    <defs>
      <linearGradient id="bg" x1="0" y1="0" x2="1" y2="1">
        <stop offset="0%" stop-color="#DC143C" stop-opacity="0.15"/>
        <stop offset="100%" stop-color="#FF8C00" stop-opacity="0.25"/>
      </linearGradient>
      <linearGradient id="card" x1="0" y1="0" x2="0" y2="1">
        <stop offset="0%" stop-color="#ffffff"/>
        <stop offset="100%" stop-color="#f8f9fa"/>
      </linearGradient>
      <filter id="shadow" x="-20%" y="-20%" width="140%" height="140%">
        <feDropShadow dx="0" dy="4" stdDeviation="6" flood-opacity="0.15"/>
      </filter>
    </defs>
  
  <rect width="480" height="360" fill="url(#bg)" />
  <rect x="148" y="57" width="8" height="8" rx="1" fill="#8B4513" opacity="0.30" /><rect x="310" y="282" width="4" height="4" rx="1" fill="#FF8C00" opacity="0.15" /><rect x="33" y="90" width="4" height="4" rx="1" fill="#8B4513" opacity="0.25" /><rect x="196" y="314" width="6" height="6" rx="1" fill="#FF8C00" opacity="0.10" /><rect x="359" y="219" width="8" height="8" rx="1" fill="#DC143C" opacity="0.20" /><rect x="82" y="27" width="8" height="8" rx="1" fill="#FF8C00" opacity="0.30" /><rect x="244" y="251" width="4" height="4" rx="1" fill="#DC143C" opacity="0.15" /><rect x="407" y="156" width="6" height="6" rx="1" fill="#8B4513" opacity="0.25" /><rect x="130" y="284" width="6" height="6" rx="1" fill="#DC143C" opacity="0.10" /><rect x="293" y="188" width="8" height="8" rx="1" fill="#8B4513" opacity="0.20" /><rect x="456" y="93" width="4" height="4" rx="1" fill="#FF8C00" opacity="0.30" /><rect x="178" y="221" width="4" height="4" rx="1" fill="#8B4513" opacity="0.15" />
  <rect x="120" y="40" width="240" height="240" rx="12" fill="url(#card)" filter="url(#shadow)" />
  <rect x="212" y="48" width="14" height="14" rx="2" fill="#DC143C" /><rect x="226" y="48" width="14" height="14" rx="2" fill="#DC143C" /><rect x="198" y="62" width="14" height="14" rx="2" fill="#DC143C" /><rect x="212" y="62" width="14" height="14" rx="2" fill="#DC143C" /><rect x="226" y="62" width="14" height="14" rx="2" fill="#DC143C" /><rect x="240" y="62" width="14" height="14" rx="2" fill="#DC143C" /><rect x="142" y="76" width="14" height="14" rx="2" fill="#DC143C" /><rect x="184" y="76" width="14" height="14" rx="2" fill="#DC143C" /><rect x="198" y="76" width="14" height="14" rx="2" fill="#DC143C" /><rect x="212" y="76" width="14" height="14" rx="2" fill="#FF8C00" /><rect x="226" y="76" width="14" height="14" rx="2" fill="#FF8C00" /><rect x="240" y="76" width="14" height="14" rx="2" fill="#DC143C" /><rect x="254" y="76" width="14" height="14" rx="2" fill="#DC143C" /><rect x="296" y="76" width="14" height="14" rx="2" fill="#DC143C" /><rect x="142" y="90" width="14" height="14" rx="2" fill="#DC143C" /><rect x="156" y="90" width="14" height="14" rx="2" fill="#DC143C" /><rect x="184" y="90" width="14" height="14" rx="2" fill="#DC143C" /><rect x="198" y="90" width="14" height="14" rx="2" fill="#FF8C00" /><rect x="212" y="90" width="14" height="14" rx="2" fill="#FF8C00" /><rect x="226" y="90" width="14" height="14" rx="2" fill="#FF8C00" /><rect x="240" y="90" width="14" height="14" rx="2" fill="#FF8C00" /><rect x="254" y="90" width="14" height="14" rx="2" fill="#DC143C" /><rect x="282" y="90" width="14" height="14" rx="2" fill="#DC143C" /><rect x="296" y="90" width="14" height="14" rx="2" fill="#DC143C" /><rect x="156" y="104" width="14" height="14" rx="2" fill="#DC143C" /><rect x="170" y="104" width="14" height="14" rx="2" fill="#DC143C" /><rect x="184" y="104" width="14" height="14" rx="2" fill="#DC143C" /><rect x="198" y="104" width="14" height="14" rx="2" fill="#FF8C00" /><rect x="212" y="104" width="14" height="14" rx="2" fill="#FF8C00" /><rect x="226" y="104" width="14" height="14" rx="2" fill="#FF8C00" /><rect x="240" y="104" width="14" height="14" rx="2" fill="#FF8C00" /><rect x="254" y="104" width="14" height="14" rx="2" fill="#DC143C" /><rect x="268" y="104" width="14" height="14" rx="2" fill="#DC143C" /><rect x="282" y="104" width="14" height="14" rx="2" fill="#DC143C" /><rect x="170" y="118" width="14" height="14" rx="2" fill="#DC143C" /><rect x="184" y="118" width="14" height="14" rx="2" fill="#DC143C" /><rect x="198" y="118" width="14" height="14" rx="2" fill="#FF8C00" /><rect x="212" y="118" width="14" height="14" rx="2" fill="#FF8C00" /><rect x="226" y="118" width="14" height="14" rx="2" fill="#FF8C00" /><rect x="240" y="118" width="14" height="14" rx="2" fill="#FF8C00" /><rect x="254" y="118" width="14" height="14" rx="2" fill="#DC143C" /><rect x="268" y="118" width="14" height="14" rx="2" fill="#DC143C" /><rect x="128" y="132" width="14" height="14" rx="2" fill="#DC143C" /><rect x="184" y="132" width="14" height="14" rx="2" fill="#DC143C" /><rect x="198" y="132" width="14" height="14" rx="2" fill="#FF8C00" /><rect x="212" y="132" width="14" height="14" rx="2" fill="#FF8C00" /><rect x="226" y="132" width="14" height="14" rx="2" fill="#FF8C00" /><rect x="240" y="132" width="14" height="14" rx="2" fill="#FF8C00" /><rect x="254" y="132" width="14" height="14" rx="2" fill="#DC143C" /><rect x="310" y="132" width="14" height="14" rx="2" fill="#DC143C" /><rect x="128" y="146" width="14" height="14" rx="2" fill="#DC143C" /><rect x="142" y="146" width="14" height="14" rx="2" fill="#DC143C" /><rect x="184" y="146" width="14" height="14" rx="2" fill="#DC143C" /><rect x="198" y="146" width="14" height="14" rx="2" fill="#FF8C00" /><rect x="212" y="146" width="14" height="14" rx="2" fill="#FF8C00" /><rect x="226" y="146" width="14" height="14" rx="2" fill="#FF8C00" /><rect x="240" y="146" width="14" height="14" rx="2" fill="#FF8C00" /><rect x="254" y="146" width="14" height="14" rx="2" fill="#DC143C" /><rect x="296" y="146" width="14" height="14" rx="2" fill="#DC143C" /><rect x="310" y="146" width="14" height="14" rx="2" fill="#DC143C" /><rect x="142" y="160" width="14" height="14" rx="2" fill="#DC143C" /><rect x="156" y="160" width="14" height="14" rx="2" fill="#DC143C" /><rect x="184" y="160" width="14" height="14" rx="2" fill="#DC143C" /><rect x="198" y="160" width="14" height="14" rx="2" fill="#FF8C00" /><rect x="212" y="160" width="14" height="14" rx="2" fill="#FF8C00" /><rect x="226" y="160" width="14" height="14" rx="2" fill="#FF8C00" /><rect x="240" y="160" width="14" height="14" rx="2" fill="#FF8C00" /><rect x="254" y="160" width="14" height="14" rx="2" fill="#DC143C" /><rect x="282" y="160" width="14" height="14" rx="2" fill="#DC143C" /><rect x="296" y="160" width="14" height="14" rx="2" fill="#DC143C" /><rect x="156" y="174" width="14" height="14" rx="2" fill="#DC143C" /><rect x="170" y="174" width="14" height="14" rx="2" fill="#DC143C" /><rect x="184" y="174" width="14" height="14" rx="2" fill="#DC143C" /><rect x="198" y="174" width="14" height="14" rx="2" fill="#FF8C00" /><rect x="212" y="174" width="14" height="14" rx="2" fill="#FF8C00" /><rect x="226" y="174" width="14" height="14" rx="2" fill="#FF8C00" /><rect x="240" y="174" width="14" height="14" rx="2" fill="#FF8C00" /><rect x="254" y="174" width="14" height="14" rx="2" fill="#DC143C" /><rect x="268" y="174" width="14" height="14" rx="2" fill="#DC143C" /><rect x="282" y="174" width="14" height="14" rx="2" fill="#DC143C" /><rect x="170" y="188" width="14" height="14" rx="2" fill="#DC143C" /><rect x="184" y="188" width="14" height="14" rx="2" fill="#DC143C" /><rect x="198" y="188" width="14" height="14" rx="2" fill="#FF8C00" /><rect x="212" y="188" width="14" height="14" rx="2" fill="#FF8C00" /><rect x="226" y="188" width="14" height="14" rx="2" fill="#FF8C00" /><rect x="240" y="188" width="14" height="14" rx="2" fill="#FF8C00" /><rect x="254" y="188" width="14" height="14" rx="2" fill="#DC143C" /><rect x="268" y="188" width="14" height="14" rx="2" fill="#DC143C" /><rect x="184" y="202" width="14" height="14" rx="2" fill="#DC143C" /><rect x="198" y="202" width="14" height="14" rx="2" fill="#DC143C" /><rect x="212" y="202" width="14" height="14" rx="2" fill="#FF8C00" /><rect x="226" y="202" width="14" height="14" rx="2" fill="#FF8C00" /><rect x="240" y="202" width="14" height="14" rx="2" fill="#DC143C" /><rect x="254" y="202" width="14" height="14" rx="2" fill="#DC143C" /><rect x="198" y="216" width="14" height="14" rx="2" fill="#DC143C" /><rect x="212" y="216" width="14" height="14" rx="2" fill="#DC143C" /><rect x="226" y="216" width="14" height="14" rx="2" fill="#DC143C" /><rect x="240" y="216" width="14" height="14" rx="2" fill="#DC143C" /><rect x="212" y="230" width="14" height="14" rx="2" fill="#DC143C" /><rect x="226" y="230" width="14" height="14" rx="2" fill="#DC143C" /><rect x="226" y="244" width="14" height="14" rx="2" fill="#8B4513" /><rect x="226" y="258" width="14" height="14" rx="2" fill="#8B4513" />
  <rect x="390" y="16" width="74" height="26" rx="13" fill="#f59e0b" />
  <text x="427" y="33" text-anchor="middle" fill="#fff" font-size="13" font-family="system-ui, sans-serif" font-weight="600">中等</text>
  <text x="240" y="340" text-anchor="middle" fill="#1f2937" font-size="20" font-family="system-ui, sans-serif" font-weight="700">秋枫</text>
</svg>