<svg xmlns="http://www.w3.org/2000/svg" viewBox="0 0 480 360" width="480" height="360">
  <defs>
    <linearGradient id="bgzeldalink001" x1="0%" y1="0%" x2="100%" y2="100%">
      <stop offset="0%" stop-color="#EC4899" stop-opacity="0.25"/>
      <stop offset="100%" stop-color="#3B82F6" stop-opacity="0.25"/>
    </linearGradient>
    <linearGradient id="cardzeldalink001" x1="0%" y1="0%" x2="0%" y2="100%">
      <stop offset="0%" stop-color="#ffffff" stop-opacity="0.98"/>
      <stop offset="100%" stop-color="#f5f5f7" stop-opacity="0.95"/>
    </linearGradient>
    <filter id="shadowzeldalink001" x="-10%" y="-10%" width="120%" height="120%">
      <feGaussianBlur in="SourceAlpha" stdDeviation="4"/>
      <feOffset dx="0" dy="2"/>
      <feComponentTransfer><feFuncA type="linear" slope="0.15"/></feComponentTransfer>
      <feMerge><feMergeNode/><feMergeNode in="SourceGraphic"/></feMerge>
    </filter>
  </defs>
  <rect width="480" height="360" fill="#fafafa"/>
  <rect width="480" height="360" fill="url(#bgzeldalink001)"/>
  <path d="M 0 340 Q 240 320 480 340" stroke="#A855F7" stroke-width="1" fill="none" opacity="0.15"/>
  <path d="M 0 20 Q 240 0 480 20" stroke="#EC4899" stroke-width="1" fill="none" opacity="0.2"/>
  <circle cx="30" cy="25" r="2" fill="#EC4899" opacity="0.15"/>
  <circle cx="86" cy="72" r="3" fill="#3B82F6" opacity="0.22999999999999998"/>
  <circle cx="142" cy="119" r="4" fill="#A855F7" opacity="0.31"/>
  <circle cx="198" cy="166" r="5" fill="#EC4899" opacity="0.15"/>
  <circle cx="254" cy="213" r="2" fill="#3B82F6" opacity="0.22999999999999998"/>
  <circle cx="310" cy="260" r="3" fill="#A855F7" opacity="0.31"/>
  <circle cx="366" cy="307" r="4" fill="#EC4899" opacity="0.15"/>
  <circle cx="422" cy="34" r="5" fill="#3B82F6" opacity="0.22999999999999998"/>
  <rect x="138" y="70" width="204" height="232" rx="18" fill="url(#cardzeldalink001)" stroke="rgba(0,0,0,0.06)" stroke-width="1" filter="url(#shadowzeldalink001)"/>
  <rect x="152" y="84" width="176" height="176" rx="6" fill="#f5f5f7" stroke="rgba(0,0,0,0.08)" stroke-width="1"/>
  <rect x="244.42" y="88.00" width="8.84" height="8.84" rx="1.06" fill="#22C55E"/><rect x="235.58" y="96.84" width="8.84" height="8.84" rx="1.06" fill="#22C55E"/><rect x="244.42" y="96.84" width="8.84" height="8.84" rx="1.06" fill="#22C55E"/><rect x="253.26" y="96.84" width="8.84" height="8.84" rx="1.06" fill="#22C55E"/><rect x="226.74" y="105.68" width="8.84" height="8.84" rx="1.06" fill="#22C55E"/><rect x="235.58" y="105.68" width="8.84" height="8.84" rx="1.06" fill="#22C55E"/><rect x="244.42" y="105.68" width="8.84" height="8.84" rx="1.06" fill="#22C55E"/><rect x="253.26" y="105.68" width="8.84" height="8.84" rx="1.06" fill="#22C55E"/><rect x="262.11" y="105.68" width="8.84" height="8.84" rx="1.06" fill="#22C55E"/><rect x="217.89" y="114.53" width="8.84" height="8.84" rx="1.06" fill="#22C55E"/><rect x="226.74" y="114.53" width="8.84" height="8.84" rx="1.06" fill="#22C55E"/><rect x="235.58" y="114.53" width="8.84" height="8.84" rx="1.06" fill="#22C55E"/><rect x="244.42" y="114.53" width="8.84" height="8.84" rx="1.06" fill="#22C55E"/><rect x="253.26" y="114.53" width="8.84" height="8.84" rx="1.06" fill="#22C55E"/><rect x="262.11" y="114.53" width="8.84" height="8.84" rx="1.06" fill="#22C55E"/><rect x="270.95" y="114.53" width="8.84" height="8.84" rx="1.06" fill="#22C55E"/><rect x="182.53" y="123.37" width="8.84" height="8.84" rx="1.06" fill="#FBBF24"/><rect x="191.37" y="123.37" width="8.84" height="8.84" rx="1.06" fill="#FBBF24"/><rect x="200.21" y="123.37" width="8.84" height="8.84" rx="1.06" fill="#FBBF24"/><rect x="209.05" y="123.37" width="8.84" height="8.84" rx="1.06" fill="#22C55E"/><rect x="217.89" y="123.37" width="8.84" height="8.84" rx="1.06" fill="#22C55E"/><rect x="226.74" y="123.37" width="8.84" height="8.84" rx="1.06" fill="#22C55E"/><rect x="235.58" y="123.37" width="8.84" height="8.84" rx="1.06" fill="#22C55E"/><rect x="244.42" y="123.37" width="8.84" height="8.84" rx="1.06" fill="#22C55E"/><rect x="253.26" y="123.37" width="8.84" height="8.84" rx="1.06" fill="#22C55E"/><rect x="262.11" y="123.37" width="8.84" height="8.84" rx="1.06" fill="#22C55E"/><rect x="270.95" y="123.37" width="8.84" height="8.84" rx="1.06" fill="#22C55E"/><rect x="279.79" y="123.37" width="8.84" height="8.84" rx="1.06" fill="#22C55E"/><rect x="288.63" y="123.37" width="8.84" height="8.84" rx="1.06" fill="#FBBF24"/><rect x="297.47" y="123.37" width="8.84" height="8.84" rx="1.06" fill="#FBBF24"/><rect x="306.32" y="123.37" width="8.84" height="8.84" rx="1.06" fill="#FBBF24"/><rect x="173.68" y="132.21" width="8.84" height="8.84" rx="1.06" fill="#FBBF24"/><rect x="182.53" y="132.21" width="8.84" height="8.84" rx="1.06" fill="#FBBF24"/><rect x="191.37" y="132.21" width="8.84" height="8.84" rx="1.06" fill="#FBBF24"/><rect x="200.21" y="132.21" width="8.84" height="8.84" rx="1.06" fill="#FBBF24"/><rect x="209.05" y="132.21" width="8.84" height="8.84" rx="1.06" fill="#22C55E"/><rect x="217.89" y="132.21" width="8.84" height="8.84" rx="1.06" fill="#22C55E"/><rect x="226.74" y="132.21" width="8.84" height="8.84" rx="1.06" fill="#22C55E"/><rect x="235.58" y="132.21" width="8.84" height="8.84" rx="1.06" fill="#22C55E"/><rect x="244.42" y="132.21" width="8.84" height="8.84" rx="1.06" fill="#22C55E"/><rect x="253.26" y="132.21" width="8.84" height="8.84" rx="1.06" fill="#22C55E"/><rect x="262.11" y="132.21" width="8.84" height="8.84" rx="1.06" fill="#22C55E"/><rect x="270.95" y="132.21" width="8.84" height="8.84" rx="1.06" fill="#22C55E"/><rect x="279.79" y="132.21" width="8.84" height="8.84" rx="1.06" fill="#22C55E"/><rect x="288.63" y="132.21" width="8.84" height="8.84" rx="1.06" fill="#FBBF24"/><rect x="297.47" y="132.21" width="8.84" height="8.84" rx="1.06" fill="#FBBF24"/><rect x="306.32" y="132.21" width="8.84" height="8.84" rx="1.06" fill="#FBBF24"/><rect x="164.84" y="141.05" width="8.84" height="8.84" rx="1.06" fill="#FBBF24"/><rect x="173.68" y="141.05" width="8.84" height="8.84" rx="1.06" fill="#FBBF24"/><rect x="182.53" y="141.05" width="8.84" height="8.84" rx="1.06" fill="#FBBF24"/><rect x="191.37" y="141.05" width="8.84" height="8.84" rx="1.06" fill="#FFDAB9"/><rect x="200.21" y="141.05" width="8.84" height="8.84" rx="1.06" fill="#FFDAB9"/><rect x="209.05" y="141.05" width="8.84" height="8.84" rx="1.06" fill="#22C55E"/><rect x="217.89" y="141.05" width="8.84" height="8.84" rx="1.06" fill="#22C55E"/><rect x="226.74" y="141.05" width="8.84" height="8.84" rx="1.06" fill="#22C55E"/><rect x="235.58" y="141.05" width="8.84" height="8.84" rx="1.06" fill="#22C55E"/><rect x="244.42" y="141.05" width="8.84" height="8.84" rx="1.06" fill="#22C55E"/><rect x="253.26" y="141.05" width="8.84" height="8.84" rx="1.06" fill="#22C55E"/><rect x="262.11" y="141.05" width="8.84" height="8.84" rx="1.06" fill="#22C55E"/><rect x="270.95" y="141.05" width="8.84" height="8.84" rx="1.06" fill="#22C55E"/><rect x="279.79" y="141.05" width="8.84" height="8.84" rx="1.06" fill="#FFDAB9"/><rect x="288.63" y="141.05" width="8.84" height="8.84" rx="1.06" fill="#FFDAB9"/><rect x="297.47" y="141.05" width="8.84" height="8.84" rx="1.06" fill="#FBBF24"/><rect x="306.32" y="141.05" width="8.84" height="8.84" rx="1.06" fill="#FBBF24"/><rect x="164.84" y="149.89" width="8.84" height="8.84" rx="1.06" fill="#FBBF24"/><rect x="173.68" y="149.89" width="8.84" height="8.84" rx="1.06" fill="#FBBF24"/><rect x="182.53" y="149.89" width="8.84" height="8.84" rx="1.06" fill="#FFDAB9"/><rect x="191.37" y="149.89" width="8.84" height="8.84" rx="1.06" fill="#FFDAB9"/><rect x="200.21" y="149.89" width="8.84" height="8.84" rx="1.06" fill="#FFDAB9"/><rect x="209.05" y="149.89" width="8.84" height="8.84" rx="1.06" fill="#FFDAB9"/><rect x="217.89" y="149.89" width="8.84" height="8.84" rx="1.06" fill="#22C55E"/><rect x="226.74" y="149.89" width="8.84" height="8.84" rx="1.06" fill="#22C55E"/><rect x="235.58" y="149.89" width="8.84" height="8.84" rx="1.06" fill="#22C55E"/><rect x="244.42" y="149.89" width="8.84" height="8.84" rx="1.06" fill="#22C55E"/><rect x="253.26" y="149.89" width="8.84" height="8.84" rx="1.06" fill="#FFDAB9"/><rect x="262.11" y="149.89" width="8.84" height="8.84" rx="1.06" fill="#FFDAB9"/><rect x="270.95" y="149.89" width="8.84" height="8.84" rx="1.06" fill="#FFDAB9"/><rect x="279.79" y="149.89" width="8.84" height="8.84" rx="1.06" fill="#FFDAB9"/><rect x="288.63" y="149.89" width="8.84" height="8.84" rx="1.06" fill="#FFDAB9"/><rect x="297.47" y="149.89" width="8.84" height="8.84" rx="1.06" fill="#FBBF24"/><rect x="306.32" y="149.89" width="8.84" height="8.84" rx="1.06" fill="#FBBF24"/><rect x="164.84" y="158.74" width="8.84" height="8.84" rx="1.06" fill="#FBBF24"/><rect x="173.68" y="158.74" width="8.84" height="8.84" rx="1.06" fill="#FFDAB9"/><rect x="182.53" y="158.74" width="8.84" height="8.84" rx="1.06" fill="#FFDAB9"/><rect x="191.37" y="158.74" width="8.84" height="8.84" rx="1.06" fill="#FFDAB9"/><rect x="200.21" y="158.74" width="8.84" height="8.84" rx="1.06" fill="#FFDAB9"/><rect x="209.05" y="158.74" width="8.84" height="8.84" rx="1.06" fill="#1A1A1A"/><rect x="217.89" y="158.74" width="8.84" height="8.84" rx="1.06" fill="#FFDAB9"/><rect x="226.74" y="158.74" width="8.84" height="8.84" rx="1.06" fill="#22C55E"/><rect x="235.58" y="158.74" width="8.84" height="8.84" rx="1.06" fill="#22C55E"/><rect x="244.42" y="158.74" width="8.84" height="8.84" rx="1.06" fill="#22C55E"/><rect x="253.26" y="158.74" width="8.84" height="8.84" rx="1.06" fill="#FFDAB9"/><rect x="262.11" y="158.74" width="8.84" height="8.84" rx="1.06" fill="#1A1A1A"/><rect x="270.95" y="158.74" width="8.84" height="8.84" rx="1.06" fill="#FFDAB9"/><rect x="279.79" y="158.74" width="8.84" height="8.84" rx="1.06" fill="#FFDAB9"/><rect x="288.63" y="158.74" width="8.84" height="8.84" rx="1.06" fill="#FFDAB9"/><rect x="297.47" y="158.74" width="8.84" height="8.84" rx="1.06" fill="#FFDAB9"/><rect x="306.32" y="158.74" width="8.84" height="8.84" rx="1.06" fill="#FBBF24"/><rect x="164.84" y="167.58" width="8.84" height="8.84" rx="1.06" fill="#FBBF24"/><rect x="173.68" y="167.58" width="8.84" height="8.84" rx="1.06" fill="#FFDAB9"/><rect x="182.53" y="167.58" width="8.84" height="8.84" rx="1.06" fill="#FFDAB9"/><rect x="191.37" y="167.58" width="8.84" height="8.84" rx="1.06" fill="#FFDAB9"/><rect x="200.21" y="167.58" width="8.84" height="8.84" rx="1.06" fill="#FFDAB9"/><rect x="209.05" y="167.58" width="8.84" height="8.84" rx="1.06" fill="#1A1A1A"/><rect x="217.89" y="167.58" width="8.84" height="8.84" rx="1.06" fill="#FFDAB9"/><rect x="226.74" y="167.58" width="8.84" height="8.84" rx="1.06" fill="#22C55E"/><rect x="235.58" y="167.58" width="8.84" height="8.84" rx="1.06" fill="#22C55E"/><rect x="244.42" y="167.58" width="8.84" height="8.84" rx="1.06" fill="#22C55E"/><rect x="253.26" y="167.58" width="8.84" height="8.84" rx="1.06" fill="#FFDAB9"/><rect x="262.11" y="167.58" width="8.84" height="8.84" rx="1.06" fill="#1A1A1A"/><rect x="270.95" y="167.58" width="8.84" height="8.84" rx="1.06" fill="#FFDAB9"/><rect x="279.79" y="167.58" width="8.84" height="8.84" rx="1.06" fill="#FFDAB9"/><rect x="288.63" y="167.58" width="8.84" height="8.84" rx="1.06" fill="#FFDAB9"/><rect x="297.47" y="167.58" width="8.84" height="8.84" rx="1.06" fill="#FFDAB9"/><rect x="306.32" y="167.58" width="8.84" height="8.84" rx="1.06" fill="#FBBF24"/><rect x="164.84" y="176.42" width="8.84" height="8.84" rx="1.06" fill="#FBBF24"/><rect x="173.68" y="176.42" width="8.84" height="8.84" rx="1.06" fill="#FFDAB9"/><rect x="182.53" y="176.42" width="8.84" height="8.84" rx="1.06" fill="#FFDAB9"/><rect x="191.37" y="176.42" width="8.84" height="8.84" rx="1.06" fill="#FFDAB9"/><rect x="200.21" y="176.42" width="8.84" height="8.84" rx="1.06" fill="#FFDAB9"/><rect x="209.05" y="176.42" width="8.84" height="8.84" rx="1.06" fill="#FFDAB9"/><rect x="217.89" y="176.42" width="8.84" height="8.84" rx="1.06" fill="#FFDAB9"/><rect x="226.74" y="176.42" width="8.84" height="8.84" rx="1.06" fill="#22C55E"/><rect x="235.58" y="176.42" width="8.84" height="8.84" rx="1.06" fill="#22C55E"/><rect x="244.42" y="176.42" width="8.84" height="8.84" rx="1.06" fill="#22C55E"/><rect x="253.26" y="176.42" width="8.84" height="8.84" rx="1.06" fill="#FFDAB9"/><rect x="262.11" y="176.42" width="8.84" height="8.84" rx="1.06" fill="#FFDAB9"/><rect x="270.95" y="176.42" width="8.84" height="8.84" rx="1.06" fill="#FFDAB9"/><rect x="279.79" y="176.42" width="8.84" height="8.84" rx="1.06" fill="#FFDAB9"/><rect x="288.63" y="176.42" width="8.84" height="8.84" rx="1.06" fill="#FFDAB9"/><rect x="297.47" y="176.42" width="8.84" height="8.84" rx="1.06" fill="#FFDAB9"/><rect x="306.32" y="176.42" width="8.84" height="8.84" rx="1.06" fill="#FBBF24"/><rect x="164.84" y="185.26" width="8.84" height="8.84" rx="1.06" fill="#FBBF24"/><rect x="173.68" y="185.26" width="8.84" height="8.84" rx="1.06" fill="#FBBF24"/><rect x="182.53" y="185.26" width="8.84" height="8.84" rx="1.06" fill="#FFDAB9"/><rect x="191.37" y="185.26" width="8.84" height="8.84" rx="1.06" fill="#FFDAB9"/><rect x="200.21" y="185.26" width="8.84" height="8.84" rx="1.06" fill="#FFDAB9"/><rect x="209.05" y="185.26" width="8.84" height="8.84" rx="1.06" fill="#FFDAB9"/><rect x="217.89" y="185.26" width="8.84" height="8.84" rx="1.06" fill="#FFDAB9"/><rect x="226.74" y="185.26" width="8.84" height="8.84" rx="1.06" fill="#22C55E"/><rect x="235.58" y="185.26" width="8.84" height="8.84" rx="1.06" fill="#22C55E"/><rect x="244.42" y="185.26" width="8.84" height="8.84" rx="1.06" fill="#22C55E"/><rect x="253.26" y="185.26" width="8.84" height="8.84" rx="1.06" fill="#FFDAB9"/><rect x="262.11" y="185.26" width="8.84" height="8.84" rx="1.06" fill="#FFDAB9"/><rect x="270.95" y="185.26" width="8.84" height="8.84" rx="1.06" fill="#FFDAB9"/><rect x="279.79" y="185.26" width="8.84" height="8.84" rx="1.06" fill="#FFDAB9"/><rect x="288.63" y="185.26" width="8.84" height="8.84" rx="1.06" fill="#FFDAB9"/><rect x="297.47" y="185.26" width="8.84" height="8.84" rx="1.06" fill="#FBBF24"/><rect x="306.32" y="185.26" width="8.84" height="8.84" rx="1.06" fill="#FBBF24"/><rect x="173.68" y="194.11" width="8.84" height="8.84" rx="1.06" fill="#FBBF24"/><rect x="182.53" y="194.11" width="8.84" height="8.84" rx="1.06" fill="#FBBF24"/><rect x="191.37" y="194.11" width="8.84" height="8.84" rx="1.06" fill="#FFDAB9"/><rect x="200.21" y="194.11" width="8.84" height="8.84" rx="1.06" fill="#FFDAB9"/><rect x="209.05" y="194.11" width="8.84" height="8.84" rx="1.06" fill="#FFDAB9"/><rect x="217.89" y="194.11" width="8.84" height="8.84" rx="1.06" fill="#FFDAB9"/><rect x="226.74" y="194.11" width="8.84" height="8.84" rx="1.06" fill="#22C55E"/><rect x="235.58" y="194.11" width="8.84" height="8.84" rx="1.06" fill="#22C55E"/><rect x="244.42" y="194.11" width="8.84" height="8.84" rx="1.06" fill="#22C55E"/><rect x="253.26" y="194.11" width="8.84" height="8.84" rx="1.06" fill="#FFDAB9"/><rect x="262.11" y="194.11" width="8.84" height="8.84" rx="1.06" fill="#FFDAB9"/><rect x="270.95" y="194.11" width="8.84" height="8.84" rx="1.06" fill="#FFDAB9"/><rect x="279.79" y="194.11" width="8.84" height="8.84" rx="1.06" fill="#FFDAB9"/><rect x="288.63" y="194.11" width="8.84" height="8.84" rx="1.06" fill="#FBBF24"/><rect x="297.47" y="194.11" width="8.84" height="8.84" rx="1.06" fill="#FBBF24"/><rect x="182.53" y="202.95" width="8.84" height="8.84" rx="1.06" fill="#FBBF24"/><rect x="191.37" y="202.95" width="8.84" height="8.84" rx="1.06" fill="#FBBF24"/><rect x="200.21" y="202.95" width="8.84" height="8.84" rx="1.06" fill="#FBBF24"/><rect x="209.05" y="202.95" width="8.84" height="8.84" rx="1.06" fill="#FBBF24"/><rect x="217.89" y="202.95" width="8.84" height="8.84" rx="1.06" fill="#FBBF24"/><rect x="226.74" y="202.95" width="8.84" height="8.84" rx="1.06" fill="#FBBF24"/><rect x="235.58" y="202.95" width="8.84" height="8.84" rx="1.06" fill="#FBBF24"/><rect x="244.42" y="202.95" width="8.84" height="8.84" rx="1.06" fill="#FBBF24"/><rect x="253.26" y="202.95" width="8.84" height="8.84" rx="1.06" fill="#FBBF24"/><rect x="262.11" y="202.95" width="8.84" height="8.84" rx="1.06" fill="#FBBF24"/><rect x="270.95" y="202.95" width="8.84" height="8.84" rx="1.06" fill="#FBBF24"/><rect x="279.79" y="202.95" width="8.84" height="8.84" rx="1.06" fill="#FBBF24"/><rect x="288.63" y="202.95" width="8.84" height="8.84" rx="1.06" fill="#FBBF24"/><rect x="200.21" y="211.79" width="8.84" height="8.84" rx="1.06" fill="#22C55E"/><rect x="209.05" y="211.79" width="8.84" height="8.84" rx="1.06" fill="#22C55E"/><rect x="217.89" y="211.79" width="8.84" height="8.84" rx="1.06" fill="#22C55E"/><rect x="226.74" y="211.79" width="8.84" height="8.84" rx="1.06" fill="#22C55E"/><rect x="235.58" y="211.79" width="8.84" height="8.84" rx="1.06" fill="#22C55E"/><rect x="244.42" y="211.79" width="8.84" height="8.84" rx="1.06" fill="#22C55E"/><rect x="253.26" y="211.79" width="8.84" height="8.84" rx="1.06" fill="#22C55E"/><rect x="262.11" y="211.79" width="8.84" height="8.84" rx="1.06" fill="#22C55E"/><rect x="270.95" y="211.79" width="8.84" height="8.84" rx="1.06" fill="#22C55E"/><rect x="279.79" y="211.79" width="8.84" height="8.84" rx="1.06" fill="#22C55E"/><rect x="182.53" y="220.63" width="8.84" height="8.84" rx="1.06" fill="#C0C0C0"/><rect x="191.37" y="220.63" width="8.84" height="8.84" rx="1.06" fill="#C0C0C0"/><rect x="200.21" y="220.63" width="8.84" height="8.84" rx="1.06" fill="#C0C0C0"/><rect x="209.05" y="220.63" width="8.84" height="8.84" rx="1.06" fill="#22C55E"/><rect x="217.89" y="220.63" width="8.84" height="8.84" rx="1.06" fill="#22C55E"/><rect x="226.74" y="220.63" width="8.84" height="8.84" rx="1.06" fill="#22C55E"/><rect x="235.58" y="220.63" width="8.84" height="8.84" rx="1.06" fill="#22C55E"/><rect x="244.42" y="220.63" width="8.84" height="8.84" rx="1.06" fill="#22C55E"/><rect x="253.26" y="220.63" width="8.84" height="8.84" rx="1.06" fill="#22C55E"/><rect x="262.11" y="220.63" width="8.84" height="8.84" rx="1.06" fill="#8B4513"/><rect x="270.95" y="220.63" width="8.84" height="8.84" rx="1.06" fill="#8B4513"/><rect x="279.79" y="220.63" width="8.84" height="8.84" rx="1.06" fill="#C0C0C0"/><rect x="288.63" y="220.63" width="8.84" height="8.84" rx="1.06" fill="#C0C0C0"/><rect x="182.53" y="229.47" width="8.84" height="8.84" rx="1.06" fill="#C0C0C0"/><rect x="191.37" y="229.47" width="8.84" height="8.84" rx="1.06" fill="#C0C0C0"/><rect x="200.21" y="229.47" width="8.84" height="8.84" rx="1.06" fill="#C0C0C0"/><rect x="209.05" y="229.47" width="8.84" height="8.84" rx="1.06" fill="#22C55E"/><rect x="217.89" y="229.47" width="8.84" height="8.84" rx="1.06" fill="#22C55E"/><rect x="226.74" y="229.47" width="8.84" height="8.84" rx="1.06" fill="#22C55E"/><rect x="235.58" y="229.47" width="8.84" height="8.84" rx="1.06" fill="#22C55E"/><rect x="244.42" y="229.47" width="8.84" height="8.84" rx="1.06" fill="#22C55E"/><rect x="253.26" y="229.47" width="8.84" height="8.84" rx="1.06" fill="#22C55E"/><rect x="262.11" y="229.47" width="8.84" height="8.84" rx="1.06" fill="#8B4513"/><rect x="270.95" y="229.47" width="8.84" height="8.84" rx="1.06" fill="#8B4513"/><rect x="279.79" y="229.47" width="8.84" height="8.84" rx="1.06" fill="#C0C0C0"/><rect x="288.63" y="229.47" width="8.84" height="8.84" rx="1.06" fill="#C0C0C0"/><rect x="182.53" y="238.32" width="8.84" height="8.84" rx="1.06" fill="#C0C0C0"/><rect x="191.37" y="238.32" width="8.84" height="8.84" rx="1.06" fill="#C0C0C0"/><rect x="200.21" y="238.32" width="8.84" height="8.84" rx="1.06" fill="#C0C0C0"/><rect x="209.05" y="238.32" width="8.84" height="8.84" rx="1.06" fill="#22C55E"/><rect x="217.89" y="238.32" width="8.84" height="8.84" rx="1.06" fill="#22C55E"/><rect x="226.74" y="238.32" width="8.84" height="8.84" rx="1.06" fill="#22C55E"/><rect x="235.58" y="238.32" width="8.84" height="8.84" rx="1.06" fill="#22C55E"/><rect x="244.42" y="238.32" width="8.84" height="8.84" rx="1.06" fill="#22C55E"/><rect x="253.26" y="238.32" width="8.84" height="8.84" rx="1.06" fill="#22C55E"/><rect x="262.11" y="238.32" width="8.84" height="8.84" rx="1.06" fill="#8B4513"/><rect x="270.95" y="238.32" width="8.84" height="8.84" rx="1.06" fill="#8B4513"/><rect x="279.79" y="238.32" width="8.84" height="8.84" rx="1.06" fill="#C0C0C0"/><rect x="288.63" y="238.32" width="8.84" height="8.84" rx="1.06" fill="#C0C0C0"/><rect x="191.37" y="247.16" width="8.84" height="8.84" rx="1.06" fill="#C0C0C0"/><rect x="200.21" y="247.16" width="8.84" height="8.84" rx="1.06" fill="#C0C0C0"/><rect x="209.05" y="247.16" width="8.84" height="8.84" rx="1.06" fill="#C0C0C0"/><rect x="217.89" y="247.16" width="8.84" height="8.84" rx="1.06" fill="#22C55E"/><rect x="226.74" y="247.16" width="8.84" height="8.84" rx="1.06" fill="#22C55E"/><rect x="235.58" y="247.16" width="8.84" height="8.84" rx="1.06" fill="#22C55E"/><rect x="244.42" y="247.16" width="8.84" height="8.84" rx="1.06" fill="#22C55E"/><rect x="253.26" y="247.16" width="8.84" height="8.84" rx="1.06" fill="#22C55E"/><rect x="262.11" y="247.16" width="8.84" height="8.84" rx="1.06" fill="#C0C0C0"/><rect x="270.95" y="247.16" width="8.84" height="8.84" rx="1.06" fill="#C0C0C0"/><rect x="279.79" y="247.16" width="8.84" height="8.84" rx="1.06" fill="#C0C0C0"/>
  <rect x="390" y="20" width="70" height="22" rx="11" fill="#ef4444"/>
  <text x="425" y="35" font-family="-apple-system, sans-serif" font-size="11" font-weight="600" fill="#ffffff" text-anchor="middle">HARD</text>
  <rect x="20" y="20" width="56" height="22" rx="11" fill="#A855F7" opacity="0.9"/>
  <text x="48" y="35" font-family="-apple-system, sans-serif" font-size="10" font-weight="600" fill="#ffffff" text-anchor="middle">ANIME</text>
  <text x="240" y="286" font-family="-apple-system, 'PingFang SC', sans-serif" font-size="16" font-weight="600" fill="#1d1d1f" text-anchor="middle">林克</text>
  <text x="240" y="304" font-family="-apple-system, sans-serif" font-size="11" font-weight="400" fill="#86868b" text-anchor="middle">237 beads · 20×20</text>
</svg>
