<svg xmlns="http://www.w3.org/2000/svg" width="192" height="192" viewBox="0 0 192 192">
  <rect width="192" height="192" rx="32" fill="#ef4444"/>
  <g shape-rendering="crispEdges">
    <rect x="56" y="56" width="16" height="16" fill="#ffffff"/>
    <rect x="72" y="56" width="16" height="16" fill="#fef3c7"/>
    <rect x="104" y="56" width="16" height="16" fill="#fef3c7"/>
    <rect x="120" y="56" width="16" height="16" fill="#ffffff"/>
    <rect x="56" y="72" width="16" height="16" fill="#fef3c7"/>
    <rect x="72" y="72" width="16" height="16" fill="#000000"/>
    <rect x="104" y="72" width="16" height="16" fill="#000000"/>
    <rect x="120" y="72" width="16" height="16" fill="#fef3c7"/>
    <rect x="56" y="88" width="16" height="16" fill="#ffffff"/>
    <rect x="72" y="88" width="16" height="16" fill="#fde68a"/>
    <rect x="88" y="88" width="16" height="16" fill="#fde68a"/>
    <rect x="104" y="88" width="16" height="16" fill="#fde68a"/>
    <rect x="120" y="88" width="16" height="16" fill="#ffffff"/>
    <rect x="72" y="104" width="16" height="16" fill="#fde68a"/>
    <rect x="88" y="104" width="16" height="16" fill="#ef4444"/>
    <rect x="104" y="104" width="16" height="16" fill="#fde68a"/>
    <rect x="72" y="120" width="16" height="16" fill="#fde68a"/>
    <rect x="88" y="120" width="16" height="16" fill="#dc2626"/>
    <rect x="104" y="120" width="16" height="16" fill="#fde68a"/>
    <rect x="80" y="136" width="32" height="8" fill="#dc2626"/>
  </g>
</svg>
