<svg xmlns="http://www.w3.org/2000/svg" width="1200" height="630" viewBox="0 0 1200 630" font-family="-apple-system, BlinkMacSystemFont, 'SF Pro Display', 'PingFang SC', 'Microsoft YaHei', sans-serif">
  <defs>
    <linearGradient id="bg" x1="0" y1="0" x2="0" y2="1">
      <stop offset="0" stop-color="#ffffff"/>
      <stop offset="1" stop-color="#f5f5f7"/>
    </linearGradient>
    <pattern id="grid" width="40" height="40" patternUnits="userSpaceOnUse">
      <path d="M 40 0 L 0 0 0 40" fill="none" stroke="#e8ecf2" stroke-width="1"/>
    </pattern>
  </defs>

  <!-- Background -->
  <rect width="1200" height="630" fill="url(#bg)"/>
  <rect width="1200" height="630" fill="url(#grid)"/>

  <!-- Pixel heart (top-left decoration) -->
  <g fill="#ff3b30">
    <rect x="150" y="90" width="18" height="18" rx="3"/>
    <rect x="168" y="90" width="18" height="18" rx="3"/>
    <rect x="204" y="90" width="18" height="18" rx="3"/>
    <rect x="222" y="90" width="18" height="18" rx="3"/>
    <rect x="132" y="108" width="18" height="18" rx="3"/>
    <rect x="150" y="108" width="18" height="18" rx="3"/>
    <rect x="168" y="108" width="18" height="18" rx="3"/>
    <rect x="186" y="108" width="18" height="18" rx="3"/>
    <rect x="204" y="108" width="18" height="18" rx="3"/>
    <rect x="222" y="108" width="18" height="18" rx="3"/>
    <rect x="240" y="108" width="18" height="18" rx="3"/>
    <rect x="132" y="126" width="18" height="18" rx="3"/>
    <rect x="150" y="126" width="18" height="18" rx="3"/>
    <rect x="168" y="126" width="18" height="18" rx="3"/>
    <rect x="186" y="126" width="18" height="18" rx="3"/>
    <rect x="204" y="126" width="18" height="18" rx="3"/>
    <rect x="222" y="126" width="18" height="18" rx="3"/>
    <rect x="240" y="126" width="18" height="18" rx="3"/>
    <rect x="150" y="144" width="18" height="18" rx="3"/>
    <rect x="168" y="144" width="18" height="18" rx="3"/>
    <rect x="186" y="144" width="18" height="18" rx="3"/>
    <rect x="204" y="144" width="18" height="18" rx="3"/>
    <rect x="222" y="144" width="18" height="18" rx="3"/>
    <rect x="168" y="162" width="18" height="18" rx="3"/>
    <rect x="186" y="162" width="18" height="18" rx="3"/>
    <rect x="204" y="162" width="18" height="18" rx="3"/>
    <rect x="186" y="180" width="18" height="18" rx="3"/>
  </g>

  <!-- Pixel star (top-right decoration) -->
  <g fill="#ffcc00">
    <rect x="966" y="90" width="18" height="18" rx="3"/>
    <rect x="984" y="90" width="18" height="18" rx="3"/>
    <rect x="1002" y="90" width="18" height="18" rx="3"/>
    <rect x="984" y="108" width="18" height="18" rx="3"/>
    <rect x="948" y="126" width="18" height="18" rx="3"/>
    <rect x="966" y="126" width="18" height="18" rx="3"/>
    <rect x="984" y="126" width="18" height="18" rx="3"/>
    <rect x="1002" y="126" width="18" height="18" rx="3"/>
    <rect x="1020" y="126" width="18" height="18" rx="3"/>
    <rect x="948" y="144" width="18" height="18" rx="3"/>
    <rect x="966" y="144" width="18" height="18" rx="3"/>
    <rect x="984" y="144" width="18" height="18" rx="3"/>
    <rect x="1002" y="144" width="18" height="18" rx="3"/>
    <rect x="1020" y="144" width="18" height="18" rx="3"/>
    <rect x="948" y="162" width="18" height="18" rx="3"/>
    <rect x="966" y="162" width="18" height="18" rx="3"/>
    <rect x="984" y="162" width="18" height="18" rx="3"/>
    <rect x="1002" y="162" width="18" height="18" rx="3"/>
    <rect x="1020" y="162" width="18" height="18" rx="3"/>
    <rect x="966" y="180" width="18" height="18" rx="3"/>
    <rect x="984" y="180" width="18" height="18" rx="3"/>
    <rect x="1002" y="180" width="18" height="18" rx="3"/>
  </g>

  <!-- Title -->
  <text x="600" y="345" text-anchor="middle" font-size="104" font-weight="700" fill="#1d1d1f" letter-spacing="4">拼豆收集</text>

  <!-- Subtitle -->
  <text x="600" y="420" text-anchor="middle" font-size="44" font-weight="600" fill="#0071e3" letter-spacing="3">Perler Bead Templates</text>

  <!-- Accent line -->
  <rect x="560" y="455" width="80" height="4" rx="2" fill="#0071e3"/>

  <!-- Bottom bead row (decorative palette) -->
  <g>
    <rect x="432" y="540" width="36" height="36" rx="8" fill="#0071e3"/>
    <rect x="492" y="540" width="36" height="36" rx="8" fill="#ff3b30"/>
    <rect x="552" y="540" width="36" height="36" rx="8" fill="#34c759"/>
    <rect x="612" y="540" width="36" height="36" rx="8" fill="#ffcc00"/>
    <rect x="672" y="540" width="36" height="36" rx="8" fill="#af52de"/>
    <rect x="732" y="540" width="36" height="36" rx="8" fill="#ff9500"/>
  </g>
</svg>
